# Blender v2.92.0 OBJ File: 'algae.blend'
# www.blender.org
mtllib 104.mtl
o algae_cube_Cube
v -0.001630 0.118146 -1.171397
v -0.005207 0.097258 1.165303
v -0.001876 0.058654 -0.000000
v -0.006304 -0.059573 -0.000000
v -0.003855 -0.041146 -0.583803
v -0.001855 0.106946 -0.585507
v -0.006504 0.069235 0.591499
v -0.002204 -0.042699 0.595225
v -0.001528 -0.050021 -0.878678
v -0.006459 0.116631 -0.872376
v -0.001508 0.084385 -0.282635
v -0.003217 -0.048122 -0.281932
v -0.006296 -0.087312 0.295840
v -0.006331 0.099197 0.295825
v -0.002114 0.069167 0.881849
v -0.003685 -0.040894 0.879833
v 0.002534 -0.000362 0.000000
v 0.002717 -0.005623 -0.589402
v 0.001674 -0.066643 0.598586
v 0.006511 -0.040075 -0.888951
v 0.006514 -0.002207 -0.285932
v 0.003124 0.002508 0.299921
v 0.001638 0.004525 0.886666
v 0.001496 0.077225 -0.882542
v 0.005963 -0.026788 0.150576
v 0.001505 0.050188 0.149610
v 0.002704 -0.008836 -0.142183
v 0.005469 0.061766 -0.142751
v 0.003632 0.001194 -0.437464
v 0.003098 0.068314 -0.437127
v 0.006060 -0.035674 -0.740313
v 0.001595 0.042201 -0.735558
v 0.001541 -0.052966 0.742506
v 0.006250 0.060487 0.747569
v 0.003092 -0.017056 0.449861
v 0.002922 0.029718 0.449750
v 0.004173 0.038641 -0.955510
vt 0.643463 0.399518
vt 0.608433 0.399032
vt 0.627218 0.287293
vt 0.644229 0.287478
vt 0.537200 0.398044
vt 0.538232 0.286325
vt 0.555494 0.286513
vt 0.714776 0.400507
vt 0.678809 0.400008
vt 0.697735 0.288059
vt 0.661241 0.287663
vt 0.572481 0.398533
vt 0.732994 0.288443
vt 0.732449 0.400752
vt 0.573425 0.286708
vt 0.591356 0.286903
vt 0.522054 -0.211154
vt 0.483530 0.675856
vt 0.520970 0.286138
vt 0.592689 0.011366
vt 0.609287 0.287098
vt 0.662490 0.012024
vt 0.628508 0.011703
vt 0.741032 0.345449
vt 0.698940 0.012367
vt 0.715365 0.288251
vt 0.556870 0.011028
vt 1.051103 0.015687
vt 0.731277 0.678201
vt 0.679488 0.287861
vt 0.204504 0.007695
vt 0.518449 0.676186
vt 0.522387 0.010703
vt 0.556709 -0.210826
vt 0.734882 -0.209139
vt 0.695884 0.677866
vt 0.592707 -0.210485
vt 0.553104 0.676514
vt 0.662857 -0.209821
vt 0.625100 0.677196
vt 0.734157 0.012699
vt 0.589102 0.676855
vt 0.699490 -0.209474
vt 0.659252 0.677519
vt 0.766669 0.678536
vt 0.628705 -0.210144
vt 0.770274 -0.208804
vn 0.9998 -0.0177 0.0129
vn 0.9992 -0.0391 0.0035
vn 0.9991 -0.0417 0.0049
vn 1.0000 0.0064 -0.0056
vn 0.9989 -0.0389 0.0247
vn 0.9996 -0.0260 -0.0085
vn 0.9991 0.0422 0.0094
vn 1.0000 0.0036 0.0007
vn 0.9994 0.0327 -0.0073
vn 0.9997 0.0243 -0.0031
vn 0.9983 0.0583 0.0051
vn 0.9936 -0.1060 0.0397
vn 0.9865 -0.1635 0.0042
vn 0.9990 0.0419 0.0145
vn 0.9833 -0.1731 0.0562
vn -0.9835 -0.1685 -0.0656
vn 0.9964 0.0622 0.0581
vn 0.9983 0.0579 0.0076
vn 0.9809 0.1937 0.0168
vn 0.9776 -0.2092 -0.0233
vn -0.9998 0.0145 -0.0123
vn 0.6423 0.7664 -0.0095
vn 0.9964 0.0836 -0.0132
vn 0.9883 -0.1522 0.0092
vn 0.9851 0.1708 0.0179
vn 0.9890 -0.1476 0.0100
vn 0.9879 -0.1551 -0.0057
vn 0.9998 0.0080 -0.0188
vn -0.9276 -0.3736 -0.0025
vn -0.9992 -0.0386 -0.0050
vn 0.9912 -0.1235 0.0486
vn 0.8087 0.5857 0.0544
vn 0.9672 -0.2529 -0.0237
vn 0.7608 -0.6485 0.0255
vn -1.0000 -0.0002 0.0000
vn 0.9999 0.0080 -0.0064
vn 0.9852 0.1709 0.0116
vn 0.9983 0.0566 0.0109
vn -0.9999 0.0129 0.0024
vn 0.9945 -0.1037 -0.0133
vn 0.9990 -0.0422 0.0162
vn -0.9994 -0.0290 -0.0163
vn 0.9834 -0.1816 0.0022
vn 0.9999 0.0037 0.0107
vn -0.9873 -0.1579 0.0141
vn -0.9995 -0.0293 -0.0070
vn 0.9814 0.1868 0.0439
vn 0.9983 0.0577 -0.0126
vn 0.9784 -0.2059 0.0164
vn 0.9898 -0.1260 0.0662
vn 0.9815 0.1909 -0.0114
vn 0.9891 -0.1273 -0.0735
vn 0.7879 -0.6155 0.0206
vn 0.9879 -0.1475 -0.0484
vn -0.9999 -0.0002 0.0137
vn -0.9993 0.0374 -0.0094
vn 0.4249 0.9043 0.0416
vn 0.9966 0.0812 -0.0121
vn 0.9132 0.4042 -0.0520
vn 0.9984 0.0572 0.0013
vn 0.9579 0.2872 -0.0013
vn 0.9897 0.1431 0.0051
vn 0.9975 0.0707 -0.0008
vn -0.9998 0.0140 0.0151
vn -0.9991 0.0374 -0.0202
vn -0.9999 0.0135 0.0022
vn -0.9998 0.0137 0.0165
vn -0.1678 -0.6394 -0.7503
vn -0.9992 -0.0385 -0.0045
vn -0.9999 0.0129 -0.0001
usemtl algae_green
s off
f 28/1/1 26/2/1 17/3/1
f 17/3/2 27/4/2 28/1/2
f 34/5/3 33/6/3 19/7/3
f 32/8/4 30/9/4 18/10/4
f 28/1/5 27/4/5 21/11/5
f 36/12/6 34/5/6 19/7/6
f 32/8/7 20/13/7 24/14/7
f 36/12/8 35/15/8 22/16/8
f 30/9/9 28/1/9 21/11/9
f 26/2/10 36/12/10 22/16/10
f 15/17/11 2/18/11 23/19/11
f 22/16/12 13/20/12 25/21/12
f 12/22/13 27/4/13 4/23/13
f 37/24/14 24/14/14 20/13/14
f 18/10/15 5/25/15 31/26/15
f 35/15/16 19/7/16 8/27/16
f 34/5/17 15/17/17 23/19/17
f 22/16/18 25/21/18 26/2/18
f 24/14/19 1/28/19 10/29/19
f 21/11/20 12/22/20 29/30/20
f 2/31/21 15/32/21 16/33/21
f 34/5/22 7/34/22 15/32/22
f 32/8/23 10/35/23 6/36/23
f 13/20/24 35/15/24 8/27/24
f 36/12/25 14/37/25 7/38/25
f 17/3/26 4/23/26 27/4/26
f 5/25/27 29/30/27 12/22/27
f 21/11/28 29/30/28 30/9/28
f 8/27/29 33/6/29 16/33/29
f 16/33/30 7/38/30 8/27/30
f 23/19/31 16/33/31 33/6/31
f 28/1/32 11/39/32 3/40/32
f 4/23/33 25/21/33 13/20/33
f 9/41/34 31/26/34 5/25/34
f 14/42/35 4/23/35 13/20/35
f 30/9/36 29/30/36 18/10/36
f 30/9/37 6/43/37 11/44/37
f 18/10/38 31/26/38 32/8/38
f 11/44/39 5/25/39 12/22/39
f 13/20/40 22/16/40 35/15/40
f 23/19/41 33/6/41 34/5/41
f 10/29/42 1/45/42 9/41/42
f 5/25/43 18/10/43 29/30/43
f 19/7/44 35/15/44 36/12/44
f 8/27/45 19/7/45 33/6/45
f 5/25/46 10/29/46 9/41/46
f 32/8/47 24/14/47 10/35/47
f 25/21/48 17/3/48 26/2/48
f 12/22/49 21/11/49 27/4/49
f 2/18/50 16/33/50 23/19/50
f 26/2/51 3/46/51 14/42/51
f 37/24/52 9/41/52 1/47/52
f 9/41/53 20/13/53 31/26/53
f 4/23/54 17/3/54 25/21/54
f 8/27/55 14/42/55 13/20/55
f 3/40/56 12/22/56 4/23/56
f 28/1/57 3/46/57 26/2/57
f 32/8/58 6/43/58 30/9/58
f 36/12/59 7/34/59 34/5/59
f 32/8/60 31/26/60 20/13/60
f 30/9/61 11/39/61 28/1/61
f 26/2/62 14/37/62 36/12/62
f 24/14/63 37/24/63 1/28/63
f 16/33/64 15/32/64 7/38/64
f 14/42/65 3/40/65 4/23/65
f 11/44/66 6/36/66 5/25/66
f 5/25/67 6/36/67 10/29/67
f 37/24/68 20/13/68 9/41/68
f 8/27/69 7/38/69 14/42/69
f 3/40/70 11/44/70 12/22/70
