# Blender v2.92.0 OBJ File: 'algae.blend'
# www.blender.org
mtllib 112.mtl
o algae_cube_Cube
v -0.006704 0.026731 -1.676376
v -0.002868 0.049067 1.734214
v -0.004892 0.088556 -0.000000
v -0.006345 -0.086087 -0.000000
v -0.003497 -0.107828 -0.862364
v -0.001236 0.039944 -0.879406
v -0.003829 0.077870 0.874572
v -0.003268 -0.106521 0.878881
v -0.005979 -0.096559 -1.265478
v -0.002410 0.028492 -1.305842
v -0.001751 0.063757 -0.422418
v -0.006731 -0.097718 -0.404305
v -0.005706 -0.057959 0.430090
v -0.001341 0.047468 0.446828
v -0.002208 0.079520 1.313963
v -0.003510 -0.108090 1.299170
v 0.001279 -0.080368 0.000000
v 0.001908 -0.075070 -0.903113
v 0.005343 -0.008848 0.944911
v 0.001441 -0.037694 -1.349389
v 0.006208 -0.081627 -0.451368
v 0.006768 -0.087317 0.477920
v 0.005467 -0.088673 1.401148
v 0.004071 -0.005174 -1.379135
v 0.005848 -0.053906 0.237195
v 0.001301 0.024250 0.228478
v 0.005707 -0.073846 -0.224774
v 0.001805 0.012134 -0.217677
v 0.006732 -0.085804 -0.696380
v 0.005607 0.004947 -0.690092
v 0.003758 -0.043234 -1.146320
v 0.005542 0.034085 -1.163141
v 0.002575 -0.023618 1.145988
v 0.001440 0.013550 1.135187
v 0.004120 -0.063804 0.701649
v 0.001276 0.046494 0.685290
v 0.001499 -0.041791 -1.456016
vt 0.643463 0.399518
vt 0.608433 0.399032
vt 0.627218 0.287293
vt 0.644229 0.287478
vt 0.537200 0.398044
vt 0.538232 0.286325
vt 0.555494 0.286513
vt 0.714776 0.400507
vt 0.678809 0.400008
vt 0.697735 0.288059
vt 0.661241 0.287663
vt 0.572481 0.398533
vt 0.715365 0.288251
vt 0.732449 0.400752
vt 0.573425 0.286708
vt 0.591356 0.286903
vt 0.522054 -0.211154
vt 0.483530 0.675856
vt 0.520970 0.286138
vt 0.592689 0.011366
vt 0.609287 0.287098
vt 0.662490 0.012024
vt 0.628508 0.011703
vt 0.741032 0.345449
vt 0.732994 0.288443
vt 0.698940 0.012367
vt 0.556870 0.011028
vt 0.731277 0.678201
vt 0.679488 0.287861
vt 0.204504 0.007695
vt 0.518449 0.676186
vt 0.522387 0.010703
vt 0.556709 -0.210826
vt 0.734882 -0.209139
vt 0.695884 0.677866
vt 0.592707 -0.210485
vt 0.553104 0.676514
vt 0.662857 -0.209821
vt 0.625100 0.677196
vt 0.734157 0.012699
vt 0.699490 -0.209474
vt 0.659252 0.677519
vt 0.766669 0.678536
vt 0.628705 -0.210144
vt 0.589102 0.676855
vt 0.770274 -0.208804
vt 1.051103 0.015687
vn 1.0000 -0.0028 0.0012
vn 0.9988 0.0436 0.0209
vn 0.9992 0.0353 0.0163
vn 0.9992 -0.0394 -0.0026
vn 0.9990 0.0453 0.0007
vn 0.9940 0.1087 0.0076
vn 0.9997 -0.0236 -0.0025
vn 0.9996 0.0271 0.0090
vn 0.9996 0.0279 0.0076
vn 0.9990 0.0443 -0.0021
vn 0.9988 0.0482 0.0051
vn -0.8778 -0.4749 -0.0626
vn 0.8361 -0.5483 0.0150
vn 0.9970 -0.0774 0.0035
vn 0.9830 -0.1826 -0.0164
vn 0.9949 -0.0995 0.0175
vn 0.9989 0.0471 0.0030
vn 0.9983 0.0586 0.0043
vn -0.1248 0.8974 -0.4232
vn 0.7961 -0.6050 0.0120
vn -1.0000 0.0070 -0.0011
vn 0.9978 0.0658 -0.0039
vn -0.2268 0.9736 -0.0255
vn 0.9416 -0.3341 -0.0413
vn 0.9759 0.2180 -0.0098
vn 0.6000 -0.7999 -0.0114
vn 0.8494 -0.5274 0.0176
vn 0.9999 0.0123 0.0019
vn 0.9975 -0.0713 0.0003
vn -1.0000 0.0070 -0.0006
vn 0.9840 -0.1695 -0.0544
vn 0.9968 0.0795 0.0027
vn 0.8147 -0.5787 0.0366
vn 0.9876 -0.1569 -0.0105
vn -1.0000 0.0083 0.0009
vn 0.9996 0.0140 -0.0226
vn 0.9878 0.1554 -0.0070
vn 0.9997 -0.0221 0.0047
vn -0.9999 0.0144 -0.0074
vn -0.9347 -0.3545 0.0262
vn 0.9996 0.0294 -0.0038
vn -0.9994 0.0322 0.0114
vn 0.9786 -0.2030 -0.0334
vn 0.9997 0.0242 -0.0105
vn 0.9957 -0.0925 0.0069
vn -0.9995 0.0308 0.0070
vn 0.9439 0.3238 -0.0653
vn 0.9982 0.0552 -0.0254
vn 0.8095 -0.5867 0.0219
vn -0.8802 -0.4460 0.1624
vn 0.9949 0.1006 0.0013
vn -0.2826 -0.9189 -0.2752
vn 0.9891 -0.1465 -0.0153
vn 0.5983 -0.7976 0.0775
vn -0.9992 0.0398 0.0097
vn -0.9995 0.0308 0.0001
vn 0.9958 0.0911 -0.0013
vn 0.9597 0.2804 0.0171
vn 0.9935 0.1136 0.0080
vn 0.9955 -0.0932 -0.0139
vn 0.9955 0.0946 0.0066
vn 0.9788 0.2045 -0.0099
vn 0.9966 0.0809 -0.0119
vn -1.0000 -0.0030 0.0037
vn -0.9992 0.0395 0.0116
vn -0.9995 0.0305 -0.0027
vn -0.9999 0.0156 0.0023
vn 0.9930 -0.1179 0.0051
vn -1.0000 -0.0032 -0.0056
vn -0.9999 0.0083 -0.0079
usemtl algae_green
s off
f 28/1/1 26/2/1 17/3/1
f 17/3/2 27/4/2 28/1/2
f 34/5/3 33/6/3 19/7/3
f 32/8/4 30/9/4 18/10/4
f 28/1/5 27/4/5 21/11/5
f 36/12/6 34/5/6 19/7/6
f 31/13/7 24/14/7 32/8/7
f 36/12/8 35/15/8 22/16/8
f 30/9/9 28/1/9 21/11/9
f 26/2/10 36/12/10 22/16/10
f 15/17/11 2/18/11 23/19/11
f 22/16/12 13/20/12 25/21/12
f 12/22/13 27/4/13 4/23/13
f 37/24/14 24/14/14 20/25/14
f 18/10/15 5/26/15 31/13/15
f 35/15/16 19/7/16 8/27/16
f 34/5/17 15/17/17 23/19/17
f 22/16/18 25/21/18 26/2/18
f 37/24/19 10/28/19 24/14/19
f 21/11/20 12/22/20 29/29/20
f 2/30/21 15/31/21 16/32/21
f 34/5/22 7/33/22 15/31/22
f 32/8/23 10/34/23 6/35/23
f 13/20/24 35/15/24 8/27/24
f 36/12/25 14/36/25 7/37/25
f 17/3/26 4/23/26 27/4/26
f 5/26/27 29/29/27 12/22/27
f 21/11/28 29/29/28 30/9/28
f 8/27/29 33/6/29 16/32/29
f 15/31/30 8/27/30 16/32/30
f 23/19/31 16/32/31 33/6/31
f 28/1/32 11/38/32 3/39/32
f 4/23/33 25/21/33 13/20/33
f 9/40/34 31/13/34 5/26/34
f 13/20/35 3/39/35 4/23/35
f 30/9/36 29/29/36 18/10/36
f 30/9/37 6/41/37 11/42/37
f 18/10/38 31/13/38 32/8/38
f 12/22/39 6/35/39 5/26/39
f 13/20/40 22/16/40 35/15/40
f 23/19/41 33/6/41 34/5/41
f 10/28/42 1/43/42 9/40/42
f 5/26/43 18/10/43 29/29/43
f 19/7/44 35/15/44 36/12/44
f 8/27/45 19/7/45 33/6/45
f 5/26/46 10/28/46 9/40/46
f 32/8/47 24/14/47 10/34/47
f 25/21/48 17/3/48 26/2/48
f 12/22/49 21/11/49 27/4/49
f 2/18/50 16/32/50 23/19/50
f 26/2/51 3/44/51 14/45/51
f 37/24/52 9/40/52 1/46/52
f 9/40/53 20/25/53 31/13/53
f 4/23/54 17/3/54 25/21/54
f 8/27/55 14/45/55 13/20/55
f 4/23/56 11/42/56 12/22/56
f 28/1/57 3/44/57 26/2/57
f 32/8/58 6/41/58 30/9/58
f 36/12/59 7/33/59 34/5/59
f 31/13/60 20/25/60 24/14/60
f 30/9/61 11/38/61 28/1/61
f 26/2/62 14/36/62 36/12/62
f 37/24/63 1/47/63 10/28/63
f 15/31/64 7/37/64 8/27/64
f 13/20/65 14/45/65 3/39/65
f 12/22/66 11/42/66 6/35/66
f 5/26/67 6/35/67 10/28/67
f 37/24/68 20/25/68 9/40/68
f 8/27/69 7/37/69 14/45/69
f 4/23/70 3/39/70 11/42/70
