# Blender v2.92.0 OBJ File: 'algae.blend'
# www.blender.org
mtllib 121.mtl
o algae_cube_Cube
v -0.003619 0.115978 -1.430927
v -0.004957 0.101814 1.527806
v -0.003704 0.056005 -0.000000
v -0.005178 -0.061746 -0.000000
v -0.004221 -0.039263 -0.735385
v -0.003665 0.104883 -0.716850
v -0.005283 0.072843 0.791316
v -0.003992 -0.040335 0.739873
v -0.003618 -0.047036 -1.073149
v -0.005186 0.124661 -1.160530
v -0.003633 0.081849 -0.345397
v -0.004334 -0.046754 -0.356774
v -0.005239 -0.092609 0.394654
v -0.005161 0.105285 0.392925
v -0.003806 0.067011 1.086803
v -0.004166 -0.038885 1.105054
v 0.004149 0.001505 0.000000
v 0.003882 -0.003866 -0.723763
v 0.003751 -0.065652 0.731876
v 0.005284 -0.041587 -1.167035
v 0.005266 -0.000406 -0.374991
v 0.003963 0.004421 0.369441
v 0.003779 0.006435 1.085489
v 0.003632 0.076044 -1.073773
v 0.005141 -0.026942 0.196237
v 0.003635 0.048801 0.182049
v 0.004169 -0.007230 -0.176952
v 0.004826 0.063688 -0.182978
v 0.004120 0.003101 -0.542446
v 0.004314 0.069040 -0.547562
v 0.005144 -0.036535 -0.964833
v 0.003662 0.040791 -0.895946
v 0.004396 0.057381 -1.287309
v 0.003624 -0.051524 0.903005
v 0.005244 0.063716 0.979558
v 0.004263 -0.015766 0.562123
v 0.004055 0.028642 0.556549
v 0.004971 -0.005831 1.340438
v 0.003707 -0.062414 -1.161816
v 0.004715 0.040862 -1.219812
v 0.004816 0.032527 -1.415893
vt 0.643463 0.399518
vt 0.608433 0.399032
vt 0.627218 0.287293
vt 0.644229 0.287478
vt 0.537200 0.398044
vt 0.538232 0.286325
vt 0.555494 0.286513
vt 0.714776 0.400507
vt 0.678809 0.400008
vt 0.697735 0.288059
vt 0.661241 0.287663
vt 0.572481 0.398533
vt 0.732994 0.288443
vt 0.732449 0.400752
vt 0.573425 0.286708
vt 0.591356 0.286903
vt 0.592689 0.011366
vt 0.609287 0.287098
vt 0.662490 0.012024
vt 0.628508 0.011703
vt 0.741032 0.345449
vt 0.698940 0.012367
vt 0.715365 0.288251
vt 0.556870 0.011028
vt 0.749097 0.400983
vt 1.051103 0.015687
vt 0.731277 0.678201
vt 0.522054 -0.211154
vt 0.520970 0.286138
vt 0.679488 0.287861
vt 0.204504 0.007695
vt 0.518449 0.676186
vt 0.522387 0.010703
vt 0.556709 -0.210826
vt 0.734882 -0.209139
vt 0.695884 0.677866
vt 0.483530 0.675856
vt 0.592707 -0.210485
vt 0.553104 0.676514
vt 0.758683 0.345668
vt 0.770274 -0.208804
vt 0.662857 -0.209821
vt 0.625100 0.677196
vt 0.734157 0.012699
vt 0.589102 0.676855
vt 0.503577 0.285949
vt 0.699490 -0.209474
vt 0.659252 0.677519
vt 0.766669 0.678536
vt 0.741549 0.234612
vt 0.628705 -0.210144
vn 1.0000 -0.0015 0.0032
vn 1.0000 -0.0092 0.0006
vn 0.9999 -0.0154 0.0020
vn 1.0000 -0.0017 -0.0017
vn 0.9999 -0.0088 0.0052
vn 1.0000 -0.0073 -0.0022
vn 0.9999 0.0122 0.0023
vn 1.0000 0.0045 -0.0011
vn 0.9999 0.0106 -0.0013
vn 1.0000 0.0034 -0.0009
vn 0.9958 -0.0885 0.0228
vn 0.9825 -0.1863 -0.0055
vn 0.9999 0.0101 0.0050
vn 0.9714 -0.2345 0.0369
vn -0.9600 -0.2678 -0.0816
vn 0.9903 0.1386 0.0013
vn 0.9893 0.1221 0.0797
vn 0.9998 0.0205 0.0031
vn 0.9997 0.0250 0.0014
vn 0.9783 -0.2070 -0.0110
vn -1.0000 0.0029 -0.0028
vn 0.4916 0.8707 0.0147
vn 0.9940 0.1095 0.0015
vn 0.9922 0.1244 -0.0072
vn 0.9852 -0.1702 0.0222
vn 0.9894 0.1448 0.0121
vn 0.9893 -0.1459 0.0073
vn 0.9839 -0.1789 -0.0032
vn 1.0000 -0.0035 -0.0069
vn -0.8385 -0.5450 0.0018
vn -1.0000 0.0033 -0.0005
vn 0.9951 0.0978 -0.0157
vn 0.9872 -0.1525 0.0476
vn 0.5764 0.8148 0.0611
vn 0.9792 -0.2021 -0.0157
vn 0.6665 -0.7453 0.0183
vn -1.0000 0.0004 -0.0001
vn 1.0000 -0.0030 -0.0012
vn 0.9839 -0.1782 -0.0132
vn 0.9538 0.2997 0.0185
vn 0.9999 0.0165 0.0030
vn -1.0000 0.0055 -0.0002
vn 0.9952 -0.0974 -0.0118
vn 0.9998 -0.0171 0.0046
vn -0.9999 -0.0119 -0.0054
vn -0.9883 -0.1414 -0.0571
vn 0.9742 -0.2254 0.0074
vn 1.0000 0.0053 0.0046
vn -0.9539 -0.2993 0.0240
vn -0.9999 -0.0099 -0.0016
vn 0.9998 0.0182 -0.0003
vn 0.9706 -0.1251 -0.2058
vn 0.9615 0.2694 0.0533
vn 0.9998 0.0195 -0.0022
vn -0.9762 -0.2065 0.0669
vn 0.9791 -0.2034 -0.0016
vn 1.0000 -0.0093 0.0009
vn 0.9870 0.1603 -0.0105
vn 0.9658 0.2577 -0.0287
vn 0.9944 -0.0524 0.0913
vn 0.6614 -0.7498 0.0192
vn 0.9890 -0.1458 -0.0261
vn -0.9999 -0.0140 0.0057
vn -0.9999 0.0125 -0.0018
vn -0.0278 0.9988 0.0406
vn 0.9882 0.1527 -0.0142
vn 0.9266 0.3745 -0.0337
vn 0.9998 0.0190 0.0002
vn 0.8866 0.4626 0.0055
vn 0.9912 0.1320 0.0060
vn 0.9957 0.0922 -0.0002
vn -0.9999 -0.0136 0.0047
vn -0.9999 0.0125 -0.0053
vn -1.0000 0.0038 0.0003
vn -0.9928 -0.1093 -0.0498
vn -1.0000 0.0034 0.0036
vn -1.0000 0.0004 -0.0003
vn -1.0000 0.0054 0.0002
usemtl algae_green
s off
f 28/1/1 26/2/1 17/3/1
f 17/3/2 27/4/2 28/1/2
f 35/5/3 34/6/3 19/7/3
f 32/8/4 30/9/4 18/10/4
f 28/1/5 27/4/5 21/11/5
f 37/12/6 35/5/6 19/7/6
f 32/8/7 20/13/7 24/14/7
f 37/12/8 36/15/8 22/16/8
f 30/9/9 28/1/9 21/11/9
f 26/2/10 37/12/10 22/16/10
f 22/16/11 13/17/11 25/18/11
f 12/19/12 27/4/12 4/20/12
f 40/21/13 24/14/13 20/13/13
f 18/10/14 5/22/14 31/23/14
f 36/15/15 19/7/15 8/24/15
f 33/25/16 1/26/16 10/27/16
f 35/5/17 15/28/17 23/29/17
f 22/16/18 25/18/18 26/2/18
f 24/14/19 40/21/19 33/25/19
f 21/11/20 12/19/20 29/30/20
f 2/31/21 15/32/21 16/33/21
f 35/5/22 7/34/22 15/32/22
f 32/8/23 10/35/23 6/36/23
f 2/37/24 23/29/24 15/28/24
f 13/17/25 36/15/25 8/24/25
f 37/12/26 14/38/26 7/39/26
f 17/3/27 4/20/27 27/4/27
f 5/22/28 29/30/28 12/19/28
f 21/11/29 29/30/29 30/9/29
f 8/24/30 34/6/30 16/33/30
f 15/32/31 8/24/31 16/33/31
f 33/25/32 41/40/32 1/41/32
f 23/29/33 16/33/33 34/6/33
f 28/1/34 11/42/34 3/43/34
f 4/20/35 25/18/35 13/17/35
f 9/44/36 31/23/36 5/22/36
f 14/45/37 4/20/37 13/17/37
f 30/9/38 29/30/38 18/10/38
f 16/33/39 23/29/39 38/46/39
f 30/9/40 6/47/40 11/48/40
f 18/10/41 31/23/41 32/8/41
f 11/48/42 5/22/42 12/19/42
f 13/17/43 22/16/43 36/15/43
f 23/29/44 34/6/44 35/5/44
f 10/27/45 1/49/45 9/44/45
f 9/44/46 41/40/46 39/50/46
f 5/22/47 18/10/47 29/30/47
f 19/7/48 36/15/48 37/12/48
f 8/24/49 19/7/49 34/6/49
f 5/22/50 10/27/50 9/44/50
f 33/25/51 40/21/51 41/40/51
f 20/13/52 39/50/52 40/21/52
f 32/8/53 24/14/53 10/35/53
f 25/18/54 17/3/54 26/2/54
f 2/37/55 16/33/55 38/46/55
f 12/19/56 21/11/56 27/4/56
f 41/40/57 40/21/57 39/50/57
f 10/27/58 24/14/58 33/25/58
f 26/2/59 3/51/59 14/45/59
f 39/50/60 20/13/60 9/44/60
f 9/44/61 20/13/61 31/23/61
f 4/20/62 17/3/62 25/18/62
f 7/39/63 13/17/63 8/24/63
f 3/43/64 12/19/64 4/20/64
f 28/1/65 3/51/65 26/2/65
f 32/8/66 6/47/66 30/9/66
f 37/12/67 7/34/67 35/5/67
f 32/8/68 31/23/68 20/13/68
f 30/9/69 11/42/69 28/1/69
f 26/2/70 14/38/70 37/12/70
f 2/37/71 38/46/71 23/29/71
f 15/32/72 7/39/72 8/24/72
f 14/45/73 3/43/73 4/20/73
f 11/48/74 6/36/74 5/22/74
f 9/44/75 1/49/75 41/40/75
f 5/22/76 6/36/76 10/27/76
f 7/39/77 14/45/77 13/17/77
f 3/43/78 11/48/78 12/19/78
