# Blender v2.92.0 OBJ File: 'algae.blend'
# www.blender.org
mtllib 122.mtl
o algae_cube_Cube
v -0.006519 0.032361 -1.316343
v -0.001523 0.052418 1.226391
v -0.004464 0.090892 -0.000000
v -0.007378 -0.089608 -0.000000
v -0.001926 -0.108014 -0.616265
v -0.000572 0.043350 -0.604093
v -0.003515 0.080013 0.641360
v -0.004433 -0.106582 0.649755
v -0.007167 -0.099417 -0.995482
v -0.003619 0.033040 -0.947597
v -0.001311 0.065604 -0.294596
v -0.007191 -0.101169 -0.320104
v -0.006662 -0.062121 0.334992
v -0.000365 0.050338 0.306197
v -0.001775 0.080518 0.926837
v -0.001892 -0.108273 0.928415
v 0.000523 -0.075975 0.000000
v 0.000570 -0.070829 -0.593820
v 0.006760 -0.011052 0.547359
v 0.000689 -0.037348 -0.889460
v 0.007566 -0.074183 -0.256083
v 0.007168 -0.078781 0.271749
v 0.004165 -0.080762 0.846311
v 0.002446 -0.001341 -0.865746
v 0.006797 -0.050252 0.136716
v 0.000380 0.025149 0.151387
v 0.007117 -0.067687 -0.129009
v 0.001882 0.014152 -0.140364
v 0.006902 -0.077495 -0.397894
v 0.007062 0.007545 -0.396824
v 0.003585 -0.041607 -0.708492
v 0.006234 0.032980 -0.678712
v 0.001658 -0.024439 0.737126
v 0.000440 0.015463 0.750949
v 0.003216 -0.059657 0.434777
v 0.000398 0.045265 0.454108
vt 0.643463 0.399518
vt 0.608433 0.399032
vt 0.627218 0.287293
vt 0.644229 0.287478
vt 0.537200 0.398044
vt 0.538232 0.286325
vt 0.555494 0.286513
vt 0.714776 0.400507
vt 0.678809 0.400008
vt 0.697735 0.288059
vt 0.661241 0.287663
vt 0.572481 0.398533
vt 0.715365 0.288251
vt 0.732449 0.400752
vt 0.573425 0.286708
vt 0.591356 0.286903
vt 0.522054 -0.211154
vt 0.483530 0.675856
vt 0.520970 0.286138
vt 0.592689 0.011366
vt 0.609287 0.287098
vt 0.662490 0.012024
vt 0.628508 0.011703
vt 0.698940 0.012367
vt 0.556870 0.011028
vt 0.731277 0.678201
vt 1.051103 0.015687
vt 0.679488 0.287861
vt 0.204504 0.007695
vt 0.518449 0.676186
vt 0.522387 0.010703
vt 0.556709 -0.210826
vt 0.734882 -0.209139
vt 0.695884 0.677866
vt 0.592707 -0.210485
vt 0.553104 0.676514
vt 0.732994 0.288443
vt 0.770274 -0.208804
vt 0.662857 -0.209821
vt 0.625100 0.677196
vt 0.734157 0.012699
vt 0.699490 -0.209474
vt 0.659252 0.677519
vt 0.766669 0.678536
vt 0.628705 -0.210144
vt 0.589102 0.676855
vn 1.0000 -0.0067 0.0054
vn 0.9959 0.0714 0.0555
vn 0.9994 0.0207 0.0283
vn 0.9981 -0.0614 -0.0085
vn 0.9980 0.0639 0.0003
vn 0.9909 0.1340 0.0133
vn 0.9995 -0.0296 -0.0148
vn 0.9995 0.0229 0.0215
vn 0.9990 0.0392 0.0192
vn 0.9982 0.0605 -0.0041
vn 0.9994 0.0356 0.0025
vn -0.9029 -0.4211 -0.0865
vn 0.8788 -0.4768 0.0177
vn 0.9974 -0.0717 0.0079
vn 0.9946 -0.1026 0.0130
vn 0.9879 0.1551 -0.0081
vn 0.9993 0.0374 -0.0013
vn 0.9965 0.0820 0.0146
vn 0.8698 -0.4933 0.0074
vn -1.0000 0.0006 0.0009
vn 0.9987 0.0507 -0.0062
vn 0.7362 0.6763 -0.0268
vn 0.8724 -0.4832 -0.0744
vn 0.9931 0.1177 -0.0011
vn 0.8652 -0.5013 0.0120
vn 0.8945 -0.4463 0.0262
vn 1.0000 -0.0018 -0.0046
vn 0.9979 -0.0639 -0.0095
vn -0.9999 0.0053 0.0092
vn 0.9992 -0.0340 -0.0224
vn -0.8606 -0.4605 -0.2178
vn 0.9972 0.0747 0.0043
vn 0.8963 -0.4422 0.0344
vn 0.9944 -0.1049 -0.0161
vn -0.9999 0.0161 0.0008
vn 0.9995 -0.0015 -0.0324
vn 0.9874 0.1583 -0.0090
vn 0.9990 -0.0417 0.0156
vn -0.9998 0.0104 -0.0180
vn -0.5989 -0.7969 0.0790
vn 0.9994 0.0326 -0.0061
vn -0.9997 0.0240 0.0078
vn 0.9983 -0.0466 -0.0338
vn 0.9983 0.0354 -0.0467
vn 0.9953 -0.0951 0.0200
vn -0.9997 0.0216 0.0143
vn 0.9954 0.0888 -0.0365
vn 0.9932 0.0969 -0.0638
vn 0.9967 -0.0762 -0.0293
vn 0.8450 -0.5339 0.0303
vn 0.9953 -0.0854 0.0448
vn 0.9981 0.0615 -0.0052
vn 0.9953 -0.0949 -0.0182
vn 0.8639 -0.5006 0.0545
vn -0.9981 0.0599 0.0155
vn -0.9994 0.0355 -0.0019
vn 0.9969 0.0785 0.0022
vn 0.9245 0.3798 0.0316
vn 0.9973 0.0734 0.0072
vn 0.9991 -0.0376 -0.0169
vn 0.9934 0.1131 0.0172
vn 0.9987 0.0505 -0.0034
vn -1.0000 0.0007 0.0061
vn -0.9979 0.0614 0.0215
vn -0.9993 0.0360 -0.0050
vn -0.9999 0.0082 0.0086
vn -0.9999 0.0045 -0.0098
vn -0.9998 0.0161 -0.0121
usemtl algae_green
s off
f 28/1/1 26/2/1 17/3/1
f 17/3/2 27/4/2 28/1/2
f 34/5/3 33/6/3 19/7/3
f 32/8/4 30/9/4 18/10/4
f 28/1/5 27/4/5 21/11/5
f 36/12/6 34/5/6 19/7/6
f 31/13/7 24/14/7 32/8/7
f 36/12/8 35/15/8 22/16/8
f 30/9/9 28/1/9 21/11/9
f 26/2/10 36/12/10 22/16/10
f 15/17/11 2/18/11 23/19/11
f 22/16/12 13/20/12 25/21/12
f 12/22/13 27/4/13 4/23/13
f 18/10/14 5/24/14 31/13/14
f 35/15/15 19/7/15 8/25/15
f 10/26/16 24/14/16 1/27/16
f 34/5/17 15/17/17 23/19/17
f 22/16/18 25/21/18 26/2/18
f 21/11/19 12/22/19 29/28/19
f 2/29/20 15/30/20 16/31/20
f 34/5/21 7/32/21 15/30/21
f 32/8/22 10/33/22 6/34/22
f 13/20/23 35/15/23 8/25/23
f 36/12/24 14/35/24 7/36/24
f 17/3/25 4/23/25 27/4/25
f 5/24/26 29/28/26 12/22/26
f 21/11/27 29/28/27 30/9/27
f 8/25/28 33/6/28 16/31/28
f 16/31/29 7/36/29 8/25/29
f 20/37/30 1/38/30 24/14/30
f 23/19/31 16/31/31 33/6/31
f 28/1/32 11/39/32 3/40/32
f 4/23/33 25/21/33 13/20/33
f 9/41/34 31/13/34 5/24/34
f 13/20/35 3/40/35 4/23/35
f 30/9/36 29/28/36 18/10/36
f 30/9/37 6/42/37 11/43/37
f 18/10/38 31/13/38 32/8/38
f 12/22/39 6/34/39 5/24/39
f 13/20/40 22/16/40 35/15/40
f 23/19/41 33/6/41 34/5/41
f 10/26/42 1/44/42 9/41/42
f 5/24/43 18/10/43 29/28/43
f 19/7/44 35/15/44 36/12/44
f 8/25/45 19/7/45 33/6/45
f 5/24/46 10/26/46 9/41/46
f 32/8/47 24/14/47 10/33/47
f 25/21/48 17/3/48 26/2/48
f 20/37/49 9/41/49 1/38/49
f 12/22/50 21/11/50 27/4/50
f 2/18/51 16/31/51 23/19/51
f 26/2/52 3/45/52 14/46/52
f 9/41/53 20/37/53 31/13/53
f 4/23/54 17/3/54 25/21/54
f 8/25/55 14/46/55 13/20/55
f 4/23/56 11/43/56 12/22/56
f 28/1/57 3/45/57 26/2/57
f 32/8/58 6/42/58 30/9/58
f 36/12/59 7/32/59 34/5/59
f 31/13/60 20/37/60 24/14/60
f 30/9/61 11/39/61 28/1/61
f 26/2/62 14/35/62 36/12/62
f 16/31/63 15/30/63 7/36/63
f 13/20/64 14/46/64 3/40/64
f 12/22/65 11/43/65 6/34/65
f 5/24/66 6/34/66 10/26/66
f 8/25/67 7/36/67 14/46/67
f 4/23/68 3/40/68 11/43/68
