# Blender v2.92.0 OBJ File: 'algae.blend'
# www.blender.org
mtllib 123.mtl
o algae_cube_Cube
v -0.003936 0.137657 -1.003545
v -0.003021 0.108819 1.003545
v -0.004707 0.058458 -0.000000
v -0.003467 -0.059193 -0.000000
v -0.004702 -0.034959 -0.501773
v -0.004355 0.123330 -0.501773
v -0.003128 0.071809 0.510360
v -0.003738 -0.036433 0.510360
v -0.004560 -0.046661 -0.752659
v -0.003720 0.136315 -0.752659
v -0.004525 0.092998 -0.242092
v -0.003527 -0.043629 -0.242092
v -0.003046 -0.095784 0.255180
v -0.003508 0.112389 0.255180
v -0.004565 0.072570 0.756020
v -0.004721 -0.034613 0.756020
v 0.003511 0.009011 0.000000
v 0.004770 0.002703 -0.501773
v 0.004276 -0.069141 0.510360
v 0.003261 -0.038095 -0.752659
v 0.003742 0.006808 -0.242092
v 0.004762 0.012180 0.255180
v 0.003808 0.014761 0.756020
v 0.004370 0.081788 -0.752659
v 0.003267 -0.022340 0.127590
v 0.004715 0.049652 0.127590
v 0.003644 -0.001060 -0.121046
v 0.004242 0.063268 -0.121046
v 0.004775 0.010645 -0.371933
v 0.003628 0.071920 -0.371933
v 0.003349 -0.032850 -0.627216
v 0.004733 0.040287 -0.627216
v 0.004511 0.057485 -0.870824
v 0.004804 -0.052581 0.633190
v 0.003353 0.062551 0.633190
v 0.003723 -0.010787 0.382770
v 0.004523 0.025714 0.382770
v 0.004648 -0.058337 -0.811741
v 0.003288 0.046016 -0.811741
vt 0.643463 0.399518
vt 0.608433 0.399032
vt 0.627218 0.287293
vt 0.644229 0.287478
vt 0.537200 0.398044
vt 0.538232 0.286325
vt 0.555494 0.286513
vt 0.714776 0.400507
vt 0.678809 0.400008
vt 0.697735 0.288059
vt 0.661241 0.287663
vt 0.572481 0.398533
vt 0.732994 0.288443
vt 0.732449 0.400752
vt 0.573425 0.286708
vt 0.591356 0.286903
vt 0.522054 -0.211154
vt 0.483530 0.675856
vt 0.520970 0.286138
vt 0.592689 0.011366
vt 0.609287 0.287098
vt 0.662490 0.012024
vt 0.628508 0.011703
vt 0.741032 0.345449
vt 0.698940 0.012367
vt 0.715365 0.288251
vt 0.556870 0.011028
vt 0.749097 0.400983
vt 1.051103 0.015687
vt 0.731277 0.678201
vt 0.679488 0.287861
vt 0.204504 0.007695
vt 0.518449 0.676186
vt 0.522387 0.010703
vt 0.556709 -0.210826
vt 0.734882 -0.209139
vt 0.695884 0.677866
vt 0.592707 -0.210485
vt 0.553104 0.676514
vt 0.662857 -0.209821
vt 0.625100 0.677196
vt 0.734157 0.012699
vt 0.589102 0.676855
vt 0.699490 -0.209474
vt 0.659252 0.677519
vt 0.766669 0.678536
vt 0.770274 -0.208804
vt 0.741549 0.234612
vt 0.628705 -0.210144
vn 0.9998 -0.0202 -0.0030
vn 1.0000 -0.0093 0.0019
vn 0.9999 0.0126 -0.0060
vn 0.9999 0.0109 0.0030
vn 1.0000 -0.0093 0.0002
vn 1.0000 0.0031 0.0042
vn 0.9999 -0.0092 -0.0060
vn 0.9998 -0.0219 0.0042
vn 1.0000 -0.0034 -0.0026
vn 1.0000 0.0056 0.0013
vn 0.9893 0.1433 -0.0272
vn 0.9974 -0.0721 0.0078
vn 0.9901 -0.1404 -0.0093
vn 0.9999 -0.0092 -0.0127
vn 0.9682 -0.2435 0.0580
vn -0.9660 -0.2367 -0.1041
vn 0.9945 0.1043 -0.0003
vn 0.9883 0.1432 0.0520
vn 0.9998 -0.0201 -0.0063
vn 0.9987 -0.0487 0.0112
vn 0.9898 -0.1426 0.0037
vn -1.0000 0.0015 0.0060
vn 0.8012 0.5984 0.0028
vn 0.9952 0.0975 0.0076
vn 0.9913 -0.1275 0.0323
vn 0.9929 0.1173 0.0172
vn 0.9948 -0.1018 0.0096
vn 0.9845 -0.1752 -0.0103
vn 0.9998 0.0187 0.0085
vn -0.8837 -0.4680 -0.0001
vn -1.0000 0.0015 -0.0040
vn 0.9804 -0.1694 0.1008
vn 0.8122 0.5774 0.0830
vn 0.9929 -0.1174 -0.0185
vn 0.7058 -0.7076 0.0334
vn -1.0000 -0.0022 0.0013
vn 0.9998 0.0187 -0.0012
vn 0.9758 0.2172 0.0260
vn 0.9998 -0.0189 -0.0060
vn -1.0000 -0.0073 0.0043
vn 0.9974 -0.0721 -0.0049
vn 0.9999 0.0126 0.0012
vn -1.0000 0.0046 0.0009
vn 0.9697 -0.2439 0.0149
vn 0.9997 -0.0219 -0.0144
vn -0.9706 -0.2378 0.0362
vn -1.0000 0.0022 -0.0007
vn 0.9994 0.0130 -0.0314
vn 0.9997 0.0130 0.0190
vn 0.9881 0.1466 0.0456
vn 0.9998 -0.0201 -0.0030
vn -0.9795 -0.1611 -0.1208
vn 0.9897 -0.1426 -0.0085
vn 0.9813 -0.1695 0.0915
vn 0.9888 0.1467 -0.0290
vn 0.9694 0.2391 -0.0551
vn 0.7167 -0.6544 0.2410
vn 0.7382 -0.6740 0.0277
vn 0.9945 -0.1018 -0.0231
vn -1.0000 -0.0022 -0.0022
vn -0.9999 -0.0105 -0.0004
vn 0.1941 0.9795 0.0533
vn 0.9920 0.1256 -0.0113
vn 0.9677 0.2499 -0.0322
vn 0.9998 -0.0189 0.0001
vn 0.9492 0.3146 0.0085
vn 0.9941 0.1081 0.0109
vn -1.0000 0.0056 -0.0059
vn -0.9999 -0.0105 0.0069
vn -1.0000 0.0022 -0.0004
vn -1.0000 0.0046 -0.0023
vn -0.9778 -0.2011 -0.0593
vn -1.0000 0.0056 0.0024
vn -1.0000 -0.0073 -0.0018
usemtl algae_green
s off
f 28/1/1 26/2/1 17/3/1
f 17/3/2 27/4/2 28/1/2
f 35/5/3 34/6/3 19/7/3
f 32/8/4 30/9/4 18/10/4
f 28/1/5 27/4/5 21/11/5
f 37/12/6 35/5/6 19/7/6
f 32/8/7 20/13/7 24/14/7
f 37/12/8 36/15/8 22/16/8
f 30/9/9 28/1/9 21/11/9
f 26/2/10 37/12/10 22/16/10
f 15/17/11 2/18/11 23/19/11
f 22/16/12 13/20/12 25/21/12
f 12/22/13 27/4/13 4/23/13
f 39/24/14 24/14/14 20/13/14
f 18/10/15 5/25/15 31/26/15
f 36/15/16 19/7/16 8/27/16
f 33/28/17 1/29/17 10/30/17
f 35/5/18 15/17/18 23/19/18
f 22/16/19 25/21/19 26/2/19
f 24/14/20 39/24/20 33/28/20
f 21/11/21 12/22/21 29/31/21
f 2/32/22 15/33/22 16/34/22
f 35/5/23 7/35/23 15/33/23
f 32/8/24 10/36/24 6/37/24
f 13/20/25 36/15/25 8/27/25
f 37/12/26 14/38/26 7/39/26
f 17/3/27 4/23/27 27/4/27
f 5/25/28 29/31/28 12/22/28
f 21/11/29 29/31/29 30/9/29
f 8/27/30 34/6/30 16/34/30
f 15/33/31 8/27/31 16/34/31
f 23/19/32 16/34/32 34/6/32
f 28/1/33 11/40/33 3/41/33
f 4/23/34 25/21/34 13/20/34
f 9/42/35 31/26/35 5/25/35
f 14/43/36 4/23/36 13/20/36
f 30/9/37 29/31/37 18/10/37
f 30/9/38 6/44/38 11/45/38
f 18/10/39 31/26/39 32/8/39
f 11/45/40 5/25/40 12/22/40
f 13/20/41 22/16/41 36/15/41
f 23/19/42 34/6/42 35/5/42
f 10/30/43 1/46/43 9/42/43
f 5/25/44 18/10/44 29/31/44
f 19/7/45 36/15/45 37/12/45
f 8/27/46 19/7/46 34/6/46
f 6/37/47 9/42/47 5/25/47
f 1/47/48 39/24/48 38/48/48
f 20/13/49 38/48/49 39/24/49
f 32/8/50 24/14/50 10/36/50
f 25/21/51 17/3/51 26/2/51
f 9/42/52 1/46/52 38/48/52
f 12/22/53 21/11/53 27/4/53
f 2/18/54 16/34/54 23/19/54
f 10/30/55 24/14/55 33/28/55
f 26/2/56 3/49/56 14/43/56
f 38/48/57 20/13/57 9/42/57
f 9/42/58 20/13/58 31/26/58
f 4/23/59 17/3/59 25/21/59
f 8/27/60 14/43/60 13/20/60
f 3/41/61 12/22/61 4/23/61
f 28/1/62 3/49/62 26/2/62
f 32/8/63 6/44/63 30/9/63
f 37/12/64 7/35/64 35/5/64
f 32/8/65 31/26/65 20/13/65
f 30/9/66 11/40/66 28/1/66
f 26/2/67 14/38/67 37/12/67
f 15/33/68 7/39/68 8/27/68
f 14/43/69 3/41/69 4/23/69
f 11/45/70 6/37/70 5/25/70
f 6/37/71 10/30/71 9/42/71
f 1/47/72 33/28/72 39/24/72
f 8/27/73 7/39/73 14/43/73
f 3/41/74 11/45/74 12/22/74
