# Blender v2.92.0 OBJ File: 'algae.blend'
# www.blender.org
mtllib 132.mtl
o algae_cube_Cube
v -0.003894 0.105009 -2.476455
v -0.003946 0.090893 2.477626
v 0.004055 0.100212 2.296968
v 0.003951 -0.080959 0.000000
v 0.003968 0.099396 1.168730
v 0.004033 -0.053569 1.167985
v -0.003956 0.104531 -1.857998
v 0.003967 0.087949 0.584318
v 0.004055 -0.079178 0.583815
v -0.003966 -0.084064 0.629836
v 0.004057 0.095962 0.291895
v 0.004056 -0.046086 0.291896
v -0.004022 0.102608 0.315073
v 0.004009 -0.047415 -0.851340
v 0.004103 0.072900 -1.992032
v 0.004059 -0.061159 -1.992883
v -0.003890 -0.083267 -2.148605
v -0.003943 0.102938 0.944596
v 0.003981 0.099095 0.876385
v 0.004104 0.101856 1.885020
v 0.004102 -0.084921 1.885065
v -0.003974 0.060935 2.034766
v -0.003887 0.097249 2.323447
v -0.004001 0.100393 1.715318
v 0.004017 0.095325 1.308785
v 0.004073 -0.055245 1.308068
v 0.004069 -0.063633 1.308113
v -0.003925 0.071370 1.410907
v 0.003966 0.093526 1.022627
v 0.004054 0.103937 0.437856
v -0.003985 0.064148 -0.149405
v 0.004048 0.078273 -0.138472
v -0.004008 0.098628 -0.448317
v -0.004041 0.074852 -0.758301
v 0.004028 0.054862 -0.702592
v 0.004069 0.101565 -0.999370
v -0.003986 0.104262 -1.078502
v -0.003972 0.094240 -1.395926
v 0.003998 0.075919 -1.294570
v 0.003980 -0.068714 -1.294788
v 0.004086 -0.056264 -1.578291
v 0.004103 -0.068180 -1.856781
vt 0.633638 0.677277
vt 0.669317 0.455193
vt 0.705774 0.455753
vt 0.555969 0.232863
vt 0.679814 0.234030
vt 0.748849 0.456414
vt 0.547348 0.232782
vt 0.511931 0.232448
vt 0.203620 0.227865
vt 0.487136 -0.211484
vt 0.495865 -0.211402
vt 0.508846 0.676095
vt 0.546863 0.286419
vt 0.627607 0.233538
vt 0.609697 0.233370
vt 0.724451 0.234451
vt 0.706979 0.234286
vt 0.749842 0.234691
vt 0.741549 0.234612
vt 0.770274 -0.208804
vt 0.750743 0.012855
vt 0.734882 -0.209139
vt 0.592689 0.011366
vt 0.591788 0.233201
vt 0.563016 0.453562
vt 0.530718 -0.211072
vt 0.509763 0.452745
vt 0.544440 0.676432
vt 0.545354 0.453291
vt 0.554017 0.453424
vt 0.572015 0.453700
vt 0.608011 0.454252
vt 0.574708 -0.210655
vt 0.590013 0.453976
vt 0.599012 0.454114
vt 0.610706 -0.210315
vt 0.634547 0.454660
vt 0.654319 -0.209902
vt 0.668410 0.677606
vt 0.687632 0.455474
vt 0.690331 -0.209561
vt 0.704869 0.677951
vt 0.571103 0.676685
vt 0.607101 0.677026
vt 0.650714 0.677438
vt 0.686726 0.677779
vt 0.731277 0.678201
vt 1.051103 0.015687
vt 0.492260 0.675938
vt 0.483530 0.675856
vt 0.484448 0.452356
vt 0.527112 0.676268
vn 0.9635 0.2675 0.0095
vn 1.0000 -0.0009 -0.0000
vn -1.0000 -0.0003 0.0000
vn -1.0000 0.0041 -0.0002
vn -1.0000 0.0004 0.0003
vn -1.0000 0.0027 0.0000
vn -1.0000 0.0048 -0.0002
vn -1.0000 -0.0041 0.0001
vn -0.9993 0.0325 0.0186
vn -0.9987 0.0000 0.0510
vn -0.9681 -0.2506 0.0009
vn 0.9886 -0.1504 0.0017
vn 0.9899 -0.1415 0.0018
vn 0.9788 -0.2050 0.0002
vn 0.6521 -0.7574 0.0332
vn -1.0000 0.0066 0.0004
vn -1.0000 -0.0006 0.0001
vn 0.6614 -0.7500 -0.0094
vn 0.9876 -0.1565 0.0105
vn -0.4043 0.9146 0.0114
vn 0.9733 -0.2287 0.0220
vn -1.0000 -0.0048 0.0002
vn -1.0000 -0.0006 -0.0001
vn -0.4023 -0.9155 0.0049
vn -1.0000 0.0035 -0.0002
vn -0.6181 -0.7861 0.0100
vn 0.9973 -0.0738 0.0062
vn -0.8852 0.4621 0.0534
vn -0.9487 -0.3153 0.0243
vn -1.0000 0.0016 0.0001
vn -0.7647 -0.6420 0.0560
vn -0.9376 -0.3474 0.0109
vn -1.0000 0.0003 -0.0002
vn -0.9909 0.1347 0.0071
vn -1.0000 -0.0007 -0.0000
vn 0.2966 0.9550 -0.0061
vn 0.9541 0.2993 0.0085
vn -0.9999 0.0101 -0.0001
vn -0.9939 -0.1095 -0.0126
vn -0.9999 0.0145 -0.0029
vn -0.3740 -0.9274 0.0049
vn 1.0000 -0.0035 0.0002
vn 0.1545 0.9873 -0.0377
vn 1.0000 0.0048 -0.0002
vn 1.0000 -0.0020 0.0000
vn -0.6398 -0.7685 -0.0026
vn -1.0000 0.0076 -0.0001
vn -0.8538 0.5189 -0.0430
vn 0.9838 0.1789 -0.0138
vn 0.2987 0.9539 -0.0301
vn 0.5257 0.8503 -0.0245
vn -0.8957 -0.4446 -0.0099
vn 0.9993 -0.0325 -0.0186
vn 0.9740 0.2266 0.0051
vn -0.8419 -0.5395 0.0140
vn 0.9514 -0.3079 0.0018
vn 1.0000 -0.0041 0.0002
vn 1.0000 0.0003 -0.0000
vn 1.0000 -0.0004 -0.0003
vn 1.0000 -0.0027 -0.0000
vn 1.0000 -0.0048 0.0002
vn 1.0000 0.0041 -0.0001
vn 0.9987 -0.0000 -0.0510
vn -0.8083 -0.5817 -0.0916
vn -0.9710 0.2391 -0.0062
vn 0.6156 0.7880 0.0032
vn -0.9656 0.2601 -0.0048
vn 1.0000 0.0030 -0.0000
vn 0.4043 -0.9146 -0.0114
vn -0.9876 0.1565 -0.0105
vn -0.7883 0.6153 -0.0032
vn 1.0000 0.0006 -0.0001
vn 0.9999 -0.0109 -0.0004
vn 1.0000 0.0008 0.0000
vn -0.9788 0.2050 -0.0002
vn 1.0000 0.0002 0.0001
vn 1.0000 -0.0003 -0.0001
vn 1.0000 -0.0005 0.0000
vn 1.0000 0.0010 -0.0000
vn 0.4342 -0.9006 -0.0199
usemtl algae_green
s off
f 31/1/1 35/2/1 39/3/1
f 6/4/2 14/5/2 15/6/2
f 26/7/3 21/8/3 3/9/3
f 2/10/4 23/11/4 22/12/4
f 6/4/5 27/13/5 26/7/5
f 14/5/6 4/14/6 12/15/6
f 41/16/7 40/17/7 14/5/7
f 16/18/8 42/19/8 41/16/8
f 1/20/9 17/21/9 15/6/9
f 17/21/10 16/18/10 15/6/10
f 39/3/11 7/22/11 15/6/11
f 16/18/12 41/16/12 10/23/12
f 41/16/13 14/5/13 10/23/13
f 14/5/14 12/15/14 10/23/14
f 10/23/15 9/24/15 6/4/15
f 6/4/16 26/7/16 39/3/16
f 26/7/17 3/9/17 29/25/17
f 3/9/18 2/10/18 24/26/18
f 2/10/19 22/12/19 20/27/19
f 24/26/20 2/10/20 20/27/20
f 24/26/21 28/28/21 25/29/21
f 25/29/22 5/30/22 29/25/22
f 29/25/23 19/31/23 11/32/23
f 19/31/24 18/33/24 11/32/24
f 8/34/25 30/35/25 11/32/25
f 11/32/26 13/36/26 39/3/26
f 13/36/27 31/1/27 39/3/27
f 31/1/28 32/37/28 33/38/28
f 33/38/29 34/39/29 35/2/29
f 35/2/30 36/40/30 39/3/30
f 36/40/31 37/41/31 39/3/31
f 37/41/32 38/42/32 39/3/32
f 39/3/33 15/6/33 16/18/33
f 10/23/34 6/4/34 39/3/34
f 26/7/35 29/25/35 39/3/35
f 24/26/36 25/29/36 29/25/36
f 18/33/37 8/34/37 11/32/37
f 29/25/38 11/32/38 39/3/38
f 31/1/39 33/38/39 35/2/39
f 39/3/40 16/18/40 10/23/40
f 3/9/41 24/26/41 29/25/41
f 11/32/42 30/35/42 8/34/42
f 8/34/43 18/43/43 19/31/43
f 29/25/44 5/30/44 25/29/44
f 8/34/45 19/31/45 29/25/45
f 13/44/46 11/32/46 29/25/46
f 11/32/47 8/34/47 29/25/47
f 32/37/48 31/1/48 13/44/48
f 34/39/49 33/45/49 32/37/49
f 38/42/50 37/46/50 15/6/50
f 37/46/51 36/40/51 15/6/51
f 7/47/52 39/3/52 38/42/52
f 17/21/53 1/48/53 15/6/53
f 15/6/54 7/47/54 38/42/54
f 34/39/55 32/37/55 13/44/55
f 29/25/56 25/29/56 28/28/56
f 22/12/57 23/49/57 2/50/57
f 3/51/58 21/8/58 26/7/58
f 26/7/59 27/13/59 6/4/59
f 12/15/60 4/14/60 14/5/60
f 14/5/61 40/17/61 41/16/61
f 41/16/62 42/19/62 16/18/62
f 16/18/63 17/21/63 15/6/63
f 36/40/64 35/2/64 34/39/64
f 34/39/65 13/44/65 36/40/65
f 13/44/66 29/25/66 36/40/66
f 29/25/67 28/28/67 2/50/67
f 28/28/68 24/52/68 2/50/68
f 24/52/69 20/27/69 2/50/69
f 20/27/70 22/12/70 2/50/70
f 2/50/71 3/51/71 29/25/71
f 3/51/72 26/7/72 29/25/72
f 26/7/73 6/4/73 15/6/73
f 29/25/74 26/7/74 15/6/74
f 10/23/75 12/15/75 14/5/75
f 14/5/76 41/16/76 15/6/76
f 41/16/77 16/18/77 15/6/77
f 15/6/78 36/40/78 29/25/78
f 6/4/79 9/24/79 14/5/79
f 9/24/80 10/23/80 14/5/80
