# Blender v2.92.0 OBJ File: 'algae.blend'
# www.blender.org
mtllib 140.mtl
o algae_cube_Cube
v -0.004022 0.012965 -1.435430
v -0.003358 0.044650 1.411813
v -0.002936 0.097418 -0.033244
v -0.003518 -0.095599 0.039086
v -0.002815 -0.122229 -0.674581
v -0.004245 0.029341 -0.729186
v -0.003812 0.082940 0.690139
v -0.005267 -0.118294 0.799504
v -0.004299 -0.110905 -1.016650
v -0.004867 0.014092 -1.080150
v -0.005236 0.061127 -0.382098
v -0.003257 -0.112278 -0.302276
v -0.003852 -0.056356 0.388678
v -0.004314 0.040675 0.343079
v -0.005023 0.084481 1.027663
v -0.002808 -0.120982 1.116136
v 0.003756 -0.091371 -0.039895
v 0.003384 -0.083339 -0.747400
v 0.004774 -0.000859 0.726528
v 0.005148 -0.035085 -1.093230
v 0.004702 -0.088309 -0.393129
v 0.004158 -0.095809 0.317155
v 0.003097 -0.099202 1.040971
v 0.002741 -0.016386 -1.077075
v 0.003708 -0.055285 0.157891
v 0.004935 0.019769 0.193097
v 0.004685 -0.079404 -0.215672
v 0.005198 0.004825 -0.169527
v 0.003896 -0.092854 -0.571786
v 0.004766 -0.003975 -0.532018
v 0.003948 -0.041739 -0.912498
v 0.003509 0.032116 -0.880191
v 0.003814 0.012543 -1.234732
v 0.003933 -0.019776 0.892811
v 0.004316 0.005145 0.904486
v 0.002981 -0.068868 0.521254
v 0.005112 0.047545 0.573542
v 0.002752 -0.082977 1.226354
v 0.005167 -0.086723 -1.208494
v 0.004513 -0.051546 -1.183307
v 0.003999 -0.040429 -1.353638
vt 0.643463 0.399518
vt 0.608433 0.399032
vt 0.627218 0.287293
vt 0.644229 0.287478
vt 0.537200 0.398044
vt 0.538232 0.286325
vt 0.555494 0.286513
vt 0.714776 0.400507
vt 0.678809 0.400008
vt 0.697735 0.288059
vt 0.661241 0.287663
vt 0.572481 0.398533
vt 0.732994 0.288443
vt 0.732449 0.400752
vt 0.573425 0.286708
vt 0.591356 0.286903
vt 0.592689 0.011366
vt 0.609287 0.287098
vt 0.662490 0.012024
vt 0.628508 0.011703
vt 0.741032 0.345449
vt 0.698940 0.012367
vt 0.715365 0.288251
vt 0.556870 0.011028
vt 0.749097 0.400983
vt 1.051103 0.015687
vt 0.731277 0.678201
vt 0.522054 -0.211154
vt 0.520970 0.286138
vt 0.679488 0.287861
vt 0.204504 0.007695
vt 0.518449 0.676186
vt 0.522387 0.010703
vt 0.556709 -0.210826
vt 0.734882 -0.209139
vt 0.695884 0.677866
vt 0.483530 0.675856
vt 0.592707 -0.210485
vt 0.553104 0.676514
vt 0.758683 0.345668
vt 0.770274 -0.208804
vt 0.662857 -0.209821
vt 0.625100 0.677196
vt 0.734157 0.012699
vt 0.503577 0.285949
vt 0.699490 -0.209474
vt 0.659252 0.677519
vt 0.766669 0.678536
vt 0.741549 0.234612
vt 0.628705 -0.210144
vt 0.589102 0.676855
vn 0.9999 -0.0133 0.0013
vn 1.0000 -0.0087 0.0047
vn 0.9999 -0.0168 0.0031
vn 1.0000 -0.0059 -0.0042
vn 1.0000 -0.0063 0.0004
vn 1.0000 0.0010 0.0025
vn 0.9852 0.1653 -0.0446
vn 0.9997 -0.0222 0.0087
vn 1.0000 -0.0026 -0.0011
vn 1.0000 -0.0067 0.0000
vn -0.9895 -0.1409 -0.0331
vn 0.9630 -0.2692 0.0139
vn 0.9868 0.1580 -0.0358
vn 0.9584 -0.2776 -0.0667
vn 0.9970 -0.0752 0.0162
vn 0.1264 0.9920 -0.0028
vn 0.9979 0.0474 0.0451
vn 0.9999 -0.0134 -0.0062
vn 0.9998 0.0192 0.0103
vn 0.9528 -0.3035 0.0034
vn -1.0000 -0.0093 0.0034
vn 0.9937 0.1122 0.0031
vn -0.7582 0.6515 -0.0270
vn 0.9990 0.0442 0.0003
vn 0.7122 -0.6945 -0.1022
vn 0.9179 0.3938 -0.0493
vn -0.1648 -0.9840 -0.0679
vn 0.9686 -0.2485 0.0078
vn 1.0000 -0.0079 -0.0043
vn 0.9963 -0.0850 -0.0085
vn -0.9999 0.0115 0.0079
vn 0.9952 0.0903 -0.0387
vn -0.9472 -0.2804 -0.1557
vn 0.9933 0.1144 -0.0185
vn 0.9645 -0.2624 0.0304
vn 0.9943 -0.1067 -0.0078
vn -1.0000 0.0025 -0.0012
vn 1.0000 -0.0083 -0.0034
vn 0.9798 -0.1992 0.0193
vn 0.9830 0.1832 -0.0140
vn 1.0000 0.0040 0.0044
vn -1.0000 -0.0098 -0.0009
vn -0.9691 -0.2453 0.0268
vn 0.9999 -0.0144 -0.0021
vn -1.0000 -0.0057 -0.0024
vn -0.9552 -0.2842 -0.0829
vn 0.9835 -0.1804 -0.0126
vn 0.9999 -0.0169 -0.0031
vn 0.9961 -0.0883 -0.0050
vn -1.0000 -0.0024 0.0043
vn 1.0000 0.0089 -0.0024
vn 0.9996 0.0272 -0.0120
vn 0.9698 0.2359 -0.0619
vn 0.9998 -0.0180 0.0035
vn -0.9636 -0.2340 0.1293
vn 0.9632 -0.2684 0.0136
vn 0.9998 0.0198 -0.0017
vn 0.9677 0.2468 0.0519
vn 0.9801 0.1959 0.0331
vn 0.9956 -0.0853 0.0384
vn 0.9926 -0.1215 0.0021
vn 0.9298 -0.3619 0.0663
vn -1.0000 -0.0069 -0.0045
vn -0.9999 -0.0115 -0.0002
vn 0.9958 0.0920 -0.0031
vn 0.8394 0.5409 0.0530
vn 0.9853 0.1692 0.0240
vn 1.0000 0.0030 0.0068
vn 0.9865 0.1634 -0.0051
vn 0.7292 0.6825 -0.0502
vn 0.9987 0.0517 -0.0027
vn -0.9999 -0.0123 -0.0035
vn -1.0000 -0.0070 -0.0047
vn -0.9999 -0.0122 -0.0017
vn -0.9608 -0.2657 -0.0792
vn -1.0000 -0.0087 0.0021
vn -1.0000 0.0075 0.0005
vn -1.0000 0.0053 0.0060
usemtl algae_green
s off
f 28/1/1 26/2/1 17/3/1
f 17/3/2 27/4/2 28/1/2
f 35/5/3 34/6/3 19/7/3
f 32/8/4 30/9/4 18/10/4
f 28/1/5 27/4/5 21/11/5
f 37/12/6 35/5/6 19/7/6
f 32/8/7 20/13/7 24/14/7
f 37/12/8 36/15/8 22/16/8
f 30/9/9 28/1/9 21/11/9
f 26/2/10 37/12/10 22/16/10
f 22/16/11 13/17/11 25/18/11
f 12/19/12 27/4/12 4/20/12
f 40/21/13 24/14/13 20/13/13
f 18/10/14 5/22/14 31/23/14
f 36/15/15 19/7/15 8/24/15
f 33/25/16 1/26/16 10/27/16
f 35/5/17 15/28/17 23/29/17
f 22/16/18 25/18/18 26/2/18
f 24/14/19 40/21/19 33/25/19
f 21/11/20 12/19/20 29/30/20
f 2/31/21 15/32/21 16/33/21
f 35/5/22 7/34/22 15/32/22
f 32/8/23 10/35/23 6/36/23
f 2/37/24 23/29/24 15/28/24
f 13/17/25 36/15/25 8/24/25
f 37/12/26 14/38/26 7/39/26
f 17/3/27 4/20/27 27/4/27
f 5/22/28 29/30/28 12/19/28
f 21/11/29 29/30/29 30/9/29
f 8/24/30 34/6/30 16/33/30
f 16/33/31 7/39/31 8/24/31
f 33/25/32 41/40/32 1/41/32
f 23/29/33 16/33/33 34/6/33
f 28/1/34 11/42/34 3/43/34
f 4/20/35 25/18/35 13/17/35
f 9/44/36 31/23/36 5/22/36
f 13/17/37 3/43/37 4/20/37
f 30/9/38 29/30/38 18/10/38
f 16/33/39 23/29/39 38/45/39
f 30/9/40 6/46/40 11/47/40
f 18/10/41 31/23/41 32/8/41
f 12/19/42 6/36/42 5/22/42
f 13/17/43 22/16/43 36/15/43
f 23/29/44 34/6/44 35/5/44
f 10/27/45 1/48/45 9/44/45
f 9/44/46 41/40/46 39/49/46
f 5/22/47 18/10/47 29/30/47
f 19/7/48 36/15/48 37/12/48
f 8/24/49 19/7/49 34/6/49
f 5/22/50 10/27/50 9/44/50
f 33/25/51 40/21/51 41/40/51
f 20/13/52 39/49/52 40/21/52
f 32/8/53 24/14/53 10/35/53
f 25/18/54 17/3/54 26/2/54
f 2/37/55 16/33/55 38/45/55
f 12/19/56 21/11/56 27/4/56
f 41/40/57 40/21/57 39/49/57
f 10/27/58 24/14/58 33/25/58
f 26/2/59 3/50/59 14/51/59
f 39/49/60 20/13/60 9/44/60
f 9/44/61 20/13/61 31/23/61
f 4/20/62 17/3/62 25/18/62
f 8/24/63 14/51/63 13/17/63
f 4/20/64 11/47/64 12/19/64
f 28/1/65 3/50/65 26/2/65
f 32/8/66 6/46/66 30/9/66
f 37/12/67 7/34/67 35/5/67
f 32/8/68 31/23/68 20/13/68
f 30/9/69 11/42/69 28/1/69
f 26/2/70 14/38/70 37/12/70
f 2/37/71 38/45/71 23/29/71
f 16/33/72 15/32/72 7/39/72
f 13/17/73 14/51/73 3/43/73
f 12/19/74 11/47/74 6/36/74
f 9/44/75 1/48/75 41/40/75
f 5/22/76 6/36/76 10/27/76
f 8/24/77 7/39/77 14/51/77
f 4/20/78 3/43/78 11/47/78
