# Blender v2.92.0 OBJ File: 'algae.blend'
# www.blender.org
mtllib 141.mtl
o algae_cube_Cube
v 0.007857 0.084838 0.000000
v 0.000028 0.015453 0.000000
v 0.000590 -0.064090 -1.030754
v -0.002774 -0.043896 -1.030754
v 0.001249 0.107993 1.048394
v -0.007816 -0.004019 1.048394
v 0.007277 0.035546 1.048394
v 0.000294 0.097588 -1.546131
v 0.007766 -0.061085 -1.546131
v 0.007863 0.028953 -1.546131
v -0.007901 -0.000805 -1.546131
v 0.007857 -0.080768 0.524197
v -0.000632 -0.087278 0.524197
v -0.002688 0.012259 0.524197
v -0.000038 0.098325 0.524197
v -0.006883 0.070400 1.553035
v -0.003064 -0.044239 1.553035
v -0.001766 0.033384 1.553035
v 0.007441 -0.003485 0.000000
v 0.004679 -0.008252 -1.030754
v -0.005182 -0.011158 1.048394
v 0.008019 -0.064538 1.048394
v 0.000024 -0.039287 -1.546131
v -0.007919 -0.048836 -1.546131
v -0.001731 -0.041332 -0.497312
v 0.003648 -0.000863 0.524197
v -0.007725 -0.017777 0.524197
v -0.000013 0.040340 -1.030754
v 0.000496 0.058268 1.048394
v -0.008019 0.045226 1.048394
v 0.007420 0.073231 -1.546131
v 0.006578 0.102990 0.262099
v 0.005713 -0.036633 0.262099
v -0.005534 -0.039013 0.262099
v 0.007879 0.000209 0.262099
v -0.007994 0.111832 0.262099
v -0.004382 -0.041254 0.262099
v 0.008000 0.049115 0.262099
v -0.000151 0.042600 0.262099
v -0.007932 0.093713 -0.248656
v -0.007475 -0.044831 -0.248656
v -0.007826 -0.003662 -0.248656
v -0.005157 -0.011130 -0.248656
v 0.002275 -0.003247 -0.764033
v -0.001636 0.090089 -0.764033
v -0.000209 -0.046075 -0.764033
v -0.002452 0.058931 -0.764033
v -0.007621 0.104283 -1.288442
v -0.000966 -0.021019 -1.288442
v -0.005571 -0.030533 -1.288442
v -0.007768 0.052295 -1.288442
v 0.007339 0.025567 -1.788868
v 0.007226 -0.020730 -1.788868
v 0.007799 0.090209 1.300714
v 0.005802 -0.063163 1.300714
v -0.007393 0.003358 1.300714
v -0.004249 -0.003729 1.300714
v -0.002173 0.070642 1.300714
v 0.000978 0.058495 1.300714
v -0.000993 0.112574 0.786296
v -0.005214 -0.048866 0.786296
v -0.007286 -0.015735 0.786296
v -0.000104 0.061485 0.786296
v 0.005419 0.030362 0.786296
v 0.005274 0.111647 1.692865
v 0.008029 -0.088950 1.692865
v -0.000013 -0.049262 1.692865
v 0.000025 -0.016124 1.692865
v 0.000847 0.073402 1.692865
v -0.003522 0.056804 1.692865
v 0.000485 -0.077604 1.426875
v -0.006667 0.053355 1.426875
v 0.000556 0.102622 1.174554
v 0.004850 -0.049049 1.174554
v 0.007939 0.033799 1.174554
v 0.003427 -0.072323 1.174554
v -0.007799 0.000471 1.174554
v 0.006466 0.075967 1.174554
v -0.000462 0.070602 1.174554
v 0.004032 -0.056849 0.917345
v -0.002265 -0.038406 0.917345
v 0.006134 -0.013667 0.917345
v -0.001863 -0.022433 0.917345
v -0.006853 0.046954 0.917345
v -0.004638 -0.073799 0.655246
v 0.000014 0.039938 0.655246
v -0.004741 0.068247 0.655246
v -0.002599 0.111435 0.655246
v 0.000512 -0.060185 0.393148
v -0.007719 -0.069760 0.393148
v -0.006747 -0.031540 0.393148
v 0.000442 -0.020271 0.393148
v -0.000958 0.050698 0.393148
v 0.001590 0.108276 0.131049
v 0.004168 -0.061338 0.131049
v 0.007309 0.001766 0.131049
v -0.006411 -0.041844 0.131049
v 0.005520 -0.011567 0.131049
v 0.003080 0.057998 0.131049
v -0.004669 0.060543 -0.124328
v 0.000031 -0.081904 -0.124328
v -0.007946 0.001888 -0.124328
v -0.001737 -0.013354 -0.124328
v 0.006484 -0.005254 -0.124328
v -0.005491 -0.044252 -0.372984
v -0.005093 0.003573 -0.372984
v -0.001266 -0.023500 -0.372984
v -0.000046 0.065416 -0.372984
v -0.000971 0.106188 -0.372984
v -0.007421 0.074560 -0.630673
v -0.007942 -0.061613 -0.630673
v 0.007941 0.015860 -0.630673
v -0.007942 0.030756 -0.630673
v -0.004829 -0.052248 -0.630673
v -0.000850 0.059969 -0.630673
v 0.005533 0.054869 -0.630673
v 0.005403 0.109784 -0.897393
v 0.007588 -0.043155 -0.897393
v -0.000254 -0.051134 -0.897393
v 0.000138 -0.014599 -0.897393
v -0.007663 0.024713 -0.897393
v 0.005235 -0.002355 -0.897393
v -0.007223 -0.029663 -0.897393
v -0.001478 0.051923 -0.897393
v 0.003244 0.067007 -0.897393
v -0.007766 0.113351 -0.897393
v -0.000013 -0.057889 -1.161580
v 0.000488 -0.022320 -1.161580
v -0.000069 -0.009910 -1.161580
v 0.004143 0.093115 -1.417287
v 0.005445 -0.049741 -1.417287
v -0.006210 -0.036551 -1.417287
v -0.000430 -0.023832 -1.417287
v 0.001859 -0.042712 -1.417287
v -0.007918 -0.044387 -1.417287
v -0.000015 0.073439 -1.417287
v -0.002006 0.112128 -1.417287
v 0.007754 -0.065373 -1.667499
v -0.000418 -0.072705 -1.667499
v 0.005327 0.034961 -1.667499
v 0.005715 -0.029103 -1.667499
vt 0.688279 0.344795
vt 0.697735 0.288059
vt 0.725864 -0.153763
vt 0.554993 0.343143
vt 0.546351 0.343036
vt 0.545853 0.398164
vt 0.537200 0.398044
vt 0.536691 0.453158
vt 0.545354 0.453291
vt 0.547348 0.232782
vt 0.546863 0.286419
vt 0.538727 0.232701
vt 0.555494 0.286513
vt 0.518449 0.676186
vt 0.508846 0.676095
vt 0.509763 0.452745
vt 0.530790 -0.155608
vt 0.522221 -0.100225
vt 0.539505 -0.100062
vt 0.539443 -0.155526
vt 0.565737 -0.155277
vt 0.548200 -0.043018
vt 0.539569 -0.043099
vt 0.556789 -0.099899
vt 0.556831 -0.042936
vt 0.565825 0.011112
vt 0.565796 -0.042852
vt 0.574780 0.011197
vt 0.574762 -0.042767
vt 0.556749 -0.155362
vt 0.601644 0.011450
vt 0.592689 0.011366
vt 0.601659 -0.042513
vt 0.591788 0.233201
vt 0.564923 0.232947
vt 0.571103 0.676685
vt 0.583707 -0.210570
vt 0.583714 -0.155107
vt 0.610706 -0.210315
vt 0.592698 -0.099560
vt 0.608011 0.454252
vt 0.601691 -0.154937
vt 0.589102 0.676855
vt 0.610679 -0.154852
vt 0.608854 0.343811
vt 0.608433 0.399032
vt 0.617831 0.343922
vt 0.618253 0.287195
vt 0.627218 0.287293
vt 0.741297 0.288533
vt 0.635724 0.287385
vt 0.618652 0.233454
vt 0.636102 0.233618
vt 0.617421 0.399156
vt 0.626808 0.344033
vt 0.654238 -0.154440
vt 0.741032 0.345449
vt 0.654157 -0.098979
vt 0.671912 -0.154273
vt 0.626009 0.454529
vt 0.617010 0.454390
vt 0.642176 0.677358
vt 0.633638 0.677277
vt 0.650714 0.677438
vt 0.662579 -0.041939
vt 0.654073 -0.042019
vt 0.574726 -0.155192
vt 0.732180 0.456158
vt 0.677568 0.677693
vt 0.672015 -0.209734
vt 0.681059 -0.154187
vt 0.722429 0.678117
vt 0.583734 0.011281
vt 0.511404 0.286034
vt 0.572481 0.398533
vt 0.581924 0.343477
vt 0.591356 0.286903
vt 0.600322 0.287000
vt 0.600742 0.233285
vt 0.610625 -0.042429
vt 0.609697 0.233370
vt 0.610599 0.011534
vt 0.619590 -0.042344
vt 0.530107 0.232619
vt 0.699352 -0.154014
vt 0.690331 -0.209561
vt 0.690205 -0.154100
vt 0.717186 -0.209307
vt 0.717026 -0.153847
vt 0.723333 0.456022
vt 0.732718 0.345346
vt 0.732449 0.400752
vt 0.749600 0.288623
vt 0.749345 0.345552
vt 0.716867 -0.098387
vt 0.548045 -0.210908
vt 0.554017 0.453424
vt 0.734333 -0.041261
vt 0.742450 0.012777
vt 0.741549 0.234612
vt 0.716704 -0.041428
vt 0.725518 -0.041345
vt 0.725693 -0.098303
vt 0.733255 0.234534
vt 0.724451 0.234451
vt 0.725353 0.012616
vt 0.724179 0.288347
vt 0.732994 0.288443
vt 0.706686 0.288157
vt 0.708024 -0.041510
vt 0.687632 0.455474
vt 0.687956 0.400135
vt 0.669663 0.399881
vt 0.679144 0.344682
vt 0.689828 0.012281
vt 0.698940 0.012367
vt 0.698039 0.234202
vt 0.637123 -0.099140
vt 0.645640 -0.099060
vt 0.645567 -0.042099
vt 0.554505 0.398284
vt 0.510305 0.397670
vt 0.707880 0.012451
vt 0.512833 0.010613
vt 0.511931 0.232448
vt 0.688927 0.234116
vt 0.688612 0.287960
vt 0.653994 0.011944
vt 0.671602 0.012110
vt 0.680827 -0.041766
vt 0.637062 -0.042179
vt 0.592693 -0.042598
vt 0.522387 0.010703
vt 0.645499 0.011863
vt 0.690080 -0.098640
vt 0.689950 -0.041680
vt 0.671809 -0.098812
vt 0.671703 -0.041852
vt 0.564460 0.286610
vt 0.734519 -0.098220
vt 0.670009 0.344569
vt 0.607101 0.677026
vt 0.592707 -0.210485
vt 0.637243 -0.210063
vt 0.645781 -0.209982
vt 0.654319 -0.209902
vt 0.681173 -0.209647
vt 0.522054 -0.211154
vt 0.512451 -0.211245
vt 0.574708 -0.210655
vt 0.544440 0.676432
vn 0.9614 0.2712 0.0456
vn -0.9614 -0.2712 -0.0456
vn -0.9994 -0.0349 0.0048
vn -0.9748 0.2097 0.0766
vn -0.9980 0.0610 0.0144
vn 0.9248 -0.3803 0.0102
vn -0.9866 0.1583 0.0391
vn -0.9904 -0.1369 0.0168
vn -0.9970 0.0773 0.0074
vn 0.9723 -0.2339 0.0026
vn -0.9140 -0.4055 0.0122
vn -0.9381 -0.3461 0.0124
vn -0.9995 0.0251 0.0205
vn -0.9973 -0.0624 0.0381
vn -1.0000 -0.0041 0.0003
vn -1.0000 0.0039 0.0031
vn 0.9972 0.0743 0.0098
vn -0.9980 0.0254 0.0574
vn 0.6076 -0.7924 0.0541
vn -0.9962 0.0875 -0.0007
vn -0.9995 0.0314 -0.0060
vn 0.9987 -0.0495 -0.0138
vn 0.9993 -0.0254 0.0265
vn 0.5166 0.8515 0.0901
vn 0.9945 -0.1003 0.0295
vn -0.9936 -0.1126 0.0008
vn -1.0000 0.0025 0.0044
vn -0.9995 -0.0264 0.0148
vn -0.9962 -0.0855 0.0136
vn -0.9911 0.1330 -0.0063
vn -0.9998 -0.0166 0.0072
vn -0.9966 -0.0823 0.0023
vn -0.9974 0.0715 0.0067
vn -0.9964 0.0839 0.0094
vn 0.9987 -0.0503 -0.0069
vn 0.9312 0.3645 0.0072
vn -0.9928 0.1196 0.0098
vn 0.9987 0.0296 0.0425
vn -0.9850 0.1588 0.0682
vn 0.9981 0.0227 0.0581
vn -0.9899 -0.1399 0.0238
vn 0.9000 0.4339 -0.0417
vn -0.9995 0.0272 -0.0130
vn 0.9998 0.0174 0.0086
vn -0.9473 0.3202 -0.0121
vn 0.9757 -0.2189 -0.0093
vn 0.9966 -0.0813 -0.0111
vn 0.9960 0.0892 0.0049
vn 0.9083 0.4091 0.0870
vn -0.9997 0.0262 0.0014
vn 0.9992 0.0386 0.0028
vn 0.9922 0.1247 0.0036
vn 0.9995 -0.0308 -0.0028
vn 0.9992 -0.0410 -0.0037
vn -0.9839 -0.1766 0.0277
vn -0.8517 0.5209 -0.0563
vn 0.9993 0.0018 -0.0371
vn 0.0000 0.0000 1.0000
vn 0.9906 -0.1357 -0.0147
vn 0.9593 0.2783 -0.0480
vn -0.9024 0.4307 0.0113
vn 0.9999 0.0074 0.0087
vn 0.9462 0.3230 0.0197
vn 0.9948 0.1018 0.0021
vn 0.4308 0.8994 0.0735
vn -0.9999 0.0028 0.0101
vn -0.9513 -0.3077 0.0177
vn -0.9997 -0.0100 0.0204
vn 0.9999 -0.0024 0.0123
vn 0.9999 0.0061 0.0161
vn 0.9951 -0.0966 0.0193
vn 0.9990 -0.0447 0.0096
vn -0.9545 -0.2792 0.1045
vn -0.9994 0.0318 0.0145
vn 0.9920 -0.1237 -0.0232
vn -0.8882 -0.4582 0.0352
vn 0.9394 -0.3422 0.0197
vn -0.7486 -0.6615 0.0448
vn -0.9423 -0.3347 0.0045
vn 0.9983 0.0448 -0.0368
vn 0.6057 0.7934 -0.0600
vn -0.9987 0.0504 0.0109
vn -0.9992 0.0380 0.0128
vn -0.9994 0.0329 0.0101
vn -0.9864 -0.1643 0.0097
vn -0.9415 -0.3366 0.0141
vn -0.9999 0.0152 0.0019
vn -0.9990 -0.0449 0.0080
vn 0.9839 -0.1776 0.0182
vn -0.0001 0.0000 1.0000
vn 0.9321 -0.3617 0.0184
vn 0.6046 0.7919 -0.0852
vn -0.9996 0.0141 0.0254
vn -0.0001 0.0000 -1.0000
vn 1.0000 -0.0043 -0.0012
vn 1.0000 -0.0012 -0.0044
vn -0.9986 -0.0530 0.0057
vn -0.9813 -0.1924 0.0020
vn 0.9936 -0.1071 -0.0347
vn 0.9999 -0.0107 0.0074
vn -0.9965 -0.0575 0.0613
vn 0.9925 -0.1205 0.0212
vn 0.9387 -0.3446 0.0143
vn -0.9260 -0.3771 0.0187
vn -0.8979 0.4391 0.0325
vn 0.9859 -0.1653 0.0247
vn -0.9863 -0.1640 0.0156
vn -0.4118 0.8996 0.1453
vn -0.9976 0.0686 0.0023
vn 0.5551 -0.8318 0.0050
vn -0.9991 -0.0206 0.0378
vn 0.9975 0.0710 -0.0057
vn 0.9827 -0.1853 0.0027
vn 0.9916 0.1285 0.0128
vn -0.9993 -0.0375 0.0071
vn -0.9835 -0.1770 0.0373
vn -0.9712 0.2358 0.0356
vn -0.9975 -0.0677 0.0217
vn 0.9996 -0.0269 -0.0077
vn -0.9940 0.1085 0.0137
vn -0.9997 0.0234 0.0050
vn -0.9995 0.0315 0.0065
vn -0.9954 0.0961 0.0044
vn 0.9998 0.0207 0.0016
vn -0.9957 -0.0924 0.0113
vn 0.9974 0.0724 0.0040
vn 0.9902 -0.1393 0.0098
vn 0.9987 -0.0486 0.0127
vn -0.9966 0.0814 0.0141
vn -0.9999 0.0004 0.0124
vn 0.9958 -0.0910 0.0037
vn -0.9968 -0.0615 0.0512
vn -0.9998 0.0198 0.0026
vn -0.9808 -0.1946 0.0083
vn -0.2014 -0.9794 0.0170
vn 1.0000 0.0061 -0.0011
vn 0.9936 0.1126 -0.0008
vn 0.9995 0.0264 -0.0148
vn 1.0000 -0.0025 -0.0044
vn 0.9980 0.0561 -0.0274
vn -0.9981 0.0495 -0.0368
vn -0.9993 0.0308 -0.0226
vn -0.5185 -0.8546 -0.0283
vn 0.9964 -0.0839 -0.0094
vn 0.9974 -0.0715 -0.0067
vn -0.9312 -0.3645 -0.0072
vn -0.9987 0.0503 0.0069
vn -0.9966 0.0813 0.0111
vn -0.9987 -0.0296 -0.0425
vn 0.9850 -0.1588 -0.0682
vn -0.9981 -0.0227 -0.0581
vn 0.9899 0.1399 -0.0238
vn -0.9000 -0.4339 0.0417
vn -0.9680 0.2501 -0.0200
vn -0.9995 0.0308 -0.0026
vn -0.6076 0.7924 -0.0541
vn 0.9980 -0.0254 -0.0574
vn 0.9954 -0.0961 -0.0044
vn 0.9973 0.0624 -0.0381
vn 0.9995 -0.0251 -0.0205
vn -0.9757 0.2189 0.0093
vn 0.9928 -0.1196 -0.0098
vn -0.9083 -0.4091 -0.0870
vn -0.9992 -0.0386 -0.0028
vn 0.9997 -0.0262 -0.0014
vn 0.9381 0.3461 -0.0124
vn 0.9140 0.4055 -0.0122
vn -0.9723 0.2339 -0.0026
vn 0.9970 -0.0773 -0.0074
vn 0.9904 0.1369 -0.0168
vn 0.9866 -0.1583 -0.0391
vn 0.9980 -0.0610 -0.0144
vn 0.9994 0.0349 -0.0048
vn 0.9748 -0.2097 -0.0766
vn 0.0451 -0.9972 -0.0599
vn 0.9508 -0.3099 0.0046
vn 1.0000 -0.0039 -0.0031
vn -0.9972 -0.0743 -0.0098
vn 1.0000 0.0041 -0.0003
vn 0.9995 -0.0314 0.0060
vn 0.9962 -0.0875 0.0007
vn 0.9998 0.0166 -0.0072
vn 0.9911 -0.1330 0.0063
vn -0.9998 -0.0174 -0.0086
vn 0.9966 0.0823 -0.0023
vn 0.9995 -0.0272 0.0130
vn -0.9948 -0.1018 -0.0021
vn 0.9999 -0.0028 -0.0101
vn -0.4308 -0.8994 -0.0735
vn 0.9513 0.3077 -0.0177
vn 0.9997 0.0100 -0.0204
vn -0.9999 -0.0061 -0.0161
vn -0.9999 0.0024 -0.0123
vn -0.9922 -0.1247 -0.0036
vn -0.9951 0.0966 -0.0193
vn -0.9990 0.0447 -0.0096
vn 0.9545 0.2792 -0.1045
vn -0.9920 0.1148 0.0524
vn 0.1517 -0.9883 0.0128
vn -0.9729 -0.2308 -0.0162
vn 0.9940 -0.1085 -0.0137
vn 0.9994 -0.0318 -0.0145
vn -0.9920 0.1237 0.0232
vn -0.0000 0.0000 -1.0000
vn 0.8882 0.4582 -0.0352
vn -0.9902 0.1393 -0.0098
vn -0.9394 0.3422 -0.0197
vn 0.7486 0.6615 -0.0448
vn 0.9423 0.3347 -0.0045
vn -0.6057 -0.7934 0.0600
vn -0.9983 -0.0448 0.0368
vn 0.9996 -0.0141 -0.0254
vn 0.9992 -0.0380 -0.0128
vn 0.9987 -0.0504 -0.0109
vn 0.9994 -0.0329 -0.0101
vn 0.9864 0.1643 -0.0097
vn 0.9415 0.3366 -0.0141
vn -0.9992 -0.0018 -0.0400
vn 0.9839 0.1766 -0.0277
vn 0.4127 -0.9017 0.1292
vn -0.9876 0.1569 0.0009
vn -0.9762 0.2170 0.0012
vn 0.9808 0.1946 0.0083
vn 0.9999 0.0066 -0.0075
vn 0.9999 -0.0152 -0.0019
vn -0.9839 0.1776 -0.0182
vn 0.9990 0.0449 -0.0080
vn -1.0000 0.0092 0.0009
vn -0.9321 0.3617 -0.0184
vn -0.6046 -0.7919 0.0852
vn 0.0001 0.0000 1.0000
vn -1.0000 0.0043 0.0012
vn -0.9936 0.1071 0.0347
vn -0.9995 0.0308 0.0028
vn -1.0000 0.0012 0.0044
vn 0.9986 0.0530 -0.0057
vn 0.9813 0.1924 -0.0020
vn 0.9965 0.0575 -0.0613
vn -0.9999 0.0107 -0.0074
vn 0.9975 0.0677 -0.0217
vn -0.9137 0.4065 -0.0056
vn 0.9924 -0.1230 -0.0012
vn 0.9260 0.3771 -0.0187
vn 0.8979 -0.4391 -0.0325
vn -0.9859 0.1653 -0.0247
vn 0.9863 0.1640 -0.0156
vn 0.9976 -0.0686 -0.0023
vn -0.5551 0.8318 -0.0050
vn 0.0160 0.9999 -0.0047
vn 0.9991 0.0206 -0.0378
vn -0.9975 -0.0710 0.0057
vn -0.9462 -0.3230 -0.0197
vn -0.9938 -0.1113 -0.0035
vn 0.9835 0.1770 -0.0373
vn 0.9993 0.0375 -0.0071
vn 0.9712 -0.2358 -0.0356
vn -0.9925 0.1205 -0.0212
vn 0.9999 -0.0098 -0.0024
vn -0.9998 -0.0207 -0.0016
vn -0.9960 -0.0892 -0.0049
vn -0.9974 -0.0724 -0.0040
vn 0.9957 0.0924 -0.0113
vn -0.9987 0.0486 -0.0127
vn 0.9999 -0.0004 -0.0124
vn 0.9966 -0.0814 -0.0141
vn 0.9999 0.0074 -0.0072
vn 0.9422 -0.3315 -0.0481
vn 0.2014 0.9794 -0.0170
vn 0.9968 0.0615 -0.0512
vn -1.0000 -0.0061 0.0011
usemtl algae_green
s off
f 120/1/1 20/2/1 136/3/1
f 136/3/2 20/2/2 120/1/2
f 7/4/3 75/5/3 78/6/3
f 59/7/4 54/8/4 73/9/4
f 74/10/5 76/11/5 55/12/5
f 76/11/6 22/13/6 55/12/6
f 16/14/7 70/15/7 65/16/7
f 72/17/8 18/18/8 16/14/8
f 56/19/9 58/20/9 84/21/9
f 58/20/10 72/17/10 84/21/10
f 77/22/11 57/23/11 56/19/11
f 6/24/12 21/25/12 77/22/12
f 81/26/13 83/27/13 61/28/13
f 83/27/14 62/29/14 61/28/14
f 30/30/15 6/24/15 77/22/15
f 77/22/16 56/19/16 30/30/16
f 84/21/17 30/30/17 56/19/17
f 90/31/18 13/32/18 91/33/18
f 13/32/19 12/34/19 80/35/19
f 60/36/20 84/21/20 72/17/20
f 60/36/21 72/17/21 16/14/21
f 88/37/22 87/38/22 36/39/22
f 87/38/23 14/40/23 32/41/23
f 36/39/24 87/38/24 32/41/24
f 93/42/25 15/43/25 88/37/25
f 36/39/26 39/44/26 93/42/26
f 35/45/27 38/46/27 96/47/27
f 38/46/28 32/41/28 96/47/28
f 36/39/29 93/42/29 88/37/29
f 98/48/30 96/47/30 19/49/30
f 96/47/31 32/41/31 120/1/31
f 19/49/32 96/47/32 141/50/32
f 19/49/33 104/51/33 95/52/33
f 104/51/34 101/53/34 95/52/34
f 99/54/35 2/55/35 108/56/35
f 2/55/36 19/49/36 140/57/36
f 106/58/37 2/55/37 115/59/37
f 1/60/38 94/61/38 99/54/38
f 40/62/39 100/63/39 1/60/39
f 108/56/40 109/64/40 40/62/40
f 25/65/41 107/66/41 106/58/41
f 108/56/42 40/62/42 1/60/42
f 95/52/43 98/48/43 19/49/43
f 63/67/44 60/36/44 16/14/44
f 63/67/45 16/14/45 65/16/45
f 108/56/46 1/60/46 99/54/46
f 106/58/47 108/56/47 2/55/47
f 115/59/48 2/55/48 8/68/48
f 45/69/49 110/70/49 115/59/49
f 47/71/50 45/69/50 137/72/50
f 45/69/51 115/59/51 8/68/51
f 137/72/52 45/69/52 8/68/52
f 85/73/53 63/67/53 68/74/53
f 63/67/54 65/16/54 68/74/54
f 64/75/55 86/76/55 26/77/55
f 26/77/56 92/78/56 64/75/56
f 92/78/57 89/79/57 37/80/57
f 33/81/58 34/82/58 37/80/58
f 92/78/59 37/80/59 97/83/59
f 64/75/60 92/78/60 97/83/60
f 71/84/61 55/12/61 80/35/61
f 55/12/62 22/13/62 7/4/62
f 71/84/63 80/35/63 81/26/63
f 28/85/64 126/86/64 124/87/64
f 137/72/65 48/88/65 47/71/65
f 48/88/66 51/89/66 47/71/66
f 8/68/67 130/90/67 137/72/67
f 140/57/68 10/91/68 31/92/68
f 53/93/69 52/94/69 141/50/69
f 52/94/70 140/57/70 141/50/70
f 49/95/71 28/85/71 124/87/71
f 49/95/72 124/87/72 47/71/72
f 31/92/73 8/68/73 140/57/73
f 59/7/74 73/9/74 79/96/74
f 59/7/75 79/96/75 5/97/75
f 24/98/76 139/99/76 120/1/76
f 139/99/58 138/100/58 141/50/58
f 50/101/77 135/102/77 133/103/77
f 9/104/78 131/105/78 132/106/78
f 134/107/79 23/108/79 9/104/79
f 20/2/80 128/109/80 129/110/80
f 128/109/81 134/107/81 132/106/81
f 117/111/82 125/112/82 116/113/82
f 125/112/83 120/1/83 44/114/83
f 116/113/84 125/112/84 44/114/84
f 119/115/85 4/116/85 3/117/85
f 102/118/86 42/119/86 43/120/86
f 59/7/87 5/97/87 29/121/87
f 7/4/88 78/6/88 64/75/88
f 78/6/89 59/7/89 64/75/89
f 65/16/90 69/122/90 68/74/90
f 129/110/91 50/101/91 133/103/91
f 134/107/92 9/104/92 132/106/92
f 128/109/93 132/106/93 127/123/93
f 127/123/94 129/110/94 128/109/94
f 129/110/95 133/103/95 136/3/95
f 85/73/96 68/74/96 67/124/96
f 68/74/94 66/125/94 67/124/94
f 61/28/97 85/73/97 67/124/97
f 59/7/98 29/121/98 64/75/98
f 129/110/99 136/3/99 20/2/99
f 119/115/100 3/117/100 120/1/100
f 3/117/101 118/126/101 122/127/101
f 44/114/102 3/117/102 122/127/102
f 105/128/103 111/129/103 46/130/103
f 103/131/104 102/118/104 43/120/104
f 97/83/105 103/131/105 43/120/105
f 14/40/106 27/132/106 91/33/106
f 67/124/107 17/133/107 71/84/107
f 89/79/108 33/81/108 37/80/108
f 97/83/109 43/120/109 41/134/109
f 97/83/110 41/134/110 105/128/110
f 14/40/111 91/33/111 13/32/111
f 61/28/112 67/124/112 71/84/112
f 64/75/113 97/83/113 105/128/113
f 105/128/114 46/130/114 121/135/114
f 121/135/58 123/136/58 120/1/58
f 123/136/58 119/115/58 120/1/58
f 113/137/115 114/138/115 106/58/115
f 114/138/116 25/65/116 106/58/116
f 115/59/117 113/137/117 106/58/117
f 3/117/118 44/114/118 120/1/118
f 64/75/119 105/128/119 121/135/119
f 61/28/120 71/84/120 81/26/120
f 80/35/121 55/12/121 64/75/121
f 64/75/122 55/12/122 7/4/122
f 13/32/123 80/35/123 120/1/123
f 14/40/124 13/32/124 120/1/124
f 51/89/125 49/95/125 47/71/125
f 140/57/126 8/68/126 2/55/126
f 139/99/127 141/50/127 120/1/127
f 12/34/128 82/139/128 80/35/128
f 136/3/129 11/140/129 120/1/129
f 11/140/130 24/98/130 120/1/130
f 120/1/131 32/41/131 14/40/131
f 44/114/132 112/141/132 116/113/132
f 80/35/133 64/75/133 120/1/133
f 64/75/134 121/135/134 120/1/134
f 96/47/135 120/1/135 141/50/135
f 141/50/136 140/57/136 19/49/136
f 93/42/137 39/44/137 36/142/137
f 32/41/138 38/46/138 96/47/138
f 38/46/139 35/45/139 96/47/139
f 15/143/140 93/42/140 36/142/140
f 87/38/141 88/37/141 14/40/141
f 88/37/142 15/143/142 14/40/142
f 15/143/143 36/142/143 32/41/143
f 101/53/144 104/51/144 95/52/144
f 104/51/145 19/49/145 95/52/145
f 19/49/146 2/55/146 140/57/146
f 2/55/147 99/54/147 108/56/147
f 106/58/148 2/55/148 108/56/148
f 99/54/149 94/61/149 1/60/149
f 1/60/150 100/144/150 40/145/150
f 40/145/151 109/146/151 108/56/151
f 106/58/152 107/66/152 25/65/152
f 1/60/153 40/145/153 108/56/153
f 15/143/154 32/41/154 120/1/154
f 14/40/155 15/143/155 120/1/155
f 12/34/156 13/32/156 80/35/156
f 13/32/157 90/31/157 91/33/157
f 80/35/158 13/32/158 120/1/158
f 62/29/159 83/27/159 61/28/159
f 83/27/160 81/26/160 61/28/160
f 99/54/161 1/60/161 108/56/161
f 2/55/162 106/58/162 115/59/162
f 115/59/163 110/70/163 45/147/163
f 115/59/164 45/147/164 8/68/164
f 45/147/165 47/71/165 137/72/165
f 77/22/166 21/25/166 6/24/166
f 56/19/167 57/23/167 77/22/167
f 72/17/168 58/20/168 84/21/168
f 58/20/169 56/19/169 84/21/169
f 16/148/170 18/18/170 72/17/170
f 65/16/171 70/149/171 16/148/171
f 76/11/172 74/10/172 55/12/172
f 78/6/173 75/5/173 7/4/173
f 73/9/174 54/8/174 59/7/174
f 22/13/175 76/11/175 80/35/175
f 76/11/176 55/12/176 71/84/176
f 56/19/177 77/22/177 30/30/177
f 84/21/178 56/19/178 30/30/178
f 77/22/179 6/24/179 30/30/179
f 16/148/180 72/17/180 60/150/180
f 72/17/181 84/21/181 60/150/181
f 32/41/182 96/47/182 120/1/182
f 96/47/183 98/48/183 19/49/183
f 16/148/184 60/150/184 63/67/184
f 96/47/185 19/49/185 141/50/185
f 98/48/186 95/52/186 19/49/186
f 124/87/187 126/86/187 28/85/187
f 51/89/188 48/88/188 47/71/188
f 48/88/189 137/72/189 47/71/189
f 137/72/190 130/90/190 8/68/190
f 31/92/191 10/91/191 140/57/191
f 140/57/192 52/94/192 141/50/192
f 52/94/193 53/93/193 141/50/193
f 137/72/194 8/68/194 45/147/194
f 124/87/195 28/85/195 49/95/195
f 47/71/196 124/87/196 49/95/196
f 8/68/197 31/92/197 140/57/197
f 65/16/198 16/148/198 69/122/198
f 16/148/199 63/67/199 69/122/199
f 76/11/200 71/84/200 80/35/200
f 81/26/201 71/84/201 61/28/201
f 79/151/202 73/9/202 59/7/202
f 5/97/203 79/151/203 59/7/203
f 138/100/204 139/99/204 141/50/204
f 139/99/205 24/98/205 120/1/205
f 141/50/206 139/99/206 120/1/206
f 133/103/207 135/102/207 50/101/207
f 132/106/208 131/105/208 9/104/208
f 9/104/209 23/108/209 134/107/209
f 134/107/210 128/109/210 132/106/210
f 128/109/211 20/2/211 129/110/211
f 132/106/212 128/109/212 127/123/212
f 120/1/213 125/112/213 44/114/213
f 125/112/214 117/111/214 116/113/214
f 125/112/215 116/113/215 44/114/215
f 3/117/216 4/116/216 119/115/216
f 43/120/217 42/119/217 102/118/217
f 37/80/204 34/82/204 33/81/204
f 33/81/218 89/79/218 92/78/218
f 26/77/219 86/76/219 64/75/219
f 33/81/220 92/78/220 37/80/220
f 92/78/221 26/77/221 120/1/221
f 37/80/222 92/78/222 120/1/222
f 37/80/223 120/1/223 121/135/223
f 26/77/224 64/75/224 22/13/224
f 29/121/225 5/97/225 59/7/225
f 59/7/226 78/6/226 64/75/226
f 78/6/227 7/4/227 64/75/227
f 68/74/228 69/122/228 63/67/228
f 133/103/229 50/101/229 129/110/229
f 132/106/230 9/104/230 134/107/230
f 127/123/231 128/109/231 129/110/231
f 133/103/232 129/110/232 136/3/232
f 136/3/233 129/110/233 20/2/233
f 68/74/234 63/67/234 85/73/234
f 66/125/58 68/74/58 67/124/58
f 68/74/235 85/73/235 67/124/235
f 85/73/236 61/28/236 67/124/236
f 29/121/237 59/7/237 64/75/237
f 118/126/238 3/117/238 122/127/238
f 3/117/239 119/115/239 120/1/239
f 44/114/240 3/117/240 120/1/240
f 46/130/241 111/129/241 37/80/241
f 111/129/242 105/128/242 37/80/242
f 43/120/243 102/118/243 103/131/243
f 43/120/244 103/131/244 97/83/244
f 91/33/245 27/132/245 14/40/245
f 71/84/246 17/133/246 67/124/246
f 41/134/247 43/120/247 97/83/247
f 105/128/248 41/134/248 97/83/248
f 105/128/249 97/83/249 37/80/249
f 91/33/250 14/40/250 13/32/250
f 71/84/251 67/124/251 61/28/251
f 71/84/252 81/26/252 80/35/252
f 121/135/253 46/130/253 37/80/253
f 119/115/204 123/136/204 120/1/204
f 123/136/204 121/135/204 120/1/204
f 25/65/254 114/138/254 106/58/254
f 114/138/255 113/137/255 106/58/255
f 106/58/256 113/137/256 115/59/256
f 3/117/257 44/114/257 122/127/257
f 120/1/258 26/77/258 80/35/258
f 13/32/259 14/40/259 120/1/259
f 2/55/260 115/59/260 8/68/260
f 140/57/261 2/55/261 8/68/261
f 47/71/262 49/95/262 51/89/262
f 80/35/263 82/139/263 12/34/263
f 24/98/264 11/140/264 120/1/264
f 11/140/265 136/3/265 120/1/265
f 7/4/266 22/13/266 64/75/266
f 22/13/267 80/35/267 26/77/267
f 120/1/268 96/47/268 141/50/268
f 116/113/269 112/141/269 44/114/269
f 19/49/270 140/57/270 141/50/270
