# Blender v2.92.0 OBJ File: 'algae.blend'
# www.blender.org
mtllib 147.mtl
o algae_cube_Cube
v -0.006987 0.096566 -1.767292
v -0.001333 0.086283 1.767292
v -0.004295 0.067273 -0.000000
v -0.006496 -0.067999 -0.000000
v -0.006381 -0.058819 -0.883646
v -0.006798 0.091076 -0.883646
v -0.006735 0.072792 0.898769
v -0.003553 -0.059436 0.898769
v -0.004917 -0.063051 -1.325469
v -0.001241 0.095909 -1.325469
v -0.001375 0.079730 -0.426336
v -0.001439 -0.062054 -0.426336
v -0.004759 -0.081620 0.449384
v -0.004719 0.087487 0.449384
v -0.002636 0.072369 1.331388
v -0.006472 -0.058693 1.331388
v 0.004268 -0.019858 0.000000
v 0.007005 -0.022372 -0.883646
v 0.003858 -0.052037 0.898769
v 0.007006 -0.038934 -1.325469
v 0.001559 -0.020779 -0.426336
v 0.005949 -0.018450 0.449384
v 0.006589 -0.017463 1.331388
v 0.006844 0.056567 -1.325469
v 0.004241 -0.032603 0.224692
v 0.001765 0.043590 0.224692
v 0.002367 -0.023991 -0.213168
v 0.006369 0.048916 -0.213168
v 0.005658 -0.019090 -0.654991
v 0.002073 0.052315 -0.654991
v 0.006058 -0.036848 -1.104558
v 0.000970 0.039723 -1.104558
v 0.002862 -0.045429 1.115078
v 0.002751 0.048368 1.115078
v 0.001079 -0.027995 0.674077
v 0.004294 0.033560 0.674077
v 0.002324 0.018706 -1.429516
vt 0.643463 0.399518
vt 0.608433 0.399032
vt 0.627218 0.287293
vt 0.644229 0.287478
vt 0.537200 0.398044
vt 0.538232 0.286325
vt 0.555494 0.286513
vt 0.714776 0.400507
vt 0.678809 0.400008
vt 0.697735 0.288059
vt 0.661241 0.287663
vt 0.572481 0.398533
vt 0.715365 0.288251
vt 0.732449 0.400752
vt 0.573425 0.286708
vt 0.591356 0.286903
vt 0.522054 -0.211154
vt 0.483530 0.675856
vt 0.520970 0.286138
vt 0.592689 0.011366
vt 0.609287 0.287098
vt 0.662490 0.012024
vt 0.628508 0.011703
vt 0.741032 0.345449
vt 0.732994 0.288443
vt 0.698940 0.012367
vt 0.556870 0.011028
vt 0.731277 0.678201
vt 0.679488 0.287861
vt 0.204504 0.007695
vt 0.518449 0.676186
vt 0.522387 0.010703
vt 0.556709 -0.210826
vt 0.734882 -0.209139
vt 0.695884 0.677866
vt 0.592707 -0.210485
vt 0.553104 0.676514
vt 0.662857 -0.209821
vt 0.625100 0.677196
vt 0.734157 0.012699
vt 0.699490 -0.209474
vt 0.659252 0.677519
vt 0.766669 0.678536
vt 0.628705 -0.210144
vt 0.589102 0.676855
vt 0.770274 -0.208804
vt 1.051103 0.015687
vn 0.9999 0.0021 0.0105
vn 0.9985 -0.0548 -0.0078
vn 1.0000 0.0012 0.0046
vn 0.9968 0.0802 -0.0047
vn 0.9985 -0.0548 -0.0046
vn 1.0000 0.0038 0.0034
vn 0.9973 0.0663 0.0316
vn 0.9984 -0.0522 0.0194
vn 0.9992 -0.0383 -0.0100
vn 0.9987 0.0511 -0.0045
vn 0.9947 0.1021 -0.0062
vn 0.9859 -0.1671 0.0030
vn 0.9883 -0.1525 0.0096
vn 0.9990 0.0017 -0.0440
vn 0.9385 -0.3447 0.0186
vn 0.7040 -0.7052 -0.0842
vn 0.9947 0.1021 0.0134
vn 0.9994 0.0325 -0.0096
vn 0.9730 0.2000 -0.1150
vn 0.9972 -0.0725 0.0173
vn -0.9996 0.0293 0.0021
vn 0.9559 0.2936 -0.0088
vn 0.9956 0.0924 0.0135
vn 0.9925 -0.1221 0.0034
vn 0.9776 0.2103 0.0113
vn 0.9759 -0.2182 -0.0045
vn 0.9742 -0.2254 -0.0121
vn 0.9986 0.0501 0.0183
vn 0.8659 -0.5001 0.0067
vn -0.9997 -0.0241 -0.0067
vn 0.9531 -0.3019 0.0226
vn 0.9364 0.3505 0.0167
vn 0.9737 -0.2277 -0.0107
vn 0.8994 -0.4371 0.0072
vn -0.9999 0.0163 0.0044
vn 0.9987 0.0501 0.0052
vn 0.9831 0.1830 -0.0071
vn 0.9978 0.0663 -0.0086
vn -0.9999 0.0005 0.0108
vn 0.9858 -0.1671 0.0143
vn 0.9998 0.0012 -0.0174
vn -0.9996 0.0231 0.0130
vn 0.9386 -0.3447 0.0105
vn 0.9985 -0.0522 -0.0179
vn 0.7063 -0.7074 0.0249
vn -1.0000 -0.0028 -0.0033
vn 0.9787 0.2011 0.0414
vn 0.9995 0.0325 0.0020
vn 0.9974 -0.0725 -0.0049
vn 0.9495 -0.3008 0.0888
vn 0.9832 0.1825 -0.0073
vn 0.9828 -0.1720 -0.0667
vn 0.8964 -0.4432 0.0080
vn 0.9758 -0.2182 -0.0123
vn -1.0000 0.0002 0.0027
vn -0.9998 0.0163 -0.0116
vn 0.9277 0.3730 0.0143
vn 0.9835 0.1809 -0.0075
vn 0.9515 0.3076 -0.0070
vn 1.0000 0.0017 0.0043
vn 0.9816 0.1908 -0.0081
vn 0.9877 0.1565 -0.0021
vn 0.9979 0.0634 -0.0129
vn -0.9995 0.0293 0.0095
vn -1.0000 0.0002 -0.0010
vn -0.9999 -0.0028 0.0118
vn -0.9997 0.0231 -0.0123
vn 0.8619 -0.4261 -0.2749
vn -0.9997 -0.0241 -0.0053
vn -1.0000 0.0005 -0.0068
usemtl algae_green
s off
f 28/1/1 26/2/1 17/3/1
f 17/3/2 27/4/2 28/1/2
f 34/5/3 33/6/3 19/7/3
f 32/8/4 30/9/4 18/10/4
f 28/1/5 27/4/5 21/11/5
f 36/12/6 34/5/6 19/7/6
f 31/13/7 24/14/7 32/8/7
f 36/12/8 35/15/8 22/16/8
f 30/9/9 28/1/9 21/11/9
f 26/2/10 36/12/10 22/16/10
f 15/17/11 2/18/11 23/19/11
f 22/16/12 13/20/12 25/21/12
f 12/22/13 27/4/13 4/23/13
f 37/24/14 24/14/14 20/25/14
f 18/10/15 5/26/15 31/13/15
f 35/15/16 19/7/16 8/27/16
f 34/5/17 15/17/17 23/19/17
f 22/16/18 25/21/18 26/2/18
f 37/24/19 10/28/19 24/14/19
f 21/11/20 12/22/20 29/29/20
f 2/30/21 15/31/21 16/32/21
f 34/5/22 7/33/22 15/31/22
f 32/8/23 10/34/23 6/35/23
f 13/20/24 35/15/24 8/27/24
f 36/12/25 14/36/25 7/37/25
f 17/3/26 4/23/26 27/4/26
f 5/26/27 29/29/27 12/22/27
f 21/11/28 29/29/28 30/9/28
f 8/27/29 33/6/29 16/32/29
f 16/32/30 7/37/30 8/27/30
f 23/19/31 16/32/31 33/6/31
f 28/1/32 11/38/32 3/39/32
f 4/23/33 25/21/33 13/20/33
f 9/40/34 31/13/34 5/26/34
f 13/20/35 3/39/35 4/23/35
f 30/9/36 29/29/36 18/10/36
f 30/9/37 6/41/37 11/42/37
f 18/10/38 31/13/38 32/8/38
f 11/42/39 5/26/39 12/22/39
f 13/20/40 22/16/40 35/15/40
f 23/19/41 33/6/41 34/5/41
f 10/28/42 1/43/42 9/40/42
f 5/26/43 18/10/43 29/29/43
f 19/7/44 35/15/44 36/12/44
f 8/27/45 19/7/45 33/6/45
f 6/35/46 9/40/46 5/26/46
f 32/8/47 24/14/47 10/34/47
f 25/21/48 17/3/48 26/2/48
f 12/22/49 21/11/49 27/4/49
f 2/18/50 16/32/50 23/19/50
f 26/2/51 3/44/51 14/45/51
f 37/24/52 9/40/52 1/46/52
f 9/40/53 20/25/53 31/13/53
f 4/23/54 17/3/54 25/21/54
f 8/27/55 14/45/55 13/20/55
f 3/39/56 12/22/56 4/23/56
f 28/1/57 3/44/57 26/2/57
f 32/8/58 6/41/58 30/9/58
f 36/12/59 7/33/59 34/5/59
f 31/13/60 20/25/60 24/14/60
f 30/9/61 11/38/61 28/1/61
f 26/2/62 14/36/62 36/12/62
f 37/24/63 1/47/63 10/28/63
f 16/32/64 15/31/64 7/37/64
f 13/20/65 14/45/65 3/39/65
f 11/42/66 6/35/66 5/26/66
f 6/35/67 10/28/67 9/40/67
f 37/24/68 20/25/68 9/40/68
f 8/27/69 7/37/69 14/45/69
f 3/39/70 11/42/70 12/22/70
