# Blender v2.92.0 OBJ File: 'algae.blend'
# www.blender.org
mtllib 152.mtl
o algae_cube_Cube
v -0.003410 0.079414 -1.911964
v -0.003545 0.078222 1.910443
v -0.004576 0.075938 -0.000000
v -0.004075 -0.076014 -0.000000
v -0.003419 -0.074921 -0.953174
v -0.004082 0.078761 -0.955564
v -0.004500 0.076584 0.970524
v -0.004665 -0.075006 0.969539
v -0.004662 -0.075431 -1.430227
v -0.004302 0.079373 -1.433934
v -0.003683 0.077439 -0.460632
v -0.004336 -0.075327 -0.460001
v -0.003680 -0.077646 0.485600
v -0.003376 0.078346 0.485825
v -0.003905 0.076554 1.437654
v -0.003432 -0.074905 1.436131
v 0.004427 -0.037255 0.000000
v 0.003631 -0.037560 -0.936153
v 0.004592 -0.041110 0.953325
v 0.004575 -0.039549 -1.405161
v 0.003846 -0.037361 -0.451641
v 0.003265 -0.037088 0.476015
v 0.003697 -0.036971 1.410231
v 0.003708 0.040747 -1.405746
v 0.003549 -0.038782 0.238140
v 0.003856 0.039174 0.238171
v 0.004526 -0.037747 -0.225849
v 0.003627 0.039827 -0.226006
v 0.003269 -0.037165 -0.693823
v 0.004507 0.040220 -0.694532
v 0.004281 -0.039296 -1.170866
v 0.003292 0.038709 -1.170635
v 0.004345 0.039554 -1.625769
v 0.004209 -0.040315 1.182434
v 0.003273 0.039749 1.182202
v 0.003884 -0.038224 0.714286
v 0.004272 0.037980 0.714229
v 0.003550 -0.076306 -1.543367
v 0.004558 0.002240 -1.505248
vt 0.643463 0.399518
vt 0.608433 0.399032
vt 0.627218 0.287293
vt 0.644229 0.287478
vt 0.537200 0.398044
vt 0.538232 0.286325
vt 0.555494 0.286513
vt 0.714776 0.400507
vt 0.678809 0.400008
vt 0.697735 0.288059
vt 0.661241 0.287663
vt 0.572481 0.398533
vt 0.715365 0.288251
vt 0.732449 0.400752
vt 0.573425 0.286708
vt 0.591356 0.286903
vt 0.522054 -0.211154
vt 0.483530 0.675856
vt 0.520970 0.286138
vt 0.592689 0.011366
vt 0.609287 0.287098
vt 0.662490 0.012024
vt 0.628508 0.011703
vt 0.741032 0.345449
vt 0.732994 0.288443
vt 0.698940 0.012367
vt 0.556870 0.011028
vt 0.749097 0.400983
vt 1.051103 0.015687
vt 0.731277 0.678201
vt 0.679488 0.287861
vt 0.204504 0.007695
vt 0.518449 0.676186
vt 0.522387 0.010703
vt 0.556709 -0.210826
vt 0.734882 -0.209139
vt 0.695884 0.677866
vt 0.592707 -0.210485
vt 0.553104 0.676514
vt 0.662857 -0.209821
vt 0.625100 0.677196
vt 0.734157 0.012699
vt 0.589102 0.676855
vt 0.699490 -0.209474
vt 0.659252 0.677519
vt 0.766669 0.678536
vt 0.770274 -0.208804
vt 0.741549 0.234612
vt 0.628705 -0.210144
vn 1.0000 0.0090 -0.0005
vn 0.9999 0.0116 0.0004
vn 0.9999 0.0117 0.0016
vn 1.0000 -0.0034 -0.0025
vn 0.9999 0.0116 -0.0030
vn 0.9999 0.0104 0.0021
vn 0.9999 0.0127 0.0019
vn 1.0000 -0.0051 -0.0026
vn 1.0000 -0.0026 0.0019
vn 0.9999 -0.0106 -0.0009
vn 0.9977 0.0671 -0.0010
vn 0.9857 -0.1683 0.0024
vn 0.9745 -0.2243 -0.0009
vn 0.9999 0.0108 0.0044
vn 0.9823 -0.1872 0.0041
vn 0.9639 -0.2662 -0.0061
vn 0.9790 0.2037 0.0018
vn 0.9979 0.0622 0.0191
vn 1.0000 -0.0039 0.0012
vn 0.9999 0.0148 0.0028
vn 0.9777 -0.2102 -0.0025
vn -1.0000 -0.0031 0.0008
vn 0.9799 0.1997 -0.0012
vn 0.9833 0.1822 -0.0002
vn 0.9786 -0.2058 0.0031
vn 0.9793 0.2025 0.0030
vn 0.9768 -0.2143 0.0009
vn 0.9826 -0.1856 0.0017
vn 0.9999 -0.0160 -0.0024
vn 0.9724 -0.2333 -0.0025
vn -1.0000 -0.0031 0.0026
vn 0.9834 -0.1815 0.0049
vn 0.9785 0.2062 0.0026
vn 0.9814 -0.1917 -0.0014
vn 0.9744 -0.2247 -0.0023
vn -1.0000 0.0020 0.0008
vn 0.9999 -0.0160 0.0015
vn 0.9764 0.2162 -0.0002
vn 0.9999 0.0127 0.0027
vn -1.0000 0.0043 -0.0019
vn 0.9855 -0.1696 -0.0034
vn 0.9999 0.0117 0.0021
vn -1.0000 0.0023 -0.0019
vn 0.9825 -0.1862 0.0018
vn 1.0000 -0.0051 -0.0030
vn 0.9650 -0.2623 0.0025
vn -1.0000 -0.0043 0.0026
vn 0.9998 -0.0030 -0.0202
vn 0.9999 -0.0106 -0.0046
vn 0.9787 0.2055 0.0035
vn 1.0000 -0.0039 0.0037
vn -0.9758 -0.2075 -0.0692
vn 0.9777 -0.2100 -0.0033
vn 0.9872 -0.1519 0.0493
vn 0.9789 0.2043 0.0017
vn 0.9793 0.2024 -0.0034
vn 0.9528 -0.2952 0.0714
vn 0.9682 -0.2503 0.0015
vn 0.9768 -0.2143 0.0022
vn -1.0000 0.0011 -0.0020
vn -1.0000 -0.0033 0.0006
vn 0.9749 0.2225 -0.0002
vn 0.9803 0.1973 -0.0031
vn 0.9769 0.2135 0.0013
vn 0.9999 0.0108 0.0012
vn 0.9792 0.2028 0.0020
vn 0.9829 0.1840 -0.0004
vn -1.0000 0.0011 0.0013
vn -1.0000 -0.0033 0.0025
vn -1.0000 -0.0043 0.0008
vn -1.0000 0.0023 0.0005
vn 0.9880 -0.1469 -0.0472
vn -1.0000 0.0020 -0.0023
usemtl algae_green
s off
f 28/1/1 26/2/1 17/3/1
f 17/3/2 27/4/2 28/1/2
f 35/5/3 34/6/3 19/7/3
f 32/8/4 30/9/4 18/10/4
f 28/1/5 27/4/5 21/11/5
f 37/12/6 35/5/6 19/7/6
f 31/13/7 24/14/7 32/8/7
f 37/12/8 36/15/8 22/16/8
f 30/9/9 28/1/9 21/11/9
f 26/2/10 37/12/10 22/16/10
f 15/17/11 2/18/11 23/19/11
f 22/16/12 13/20/12 25/21/12
f 12/22/13 27/4/13 4/23/13
f 39/24/14 24/14/14 20/25/14
f 18/10/15 5/26/15 31/13/15
f 36/15/16 19/7/16 8/27/16
f 33/28/17 1/29/17 10/30/17
f 35/5/18 15/17/18 23/19/18
f 22/16/19 25/21/19 26/2/19
f 24/14/20 39/24/20 33/28/20
f 21/11/21 12/22/21 29/31/21
f 2/32/22 15/33/22 16/34/22
f 35/5/23 7/35/23 15/33/23
f 32/8/24 10/36/24 6/37/24
f 13/20/25 36/15/25 8/27/25
f 37/12/26 14/38/26 7/39/26
f 17/3/27 4/23/27 27/4/27
f 5/26/28 29/31/28 12/22/28
f 21/11/29 29/31/29 30/9/29
f 8/27/30 34/6/30 16/34/30
f 15/33/31 8/27/31 16/34/31
f 23/19/32 16/34/32 34/6/32
f 28/1/33 11/40/33 3/41/33
f 4/23/34 25/21/34 13/20/34
f 9/42/35 31/13/35 5/26/35
f 14/43/36 4/23/36 13/20/36
f 30/9/37 29/31/37 18/10/37
f 30/9/38 6/44/38 11/45/38
f 18/10/39 31/13/39 32/8/39
f 11/45/40 5/26/40 12/22/40
f 13/20/41 22/16/41 36/15/41
f 23/19/42 34/6/42 35/5/42
f 10/30/43 1/46/43 9/42/43
f 5/26/44 18/10/44 29/31/44
f 19/7/45 36/15/45 37/12/45
f 8/27/46 19/7/46 34/6/46
f 6/37/47 9/42/47 5/26/47
f 1/47/48 39/24/48 38/48/48
f 20/25/49 38/48/49 39/24/49
f 32/8/50 24/14/50 10/36/50
f 25/21/51 17/3/51 26/2/51
f 9/42/52 1/46/52 38/48/52
f 12/22/53 21/11/53 27/4/53
f 2/18/54 16/34/54 23/19/54
f 10/30/55 24/14/55 33/28/55
f 26/2/56 3/49/56 14/43/56
f 38/48/57 20/25/57 9/42/57
f 9/42/58 20/25/58 31/13/58
f 4/23/59 17/3/59 25/21/59
f 7/39/60 13/20/60 8/27/60
f 3/41/61 12/22/61 4/23/61
f 28/1/62 3/49/62 26/2/62
f 32/8/63 6/44/63 30/9/63
f 37/12/64 7/35/64 35/5/64
f 31/13/65 20/25/65 24/14/65
f 30/9/66 11/40/66 28/1/66
f 26/2/67 14/38/67 37/12/67
f 15/33/68 7/39/68 8/27/68
f 14/43/69 3/41/69 4/23/69
f 11/45/70 6/37/70 5/26/70
f 6/37/71 10/30/71 9/42/71
f 1/47/72 33/28/72 39/24/72
f 7/39/73 14/43/73 13/20/73
f 3/41/40 11/45/40 12/22/40
