# Blender v2.92.0 OBJ File: 'algae.blend'
# www.blender.org
mtllib 156.mtl
o algae_cube_Cube
v -0.005094 0.085383 1.266508
v 0.004599 0.086610 1.266508
v 0.005324 -0.081276 1.266508
v -0.005057 -0.000377 0.644092
v -0.004999 -0.078237 0.954123
v 0.005182 0.003535 0.954123
v -0.003594 -0.041568 1.266508
v -0.004770 -0.041267 0.954123
v -0.005214 0.043506 1.266508
v 0.003737 0.043464 1.266508
v -0.004686 0.040313 0.644092
v -0.004753 0.000318 0.799107
v -0.005010 -0.037876 0.799107
v 0.005130 0.042083 0.799107
v -0.004830 0.081614 0.483069
v -0.004908 0.041289 0.483069
v 0.003669 0.084832 1.110315
v -0.003525 0.001637 1.110315
v -0.003709 -0.043353 1.110315
v 0.003727 0.043924 1.110315
v 0.003499 0.085281 1.040029
v -0.005232 -0.079260 1.040029
v -0.003585 0.001937 1.040029
v 0.005066 0.002485 1.040029
v 0.005133 -0.039816 1.040029
v -0.003694 0.043998 1.040029
v 0.005151 -0.081807 1.188412
v 0.005161 -0.039209 1.188412
v 0.003541 0.042781 1.188412
v -0.003630 0.083979 0.876615
v 0.004912 0.003477 0.876615
v -0.005159 -0.038446 0.876615
v -0.003522 0.041855 0.876615
v 0.004934 0.041793 0.876615
v 0.004920 0.082285 0.721599
v 0.004872 0.043467 0.721599
v -0.003413 0.079266 0.721599
v -0.004986 0.040209 0.563580
vt 0.539505 -0.100062
vt 0.522306 -0.043262
vt 0.530790 -0.155608
vt 0.512547 -0.155780
vt 0.495428 0.232292
vt 0.486742 0.232211
vt 0.494880 0.285854
vt 0.511404 0.286034
vt 0.510847 0.342596
vt 0.520425 0.342715
vt 0.529067 0.342822
vt 0.487520 -0.043590
vt 0.522387 0.010703
vt 0.512833 0.010613
vt 0.530937 -0.043181
vt 0.539569 -0.043099
vt 0.528547 0.397923
vt 0.537200 0.398044
vt 0.545853 0.398164
vt 0.545354 0.453291
vt 0.509763 0.452745
vt 0.501906 0.452624
vt 0.502458 0.397562
vt 0.493740 0.397441
vt 0.274400 0.228952
vt 0.203620 0.227865
vt 0.204504 0.007695
vt 0.504913 -0.043426
vt 0.504805 -0.100390
vt 0.512642 -0.100316
vt 0.530718 -0.211072
vt 0.548045 -0.210908
vt 0.574708 -0.210655
vt 0.556749 -0.155362
vt 0.574726 -0.155192
vt 0.565737 -0.155277
vt 0.556789 -0.099899
vt 0.275289 0.008365
vt 0.571103 0.676685
vt 0.544440 0.676432
vt 0.485022 0.397320
vt 0.484448 0.452356
vt 0.483530 0.675856
vt 0.487262 -0.156019
vn -0.9998 0.0199 0.0052
vn -0.9977 -0.0670 0.0027
vn -1.0000 0.0002 0.0002
vn -0.9368 0.3498 0.0030
vn 0.9895 0.1390 0.0392
vn -1.0000 -0.0016 0.0009
vn -0.0609 0.9981 0.0117
vn 0.9874 0.1531 0.0392
vn -0.9994 0.0062 0.0331
vn 0.9727 0.2322 0.0036
vn -0.9979 0.0512 0.0388
vn -1.0000 0.0067 0.0017
vn 0.9242 0.3820 0.0038
vn 0.9166 0.3999 0.0003
vn -0.9788 0.2050 0.0007
vn 1.0000 0.0014 0.0032
vn 1.0000 -0.0006 0.0031
vn 0.9745 0.2243 0.0020
vn 1.0000 -0.0012 0.0029
vn 0.8072 0.5903 0.0017
vn -0.0000 0.0000 1.0000
vn 0.9962 -0.0859 0.0118
vn -1.0000 0.0041 0.0009
vn -1.0000 -0.0038 -0.0010
vn -1.0000 -0.0026 -0.0013
vn 0.9980 0.0633 -0.0026
vn 1.0000 0.0026 0.0034
vn -0.9998 0.0205 0.0061
vn -1.0000 0.0020 0.0014
vn -0.9525 0.3045 0.0032
vn -1.0000 0.0091 0.0019
vn -0.9997 0.0230 0.0049
vn -0.9998 0.0206 0.0049
vn -0.9879 -0.1515 -0.0326
vn 1.0000 -0.0007 -0.0007
vn 1.0000 -0.0020 -0.0014
vn 0.9977 -0.0675 -0.0066
vn 1.0000 -0.0061 -0.0024
vn -1.0000 -0.0026 -0.0010
vn 1.0000 -0.0041 -0.0009
vn -1.0000 -0.0026 -0.0034
vn 0.9788 -0.2050 -0.0007
vn -0.9166 -0.3999 -0.0003
vn 0.9998 -0.0200 -0.0001
vn 1.0000 0.0014 -0.0060
vn 0.9525 -0.3045 -0.0032
vn 1.0000 -0.0091 -0.0019
vn -0.9727 -0.2322 -0.0036
vn 1.0000 -0.0067 -0.0017
vn 0.0609 -0.9981 -0.0117
vn 0.9999 -0.0100 -0.0026
vn 0.9999 -0.0110 -0.0024
vn 0.9994 -0.0062 -0.0331
vn 1.0000 -0.0002 -0.0002
vn 1.0000 0.0016 -0.0009
vn -0.9941 -0.1047 -0.0295
vn -0.9942 -0.1047 -0.0264
vn 0.9368 -0.3498 -0.0030
vn -0.9242 -0.3820 -0.0038
vn 1.0000 -0.0006 -0.0004
vn -1.0000 0.0012 -0.0032
vn -0.9748 0.2216 -0.0266
vn -0.9942 -0.1040 -0.0266
vn -0.1256 0.9920 -0.0105
vn -0.9998 -0.0190 -0.0068
vn -1.0000 0.0029 -0.0067
vn 0.9994 0.0177 -0.0300
vn 1.0000 0.0037 0.0013
vn -0.9619 0.2680 -0.0549
vn -1.0000 0.0007 0.0007
usemtl algae_green
s off
f 12/1/1 8/2/1 33/3/1
f 26/4/2 27/5/2 3/6/2
f 27/5/3 28/7/3 25/8/3
f 24/9/4 6/10/4 31/11/4
f 27/5/5 25/8/5 7/12/5
f 25/8/6 24/9/6 31/11/6
f 5/13/7 22/14/7 3/6/7
f 25/8/8 31/11/8 7/12/8
f 8/2/9 5/13/9 3/6/9
f 32/15/10 8/2/10 13/16/10
f 8/2/11 3/6/11 33/3/11
f 13/16/12 8/2/12 12/1/12
f 34/17/13 14/18/13 36/19/13
f 35/20/14 21/21/14 17/22/14
f 20/23/15 29/24/15 10/25/15
f 35/20/16 17/22/16 20/23/16
f 31/11/17 34/17/17 10/25/17
f 34/17/18 36/19/18 10/25/18
f 36/19/19 35/20/19 20/23/19
f 20/23/20 10/25/20 36/19/20
f 10/25/21 2/26/21 1/27/21
f 31/11/22 10/25/22 7/12/22
f 19/28/23 18/29/23 23/30/23
f 26/4/24 33/3/24 7/12/24
f 33/3/25 30/31/25 37/32/25
f 27/5/26 33/3/26 3/6/26
f 19/28/27 23/30/27 26/4/27
f 37/32/28 15/33/28 11/34/28
f 15/33/29 16/35/29 11/34/29
f 16/35/30 38/36/30 11/34/30
f 11/34/31 4/37/31 12/1/31
f 37/32/32 11/34/32 33/3/32
f 11/34/33 12/1/33 33/3/33
f 1/27/21 9/38/21 10/25/21
f 9/38/21 7/12/21 10/25/21
f 27/5/34 7/12/34 33/3/34
f 7/12/35 19/28/35 26/4/35
f 16/35/36 15/39/36 11/34/36
f 15/39/37 37/40/37 26/4/37
f 11/34/38 15/39/38 26/4/38
f 30/31/39 33/3/39 26/4/39
f 23/30/40 18/29/40 19/28/40
f 26/4/41 23/30/41 19/28/41
f 10/41/42 29/24/42 20/23/42
f 17/22/43 21/21/43 35/20/43
f 10/41/44 20/23/44 2/42/44
f 20/23/45 17/22/45 2/42/45
f 11/34/46 38/36/46 16/35/46
f 12/1/47 4/37/47 11/34/47
f 8/2/48 32/15/48 13/16/48
f 8/2/49 13/16/49 12/1/49
f 3/6/50 22/14/50 5/13/50
f 8/2/51 12/1/51 26/4/51
f 12/1/52 11/34/52 26/4/52
f 3/6/53 5/13/53 8/2/53
f 25/8/54 28/7/54 27/5/54
f 24/9/55 25/8/55 31/11/55
f 25/8/56 27/5/56 26/4/56
f 31/11/57 25/8/57 26/4/57
f 31/11/58 6/10/58 24/9/58
f 36/19/59 14/18/59 34/17/59
f 36/19/60 34/17/60 31/11/60
f 17/22/61 35/20/61 36/19/61
f 17/22/62 36/19/62 26/4/62
f 36/19/63 31/11/63 26/4/63
f 1/43/64 2/42/64 17/22/64
f 7/12/65 9/44/65 26/4/65
f 9/44/66 1/43/66 26/4/66
f 3/6/67 8/2/67 26/4/67
f 37/40/68 30/31/68 26/4/68
f 1/43/69 17/22/69 26/4/69
f 19/28/70 7/12/70 26/4/70
