# Blender v2.92.0 OBJ File: 'algae.blend'
# www.blender.org
mtllib 169.mtl
o algae_cube_Cube
v -0.003867 0.089017 -1.780294
v -0.004309 0.082424 1.780294
v -0.004204 -0.061143 -1.780294
v -0.004064 -0.069148 1.780294
v -0.003382 0.061034 -0.000000
v -0.003340 -0.061404 -0.000000
v -0.003580 -0.058120 -0.890147
v -0.003361 0.077380 -0.890147
v -0.003394 0.066539 0.905381
v -0.003482 -0.058616 0.905381
v -0.003563 -0.063302 -1.335221
v -0.004036 0.083927 -1.335221
v -0.003730 0.068875 -0.429473
v -0.003639 -0.058563 -0.429473
v -0.003542 -0.069949 0.452691
v -0.003616 0.073369 0.452691
v -0.003882 0.069221 1.341183
v -0.003725 -0.060591 1.341183
v 0.003285 -0.022916 0.000000
v 0.003445 -0.025270 -0.890147
v 0.003480 -0.043126 0.905381
v 0.003496 -0.036765 -1.335221
v 0.003797 -0.023627 -0.429473
v 0.003588 -0.022314 0.452691
v 0.003517 -0.023291 1.341183
v 0.003529 0.047514 -1.335221
v 0.003558 -0.030383 0.226345
v 0.003650 0.036438 0.226345
v 0.003485 -0.025352 -0.214737
v 0.003410 0.039598 -0.214737
v 0.003649 -0.022922 -0.659810
v 0.003574 0.042231 -0.659810
v 0.003519 -0.034634 -1.112684
v 0.003977 0.036010 -1.112684
v 0.003587 0.042313 -1.544846
v 0.003720 -0.039887 1.123282
v 0.003925 0.041370 1.123282
v 0.003775 -0.028184 0.679036
v 0.003500 0.031206 0.679036
v 0.004045 -0.027589 1.560738
v 0.003926 0.046142 1.560738
v 0.004087 -0.068704 -1.440033
v 0.003753 0.011861 -1.440033
v 0.004120 0.009659 -1.662570
vt 0.643463 0.399518
vt 0.608433 0.399032
vt 0.627218 0.287293
vt 0.644229 0.287478
vt 0.537200 0.398044
vt 0.538232 0.286325
vt 0.555494 0.286513
vt 0.714776 0.400507
vt 0.678809 0.400008
vt 0.697735 0.288059
vt 0.661241 0.287663
vt 0.572481 0.398533
vt 0.732994 0.288443
vt 0.732449 0.400752
vt 0.573425 0.286708
vt 0.591356 0.286903
vt 0.502458 0.397562
vt 0.503577 0.285949
vt 0.520970 0.286138
vt 0.592689 0.011366
vt 0.609287 0.287098
vt 0.662490 0.012024
vt 0.628508 0.011703
vt 0.741032 0.345449
vt 0.698940 0.012367
vt 0.715365 0.288251
vt 0.556870 0.011028
vt 0.749097 0.400983
vt 1.051103 0.015687
vt 0.731277 0.678201
vt 0.487643 0.010376
vt 0.518449 0.676186
vt 0.522387 0.010703
vt 0.679488 0.287861
vt 0.556709 -0.210826
vt 0.734882 -0.209139
vt 0.695884 0.677866
vt 0.204504 0.007695
vt 0.522054 -0.211154
vt 0.758683 0.345668
vt 0.769373 0.013031
vt 0.766669 0.678536
vt 0.592707 -0.210485
vt 0.553104 0.676514
vt 0.770274 -0.208804
vt 0.741549 0.234612
vt 0.734157 0.012699
vt 0.662857 -0.209821
vt 0.625100 0.677196
vt 0.699490 -0.209474
vt 0.659252 0.677519
vt 0.628705 -0.210144
vt 0.589102 0.676855
vt 0.483530 0.675856
vn 1.0000 -0.0040 -0.0006
vn 1.0000 0.0012 0.0009
vn 1.0000 -0.0025 -0.0011
vn 1.0000 -0.0052 0.0010
vn 1.0000 0.0012 0.0015
vn 1.0000 -0.0030 -0.0009
vn 1.0000 -0.0004 -0.0020
vn 1.0000 0.0046 -0.0007
vn 1.0000 0.0048 0.0004
vn 1.0000 0.0002 0.0003
vn 1.0000 0.0016 -0.0024
vn 0.9890 -0.1480 0.0051
vn 1.0000 -0.0061 0.0001
vn 0.9803 -0.1974 -0.0020
vn 1.0000 -0.0004 0.0023
vn 0.9778 -0.2091 0.0091
vn 0.9118 -0.4098 -0.0259
vn 0.9856 0.1689 0.0023
vn -1.0000 -0.0012 -0.0008
vn 1.0000 -0.0014 -0.0001
vn 1.0000 0.0059 0.0001
vn 0.9781 -0.2082 -0.0013
vn 0.9616 0.2744 -0.0006
vn 0.9855 0.1695 0.0010
vn 0.9653 0.2609 -0.0069
vn 0.9976 -0.0022 -0.0692
vn 0.9802 -0.1979 0.0048
vn 0.9840 0.1779 0.0022
vn 0.9855 -0.1696 0.0028
vn 0.9796 -0.2008 -0.0001
vn 1.0000 0.0011 -0.0006
vn 0.9374 -0.3482 -0.0011
vn -1.0000 0.0007 -0.0006
vn 0.9970 0.0758 -0.0165
vn -0.6039 -0.7971 -0.0030
vn 0.9816 -0.1906 0.0154
vn 0.9643 0.2649 0.0041
vn 0.9809 -0.1945 -0.0032
vn 0.9650 -0.2624 0.0031
vn -1.0000 -0.0003 -0.0005
vn 1.0000 0.0011 -0.0009
vn 0.9817 -0.1906 -0.0061
vn 0.9745 0.2245 0.0049
vn 1.0000 -0.0065 0.0006
vn -1.0000 -0.0007 -0.0001
vn 0.9890 -0.1480 -0.0047
vn 1.0000 -0.0025 0.0011
vn 0.9969 -0.0741 -0.0259
vn 0.9779 -0.2091 0.0013
vn 1.0000 0.0046 0.0016
vn 0.9121 -0.4099 0.0051
vn -1.0000 0.0016 -0.0001
vn 0.9999 0.0108 0.0015
vn 0.9993 0.0016 0.0372
vn 1.0000 0.0041 0.0044
vn 0.9791 0.2034 0.0085
vn 1.0000 -0.0014 -0.0012
vn -1.0000 0.0022 -0.0004
vn 0.9781 -0.2082 -0.0003
vn 1.0000 0.0041 0.0016
vn 0.9781 -0.2083 -0.0033
vn 0.9791 0.2034 -0.0048
vn 0.9740 0.2263 -0.0057
vn 0.9630 -0.2562 0.0835
vn 0.9664 -0.2571 0.0024
vn 0.9855 -0.1696 -0.0068
vn -1.0000 -0.0005 0.0001
vn -1.0000 -0.0003 0.0007
vn 0.9576 0.2880 0.0015
vn 0.9831 0.1832 -0.0016
vn 0.9733 0.2295 -0.0062
vn 1.0000 -0.0065 -0.0000
vn 0.9683 0.2496 0.0018
vn 0.9839 0.1789 0.0024
vn 0.9561 0.2930 -0.0032
vn -1.0000 -0.0016 -0.0009
vn -1.0000 -0.0012 -0.0011
vn -1.0000 -0.0005 -0.0005
vn -1.0000 0.0016 -0.0008
vn -1.0000 -0.0032 0.0015
vn -1.0000 -0.0032 0.0014
vn -1.0000 0.0007 0.0005
vn -1.0000 -0.0007 0.0008
usemtl algae_green
s off
f 30/1/1 28/2/1 19/3/1
f 19/3/2 29/4/2 30/1/2
f 37/5/3 36/6/3 21/7/3
f 34/8/4 32/9/4 20/10/4
f 30/1/5 29/4/5 23/11/5
f 39/12/6 37/5/6 21/7/6
f 34/8/7 22/13/7 26/14/7
f 39/12/8 38/15/8 24/16/8
f 32/9/9 30/1/9 23/11/9
f 28/2/10 39/12/10 24/16/10
f 41/17/11 40/18/11 25/19/11
f 24/16/12 15/20/12 27/21/12
f 37/5/13 41/17/13 25/19/13
f 14/22/14 29/4/14 6/23/14
f 43/24/15 26/14/15 22/13/15
f 20/10/16 7/25/16 33/26/16
f 38/15/17 21/7/17 10/27/17
f 35/28/18 1/29/18 12/30/18
f 4/31/19 17/32/19 18/33/19
f 24/16/20 27/21/20 28/2/20
f 26/14/21 43/24/21 35/28/21
f 23/11/22 14/22/22 31/34/22
f 37/5/23 9/35/23 17/32/23
f 34/8/24 12/36/24 8/37/24
f 2/38/25 41/17/25 17/39/25
f 44/40/26 3/41/26 1/42/26
f 15/20/27 38/15/27 10/27/27
f 39/12/28 16/43/28 9/44/28
f 19/3/29 6/23/29 29/4/29
f 7/25/30 31/34/30 14/22/30
f 23/11/31 31/34/31 32/9/31
f 10/27/32 36/6/32 18/33/32
f 18/33/33 9/44/33 10/27/33
f 35/28/34 44/40/34 1/45/34
f 3/41/35 42/46/35 11/47/35
f 25/19/36 18/33/36 36/6/36
f 30/1/37 13/48/37 5/49/37
f 6/23/38 27/21/38 15/20/38
f 11/47/39 33/26/39 7/25/39
f 15/20/40 5/49/40 6/23/40
f 32/9/41 31/34/41 20/10/41
f 18/33/42 25/19/42 40/18/42
f 32/9/43 8/50/43 13/51/43
f 20/10/44 33/26/44 34/8/44
f 13/51/45 7/25/45 14/22/45
f 15/20/46 24/16/46 38/15/46
f 25/19/47 36/6/47 37/5/47
f 44/40/48 42/46/48 3/41/48
f 7/25/49 20/10/49 31/34/49
f 21/7/50 38/15/50 39/12/50
f 10/27/51 21/7/51 36/6/51
f 8/37/52 11/47/52 7/25/52
f 35/28/53 43/24/53 44/40/53
f 41/17/54 4/31/54 40/18/54
f 22/13/55 42/46/55 43/24/55
f 34/8/56 26/14/56 12/36/56
f 27/21/57 19/3/57 28/2/57
f 3/41/58 12/30/58 1/42/58
f 14/22/59 23/11/59 29/4/59
f 44/40/60 43/24/60 42/46/60
f 40/18/61 4/31/61 18/33/61
f 12/30/62 26/14/62 35/28/62
f 28/2/63 5/52/63 16/53/63
f 42/46/64 22/13/64 11/47/64
f 11/47/65 22/13/65 33/26/65
f 6/23/66 19/3/66 27/21/66
f 10/27/67 16/53/67 15/20/67
f 5/49/68 14/22/68 6/23/68
f 30/1/69 5/52/69 28/2/69
f 34/8/70 8/50/70 32/9/70
f 39/12/71 9/35/71 37/5/71
f 34/8/72 33/26/72 22/13/72
f 32/9/73 13/48/73 30/1/73
f 28/2/74 16/43/74 39/12/74
f 37/5/75 17/39/75 41/17/75
f 4/31/76 2/38/76 17/32/76
f 18/33/77 17/32/77 9/44/77
f 15/20/78 16/53/78 5/49/78
f 13/51/79 8/37/79 7/25/79
f 8/37/80 12/30/80 11/47/80
f 41/17/54 2/54/54 4/31/54
f 3/41/81 11/47/81 12/30/81
f 10/27/82 9/44/82 16/53/82
f 5/49/83 13/51/83 14/22/83
