# Blender v2.92.0 OBJ File: 'algae.blend'
# www.blender.org
mtllib 188.mtl
o algae_cube_Cube
v -0.005448 0.071184 -1.076436
v -0.003750 0.072979 1.465923
v 0.005354 0.071794 1.078626
v -0.003467 -0.078773 -1.467633
v 0.005384 -0.078100 -1.059179
v 0.004350 -0.076945 1.503200
v -0.002962 0.076422 0.133173
v 0.002940 -0.003177 1.299124
v -0.004703 -0.077955 -0.869084
v 0.005028 0.001218 -0.650401
v -0.003162 -0.001669 -0.649910
v 0.004959 0.071898 0.453874
v 0.004392 0.072763 -1.166589
v -0.002940 -0.077342 -0.448958
v 0.002985 -0.003321 -0.306285
v -0.004490 -0.002551 -0.318774
v -0.004805 -0.073847 0.123214
v -0.003120 -0.001170 0.326812
v -0.004856 0.072793 0.539680
v 0.003339 0.071395 0.842582
v -0.005411 -0.077978 0.736016
v -0.003094 -0.003170 0.968846
v 0.004762 -0.003500 0.984328
v -0.002727 -0.041189 -1.363031
v -0.003410 -0.039675 1.217747
v 0.005061 -0.041406 -0.525893
v 0.002965 -0.036056 0.721872
v -0.003036 -0.038234 -0.380793
v -0.003149 -0.040503 0.255127
v -0.004620 -0.038963 0.871583
v 0.004718 -0.042295 1.094302
v 0.002700 0.035920 -1.353150
v -0.003198 0.036257 0.067889
v -0.003198 0.037208 -0.578620
v 0.004950 0.035542 0.556259
v 0.004736 0.034024 -1.066390
v -0.005078 0.035288 -0.207805
v 0.003059 0.037107 0.263233
v -0.002940 0.035934 1.038466
v -0.005048 -0.078450 -0.066958
v -0.003102 -0.002669 0.159634
v 0.005000 -0.000020 0.164531
v 0.004725 -0.039564 0.274382
v -0.003036 0.037017 0.230638
v 0.003776 -0.077289 0.014152
v -0.005006 0.000351 -0.155010
v 0.003001 -0.041125 -0.084198
v 0.003136 0.075673 -0.623558
v 0.005065 -0.078508 -0.250280
v -0.003204 -0.002047 -0.483286
v 0.004748 -0.042002 -0.364032
v -0.003181 -0.037772 -0.550918
v 0.002867 0.034819 -0.538835
v 0.004640 -0.000383 -0.807488
v -0.004850 -0.039258 -0.922067
v 0.004789 0.037095 -0.914371
v 0.002982 -0.002470 -1.118260
v -0.004548 -0.003025 -1.130615
v -0.005238 0.035388 -1.016347
v 0.004842 -0.002718 0.823932
v -0.002815 0.073439 0.945066
v -0.002890 0.034373 0.875958
v 0.005024 0.035528 0.713417
v 0.004731 -0.075562 0.708355
v -0.003305 -0.077520 0.347526
v 0.002962 -0.003369 0.499261
v -0.003390 -0.040700 0.413955
v -0.004485 0.075141 1.342895
v 0.003936 -0.074642 1.317311
v -0.003127 -0.001601 1.131181
v -0.003631 -0.037431 1.057131
v 0.004517 -0.041263 1.246429
v 0.003684 0.071585 0.916219
v 0.004782 -0.040670 1.179106
v 0.003275 0.034124 0.998924
v 0.004421 -0.075944 1.422952
v 0.003255 -0.001875 1.217448
v -0.003240 -0.038334 1.144063
v 0.003294 0.036148 1.146749
v 0.005017 -0.003464 0.905573
v 0.002838 -0.077512 0.873820
v -0.005006 0.001300 0.740866
v 0.002811 -0.035319 0.796691
v -0.005170 -0.042245 0.611289
v 0.005152 0.033862 0.636319
v -0.002651 0.075462 0.861676
v 0.005229 0.072644 0.357311
v -0.004987 -0.003614 0.565130
v 0.003180 -0.002702 0.580685
v 0.002959 -0.040898 0.648102
v -0.004751 0.036616 0.678777
v 0.004719 -0.074455 0.621580
v 0.003058 -0.003810 0.418002
v 0.004219 -0.040174 0.511537
v -0.003123 -0.042193 0.335196
v -0.004854 0.034579 0.510237
v 0.003081 0.037905 0.343778
v -0.004430 0.071549 0.600994
v 0.003369 0.071320 0.107526
v -0.002997 -0.003594 0.240415
v 0.004971 -0.040263 0.364593
v 0.003325 0.036442 0.176301
v -0.004745 -0.076317 -0.130018
v 0.004982 -0.000169 0.082728
v -0.004947 -0.038197 -0.028207
v 0.004400 0.035542 -0.009150
v -0.002948 0.036776 0.145897
v 0.004469 0.074584 -0.274770
v -0.004951 -0.000181 -0.078542
v -0.004912 -0.040921 -0.195967
v 0.005009 0.035852 -0.183324
v 0.004899 0.072684 -0.445487
v 0.003287 -0.003521 -0.227294
v 0.003117 -0.041139 -0.159610
v -0.005033 0.075019 -0.177311
v 0.005159 -0.078186 -0.162370
v 0.003217 -0.001523 -0.392898
v -0.002905 -0.037183 -0.459909
v -0.004986 0.035331 -0.293453
v 0.003055 0.035820 -0.460653
v 0.003033 0.071622 -0.695584
v 0.004552 -0.078029 -0.359731
v -0.002960 -0.002376 -0.567252
v 0.005126 -0.041973 -0.438729
v 0.002997 0.034646 -0.625027
v -0.005178 0.071279 -0.350874
v 0.003300 -0.075799 -0.588654
v -0.004433 -0.076604 -0.935786
v -0.004498 -0.041246 -0.839610
v -0.003128 0.037371 -0.662135
v 0.003556 -0.077383 -0.736242
v -0.005047 0.002298 -0.882607
v 0.003207 -0.038082 -0.819974
v -0.004508 -0.037920 -0.991568
v -0.003593 0.034008 -0.819530
v -0.003342 0.071367 -0.756614
v 0.004555 0.074125 -1.254462
v -0.002520 -0.075159 -1.167556
v 0.003290 -0.003375 -1.039919
v -0.003327 -0.038116 -1.123147
v 0.003423 -0.039390 -0.970093
v 0.005508 -0.078599 -0.965593
v 0.003136 -0.002672 -1.203213
v 0.002867 0.036147 -1.271364
v -0.005095 0.036148 -1.102867
v -0.005035 0.071545 -1.006503
vt 0.758446 0.401113
vt 0.760913 -0.208893
vt 1.051103 0.015687
vt 0.522137 -0.155690
vt 0.504805 -0.100390
vt 0.487136 -0.211484
vt 0.520425 0.342715
vt 0.511404 0.286034
vt 0.520970 0.286138
vt 0.768472 0.234866
vt 0.758683 0.345668
vt 0.741297 0.288533
vt 0.537200 0.398044
vt 0.688927 0.234116
vt 0.608854 0.343811
vt 0.662490 0.012024
vt 0.619553 0.011619
vt 0.574762 -0.042767
vt 0.742450 0.012777
vt 0.769592 -0.040929
vt 0.769373 0.013031
vt 0.484448 0.452356
vt 0.485595 0.342283
vt 0.494303 0.342391
vt 0.715066 0.345127
vt 0.697415 0.344909
vt 0.697735 0.288059
vt 0.688612 0.287960
vt 0.706979 0.234286
vt 0.732449 0.400752
vt 0.714776 0.400507
vt 0.724451 0.234451
vt 0.724179 0.288347
vt 0.741032 0.345449
vt 0.732180 0.456158
vt 0.740514 0.456286
vt 0.749345 0.345552
vt 0.742636 -0.041183
vt 0.707880 0.012451
vt 0.708024 -0.041510
vt 0.716704 -0.041428
vt 0.725518 -0.041345
vt 0.725693 -0.098303
vt 0.751147 -0.098063
vt 0.751349 -0.153522
vt 0.760699 -0.153434
vt 0.979769 0.236858
vt 0.539381 -0.210990
vt 0.539443 -0.155526
vt 0.522221 -0.100225
vt 0.504913 -0.043426
vt 0.487520 -0.043590
vt 0.496216 -0.043508
vt 0.504595 -0.211319
vt 0.565767 -0.099814
vt 0.548147 -0.099980
vt 0.548200 -0.043018
vt 0.522306 -0.043262
vt 0.522387 0.010703
vt 0.486742 0.232211
vt 0.504114 0.232374
vt 0.583707 -0.210570
vt 0.583714 -0.155107
vt 0.565737 -0.155277
vt 0.495428 0.232292
vt 0.548045 -0.210908
vt 0.503577 0.285949
vt 0.345181 0.230038
vt 0.537709 0.342929
vt 0.204504 0.007695
vt 0.509763 0.452745
vt 0.510305 0.397670
vt 0.493740 0.397441
vt 0.554017 0.453424
vt 0.519364 0.452892
vt 0.554505 0.398284
vt 0.203620 0.227865
vt 0.545853 0.398164
vt 0.529067 0.342822
vt 0.767796 0.401242
vt 0.759157 0.234778
vt 0.573878 0.233032
vt 0.547348 0.232782
vt 0.582833 0.233116
vt 0.546863 0.286419
vt 0.555494 0.286513
vt 0.564460 0.286610
vt 0.582391 0.286805
vt 0.563970 0.343255
vt 0.617831 0.343922
vt 0.609287 0.287098
vt 0.634547 0.454660
vt 0.634936 0.399399
vt 0.617421 0.399156
vt 0.572947 0.343366
vt 0.581924 0.343477
vt 0.678474 0.455334
vt 0.651622 0.454922
vt 0.687956 0.400135
vt 0.687632 0.455474
vt 0.669663 0.399881
vt 0.678809 0.400008
vt 0.652357 0.344350
vt 0.660874 0.344456
vt 0.670009 0.344569
vt 0.644598 0.233698
vt 0.644229 0.287478
vt 0.652735 0.287570
vt 0.679814 0.234030
vt 0.670701 0.233945
vt 0.581469 0.398658
vt 0.590457 0.398782
vt 0.599445 0.398907
vt 0.679488 0.287861
vt 0.599012 0.454114
vt 0.563016 0.453562
vt 0.698940 0.012367
vt 0.680827 -0.041766
vt 0.671703 -0.041852
vt 0.662579 -0.041939
vt 0.699215 -0.098553
vt 0.690080 -0.098640
vt 0.680944 -0.098726
vt 0.699352 -0.154014
vt 0.671912 -0.154273
vt 0.662673 -0.098899
vt 0.725864 -0.153763
vt 0.708325 -0.153929
vt 0.690331 -0.209561
vt 0.726034 -0.209223
vt 0.672015 -0.209734
vt 0.662765 -0.154360
vt 0.637123 -0.099140
vt 0.645640 -0.099060
vt 0.619590 -0.042344
vt 0.592693 -0.042598
vt 0.637062 -0.042179
vt 0.592689 0.011366
vt 0.610599 0.011534
vt 0.574780 0.011197
vt 0.583728 -0.042683
vt 0.592698 -0.099560
vt 0.610652 -0.099390
vt 0.601675 -0.099475
vt 0.628656 -0.154682
vt 0.619667 -0.154767
vt 0.610679 -0.154852
vt 0.592707 -0.210485
vt 0.628705 -0.210144
vt 0.600322 0.287000
vt 0.500989 0.676021
vt 0.544440 0.676432
vt 0.766669 0.678536
vt 0.483530 0.675856
vt 0.589102 0.676855
vt 0.580102 0.676770
vt 0.625100 0.677196
vt 0.722429 0.678117
vt 0.686726 0.677779
vt 0.535776 0.676350
vn -0.9634 -0.2680 0.0071
vn -1.0000 0.0002 -0.0019
vn 1.0000 -0.0031 -0.0007
vn 0.9992 0.0392 0.0049
vn 1.0000 -0.0096 0.0006
vn -0.9915 0.1298 -0.0060
vn -0.9999 0.0113 0.0030
vn 0.9998 -0.0219 0.0035
vn 1.0000 -0.0062 -0.0024
vn 0.9998 -0.0178 -0.0009
vn 0.9995 -0.0313 -0.0038
vn 0.9977 -0.0674 -0.0061
vn 1.0000 -0.0047 -0.0003
vn 0.9999 -0.0155 -0.0038
vn -0.9999 -0.0117 -0.0013
vn 0.9991 -0.0423 -0.0053
vn 0.9999 0.0133 0.0016
vn 1.0000 -0.0074 -0.0057
vn 0.9998 -0.0151 -0.0093
vn 0.0187 -0.9997 -0.0155
vn -0.9243 -0.3817 -0.0008
vn 1.0000 0.0053 -0.0009
vn -0.9999 -0.0118 -0.0083
vn -0.4673 -0.8839 -0.0193
vn -1.0000 0.0091 -0.0040
vn -0.9326 -0.3607 -0.0078
vn -1.0000 -0.0084 -0.0018
vn -0.9999 -0.0127 -0.0018
vn -0.9995 0.0081 -0.0311
vn -0.9958 0.0863 -0.0311
vn -0.9993 -0.0367 -0.0089
vn -0.9994 -0.0352 -0.0020
vn -0.9972 0.0727 -0.0198
vn 0.9989 0.0408 -0.0217
vn 0.9972 -0.0658 -0.0346
vn -0.9431 0.3179 -0.0974
vn 0.9989 -0.0454 -0.0096
vn 0.9716 0.2367 -0.0026
vn -1.0000 0.0025 -0.0003
vn -1.0000 0.0044 -0.0002
vn -0.9999 0.0109 0.0015
vn 0.7541 -0.6567 -0.0102
vn -1.0000 0.0021 -0.0023
vn -0.9067 -0.4219 -0.0020
vn -1.0000 -0.0012 -0.0018
vn 1.0000 -0.0045 0.0002
vn -1.0000 0.0018 0.0053
vn -0.7945 0.6072 0.0093
vn -1.0000 0.0072 0.0020
vn -0.9999 0.0103 0.0005
vn -1.0000 -0.0035 0.0033
vn -0.9994 0.0334 0.0051
vn -0.9998 0.0175 0.0051
vn -0.0263 0.9996 0.0124
vn -0.9961 -0.0871 0.0165
vn -0.9998 0.0205 0.0051
vn -0.9759 0.2184 0.0034
vn 1.0000 -0.0025 0.0003
vn 1.0000 -0.0044 0.0002
vn -0.7541 0.6567 0.0102
vn -1.0000 0.0073 0.0033
vn -0.9999 0.0148 0.0046
vn 0.9997 0.0182 0.0168
vn -0.9996 -0.0068 0.0281
vn 0.9992 0.0385 0.0043
vn 1.0000 0.0059 -0.0013
vn 0.9994 0.0353 0.0044
vn -0.9999 0.0109 -0.0000
vn -0.4011 0.9160 -0.0005
vn 1.0000 0.0075 0.0028
vn 1.0000 0.0072 0.0028
vn 1.0000 0.0064 0.0040
vn 0.9999 0.0167 0.0028
vn 0.9991 0.0366 0.0234
vn -0.9764 -0.2085 0.0560
vn -0.9997 0.0240 0.0030
vn 0.9994 0.0349 0.0040
vn 0.8500 0.5268 0.0030
vn -1.0000 -0.0032 -0.0005
vn -1.0000 -0.0000 -0.0017
vn 0.9243 0.3817 0.0008
vn 0.9999 0.0117 0.0013
vn 1.0000 0.0019 -0.0009
vn 1.0000 0.0033 -0.0021
vn 0.7342 0.6789 0.0026
vn 0.9988 0.0476 0.0094
vn 0.9993 0.0378 0.0056
vn -0.0838 -0.9964 -0.0127
vn -0.9999 -0.0146 -0.0076
vn 0.9915 -0.1301 0.0085
vn -0.9999 -0.0106 -0.0093
vn -0.9991 -0.0414 -0.0016
vn -0.9995 -0.0317 -0.0053
vn 1.0000 0.0064 -0.0002
vn -1.0000 0.0060 -0.0003
vn 0.9999 -0.0134 0.0011
vn -0.9997 -0.0223 -0.0035
vn 0.5822 -0.8130 0.0051
vn -0.9135 -0.4068 0.0022
vn 1.0000 -0.0033 -0.0012
vn 0.9401 -0.3408 0.0021
vn 0.9417 -0.3365 -0.0045
vn 0.9994 -0.0360 -0.0001
vn 1.0000 -0.0032 -0.0038
vn 0.9997 -0.0245 -0.0007
vn 1.0000 -0.0011 -0.0030
vn -0.9997 -0.0256 -0.0015
vn 0.9998 -0.0221 -0.0030
vn -0.1571 -0.9876 0.0038
vn -0.9997 -0.0237 -0.0022
vn 0.9989 -0.0467 -0.0004
vn -0.9935 0.1122 -0.0185
vn 0.5611 -0.8277 0.0081
vn 0.9999 0.0120 -0.0017
vn 0.9878 0.1523 -0.0323
vn 0.9999 -0.0103 -0.0046
vn 0.7862 -0.6179 -0.0026
vn -0.7342 -0.6789 -0.0026
vn 0.9348 -0.3553 -0.0034
vn 0.9943 -0.1068 0.0075
vn 0.9731 -0.2304 -0.0015
vn -0.9192 -0.3939 -0.0011
vn -0.9999 0.0112 -0.0019
vn -0.9999 0.0105 -0.0062
vn -0.9990 -0.0444 0.0015
vn 0.9871 -0.1604 0.0005
vn -0.9999 0.0143 -0.0045
vn -0.9974 -0.0725 0.0024
vn 0.9290 -0.3700 0.0034
vn -0.9981 0.0619 -0.0076
vn 0.1046 -0.9945 -0.0022
vn 1.0000 -0.0016 0.0012
vn -1.0000 0.0066 -0.0027
vn -0.9999 -0.0124 -0.0011
vn -0.9879 -0.1551 -0.0004
vn 0.9997 0.0218 -0.0062
vn 1.0000 -0.0054 0.0003
vn 0.9982 -0.0599 0.0014
vn 1.0000 0.0020 -0.0004
vn 0.9984 -0.0564 0.0025
vn -0.9999 -0.0104 -0.0040
vn 0.9945 -0.1045 0.0013
vn -0.4896 -0.8719 0.0120
vn -0.3499 -0.9368 0.0001
vn 0.9999 0.0139 -0.0065
vn 0.9988 -0.0489 0.0007
vn -0.9957 -0.0923 -0.0016
vn -0.7085 -0.7057 0.0063
vn -0.8621 -0.5067 0.0081
vn -0.9967 -0.0812 0.0047
vn -0.9737 -0.2277 0.0005
vn 0.9999 0.0106 -0.0063
vn 0.2972 0.9495 -0.1006
vn -0.9977 -0.0683 0.0005
vn 0.6682 -0.7440 0.0028
vn -0.9989 -0.0460 0.0003
vn -0.9986 -0.0537 0.0012
vn -0.9999 0.0101 -0.0047
vn -0.6995 -0.7146 -0.0096
vn -0.9999 0.0108 -0.0030
vn -0.9982 -0.0594 0.0013
vn -0.9994 0.0321 -0.0084
vn 0.9997 -0.0232 -0.0009
vn 1.0000 0.0078 -0.0031
vn -0.9992 -0.0407 -0.0047
vn -0.9999 -0.0098 -0.0079
vn -0.9994 -0.0331 -0.0078
vn 0.9998 -0.0165 -0.0090
vn -0.8884 -0.4590 0.0027
vn 0.9999 -0.0124 -0.0043
vn -0.9952 -0.0979 0.0005
vn -0.9952 -0.0981 0.0026
vn 1.0000 0.0026 -0.0021
vn -0.9999 -0.0122 -0.0008
vn 0.7945 -0.6072 -0.0093
vn 0.9992 0.0363 -0.0163
vn 0.9998 -0.0181 -0.0003
vn 0.0263 -0.9996 -0.0124
vn 1.0000 -0.0098 -0.0005
vn 0.9861 -0.1661 0.0024
vn -1.0000 -0.0025 -0.0013
vn -0.8500 -0.5268 -0.0030
vn 1.0000 -0.0046 0.0000
vn 0.9999 -0.0109 0.0004
vn -0.7293 -0.6842 -0.0033
vn 0.9989 -0.0464 -0.0005
vn -0.9982 0.0594 -0.0050
vn 0.1571 0.9876 -0.0038
vn 0.7251 0.6886 0.0039
vn -0.9417 0.3365 0.0045
vn -0.9401 0.3408 -0.0021
vn -1.0000 0.0011 0.0030
vn -0.9997 0.0245 0.0007
vn -1.0000 0.0033 0.0012
vn -0.9994 0.0360 0.0001
vn -1.0000 0.0032 0.0038
vn 0.9135 0.4068 -0.0022
vn 0.9997 0.0223 0.0035
vn -0.9998 0.0221 0.0030
vn -1.0000 0.0032 0.0002
vn -0.9999 -0.0120 0.0017
vn 0.9997 0.0242 0.0020
vn -1.0000 0.0062 0.0024
vn -1.0000 0.0047 0.0003
vn 0.7293 0.6842 0.0033
vn 0.0838 0.9964 0.0127
vn 0.9995 0.0317 0.0053
vn 0.9999 0.0146 0.0076
vn 0.9999 0.0106 0.0093
vn -0.9915 0.1301 -0.0085
vn 0.9991 0.0414 0.0016
vn -0.9500 0.3122 -0.0012
vn -1.0000 0.0068 -0.0001
vn -0.9962 -0.0869 -0.0007
vn -0.9909 -0.1344 0.0038
vn 0.9997 0.0256 0.0015
vn 0.9992 0.0407 0.0047
vn 0.9994 0.0331 0.0078
vn 0.9997 0.0224 0.0033
vn 0.9998 0.0178 0.0034
vn 0.9994 0.0331 0.0029
vn 0.9943 -0.0898 0.0579
vn 0.1371 0.9904 0.0156
vn -0.3296 0.9441 -0.0029
vn -0.9878 -0.1523 0.0323
vn -0.9999 -0.0113 -0.0089
vn -0.5611 0.8277 -0.0081
vn -1.0000 0.0013 0.0004
vn -0.9953 0.0956 -0.0163
vn -0.7862 0.6179 0.0026
vn -0.9999 0.0103 0.0046
vn -0.9970 0.0777 -0.0041
vn 0.0524 0.9986 -0.0018
vn -0.0025 1.0000 -0.0026
vn 0.6995 0.7146 0.0096
vn 0.9909 0.1341 -0.0088
vn -0.6682 0.7440 -0.0028
vn 0.9977 0.0683 -0.0005
vn 0.7573 0.6530 0.0070
vn 0.9999 0.0098 0.0079
vn -0.9933 0.1155 -0.0036
vn 0.9999 0.0127 0.0018
vn -0.9998 -0.0195 0.0078
vn -0.9994 0.0339 -0.0018
vn 1.0000 0.0084 0.0018
vn 0.4673 0.8839 0.0193
vn -0.9980 0.0635 -0.0028
vn -0.9989 -0.0457 0.0043
vn -0.9999 0.0113 0.0003
vn -1.0000 -0.0063 0.0016
vn -0.9999 -0.0104 0.0018
vn -1.0000 0.0023 0.0009
vn -0.9731 0.2304 0.0015
vn 0.9192 0.3939 0.0011
vn -0.1046 0.9945 0.0022
vn 0.9999 -0.0105 0.0062
vn -0.9871 0.1604 -0.0005
vn 0.9999 -0.0143 0.0045
vn 0.9974 0.0725 -0.0024
vn 0.9999 0.0104 0.0040
vn -0.9290 0.3700 -0.0034
vn 0.9999 -0.0141 0.0078
vn 1.0000 -0.0066 0.0027
vn 0.9999 0.0124 0.0011
vn 0.9879 0.1551 0.0004
vn 0.9982 0.0593 -0.0008
vn 0.9999 -0.0099 0.0057
vn 0.9997 0.0262 0.0017
vn 0.9999 -0.0128 0.0048
vn 0.9989 0.0466 0.0040
vn 0.9983 0.0579 0.0005
vn 0.9988 0.0497 0.0032
vn -0.7322 0.6811 0.0025
vn 0.9999 -0.0108 0.0030
vn 1.0000 -0.0006 -0.0006
vn 0.9986 0.0537 -0.0012
vn 1.0000 -0.0035 0.0015
vn -0.9997 0.0226 -0.0003
vn -1.0000 0.0052 -0.0007
vn 0.9957 0.0923 0.0016
vn -0.9999 -0.0139 0.0065
vn -0.9945 0.1045 -0.0013
vn 0.9998 -0.0149 0.0099
vn -0.9988 0.0489 -0.0007
vn -0.9998 -0.0191 -0.0023
vn 0.9999 -0.0109 0.0000
vn 0.9970 -0.0770 -0.0102
vn -0.3966 -0.8084 -0.4350
usemtl algae_green
s off
f 144/1/1 146/2/1 1/3/1
f 39/4/2 70/5/2 2/6/2
f 23/7/3 74/8/3 31/9/3
f 5/10/4 143/11/4 141/12/4
f 63/13/5 122/14/5 42/15/5
f 14/16/6 103/17/6 67/18/6
f 138/19/7 24/20/7 4/21/7
f 3/22/8 8/23/8 77/24/8
f 54/25/9 10/26/9 26/27/9
f 26/27/10 124/28/10 122/14/10
f 26/27/11 122/14/11 141/12/11
f 122/14/12 127/29/12 141/12/12
f 36/30/13 56/31/13 54/25/13
f 54/25/14 26/27/14 141/12/14
f 131/32/15 133/33/15 141/12/15
f 36/30/16 54/25/16 139/34/16
f 131/32/17 141/12/17 127/29/17
f 141/12/18 139/34/18 54/25/18
f 13/35/19 36/30/19 144/1/19
f 1/3/20 137/36/20 13/35/20
f 139/34/21 57/37/21 143/11/21
f 139/34/22 143/11/22 144/1/22
f 140/38/23 138/19/23 128/39/23
f 129/40/24 55/41/24 134/42/24
f 140/38/25 128/39/25 129/40/25
f 140/38/26 129/40/26 134/42/26
f 134/42/27 132/43/27 58/44/27
f 58/44/28 59/45/28 145/46/28
f 58/44/29 145/46/29 32/47/29
f 145/46/30 146/2/30 32/47/30
f 140/38/31 134/42/31 58/44/31
f 24/20/32 140/38/32 58/44/32
f 24/20/33 58/44/33 32/47/33
f 5/10/34 4/21/34 24/20/34
f 5/10/35 24/20/35 32/47/35
f 1/3/36 13/35/36 144/1/36
f 144/1/37 36/30/37 139/34/37
f 144/1/38 32/47/38 146/2/38
f 61/48/39 62/49/39 39/4/39
f 39/4/40 22/50/40 70/5/40
f 70/5/41 71/51/41 25/52/41
f 71/51/42 78/53/42 25/52/42
f 25/52/43 2/6/43 70/5/43
f 2/6/44 68/54/44 61/48/44
f 61/48/45 39/4/45 2/6/45
f 88/55/46 82/56/46 84/57/46
f 30/58/47 21/59/47 71/51/47
f 21/59/48 6/60/48 69/61/48
f 88/55/49 84/57/49 30/58/49
f 98/62/50 96/63/50 91/64/50
f 91/64/51 88/55/51 70/5/51
f 88/55/52 30/58/52 71/51/52
f 91/64/53 70/5/53 39/4/53
f 6/60/54 76/65/54 69/61/54
f 21/59/55 69/61/55 71/51/55
f 98/62/56 91/64/56 39/4/56
f 61/48/57 86/66/57 98/62/57
f 39/4/58 62/49/58 61/48/58
f 70/5/59 22/50/59 39/4/59
f 25/52/60 78/53/60 71/51/60
f 71/51/61 70/5/61 88/55/61
f 39/4/62 61/48/62 98/62/62
f 69/61/63 72/67/63 8/68/63
f 71/51/64 69/61/64 8/68/64
f 72/67/65 74/8/65 60/69/65
f 2/70/66 25/52/66 71/51/66
f 8/68/67 72/67/67 77/24/67
f 73/71/68 75/72/68 79/73/68
f 12/74/69 20/75/69 73/71/69
f 35/76/70 12/74/70 73/71/70
f 73/71/71 79/73/71 35/76/71
f 79/73/72 77/24/72 60/69/72
f 35/76/73 79/73/73 60/69/73
f 8/68/74 3/77/74 2/70/74
f 8/68/75 2/70/75 71/51/75
f 85/78/76 35/76/76 60/69/76
f 77/24/77 72/67/77 60/69/77
f 23/7/78 80/79/78 60/69/78
f 23/7/79 60/69/79 74/8/79
f 60/69/80 63/13/80 85/78/80
f 143/11/81 57/37/81 139/34/81
f 141/12/82 133/33/82 131/32/82
f 143/11/83 139/34/83 141/12/83
f 32/80/84 144/1/84 143/11/84
f 142/81/85 5/10/85 131/32/85
f 5/10/86 32/80/86 143/11/86
f 141/12/87 131/32/87 5/10/87
f 64/82/88 81/83/88 92/84/88
f 81/83/89 83/85/89 92/84/89
f 27/86/90 90/87/90 94/88/90
f 90/87/91 89/89/91 94/88/91
f 83/85/92 27/86/92 92/84/92
f 94/88/93 92/84/93 27/86/93
f 104/90/94 42/15/94 124/28/94
f 42/15/95 43/91/95 63/13/95
f 124/28/96 42/15/96 122/14/96
f 108/92/97 111/93/97 106/94/97
f 89/89/98 66/95/98 93/96/98
f 48/97/99 112/98/99 108/92/99
f 125/99/100 121/100/100 48/97/100
f 120/101/101 53/102/101 125/99/101
f 113/103/102 15/104/102 117/105/102
f 120/101/103 125/99/103 108/92/103
f 125/99/104 48/97/104 108/92/104
f 113/103/105 117/105/105 106/94/105
f 117/105/106 120/101/106 106/94/106
f 45/106/107 47/107/107 114/108/107
f 106/94/108 120/101/108 108/92/108
f 49/109/109 116/110/109 45/106/109
f 94/88/110 89/89/110 43/91/110
f 89/89/111 93/96/111 63/13/111
f 43/91/112 89/89/112 63/13/112
f 97/111/113 38/112/113 102/113/113
f 106/94/114 104/90/114 51/114/114
f 113/103/115 106/94/115 51/114/115
f 102/113/116 99/115/116 12/74/116
f 99/115/117 87/116/117 12/74/117
f 5/10/118 142/81/118 131/32/118
f 9/117/119 128/39/119 14/16/119
f 128/39/120 138/19/120 52/118/120
f 52/118/121 118/119/121 28/120/121
f 11/121/122 123/122/122 50/123/122
f 91/64/123 138/19/123 88/55/123
f 34/124/124 11/121/124 119/125/124
f 138/19/125 91/64/125 16/126/125
f 135/127/126 130/128/126 34/124/126
f 126/129/127 136/130/127 135/127/127
f 115/131/128 126/129/128 135/127/128
f 135/127/129 34/124/129 119/125/129
f 138/19/130 16/126/130 50/123/130
f 11/121/131 50/123/131 16/126/131
f 50/123/132 52/118/132 138/19/132
f 119/125/133 115/131/133 135/127/133
f 16/126/134 37/132/134 119/125/134
f 109/133/135 46/134/135 16/126/135
f 103/17/136 105/135/136 29/136/136
f 105/135/137 110/137/137 91/64/137
f 103/17/138 29/136/138 67/18/138
f 110/137/139 109/133/139 91/64/139
f 109/133/140 16/126/140 91/64/140
f 16/126/141 119/125/141 11/121/141
f 17/138/142 40/139/142 103/17/142
f 138/19/143 4/21/143 5/10/143
f 138/19/144 5/10/144 131/32/144
f 65/140/145 17/138/145 67/18/145
f 17/138/146 103/17/146 67/18/146
f 29/136/147 95/141/147 67/18/147
f 138/19/148 131/32/148 127/29/148
f 138/19/149 127/29/149 30/58/149
f 127/29/150 122/14/150 23/7/150
f 30/58/151 127/29/151 69/61/151
f 18/142/152 29/136/152 105/135/152
f 18/142/153 105/135/153 91/64/153
f 41/143/154 100/144/154 18/142/154
f 33/145/155 107/146/155 44/147/155
f 41/143/156 18/142/156 91/64/156
f 33/145/157 44/147/157 98/62/157
f 44/147/158 41/143/158 98/62/158
f 19/148/159 7/149/159 98/62/159
f 7/149/160 33/145/160 98/62/160
f 91/64/161 96/63/161 41/143/161
f 96/63/162 98/62/162 41/143/162
f 52/118/163 28/120/163 128/39/163
f 28/120/164 14/16/164 128/39/164
f 45/106/165 114/108/165 49/109/165
f 114/108/166 113/103/166 51/114/166
f 49/109/167 114/108/167 51/114/167
f 93/96/168 97/111/168 35/76/168
f 97/111/169 102/113/169 35/76/169
f 102/113/170 12/74/170 35/76/170
f 35/76/171 85/78/171 63/13/171
f 82/56/172 88/55/172 138/19/172
f 84/57/173 82/56/173 30/58/173
f 30/58/174 82/56/174 138/19/174
f 6/60/175 21/59/175 69/61/175
f 21/59/176 30/58/176 69/61/176
f 69/61/177 127/29/177 72/67/177
f 76/65/178 6/60/178 69/61/178
f 72/67/179 127/29/179 23/7/179
f 31/9/180 74/8/180 72/67/180
f 31/9/181 72/67/181 23/7/181
f 60/69/182 80/79/182 23/7/182
f 63/13/183 60/69/183 122/14/183
f 60/69/184 23/7/184 122/14/184
f 43/91/185 101/150/185 94/88/185
f 63/13/186 93/96/186 35/76/186
f 124/28/187 51/114/187 104/90/187
f 45/106/188 116/110/188 49/109/188
f 51/114/189 124/28/189 26/27/189
f 117/105/190 15/104/190 113/103/190
f 125/99/191 53/102/191 120/101/191
f 120/101/192 117/105/192 106/94/192
f 117/105/193 113/103/193 106/94/193
f 121/100/194 125/99/194 48/97/194
f 125/99/195 120/101/195 108/92/195
f 48/97/196 125/99/196 108/92/196
f 108/92/197 112/98/197 48/97/197
f 111/93/198 108/92/198 106/94/198
f 106/94/199 108/92/199 120/101/199
f 42/15/200 104/90/200 51/114/200
f 104/90/201 106/94/201 51/114/201
f 51/114/202 26/27/202 54/25/202
f 26/27/203 10/26/203 54/25/203
f 54/25/204 56/31/204 36/30/204
f 94/88/205 101/150/205 43/91/205
f 64/82/206 92/84/206 81/83/206
f 92/84/207 94/88/207 27/86/207
f 83/85/208 81/83/208 92/84/208
f 89/89/209 90/87/209 94/88/209
f 90/87/210 27/86/210 94/88/210
f 27/86/211 83/85/211 92/84/211
f 94/88/212 43/91/212 51/114/212
f 43/91/213 42/15/213 51/114/213
f 93/96/214 66/95/214 68/151/214
f 66/95/215 89/89/215 68/151/215
f 114/108/216 47/107/216 45/106/216
f 45/106/217 49/109/217 114/108/217
f 49/109/218 51/114/218 114/108/218
f 54/25/219 36/30/219 86/152/219
f 36/30/220 13/35/220 86/152/220
f 51/114/221 54/25/221 86/152/221
f 58/44/222 13/35/222 146/2/222
f 13/35/223 137/36/223 146/2/223
f 137/36/224 1/153/224 146/2/224
f 51/114/225 106/94/225 113/103/225
f 89/89/226 94/88/226 68/151/226
f 102/113/227 38/112/227 97/111/227
f 97/111/228 93/96/228 20/75/228
f 20/75/229 93/96/229 68/151/229
f 87/116/230 99/115/230 12/74/230
f 99/115/231 102/113/231 12/74/231
f 20/75/232 12/74/232 102/113/232
f 2/154/233 3/22/233 73/71/233
f 2/154/234 73/71/234 20/75/234
f 19/155/235 98/156/235 7/157/235
f 98/156/236 86/152/236 44/147/236
f 44/147/237 107/146/237 33/145/237
f 18/142/238 100/144/238 41/143/238
f 68/151/239 2/154/239 20/75/239
f 113/103/240 114/108/240 51/114/240
f 13/35/241 58/44/241 86/152/241
f 145/46/242 59/45/242 58/44/242
f 146/2/243 145/46/243 58/44/243
f 102/113/244 97/111/244 20/75/244
f 58/44/245 132/43/245 134/42/245
f 134/42/246 55/41/246 129/40/246
f 128/39/247 9/117/247 18/142/247
f 9/117/248 14/16/248 18/142/248
f 134/42/249 129/40/249 86/152/249
f 129/40/250 128/39/250 41/143/250
f 86/152/251 129/40/251 41/143/251
f 58/44/252 134/42/252 86/152/252
f 28/120/253 118/119/253 52/118/253
f 50/123/254 123/122/254 11/121/254
f 50/123/255 11/121/255 16/126/255
f 11/121/256 34/124/256 119/125/256
f 34/124/257 130/128/257 135/127/257
f 135/127/258 136/158/258 126/159/258
f 135/127/259 126/159/259 115/131/259
f 11/121/260 119/125/260 16/126/260
f 34/124/261 135/127/261 119/125/261
f 52/118/262 50/123/262 16/126/262
f 119/125/263 135/127/263 115/131/263
f 119/125/264 37/132/264 16/126/264
f 16/126/265 46/134/265 109/133/265
f 110/137/266 105/135/266 14/16/266
f 105/135/267 103/17/267 14/16/267
f 16/126/268 109/133/268 52/118/268
f 109/133/269 110/137/269 52/118/269
f 68/151/270 94/88/270 61/160/270
f 94/88/271 51/114/271 86/152/271
f 61/160/272 94/88/272 86/152/272
f 52/118/273 110/137/273 28/120/273
f 33/145/274 7/157/274 98/156/274
f 41/143/275 44/147/275 86/152/275
f 44/147/276 33/145/276 98/156/276
f 29/136/277 18/142/277 67/18/277
f 18/142/278 41/143/278 128/39/278
f 67/18/279 18/142/279 14/16/279
f 67/18/280 95/141/280 29/136/280
f 17/138/281 65/140/281 67/18/281
f 103/17/282 40/139/282 17/138/282
f 14/16/283 28/120/283 110/137/283
f 103/17/284 17/138/284 67/18/284
f 138/19/285 140/38/285 24/20/285
f 75/72/286 73/71/286 79/73/286
f 73/71/287 3/22/287 79/73/287
f 77/24/288 79/73/288 3/22/288
