# Blender v2.92.0 OBJ File: 'algae.blend'
# www.blender.org
mtllib 192.mtl
o algae_cube_Cube
v -0.007170 0.087109 -1.318891
v -0.005720 0.062095 1.318891
v -0.000389 0.076131 -0.000000
v -0.004519 -0.076039 -0.000000
v -0.007962 -0.069320 -0.659445
v -0.005354 0.078333 -0.659445
v -0.001678 0.073726 0.670731
v -0.000840 -0.078240 0.670731
v -0.001210 -0.075136 -0.989168
v -0.000231 0.072612 -0.989168
v -0.005117 0.076881 -0.318165
v -0.001002 -0.076395 -0.318165
v -0.006364 -0.077420 0.335366
v -0.007849 0.069193 0.335366
v -0.004496 0.068710 0.993585
v -0.007385 -0.089025 0.993585
v 0.003193 -0.041179 0.000000
v 0.007060 -0.048095 -0.659445
v 0.000750 -0.035835 0.670731
v 0.000184 -0.038841 -0.989168
v 0.002164 -0.042132 -0.318165
v 0.006722 -0.037900 0.335366
v 0.007461 -0.030146 0.993585
v 0.007303 0.023634 -0.989168
v 0.006744 -0.037600 0.167683
v 0.003580 0.037555 0.167683
v 0.000234 -0.040650 -0.159083
v 0.006900 0.034141 -0.159083
v 0.006510 -0.046254 -0.488805
v 0.000330 0.035148 -0.488805
v 0.002025 -0.041415 -0.824307
v 0.007622 0.027514 -0.824307
v 0.001778 -0.035304 0.832158
v 0.007099 0.045187 0.832158
v 0.002979 -0.037729 0.503048
v 0.001547 0.039292 0.503048
vt 0.643463 0.399518
vt 0.608433 0.399032
vt 0.627218 0.287293
vt 0.644229 0.287478
vt 0.537200 0.398044
vt 0.538232 0.286325
vt 0.555494 0.286513
vt 0.714776 0.400507
vt 0.678809 0.400008
vt 0.697735 0.288059
vt 0.661241 0.287663
vt 0.572481 0.398533
vt 0.715365 0.288251
vt 0.732449 0.400752
vt 0.573425 0.286708
vt 0.591356 0.286903
vt 0.522054 -0.211154
vt 0.483530 0.675856
vt 0.520970 0.286138
vt 0.592689 0.011366
vt 0.609287 0.287098
vt 0.662490 0.012024
vt 0.628508 0.011703
vt 0.698940 0.012367
vt 0.556870 0.011028
vt 0.731277 0.678201
vt 1.051103 0.015687
vt 0.679488 0.287861
vt 0.204504 0.007695
vt 0.518449 0.676186
vt 0.522387 0.010703
vt 0.556709 -0.210826
vt 0.734882 -0.209139
vt 0.695884 0.677866
vt 0.592707 -0.210485
vt 0.553104 0.676514
vt 0.732994 0.288443
vt 0.770274 -0.208804
vt 0.662857 -0.209821
vt 0.625100 0.677196
vt 0.734157 0.012699
vt 0.589102 0.676855
vt 0.699490 -0.209474
vt 0.659252 0.677519
vt 0.766669 0.678536
vt 0.628705 -0.210144
vn 0.9996 -0.0271 0.0104
vn 0.9959 -0.0888 -0.0188
vn 0.9978 -0.0660 -0.0061
vn 0.9991 0.0380 0.0208
vn 0.9960 -0.0888 0.0129
vn 0.9988 -0.0463 -0.0160
vn 0.9967 -0.0809 -0.0000
vn 0.9996 0.0186 0.0223
vn 0.9996 -0.0204 -0.0200
vn 0.9985 0.0544 0.0058
vn 0.9927 0.1201 0.0062
vn 0.9493 -0.3143 -0.0004
vn 0.9964 -0.0839 0.0111
vn 0.8153 -0.5770 -0.0483
vn 0.9992 -0.0375 0.0137
vn 0.9883 0.1520 -0.0141
vn 0.9913 0.1199 0.0537
vn 0.9991 0.0421 0.0002
vn 0.9954 -0.0920 0.0276
vn -0.9998 0.0183 -0.0034
vn 0.9312 0.3644 0.0138
vn 0.9772 0.2122 0.0115
vn 0.9867 -0.1619 -0.0166
vn 0.9811 0.1925 -0.0207
vn 0.9762 -0.2160 -0.0189
vn 0.9239 -0.3817 -0.0268
vn 0.9969 0.0757 0.0236
vn 0.9925 -0.1210 0.0161
vn -0.9996 0.0183 -0.0197
vn 0.9915 -0.1130 -0.0653
vn 0.9693 -0.2444 -0.0263
vn 0.9749 0.2221 -0.0140
vn 0.9548 -0.2973 0.0040
vn 0.9775 -0.2097 0.0237
vn -0.9999 -0.0101 -0.0055
vn 0.9971 0.0757 0.0024
vn 0.9915 0.1300 -0.0001
vn 0.9962 -0.0809 -0.0337
vn -0.9994 -0.0268 0.0198
vn 0.9491 -0.3142 0.0215
vn 0.9973 -0.0659 -0.0330
vn -0.9998 0.0066 0.0213
vn 0.8162 -0.5777 0.0089
vn 0.9997 0.0186 0.0131
vn 0.9993 -0.0375 -0.0062
vn -0.9996 0.0177 -0.0208
vn 0.9884 0.1520 -0.0055
vn 0.9989 0.0421 -0.0221
vn 0.9986 -0.0383 -0.0369
vn 0.9957 -0.0920 0.0129
vn 0.9640 -0.2431 0.1080
vn 0.9765 0.2141 0.0262
vn 0.9992 -0.0384 -0.0118
vn 0.9763 -0.2160 -0.0161
vn -0.9998 -0.0055 0.0165
vn -0.9996 -0.0268 -0.0110
vn 0.9902 0.1393 0.0086
vn 0.9805 0.1957 0.0169
vn 0.9818 0.1891 -0.0200
vn 0.9935 -0.1132 -0.0129
vn 0.9786 0.2049 -0.0189
vn 0.9472 0.3205 0.0041
vn -0.9999 -0.0055 -0.0088
vn -0.9994 0.0271 -0.0217
vn -0.9998 0.0177 0.0008
vn -0.9999 0.0066 -0.0156
vn -0.9998 -0.0101 0.0185
vn -0.9995 0.0271 0.0149
usemtl algae_green
s off
f 28/1/1 26/2/1 17/3/1
f 17/3/2 27/4/2 28/1/2
f 34/5/3 33/6/3 19/7/3
f 32/8/4 30/9/4 18/10/4
f 28/1/5 27/4/5 21/11/5
f 36/12/6 34/5/6 19/7/6
f 31/13/7 24/14/7 32/8/7
f 36/12/8 35/15/8 22/16/8
f 30/9/9 28/1/9 21/11/9
f 26/2/10 36/12/10 22/16/10
f 15/17/11 2/18/11 23/19/11
f 22/16/12 13/20/12 25/21/12
f 12/22/13 27/4/13 4/23/13
f 18/10/14 5/24/14 31/13/14
f 35/15/15 19/7/15 8/25/15
f 10/26/16 24/14/16 1/27/16
f 34/5/17 15/17/17 23/19/17
f 22/16/18 25/21/18 26/2/18
f 21/11/19 12/22/19 29/28/19
f 2/29/20 15/30/20 16/31/20
f 34/5/21 7/32/21 15/30/21
f 32/8/22 10/33/22 6/34/22
f 13/20/23 35/15/23 8/25/23
f 36/12/24 14/35/24 7/36/24
f 17/3/25 4/23/25 27/4/25
f 5/24/26 29/28/26 12/22/26
f 21/11/27 29/28/27 30/9/27
f 8/25/28 33/6/28 16/31/28
f 15/30/29 8/25/29 16/31/29
f 20/37/30 1/38/30 24/14/30
f 23/19/31 16/31/31 33/6/31
f 28/1/32 11/39/32 3/40/32
f 4/23/33 25/21/33 13/20/33
f 9/41/34 31/13/34 5/24/34
f 14/42/35 4/23/35 13/20/35
f 30/9/36 29/28/36 18/10/36
f 30/9/37 6/43/37 11/44/37
f 18/10/38 31/13/38 32/8/38
f 11/44/39 5/24/39 12/22/39
f 13/20/40 22/16/40 35/15/40
f 23/19/41 33/6/41 34/5/41
f 10/26/42 1/45/42 9/41/42
f 5/24/43 18/10/43 29/28/43
f 19/7/44 35/15/44 36/12/44
f 8/25/45 19/7/45 33/6/45
f 6/34/46 9/41/46 5/24/46
f 32/8/47 24/14/47 10/33/47
f 25/21/48 17/3/48 26/2/48
f 20/37/49 9/41/49 1/38/49
f 12/22/50 21/11/50 27/4/50
f 2/18/51 16/31/51 23/19/51
f 26/2/52 3/46/52 14/42/52
f 9/41/53 20/37/53 31/13/53
f 4/23/54 17/3/54 25/21/54
f 7/36/55 13/20/55 8/25/55
f 4/23/56 11/44/56 12/22/56
f 28/1/57 3/46/57 26/2/57
f 32/8/58 6/43/58 30/9/58
f 36/12/59 7/32/59 34/5/59
f 31/13/60 20/37/60 24/14/60
f 30/9/61 11/39/61 28/1/61
f 26/2/62 14/35/62 36/12/62
f 15/30/63 7/36/63 8/25/63
f 14/42/64 3/40/64 4/23/64
f 11/44/65 6/34/65 5/24/65
f 6/34/66 10/26/66 9/41/66
f 7/36/67 14/42/67 13/20/67
f 4/23/68 3/40/68 11/44/68
