# Blender v2.92.0 OBJ File: 'algae.blend'
# www.blender.org
mtllib 196.mtl
o algae_cube_Cube
v -0.002142 0.028362 -1.808535
v -0.004785 0.050300 1.808535
v -0.003251 0.088577 -0.000000
v -0.002288 -0.087230 -0.000000
v -0.004218 -0.107677 -0.904267
v -0.005723 0.039134 -0.904267
v -0.003995 0.078025 0.919743
v -0.004366 -0.106198 0.919743
v -0.002590 -0.099874 -1.356401
v -0.005002 0.028581 -1.356401
v -0.005335 0.062212 -0.436286
v -0.002040 -0.099603 -0.436286
v -0.002717 -0.058567 0.459872
v -0.005610 0.046175 0.459872
v -0.005143 0.079592 1.362458
v -0.004266 -0.109408 1.362458
v 0.005635 -0.076214 0.000000
v 0.005278 -0.071578 -0.904267
v 0.002981 -0.008218 0.919743
v 0.005661 -0.036568 -1.356401
v 0.002384 -0.074520 -0.436286
v 0.002015 -0.079376 0.459872
v 0.002943 -0.083214 1.362458
v 0.003887 -0.004894 -1.356401
v 0.002618 -0.049271 0.229936
v 0.005624 0.023018 0.229936
v 0.002709 -0.067564 -0.218143
v 0.005289 0.011477 -0.218143
v 0.002046 -0.078267 -0.670277
v 0.002790 0.004568 -0.670277
v 0.004065 -0.040845 -1.130334
v 0.002866 0.031739 -1.130334
v 0.004862 -0.022546 1.141101
v 0.005624 0.013065 1.141101
v 0.003784 -0.059470 0.689807
v 0.005672 0.044374 0.689807
vt 0.643463 0.399518
vt 0.608433 0.399032
vt 0.627218 0.287293
vt 0.644229 0.287478
vt 0.537200 0.398044
vt 0.538232 0.286325
vt 0.555494 0.286513
vt 0.714776 0.400507
vt 0.678809 0.400008
vt 0.697735 0.288059
vt 0.661241 0.287663
vt 0.572481 0.398533
vt 0.715365 0.288251
vt 0.732449 0.400752
vt 0.573425 0.286708
vt 0.591356 0.286903
vt 0.522054 -0.211154
vt 0.483530 0.675856
vt 0.520970 0.286138
vt 0.592689 0.011366
vt 0.609287 0.287098
vt 0.662490 0.012024
vt 0.628508 0.011703
vt 0.698940 0.012367
vt 0.556870 0.011028
vt 0.731277 0.678201
vt 1.051103 0.015687
vt 0.679488 0.287861
vt 0.204504 0.007695
vt 0.518449 0.676186
vt 0.522387 0.010703
vt 0.556709 -0.210826
vt 0.734882 -0.209139
vt 0.695884 0.677866
vt 0.592707 -0.210485
vt 0.553104 0.676514
vt 0.732994 0.288443
vt 0.770274 -0.208804
vt 0.662857 -0.209821
vt 0.625100 0.677196
vt 0.734157 0.012699
vt 0.699490 -0.209474
vt 0.659252 0.677519
vt 0.766669 0.678536
vt 0.628705 -0.210144
vt 0.589102 0.676855
vn 1.0000 0.0020 -0.0008
vn 0.9994 -0.0326 -0.0147
vn 0.9997 -0.0214 -0.0099
vn 0.9996 0.0272 0.0018
vn 0.9995 -0.0326 -0.0005
vn 0.9973 -0.0726 -0.0049
vn 0.9999 0.0165 0.0018
vn 0.9998 -0.0182 -0.0061
vn 0.9998 -0.0206 -0.0052
vn 0.9995 -0.0321 0.0014
vn 0.9988 0.0496 0.0025
vn -0.9746 -0.2216 -0.0316
vn 0.9827 -0.1852 0.0058
vn 0.9663 -0.2542 -0.0397
vn 0.9970 -0.0748 0.0201
vn 0.9665 0.2566 0.0060
vn 0.9982 0.0496 0.0337
vn 0.9991 -0.0415 -0.0028
vn 0.9848 -0.1737 0.0014
vn -1.0000 -0.0046 0.0005
vn 0.9882 0.1532 0.0020
vn 0.2492 0.9682 -0.0222
vn 0.9521 -0.3044 -0.0281
vn 0.8603 0.5083 -0.0382
vn 0.8114 -0.5835 -0.0340
vn 0.9798 -0.1999 -0.0011
vn 1.0000 -0.0090 -0.0013
vn 0.9943 -0.1070 -0.0010
vn -1.0000 -0.0046 0.0002
vn 0.9984 0.0559 -0.0092
vn 0.9622 -0.2648 -0.0642
vn 0.9889 0.1482 -0.0137
vn 0.9772 -0.2118 0.0141
vn 0.9930 -0.1179 0.0015
vn -1.0000 -0.0055 -0.0006
vn 0.9999 -0.0090 0.0136
vn 0.9841 0.1776 -0.0096
vn 0.9999 0.0165 -0.0031
vn -0.9999 -0.0103 0.0048
vn -0.9748 -0.2217 0.0267
vn 0.9998 -0.0214 0.0028
vn -0.9998 -0.0188 -0.0063
vn 0.9671 -0.2544 0.0061
vn 0.9998 -0.0182 0.0075
vn 0.9971 -0.0748 -0.0133
vn -0.9998 -0.0188 -0.0039
vn 0.9658 0.2565 -0.0372
vn 0.9990 -0.0415 0.0180
vn 0.9910 -0.1292 -0.0357
vn 0.9848 -0.1737 0.0041
vn 0.9597 -0.2641 0.0957
vn 0.9749 0.2210 0.0254
vn 0.9916 -0.1292 0.0046
vn 0.8093 -0.5821 0.0788
vn -0.9996 -0.0276 -0.0064
vn -0.9998 -0.0204 0.0000
vn 0.9927 0.1209 -0.0039
vn 0.9243 0.3810 0.0227
vn 0.9815 0.1908 0.0133
vn 0.9984 0.0559 0.0081
vn 0.9851 0.1716 -0.0081
vn 0.7421 0.6695 -0.0312
vn -1.0000 0.0020 -0.0026
vn -0.9996 -0.0276 -0.0077
vn -0.9998 -0.0204 0.0018
vn -0.9999 -0.0103 -0.0014
vn -1.0000 0.0020 0.0034
vn -1.0000 -0.0055 0.0051
usemtl algae_green
s off
f 28/1/1 26/2/1 17/3/1
f 17/3/2 27/4/2 28/1/2
f 34/5/3 33/6/3 19/7/3
f 32/8/4 30/9/4 18/10/4
f 28/1/5 27/4/5 21/11/5
f 36/12/6 34/5/6 19/7/6
f 31/13/7 24/14/7 32/8/7
f 36/12/8 35/15/8 22/16/8
f 30/9/9 28/1/9 21/11/9
f 26/2/10 36/12/10 22/16/10
f 15/17/11 2/18/11 23/19/11
f 22/16/12 13/20/12 25/21/12
f 12/22/13 27/4/13 4/23/13
f 18/10/14 5/24/14 31/13/14
f 35/15/15 19/7/15 8/25/15
f 10/26/16 24/14/16 1/27/16
f 34/5/17 15/17/17 23/19/17
f 22/16/18 25/21/18 26/2/18
f 21/11/19 12/22/19 29/28/19
f 2/29/20 15/30/20 16/31/20
f 34/5/21 7/32/21 15/30/21
f 32/8/22 10/33/22 6/34/22
f 13/20/23 35/15/23 8/25/23
f 36/12/24 14/35/24 7/36/24
f 17/3/25 4/23/25 27/4/25
f 5/24/26 29/28/26 12/22/26
f 21/11/27 29/28/27 30/9/27
f 8/25/28 33/6/28 16/31/28
f 15/30/29 8/25/29 16/31/29
f 20/37/30 1/38/30 24/14/30
f 23/19/31 16/31/31 33/6/31
f 28/1/32 11/39/32 3/40/32
f 4/23/33 25/21/33 13/20/33
f 9/41/34 31/13/34 5/24/34
f 13/20/35 3/40/35 4/23/35
f 30/9/36 29/28/36 18/10/36
f 30/9/37 6/42/37 11/43/37
f 18/10/38 31/13/38 32/8/38
f 12/22/39 6/34/39 5/24/39
f 13/20/40 22/16/40 35/15/40
f 23/19/41 33/6/41 34/5/41
f 10/26/42 1/44/42 9/41/42
f 5/24/43 18/10/43 29/28/43
f 19/7/44 35/15/44 36/12/44
f 8/25/45 19/7/45 33/6/45
f 5/24/46 10/26/46 9/41/46
f 32/8/47 24/14/47 10/33/47
f 25/21/48 17/3/48 26/2/48
f 20/37/49 9/41/49 1/38/49
f 12/22/50 21/11/50 27/4/50
f 2/18/51 16/31/51 23/19/51
f 26/2/52 3/45/52 14/46/52
f 9/41/53 20/37/53 31/13/53
f 4/23/54 17/3/54 25/21/54
f 8/25/55 14/46/55 13/20/55
f 4/23/56 11/43/56 12/22/56
f 28/1/57 3/45/57 26/2/57
f 32/8/58 6/42/58 30/9/58
f 36/12/59 7/32/59 34/5/59
f 31/13/60 20/37/60 24/14/60
f 30/9/61 11/39/61 28/1/61
f 26/2/62 14/35/62 36/12/62
f 15/30/63 7/36/63 8/25/63
f 13/20/64 14/46/64 3/40/64
f 12/22/65 11/43/65 6/34/65
f 5/24/66 6/34/66 10/26/66
f 8/25/67 7/36/67 14/46/67
f 4/23/68 3/40/68 11/43/68
