# Blender v2.92.0 OBJ File: 'algae.blend'
# www.blender.org
mtllib 26.mtl
o algae_cube_Cube
v -0.003745 0.105027 -2.190265
v 0.004458 0.099279 -2.186020
v 0.003852 0.100066 2.186601
v -0.004580 -0.063000 2.066169
v 0.003765 -0.060142 2.068280
v -0.004243 0.063429 -0.000000
v 0.003419 -0.081165 0.000000
v -0.003395 0.071090 1.100941
v 0.003376 0.099976 1.111789
v 0.003697 0.092628 -1.635667
v 0.003567 0.088331 0.553683
v 0.003903 0.024490 0.541697
v -0.003469 0.092891 0.554539
v 0.004371 -0.085770 1.543724
v 0.003419 0.027911 1.606968
v -0.004613 -0.047401 -1.558111
v -0.004605 0.043069 1.090418
v 0.003563 0.051097 -0.518653
v 0.004633 0.096671 0.277621
v 0.004634 -0.045102 0.264312
v -0.004330 0.103547 0.278267
v -0.003373 0.041411 0.272434
v 0.003664 0.093715 -0.263120
v 0.004360 -0.056391 -0.249751
v 0.004629 0.029591 -0.257408
v 0.004634 0.059173 -0.799044
v 0.004546 0.072068 -1.879368
v -0.003400 -0.084272 -1.779179
v 0.003550 0.021720 1.342949
v -0.004296 0.062541 1.361968
v 0.003703 0.099780 0.833765
v 0.004426 0.027265 0.813342
v 0.004092 0.031702 0.814591
v 0.004621 0.102098 1.796687
v 0.004612 -0.085907 1.682674
v 0.003791 0.094811 2.048071
v 0.004055 -0.068166 1.935130
v -0.003759 -0.049650 1.947961
v -0.004486 0.100783 1.513644
v 0.004382 0.098014 1.512229
v -0.004164 0.049064 1.487208
v 0.003846 0.095698 1.243796
v -0.003846 -0.010894 1.198950
v -0.004519 0.054469 1.226450
v 0.003716 0.066771 1.231626
v -0.003404 0.070918 1.233371
v 0.004549 0.021786 0.947110
v 0.004621 -0.079534 0.652712
v 0.003370 -0.063404 0.393893
v -0.004619 -0.070845 0.392845
v -0.004331 -0.033069 0.398165
v -0.003551 -0.064286 0.131255
v -0.003666 0.043383 0.136309
v -0.003369 0.082763 0.138158
v 0.004552 0.078383 -0.130877
v 0.004598 0.028614 -0.385984
v 0.004166 0.063367 -0.390626
v -0.004042 0.099412 -0.395442
v -0.004550 0.074752 -0.663085
v 0.003499 -0.049172 -0.635091
v 0.004532 0.012298 -0.648977
v 0.004130 -0.050542 -0.903260
v 0.003511 -0.011606 -0.915775
v 0.003572 -0.010552 -0.916114
v 0.004406 0.060529 -0.938962
v -0.004074 0.105080 -0.953283
v -0.004011 0.094583 -1.229591
v 0.003686 0.075631 -1.221706
v 0.003494 -0.068801 -1.161611
v -0.003440 -0.062253 -1.164335
v -0.003507 -0.016597 -1.183332
v 0.004441 0.038181 -1.206124
v 0.004358 0.089160 -1.497570
v 0.004570 -0.056072 -1.423837
v -0.004626 -0.045727 -1.429088
v -0.004631 -0.043799 -1.430067
v -0.003682 0.065431 -1.485522
v 0.003901 0.075964 -2.025326
v -0.004116 -0.073822 -1.922021
v -0.004486 -0.021534 -1.958083
v 0.003711 0.047637 -2.005790
vt 0.707880 0.012451
vt 0.724451 0.234451
vt 0.706979 0.234286
vt 0.670701 0.233945
vt 0.520425 0.342715
vt 0.521486 0.232538
vt 0.495428 0.232292
vt 0.511931 0.232448
vt 0.496329 0.010457
vt 0.486742 0.232211
vt 0.484448 0.452356
vt 0.493177 0.452490
vt 0.509763 0.452745
vt 0.528028 0.453025
vt 0.548096 -0.155444
vt 0.556749 -0.155362
vt 0.553104 0.676514
vt 0.544440 0.676432
vt 0.572015 0.453700
vt 0.545354 0.453291
vt 0.554017 0.453424
vt 0.572481 0.398533
vt 0.589102 0.676855
vt 0.590013 0.453976
vt 0.590901 0.343588
vt 0.600742 0.233285
vt 0.609697 0.233370
vt 0.608011 0.454252
vt 0.660517 0.399754
vt 0.548147 -0.099980
vt 0.530790 -0.155608
vt 0.619667 -0.154767
vt 0.619705 -0.210229
vt 0.628705 -0.210144
vt 0.634547 0.454660
vt 0.643084 0.454791
vt 0.654319 -0.209902
vt 0.705774 0.455753
vt 0.672015 -0.209734
vt 0.690331 -0.209561
vt 0.704869 0.677951
vt 0.723333 0.456022
vt 0.732180 0.456158
vt 0.748849 0.456414
vt 0.758209 0.456557
vt 0.758446 0.401113
vt 0.767570 0.456701
vt 0.770274 -0.208804
vt 0.760058 0.012943
vt 0.750743 0.012855
vt 0.734333 -0.041261
vt 0.725864 -0.153763
vt 0.725518 -0.041345
vt 0.708024 -0.041510
vt 0.760266 -0.041017
vt 0.706075 0.400386
vt 0.530718 -0.211072
vt 0.545853 0.398164
vt 0.537709 0.342929
vt 0.572947 0.343366
vt 0.563970 0.343255
vt 0.619553 0.011619
vt 0.601659 -0.042513
vt 0.601644 0.011450
vt 0.627607 0.233538
vt 0.582833 0.233116
vt 0.644598 0.233698
vt 0.643841 0.344245
vt 0.651990 0.399636
vt 0.610706 -0.210315
vt 0.652357 0.344350
vt 0.487643 0.010376
vt 0.539443 -0.155526
vt 0.610679 -0.154852
vt 0.688279 0.344795
vt 0.678809 0.400008
vt 0.687956 0.400135
vt 0.670009 0.344569
vt 0.688612 0.287960
vt 0.688927 0.234116
vt 0.725353 0.012616
vt 0.556709 -0.210826
vt 0.548045 -0.210908
vt 0.625100 0.677196
vt 0.668410 0.677606
vt 0.650714 0.677438
vt 0.686726 0.677779
vt 1.051103 0.015687
vt 1.050202 0.237522
vt 0.527112 0.676268
vt 0.607101 0.677026
vn -0.6781 -0.7340 -0.0384
vn 0.9989 -0.0479 0.0018
vn -1.0000 -0.0081 -0.0004
vn -0.9985 -0.0553 0.0017
vn 0.9155 0.4018 -0.0222
vn -0.9999 -0.0117 -0.0015
vn -1.0000 -0.0000 0.0007
vn -1.0000 0.0036 0.0003
vn -0.9955 0.0951 -0.0005
vn 0.9990 -0.0443 0.0031
vn -0.9702 0.2424 0.0003
vn -0.9601 0.2796 0.0031
vn -0.9997 -0.0228 0.0028
vn -0.5406 -0.8406 0.0346
vn 0.9998 -0.0182 0.0072
vn -0.9837 0.1795 -0.0069
vn 1.0000 0.0045 0.0040
vn -0.9820 0.1887 -0.0065
vn 1.0000 0.0058 -0.0003
vn 0.9999 0.0108 -0.0011
vn 0.9958 -0.0920 -0.0033
vn -1.0000 0.0073 0.0053
vn 0.0226 0.9931 0.1150
vn -0.7282 -0.6852 0.0129
vn 0.9845 -0.1748 0.0142
vn -1.0000 0.0099 -0.0006
vn -0.9243 -0.3813 -0.0142
vn -0.9969 -0.0780 -0.0072
vn -0.9758 0.2187 -0.0041
vn -0.9972 -0.0753 0.0029
vn -0.9999 0.0099 0.0047
vn 0.4680 0.8490 0.2452
vn -0.9990 -0.0437 0.0018
vn -0.9999 0.0104 0.0034
vn -1.0000 -0.0076 -0.0008
vn -1.0000 0.0081 0.0002
vn 0.9976 0.0669 -0.0195
vn -1.0000 -0.0035 -0.0003
vn -0.9997 -0.0226 -0.0059
vn -1.0000 0.0067 0.0005
vn 0.2989 0.9543 0.0060
vn -1.0000 0.0023 -0.0006
vn -0.9998 -0.0194 0.0001
vn 1.0000 -0.0082 0.0039
vn 0.9526 0.3039 0.0115
vn -1.0000 -0.0022 0.0002
vn 1.0000 0.0046 0.0013
vn -0.9405 -0.3398 -0.0009
vn -0.9999 -0.0163 -0.0007
vn 0.6096 0.7922 0.0263
vn 1.0000 -0.0002 0.0027
vn -0.9999 -0.0124 0.0003
vn -1.0000 0.0072 -0.0002
vn -0.3455 0.9328 0.1029
vn 0.7293 0.6842 -0.0031
vn -0.9985 0.0551 0.0017
vn -1.0000 0.0031 -0.0002
vn -0.8385 -0.5449 0.0069
vn 0.9942 -0.1073 0.0056
vn 0.9993 -0.0363 0.0053
vn -1.0000 -0.0068 0.0003
vn 1.0000 0.0051 0.0023
vn 0.9999 0.0146 0.0089
vn -0.9527 -0.3036 0.0105
vn 0.9482 0.3176 0.0084
vn -1.0000 -0.0019 -0.0000
vn 0.9941 0.1079 0.0056
vn -1.0000 -0.0022 -0.0000
vn -0.9993 -0.0379 0.0016
vn -0.6295 -0.7764 0.0310
vn -0.9996 0.0094 0.0260
vn 0.9986 -0.0522 0.0081
vn 0.9616 -0.2743 -0.0042
vn 0.9999 -0.0118 0.0017
vn -0.9998 0.0173 0.0023
vn 1.0000 -0.0016 0.0000
vn -0.9999 -0.0147 -0.0023
vn -0.6919 -0.7215 0.0269
vn -0.9965 0.0827 0.0110
vn -0.7369 -0.6748 -0.0388
vn 1.0000 -0.0002 -0.0004
vn -0.9316 -0.3605 -0.0472
vn 0.9985 0.0553 -0.0017
vn 1.0000 -0.0023 0.0006
vn 1.0000 0.0081 0.0004
vn 0.3103 -0.9489 0.0579
vn 1.0000 0.0003 0.0033
vn 0.9999 0.0104 -0.0010
vn 1.0000 -0.0050 0.0002
vn 0.9999 0.0117 0.0015
vn 0.9998 0.0194 -0.0001
vn -1.0000 0.0082 -0.0039
vn -0.9526 -0.3039 -0.0115
vn -1.0000 -0.0046 -0.0013
vn 1.0000 0.0022 -0.0002
vn 1.0000 0.0021 -0.0002
vn -0.9999 -0.0105 -0.0013
vn -0.9990 0.0443 -0.0031
vn 0.9601 -0.2796 -0.0031
vn 0.9702 -0.2424 -0.0003
vn 0.9997 0.0228 -0.0028
vn 0.5406 0.8406 -0.0346
vn -0.9998 0.0182 -0.0072
vn -1.0000 -0.0045 -0.0040
vn 0.9837 -0.1795 0.0069
vn -1.0000 -0.0058 0.0003
vn -0.9958 0.0920 0.0033
vn -0.9999 -0.0108 0.0011
vn 1.0000 -0.0073 -0.0053
vn -0.0226 -0.9931 -0.1150
vn -0.9845 0.1748 -0.0142
vn 0.7282 0.6852 -0.0129
vn 1.0000 -0.0099 0.0006
vn 0.9243 0.3813 0.0142
vn 0.9758 -0.2187 0.0041
vn 0.9969 0.0780 0.0072
vn 0.9972 0.0753 -0.0029
vn 0.9999 -0.0099 -0.0047
vn -0.4680 -0.8490 -0.2452
vn 0.9990 0.0437 -0.0018
vn 0.9999 -0.0104 -0.0034
vn 1.0000 0.0076 0.0008
vn 1.0000 -0.0081 -0.0002
vn -0.9976 -0.0669 0.0195
vn 1.0000 0.0035 0.0003
vn 0.9997 0.0226 0.0059
vn 1.0000 -0.0067 -0.0005
vn -0.9952 0.0970 -0.0096
vn -0.9945 -0.1043 -0.0070
vn -0.7293 -0.6842 0.0031
vn 0.9985 -0.0551 -0.0017
vn 1.0000 -0.0031 0.0002
vn -1.0000 0.0002 -0.0027
vn 0.9999 0.0124 -0.0003
vn 0.9999 0.0146 0.0002
vn -1.0000 -0.0051 -0.0023
vn 0.2979 0.9546 -0.0010
vn 1.0000 0.0068 -0.0003
vn -0.8820 -0.4705 -0.0264
vn -0.9999 -0.0146 -0.0089
vn 0.6064 0.7942 -0.0400
vn -0.8985 0.4374 -0.0377
vn 0.9998 -0.0185 0.0002
vn 0.9998 -0.0173 -0.0023
vn -0.9962 -0.0840 -0.0222
vn -0.9999 -0.0066 -0.0124
vn -0.9941 -0.1079 -0.0056
vn 0.9991 -0.0431 0.0031
vn 0.0411 0.9991 0.0144
vn -0.9946 0.1039 -0.0074
vn -0.9974 0.0716 -0.0017
vn -0.9999 0.0130 0.0018
vn 0.9968 -0.0791 -0.0105
vn 0.7486 0.6630 -0.0048
vn -0.9990 0.0446 0.0073
vn 0.9998 0.0116 -0.0166
vn 0.9999 0.0147 0.0023
vn -1.0000 0.0016 -0.0000
usemtl algae_green
s off
f 70/1/1 74/2/1 69/3/1
f 60/4/2 69/3/2 74/2/2
f 15/5/3 14/6/3 37/7/3
f 14/6/4 35/8/4 37/7/4
f 37/7/5 38/9/5 5/10/5
f 15/5/6 37/7/6 5/10/6
f 5/10/7 3/11/7 15/5/7
f 3/11/8 36/12/8 15/5/8
f 36/12/9 34/13/9 40/14/9
f 44/15/10 17/16/10 8/17/10
f 8/17/11 46/18/11 31/19/11
f 46/18/12 42/20/12 31/19/12
f 42/20/13 9/21/13 33/22/13
f 31/19/14 13/23/14 11/24/14
f 12/25/15 49/26/15 20/27/15
f 31/19/16 11/24/16 8/17/16
f 11/24/17 12/25/17 19/28/17
f 8/17/18 11/24/18 18/29/18
f 42/20/19 33/22/19 31/19/19
f 43/30/20 44/15/20 41/31/20
f 44/15/21 8/17/21 41/31/21
f 53/32/22 54/33/22 6/34/22
f 6/34/23 55/35/23 23/36/23
f 23/36/24 58/37/24 68/38/24
f 58/37/25 59/39/25 68/38/25
f 59/39/26 66/40/26 67/41/26
f 59/39/27 67/41/27 68/38/27
f 53/32/28 6/34/28 68/38/28
f 6/34/29 23/36/29 68/38/29
f 73/42/30 10/43/30 27/44/30
f 27/44/31 78/45/31 81/46/31
f 81/46/32 2/47/32 1/48/32
f 79/49/33 28/50/33 16/51/33
f 77/52/34 76/53/34 71/54/34
f 80/55/35 79/49/35 16/51/35
f 80/55/36 16/51/36 77/52/36
f 27/44/37 81/46/37 1/48/37
f 72/56/38 73/42/38 27/44/38
f 68/38/39 72/56/39 53/32/39
f 1/48/40 80/55/40 77/52/40
f 36/12/41 40/14/41 39/57/41
f 45/58/42 29/59/42 15/5/42
f 32/60/43 47/61/43 45/58/43
f 52/62/44 51/63/44 50/64/44
f 7/65/45 52/62/45 50/64/45
f 48/66/46 32/60/46 24/67/46
f 32/60/47 45/58/47 15/5/47
f 25/68/48 32/60/48 15/5/48
f 25/68/49 15/5/49 57/69/49
f 11/24/50 19/28/50 21/70/50
f 12/25/51 20/27/51 19/28/51
f 57/69/52 56/71/52 25/68/52
f 57/69/53 15/5/53 36/12/53
f 38/9/54 4/72/54 5/10/54
f 7/65/55 50/64/55 48/66/55
f 24/67/56 7/65/56 48/66/56
f 25/68/57 24/67/57 32/60/57
f 36/12/58 39/57/58 57/69/58
f 18/29/59 57/69/59 8/17/59
f 57/69/60 39/57/60 8/17/60
f 41/31/61 30/73/61 43/30/61
f 39/57/62 41/31/62 8/17/62
f 21/70/63 22/74/63 18/29/63
f 11/24/64 21/70/64 18/29/64
f 27/44/65 1/48/65 53/32/65
f 1/48/66 77/52/66 53/32/66
f 53/32/67 72/56/67 27/44/67
f 53/32/68 77/52/68 71/54/68
f 22/74/69 53/32/69 71/54/69
f 22/74/70 71/54/70 63/75/70
f 71/54/71 70/1/71 63/75/71
f 18/29/72 22/74/72 63/75/72
f 26/76/73 18/29/73 65/77/73
f 65/77/74 18/29/74 63/75/74
f 60/4/75 61/78/75 63/75/75
f 69/3/76 64/79/76 60/4/76
f 64/79/77 62/80/77 60/4/77
f 69/3/78 60/4/78 70/1/78
f 60/4/79 63/75/79 70/1/79
f 70/1/80 75/81/80 74/2/80
f 36/12/81 3/11/81 5/10/81
f 4/72/82 38/9/82 37/7/82
f 37/7/83 35/8/83 14/6/83
f 15/5/84 29/59/84 45/58/84
f 37/7/85 14/6/85 15/5/85
f 5/10/86 4/72/86 37/7/86
f 34/13/87 36/12/87 5/10/87
f 40/14/88 34/13/88 32/60/88
f 34/13/89 5/10/89 32/60/89
f 5/10/90 37/7/90 15/5/90
f 45/58/91 47/61/91 32/60/91
f 50/64/92 51/63/92 52/62/92
f 50/64/93 52/62/93 7/65/93
f 45/58/94 32/60/94 15/5/94
f 32/60/95 48/66/95 24/67/95
f 40/14/96 32/60/96 57/69/96
f 5/10/97 15/5/97 32/60/97
f 8/82/98 17/16/98 44/15/98
f 42/20/99 46/83/99 31/19/99
f 46/83/100 8/82/100 31/19/100
f 33/22/101 9/21/101 42/20/101
f 11/24/102 13/23/102 31/19/102
f 20/27/103 49/26/103 12/25/103
f 12/25/104 11/24/104 19/28/104
f 11/24/105 31/19/105 8/82/105
f 31/19/106 33/22/106 42/20/106
f 8/82/107 44/15/107 41/31/107
f 44/15/108 43/30/108 41/31/108
f 6/84/109 54/33/109 53/32/109
f 23/36/110 55/35/110 6/84/110
f 59/85/111 58/86/111 68/38/111
f 58/86/112 23/36/112 68/38/112
f 67/41/113 66/87/113 59/85/113
f 68/38/114 67/41/114 59/85/114
f 23/36/115 6/84/115 68/38/115
f 6/84/116 53/32/116 68/38/116
f 27/44/117 10/43/117 73/42/117
f 81/46/118 78/45/118 27/44/118
f 1/88/119 2/89/119 81/46/119
f 16/51/120 28/50/120 79/49/120
f 71/54/121 76/53/121 77/52/121
f 16/51/122 79/49/122 80/55/122
f 77/52/123 16/51/123 80/55/123
f 1/88/124 81/46/124 27/44/124
f 27/44/125 73/42/125 72/56/125
f 72/56/126 68/38/126 53/32/126
f 77/52/127 80/55/127 1/88/127
f 11/24/128 8/82/128 39/90/128
f 19/28/129 11/24/129 39/90/129
f 48/66/130 50/64/130 7/65/130
f 48/66/131 7/65/131 24/67/131
f 25/68/132 32/60/132 24/67/132
f 20/27/133 12/25/133 19/28/133
f 25/68/134 56/71/134 57/69/134
f 32/60/135 25/68/135 57/69/135
f 41/31/136 39/90/136 8/82/136
f 39/90/137 40/14/137 19/28/137
f 43/30/138 30/73/138 41/31/138
f 77/52/139 1/88/139 27/44/139
f 22/74/140 21/91/140 18/29/140
f 21/91/141 19/28/141 57/69/141
f 18/29/142 21/91/142 57/69/142
f 19/28/143 40/14/143 57/69/143
f 63/75/144 61/78/144 60/4/144
f 71/54/145 77/52/145 27/44/145
f 70/1/146 71/54/146 27/44/146
f 27/44/147 72/56/147 53/32/147
f 70/1/148 27/44/148 22/74/148
f 27/44/149 53/32/149 22/74/149
f 70/1/150 22/74/150 18/29/150
f 70/1/151 18/29/151 26/76/151
f 65/77/152 63/75/152 26/76/152
f 63/75/153 60/4/153 75/81/153
f 75/81/154 60/4/154 74/2/154
f 75/81/155 70/1/155 26/76/155
f 75/81/156 26/76/156 63/75/156
f 62/80/157 64/79/157 60/4/157
f 64/79/158 69/3/158 60/4/158
