# Blender v2.92.0 OBJ File: 'algae.blend'
# www.blender.org
mtllib 33.mtl
o algae_cube_Cube
v -0.005738 0.106924 -1.573397
v -0.002867 0.088941 1.506267
v -0.006524 -0.048453 -1.599609
v -0.001944 -0.061424 1.494213
v -0.003400 0.063578 -0.000000
v -0.006574 -0.068101 -0.000000
v -0.006626 -0.055073 -0.801625
v -0.005121 0.098094 -0.777593
v -0.006520 0.074837 0.813406
v -0.002114 -0.052343 0.760842
v -0.003404 -0.057843 -1.136569
v -0.003837 0.103102 -1.142953
v -0.001706 0.079351 -0.359888
v -0.001601 -0.055746 -0.359661
v -0.005483 -0.085698 0.398106
v -0.006009 0.094878 0.402285
v -0.002695 0.070018 1.132791
v -0.006603 -0.054859 1.207169
v 0.002263 -0.012776 0.000000
v 0.006139 -0.017156 -0.793166
v 0.002458 -0.056067 0.763020
v 0.006634 -0.041191 -1.202649
v 0.003957 -0.014235 -0.368246
v 0.006635 -0.011678 0.407756
v 0.004097 -0.009793 1.152293
v 0.004780 0.064565 -1.159513
v 0.005025 -0.030983 0.197391
v 0.001835 0.044784 0.189830
v 0.001699 -0.018216 -0.179937
v 0.006636 0.055933 -0.193423
v 0.006648 -0.012598 -0.594485
v 0.001623 0.056385 -0.552627
v 0.005971 -0.037617 -0.988004
v 0.001604 0.039533 -0.931832
v 0.006113 0.052062 -1.375785
v 0.002438 -0.047137 0.946488
v 0.004406 0.052704 0.969575
v 0.001670 -0.023533 0.568891
v 0.003887 0.032115 0.581662
v 0.006061 -0.018248 1.388434
v 0.001594 0.056723 1.306986
v 0.001596 -0.066659 -1.205918
v 0.001599 0.024977 -1.205942
v 0.001873 0.019809 -1.394713
vt 0.643463 0.399518
vt 0.608433 0.399032
vt 0.627218 0.287293
vt 0.644229 0.287478
vt 0.537200 0.398044
vt 0.538232 0.286325
vt 0.555494 0.286513
vt 0.714776 0.400507
vt 0.678809 0.400008
vt 0.697735 0.288059
vt 0.661241 0.287663
vt 0.572481 0.398533
vt 0.715365 0.288251
vt 0.732449 0.400752
vt 0.573425 0.286708
vt 0.591356 0.286903
vt 0.502458 0.397562
vt 0.503577 0.285949
vt 0.520970 0.286138
vt 0.592689 0.011366
vt 0.609287 0.287098
vt 0.662490 0.012024
vt 0.628508 0.011703
vt 0.741032 0.345449
vt 0.732994 0.288443
vt 0.698940 0.012367
vt 0.556870 0.011028
vt 0.749097 0.400983
vt 1.051103 0.015687
vt 0.731277 0.678201
vt 0.487643 0.010376
vt 0.518449 0.676186
vt 0.522387 0.010703
vt 0.679488 0.287861
vt 0.556709 -0.210826
vt 0.734882 -0.209139
vt 0.695884 0.677866
vt 0.204504 0.007695
vt 0.522054 -0.211154
vt 0.758683 0.345668
vt 0.769373 0.013031
vt 0.766669 0.678536
vt 0.592707 -0.210485
vt 0.553104 0.676514
vt 0.770274 -0.208804
vt 0.741549 0.234612
vt 0.734157 0.012699
vt 0.662857 -0.209821
vt 0.625100 0.677196
vt 0.699490 -0.209474
vt 0.659252 0.677519
vt 0.628705 -0.210144
vt 0.589102 0.676855
vt 0.483530 0.675856
vn 0.9995 -0.0309 0.0116
vn 0.9978 -0.0666 -0.0011
vn 0.9998 -0.0200 0.0011
vn 0.9974 0.0719 -0.0032
vn 0.9979 -0.0645 0.0106
vn 0.9999 -0.0171 -0.0004
vn 0.9989 0.0430 0.0187
vn 0.9986 -0.0461 0.0274
vn 0.9999 -0.0034 -0.0140
vn 0.9973 0.0738 -0.0028
vn 0.9986 0.0525 -0.0064
vn 0.9867 -0.1625 0.0074
vn 0.9998 0.0188 0.0081
vn 0.9913 -0.1312 0.0092
vn 0.9895 0.0690 -0.1266
vn 0.9449 -0.3256 0.0334
vn -0.5877 -0.7984 -0.1314
vn 0.9793 0.2024 -0.0025
vn -0.9990 0.0415 0.0172
vn 0.9991 0.0409 -0.0114
vn 0.9956 -0.0935 0.0115
vn 0.9914 -0.1305 0.0108
vn 0.9092 0.4163 -0.0046
vn 0.9948 0.1014 0.0049
vn 0.9810 0.1938 -0.0094
vn 0.9991 0.0020 -0.0416
vn 0.9929 -0.1190 0.0017
vn 0.9829 0.1841 0.0102
vn 0.9875 -0.1577 0.0017
vn 0.9689 -0.2472 -0.0114
vn 0.9978 0.0652 0.0123
vn 0.6978 -0.7163 0.0030
vn -0.9995 -0.0304 -0.0102
vn 0.9932 -0.0822 -0.0824
vn -0.8818 -0.4716 -0.0036
vn 0.9797 -0.1984 0.0281
vn 0.8700 0.4924 0.0257
vn 0.9720 -0.2345 -0.0130
vn 0.8692 -0.4943 0.0125
vn -0.9997 0.0241 0.0038
vn 0.9972 0.0752 -0.0043
vn 0.9680 -0.2505 -0.0170
vn 0.9882 0.1533 -0.0012
vn 0.9981 0.0618 -0.0074
vn -0.9999 -0.0008 0.0114
vn 0.9863 -0.1639 0.0183
vn 0.9998 -0.0186 -0.0047
vn 0.9983 -0.0536 -0.0231
vn 0.9474 -0.3200 0.0049
vn 0.9992 -0.0374 -0.0103
vn -0.6417 -0.7661 0.0372
vn -0.9999 0.0114 -0.0097
vn 0.9911 -0.1333 0.0051
vn 0.9547 0.2432 0.1715
vn 0.5451 -0.0002 -0.8383
vn 0.9785 0.2033 0.0360
vn 0.9991 0.0411 -0.0102
vn -1.0000 0.0043 0.0045
vn 0.9914 -0.1308 0.0091
vn 1.0000 -0.0000 0.0014
vn 0.9725 -0.2320 -0.0211
vn 0.9753 0.2210 -0.0068
vn 0.9819 0.1892 -0.0083
vn 0.9740 -0.2050 0.0963
vn 0.8747 -0.4846 0.0108
vn 0.9871 -0.1577 -0.0284
vn -0.9999 -0.0031 0.0096
vn -0.9996 0.0241 -0.0130
vn 0.8672 0.4974 0.0253
vn 0.9916 0.1291 -0.0058
vn 0.9430 0.3322 -0.0189
vn 0.9999 0.0164 0.0028
vn 0.9679 0.2510 -0.0132
vn 0.9879 0.1553 -0.0002
vn 0.9368 0.3499 0.0036
vn -1.0000 -0.0061 -0.0001
vn -0.9992 0.0387 0.0125
vn -1.0000 -0.0028 -0.0063
vn -0.9999 0.0085 0.0086
vn -1.0000 -0.0028 -0.0036
vn 0.9998 0.0044 0.0217
vn -1.0000 -0.0024 0.0067
vn -0.9994 -0.0334 -0.0029
vn -1.0000 -0.0008 -0.0047
usemtl algae_green
s off
f 30/1/1 28/2/1 19/3/1
f 19/3/2 29/4/2 30/1/2
f 37/5/3 36/6/3 21/7/3
f 34/8/4 32/9/4 20/10/4
f 30/1/5 29/4/5 23/11/5
f 39/12/6 37/5/6 21/7/6
f 33/13/7 26/14/7 34/8/7
f 39/12/8 38/15/8 24/16/8
f 32/9/9 30/1/9 23/11/9
f 28/2/10 39/12/10 24/16/10
f 41/17/11 40/18/11 25/19/11
f 24/16/12 15/20/12 27/21/12
f 37/5/13 41/17/13 25/19/13
f 14/22/14 29/4/14 6/23/14
f 43/24/15 26/14/15 22/25/15
f 20/10/16 7/26/16 33/13/16
f 38/15/17 21/7/17 10/27/17
f 35/28/18 1/29/18 12/30/18
f 4/31/19 17/32/19 18/33/19
f 24/16/20 27/21/20 28/2/20
f 26/14/21 43/24/21 35/28/21
f 23/11/22 14/22/22 31/34/22
f 37/5/23 9/35/23 17/32/23
f 34/8/24 12/36/24 8/37/24
f 2/38/25 41/17/25 17/39/25
f 44/40/26 3/41/26 1/42/26
f 15/20/27 38/15/27 10/27/27
f 39/12/28 16/43/28 9/44/28
f 19/3/29 6/23/29 29/4/29
f 7/26/30 31/34/30 14/22/30
f 23/11/31 31/34/31 32/9/31
f 10/27/32 36/6/32 18/33/32
f 18/33/33 9/44/33 10/27/33
f 35/28/34 44/40/34 1/45/34
f 3/41/35 42/46/35 11/47/35
f 25/19/36 18/33/36 36/6/36
f 30/1/37 13/48/37 5/49/37
f 6/23/38 27/21/38 15/20/38
f 11/47/39 33/13/39 7/26/39
f 15/20/40 5/49/40 6/23/40
f 32/9/41 31/34/41 20/10/41
f 18/33/42 25/19/42 40/18/42
f 32/9/43 8/50/43 13/51/43
f 20/10/44 33/13/44 34/8/44
f 13/51/45 7/26/45 14/22/45
f 15/20/46 24/16/46 38/15/46
f 25/19/47 36/6/47 37/5/47
f 44/40/48 42/46/48 3/41/48
f 7/26/49 20/10/49 31/34/49
f 21/7/50 38/15/50 39/12/50
f 10/27/51 21/7/51 36/6/51
f 8/37/52 11/47/52 7/26/52
f 35/28/53 43/24/53 44/40/53
f 41/17/54 4/31/54 40/18/54
f 22/25/55 42/46/55 43/24/55
f 34/8/56 26/14/56 12/36/56
f 27/21/57 19/3/57 28/2/57
f 3/41/58 12/30/58 1/42/58
f 14/22/59 23/11/59 29/4/59
f 44/40/60 43/24/60 42/46/60
f 40/18/61 4/31/61 18/33/61
f 12/30/62 26/14/62 35/28/62
f 28/2/63 5/52/63 16/53/63
f 42/46/64 22/25/64 11/47/64
f 11/47/65 22/25/65 33/13/65
f 6/23/66 19/3/66 27/21/66
f 10/27/67 16/53/67 15/20/67
f 5/49/68 14/22/68 6/23/68
f 30/1/69 5/52/69 28/2/69
f 34/8/70 8/50/70 32/9/70
f 39/12/71 9/35/71 37/5/71
f 33/13/72 22/25/72 26/14/72
f 32/9/73 13/48/73 30/1/73
f 28/2/74 16/43/74 39/12/74
f 37/5/75 17/39/75 41/17/75
f 4/31/76 2/38/76 17/32/76
f 18/33/77 17/32/77 9/44/77
f 15/20/78 16/53/78 5/49/78
f 13/51/79 8/37/79 7/26/79
f 8/37/80 12/30/80 11/47/80
f 41/17/81 2/54/81 4/31/81
f 3/41/82 11/47/82 12/30/82
f 10/27/83 9/44/83 16/53/83
f 5/49/84 13/51/84 14/22/84
