# Blender v2.92.0 OBJ File: 'algae.blend'
# www.blender.org
mtllib 5.mtl
o algae_cube_Cube
v -0.003642 0.102162 -1.469582
v 0.003251 0.097131 -1.483545
v 0.003607 0.097820 1.481634
v 0.004660 -0.052933 -1.900105
v 0.004445 -0.061159 1.922938
v -0.003515 0.064877 -0.000000
v -0.004863 -0.065695 -0.000000
v 0.003690 0.097081 0.754538
v 0.003497 0.090922 -1.125586
v -0.003234 0.101729 -1.103088
v 0.003457 0.023638 -0.407100
v 0.003757 0.086720 0.384582
v -0.004758 -0.083204 0.504522
v -0.003663 0.090710 0.381766
v -0.003689 -0.019472 -1.807220
v -0.003870 -0.045813 -1.410255
v 0.003608 0.048747 -1.617854
v -0.003976 0.054624 0.407237
v 0.003061 0.093973 0.189731
v -0.004739 -0.050448 0.240701
v -0.003343 0.099989 0.187608
v 0.003513 0.091386 -0.180867
v 0.004005 -0.058707 -0.231121
v 0.003529 0.070211 -0.577525
v 0.003428 0.076991 -0.962158
v 0.003348 0.040379 -1.025676
v 0.003221 0.073099 -1.345229
v 0.004292 -0.062472 -1.671788
v -0.004999 -0.082483 -1.719988
v -0.004041 0.021534 -1.469438
v -0.003528 0.098840 -1.283227
v 0.004022 0.049444 -1.402209
v -0.004870 -0.064633 1.219368
v 0.003672 0.096809 0.566192
v -0.003370 0.062270 1.297721
v -0.003642 0.095138 1.397259
v 0.003641 0.093115 1.402528
v 0.004334 -0.068282 1.822916
v -0.004311 -0.052078 1.780711
v -0.003229 0.097983 1.025200
v 0.003084 0.095561 1.029855
v 0.003372 0.093397 0.851164
v -0.003911 0.071715 0.885456
v 0.003712 0.091769 0.666783
v 0.004066 -0.062452 0.857280
v -0.003906 -0.049947 0.841834
v -0.003711 0.099566 0.469394
v 0.003003 0.101191 0.280776
v -0.003985 -0.071334 0.372108
v -0.003850 0.081795 0.097015
v -0.003753 0.065178 -0.094821
v 0.003194 0.077963 -0.092681
v -0.004203 -0.053671 -0.114717
v 0.003809 0.049230 -0.097491
v 0.003699 0.091484 -0.271251
v 0.003693 -0.019827 -0.327155
v 0.003685 0.060159 -0.286983
v -0.003227 0.096386 -0.268789
v -0.003201 0.074866 -0.472766
v 0.003414 0.056773 -0.488131
v 0.004429 -0.011457 -0.546072
v 0.003030 0.099044 -0.643490
v 0.004435 -0.053442 -0.827748
v 0.004498 -0.013888 -0.779953
v -0.003494 0.101485 -0.640540
v -0.003530 0.092415 -0.843298
v 0.003713 0.075832 -0.869234
v 0.004849 -0.069310 -1.096251
v -0.004764 -0.063581 -1.087290
v 0.004613 -0.027574 -1.030971
v -0.004343 -0.019068 -1.017668
v 0.004345 0.011803 -1.182779
v -0.004476 -0.016355 -1.236515
v 0.004576 -0.041588 -1.284670
v -0.003825 -0.042738 -1.286864
v -0.003628 0.062351 -1.086312
v 0.003455 0.024023 -1.364152
v 0.003870 0.056750 -1.290670
v 0.004691 -0.049382 -1.765250
v -0.004395 -0.073238 -1.827093
v 0.003945 0.047131 -1.515059
vt 0.651990 0.399636
vt 0.724179 0.288347
vt 0.644598 0.233698
vt 0.706686 0.288157
vt 0.706979 0.234286
vt 0.528028 0.453025
vt 0.508846 0.676095
vt 0.492260 0.675938
vt 0.493177 0.452490
vt 0.484448 0.452356
vt 0.486742 0.232211
vt 0.545354 0.453291
vt 0.544440 0.676432
vt 0.527112 0.676268
vt 0.496329 0.010457
vt 0.495428 0.232292
vt 0.539629 0.010866
vt 0.592689 0.011366
vt 0.592702 -0.155022
vt 0.601644 0.011450
vt 0.610599 0.011534
vt 0.565825 0.011112
vt 0.589102 0.676855
vt 0.580102 0.676770
vt 0.590013 0.453976
vt 0.572015 0.453700
vt 0.616100 0.677111
vt 0.607101 0.677026
vt 0.625100 0.677196
vt 0.608011 0.454252
vt 0.714485 0.455886
vt 0.628508 0.011703
vt 0.637003 0.011783
vt 0.564923 0.232947
vt 0.643084 0.454791
vt 0.634936 0.399399
vt 0.634547 0.454660
vt 0.650714 0.677438
vt 0.651622 0.454922
vt 0.669317 0.455193
vt 0.668410 0.677606
vt 0.687632 0.455474
vt 0.678474 0.455334
vt 0.704869 0.677951
vt 0.686726 0.677779
vt 0.633638 0.677277
vt 0.705774 0.455753
vt 0.747946 0.678359
vt 0.731277 0.678201
vt 0.748849 0.456414
vt 0.732180 0.456158
vt 0.740773 0.400868
vt 0.749097 0.400983
vt 0.714776 0.400507
vt 0.599012 0.454114
vt 0.979769 0.236858
vt 0.723892 0.345237
vt 0.741032 0.345449
vt 0.768472 0.234866
vt 0.759157 0.234778
vt 0.749842 0.234691
vt 0.767570 0.456701
vt 0.758446 0.401113
vt 0.563016 0.453562
vt 1.051103 0.015687
vt 0.837902 0.013677
vt 0.760058 0.012943
vt 0.750743 0.012855
vt 0.751147 -0.098063
vt 0.725864 -0.153763
vt 0.734333 -0.041261
vt 0.708024 -0.041510
vt 0.725518 -0.041345
vt 0.725693 -0.098303
vt 0.707880 0.012451
vt 0.688927 0.234116
vt 0.688612 0.287960
vt 0.652735 0.287570
vt 0.554017 0.453424
vt 0.670364 0.287762
vt 0.660874 0.344456
vt 0.495865 -0.211402
vt 0.530718 -0.211072
vt 0.583707 -0.210570
vt 0.610706 -0.210315
vt 0.619705 -0.210229
vt 0.628705 -0.210144
vt 0.654319 -0.209902
vt 0.690331 -0.209561
vt 0.734882 -0.209139
vt 0.767796 0.401242
vt 0.770274 -0.208804
vt 0.769592 -0.040929
vn -1.0000 -0.0030 -0.0006
vn -1.0000 -0.0064 0.0005
vn -0.9987 0.0469 -0.0182
vn 1.0000 0.0056 0.0001
vn 0.2636 0.9646 0.0059
vn -0.9504 0.3109 -0.0053
vn 0.4578 0.8733 -0.1664
vn 0.8938 0.4484 -0.0109
vn -1.0000 0.0017 -0.0057
vn 0.9861 0.1648 0.0205
vn 0.9983 -0.0578 0.0003
vn 0.4971 0.8633 -0.0870
vn 0.7379 0.6739 -0.0371
vn -0.9444 0.3234 -0.0597
vn 0.6864 0.7271 -0.0105
vn -0.9992 0.0407 -0.0067
vn -0.7148 -0.6994 -0.0007
vn -0.9972 0.0745 -0.0003
vn -0.5159 -0.8567 0.0007
vn 0.8693 0.4916 -0.0507
vn 0.9999 -0.0117 -0.0014
vn -0.9998 -0.0203 -0.0067
vn -0.5782 -0.8159 -0.0021
vn 0.9338 0.3572 -0.0186
vn 0.9850 0.1715 -0.0180
vn -0.9995 -0.0308 -0.0059
vn 1.0000 -0.0058 0.0001
vn -0.3741 -0.9253 -0.0617
vn -0.9176 -0.3975 -0.0021
vn 0.9637 0.2668 -0.0059
vn 0.7980 0.6006 -0.0497
vn 0.9993 0.0363 -0.0010
vn 1.0000 -0.0018 -0.0002
vn 0.9407 0.3391 0.0111
vn -0.9974 -0.0703 -0.0167
vn 0.7616 -0.6411 -0.0948
vn 0.8765 -0.4806 0.0262
vn 0.9998 0.0187 -0.0005
vn 0.9972 0.0747 -0.0008
vn -0.9964 0.0842 0.0028
vn 0.9999 -0.0152 0.0002
vn 0.9993 0.0362 -0.0022
vn 0.9501 0.3108 -0.0264
vn 0.9999 0.0112 -0.0007
vn -0.9999 0.0115 0.0005
vn -0.9994 -0.0342 0.0016
vn 0.9996 -0.0271 0.0005
vn 0.9999 0.0158 -0.0030
vn -1.0000 -0.0068 -0.0013
vn -1.0000 -0.0034 -0.0018
vn 1.0000 0.0081 0.0000
vn 0.0000 0.9408 -0.3389
vn 0.9998 -0.0072 -0.0161
vn 0.9966 -0.0825 -0.0087
vn -0.9998 0.0189 -0.0040
vn -1.0000 0.0073 -0.0017
vn -0.9954 0.0960 -0.0077
vn 0.9997 0.0253 -0.0003
vn 1.0000 -0.0094 -0.0007
vn -1.0000 0.0093 0.0001
vn -1.0000 0.0037 -0.0018
vn 1.0000 0.0014 -0.0027
vn 0.9985 -0.0539 0.0001
vn -0.9999 -0.0140 0.0014
vn -0.9994 0.0333 -0.0020
vn 1.0000 -0.0016 0.0003
vn 0.9668 0.2553 -0.0136
vn 0.9987 -0.0516 0.0012
vn 1.0000 0.0042 0.0001
vn 0.2715 0.9624 0.0059
vn 1.0000 0.0026 0.0001
vn -0.5043 -0.8634 0.0110
vn 0.9994 0.0319 -0.0145
vn 0.9806 -0.1960 -0.0048
vn 0.9995 0.0321 -0.0011
vn 0.9999 -0.0138 0.0023
vn 1.0000 -0.0030 0.0000
vn 0.9988 -0.0494 -0.0003
vn -1.0000 -0.0015 0.0055
vn -0.8938 -0.4484 0.0109
vn -1.0000 -0.0056 -0.0001
vn 0.9987 -0.0469 0.0182
vn -0.4578 -0.8733 0.1664
vn 0.9504 -0.3109 0.0053
vn -0.2636 -0.9646 -0.0059
vn -0.9983 0.0578 -0.0003
vn 0.8129 -0.5822 0.0139
vn 0.8423 0.5390 0.0016
vn 1.0000 -0.0062 -0.0007
vn 0.7938 0.6075 0.0297
vn -0.9964 0.0848 0.0031
vn 1.0000 -0.0031 -0.0003
vn -0.7379 -0.6739 0.0371
vn -0.4971 -0.8633 0.0870
vn -0.6926 -0.7196 0.0501
vn 0.9444 -0.3234 0.0597
vn 0.9882 -0.1505 0.0273
vn 0.8216 0.5700 -0.0142
vn -1.0000 -0.0001 -0.0000
vn -1.0000 -0.0075 0.0002
vn -1.0000 -0.0044 0.0003
vn -0.9358 0.3525 0.0006
vn 0.9998 0.0203 0.0067
vn 0.5782 0.8159 0.0021
vn -0.9850 -0.1715 0.0180
vn -0.9338 -0.3572 0.0186
vn 0.9995 0.0308 0.0059
vn 0.3741 0.9253 0.0617
vn -1.0000 0.0058 -0.0001
vn 0.9176 0.3975 0.0021
vn -0.7980 -0.6006 0.0497
vn -0.9637 -0.2668 0.0059
vn -0.9993 -0.0363 0.0010
vn -0.9407 -0.3391 -0.0111
vn -0.9999 0.0144 -0.0070
vn 0.9974 0.0703 0.0167
vn -0.7616 0.6411 0.0948
vn -0.8765 0.4806 -0.0262
vn -0.9998 -0.0181 -0.0063
vn 0.9964 -0.0842 -0.0028
vn -0.9993 -0.0362 0.0022
vn -0.9999 -0.0112 0.0007
vn -0.9501 -0.3108 0.0264
vn 0.9994 0.0342 -0.0016
vn 0.9999 -0.0115 -0.0005
vn -0.9996 0.0271 -0.0005
vn -0.9999 -0.0158 0.0030
vn 1.0000 0.0034 0.0018
vn 1.0000 0.0068 0.0013
vn -0.9990 -0.0451 0.0019
vn -1.0000 -0.0081 -0.0000
vn -0.0000 -0.9408 0.3389
vn -0.9966 0.0825 0.0087
vn -0.9998 0.0072 0.0161
vn -0.9994 -0.0319 0.0145
vn 0.9998 -0.0189 0.0040
vn 0.9993 -0.0370 0.0007
vn 0.9996 -0.0258 0.0079
vn 0.9996 0.0267 -0.0010
vn -0.9993 -0.0364 0.0013
vn 0.9999 -0.0127 0.0021
vn 1.0000 -0.0037 0.0018
vn 0.9994 -0.0333 0.0020
vn -0.9999 0.0169 -0.0025
vn 0.5043 0.8634 -0.0110
vn -0.9987 0.0516 -0.0012
vn -1.0000 -0.0042 -0.0001
vn -0.2715 -0.9624 -0.0059
vn -1.0000 -0.0026 -0.0001
vn -1.0000 0.0066 -0.0002
vn 0.9953 -0.0934 0.0265
vn -0.9972 0.0733 0.0122
vn -0.9995 -0.0301 0.0006
vn -0.7818 -0.6215 0.0496
vn -1.0000 -0.0053 -0.0002
usemtl algae_green
s off
f 57/1/1 74/2/1 23/3/1
f 70/4/2 74/2/2 68/5/2
f 41/6/3 35/7/3 36/8/3
f 37/9/4 3/10/4 5/11/4
f 41/6/5 36/8/5 37/9/5
f 42/12/6 43/13/6 41/6/6
f 43/13/7 40/14/7 41/6/7
f 39/15/8 38/16/8 33/17/8
f 13/18/9 18/19/9 49/20/9
f 13/18/10 49/20/10 20/21/10
f 39/15/11 33/17/11 46/22/11
f 14/23/12 47/24/12 12/25/12
f 47/24/13 34/26/13 12/25/13
f 50/27/14 21/28/14 6/29/14
f 21/28/15 19/30/15 25/31/15
f 6/29/16 21/28/16 25/31/16
f 5/11/17 39/15/17 23/3/17
f 39/15/18 46/22/18 7/32/18
f 23/3/19 39/15/19 53/33/19
f 46/22/20 45/34/20 13/18/20
f 46/22/21 13/18/21 20/21/21
f 22/35/22 54/36/22 52/37/22
f 58/38/23 55/39/23 22/35/23
f 60/40/24 59/41/24 52/37/24
f 59/41/25 58/38/25 52/37/25
f 62/42/26 24/43/26 60/40/26
f 66/44/27 65/45/27 51/46/27
f 65/45/28 62/42/28 51/46/28
f 25/31/29 67/47/29 66/44/29
f 31/48/30 10/49/30 27/50/30
f 10/49/31 9/51/31 27/50/31
f 78/52/32 32/53/32 27/50/32
f 26/54/33 25/31/33 12/25/33
f 25/31/34 66/44/34 6/29/34
f 62/42/35 60/40/35 51/46/35
f 58/38/36 22/35/36 52/37/36
f 52/37/37 51/46/37 60/40/37
f 70/4/38 26/54/38 37/9/38
f 25/31/39 19/30/39 12/25/39
f 66/44/40 51/46/40 6/29/40
f 37/9/41 26/54/41 12/25/41
f 19/30/42 48/55/42 12/25/42
f 27/50/43 9/51/43 17/56/43
f 9/51/44 72/57/44 17/56/44
f 77/58/45 78/52/45 17/56/45
f 78/52/46 27/50/46 17/56/46
f 4/59/47 79/60/47 28/61/47
f 2/62/48 81/63/48 17/56/48
f 17/56/49 4/59/49 77/58/49
f 4/59/50 28/61/50 77/58/50
f 12/25/51 34/26/51 44/64/51
f 1/65/52 2/62/52 17/56/52
f 15/66/52 1/65/52 17/56/52
f 80/67/53 15/66/53 74/2/53
f 15/66/54 17/56/54 72/57/54
f 29/68/55 30/69/55 80/67/55
f 76/70/56 16/71/56 71/72/56
f 16/71/57 29/68/57 71/72/57
f 75/73/58 73/74/58 71/72/58
f 73/74/59 76/70/59 71/72/59
f 69/75/60 71/72/60 29/68/60
f 63/76/61 64/77/61 68/5/61
f 23/3/62 56/78/62 57/1/62
f 7/32/63 53/33/63 39/15/63
f 46/22/64 20/21/64 7/32/64
f 8/79/65 42/12/65 41/6/65
f 61/80/66 63/76/66 74/2/66
f 63/76/67 68/5/67 80/67/67
f 69/75/68 29/68/68 80/67/68
f 12/25/69 44/64/69 37/9/69
f 8/79/70 41/6/70 37/9/70
f 44/64/71 8/79/71 37/9/71
f 68/5/72 69/75/72 80/67/72
f 15/66/73 72/57/73 74/2/73
f 63/76/74 80/67/74 74/2/74
f 61/80/75 74/2/75 11/81/75
f 57/1/76 11/81/76 74/2/76
f 70/4/4 37/9/4 5/11/4
f 74/2/77 70/4/77 5/11/77
f 74/2/78 5/11/78 23/3/78
f 20/21/79 49/20/79 18/19/79
f 33/17/80 38/16/80 39/15/80
f 5/11/81 3/10/81 37/9/81
f 36/82/82 35/7/82 41/6/82
f 40/83/83 43/13/83 41/6/83
f 43/13/84 42/12/84 41/6/84
f 37/9/85 36/82/85 41/6/85
f 46/22/86 33/17/86 39/15/86
f 13/18/87 45/34/87 39/15/87
f 45/34/88 46/22/88 39/15/88
f 20/21/89 18/19/89 13/18/89
f 23/3/90 53/33/90 13/18/90
f 53/33/91 7/32/91 13/18/91
f 7/32/92 20/21/92 13/18/92
f 34/26/93 47/84/93 12/25/93
f 47/84/94 14/23/94 12/25/94
f 19/30/95 21/85/95 57/1/95
f 21/85/96 50/86/96 6/87/96
f 21/85/97 6/87/97 57/1/97
f 13/18/98 39/15/98 5/11/98
f 57/1/99 56/78/99 37/9/99
f 56/78/100 23/3/100 5/11/100
f 37/9/101 56/78/101 5/11/101
f 23/3/102 13/18/102 5/11/102
f 52/37/103 54/36/103 22/35/103
f 22/35/104 55/39/104 58/88/104
f 58/88/105 59/41/105 52/37/105
f 59/41/106 60/40/106 52/37/106
f 60/40/107 24/43/107 62/42/107
f 62/42/108 65/89/108 51/46/108
f 65/89/109 66/44/109 51/46/109
f 66/44/110 67/47/110 25/31/110
f 9/51/111 10/90/111 27/50/111
f 10/90/112 31/48/112 27/50/112
f 27/50/113 32/53/113 78/52/113
f 66/44/114 25/31/114 6/87/114
f 25/31/115 26/54/115 6/87/115
f 60/40/116 62/42/116 51/46/116
f 22/35/117 58/88/117 52/37/117
f 51/46/118 52/37/118 60/40/118
f 26/54/119 70/4/119 6/87/119
f 51/46/120 66/44/120 6/87/120
f 12/25/121 48/55/121 19/30/121
f 72/57/122 9/51/122 17/91/122
f 9/51/123 27/50/123 17/91/123
f 27/50/124 78/52/124 17/91/124
f 78/52/125 77/58/125 17/91/125
f 28/61/126 79/60/126 4/59/126
f 17/91/127 81/63/127 2/62/127
f 28/61/128 4/59/128 77/58/128
f 4/59/129 17/91/129 77/58/129
f 12/25/130 19/30/130 57/1/130
f 44/64/131 34/26/131 12/25/131
f 17/91/132 2/62/132 1/92/132
f 17/91/132 1/92/132 15/93/132
f 17/91/133 15/93/133 72/57/133
f 15/93/134 80/67/134 74/2/134
f 72/57/135 15/93/135 74/2/135
f 80/67/136 30/69/136 29/68/136
f 29/68/137 16/71/137 69/75/137
f 16/71/138 76/70/138 73/74/138
f 73/74/139 75/73/139 16/71/139
f 16/71/140 75/73/140 71/72/140
f 71/72/141 69/75/141 16/71/141
f 68/5/142 64/77/142 63/76/142
f 41/6/143 42/12/143 8/79/143
f 68/5/144 63/76/144 61/80/144
f 69/75/145 68/5/145 80/67/145
f 29/68/146 69/75/146 80/67/146
f 44/64/147 12/25/147 37/9/147
f 37/9/148 41/6/148 8/79/148
f 37/9/149 8/79/149 44/64/149
f 12/25/150 57/1/150 37/9/150
f 11/81/151 57/1/151 6/87/151
f 74/2/152 80/67/152 68/5/152
f 61/80/153 11/81/153 70/4/153
f 11/81/154 6/87/154 70/4/154
f 68/5/155 61/80/155 70/4/155
