# Blender v2.92.0 OBJ File: 'algae.blend'
# www.blender.org
mtllib 51.mtl
o algae_cube_Cube
v -0.001756 0.123128 -2.062369
v -0.005686 0.100489 2.425068
v -0.001372 0.057062 0.036378
v -0.006242 -0.058512 -0.169747
v -0.002498 -0.037736 -1.119838
v -0.001419 0.110725 -1.007240
v -0.006644 0.069342 1.310063
v -0.003162 -0.039353 1.036704
v -0.001144 -0.047440 -1.639790
v -0.006164 0.122361 -1.270708
v -0.001388 0.085606 -0.465019
v -0.004148 -0.045462 -0.606907
v -0.006764 -0.089537 0.266781
v -0.005923 0.102837 0.832703
v -0.001592 0.068772 1.674191
v -0.002494 -0.037444 1.577878
v 0.003800 0.003770 -0.006654
v 0.001651 -0.002038 -1.073912
v 0.001924 -0.069510 1.158031
v 0.006438 0.001747 -0.524113
v 0.001750 0.006938 0.541309
v 0.002451 0.009174 1.610019
v 0.006423 -0.025264 0.348901
v 0.001369 0.051441 0.241012
v 0.003689 -0.005584 -0.249880
v 0.004735 0.063854 -0.400393
v 0.002161 0.005486 -0.802695
v 0.004104 0.071311 -0.934785
v 0.006419 -0.035022 -1.240522
v 0.001309 0.042602 -1.371150
v 0.001104 -0.054400 1.386556
v 0.006878 0.062374 1.159685
v 0.003817 -0.014649 0.846443
v 0.002568 0.028736 0.786385
vt 0.643463 0.399518
vt 0.608433 0.399032
vt 0.627218 0.287293
vt 0.644229 0.287478
vt 0.537200 0.398044
vt 0.538232 0.286325
vt 0.555494 0.286513
vt 0.714776 0.400507
vt 0.678809 0.400008
vt 0.697735 0.288059
vt 0.661241 0.287663
vt 0.572481 0.398533
vt 0.573425 0.286708
vt 0.591356 0.286903
vt 0.522054 -0.211154
vt 0.483530 0.675856
vt 0.520970 0.286138
vt 0.592689 0.011366
vt 0.609287 0.287098
vt 0.662490 0.012024
vt 0.628508 0.011703
vt 0.698940 0.012367
vt 0.715365 0.288251
vt 0.556870 0.011028
vt 0.679488 0.287861
vt 0.204504 0.007695
vt 0.518449 0.676186
vt 0.522387 0.010703
vt 0.556709 -0.210826
vt 0.734882 -0.209139
vt 0.695884 0.677866
vt 0.592707 -0.210485
vt 0.553104 0.676514
vt 0.662857 -0.209821
vt 0.625100 0.677196
vt 0.734157 0.012699
vt 0.589102 0.676855
vt 0.699490 -0.209474
vt 0.659252 0.677519
vt 0.731277 0.678201
vt 0.766669 0.678536
vt 1.051103 0.015687
vt 0.770274 -0.208804
vt 0.628705 -0.210144
vn 0.9998 0.0216 0.0057
vn 0.9999 -0.0148 0.0001
vn 0.9993 -0.0376 0.0061
vn 0.9997 -0.0243 -0.0048
vn 0.9999 0.0071 0.0102
vn 0.9993 -0.0374 -0.0082
vn 0.9998 0.0215 -0.0052
vn 0.9996 0.0290 -0.0008
vn 1.0000 -0.0087 -0.0026
vn 0.9979 0.0648 0.0027
vn 0.9553 -0.2870 0.0712
vn 0.9826 -0.1856 -0.0008
vn 0.9773 -0.2007 0.0677
vn -0.8295 -0.5492 -0.1017
vn 0.9986 0.0507 0.0158
vn 0.9967 0.0807 0.0107
vn 0.9818 -0.1893 -0.0176
vn -0.9999 0.0140 -0.0060
vn 0.4191 0.9080 -0.0044
vn 0.9939 0.1096 -0.0131
vn 0.9782 -0.2075 0.0089
vn 0.9941 0.1082 0.0091
vn 0.9845 -0.1752 0.0063
vn 0.9931 -0.1175 0.0014
vn 0.9980 -0.0619 -0.0162
vn -0.9734 -0.2292 0.0020
vn -1.0000 0.0074 0.0012
vn 0.9916 -0.1257 0.0298
vn 0.9470 0.3207 0.0182
vn 0.9824 -0.1862 -0.0121
vn 0.4999 -0.8659 0.0175
vn -1.0000 0.0065 -0.0007
vn 0.9995 -0.0315 -0.0010
vn 0.9885 0.1513 0.0070
vn 0.9963 0.0852 0.0116
vn -0.9997 0.0241 -0.0029
vn 0.9983 -0.0573 -0.0108
vn 0.9992 -0.0394 0.0052
vn -0.9998 -0.0174 -0.0056
vn 0.9931 -0.1172 0.0014
vn 0.9987 0.0491 0.0147
vn -0.9897 -0.1431 0.0059
vn -0.9997 -0.0249 -0.0021
vn 0.9974 0.0724 0.0040
vn 0.9980 0.0626 -0.0023
vn 0.9990 -0.0402 -0.0177
vn 0.9743 -0.2251 0.0038
vn 0.9923 -0.1215 0.0235
vn 0.9756 0.2195 -0.0070
vn 0.9931 -0.1161 -0.0168
vn -0.9999 -0.0116 0.0054
vn -0.9988 0.0481 -0.0033
vn 0.3991 0.9167 0.0198
vn 0.9934 0.1137 -0.0138
vn -0.3949 0.9154 -0.0779
vn 0.9604 0.2785 0.0028
vn 0.9937 0.1123 0.0025
vn -0.9977 -0.0665 0.0137
vn -0.9983 0.0582 -0.0091
vn -1.0000 0.0070 0.0004
vn -0.9998 -0.0062 0.0177
vn 0.9963 0.0862 0.0056
vn -0.9997 -0.0240 -0.0032
vn -0.9998 0.0198 0.0012
usemtl algae_green
s off
f 26/1/1 24/2/1 17/3/1
f 17/3/2 25/4/2 26/1/2
f 32/5/3 31/6/3 19/7/3
f 30/8/4 28/9/4 18/10/4
f 26/1/5 25/4/5 20/11/5
f 34/12/6 32/5/6 19/7/6
f 34/12/7 33/13/7 21/14/7
f 28/9/8 26/1/8 20/11/8
f 24/2/9 34/12/9 21/14/9
f 15/15/10 2/16/10 22/17/10
f 21/14/11 13/18/11 23/19/11
f 12/20/12 25/4/12 4/21/12
f 18/10/13 5/22/13 29/23/13
f 33/13/14 19/7/14 8/24/14
f 32/5/15 15/15/15 22/17/15
f 21/14/16 23/19/16 24/2/16
f 20/11/17 12/20/17 27/25/17
f 2/26/18 15/27/18 16/28/18
f 32/5/19 7/29/19 15/27/19
f 30/8/20 10/30/20 6/31/20
f 13/18/21 33/13/21 8/24/21
f 34/12/22 14/32/22 7/33/22
f 17/3/23 4/21/23 25/4/23
f 5/22/24 27/25/24 12/20/24
f 20/11/25 27/25/25 28/9/25
f 8/24/26 31/6/26 16/28/26
f 15/27/27 8/24/27 16/28/27
f 22/17/28 16/28/28 31/6/28
f 26/1/29 11/34/29 3/35/29
f 4/21/30 23/19/30 13/18/30
f 9/36/31 29/23/31 5/22/31
f 14/37/32 4/21/32 13/18/32
f 28/9/33 27/25/33 18/10/33
f 28/9/34 6/38/34 11/39/34
f 18/10/35 29/23/35 30/8/35
f 11/39/36 5/22/36 12/20/36
f 13/18/37 21/14/37 33/13/37
f 22/17/38 31/6/38 32/5/38
f 10/40/39 1/41/39 9/36/39
f 5/22/40 18/10/40 27/25/40
f 19/7/41 33/13/41 34/12/41
f 8/24/42 19/7/42 31/6/42
f 5/22/43 10/40/43 9/36/43
f 1/42/44 30/8/44 29/23/44
f 23/19/45 17/3/45 24/2/45
f 29/23/46 9/36/46 1/43/46
f 12/20/47 20/11/47 25/4/47
f 2/16/48 16/28/48 22/17/48
f 24/2/49 3/44/49 14/37/49
f 4/21/50 17/3/50 23/19/50
f 8/24/51 14/37/51 13/18/51
f 3/35/52 12/20/52 4/21/52
f 26/1/53 3/44/53 24/2/53
f 30/8/54 6/38/54 28/9/54
f 34/12/55 7/29/55 32/5/55
f 28/9/56 11/34/56 26/1/56
f 24/2/57 14/32/57 34/12/57
f 15/27/58 7/33/58 8/24/58
f 14/37/59 3/35/59 4/21/59
f 11/39/60 6/31/60 5/22/60
f 5/22/61 6/31/61 10/40/61
f 1/42/62 10/30/62 30/8/62
f 8/24/63 7/33/63 14/37/63
f 3/35/64 11/39/64 12/20/64
