# Blender v2.92.0 OBJ File: 'algae.blend'
# www.blender.org
mtllib 54.mtl
o algae_cube_Cube
v -0.004638 0.132177 -1.705504
v -0.003037 0.100848 1.627067
v -0.005548 -0.020988 -1.764617
v -0.005019 -0.053140 1.728981
v -0.005548 0.056844 -0.000000
v -0.003559 -0.054759 -0.000000
v -0.005508 -0.033413 -0.880895
v -0.005285 0.120501 -0.873225
v -0.003014 0.066073 0.827010
v -0.003779 -0.033309 0.843872
v -0.005209 -0.044609 -1.306039
v -0.004577 0.131001 -1.276410
v -0.005403 0.090848 -0.423259
v -0.003482 -0.039923 -0.396973
v -0.003012 -0.088579 0.413480
v -0.003969 0.106115 0.424319
v -0.005387 0.070555 1.320899
v -0.005529 -0.033088 1.328376
v 0.003366 0.010055 0.000000
v 0.005525 0.003786 -0.881513
v 0.004454 -0.074747 0.861908
v 0.003009 -0.038629 -1.219485
v 0.003978 0.007916 -0.402674
v 0.005486 0.014610 0.447594
v 0.003803 0.016328 1.250956
v 0.004497 0.088780 -1.272959
v 0.003042 -0.022413 0.206888
v 0.005336 0.055666 0.222481
v 0.003596 -0.000468 -0.199111
v 0.004612 0.068702 -0.205525
v 0.005547 0.012890 -0.653980
v 0.003393 0.074584 -0.608434
v 0.003160 -0.033394 -1.019962
v 0.005415 0.045202 -1.097057
v 0.005052 0.063637 -1.502119
v 0.005481 -0.059390 1.110426
v 0.003097 0.064044 1.028086
v 0.003745 -0.010770 0.632274
v 0.005135 0.028212 0.662317
v 0.004641 0.001564 1.495293
v 0.003241 0.074954 1.433574
v 0.005192 -0.064409 -1.407632
v 0.003012 0.047448 -1.315298
v 0.003030 0.037584 -1.519218
vt 0.643463 0.399518
vt 0.608433 0.399032
vt 0.627218 0.287293
vt 0.644229 0.287478
vt 0.537200 0.398044
vt 0.538232 0.286325
vt 0.555494 0.286513
vt 0.714776 0.400507
vt 0.678809 0.400008
vt 0.697735 0.288059
vt 0.661241 0.287663
vt 0.572481 0.398533
vt 0.715365 0.288251
vt 0.732449 0.400752
vt 0.573425 0.286708
vt 0.591356 0.286903
vt 0.502458 0.397562
vt 0.503577 0.285949
vt 0.520970 0.286138
vt 0.592689 0.011366
vt 0.609287 0.287098
vt 0.662490 0.012024
vt 0.628508 0.011703
vt 0.741032 0.345449
vt 0.732994 0.288443
vt 0.698940 0.012367
vt 0.556870 0.011028
vt 0.749097 0.400983
vt 1.051103 0.015687
vt 0.731277 0.678201
vt 0.204504 0.007695
vt 0.522387 0.010703
vt 0.487643 0.010376
vt 0.679488 0.287861
vt 0.556709 -0.210826
vt 0.518449 0.676186
vt 0.734882 -0.209139
vt 0.695884 0.677866
vt 0.522054 -0.211154
vt 0.758683 0.345668
vt 0.769373 0.013031
vt 0.766669 0.678536
vt 0.592707 -0.210485
vt 0.553104 0.676514
vt 0.770274 -0.208804
vt 0.741549 0.234612
vt 0.734157 0.012699
vt 0.662857 -0.209821
vt 0.625100 0.677196
vt 0.589102 0.676855
vt 0.699490 -0.209474
vt 0.659252 0.677519
vt 0.628705 -0.210144
vt 0.483530 0.675856
vn 0.9995 -0.0304 -0.0026
vn 0.9999 -0.0145 0.0019
vn 0.9999 0.0159 -0.0051
vn 0.9998 0.0184 0.0030
vn 0.9999 -0.0146 0.0013
vn 1.0000 0.0035 0.0052
vn 0.9989 -0.0446 -0.0163
vn 0.9992 -0.0388 0.0041
vn 1.0000 -0.0006 -0.0030
vn 1.0000 0.0094 0.0010
vn 0.9999 0.0171 -0.0024
vn 0.9966 -0.0829 0.0026
vn 0.9999 0.0117 -0.0007
vn 0.9886 -0.1502 -0.0054
vn 0.9997 -0.0187 -0.0168
vn 0.9573 -0.2829 0.0596
vn -0.9741 -0.2187 -0.0579
vn 0.9901 0.1407 0.0002
vn -0.9999 0.0142 0.0020
vn 0.9996 -0.0282 -0.0058
vn 0.9990 -0.0432 0.0072
vn 0.9881 -0.1537 0.0031
vn 0.4782 0.8782 -0.0057
vn 0.9920 0.1260 0.0050
vn 0.6540 0.7523 -0.0795
vn 0.9993 0.0083 -0.0369
vn 0.9896 -0.1423 0.0200
vn 0.9877 0.1555 0.0131
vn 0.9943 -0.1062 0.0068
vn 0.9797 -0.2006 -0.0068
vn 0.9995 0.0299 0.0068
vn -0.9316 -0.3635 -0.0032
vn -1.0000 0.0011 -0.0036
vn 0.9975 -0.0378 -0.0603
vn -0.9223 -0.3860 -0.0192
vn 0.9939 -0.0917 0.0613
vn 0.4177 0.9056 0.0729
vn 0.9918 -0.1274 -0.0117
vn 0.3946 -0.9185 0.0245
vn -1.0000 -0.0050 0.0009
vn 0.9993 0.0360 -0.0015
vn 0.9776 -0.2097 -0.0160
vn 0.9557 0.2937 0.0196
vn 0.9993 -0.0359 -0.0074
vn -0.9999 -0.0139 0.0040
vn 0.9967 -0.0815 -0.0018
vn 0.9998 0.0201 0.0011
vn 0.9994 -0.0135 -0.0317
vn 0.9587 -0.2842 0.0113
vn 0.9996 -0.0274 -0.0107
vn -0.9820 -0.1883 0.0157
vn -1.0000 0.0037 -0.0008
vn 0.9968 -0.0799 0.0040
vn 0.9961 0.0668 0.0568
vn 0.9999 0.0112 0.0101
vn 0.9757 0.2136 0.0478
vn 0.9996 -0.0288 -0.0029
vn -1.0000 0.0059 0.0002
vn 0.9880 -0.1546 -0.0045
vn 0.9998 0.0202 -0.0009
vn 0.9742 -0.2255 -0.0125
vn 0.9778 0.2085 -0.0205
vn 0.9363 0.3485 -0.0440
vn -0.5344 -0.8382 0.1087
vn 0.4139 -0.9100 0.0236
vn 0.9942 -0.1062 -0.0151
vn -1.0000 -0.0049 -0.0012
vn -0.9998 -0.0178 -0.0009
vn -0.4700 0.8822 0.0277
vn 0.9877 0.1561 -0.0053
vn 0.9485 0.3157 -0.0256
vn 0.9999 -0.0119 -0.0004
vn 0.8968 0.4424 0.0037
vn 0.9894 0.1446 0.0095
vn -0.1572 0.9872 -0.0265
vn -1.0000 0.0019 0.0075
vn -1.0000 0.0069 -0.0049
vn -0.9998 -0.0178 0.0058
vn -1.0000 0.0015 -0.0002
vn -1.0000 0.0015 -0.0017
vn 0.9995 0.0079 0.0314
vn -1.0000 0.0034 0.0009
vn -1.0000 0.0082 0.0032
vn -0.9999 -0.0150 -0.0015
usemtl algae_green
s off
f 30/1/1 28/2/1 19/3/1
f 19/3/2 29/4/2 30/1/2
f 37/5/3 36/6/3 21/7/3
f 34/8/4 32/9/4 20/10/4
f 30/1/5 29/4/5 23/11/5
f 39/12/6 37/5/6 21/7/6
f 33/13/7 26/14/7 34/8/7
f 39/12/8 38/15/8 24/16/8
f 32/9/9 30/1/9 23/11/9
f 28/2/10 39/12/10 24/16/10
f 41/17/11 40/18/11 25/19/11
f 24/16/12 15/20/12 27/21/12
f 37/5/13 41/17/13 25/19/13
f 14/22/14 29/4/14 6/23/14
f 43/24/15 26/14/15 22/25/15
f 20/10/16 7/26/16 33/13/16
f 38/15/17 21/7/17 10/27/17
f 35/28/18 1/29/18 12/30/18
f 2/31/19 18/32/19 4/33/19
f 24/16/20 27/21/20 28/2/20
f 26/14/21 43/24/21 35/28/21
f 23/11/22 14/22/22 31/34/22
f 37/5/23 9/35/23 17/36/23
f 34/8/24 12/37/24 8/38/24
f 2/31/25 41/17/25 17/39/25
f 44/40/26 3/41/26 1/42/26
f 15/20/27 38/15/27 10/27/27
f 39/12/28 16/43/28 9/44/28
f 19/3/29 6/23/29 29/4/29
f 7/26/30 31/34/30 14/22/30
f 23/11/31 31/34/31 32/9/31
f 10/27/32 36/6/32 18/32/32
f 17/36/33 10/27/33 18/32/33
f 35/28/34 44/40/34 1/45/34
f 3/41/35 42/46/35 11/47/35
f 25/19/36 18/32/36 36/6/36
f 30/1/37 13/48/37 5/49/37
f 6/23/38 27/21/38 15/20/38
f 11/47/39 33/13/39 7/26/39
f 16/50/40 6/23/40 15/20/40
f 32/9/41 31/34/41 20/10/41
f 18/32/42 25/19/42 40/18/42
f 32/9/43 8/51/43 13/52/43
f 20/10/44 33/13/44 34/8/44
f 13/52/45 7/26/45 14/22/45
f 15/20/46 24/16/46 38/15/46
f 25/19/47 36/6/47 37/5/47
f 44/40/48 42/46/48 3/41/48
f 7/26/49 20/10/49 31/34/49
f 21/7/50 38/15/50 39/12/50
f 10/27/51 21/7/51 36/6/51
f 7/26/52 12/30/52 11/47/52
f 35/28/53 43/24/53 44/40/53
f 41/17/54 4/33/54 40/18/54
f 22/25/55 42/46/55 43/24/55
f 34/8/56 26/14/56 12/37/56
f 27/21/57 19/3/57 28/2/57
f 3/41/58 12/30/58 1/42/58
f 14/22/59 23/11/59 29/4/59
f 44/40/60 43/24/60 42/46/60
f 40/18/61 4/33/61 18/32/61
f 12/30/62 26/14/62 35/28/62
f 28/2/63 5/53/63 16/50/63
f 42/46/64 22/25/64 11/47/64
f 11/47/65 22/25/65 33/13/65
f 6/23/66 19/3/66 27/21/66
f 10/27/67 16/50/67 15/20/67
f 5/49/68 14/22/68 6/23/68
f 30/1/69 5/53/69 28/2/69
f 34/8/70 8/51/70 32/9/70
f 39/12/71 9/35/71 37/5/71
f 33/13/72 22/25/72 26/14/72
f 32/9/73 13/48/73 30/1/73
f 28/2/74 16/43/74 39/12/74
f 37/5/75 17/39/75 41/17/75
f 2/31/76 17/36/76 18/32/76
f 17/36/77 9/44/77 10/27/77
f 16/50/78 5/49/78 6/23/78
f 13/52/79 8/38/79 7/26/79
f 7/26/80 8/38/80 12/30/80
f 41/17/81 2/54/81 4/33/81
f 3/41/82 11/47/82 12/30/82
f 10/27/83 9/44/83 16/50/83
f 5/49/84 13/52/84 14/22/84
