# Blender v2.92.0 OBJ File: 'algae.blend'
# www.blender.org
mtllib 8.mtl
o algae_cube_Cube
v -0.001312 0.097797 -0.000000
v 0.006808 0.059908 0.000000
v 0.002599 -0.062854 0.000000
v -0.006460 -0.021019 -0.000000
v -0.007485 -0.127204 0.899574
v 0.003415 0.050002 0.449787
v 0.005876 -0.068392 0.449787
v -0.003863 -0.058147 0.449787
v -0.001018 -0.019293 0.449787
v -0.004669 0.040761 0.449787
v -0.007091 0.089962 1.332581
v -0.005673 -0.085193 0.899574
v 0.006443 0.000929 0.899574
v 0.004896 -0.099037 0.449787
v 0.002259 -0.107540 1.332581
v -0.003319 0.017586 -0.000000
v -0.006858 -0.001092 0.449787
v -0.001546 0.013462 1.332581
v 0.006050 0.032738 0.224894
v 0.001684 -0.135854 0.224894
v -0.001841 -0.132156 0.224894
v -0.004469 0.030191 0.224894
v 0.000909 -0.110170 -0.213359
v -0.006920 -0.119544 -0.213359
v -0.002193 0.005549 -0.213359
v 0.005822 -0.079268 -0.213359
v 0.004709 0.056334 1.116078
v 0.002570 -0.100481 1.116078
v -0.004278 -0.105346 1.116078
v -0.001624 0.053531 1.116078
v 0.003965 -0.019629 1.116078
v -0.007299 -0.013519 1.116078
v 0.006857 -0.056322 0.674681
v -0.005668 -0.076720 0.674681
v 0.006975 0.050731 0.674681
v -0.001472 0.084907 1.550728
v 0.007808 0.038253 1.550728
v 0.006713 -0.006835 1.550728
v 0.001009 -0.042785 1.452562
v 0.005436 -0.079845 1.452562
v 0.007763 -0.018140 1.452562
v -0.005328 -0.012312 1.452562
v -0.004702 0.113271 1.452562
v -0.003962 0.025060 1.224329
v 0.006001 0.030941 1.224329
v 0.007594 -0.077487 1.224329
v -0.004991 -0.124851 1.224329
v 0.002183 -0.060809 1.224329
v 0.001039 0.035732 1.007826
v 0.003126 -0.122672 1.007826
v -0.006622 0.022174 1.007826
v 0.002454 -0.054850 1.007826
v 0.007534 0.013500 1.007826
v -0.002343 -0.104633 1.007826
v -0.000959 0.003650 1.007826
v -0.005603 0.087695 1.007826
v 0.004388 -0.108440 0.787128
v -0.001517 -0.060834 0.787128
v 0.002777 -0.080580 0.787128
v 0.002858 0.056770 0.562234
v 0.004075 -0.068634 0.562234
v -0.004485 -0.100985 0.562234
v -0.005356 -0.058850 0.337340
v 0.006426 -0.022767 0.337340
v 0.007053 -0.067993 0.337340
v -0.001438 0.017785 0.337340
v 0.006876 0.024237 0.112447
v -0.004982 -0.096803 0.112447
v 0.001607 -0.063890 -0.106680
v -0.004954 -0.076572 -0.106680
v 0.005856 -0.088921 -0.106680
vt 0.592689 0.011366
vt 0.583728 -0.042683
vt 0.574762 -0.042767
vt 0.627607 0.233538
vt 0.636102 0.233618
vt 0.635724 0.287385
vt 0.510847 0.342596
vt 0.510305 0.397670
vt 0.502458 0.397562
vt 0.522137 -0.155690
vt 0.522054 -0.211154
vt 0.527112 0.676268
vt 0.545354 0.453291
vt 0.546351 0.343036
vt 0.555494 0.286513
vt 0.564460 0.286610
vt 0.564923 0.232947
vt 0.582833 0.233116
vt 0.572481 0.398533
vt 0.581014 0.453838
vt 0.590013 0.453976
vt 0.592707 -0.210485
vt 0.544440 0.676432
vt 0.608011 0.454252
vt 0.617010 0.454390
vt 0.626009 0.454529
vt 0.637062 -0.042179
vt 0.645640 -0.099060
vt 0.645499 0.011863
vt 0.599877 0.343700
vt 0.591356 0.286903
vt 0.591788 0.233201
vt 0.565767 -0.099814
vt 0.548147 -0.099980
vt 0.548200 -0.043018
vt 0.528028 0.453025
vt 0.536691 0.453158
vt 0.539381 -0.210990
vt 0.592698 -0.099560
vt 0.610679 -0.154852
vt 0.628705 -0.210144
vt 0.628606 -0.099220
vt 0.600322 0.287000
vt 0.512547 -0.155780
vt 0.512451 -0.211245
vt 0.504595 -0.211319
vt 0.572947 0.343366
vt 0.628656 -0.154682
vt 0.601675 -0.099475
vt 0.609697 0.233370
vt 0.547348 0.232782
vt 0.546863 0.286419
vt 0.538232 0.286325
vt 0.538727 0.232701
vt 0.501906 0.452624
vt 0.548096 -0.155444
vt 0.601691 -0.154937
vt 0.556870 0.011028
vt 0.539443 -0.155526
vt 0.592702 -0.155022
vt 0.644598 0.233698
vt 0.644229 0.287478
vt 0.511404 0.286034
vt 0.520970 0.286138
vt 0.529601 0.286231
vt 0.530107 0.232619
vt 0.610599 0.011534
vt 0.531008 0.010784
vt 0.539629 0.010866
vt 0.556831 -0.042936
vt 0.619553 0.011619
vt 0.625100 0.677196
vt 0.589102 0.676855
vt 0.548045 -0.210908
vt 0.535776 0.676350
vt 0.500989 0.676021
vt 0.508846 0.676095
vn -0.9999 -0.0083 -0.0087
vn -0.9858 -0.1674 0.0108
vn 0.9636 -0.2641 0.0407
vn -0.9973 -0.0723 0.0145
vn 0.9989 0.0156 0.0448
vn 0.9983 0.0577 0.0088
vn -0.9729 0.2261 0.0478
vn -0.7519 0.6578 -0.0433
vn -0.6459 0.7606 -0.0651
vn 0.9998 0.0202 0.0058
vn -0.9993 0.0378 0.0032
vn -0.9995 0.0320 0.0081
vn 0.9994 0.0337 0.0104
vn 0.5056 -0.8566 -0.1031
vn -0.9299 0.3555 0.0945
vn 0.4028 -0.9098 0.0998
vn 0.9919 0.1268 0.0100
vn 0.9923 0.1234 0.0099
vn 0.9988 -0.0493 0.0031
vn -0.2260 0.9337 0.2775
vn 0.9774 0.2095 0.0286
vn 0.9565 0.2639 -0.1240
vn 0.9998 0.0139 0.0105
vn 0.9927 -0.1188 -0.0199
vn 0.9995 -0.0050 0.0304
vn 0.9888 -0.1417 0.0461
vn -0.9827 -0.1801 0.0440
vn -0.9966 0.0811 0.0124
vn -1.0000 -0.0019 0.0031
vn 0.9954 -0.0955 0.0101
vn -0.7248 -0.6890 -0.0032
vn 1.0000 -0.0011 0.0021
vn 0.9992 -0.0323 0.0230
vn 0.9998 -0.0172 0.0087
vn -0.0000 0.0000 1.0000
vn -0.9920 -0.0885 0.0901
vn -0.9985 -0.0552 0.0030
vn -0.9997 0.0250 -0.0065
vn -0.9985 -0.0527 0.0176
vn -0.9819 -0.1893 0.0056
vn -0.9517 -0.2885 0.1054
vn -0.9556 -0.2897 0.0545
vn -0.9988 0.0479 0.0031
vn 0.9964 -0.0843 0.0101
vn -0.8153 0.5773 0.0438
vn -0.9987 0.0511 0.0055
vn -0.9981 -0.0607 -0.0089
vn -0.9997 -0.0021 -0.0225
vn 0.9814 -0.1896 0.0288
vn -0.9995 -0.0307 0.0013
vn 0.7657 -0.6395 0.0683
vn 0.9876 -0.1570 0.0002
vn -0.9929 -0.1186 0.0049
vn -0.9991 0.0389 0.0175
vn 0.9851 0.1718 0.0003
vn -0.9512 -0.3086 0.0016
vn 0.7059 0.6729 0.2213
vn -0.9993 0.0363 0.0077
vn -1.0000 0.0099 0.0012
vn -0.9664 0.2568 -0.0097
vn -0.9764 0.2161 -0.0006
vn -0.5733 0.8070 0.1416
vn 0.9859 0.1674 0.0042
vn -0.9983 0.0431 0.0384
vn -0.8371 0.5468 0.0170
vn 0.0664 0.9944 0.0827
vn 0.9911 0.1329 0.0084
vn 0.1241 0.9476 0.2944
vn -0.0318 -0.9994 0.0100
vn 0.9993 -0.0378 -0.0032
vn -0.9998 -0.0202 -0.0058
vn -0.9774 -0.2095 -0.0286
vn 0.9392 0.3429 -0.0160
vn -0.9983 -0.0577 -0.0088
vn 0.9941 -0.1067 -0.0183
vn -0.9999 -0.0156 -0.0047
vn -0.9988 0.0493 -0.0031
vn 0.7526 -0.6584 -0.0136
vn 0.9966 -0.0807 -0.0155
vn 0.9988 -0.0479 0.0009
vn 0.9997 0.0253 0.0009
vn 0.9995 -0.0320 -0.0081
vn -0.9994 -0.0337 -0.0104
vn -0.9636 0.2641 -0.0407
vn 0.9973 0.0723 -0.0145
vn 0.4977 -0.8431 -0.2037
vn -0.9919 -0.1268 0.0090
vn 0.9827 0.1801 -0.0440
vn 0.9966 -0.0811 -0.0124
vn -0.9998 -0.0139 -0.0105
vn -0.9927 0.1188 0.0199
vn -0.8690 0.4896 0.0718
vn -1.0000 0.0011 -0.0021
vn 0.7239 0.6881 -0.0488
vn -0.8840 0.4675 -0.0076
vn -1.0000 -0.0036 -0.0069
vn -0.9992 0.0323 -0.0230
vn -0.9998 0.0172 -0.0087
vn 0.0000 0.0000 -1.0000
vn 0.9985 0.0552 -0.0030
vn 0.9981 0.0607 0.0089
vn 0.3991 -0.9016 -0.1670
vn 0.9956 0.0888 -0.0294
vn 0.9982 -0.0440 -0.0419
vn 0.2260 -0.9337 -0.2775
vn 0.9997 -0.0250 0.0065
vn -0.9995 0.0050 -0.0304
vn 0.9985 0.0527 -0.0176
vn 0.9819 0.1893 -0.0056
vn 0.9556 0.2897 -0.0545
vn 0.9517 0.2885 -0.1054
vn 0.9963 -0.0843 -0.0160
vn 0.8153 -0.5773 -0.0438
vn 0.9987 -0.0511 -0.0055
vn -0.9975 -0.0708 -0.0047
vn -0.9550 0.2964 -0.0116
vn 0.9991 0.0432 -0.0010
vn 0.9967 -0.0809 -0.0100
vn 0.9994 -0.0339 -0.0028
vn 0.9929 0.1186 -0.0043
vn 0.9991 -0.0389 -0.0175
vn -0.9782 0.2064 -0.0213
vn 0.9937 -0.1113 -0.0135
vn 0.5546 -0.7807 0.2881
vn 0.9983 -0.0431 -0.0384
vn -0.9876 0.1570 -0.0025
vn -0.7674 0.6410 -0.0129
vn 0.9878 0.1474 -0.0505
vn -0.9425 -0.3336 -0.0185
vn 0.9975 0.0710 -0.0048
vn -0.7059 -0.6729 -0.2213
vn -0.1241 -0.9476 -0.2944
vn 0.9970 -0.0778 -0.0006
vn -0.9995 -0.0275 -0.0130
vn 0.9957 0.0918 0.0080
usemtl algae_green
s off
f 8/1/1 62/2/1 34/3/1
f 3/4/2 69/5/2 71/6/2
f 39/7/3 41/8/3 38/9/3
f 18/10/4 11/11/4 44/12/4
f 49/13/5 52/14/5 13/15/5
f 59/16/6 57/17/6 61/18/6
f 35/19/7 60/20/7 13/15/7
f 60/20/8 6/21/8 10/22/8
f 56/23/9 60/20/9 10/22/9
f 19/24/10 67/25/10 2/26/10
f 70/27/11 25/28/11 24/29/11
f 64/30/12 14/31/12 7/32/12
f 58/33/13 51/34/13 54/35/13
f 18/10/14 44/12/14 45/36/14
f 45/36/15 27/37/15 39/7/15
f 27/37/16 30/38/16 9/39/16
f 56/23/17 49/13/17 60/20/17
f 49/13/18 13/15/18 60/20/18
f 13/15/19 59/16/19 61/18/19
f 22/40/20 19/24/20 1/41/20
f 19/24/21 2/26/21 1/41/21
f 4/42/22 70/27/22 24/29/22
f 65/43/23 64/30/23 7/32/23
f 34/3/24 58/33/24 54/35/24
f 42/44/25 18/10/25 43/45/25
f 18/10/26 45/36/26 36/46/26
f 13/15/27 61/18/27 33/47/27
f 16/48/28 4/42/28 63/49/28
f 4/42/29 24/29/29 63/49/29
f 65/43/30 7/32/30 20/50/30
f 7/32/31 8/1/31 3/4/31
f 13/15/32 33/47/32 35/19/32
f 50/51/33 53/52/33 31/53/33
f 50/51/34 31/53/34 28/54/34
f 38/9/35 37/55/35 36/46/35
f 39/7/36 38/9/36 36/46/36
f 55/56/37 56/23/37 10/22/37
f 22/40/38 1/41/38 16/48/38
f 36/46/39 43/45/39 18/10/39
f 66/57/40 22/40/40 16/48/40
f 5/58/41 50/51/41 54/35/41
f 50/51/42 28/54/42 54/35/42
f 27/37/43 9/39/43 39/7/43
f 30/38/44 32/59/44 9/39/44
f 32/59/45 55/56/45 10/22/45
f 10/22/35 17/60/35 9/39/35
f 63/49/46 66/57/46 16/48/46
f 32/59/47 10/22/47 9/39/47
f 39/7/48 36/46/48 45/36/48
f 9/39/49 63/49/49 23/61/49
f 39/7/50 9/39/50 23/61/50
f 63/49/51 24/29/51 23/61/51
f 23/61/52 26/62/52 40/63/52
f 40/63/53 39/7/53 23/61/53
f 15/64/54 40/63/54 48/65/54
f 40/63/55 26/62/55 48/65/55
f 46/66/56 48/65/56 26/62/56
f 21/67/57 20/50/57 3/4/57
f 3/4/58 20/50/58 7/32/58
f 46/66/59 26/62/59 71/6/59
f 47/68/60 46/66/60 28/54/60
f 46/66/61 71/6/61 28/54/61
f 28/54/62 29/69/62 47/68/62
f 28/54/63 71/6/63 69/5/63
f 12/70/64 5/58/64 54/35/64
f 54/35/65 28/54/65 69/5/65
f 34/3/66 54/35/66 8/1/66
f 54/35/67 69/5/67 8/1/67
f 3/4/68 68/71/68 21/67/68
f 69/5/69 3/4/69 8/1/69
f 24/29/70 25/28/70 70/27/70
f 2/26/71 67/25/71 19/24/71
f 1/72/72 2/26/72 19/24/72
f 6/21/73 60/20/73 35/19/73
f 61/18/74 57/17/74 59/16/74
f 13/15/75 52/14/75 6/21/75
f 52/14/76 49/13/76 6/21/76
f 61/18/77 59/16/77 13/15/77
f 10/73/78 6/21/78 49/13/78
f 6/21/79 35/19/79 13/15/79
f 24/29/80 70/27/80 34/3/80
f 70/27/81 4/42/81 34/3/81
f 7/32/82 14/31/82 64/30/82
f 54/35/83 51/34/83 58/33/83
f 38/9/84 41/8/84 39/7/84
f 44/12/85 11/11/85 18/10/85
f 27/37/86 45/36/86 44/12/86
f 49/13/87 56/74/87 10/73/87
f 33/47/88 61/18/88 13/15/88
f 4/42/89 16/48/89 63/49/89
f 7/32/90 64/30/90 65/43/90
f 54/35/91 58/33/91 34/3/91
f 27/37/92 44/12/92 18/10/92
f 35/19/93 33/47/93 13/15/93
f 8/1/94 7/32/94 23/61/94
f 7/32/95 65/43/95 26/62/95
f 8/1/96 23/61/96 62/2/96
f 31/53/97 53/52/97 50/51/97
f 28/54/98 31/53/98 50/51/98
f 17/60/99 10/73/99 9/39/99
f 10/73/100 56/74/100 55/56/100
f 9/39/101 10/73/101 32/59/101
f 30/75/102 27/37/102 18/10/102
f 36/76/99 37/55/99 38/9/99
f 36/76/103 38/9/103 18/10/103
f 38/9/104 39/7/104 18/10/104
f 1/72/105 19/24/105 22/40/105
f 16/48/106 1/72/106 22/40/106
f 42/44/107 43/77/107 18/10/107
f 43/77/108 36/76/108 18/10/108
f 16/48/109 22/40/109 66/57/109
f 28/54/110 50/51/110 54/35/110
f 50/51/111 5/58/111 54/35/111
f 32/59/112 30/75/112 18/10/112
f 55/56/113 32/59/113 10/73/113
f 16/48/114 66/57/114 63/49/114
f 4/42/115 63/49/115 34/3/115
f 9/39/116 32/59/116 18/10/116
f 9/39/117 18/10/117 39/7/117
f 63/49/118 9/39/118 54/35/118
f 9/39/119 39/7/119 54/35/119
f 39/7/120 40/63/120 48/65/120
f 40/63/121 15/64/121 48/65/121
f 39/7/122 48/65/122 54/35/122
f 48/65/99 46/66/99 47/68/99
f 48/65/123 47/68/123 29/69/123
f 48/65/124 29/69/124 28/54/124
f 5/58/125 12/70/125 54/35/125
f 26/62/126 23/61/126 7/32/126
f 23/61/127 24/29/127 62/2/127
f 48/65/128 28/54/128 54/35/128
f 54/35/129 34/3/129 63/49/129
f 24/29/130 34/3/130 62/2/130
f 20/50/131 21/67/131 3/4/131
f 21/67/132 68/71/132 3/4/132
f 65/43/133 20/50/133 26/62/133
f 20/50/134 3/4/134 26/62/134
f 71/6/135 26/62/135 3/4/135
