# Blender v2.92.0 OBJ File: 'algae.blend'
# www.blender.org
mtllib 81.mtl
o algae_cube_Cube
v -0.006320 0.156928 -1.239816
v -0.006266 0.104341 1.239816
v -0.001959 0.048103 -0.000000
v -0.003516 -0.050277 -0.000000
v -0.003673 -0.016440 -0.619908
v -0.005819 0.132944 -0.619908
v -0.007091 0.061266 0.630517
v -0.006757 -0.026620 0.630517
v -0.005449 -0.027720 -0.929862
v -0.001440 0.147857 -0.929862
v -0.002131 0.091675 -0.299090
v -0.006847 -0.028287 -0.299090
v -0.006230 -0.099145 0.315259
v -0.001424 0.116230 0.315259
v -0.001138 0.064514 0.934014
v -0.003857 -0.022995 0.934014
v 0.005223 0.024889 0.000000
v 0.004959 0.012546 -0.619908
v 0.007198 -0.079676 0.630517
v 0.000877 0.021548 -0.299090
v 0.006300 0.031999 0.315259
v 0.005582 0.039236 0.934014
v 0.006936 -0.017352 0.157629
v 0.002912 0.058951 0.157629
v 0.006757 0.009664 -0.149545
v 0.000906 0.076859 -0.149545
v 0.005577 0.024434 -0.459499
v 0.006432 0.084731 -0.459499
v 0.006882 -0.039644 -0.774885
v 0.001708 0.043634 -0.774885
v 0.002620 -0.059978 0.782265
v 0.003967 0.078570 0.782265
v 0.007149 0.001278 0.472888
v 0.001099 0.024986 0.472888
vt 0.643463 0.399518
vt 0.608433 0.399032
vt 0.627218 0.287293
vt 0.644229 0.287478
vt 0.537200 0.398044
vt 0.538232 0.286325
vt 0.555494 0.286513
vt 0.714776 0.400507
vt 0.678809 0.400008
vt 0.697735 0.288059
vt 0.661241 0.287663
vt 0.572481 0.398533
vt 0.573425 0.286708
vt 0.591356 0.286903
vt 0.522054 -0.211154
vt 0.483530 0.675856
vt 0.520970 0.286138
vt 0.592689 0.011366
vt 0.609287 0.287098
vt 0.662490 0.012024
vt 0.628508 0.011703
vt 0.698940 0.012367
vt 0.715365 0.288251
vt 0.556870 0.011028
vt 0.679488 0.287861
vt 0.204504 0.007695
vt 0.518449 0.676186
vt 0.522387 0.010703
vt 0.556709 -0.210826
vt 0.734882 -0.209139
vt 0.695884 0.677866
vt 0.592707 -0.210485
vt 0.553104 0.676514
vt 0.662857 -0.209821
vt 0.625100 0.677196
vt 0.734157 0.012699
vt 0.699490 -0.209474
vt 0.659252 0.677519
vt 0.731277 0.678201
vt 0.766669 0.678536
vt 1.051103 0.015687
vt 0.770274 -0.208804
vt 0.628705 -0.210144
vt 0.589102 0.676855
vn 0.9970 0.0770 -0.0020
vn 0.9962 0.0867 0.0014
vn 0.9995 -0.0097 0.0314
vn 0.9997 0.0181 -0.0173
vn 0.9957 0.0867 -0.0323
vn 0.9993 0.0351 -0.0153
vn 0.9681 0.2470 0.0429
vn 0.9988 -0.0455 0.0167
vn 0.9174 0.3952 0.0478
vn 0.9663 0.2569 -0.0173
vn 0.9949 -0.0951 0.0338
vn 0.9711 -0.2369 -0.0282
vn 0.9529 -0.2838 0.1074
vn -0.9590 -0.2522 -0.1292
vn 0.9649 0.2565 0.0562
vn 0.9985 0.0527 -0.0125
vn 0.9879 -0.1531 0.0262
vn -0.9993 0.0310 -0.0208
vn -0.8888 0.4581 0.0125
vn 0.9983 0.0551 0.0168
vn 0.9769 -0.2077 0.0494
vn 0.9960 0.0837 0.0325
vn 0.9931 -0.1155 0.0219
vn 0.9742 -0.2256 0.0013
vn 0.9995 -0.0142 0.0290
vn -0.9755 -0.2199 0.0119
vn -0.9999 -0.0038 0.0096
vn 0.9856 -0.1495 0.0785
vn -0.9193 0.3893 0.0572
vn 0.9792 -0.2016 -0.0228
vn -0.8376 -0.5457 0.0247
vn -0.9999 0.0158 -0.0062
vn 0.9999 -0.0142 -0.0028
vn 0.9350 0.3528 0.0346
vn 0.9980 0.0620 -0.0085
vn -0.9998 -0.0144 -0.0104
vn 0.9952 -0.0951 -0.0239
vn 0.9999 -0.0097 -0.0132
vn -0.9996 0.0228 0.0164
vn 0.9583 -0.2854 0.0175
vn 0.9613 0.2453 0.1257
vn -0.9671 -0.2544 0.0038
vn -0.9997 0.0228 0.0049
vn 0.9981 0.0620 -0.0021
vn 0.9986 0.0527 0.0033
vn 0.9853 -0.1458 -0.0896
vn 0.9869 -0.1530 -0.0510
vn 0.9863 -0.1496 0.0701
vn 0.9800 0.1943 -0.0437
vn 0.9924 -0.1154 -0.0417
vn -0.9997 0.0223 -0.0068
vn -0.9998 0.0158 0.0123
vn -0.9820 0.1883 0.0174
vn 0.9895 0.1410 -0.0332
vn 0.6752 0.7257 -0.1320
vn 0.8877 0.4596 0.0275
vn 0.9989 0.0461 0.0107
vn -0.9993 0.0310 0.0193
vn -0.9997 0.0223 -0.0031
vn -0.9991 0.0393 0.0165
vn -0.9998 -0.0144 -0.0148
vn 0.9999 0.0071 -0.0155
vn -0.9998 -0.0038 -0.0186
vn -0.9992 0.0393 0.0063
usemtl algae_green
s off
f 26/1/1 24/2/1 17/3/1
f 17/3/2 25/4/2 26/1/2
f 32/5/3 31/6/3 19/7/3
f 30/8/4 28/9/4 18/10/4
f 26/1/5 25/4/5 20/11/5
f 34/12/6 32/5/6 19/7/6
f 34/12/7 33/13/7 21/14/7
f 28/9/8 26/1/8 20/11/8
f 24/2/9 34/12/9 21/14/9
f 15/15/10 2/16/10 22/17/10
f 21/14/11 13/18/11 23/19/11
f 12/20/12 25/4/12 4/21/12
f 18/10/13 5/22/13 29/23/13
f 33/13/14 19/7/14 8/24/14
f 32/5/15 15/15/15 22/17/15
f 21/14/16 23/19/16 24/2/16
f 20/11/17 12/20/17 27/25/17
f 2/26/18 15/27/18 16/28/18
f 32/5/19 7/29/19 15/27/19
f 30/8/20 10/30/20 6/31/20
f 13/18/21 33/13/21 8/24/21
f 34/12/22 14/32/22 7/33/22
f 17/3/23 4/21/23 25/4/23
f 5/22/24 27/25/24 12/20/24
f 20/11/25 27/25/25 28/9/25
f 8/24/26 31/6/26 16/28/26
f 16/28/27 7/33/27 8/24/27
f 22/17/28 16/28/28 31/6/28
f 26/1/29 11/34/29 3/35/29
f 4/21/30 23/19/30 13/18/30
f 9/36/31 29/23/31 5/22/31
f 13/18/32 3/35/32 4/21/32
f 28/9/33 27/25/33 18/10/33
f 28/9/34 6/37/34 11/38/34
f 18/10/35 29/23/35 30/8/35
f 12/20/36 6/31/36 5/22/36
f 13/18/37 21/14/37 33/13/37
f 22/17/38 31/6/38 32/5/38
f 10/39/39 1/40/39 9/36/39
f 5/22/40 18/10/40 27/25/40
f 19/7/41 33/13/41 34/12/41
f 8/24/42 19/7/42 31/6/42
f 5/22/43 10/39/43 9/36/43
f 1/41/44 30/8/44 29/23/44
f 23/19/45 17/3/45 24/2/45
f 29/23/46 9/36/46 1/42/46
f 12/20/47 20/11/47 25/4/47
f 2/16/48 16/28/48 22/17/48
f 24/2/49 3/43/49 14/44/49
f 4/21/50 17/3/50 23/19/50
f 8/24/51 14/44/51 13/18/51
f 3/35/52 12/20/52 4/21/52
f 26/1/53 3/43/53 24/2/53
f 30/8/54 6/37/54 28/9/54
f 34/12/55 7/29/55 32/5/55
f 28/9/56 11/34/56 26/1/56
f 24/2/57 14/32/57 34/12/57
f 16/28/58 15/27/58 7/33/58
f 13/18/59 14/44/59 3/35/59
f 12/20/60 11/38/60 6/31/60
f 5/22/61 6/31/61 10/39/61
f 1/41/62 10/30/62 30/8/62
f 8/24/63 7/33/63 14/44/63
f 3/35/64 11/38/64 12/20/64
