# Blender v2.92.0 OBJ File: 'algae.blend'
# www.blender.org
mtllib 85.mtl
o algae_cube_Cube
v -0.004247 0.066045 -2.185986
v -0.004052 0.068730 2.191848
v -0.003705 0.077134 -0.000000
v -0.004079 -0.076962 -0.000000
v -0.004287 -0.080121 -0.931901
v -0.004194 0.069941 -1.095480
v -0.003808 0.074832 1.119672
v -0.003825 -0.079953 0.948054
v -0.003791 -0.079829 -1.399269
v -0.003703 0.067549 -1.640408
v -0.004076 0.073549 -0.530220
v -0.003723 -0.078674 -0.450194
v -0.004222 -0.073450 0.477433
v -0.004290 0.071479 0.557745
v -0.004002 0.073896 1.658183
v -0.004289 -0.081030 1.403558
v 0.004031 -0.043544 0.000000
v 0.004289 -0.043570 -0.971744
v 0.003771 -0.035575 0.997258
v 0.003711 -0.039979 -1.464471
v 0.003788 -0.043470 -0.468701
v 0.004132 -0.044106 0.493694
v 0.004298 -0.045813 1.461438
v 0.004292 0.030534 -1.579845
v 0.004237 -0.040136 0.247921
v 0.003939 0.035791 0.268956
v 0.003717 -0.042473 -0.234591
v 0.004264 0.034319 -0.254774
v 0.004129 -0.044142 -0.719657
v 0.003713 0.033050 -0.782013
v 0.003862 -0.040055 -1.219839
v 0.004277 0.035672 -1.323054
v 0.003942 0.032633 -1.832599
v 0.003787 -0.037774 1.234616
v 0.004229 0.033299 1.332413
v 0.003864 -0.041771 0.742611
v 0.003798 0.038087 0.809001
v 0.004140 -0.078108 -1.512443
v 0.003844 -0.007021 -1.637912
vt 0.643463 0.399518
vt 0.608433 0.399032
vt 0.627218 0.287293
vt 0.644229 0.287478
vt 0.537200 0.398044
vt 0.538232 0.286325
vt 0.555494 0.286513
vt 0.714776 0.400507
vt 0.678809 0.400008
vt 0.697735 0.288059
vt 0.661241 0.287663
vt 0.572481 0.398533
vt 0.715365 0.288251
vt 0.732449 0.400752
vt 0.573425 0.286708
vt 0.591356 0.286903
vt 0.522054 -0.211154
vt 0.483530 0.675856
vt 0.520970 0.286138
vt 0.592689 0.011366
vt 0.609287 0.287098
vt 0.662490 0.012024
vt 0.628508 0.011703
vt 0.741032 0.345449
vt 0.732994 0.288443
vt 0.698940 0.012367
vt 0.556870 0.011028
vt 0.749097 0.400983
vt 1.051103 0.015687
vt 0.731277 0.678201
vt 0.679488 0.287861
vt 0.204504 0.007695
vt 0.518449 0.676186
vt 0.522387 0.010703
vt 0.556709 -0.210826
vt 0.734882 -0.209139
vt 0.695884 0.677866
vt 0.592707 -0.210485
vt 0.553104 0.676514
vt 0.662857 -0.209821
vt 0.625100 0.677196
vt 0.734157 0.012699
vt 0.589102 0.676855
vt 0.699490 -0.209474
vt 0.659252 0.677519
vt 0.766669 0.678536
vt 0.770274 -0.208804
vt 0.741549 0.234612
vt 0.628705 -0.210144
vn 1.0000 -0.0010 0.0006
vn 1.0000 -0.0075 -0.0014
vn 1.0000 -0.0060 -0.0001
vn 1.0000 0.0049 0.0011
vn 1.0000 -0.0070 0.0003
vn 1.0000 -0.0025 -0.0008
vn 1.0000 -0.0052 0.0002
vn 1.0000 -0.0001 0.0011
vn 1.0000 -0.0033 -0.0010
vn 1.0000 0.0031 0.0002
vn 0.9977 0.0679 0.0008
vn 0.9624 -0.2718 -0.0040
vn 0.9776 -0.2103 0.0016
vn 0.9999 -0.0101 -0.0012
vn 0.9723 -0.2336 -0.0050
vn 0.9848 -0.1736 0.0046
vn 0.9750 0.2222 -0.0016
vn 0.9992 0.0349 0.0209
vn 1.0000 0.0038 0.0005
vn 1.0000 -0.0097 -0.0015
vn 0.9782 -0.2077 0.0019
vn -1.0000 0.0020 -0.0001
vn 0.9811 0.1934 0.0007
vn 0.9705 0.2411 -0.0002
vn 0.9761 -0.2171 -0.0038
vn 0.9755 0.2201 -0.0022
vn 0.9718 -0.2358 -0.0024
vn 0.9743 -0.2252 -0.0005
vn 1.0000 0.0065 0.0013
vn 0.9834 -0.1814 0.0006
vn -1.0000 0.0035 -0.0010
vn 0.9752 -0.2213 -0.0100
vn 0.9809 0.1945 -0.0020
vn 0.9724 -0.2331 0.0020
vn 0.9812 -0.1930 0.0009
vn -1.0000 -0.0003 -0.0003
vn 1.0000 0.0059 0.0006
vn 0.9803 0.1976 -0.0015
vn 1.0000 -0.0080 -0.0018
vn -1.0000 0.0019 0.0012
vn 0.9612 -0.2757 0.0036
vn 1.0000 -0.0030 -0.0024
vn -1.0000 0.0022 0.0010
vn 0.9736 -0.2283 0.0001
vn 1.0000 0.0005 0.0004
vn 0.9860 -0.1670 -0.0016
vn -1.0000 -0.0005 -0.0011
vn 0.9994 -0.0286 -0.0186
vn 1.0000 0.0083 0.0023
vn 0.9788 0.2048 -0.0040
vn 1.0000 0.0042 -0.0009
vn -0.9213 -0.3824 -0.0704
vn 0.9781 -0.2081 0.0012
vn 0.9409 -0.3329 0.0630
vn 0.9773 0.2118 0.0004
vn 0.9796 0.2011 0.0031
vn 0.9948 -0.0751 0.0686
vn 0.9825 -0.1861 -0.0007
vn 0.9718 -0.2358 0.0024
vn -1.0000 -0.0008 0.0008
vn -1.0000 -0.0027 -0.0008
vn 0.9832 0.1824 0.0001
vn 0.9740 0.2267 0.0021
vn 0.9808 0.1948 0.0010
vn 1.0000 -0.0093 -0.0006
vn 0.9802 0.1979 -0.0015
vn 0.9731 0.2303 -0.0007
vn -1.0000 0.0005 -0.0004
vn -1.0000 0.0024 -0.0010
vn -1.0000 -0.0022 0.0002
vn -1.0000 -0.0009 -0.0009
vn 0.9764 -0.2118 -0.0427
vn -1.0000 -0.0009 0.0009
vn -1.0000 0.0024 0.0007
usemtl algae_green
s off
f 28/1/1 26/2/1 17/3/1
f 17/3/2 27/4/2 28/1/2
f 35/5/3 34/6/3 19/7/3
f 32/8/4 30/9/4 18/10/4
f 28/1/5 27/4/5 21/11/5
f 37/12/6 35/5/6 19/7/6
f 31/13/7 24/14/7 32/8/7
f 37/12/8 36/15/8 22/16/8
f 30/9/9 28/1/9 21/11/9
f 26/2/10 37/12/10 22/16/10
f 15/17/11 2/18/11 23/19/11
f 22/16/12 13/20/12 25/21/12
f 12/22/13 27/4/13 4/23/13
f 39/24/14 24/14/14 20/25/14
f 18/10/15 5/26/15 31/13/15
f 36/15/16 19/7/16 8/27/16
f 33/28/17 1/29/17 10/30/17
f 35/5/18 15/17/18 23/19/18
f 22/16/19 25/21/19 26/2/19
f 24/14/20 39/24/20 33/28/20
f 21/11/21 12/22/21 29/31/21
f 2/32/22 15/33/22 16/34/22
f 35/5/23 7/35/23 15/33/23
f 32/8/24 10/36/24 6/37/24
f 13/20/25 36/15/25 8/27/25
f 37/12/26 14/38/26 7/39/26
f 17/3/27 4/23/27 27/4/27
f 5/26/28 29/31/28 12/22/28
f 21/11/29 29/31/29 30/9/29
f 8/27/30 34/6/30 16/34/30
f 15/33/31 8/27/31 16/34/31
f 23/19/32 16/34/32 34/6/32
f 28/1/33 11/40/33 3/41/33
f 4/23/34 25/21/34 13/20/34
f 9/42/35 31/13/35 5/26/35
f 14/43/36 4/23/36 13/20/36
f 30/9/37 29/31/37 18/10/37
f 30/9/38 6/44/38 11/45/38
f 18/10/39 31/13/39 32/8/39
f 12/22/40 6/37/40 5/26/40
f 13/20/41 22/16/41 36/15/41
f 23/19/42 34/6/42 35/5/42
f 10/30/43 1/46/43 9/42/43
f 5/26/44 18/10/44 29/31/44
f 19/7/45 36/15/45 37/12/45
f 8/27/46 19/7/46 34/6/46
f 6/37/47 9/42/47 5/26/47
f 1/47/48 39/24/48 38/48/48
f 20/25/49 38/48/49 39/24/49
f 32/8/50 24/14/50 10/36/50
f 25/21/51 17/3/51 26/2/51
f 9/42/52 1/46/52 38/48/52
f 12/22/53 21/11/53 27/4/53
f 2/18/54 16/34/54 23/19/54
f 10/30/55 24/14/55 33/28/55
f 26/2/56 3/49/56 14/43/56
f 38/48/57 20/25/57 9/42/57
f 9/42/58 20/25/58 31/13/58
f 4/23/59 17/3/59 25/21/59
f 7/39/60 13/20/60 8/27/60
f 4/23/61 11/45/61 12/22/61
f 28/1/62 3/49/62 26/2/62
f 32/8/63 6/44/63 30/9/63
f 37/12/64 7/35/64 35/5/64
f 31/13/65 20/25/65 24/14/65
f 30/9/66 11/40/66 28/1/66
f 26/2/67 14/38/67 37/12/67
f 15/33/68 7/39/68 8/27/68
f 14/43/69 3/41/69 4/23/69
f 12/22/70 11/45/70 6/37/70
f 6/37/71 10/30/71 9/42/71
f 1/47/72 33/28/72 39/24/72
f 7/39/73 14/43/73 13/20/73
f 4/23/74 3/41/74 11/45/74
