# Blender v2.92.0 OBJ File: 'algae.blend'
# www.blender.org
mtllib 89.mtl
o algae_cube_Cube
v 0.002343 0.129888 -1.075851
v -0.004112 -0.009055 -1.062248
v 0.003628 -0.088861 0.000000
v -0.003839 -0.051779 -0.000000
v 0.005113 0.065839 -1.081690
v 0.004803 0.105394 -0.540518
v -0.003940 0.028922 -0.531305
v 0.004236 0.115010 -0.809881
v 0.005190 0.063535 -0.260983
v 0.005597 0.104895 0.275310
v 0.005623 -0.085209 0.275324
v -0.002556 -0.094647 0.270941
v 0.005153 0.053232 0.275072
v -0.004945 0.112433 0.269661
v -0.002703 0.008154 -1.065218
v 0.002416 -0.009562 -1.076007
v -0.004042 0.005449 -0.531198
v -0.004873 -0.055880 -0.795484
v -0.003444 -0.043106 -0.256593
v 0.003775 0.024593 0.274334
v 0.005129 0.065747 -1.081722
v -0.003003 0.043078 -1.064585
v 0.004342 0.060024 -0.540032
v 0.005610 0.067545 -0.261196
v 0.003762 -0.010879 0.137163
v 0.002367 -0.020264 0.136789
v -0.004643 0.007160 -0.127992
v 0.005400 0.063924 -0.401119
v -0.004613 0.035421 -0.393297
v -0.003116 -0.051140 -0.394467
v 0.002387 0.084706 -0.398765
v 0.004963 0.080664 -0.675859
v -0.005616 -0.037236 -0.661924
v -0.003541 -0.025341 -0.664658
v 0.005628 0.071117 -0.939575
v -0.004090 -0.092605 -0.921804
v 0.002408 0.043330 -0.933687
v -0.005563 0.132022 -0.919110
v -0.003685 -0.023536 -0.922543
v 0.005602 0.067537 -0.939527
v -0.005040 0.135675 0.404414
v 0.003708 0.129437 0.411447
v -0.002648 0.017056 0.406337
v -0.004238 -0.000337 0.405059
v -0.005154 0.076387 0.404323
v 0.005405 0.025636 0.412810
v 0.003599 0.097688 0.342799
v -0.004470 -0.071939 0.337394
v -0.005224 0.025470 0.336889
v 0.003505 0.030641 0.342736
v -0.004882 0.107388 0.202271
v 0.004446 -0.050475 0.206020
v 0.002864 0.024416 0.205384
v 0.004768 0.131713 0.068716
v 0.005586 -0.052672 0.068826
v 0.004555 0.006591 0.068688
v -0.005651 0.050339 -0.063868
v 0.005662 0.083185 -0.065306
v -0.002403 -0.022569 -0.064281
v -0.005657 0.003479 -0.063867
v -0.002570 0.077217 -0.064259
v 0.005320 0.116647 -0.195787
v -0.004918 -0.013367 -0.191883
v -0.005455 0.083458 -0.191678
v -0.005651 -0.061065 -0.323979
v 0.003434 0.134889 -0.469329
v -0.002573 0.041281 -0.463818
v -0.003910 -0.046626 -0.598776
v -0.005518 0.009089 -0.596866
v 0.005322 0.040055 -0.609739
v 0.002345 0.106910 -0.739651
v -0.005336 -0.048363 -0.728523
v 0.002932 0.090791 -0.871232
v 0.004750 -0.060418 -0.874331
v -0.002636 -0.071844 -0.861740
v 0.003453 0.059333 -0.872121
v 0.005591 -0.023465 -0.875765
v 0.003292 0.079470 -1.006577
v -0.004783 -0.070012 -0.990684
v 0.002903 0.046926 -1.005812
v -0.002708 0.049890 -0.994770
v 0.005552 0.061795 -1.011026
v -0.002825 0.060770 -0.994539
vt 0.740514 0.456286
vt 0.618652 0.233454
vt 0.637003 0.011783
vt 0.707880 0.012451
vt 0.628508 0.011703
vt 0.627607 0.233538
vt 0.750940 -0.041105
vt 0.769592 -0.040929
vt 0.769373 0.013031
vt 0.760058 0.012943
vt 0.750743 0.012855
vt 0.742450 0.012777
vt 0.741032 0.345449
vt 0.749345 0.345552
vt 0.758683 0.345668
vt 0.760485 -0.097975
vt 0.760699 -0.153434
vt 0.980670 0.015023
vt 0.732180 0.456158
vt 0.723333 0.456022
vt 0.714485 0.455886
vt 0.909337 0.236194
vt 0.767796 0.401242
vt 0.741297 0.288533
vt 0.734333 -0.041261
vt 0.741549 0.234612
vt 0.716704 -0.041428
vt 0.699074 -0.041594
vt 0.708024 -0.041510
vt 0.600742 0.233285
vt 0.609697 0.233370
vt 0.609287 0.287098
vt 0.591356 0.286903
vt 0.590901 0.343588
vt 0.599877 0.343700
vt 0.583734 0.011281
vt 0.592689 0.011366
vt 0.591788 0.233201
vt 0.574762 -0.042767
vt 0.583728 -0.042683
vt 0.574744 -0.099729
vt 0.618253 0.287195
vt 0.634547 0.454660
vt 0.617010 0.454390
vt 0.660159 0.455053
vt 0.598101 0.676940
vt 0.637183 -0.154602
vt 0.633638 0.677277
vt 0.651622 0.454922
vt 0.654238 -0.154440
vt 0.645567 -0.042099
vt 0.654073 -0.042019
vt 0.662579 -0.041939
vt 0.699215 -0.098553
vt 0.697102 0.400262
vt 0.696790 0.455615
vt 0.687632 0.455474
vt 0.678474 0.455334
vt 0.758446 0.401113
vt 0.749097 0.400983
vt 0.758209 0.456557
vt 0.748849 0.456414
vt 0.768252 0.288826
vt 0.767570 0.456701
vt 0.725518 -0.041345
vt 0.747946 0.678359
vt 0.716549 0.012533
vt 0.637062 -0.042179
vt 0.671703 -0.041852
vt 0.680827 -0.041766
vt 0.680944 -0.098726
vt 0.690080 -0.098640
vt 0.678809 0.400008
vt 0.706075 0.400386
vt 0.590013 0.453976
vt 0.581014 0.453838
vt 0.572481 0.398533
vt 0.581469 0.398658
vt 0.572015 0.453700
vt 0.589102 0.676855
vt 0.574708 -0.210655
vt 0.574726 -0.155192
vt 0.660517 0.399754
vt 0.770049 -0.153345
vt 0.601706 -0.210400
vt 0.637243 -0.210063
vt 0.979769 0.236858
vt 0.571103 0.676685
vt 0.592707 -0.210485
vt 0.751551 -0.208981
vt 1.050202 0.237522
vn -0.7861 -0.6114 -0.0911
vn 0.9803 0.1974 0.0016
vn -0.9964 0.0836 0.0117
vn -0.9996 0.0210 0.0169
vn 0.9971 -0.0767 0.0030
vn -0.9999 -0.0109 0.0053
vn 0.9954 -0.0940 0.0160
vn 0.9964 0.0849 -0.0060
vn 0.9478 -0.3177 0.0270
vn 0.9033 0.0001 0.4291
vn -0.9996 -0.0261 0.0065
vn -0.9810 -0.1938 0.0136
vn 0.8857 -0.4509 0.1104
vn -0.9993 -0.0296 0.0208
vn -0.9855 0.1428 0.0919
vn -0.9988 0.0477 0.0131
vn 0.9990 -0.0249 0.0373
vn -0.7264 0.3566 0.5876
vn -0.9999 -0.0077 0.0116
vn 0.9902 -0.0978 0.1001
vn -0.9998 -0.0167 0.0133
vn 0.9996 0.0209 -0.0209
vn 0.9991 -0.0376 0.0173
vn -0.9986 0.0501 -0.0189
vn -0.9994 -0.0347 0.0059
vn 0.9453 0.3019 0.1233
vn 0.9992 -0.0378 0.0091
vn 0.1261 0.0000 0.9920
vn -0.9491 0.3127 0.0368
vn -0.9792 -0.1918 0.0658
vn -1.0000 0.0043 -0.0015
vn -1.0000 -0.0066 0.0031
vn 0.9997 -0.0099 0.0233
vn 0.9998 0.0198 -0.0082
vn -0.9915 -0.1296 0.0111
vn -0.9991 0.0068 -0.0414
vn 0.9992 -0.0342 0.0206
vn 0.9025 -0.0000 0.4307
vn -0.9833 -0.1677 -0.0704
vn -0.1643 -0.9602 0.2258
vn 0.9989 -0.0211 0.0430
vn -0.9999 0.0166 0.0048
vn -0.9996 0.0272 -0.0024
vn 0.9899 -0.1397 0.0225
vn 0.9997 0.0230 0.0076
vn 0.9990 0.0437 -0.0052
vn 0.9851 0.1651 0.0474
vn -0.9855 -0.1693 0.0099
vn 0.9988 0.0215 0.0434
vn -0.9993 0.0078 0.0358
vn -0.9793 0.1881 0.0751
vn -0.9743 -0.1962 -0.1109
vn -0.9923 -0.1239 -0.0040
vn 0.9974 -0.0725 -0.0036
vn 0.9860 -0.1663 0.0120
vn 0.9998 0.0173 0.0014
vn 0.9998 0.0185 0.0021
vn -0.9741 0.2263 -0.0024
vn -0.9995 -0.0310 -0.0034
vn -0.9833 0.1816 -0.0133
vn -0.9894 -0.1448 0.0116
vn -0.9997 -0.0216 -0.0079
vn -0.9996 -0.0283 -0.0089
vn 0.9975 -0.0555 0.0432
vn -0.5917 0.8022 -0.0791
vn 0.9976 0.0599 0.0359
vn -0.9996 0.0014 0.0272
vn -0.9998 -0.0165 -0.0109
vn -0.6220 -0.7720 0.1306
vn -0.6427 -0.7551 0.1298
vn 1.0000 -0.0019 0.0010
vn 1.0000 -0.0018 0.0011
vn 0.9991 0.0425 0.0079
vn 0.9990 -0.0379 0.0225
vn 0.9953 0.0948 0.0183
vn -0.9943 0.1049 0.0162
vn 0.9998 0.0174 0.0064
vn 0.9735 0.2286 0.0057
vn 0.9922 0.1240 -0.0084
vn -0.9161 -0.4009 -0.0113
vn 0.9999 -0.0137 -0.0049
vn 0.9978 0.0419 -0.0504
vn -0.9733 -0.2234 -0.0520
vn -0.9996 0.0243 0.0117
vn 0.9999 0.0109 -0.0053
vn -0.9971 0.0767 -0.0030
vn 0.9996 -0.0210 -0.0169
vn 0.9964 -0.0836 -0.0117
vn 0.9993 0.0296 -0.0208
vn 0.9855 -0.1428 -0.0919
vn 0.9988 -0.0477 -0.0131
vn 0.7264 -0.3566 -0.5876
vn -0.9990 0.0249 -0.0373
vn 0.9999 0.0077 -0.0116
vn -0.9902 0.0978 -0.1001
vn 0.9998 0.0167 -0.0133
vn -0.9996 -0.0209 0.0209
vn -0.9991 0.0376 -0.0173
vn 0.9986 -0.0501 0.0189
vn -0.9771 0.2103 -0.0323
vn -0.5867 0.7602 -0.2792
vn -0.1261 -0.0000 -0.9920
vn 0.9491 -0.3127 -0.0368
vn 0.9792 0.1918 -0.0658
vn 1.0000 0.0027 -0.0001
vn 1.0000 -0.0043 0.0015
vn 0.9995 0.0310 0.0034
vn -0.9997 0.0099 -0.0233
vn -0.9998 -0.0198 0.0082
vn 0.9900 0.1404 -0.0091
vn 0.9915 0.1296 -0.0111
vn -0.9406 0.3396 0.0029
vn 0.4064 0.9092 -0.0904
vn 0.8805 -0.4739 -0.0077
vn -0.9992 0.0342 -0.0206
vn -0.9953 0.0967 -0.0049
vn -0.8572 0.5137 -0.0367
vn 0.9810 0.1938 -0.0136
vn 0.1643 0.9602 -0.2258
vn 0.9429 0.3325 0.0177
vn -0.9997 -0.0258 -0.0003
vn 0.9983 0.0588 -0.0028
vn -0.9997 0.0227 -0.0018
vn 0.9966 0.0809 -0.0145
vn 0.9999 -0.0166 -0.0048
vn 0.9996 -0.0272 0.0024
vn -0.9899 0.1397 -0.0225
vn 0.9833 -0.1816 0.0133
vn -0.9998 -0.0173 -0.0014
vn -0.9860 0.1663 -0.0120
vn -0.9998 -0.0185 -0.0021
vn 0.9983 0.0547 0.0189
vn -0.9894 -0.1223 -0.0777
vn -0.9990 0.0379 -0.0225
vn -0.9681 -0.2503 -0.0129
vn -0.9991 -0.0424 -0.0056
vn -1.0000 0.0019 -0.0010
vn 0.6427 0.7551 -0.1298
vn 0.9998 0.0162 -0.0091
vn 0.9996 -0.0014 -0.0272
vn 0.9982 -0.0547 0.0237
vn 0.6220 0.7720 -0.1306
vn -1.0000 0.0018 -0.0011
vn -0.9988 -0.0485 -0.0064
vn -0.9996 -0.0275 -0.0056
vn -0.9869 0.1610 -0.0109
vn 1.0000 0.0010 -0.0028
vn 0.9894 0.1448 -0.0116
vn 0.9955 0.0952 -0.0029
vn -0.9991 -0.0173 0.0375
vn -0.9941 -0.1084 0.0036
vn -0.9937 0.1059 0.0365
vn -0.9841 -0.1773 0.0122
vn 0.9825 0.1855 -0.0146
vn 0.9985 -0.0539 -0.0132
vn -0.9667 -0.2518 -0.0453
vn -0.9991 -0.0435 0.0012
vn -1.0000 -0.0090 -0.0001
vn -0.9815 0.1836 0.0538
vn -0.9999 0.0018 0.0110
vn 0.9999 0.0167 0.0014
vn -0.9973 0.0718 0.0176
usemtl algae_green
s off
f 73/1/1 55/2/1 59/3/1
f 68/4/2 4/5/2 3/6/2
f 39/7/3 15/8/3 2/9/3
f 79/10/4 36/11/4 75/12/4
f 76/13/5 37/14/5 80/15/5
f 81/16/6 83/17/6 22/18/6
f 73/1/7 8/19/7 71/20/7
f 73/1/8 71/20/8 32/21/8
f 81/16/9 22/18/9 5/22/9
f 22/18/10 21/23/10 5/22/10
f 77/24/11 76/13/11 80/15/11
f 79/10/12 75/12/12 18/25/12
f 75/12/13 74/26/13 34/27/13
f 17/28/14 69/29/14 68/4/14
f 52/30/15 25/31/15 26/32/15
f 20/33/16 13/34/16 53/35/16
f 48/36/17 12/37/17 53/35/17
f 12/37/18 11/38/18 53/35/18
f 44/39/19 49/40/19 48/36/19
f 43/41/20 44/39/20 48/36/20
f 11/38/21 20/33/21 53/35/21
f 53/35/22 52/30/22 26/32/22
f 53/35/23 26/32/23 56/42/23
f 48/36/24 53/35/24 56/42/24
f 58/43/25 54/44/25 9/45/25
f 54/44/26 51/46/26 43/41/26
f 9/45/27 54/44/27 43/41/27
f 61/47/28 57/48/28 58/43/28
f 62/49/29 64/50/29 61/47/29
f 27/51/30 63/52/30 19/53/30
f 7/54/31 17/28/31 27/51/31
f 17/28/32 68/4/32 59/3/32
f 23/55/33 6/56/33 66/57/33
f 23/55/34 66/57/34 28/58/34
f 82/59/35 40/60/35 78/61/35
f 40/60/36 73/1/36 35/62/36
f 80/15/37 16/63/37 5/22/37
f 5/22/38 21/23/38 1/64/38
f 77/24/39 80/15/39 5/22/39
f 75/12/40 34/27/40 18/25/40
f 74/26/41 77/24/41 34/27/41
f 39/7/42 2/9/42 79/10/42
f 18/25/43 39/7/43 79/10/43
f 72/65/44 18/25/44 34/27/44
f 77/24/45 5/22/45 73/1/45
f 5/22/46 1/64/46 35/62/46
f 1/64/47 38/66/47 35/62/47
f 5/22/48 35/62/48 73/1/48
f 77/24/49 73/1/49 34/27/49
f 35/62/50 78/61/50 40/60/50
f 33/67/51 34/27/51 73/1/51
f 4/5/52 59/3/52 3/6/52
f 59/3/53 60/68/53 17/28/53
f 73/1/54 59/3/54 33/67/54
f 19/53/55 65/69/55 30/70/55
f 19/53/56 30/70/56 29/71/56
f 27/51/57 19/53/57 29/71/57
f 60/68/58 27/51/58 17/28/58
f 27/51/59 29/71/59 7/54/59
f 67/72/60 7/54/60 29/71/60
f 23/55/61 28/58/61 31/73/61
f 70/74/62 23/55/62 32/21/62
f 23/55/63 31/73/63 32/21/63
f 9/45/64 62/49/64 61/47/64
f 9/45/65 61/47/65 58/43/65
f 10/75/66 47/76/66 46/77/66
f 47/76/67 50/78/67 46/77/67
f 10/75/68 46/77/68 42/79/68
f 14/80/69 10/75/69 42/79/69
f 14/80/70 42/79/70 41/81/70
f 14/80/71 41/81/71 45/82/71
f 51/46/72 14/80/72 45/82/72
f 51/46/73 45/82/73 43/41/73
f 43/41/74 48/36/74 56/42/74
f 9/45/75 43/41/75 56/42/75
f 24/83/76 9/45/76 56/42/76
f 24/83/77 56/42/77 55/2/77
f 32/21/78 31/73/78 24/83/78
f 68/4/79 33/67/79 59/3/79
f 32/21/80 24/83/80 73/1/80
f 24/83/81 55/2/81 73/1/81
f 55/2/82 3/6/82 59/3/82
f 32/21/83 71/20/83 8/19/83
f 32/21/84 8/19/84 73/1/84
f 22/84/85 83/17/85 81/16/85
f 80/15/86 37/14/86 76/13/86
f 75/12/87 36/11/87 79/10/87
f 2/9/88 15/8/88 39/7/88
f 68/4/89 69/29/89 17/28/89
f 26/32/90 25/31/90 52/30/90
f 53/35/91 13/34/91 20/33/91
f 11/38/92 12/37/92 53/35/92
f 12/37/93 48/36/93 53/35/93
f 48/36/94 49/40/94 44/39/94
f 48/36/95 44/39/95 43/41/95
f 53/35/96 20/33/96 11/38/96
f 26/32/97 52/30/97 53/35/97
f 56/42/98 26/32/98 53/35/98
f 56/42/99 53/35/99 48/36/99
f 51/85/100 54/44/100 61/47/100
f 54/44/101 58/43/101 61/47/101
f 58/43/102 57/86/102 61/47/102
f 61/47/103 64/50/103 62/49/103
f 19/53/104 63/52/104 27/51/104
f 68/4/105 17/28/105 4/5/105
f 17/28/106 7/54/106 27/51/106
f 27/51/107 7/54/107 29/71/107
f 66/57/108 6/56/108 23/55/108
f 28/58/109 66/57/109 23/55/109
f 73/1/110 40/60/110 78/61/110
f 40/60/111 82/59/111 78/61/111
f 21/87/112 22/84/112 76/13/112
f 22/84/113 81/16/113 76/13/113
f 81/16/114 5/22/114 76/13/114
f 5/22/115 16/63/115 80/15/115
f 80/15/116 76/13/116 5/22/116
f 74/26/117 75/12/117 56/42/117
f 75/12/118 79/10/118 18/25/118
f 34/27/119 75/12/119 18/25/119
f 21/87/120 76/13/120 70/74/120
f 76/13/121 77/24/121 56/42/121
f 70/74/122 76/13/122 23/55/122
f 77/24/123 74/26/123 56/42/123
f 75/12/124 34/27/124 56/42/124
f 79/10/125 2/9/125 39/7/125
f 79/10/126 39/7/126 18/25/126
f 18/25/127 72/65/127 34/27/127
f 7/54/128 67/72/128 29/71/128
f 29/71/129 30/70/129 19/53/129
f 30/70/130 65/69/130 19/53/130
f 29/71/131 19/53/131 27/51/131
f 27/51/132 60/68/132 4/5/132
f 60/68/133 59/3/133 4/5/133
f 56/42/134 48/36/134 43/41/134
f 56/42/135 43/41/135 76/13/135
f 43/41/136 45/82/136 61/47/136
f 45/82/137 41/88/137 14/89/137
f 41/88/138 42/79/138 14/89/138
f 42/79/139 46/77/139 47/76/139
f 46/77/140 50/78/140 47/76/140
f 42/79/141 47/76/141 10/75/141
f 42/79/142 10/75/142 14/89/142
f 45/82/143 14/89/143 51/85/143
f 43/41/144 61/47/144 76/13/144
f 45/82/145 51/85/145 61/47/145
f 61/47/146 62/49/146 76/13/146
f 62/49/147 9/45/147 76/13/147
f 31/73/148 28/58/148 23/55/148
f 31/73/149 23/55/149 76/13/149
f 55/2/150 56/42/150 3/6/150
f 76/13/151 9/45/151 31/73/151
f 9/45/152 24/83/152 31/73/152
f 73/1/153 78/61/153 35/62/153
f 73/1/154 35/62/154 38/90/154
f 32/21/155 73/1/155 1/91/155
f 73/1/156 38/90/156 1/91/156
f 32/21/157 1/91/157 21/87/157
f 70/74/158 32/21/158 21/87/158
f 34/27/159 33/67/159 68/4/159
f 3/6/160 56/42/160 34/27/160
f 17/28/161 27/51/161 4/5/161
f 3/6/162 34/27/162 68/4/162
