# Blender v2.92.0 OBJ File: 'algae.blend'
# www.blender.org
mtllib 0.mtl
o algae_cube_Cube
v -0.001708 0.126150 -2.090716
v -0.005464 0.102089 2.162421
v -0.001365 0.055936 -0.000000
v -0.006267 -0.057477 -0.000000
v -0.002143 -0.035397 -1.286082
v -0.001281 0.112967 -1.065001
v -0.006031 0.068987 1.149885
v -0.004089 -0.037115 1.310696
v -0.001727 -0.045710 -1.952173
v -0.004138 0.125334 -1.569859
v -0.001417 0.086272 -0.533028
v -0.005053 -0.043608 -0.626404
v -0.007282 -0.090449 0.695765
v -0.004748 0.104584 0.547967
v -0.001703 0.068381 1.704738
v -0.002017 -0.035087 1.937039
v 0.004681 0.006424 0.000000
v 0.001505 0.000252 -1.232960
v 0.002956 -0.071456 1.362742
v 0.006896 -0.039911 -1.939212
v 0.005700 0.004275 -0.591979
v 0.001480 0.009791 0.619802
v 0.003430 0.012167 1.830947
v 0.002081 0.084094 -1.662039
v 0.006573 -0.024433 0.322868
v 0.001539 0.052316 0.293788
v 0.004436 -0.003517 -0.298791
v 0.003826 0.065508 -0.273978
v 0.001699 0.008248 -0.905084
v 0.004465 0.073434 -0.833084
v 0.006479 -0.034803 -1.606494
v 0.001544 0.042922 -1.461721
v 0.001543 -0.055397 1.660521
v 0.006066 0.063935 1.436131
v 0.004432 -0.013151 0.955781
v 0.002395 0.028186 0.908793
vt 0.643463 0.399518
vt 0.608433 0.399032
vt 0.627218 0.287293
vt 0.644229 0.287478
vt 0.537200 0.398044
vt 0.538232 0.286325
vt 0.555494 0.286513
vt 0.714776 0.400507
vt 0.678809 0.400008
vt 0.697735 0.288059
vt 0.661241 0.287663
vt 0.572481 0.398533
vt 0.715365 0.288251
vt 0.732449 0.400752
vt 0.573425 0.286708
vt 0.591356 0.286903
vt 0.522054 -0.211154
vt 0.483530 0.675856
vt 0.520970 0.286138
vt 0.592689 0.011366
vt 0.609287 0.287098
vt 0.662490 0.012024
vt 0.628508 0.011703
vt 0.698940 0.012367
vt 0.556870 0.011028
vt 0.731277 0.678201
vt 1.051103 0.015687
vt 0.679488 0.287861
vt 0.204504 0.007695
vt 0.518449 0.676186
vt 0.522387 0.010703
vt 0.556709 -0.210826
vt 0.734882 -0.209139
vt 0.695884 0.677866
vt 0.592707 -0.210485
vt 0.553104 0.676514
vt 0.732994 0.288443
vt 0.770274 -0.208804
vt 0.662857 -0.209821
vt 0.625100 0.677196
vt 0.734157 0.012699
vt 0.589102 0.676855
vt 0.699490 -0.209474
vt 0.659252 0.677519
vt 0.766669 0.678536
vt 0.628705 -0.210144
vn 0.9993 0.0371 0.0049
vn 1.0000 0.0092 -0.0011
vn 0.9996 -0.0263 0.0062
vn 0.9998 -0.0205 -0.0037
vn 1.0000 0.0072 0.0045
vn 0.9998 -0.0199 -0.0056
vn 0.9990 0.0423 0.0114
vn 0.9991 0.0425 -0.0059
vn 0.9997 0.0230 0.0015
vn 0.9998 -0.0172 -0.0021
vn 0.9956 0.0938 0.0013
vn 0.9974 -0.0683 0.0250
vn 0.9779 -0.2091 -0.0027
vn 0.9897 -0.1406 0.0264
vn -0.9649 -0.2596 -0.0407
vn 0.9903 0.1385 0.0048
vn 0.9885 0.1489 0.0261
vn 0.9976 0.0689 0.0092
vn 0.9779 -0.2087 -0.0151
vn -0.9999 -0.0132 -0.0072
vn 0.4331 0.9014 -0.0024
vn 0.9980 0.0634 -0.0041
vn 0.9825 -0.1860 0.0110
vn 0.9898 0.1422 0.0105
vn 0.9856 -0.1689 0.0048
vn 0.9935 -0.1134 0.0030
vn 0.9995 -0.0279 -0.0131
vn -0.9745 -0.2246 0.0040
vn -0.9999 0.0104 0.0033
vn 0.9988 0.0480 -0.0041
vn 0.9971 -0.0739 0.0183
vn 0.7552 0.6545 0.0372
vn 0.9641 -0.2654 -0.0112
vn 0.5506 -0.8347 0.0133
vn -0.9999 0.0123 -0.0009
vn 0.9991 -0.0429 0.0005
vn 0.9790 0.2037 0.0105
vn 0.9989 0.0468 0.0089
vn -0.9995 0.0309 -0.0040
vn 0.9950 -0.0987 -0.0155
vn 0.9994 -0.0336 0.0023
vn -1.0000 -0.0037 -0.0047
vn 0.9945 -0.1047 0.0020
vn 0.9979 0.0636 0.0127
vn -0.9813 -0.1926 0.0057
vn -0.9999 -0.0132 -0.0004
vn 0.9949 0.0987 0.0230
vn 0.9978 0.0656 0.0004
vn 0.8468 -0.3338 -0.4140
vn 0.9759 -0.2180 -0.0016
vn 0.9988 -0.0342 0.0361
vn 0.9876 0.1569 -0.0078
vn 0.5439 -0.8391 0.0136
vn 0.9854 -0.1688 -0.0219
vn -0.9999 0.0159 0.0038
vn -0.9991 0.0432 -0.0010
vn -0.6171 0.7867 0.0158
vn 0.9958 0.0915 -0.0091
vn 0.9237 0.3816 -0.0323
vn 0.9993 0.0373 0.0007
vn 0.9513 0.3083 0.0055
vn 0.9944 0.1061 0.0028
vn -0.9999 -0.0065 0.0078
vn -0.9990 0.0432 -0.0100
vn -1.0000 0.0058 0.0000
vn -1.0000 -0.0025 0.0056
vn -0.9997 -0.0236 -0.0035
vn -0.9996 0.0268 0.0016
usemtl algae_green
s off
f 28/1/1 26/2/1 17/3/1
f 17/3/2 27/4/2 28/1/2
f 34/5/3 33/6/3 19/7/3
f 32/8/4 30/9/4 18/10/4
f 28/1/5 27/4/5 21/11/5
f 36/12/6 34/5/6 19/7/6
f 31/13/7 24/14/7 32/8/7
f 36/12/8 35/15/8 22/16/8
f 30/9/9 28/1/9 21/11/9
f 26/2/10 36/12/10 22/16/10
f 15/17/11 2/18/11 23/19/11
f 22/16/12 13/20/12 25/21/12
f 12/22/13 27/4/13 4/23/13
f 18/10/14 5/24/14 31/13/14
f 35/15/15 19/7/15 8/25/15
f 10/26/16 24/14/16 1/27/16
f 34/5/17 15/17/17 23/19/17
f 22/16/18 25/21/18 26/2/18
f 21/11/19 12/22/19 29/28/19
f 2/29/20 15/30/20 16/31/20
f 34/5/21 7/32/21 15/30/21
f 32/8/22 10/33/22 6/34/22
f 13/20/23 35/15/23 8/25/23
f 36/12/24 14/35/24 7/36/24
f 17/3/25 4/23/25 27/4/25
f 5/24/26 29/28/26 12/22/26
f 21/11/27 29/28/27 30/9/27
f 8/25/28 33/6/28 16/31/28
f 15/30/29 8/25/29 16/31/29
f 20/37/30 1/38/30 24/14/30
f 23/19/31 16/31/31 33/6/31
f 28/1/32 11/39/32 3/40/32
f 4/23/33 25/21/33 13/20/33
f 9/41/34 31/13/34 5/24/34
f 14/42/35 4/23/35 13/20/35
f 30/9/36 29/28/36 18/10/36
f 30/9/37 6/43/37 11/44/37
f 18/10/38 31/13/38 32/8/38
f 11/44/39 5/24/39 12/22/39
f 13/20/40 22/16/40 35/15/40
f 23/19/41 33/6/41 34/5/41
f 10/26/42 1/45/42 9/41/42
f 5/24/43 18/10/43 29/28/43
f 19/7/44 35/15/44 36/12/44
f 8/25/45 19/7/45 33/6/45
f 5/24/46 10/26/46 9/41/46
f 32/8/47 24/14/47 10/33/47
f 25/21/48 17/3/48 26/2/48
f 20/37/49 9/41/49 1/38/49
f 12/22/50 21/11/50 27/4/50
f 2/18/51 16/31/51 23/19/51
f 26/2/52 3/46/52 14/42/52
f 9/41/53 20/37/53 31/13/53
f 4/23/54 17/3/54 25/21/54
f 8/25/55 14/42/55 13/20/55
f 3/40/56 12/22/56 4/23/56
f 28/1/57 3/46/57 26/2/57
f 32/8/58 6/43/58 30/9/58
f 36/12/59 7/32/59 34/5/59
f 31/13/60 20/37/60 24/14/60
f 30/9/61 11/39/61 28/1/61
f 26/2/62 14/35/62 36/12/62
f 15/30/63 7/36/63 8/25/63
f 14/42/64 3/40/64 4/23/64
f 11/44/65 6/34/65 5/24/65
f 5/24/66 6/34/66 10/26/66
f 8/25/67 7/36/67 14/42/67
f 3/40/68 11/44/68 12/22/68
