# Blender v2.92.0 OBJ File: 'algae.blend'
# www.blender.org
mtllib 102.mtl
o algae_cube_Cube
v -0.001579 0.000203 -1.124670
v -0.006624 0.035387 1.124670
v -0.006206 0.096844 -0.000000
v -0.003096 -0.094723 -0.000000
v -0.004848 -0.127065 -0.562335
v -0.006207 0.018623 -0.562335
v -0.004755 0.080149 0.571959
v -0.003592 -0.124729 0.571959
v -0.001404 -0.114808 -0.843502
v -0.006245 0.001359 -0.843502
v -0.001355 0.055285 -0.271312
v -0.002450 -0.114227 -0.271312
v -0.002661 -0.049533 0.285979
v -0.005688 0.029998 0.285979
v -0.001526 0.082531 0.847269
v -0.004877 -0.129983 0.847269
v 0.006098 -0.098114 0.000000
v 0.006120 -0.091013 -0.562335
v 0.001462 0.009238 0.571959
v 0.001646 -0.035534 -0.843502
v 0.001801 -0.095500 -0.271312
v 0.001492 -0.103162 0.285979
v 0.001584 -0.109768 0.847269
v 0.003140 -0.029849 -0.843502
v 0.003035 -0.055694 0.142990
v 0.003124 0.014920 0.142990
v 0.001434 -0.084505 -0.135656
v 0.003352 -0.003257 -0.135656
v 0.001329 -0.101485 -0.416824
v 0.001553 -0.014285 -0.416824
v 0.004321 -0.042369 -0.702919
v 0.004343 0.028515 -0.702919
v 0.005484 -0.013337 0.709614
v 0.005595 -0.001116 0.709614
v 0.006156 -0.071813 0.428969
v 0.002168 0.048558 0.428969
v 0.006401 -0.064814 -0.909716
vt 0.643463 0.399518
vt 0.608433 0.399032
vt 0.627218 0.287293
vt 0.644229 0.287478
vt 0.537200 0.398044
vt 0.538232 0.286325
vt 0.555494 0.286513
vt 0.714776 0.400507
vt 0.678809 0.400008
vt 0.697735 0.288059
vt 0.661241 0.287663
vt 0.572481 0.398533
vt 0.715365 0.288251
vt 0.732449 0.400752
vt 0.573425 0.286708
vt 0.591356 0.286903
vt 0.522054 -0.211154
vt 0.483530 0.675856
vt 0.520970 0.286138
vt 0.592689 0.011366
vt 0.609287 0.287098
vt 0.662490 0.012024
vt 0.628508 0.011703
vt 0.741032 0.345449
vt 0.732994 0.288443
vt 0.698940 0.012367
vt 0.556870 0.011028
vt 1.051103 0.015687
vt 0.731277 0.678201
vt 0.679488 0.287861
vt 0.204504 0.007695
vt 0.518449 0.676186
vt 0.522387 0.010703
vt 0.556709 -0.210826
vt 0.734882 -0.209139
vt 0.695884 0.677866
vt 0.592707 -0.210485
vt 0.553104 0.676514
vt 0.662857 -0.209821
vt 0.625100 0.677196
vt 0.734157 0.012699
vt 0.589102 0.676855
vt 0.699490 -0.209474
vt 0.659252 0.677519
vt 0.766669 0.678536
vt 0.628705 -0.210144
vt 0.770274 -0.208804
vn 0.9996 0.0275 -0.0010
vn 0.9990 -0.0236 -0.0367
vn 0.9995 -0.0091 -0.0307
vn 0.9994 0.0319 0.0145
vn 0.9997 -0.0236 0.0046
vn 0.9841 -0.1723 -0.0425
vn 1.0000 -0.0003 -0.0084
vn 0.9987 0.0331 -0.0398
vn 1.0000 -0.0079 -0.0061
vn 1.0000 -0.0086 0.0044
vn 0.9996 0.0162 0.0211
vn -0.9964 -0.0771 -0.0364
vn 0.9784 -0.2061 0.0171
vn 0.9515 -0.2501 0.1789
vn 0.9507 -0.2892 -0.1122
vn 0.9978 -0.0376 0.0541
vn 0.9990 0.0162 0.0419
vn 0.9999 -0.0013 0.0104
vn 0.9575 0.2880 0.0147
vn 0.9752 -0.2213 0.0059
vn -0.9998 0.0158 -0.0157
vn 0.9944 0.1054 -0.0126
vn -0.8682 0.4954 -0.0303
vn 0.8477 -0.5137 -0.1323
vn 0.6555 0.7435 -0.1325
vn -0.3449 -0.9351 -0.0819
vn 0.9679 -0.2514 0.0031
vn 1.0000 -0.0026 -0.0031
vn 0.9964 -0.0849 0.0030
vn -1.0000 -0.0057 -0.0048
vn 0.9364 -0.2993 -0.1831
vn 0.9960 0.0896 0.0041
vn 0.9397 -0.3381 0.0520
vn 0.9955 -0.0944 0.0081
vn -0.9992 -0.0380 0.0075
vn 0.9995 -0.0026 0.0327
vn 0.9942 0.1035 -0.0296
vn 0.9999 -0.0003 -0.0129
vn -0.9999 -0.0093 0.0086
vn -0.9958 -0.0771 0.0494
vn 0.9997 -0.0091 0.0219
vn -0.9990 -0.0416 -0.0164
vn 0.9567 -0.2910 0.0106
vn 0.9994 0.0331 0.0140
vn 0.9987 -0.0377 -0.0354
vn -0.9990 -0.0416 -0.0141
vn 0.9499 0.2857 -0.1267
vn 0.9998 -0.0013 0.0218
vn 0.9750 -0.2213 0.0206
vn 0.9362 -0.2992 0.1843
vn 0.9821 0.1837 0.0412
vn -0.9894 -0.1448 -0.0071
vn 0.9990 -0.0384 -0.0209
vn -0.3340 -0.9056 0.2615
vn -0.9992 -0.0380 -0.0133
vn -1.0000 0.0065 -0.0028
vn 0.9947 0.1030 -0.0059
vn 0.7677 0.6326 0.1021
vn 0.9885 0.1506 0.0146
vn 0.9667 -0.2541 -0.0308
vn 0.9982 0.0600 -0.0087
vn -0.2032 0.9724 -0.1151
vn 0.9946 0.1034 -0.0056
vn -0.9998 0.0158 0.0116
vn -0.9999 -0.0162 -0.0020
vn -0.9999 0.0065 0.0159
vn -1.0000 -0.0093 0.0007
vn 0.9991 -0.0384 -0.0163
vn -1.0000 -0.0057 0.0043
vn -0.9997 -0.0162 -0.0154
usemtl algae_green
s off
f 28/1/1 26/2/1 17/3/1
f 17/3/2 27/4/2 28/1/2
f 34/5/3 33/6/3 19/7/3
f 32/8/4 30/9/4 18/10/4
f 28/1/5 27/4/5 21/11/5
f 36/12/6 34/5/6 19/7/6
f 31/13/7 24/14/7 32/8/7
f 36/12/8 35/15/8 22/16/8
f 30/9/9 28/1/9 21/11/9
f 26/2/10 36/12/10 22/16/10
f 15/17/11 2/18/11 23/19/11
f 22/16/12 13/20/12 25/21/12
f 12/22/13 27/4/13 4/23/13
f 37/24/14 24/14/14 20/25/14
f 18/10/15 5/26/15 31/13/15
f 35/15/16 19/7/16 8/27/16
f 34/5/17 15/17/17 23/19/17
f 22/16/18 25/21/18 26/2/18
f 24/14/19 1/28/19 10/29/19
f 21/11/20 12/22/20 29/30/20
f 2/31/21 15/32/21 16/33/21
f 34/5/22 7/34/22 15/32/22
f 32/8/23 10/35/23 6/36/23
f 13/20/24 35/15/24 8/27/24
f 36/12/25 14/37/25 7/38/25
f 17/3/26 4/23/26 27/4/26
f 5/26/27 29/30/27 12/22/27
f 21/11/28 29/30/28 30/9/28
f 8/27/29 33/6/29 16/33/29
f 16/33/30 7/38/30 8/27/30
f 23/19/31 16/33/31 33/6/31
f 28/1/32 11/39/32 3/40/32
f 4/23/33 25/21/33 13/20/33
f 9/41/34 31/13/34 5/26/34
f 14/42/35 4/23/35 13/20/35
f 30/9/36 29/30/36 18/10/36
f 30/9/37 6/43/37 11/44/37
f 18/10/38 31/13/38 32/8/38
f 12/22/39 6/36/39 5/26/39
f 13/20/40 22/16/40 35/15/40
f 23/19/41 33/6/41 34/5/41
f 10/29/42 1/45/42 9/41/42
f 5/26/43 18/10/43 29/30/43
f 19/7/44 35/15/44 36/12/44
f 8/27/45 19/7/45 33/6/45
f 5/26/46 10/29/46 9/41/46
f 32/8/47 24/14/47 10/35/47
f 25/21/48 17/3/48 26/2/48
f 12/22/49 21/11/49 27/4/49
f 2/18/50 16/33/50 23/19/50
f 26/2/51 3/46/51 14/42/51
f 20/25/52 1/47/52 37/24/52
f 9/41/53 20/25/53 31/13/53
f 4/23/54 17/3/54 25/21/54
f 8/27/55 14/42/55 13/20/55
f 4/23/56 11/44/56 12/22/56
f 28/1/57 3/46/57 26/2/57
f 32/8/58 6/43/58 30/9/58
f 36/12/59 7/34/59 34/5/59
f 31/13/60 20/25/60 24/14/60
f 30/9/61 11/39/61 28/1/61
f 26/2/62 14/37/62 36/12/62
f 24/14/63 37/24/63 1/28/63
f 16/33/64 15/32/64 7/38/64
f 14/42/65 3/40/65 4/23/65
f 12/22/66 11/44/66 6/36/66
f 5/26/67 6/36/67 10/29/67
f 20/25/68 9/41/68 1/47/68
f 8/27/69 7/38/69 14/42/69
f 4/23/70 3/40/70 11/44/70
