# Blender v2.92.0 OBJ File: 'algae.blend'
# www.blender.org
mtllib 111.mtl
o algae_cube_Cube
v -0.002811 0.130136 -1.922779
v -0.004867 0.087794 1.922779
v -0.003770 0.057657 -0.000000
v -0.004216 -0.059059 -0.000000
v -0.004044 -0.033765 -0.961390
v -0.003340 0.114187 -0.961390
v -0.004506 0.063695 0.977843
v -0.003720 -0.045600 0.977843
v -0.003999 -0.040738 -1.442085
v -0.003510 0.128374 -1.442085
v -0.003600 0.087577 -0.463846
v -0.004067 -0.043898 -0.463846
v -0.004071 -0.091823 0.488922
v -0.004396 0.099049 0.488922
v -0.004169 0.061107 1.448524
v -0.003654 -0.046140 1.448524
v 0.003937 0.002367 0.000000
v 0.003791 -0.008228 -0.961390
v 0.004051 -0.063250 0.977843
v 0.004008 -0.047905 -1.442085
v 0.004239 -0.002267 -0.463846
v 0.003817 0.007976 0.488922
v 0.003755 0.015068 1.448524
v 0.004186 0.072076 -1.442085
v 0.004239 -0.024297 0.244461
v 0.003708 0.052221 0.244461
v 0.003930 -0.007920 -0.231923
v 0.004155 0.061676 -0.231923
v 0.003881 0.000262 -0.712618
v 0.004171 0.066232 -0.712618
v 0.004033 -0.041889 -1.201737
v 0.003947 0.036119 -1.201737
v 0.003988 -0.047475 1.213183
v 0.003940 0.068315 1.213183
v 0.003998 -0.011465 0.733382
v 0.003788 0.032856 0.733382
v 0.004329 0.032210 -1.555286
vt 0.643463 0.399518
vt 0.608433 0.399032
vt 0.627218 0.287293
vt 0.644229 0.287478
vt 0.537200 0.398044
vt 0.538232 0.286325
vt 0.555494 0.286513
vt 0.714776 0.400507
vt 0.678809 0.400008
vt 0.697735 0.288059
vt 0.661241 0.287663
vt 0.572481 0.398533
vt 0.732994 0.288443
vt 0.732449 0.400752
vt 0.573425 0.286708
vt 0.591356 0.286903
vt 0.522054 -0.211154
vt 0.483530 0.675856
vt 0.520970 0.286138
vt 0.592689 0.011366
vt 0.609287 0.287098
vt 0.662490 0.012024
vt 0.628508 0.011703
vt 0.741032 0.345449
vt 0.698940 0.012367
vt 0.715365 0.288251
vt 0.556870 0.011028
vt 1.051103 0.015687
vt 0.731277 0.678201
vt 0.679488 0.287861
vt 0.204504 0.007695
vt 0.518449 0.676186
vt 0.522387 0.010703
vt 0.556709 -0.210826
vt 0.734882 -0.209139
vt 0.695884 0.677866
vt 0.592707 -0.210485
vt 0.553104 0.676514
vt 0.662857 -0.209821
vt 0.625100 0.677196
vt 0.734157 0.012699
vt 0.699490 -0.209474
vt 0.659252 0.677519
vt 0.766669 0.678536
vt 0.628705 -0.210144
vt 0.589102 0.676855
vt 0.770274 -0.208804
vn 1.0000 -0.0000 0.0009
vn 1.0000 -0.0032 0.0001
vn 1.0000 0.0004 0.0002
vn 1.0000 -0.0045 -0.0002
vn 1.0000 -0.0032 0.0013
vn 1.0000 0.0016 -0.0004
vn 1.0000 -0.0015 0.0008
vn 1.0000 0.0047 -0.0004
vn 1.0000 0.0012 0.0000
vn 1.0000 0.0020 -0.0001
vn 0.9855 0.1696 -0.0081
vn 0.9968 -0.0788 0.0121
vn 0.9832 -0.1822 -0.0056
vn 1.0000 -0.0015 0.0018
vn 0.9552 -0.2930 0.0420
vn -0.9119 -0.4015 -0.0849
vn 0.9848 0.1695 0.0391
vn 1.0000 0.0069 0.0008
vn 0.9908 0.1354 0.0019
vn 0.9807 -0.1957 -0.0034
vn -1.0000 -0.0048 -0.0012
vn -0.5813 0.8136 0.0049
vn 0.9963 0.0862 0.0022
vn 0.9906 -0.1366 0.0122
vn 0.9858 0.1674 0.0123
vn 0.9913 -0.1316 0.0058
vn 0.9800 -0.1989 -0.0040
vn 1.0000 -0.0044 -0.0015
vn -0.2047 -0.9788 -0.0011
vn -1.0000 -0.0048 0.0001
vn 0.9922 -0.1201 0.0329
vn 0.8123 0.5820 0.0378
vn 0.9868 -0.1617 -0.0111
vn -0.4990 -0.8665 0.0125
vn -1.0000 0.0038 0.0006
vn 1.0000 -0.0044 -0.0002
vn 0.9765 0.2153 0.0120
vn 1.0000 0.0011 0.0009
vn -1.0000 0.0036 0.0000
vn 0.9969 -0.0788 -0.0070
vn 1.0000 0.0004 0.0009
vn -1.0000 0.0029 -0.0014
vn 0.9560 -0.2933 0.0097
vn 1.0000 0.0047 0.0008
vn -0.9149 -0.4028 0.0268
vn -1.0000 0.0048 -0.0002
vn 0.9906 0.1354 0.0212
vn 1.0000 0.0069 -0.0005
vn 0.9807 -0.1957 -0.0035
vn 0.9921 -0.1201 0.0365
vn 0.9581 0.2856 -0.0230
vn 0.9677 -0.2381 -0.0823
vn -0.6668 -0.7450 0.0187
vn 0.9912 -0.1316 -0.0156
vn -1.0000 -0.0017 0.0009
vn -1.0000 0.0038 -0.0002
vn 0.0756 0.9969 0.0199
vn 0.9932 0.1161 -0.0076
vn 0.8357 0.5477 -0.0407
vn 1.0000 0.0011 -0.0001
vn 0.9503 0.3112 0.0030
vn 0.9898 0.1426 0.0055
vn 0.9994 0.0334 -0.0105
vn -1.0000 -0.0072 0.0007
vn -1.0000 -0.0017 -0.0011
vn -1.0000 0.0048 -0.0003
vn -1.0000 0.0029 0.0004
vn -0.5895 -0.6586 -0.4678
vn -1.0000 -0.0072 -0.0007
vn -1.0000 0.0036 -0.0001
usemtl algae_green
s off
f 28/1/1 26/2/1 17/3/1
f 17/3/2 27/4/2 28/1/2
f 34/5/3 33/6/3 19/7/3
f 32/8/4 30/9/4 18/10/4
f 28/1/5 27/4/5 21/11/5
f 36/12/6 34/5/6 19/7/6
f 32/8/7 20/13/7 24/14/7
f 36/12/8 35/15/8 22/16/8
f 30/9/9 28/1/9 21/11/9
f 26/2/10 36/12/10 22/16/10
f 15/17/11 2/18/11 23/19/11
f 22/16/12 13/20/12 25/21/12
f 12/22/13 27/4/13 4/23/13
f 37/24/14 24/14/14 20/13/14
f 18/10/15 5/25/15 31/26/15
f 35/15/16 19/7/16 8/27/16
f 34/5/17 15/17/17 23/19/17
f 22/16/18 25/21/18 26/2/18
f 24/14/19 1/28/19 10/29/19
f 21/11/20 12/22/20 29/30/20
f 2/31/21 15/32/21 16/33/21
f 34/5/22 7/34/22 15/32/22
f 32/8/23 10/35/23 6/36/23
f 13/20/24 35/15/24 8/27/24
f 36/12/25 14/37/25 7/38/25
f 17/3/26 4/23/26 27/4/26
f 5/25/27 29/30/27 12/22/27
f 21/11/28 29/30/28 30/9/28
f 8/27/29 33/6/29 16/33/29
f 15/32/30 8/27/30 16/33/30
f 23/19/31 16/33/31 33/6/31
f 28/1/32 11/39/32 3/40/32
f 4/23/33 25/21/33 13/20/33
f 9/41/34 31/26/34 5/25/34
f 13/20/35 3/40/35 4/23/35
f 30/9/36 29/30/36 18/10/36
f 30/9/37 6/42/37 11/43/37
f 18/10/38 31/26/38 32/8/38
f 11/43/39 5/25/39 12/22/39
f 13/20/40 22/16/40 35/15/40
f 23/19/41 33/6/41 34/5/41
f 10/29/42 1/44/42 9/41/42
f 5/25/43 18/10/43 29/30/43
f 19/7/44 35/15/44 36/12/44
f 8/27/45 19/7/45 33/6/45
f 6/36/46 9/41/46 5/25/46
f 32/8/47 24/14/47 10/35/47
f 25/21/48 17/3/48 26/2/48
f 12/22/49 21/11/49 27/4/49
f 2/18/50 16/33/50 23/19/50
f 26/2/51 3/45/51 14/46/51
f 37/24/52 9/41/52 1/47/52
f 9/41/53 20/13/53 31/26/53
f 4/23/54 17/3/54 25/21/54
f 8/27/55 14/46/55 13/20/55
f 3/40/56 12/22/56 4/23/56
f 28/1/57 3/45/57 26/2/57
f 32/8/58 6/42/58 30/9/58
f 36/12/59 7/34/59 34/5/59
f 32/8/60 31/26/60 20/13/60
f 30/9/61 11/39/61 28/1/61
f 26/2/62 14/37/62 36/12/62
f 24/14/63 37/24/63 1/28/63
f 15/32/64 7/38/64 8/27/64
f 13/20/65 14/46/65 3/40/65
f 11/43/66 6/36/66 5/25/66
f 6/36/67 10/29/67 9/41/67
f 37/24/68 20/13/68 9/41/68
f 8/27/69 7/38/69 14/46/69
f 3/40/70 11/43/70 12/22/70
