# Blender v2.92.0 OBJ File: 'algae.blend'
# www.blender.org
mtllib 118.mtl
o algae_cube_Cube
v -0.003563 -0.096016 -1.942435
v -0.003526 -0.083876 1.940381
v 0.004215 -0.085833 1.516130
v 0.003881 0.057718 0.777309
v 0.004040 0.062538 -1.141666
v -0.004181 -0.068579 0.500053
v 0.004266 0.054916 1.137472
v 0.004027 0.060150 0.193068
v -0.003870 -0.094216 0.247812
v 0.003909 0.062175 -0.183941
v 0.004270 0.076488 -1.311309
v -0.003795 -0.069144 -1.694387
v 0.003916 0.067211 0.963900
v 0.004072 0.057931 0.578668
v 0.004384 0.060822 1.413046
v 0.004061 0.061876 0.675543
v 0.004188 0.067981 0.480095
v 0.004208 0.054501 0.287753
v 0.003974 0.057297 0.096713
v 0.004060 0.072681 -0.091469
v 0.004026 0.062098 -0.274778
v -0.004150 0.075105 -0.601213
v 0.003830 0.089266 -0.468050
v 0.004234 0.056181 -0.656719
v -0.003870 0.054271 -0.849254
v 0.003938 0.074349 -0.859733
v 0.004243 0.073737 -1.413522
v -0.003558 0.055752 -1.812526
vt 0.643084 0.454791
vt 0.617010 0.454390
vt 0.686726 0.677779
vt 0.651622 0.454922
vt 0.672015 -0.209734
vt 0.634547 0.454660
vt 0.608011 0.454252
vt 0.599012 0.454114
vt 0.581014 0.453838
vt 0.572015 0.453700
vt 0.563016 0.453562
vt 0.554017 0.453424
vt 0.536691 0.453158
vt 0.519364 0.452892
vt 0.493177 0.452490
vt 0.486742 0.232211
vt 0.487643 0.010376
vt 0.592689 0.011366
vt 0.610599 0.011534
vt 0.750743 0.012855
vt 0.769373 0.013031
vt 0.757308 0.678448
vt 0.758209 0.456557
vt 0.748849 0.456414
vt 0.732180 0.456158
vt 0.705774 0.455753
vt 0.687632 0.455474
vt 0.668410 0.677606
vt 0.669317 0.455193
vt 0.760913 -0.208893
vn 0.9311 -0.3647 -0.0066
vn 0.8394 0.5435 0.0006
vn 0.9999 -0.0107 -0.0004
vn 0.9999 0.0152 -0.0010
vn 1.0000 -0.0063 0.0005
vn 0.9998 -0.0205 0.0009
vn 0.9999 0.0151 -0.0010
vn 1.0000 -0.0014 -0.0004
vn -0.6316 -0.7753 -0.0079
vn 0.9999 0.0104 0.0002
vn 1.0000 -0.0009 0.0010
vn 0.9199 -0.3922 -0.0003
vn 0.9999 -0.0149 0.0001
vn 0.9999 0.0138 -0.0002
vn -0.4405 -0.8970 -0.0373
vn 1.0000 -0.0006 0.0002
vn 1.0000 -0.0016 0.0003
vn 1.0000 -0.0033 -0.0011
vn 0.9990 -0.0440 -0.0090
vn 0.9993 -0.0382 0.0009
vn 0.4835 -0.8753 -0.0117
vn 0.9845 0.1750 -0.0136
vn 0.9722 -0.2319 -0.0336
vn -0.8394 -0.5435 -0.0006
vn -0.9960 -0.0889 -0.0001
vn 0.9979 -0.0641 0.0002
vn 0.9959 -0.0901 -0.0080
vn -0.8630 -0.5036 0.0413
vn -0.9999 -0.0138 0.0002
vn -0.9999 0.0149 -0.0001
vn -1.0000 0.0009 -0.0010
vn -0.9999 -0.0104 -0.0002
vn 0.6316 0.7753 0.0079
vn -1.0000 0.0014 0.0004
vn -0.9999 -0.0151 0.0010
vn -0.9998 0.0205 -0.0009
vn -1.0000 0.0063 -0.0005
vn -0.9999 -0.0152 0.0010
vn -0.9999 0.0107 0.0004
vn -0.9993 0.0382 -0.0009
vn 0.9960 0.0889 0.0001
vn -1.0000 0.0033 0.0011
vn -0.9990 0.0440 0.0090
vn -0.9979 0.0641 -0.0002
vn -1.0000 -0.0011 -0.0002
vn -0.8235 0.5672 -0.0095
vn -1.0000 0.0014 -0.0005
vn 0.9759 0.2182 0.0097
vn 0.9194 0.3933 0.0048
vn -0.9938 0.1105 0.0144
vn 0.5805 0.8142 0.0140
vn -0.9722 0.2319 0.0336
usemtl algae_green
s off
f 10/1/1 19/2/1 25/3/1
f 10/1/2 21/4/2 22/5/2
f 10/1/3 20/6/3 19/2/3
f 19/2/4 8/7/4 18/8/4
f 18/8/5 17/9/5 14/10/5
f 14/10/6 16/11/6 4/12/6
f 4/12/7 13/13/7 7/14/7
f 7/14/8 15/15/8 3/16/8
f 3/16/9 2/17/9 6/18/9
f 6/18/10 9/19/10 12/20/10
f 12/20/11 1/21/11 28/22/11
f 28/22/12 27/23/12 25/3/12
f 27/23/13 11/24/13 5/25/13
f 5/25/14 26/26/14 24/27/14
f 27/23/15 5/25/15 25/3/15
f 6/18/16 12/20/16 25/3/16
f 12/20/17 28/22/17 25/3/17
f 7/14/18 3/16/18 4/12/18
f 3/16/19 6/18/19 4/12/19
f 18/8/20 14/10/20 4/12/20
f 5/25/21 24/27/21 25/3/21
f 25/3/22 22/28/22 10/1/22
f 22/28/23 23/29/23 21/4/23
f 22/28/24 21/4/24 10/1/24
f 18/8/25 4/12/25 19/2/25
f 4/12/26 6/18/26 19/2/26
f 6/18/27 25/3/27 19/2/27
f 22/5/28 25/3/28 24/27/28
f 24/27/29 26/26/29 5/25/29
f 5/25/30 11/24/30 27/23/30
f 28/30/31 1/21/31 12/20/31
f 12/20/32 9/19/32 6/18/32
f 6/18/33 2/17/33 3/16/33
f 3/16/34 15/15/34 7/14/34
f 7/14/35 13/13/35 4/12/35
f 4/12/36 16/11/36 14/10/36
f 14/10/37 17/9/37 18/8/37
f 18/8/38 8/7/38 19/2/38
f 19/2/39 20/6/39 10/1/39
f 14/10/40 18/8/40 4/12/40
f 18/8/41 19/2/41 4/12/41
f 3/16/42 7/14/42 4/12/42
f 3/16/43 4/12/43 6/18/43
f 4/12/44 19/2/44 6/18/44
f 12/20/45 6/18/45 22/5/45
f 27/23/46 28/30/46 22/5/46
f 28/30/47 12/20/47 22/5/47
f 27/23/48 22/5/48 5/25/48
f 22/5/49 24/27/49 5/25/49
f 6/18/50 19/2/50 22/5/50
f 19/2/51 10/1/51 22/5/51
f 21/4/52 23/29/52 22/5/52
