# Blender v2.92.0 OBJ File: 'algae.blend'
# www.blender.org
mtllib 12.mtl
o algae_cube_Cube
v -0.006977 0.136137 -1.197821
v -0.000710 0.109670 1.127215
v -0.007385 0.058901 -0.000000
v -0.001545 -0.060596 -0.000000
v -0.006742 -0.036308 -0.505494
v -0.007994 0.121636 -0.578627
v -0.000377 0.073257 0.536490
v -0.003348 -0.038198 0.514923
v -0.006817 -0.047652 -0.765994
v -0.003979 0.135240 -0.896385
v -0.007496 0.092270 -0.262727
v -0.002310 -0.045340 -0.245819
v -0.000391 -0.096866 0.279329
v -0.002546 0.112414 0.288309
v -0.006995 0.072590 0.793931
v -0.006866 -0.035966 0.761425
v 0.002182 0.008417 0.000000
v 0.007120 0.001628 -0.498355
v 0.005308 -0.077252 0.539808
v 0.000360 -0.042553 -0.762250
v 0.001980 0.006053 -0.240533
v 0.007142 0.012121 0.253840
v 0.003685 0.014734 0.752624
v 0.005878 0.091190 -0.815197
v 0.000538 -0.025526 0.127616
v 0.006979 0.056234 0.131081
v 0.002690 -0.002519 -0.120227
v 0.004173 0.070745 -0.126770
v 0.007011 0.010423 -0.369826
v 0.002219 0.079464 -0.394787
v 0.000812 -0.036933 -0.632179
v 0.006986 0.045900 -0.637217
v 0.007332 -0.059587 0.653173
v 0.000431 0.069015 0.661475
v 0.002903 -0.013115 0.380864
v 0.005909 0.029690 0.383801
vt 0.643463 0.399518
vt 0.608433 0.399032
vt 0.627218 0.287293
vt 0.644229 0.287478
vt 0.537200 0.398044
vt 0.538232 0.286325
vt 0.555494 0.286513
vt 0.714776 0.400507
vt 0.678809 0.400008
vt 0.697735 0.288059
vt 0.661241 0.287663
vt 0.572481 0.398533
vt 0.715365 0.288251
vt 0.732449 0.400752
vt 0.573425 0.286708
vt 0.591356 0.286903
vt 0.522054 -0.211154
vt 0.483530 0.675856
vt 0.520970 0.286138
vt 0.592689 0.011366
vt 0.609287 0.287098
vt 0.662490 0.012024
vt 0.628508 0.011703
vt 0.698940 0.012367
vt 0.556870 0.011028
vt 0.731277 0.678201
vt 1.051103 0.015687
vt 0.679488 0.287861
vt 0.204504 0.007695
vt 0.518449 0.676186
vt 0.522387 0.010703
vt 0.556709 -0.210826
vt 0.734882 -0.209139
vt 0.695884 0.677866
vt 0.592707 -0.210485
vt 0.553104 0.676514
vt 0.732994 0.288443
vt 0.770274 -0.208804
vt 0.662857 -0.209821
vt 0.625100 0.677196
vt 0.734157 0.012699
vt 0.589102 0.676855
vt 0.699490 -0.209474
vt 0.659252 0.677519
vt 0.766669 0.678536
vt 0.628705 -0.210144
vn 0.9980 -0.0609 -0.0143
vn 0.9998 -0.0197 0.0060
vn 0.9981 0.0553 -0.0264
vn 0.9989 0.0451 0.0134
vn 0.9998 -0.0209 -0.0074
vn 0.9997 0.0192 0.0170
vn 0.9968 -0.0758 -0.0255
vn 0.9973 -0.0713 0.0191
vn 0.9998 -0.0199 -0.0079
vn 0.9997 0.0219 0.0065
vn 0.9768 0.2102 -0.0418
vn 0.9967 -0.0758 -0.0295
vn 0.9958 -0.0907 -0.0087
vn 0.9342 -0.3522 0.0574
vn -0.9572 -0.2731 -0.0957
vn 0.9793 0.2023 -0.0091
vn 0.9880 0.1456 0.0515
vn 0.9966 -0.0773 -0.0291
vn 0.9956 -0.0868 0.0358
vn -0.9998 -0.0071 0.0196
vn 0.6979 0.7159 0.0198
vn 0.9836 0.1790 0.0201
vn 0.9965 -0.0778 0.0319
vn 0.9937 0.1119 0.0090
vn 0.9985 -0.0539 0.0091
vn 0.9759 -0.2169 -0.0242
vn 0.9956 0.0841 0.0416
vn -0.8729 -0.4878 -0.0080
vn -0.9999 0.0031 -0.0143
vn 0.9976 -0.0571 -0.0402
vn 0.9709 -0.1734 0.1652
vn 0.3418 0.9323 0.1183
vn 0.9995 -0.0301 -0.0080
vn 0.5414 -0.8400 0.0364
vn -0.9999 -0.0104 0.0028
vn 0.9977 0.0679 -0.0038
vn 0.9294 0.3677 0.0327
vn 0.9968 -0.0758 -0.0251
vn -0.9992 -0.0357 0.0158
vn 0.9977 -0.0641 0.0206
vn 0.9985 0.0538 -0.0036
vn -0.9997 0.0227 0.0100
vn 0.9375 -0.3472 0.0246
vn 0.9969 -0.0671 -0.0422
vn -0.9811 -0.1876 0.0468
vn -0.9999 0.0152 -0.0004
vn 0.9249 0.3698 0.0883
vn 0.9969 -0.0782 -0.0080
vn 0.6513 -0.6982 -0.2974
vn 0.9966 -0.0820 -0.0117
vn 0.9793 -0.1933 0.0605
vn 0.9079 0.4091 -0.0912
vn 0.5672 -0.8229 0.0336
vn 0.9985 -0.0539 -0.0015
vn -0.9999 -0.0099 -0.0101
vn -0.9988 -0.0488 0.0001
vn -0.3416 0.9382 0.0565
vn 0.9797 0.2003 -0.0085
vn 0.9891 0.1475 -0.0014
vn 0.9991 -0.0419 -0.0017
vn 0.8482 0.5296 0.0110
vn 0.9925 0.1210 0.0169
vn -0.9992 0.0316 -0.0256
vn -0.9985 -0.0488 0.0258
vn -1.0000 -0.0075 0.0009
vn -0.9998 -0.0141 -0.0132
vn -0.9996 0.0242 0.0126
vn -0.9993 -0.0382 -0.0044
usemtl algae_green
s off
f 28/1/1 26/2/1 17/3/1
f 17/3/2 27/4/2 28/1/2
f 34/5/3 33/6/3 19/7/3
f 32/8/4 30/9/4 18/10/4
f 28/1/5 27/4/5 21/11/5
f 36/12/6 34/5/6 19/7/6
f 31/13/7 24/14/7 32/8/7
f 36/12/8 35/15/8 22/16/8
f 30/9/9 28/1/9 21/11/9
f 26/2/10 36/12/10 22/16/10
f 15/17/11 2/18/11 23/19/11
f 22/16/12 13/20/12 25/21/12
f 12/22/13 27/4/13 4/23/13
f 18/10/14 5/24/14 31/13/14
f 35/15/15 19/7/15 8/25/15
f 10/26/16 24/14/16 1/27/16
f 34/5/17 15/17/17 23/19/17
f 22/16/18 25/21/18 26/2/18
f 21/11/19 12/22/19 29/28/19
f 2/29/20 15/30/20 16/31/20
f 34/5/21 7/32/21 15/30/21
f 32/8/22 10/33/22 6/34/22
f 13/20/23 35/15/23 8/25/23
f 36/12/24 14/35/24 7/36/24
f 17/3/25 4/23/25 27/4/25
f 5/24/26 29/28/26 12/22/26
f 21/11/27 29/28/27 30/9/27
f 8/25/28 33/6/28 16/31/28
f 15/30/29 8/25/29 16/31/29
f 20/37/30 1/38/30 24/14/30
f 23/19/31 16/31/31 33/6/31
f 28/1/32 11/39/32 3/40/32
f 4/23/33 25/21/33 13/20/33
f 9/41/34 31/13/34 5/24/34
f 14/42/35 4/23/35 13/20/35
f 30/9/36 29/28/36 18/10/36
f 30/9/37 6/43/37 11/44/37
f 18/10/38 31/13/38 32/8/38
f 11/44/39 5/24/39 12/22/39
f 13/20/40 22/16/40 35/15/40
f 23/19/41 33/6/41 34/5/41
f 10/26/42 1/45/42 9/41/42
f 5/24/43 18/10/43 29/28/43
f 19/7/44 35/15/44 36/12/44
f 8/25/45 19/7/45 33/6/45
f 5/24/46 10/26/46 9/41/46
f 32/8/47 24/14/47 10/33/47
f 25/21/48 17/3/48 26/2/48
f 20/37/49 9/41/49 1/38/49
f 12/22/50 21/11/50 27/4/50
f 2/18/51 16/31/51 23/19/51
f 26/2/52 3/46/52 14/42/52
f 9/41/53 20/37/53 31/13/53
f 4/23/54 17/3/54 25/21/54
f 8/25/55 14/42/55 13/20/55
f 3/40/56 12/22/56 4/23/56
f 28/1/57 3/46/57 26/2/57
f 32/8/58 6/43/58 30/9/58
f 36/12/59 7/32/59 34/5/59
f 31/13/60 20/37/60 24/14/60
f 30/9/61 11/39/61 28/1/61
f 26/2/62 14/35/62 36/12/62
f 15/30/63 7/36/63 8/25/63
f 14/42/64 3/40/64 4/23/64
f 11/44/65 6/34/65 5/24/65
f 5/24/66 6/34/66 10/26/66
f 8/25/67 7/36/67 14/42/67
f 3/40/68 11/44/68 12/22/68
