# Blender v2.92.0 OBJ File: 'algae.blend'
# www.blender.org
mtllib 128.mtl
o algae_cube_Cube
v -0.002675 0.055903 -1.156464
v -0.002460 0.070670 1.156464
v -0.000869 0.080814 -0.000000
v -0.006186 -0.080344 -0.000000
v -0.004680 -0.084513 -0.578232
v -0.007108 0.061554 -0.578232
v -0.002326 0.079135 0.588128
v -0.005278 -0.089146 0.588128
v -0.003742 -0.080225 -0.867348
v -0.002818 0.057015 -0.867348
v -0.003823 0.070546 -0.278982
v -0.000958 -0.083372 -0.278982
v -0.007254 -0.071341 0.294064
v -0.005823 0.066966 0.294064
v -0.003591 0.080436 0.871221
v -0.005104 -0.091040 0.871221
v 0.007177 -0.052218 0.000000
v 0.006330 -0.048853 -0.578232
v 0.004012 -0.029320 0.588128
v 0.000824 -0.050830 -0.278982
v 0.001647 -0.054042 0.294064
v 0.005549 -0.056364 0.871221
v 0.007247 -0.043128 0.147032
v 0.002157 0.033229 0.147032
v 0.002817 -0.048837 -0.139491
v 0.007210 0.028753 -0.139491
v 0.001653 -0.051622 -0.428607
v 0.002682 0.025962 -0.428607
v 0.002635 -0.038186 -0.722790
v 0.006612 0.034527 -0.722790
v 0.000881 -0.034605 0.729675
v 0.004777 0.030532 0.729675
v 0.001000 -0.047287 0.441096
v 0.001237 0.041247 0.441096
vt 0.643463 0.399518
vt 0.608433 0.399032
vt 0.627218 0.287293
vt 0.644229 0.287478
vt 0.537200 0.398044
vt 0.538232 0.286325
vt 0.555494 0.286513
vt 0.714776 0.400507
vt 0.678809 0.400008
vt 0.697735 0.288059
vt 0.661241 0.287663
vt 0.572481 0.398533
vt 0.573425 0.286708
vt 0.591356 0.286903
vt 0.522054 -0.211154
vt 0.483530 0.675856
vt 0.520970 0.286138
vt 0.592689 0.011366
vt 0.609287 0.287098
vt 0.662490 0.012024
vt 0.628508 0.011703
vt 0.698940 0.012367
vt 0.715365 0.288251
vt 0.556870 0.011028
vt 0.679488 0.287861
vt 0.204504 0.007695
vt 0.518449 0.676186
vt 0.522387 0.010703
vt 0.556709 -0.210826
vt 0.734882 -0.209139
vt 0.695884 0.677866
vt 0.592707 -0.210485
vt 0.553104 0.676514
vt 0.662857 -0.209821
vt 0.625100 0.677196
vt 0.734157 0.012699
vt 0.589102 0.676855
vt 0.699490 -0.209474
vt 0.659252 0.677519
vt 0.731277 0.678201
vt 0.766669 0.678536
vt 1.051103 0.015687
vt 0.770274 -0.208804
vt 0.628705 -0.210144
vn 0.9994 0.0292 0.0172
vn 0.9979 -0.0565 -0.0326
vn 0.9980 -0.0597 0.0198
vn 0.9997 0.0208 0.0140
vn 0.9983 -0.0565 -0.0135
vn 0.9998 0.0149 -0.0117
vn 1.0000 -0.0027 0.0045
vn 0.9984 -0.0536 -0.0151
vn 1.0000 -0.0005 0.0031
vn 0.9978 0.0667 -0.0017
vn 0.8892 -0.4575 -0.0001
vn 0.9816 -0.1899 0.0205
vn 0.9545 -0.2947 -0.0461
vn 0.9882 -0.1535 -0.0015
vn 0.9971 0.0666 0.0355
vn 0.9969 0.0665 0.0429
vn 0.9985 -0.0547 0.0058
vn -1.0000 0.0088 0.0043
vn 0.9879 0.1552 0.0037
vn 0.9059 0.4235 0.0068
vn 0.9764 -0.2153 -0.0196
vn 0.9862 0.1647 -0.0185
vn 0.9026 -0.4288 -0.0386
vn 0.9905 -0.1371 -0.0118
vn 0.9999 -0.0133 0.0056
vn 0.9941 -0.1088 -0.0013
vn -1.0000 0.0088 0.0007
vn 0.9531 -0.2928 -0.0764
vn 0.9797 0.1995 -0.0177
vn 0.9196 -0.3926 0.0154
vn 0.9882 -0.1531 0.0009
vn -0.9999 0.0103 -0.0039
vn 0.9994 -0.0132 0.0310
vn 0.9798 0.1991 -0.0167
vn 0.9981 -0.0546 -0.0295
vn -0.9997 -0.0186 0.0125
vn 0.8889 -0.4574 0.0249
vn 0.9973 -0.0597 -0.0421
vn -1.0000 0.0067 -0.0005
vn 0.9552 -0.2949 0.0244
vn 0.9998 -0.0027 -0.0202
vn 0.9880 -0.1534 0.0161
vn -1.0000 0.0067 -0.0031
vn 0.9982 -0.0546 -0.0241
vn 0.9978 0.0665 -0.0046
vn 0.9977 -0.0626 -0.0258
vn 0.9984 -0.0547 -0.0135
vn 0.9443 -0.2901 0.1557
vn 0.9907 0.1341 0.0230
vn 0.9029 -0.4290 0.0261
vn -0.9999 0.0103 0.0073
vn -0.9997 -0.0186 -0.0185
vn 0.9936 0.1119 0.0158
vn 0.9353 0.3530 0.0228
vn 0.9924 0.1229 -0.0076
vn 0.9795 0.2009 -0.0173
vn 0.9695 0.2452 -0.0037
vn -0.9998 0.0175 -0.0046
vn -0.9993 0.0330 -0.0153
vn -0.9998 -0.0166 0.0115
vn -0.9998 -0.0166 -0.0146
vn 0.9245 0.3812 -0.0010
vn -0.9998 0.0175 0.0112
vn -0.9994 0.0330 0.0094
usemtl algae_green
s off
f 26/1/1 24/2/1 17/3/1
f 17/3/2 25/4/2 26/1/2
f 32/5/3 31/6/3 19/7/3
f 30/8/4 28/9/4 18/10/4
f 26/1/5 25/4/5 20/11/5
f 34/12/6 32/5/6 19/7/6
f 34/12/7 33/13/7 21/14/7
f 28/9/8 26/1/8 20/11/8
f 24/2/9 34/12/9 21/14/9
f 15/15/10 2/16/10 22/17/10
f 21/14/11 13/18/11 23/19/11
f 12/20/12 25/4/12 4/21/12
f 18/10/13 5/22/13 29/23/13
f 33/13/14 19/7/14 8/24/14
f 32/5/15 15/15/15 22/17/15
f 21/14/16 23/19/16 24/2/16
f 20/11/17 12/20/17 27/25/17
f 2/26/18 15/27/18 16/28/18
f 32/5/19 7/29/19 15/27/19
f 30/8/20 10/30/20 6/31/20
f 13/18/21 33/13/21 8/24/21
f 34/12/22 14/32/22 7/33/22
f 17/3/23 4/21/23 25/4/23
f 5/22/24 27/25/24 12/20/24
f 20/11/25 27/25/25 28/9/25
f 8/24/26 31/6/26 16/28/26
f 15/27/27 8/24/27 16/28/27
f 22/17/28 16/28/28 31/6/28
f 26/1/29 11/34/29 3/35/29
f 4/21/30 23/19/30 13/18/30
f 9/36/31 29/23/31 5/22/31
f 14/37/32 4/21/32 13/18/32
f 28/9/33 27/25/33 18/10/33
f 28/9/34 6/38/34 11/39/34
f 18/10/35 29/23/35 30/8/35
f 11/39/36 5/22/36 12/20/36
f 13/18/37 21/14/37 33/13/37
f 22/17/38 31/6/38 32/5/38
f 10/40/39 1/41/39 9/36/39
f 5/22/40 18/10/40 27/25/40
f 19/7/41 33/13/41 34/12/41
f 8/24/42 19/7/42 31/6/42
f 5/22/43 10/40/43 9/36/43
f 1/42/44 30/8/44 29/23/44
f 23/19/45 17/3/45 24/2/45
f 29/23/46 9/36/46 1/43/46
f 12/20/47 20/11/47 25/4/47
f 2/16/48 16/28/48 22/17/48
f 24/2/49 3/44/49 14/37/49
f 4/21/50 17/3/50 23/19/50
f 8/24/51 14/37/51 13/18/51
f 4/21/52 11/39/52 12/20/52
f 26/1/53 3/44/53 24/2/53
f 30/8/54 6/38/54 28/9/54
f 34/12/55 7/29/55 32/5/55
f 28/9/56 11/34/56 26/1/56
f 24/2/57 14/32/57 34/12/57
f 15/27/58 7/33/58 8/24/58
f 14/37/59 3/35/59 4/21/59
f 11/39/60 6/31/60 5/22/60
f 5/22/61 6/31/61 10/40/61
f 1/42/62 10/30/62 30/8/62
f 8/24/63 7/33/63 14/37/63
f 4/21/64 3/35/64 11/39/64
