# Blender v2.92.0 OBJ File: 'algae.blend'
# www.blender.org
mtllib 133.mtl
o algae_cube_Cube
v -0.003217 0.091105 -1.845343
v -0.005384 0.083529 2.398482
v -0.003322 0.068998 0.171268
v -0.002692 -0.069483 -0.139755
v -0.003091 -0.062531 -1.171946
v -0.002318 0.086954 -0.880717
v -0.002101 0.073107 1.161633
v -0.003506 -0.063072 0.880194
v -0.002465 -0.065778 -1.663245
v -0.006225 0.090848 -1.125036
v -0.005581 0.078549 -0.169135
v -0.004959 -0.065116 -0.737155
v -0.003997 -0.079864 0.285211
v -0.004134 0.084315 0.785226
v -0.004368 0.072916 1.788672
v -0.003465 -0.062433 1.386771
v 0.002782 -0.024364 0.050499
v 0.002544 -0.026308 -0.974274
v 0.003119 -0.048886 1.157254
v 0.002262 -0.038954 -1.471846
v 0.005959 -0.025041 -0.382926
v 0.003853 -0.023304 0.587628
v 0.001985 -0.022556 1.576096
v 0.001900 0.052170 -1.613453
v 0.004178 -0.034080 0.366652
v 0.005166 0.042165 0.098307
v 0.004223 -0.027495 -0.160576
v 0.002997 0.046319 -0.350949
v 0.004130 -0.023790 -0.685837
v 0.004297 0.048814 -0.916909
v 0.002896 -0.037345 -1.200494
v 0.005772 0.039207 -1.449977
v 0.001849 0.044582 -1.841282
v 0.004144 -0.043829 1.429451
v 0.005509 0.045823 1.106045
v 0.005515 -0.030528 0.906888
v 0.003653 0.034567 0.687548
v 0.006063 -0.071340 -1.341318
v 0.003910 0.014244 -1.697397
vt 0.643463 0.399518
vt 0.608433 0.399032
vt 0.627218 0.287293
vt 0.644229 0.287478
vt 0.537200 0.398044
vt 0.538232 0.286325
vt 0.555494 0.286513
vt 0.714776 0.400507
vt 0.678809 0.400008
vt 0.697735 0.288059
vt 0.661241 0.287663
vt 0.572481 0.398533
vt 0.715365 0.288251
vt 0.732449 0.400752
vt 0.573425 0.286708
vt 0.591356 0.286903
vt 0.522054 -0.211154
vt 0.483530 0.675856
vt 0.520970 0.286138
vt 0.592689 0.011366
vt 0.609287 0.287098
vt 0.662490 0.012024
vt 0.628508 0.011703
vt 0.741032 0.345449
vt 0.732994 0.288443
vt 0.698940 0.012367
vt 0.556870 0.011028
vt 0.749097 0.400983
vt 1.051103 0.015687
vt 0.731277 0.678201
vt 0.679488 0.287861
vt 0.204504 0.007695
vt 0.518449 0.676186
vt 0.522387 0.010703
vt 0.556709 -0.210826
vt 0.734882 -0.209139
vt 0.695884 0.677866
vt 0.592707 -0.210485
vt 0.553104 0.676514
vt 0.662857 -0.209821
vt 0.625100 0.677196
vt 0.734157 0.012699
vt 0.699490 -0.209474
vt 0.659252 0.677519
vt 0.766669 0.678536
vt 0.741549 0.234612
vt 0.628705 -0.210144
vt 0.589102 0.676855
vt 0.770274 -0.208804
vn 0.9995 -0.0321 -0.0051
vn 0.9994 0.0329 0.0063
vn 0.9996 -0.0270 -0.0033
vn 0.9997 -0.0258 0.0032
vn 0.9993 0.0378 0.0082
vn 0.9996 -0.0272 -0.0037
vn 0.9876 -0.1528 -0.0355
vn 0.9999 0.0120 -0.0049
vn 0.9992 0.0404 0.0025
vn 1.0000 -0.0010 0.0026
vn 0.9979 0.0652 0.0005
vn 0.9808 -0.1946 0.0109
vn 0.9863 -0.1649 -0.0049
vn 0.9996 0.0242 0.0130
vn 0.9758 -0.2182 0.0122
vn 0.9657 -0.2596 -0.0098
vn 0.9941 0.1086 0.0042
vn 0.9992 0.0376 0.0130
vn 1.0000 -0.0066 0.0018
vn 0.9983 0.0577 -0.0021
vn 0.9784 -0.2068 -0.0068
vn -1.0000 -0.0018 -0.0016
vn 0.9651 0.2619 0.0036
vn 0.9571 0.2896 -0.0107
vn 0.9622 -0.2724 0.0069
vn 0.9878 0.1560 -0.0007
vn 0.9874 -0.1581 0.0091
vn 0.9759 -0.2182 0.0029
vn 0.9997 -0.0218 -0.0061
vn 0.9252 -0.3794 0.0004
vn -0.9999 0.0102 0.0001
vn 0.8297 -0.5506 0.0921
vn 0.9673 0.2535 0.0007
vn 0.9848 -0.1737 -0.0012
vn 0.9736 -0.2283 0.0027
vn -1.0000 0.0022 -0.0030
vn 0.9998 -0.0193 -0.0053
vn 0.9863 0.1649 0.0065
vn 0.9996 -0.0280 0.0029
vn -0.9999 0.0124 -0.0042
vn 0.9951 -0.0985 -0.0074
vn 0.9996 0.0249 0.0111
vn -0.9999 -0.0096 -0.0042
vn 0.9914 -0.1307 -0.0043
vn 0.9966 0.0806 0.0154
vn 0.8508 -0.5254 0.0066
vn -0.9998 -0.0201 -0.0011
vn 0.9604 -0.2695 -0.0706
vn 0.3112 0.9244 0.2203
vn 0.9691 0.2465 -0.0034
vn 0.9995 -0.0319 -0.0054
vn 0.9993 -0.0265 -0.0269
vn 0.9548 -0.2971 0.0042
vn 0.9059 -0.4189 0.0622
vn 0.9386 0.3449 -0.0117
vn 0.9480 0.3181 -0.0067
vn -0.9996 -0.0114 0.0263
vn 0.9864 -0.1644 -0.0013
vn 0.9959 -0.0906 -0.0072
vn -1.0000 -0.0037 0.0009
vn -0.9999 -0.0129 0.0037
vn 0.9520 0.3060 -0.0018
vn 0.9852 0.1712 -0.0004
vn 0.9565 0.2914 -0.0121
vn 1.0000 0.0003 -0.0023
vn 0.9708 0.2398 0.0033
vn 0.9893 0.1462 0.0044
vn -1.0000 0.0041 -0.0036
vn -1.0000 0.0035 -0.0014
vn -0.9999 0.0138 -0.0044
vn -0.9996 -0.0252 0.0156
vn -0.9938 -0.1097 -0.0171
vn -1.0000 -0.0008 0.0054
vn -0.9996 -0.0275 0.0059
usemtl algae_green
s off
f 28/1/1 26/2/1 17/3/1
f 17/3/2 27/4/2 28/1/2
f 35/5/3 34/6/3 19/7/3
f 32/8/4 30/9/4 18/10/4
f 28/1/5 27/4/5 21/11/5
f 37/12/6 35/5/6 19/7/6
f 31/13/7 24/14/7 32/8/7
f 37/12/8 36/15/8 22/16/8
f 30/9/9 28/1/9 21/11/9
f 26/2/10 37/12/10 22/16/10
f 15/17/11 2/18/11 23/19/11
f 22/16/12 13/20/12 25/21/12
f 12/22/13 27/4/13 4/23/13
f 39/24/14 24/14/14 20/25/14
f 18/10/15 5/26/15 31/13/15
f 36/15/16 19/7/16 8/27/16
f 33/28/17 1/29/17 10/30/17
f 35/5/18 15/17/18 23/19/18
f 22/16/19 25/21/19 26/2/19
f 24/14/20 39/24/20 33/28/20
f 21/11/21 12/22/21 29/31/21
f 2/32/22 15/33/22 16/34/22
f 35/5/23 7/35/23 15/33/23
f 32/8/24 10/36/24 6/37/24
f 13/20/25 36/15/25 8/27/25
f 37/12/26 14/38/26 7/39/26
f 17/3/27 4/23/27 27/4/27
f 5/26/28 29/31/28 12/22/28
f 21/11/29 29/31/29 30/9/29
f 8/27/30 34/6/30 16/34/30
f 16/34/31 7/39/31 8/27/31
f 23/19/32 16/34/32 34/6/32
f 28/1/33 11/40/33 3/41/33
f 4/23/34 25/21/34 13/20/34
f 9/42/35 31/13/35 5/26/35
f 13/20/36 3/41/36 4/23/36
f 30/9/37 29/31/37 18/10/37
f 30/9/38 6/43/38 11/44/38
f 18/10/39 31/13/39 32/8/39
f 11/44/40 5/26/40 12/22/40
f 13/20/41 22/16/41 36/15/41
f 23/19/42 34/6/42 35/5/42
f 10/30/43 1/45/43 9/42/43
f 5/26/44 18/10/44 29/31/44
f 19/7/45 36/15/45 37/12/45
f 8/27/46 19/7/46 34/6/46
f 5/26/47 10/30/47 9/42/47
f 38/46/48 33/28/48 39/24/48
f 20/25/49 38/46/49 39/24/49
f 32/8/50 24/14/50 10/36/50
f 25/21/51 17/3/51 26/2/51
f 9/42/52 1/45/52 38/46/52
f 12/22/53 21/11/53 27/4/53
f 2/18/54 16/34/54 23/19/54
f 10/30/55 24/14/55 33/28/55
f 26/2/56 3/47/56 14/48/56
f 38/46/57 20/25/57 9/42/57
f 9/42/58 20/25/58 31/13/58
f 4/23/59 17/3/59 25/21/59
f 8/27/60 14/48/60 13/20/60
f 3/41/61 12/22/61 4/23/61
f 28/1/62 3/47/62 26/2/62
f 32/8/63 6/43/63 30/9/63
f 37/12/64 7/35/64 35/5/64
f 31/13/65 20/25/65 24/14/65
f 30/9/66 11/40/66 28/1/66
f 26/2/67 14/38/67 37/12/67
f 16/34/68 15/33/68 7/39/68
f 13/20/69 14/48/69 3/41/69
f 11/44/70 6/37/70 5/26/70
f 5/26/71 6/37/71 10/30/71
f 38/46/72 1/49/72 33/28/72
f 8/27/73 7/39/73 14/48/73
f 3/41/74 11/44/74 12/22/74
