# Blender v2.92.0 OBJ File: 'algae.blend'
# www.blender.org
mtllib 136.mtl
o algae_cube_Cube
v -0.000741 0.149674 -0.984760
v -0.001866 0.117960 0.984760
v -0.005729 0.055167 -0.000000
v -0.004122 -0.055703 -0.000000
v -0.004693 -0.022540 -0.492380
v -0.002050 0.134504 -0.492380
v -0.001418 0.069029 0.500807
v -0.001540 -0.023522 0.500807
v -0.003141 -0.037093 -0.738570
v -0.005296 0.163783 -0.738570
v -0.005247 0.101903 -0.237561
v -0.001540 -0.032810 -0.237561
v -0.001675 -0.100501 0.250403
v -0.005533 0.131455 0.250403
v -0.006328 0.075612 0.741868
v -0.004469 -0.021962 0.741868
v 0.002605 0.022108 0.000000
v 0.003649 0.013735 -0.492380
v 0.001876 -0.080643 0.500807
v 0.001484 -0.039095 -0.738570
v 0.006561 0.017447 -0.237561
v 0.002498 0.026549 0.250403
v 0.002232 0.029837 0.741868
v 0.001766 0.098186 -0.738570
v 0.001574 -0.018392 0.125202
v 0.005108 0.051230 0.125202
v 0.001603 0.009428 -0.118780
v 0.006677 0.064652 -0.118780
v 0.003218 0.024109 -0.364970
v 0.002126 0.083154 -0.364970
v 0.001620 -0.032166 -0.615475
v 0.006063 0.038751 -0.615475
v 0.005522 -0.054070 0.621338
v 0.003752 0.067789 0.621338
v 0.001458 -0.003390 0.375605
v 0.006314 0.021073 0.375605
vt 0.643463 0.399518
vt 0.608433 0.399032
vt 0.627218 0.287293
vt 0.644229 0.287478
vt 0.537200 0.398044
vt 0.538232 0.286325
vt 0.555494 0.286513
vt 0.714776 0.400507
vt 0.678809 0.400008
vt 0.697735 0.288059
vt 0.661241 0.287663
vt 0.572481 0.398533
vt 0.715365 0.288251
vt 0.732449 0.400752
vt 0.573425 0.286708
vt 0.591356 0.286903
vt 0.522054 -0.211154
vt 0.483530 0.675856
vt 0.520970 0.286138
vt 0.592689 0.011366
vt 0.609287 0.287098
vt 0.662490 0.012024
vt 0.628508 0.011703
vt 0.698940 0.012367
vt 0.556870 0.011028
vt 0.731277 0.678201
vt 1.051103 0.015687
vt 0.679488 0.287861
vt 0.204504 0.007695
vt 0.518449 0.676186
vt 0.522387 0.010703
vt 0.556709 -0.210826
vt 0.734882 -0.209139
vt 0.695884 0.677866
vt 0.592707 -0.210485
vt 0.553104 0.676514
vt 0.732994 0.288443
vt 0.770274 -0.208804
vt 0.662857 -0.209821
vt 0.625100 0.677196
vt 0.734157 0.012699
vt 0.699490 -0.209474
vt 0.659252 0.677519
vt 0.766669 0.678536
vt 0.628705 -0.210144
vt 0.589102 0.676855
vn 0.9958 -0.0915 0.0014
vn 0.9993 0.0145 -0.0334
vn 0.9998 -0.0102 0.0175
vn 0.9952 -0.0914 0.0354
vn 0.9996 -0.0249 0.0152
vn 0.9959 -0.0624 -0.0649
vn 0.9801 -0.1946 -0.0384
vn 0.9992 0.0370 -0.0157
vn 0.9475 -0.3170 -0.0427
vn 0.9817 0.1836 -0.0500
vn 0.9995 -0.0328 0.0044
vn 0.9966 -0.0823 0.0029
vn 0.9724 -0.2236 0.0674
vn -0.9977 -0.0597 -0.0335
vn 0.9942 0.1070 0.0123
vn 0.9805 0.1834 0.0701
vn 0.9987 -0.0507 0.0108
vn 0.9867 -0.1590 -0.0342
vn -0.9996 -0.0190 0.0217
vn 0.5109 0.8595 -0.0131
vn 0.9961 0.0878 -0.0027
vn 0.9985 -0.0522 0.0155
vn 0.9923 0.1227 0.0143
vn 0.9963 -0.0861 0.0008
vn 0.9925 -0.1214 -0.0172
vn 0.9995 0.0185 -0.0253
vn -0.9649 -0.2626 -0.0100
vn -0.9999 0.0013 -0.0122
vn 0.9999 -0.0021 -0.0106
vn 0.9851 -0.1274 0.1156
vn 0.7457 0.6535 0.1301
vn 0.9969 -0.0747 -0.0231
vn -0.3901 -0.9193 0.0519
vn -0.9999 -0.0145 0.0072
vn 0.9998 0.0185 0.0019
vn 0.9862 0.1625 0.0332
vn 0.9980 -0.0625 0.0069
vn -0.9998 0.0168 0.0131
vn 0.9995 -0.0328 0.0005
vn 0.9997 0.0145 0.0172
vn -0.9998 -0.0107 -0.0179
vn 0.9743 -0.2241 0.0215
vn 0.9735 -0.1933 -0.1225
vn -0.9973 -0.0596 0.0433
vn -0.9999 -0.0107 -0.0057
vn 0.9941 0.1070 0.0170
vn 0.9987 -0.0507 -0.0082
vn -0.3253 -0.7518 -0.5735
vn 0.9868 -0.1590 0.0304
vn 0.9898 -0.1280 0.0631
vn 0.9662 0.2465 -0.0759
vn -0.3966 -0.9165 0.0520
vn 0.9961 -0.0861 -0.0197
vn -0.9998 -0.0166 0.0057
vn -0.9998 -0.0145 -0.0123
vn -0.2454 0.9681 0.0517
vn 0.9965 0.0833 0.0009
vn 0.9657 0.2569 -0.0388
vn 1.0000 -0.0021 -0.0010
vn 0.9457 0.3248 0.0069
vn 0.9931 0.1172 0.0093
vn -0.9996 -0.0190 -0.0198
vn -0.9998 -0.0166 0.0058
vn -0.9995 -0.0275 -0.0161
vn -0.9997 0.0168 0.0152
vn -0.9999 0.0013 0.0168
vn -0.9996 -0.0275 -0.0074
usemtl algae_green
s off
f 28/1/1 26/2/1 17/3/1
f 17/3/1 27/4/1 28/1/1
f 34/5/2 33/6/2 19/7/2
f 32/8/3 30/9/3 18/10/3
f 28/1/4 27/4/4 21/11/4
f 36/12/5 34/5/5 19/7/5
f 31/13/6 24/14/6 32/8/6
f 36/12/7 35/15/7 22/16/7
f 30/9/8 28/1/8 21/11/8
f 26/2/9 36/12/9 22/16/9
f 15/17/10 2/18/10 23/19/10
f 22/16/11 13/20/11 25/21/11
f 12/22/12 27/4/12 4/23/12
f 18/10/13 5/24/13 31/13/13
f 35/15/14 19/7/14 8/25/14
f 10/26/15 24/14/15 1/27/15
f 34/5/16 15/17/16 23/19/16
f 22/16/17 25/21/17 26/2/17
f 21/11/18 12/22/18 29/28/18
f 2/29/19 15/30/19 16/31/19
f 34/5/20 7/32/20 15/30/20
f 32/8/21 10/33/21 6/34/21
f 13/20/22 35/15/22 8/25/22
f 36/12/23 14/35/23 7/36/23
f 17/3/24 4/23/24 27/4/24
f 5/24/25 29/28/25 12/22/25
f 21/11/26 29/28/26 30/9/26
f 8/25/27 33/6/27 16/31/27
f 16/31/28 7/36/28 8/25/28
f 20/37/29 1/38/29 24/14/29
f 23/19/30 16/31/30 33/6/30
f 28/1/31 11/39/31 3/40/31
f 4/23/32 25/21/32 13/20/32
f 9/41/33 31/13/33 5/24/33
f 13/20/34 3/40/34 4/23/34
f 30/9/35 29/28/35 18/10/35
f 30/9/36 6/42/36 11/43/36
f 18/10/37 31/13/37 32/8/37
f 12/22/38 6/34/38 5/24/38
f 13/20/39 22/16/39 35/15/39
f 23/19/40 33/6/40 34/5/40
f 10/26/41 1/44/41 9/41/41
f 5/24/42 18/10/42 29/28/42
f 19/7/43 35/15/43 36/12/43
f 8/25/44 19/7/44 33/6/44
f 5/24/45 10/26/45 9/41/45
f 32/8/46 24/14/46 10/33/46
f 25/21/47 17/3/47 26/2/47
f 20/37/48 9/41/48 1/38/48
f 12/22/49 21/11/49 27/4/49
f 2/18/50 16/31/50 23/19/50
f 26/2/51 3/45/51 14/46/51
f 9/41/52 20/37/52 31/13/52
f 4/23/53 17/3/53 25/21/53
f 8/25/54 14/46/54 13/20/54
f 3/40/55 12/22/55 4/23/55
f 28/1/56 3/45/56 26/2/56
f 32/8/57 6/42/57 30/9/57
f 36/12/58 7/32/58 34/5/58
f 31/13/59 20/37/59 24/14/59
f 30/9/60 11/39/60 28/1/60
f 26/2/61 14/35/61 36/12/61
f 16/31/62 15/30/62 7/36/62
f 13/20/63 14/46/63 3/40/63
f 12/22/64 11/43/64 6/34/64
f 5/24/65 6/34/65 10/26/65
f 8/25/66 7/36/66 14/46/66
f 3/40/67 11/43/67 12/22/67
