# Blender v2.92.0 OBJ File: 'algae.blend'
# www.blender.org
mtllib 143.mtl
o algae_cube_Cube
v -0.003111 0.120057 -1.432043
v -0.005401 0.105717 1.551626
v -0.002996 0.054270 -0.000000
v -0.005348 -0.060403 -0.000000
v -0.003437 -0.035559 -0.722565
v -0.002955 0.107301 -0.713129
v -0.005664 0.073025 0.798156
v -0.004059 -0.037916 0.749479
v -0.003010 -0.044758 -1.071202
v -0.005012 0.127188 -1.145101
v -0.003016 0.082581 -0.344606
v -0.004564 -0.044961 -0.361967
v -0.005644 -0.094926 0.398729
v -0.005189 0.107281 0.391036
v -0.003201 0.066225 1.081445
v -0.003363 -0.035192 1.086378
v 0.004447 0.005110 0.000000
v 0.003064 -0.000870 -0.715130
v 0.003487 -0.068612 0.736015
v 0.005663 -0.042092 -1.177037
v 0.005374 0.003127 -0.373875
v 0.003078 0.008037 0.363821
v 0.003774 0.010466 1.099935
v 0.003248 0.079971 -1.078052
v 0.005530 -0.026085 0.198372
v 0.003038 0.049877 0.181720
v 0.004339 -0.004566 -0.179501
v 0.004538 0.065217 -0.180810
v 0.003243 0.006626 -0.532658
v 0.004594 0.073124 -0.556732
v 0.005463 -0.036539 -0.972345
v 0.003049 0.041126 -0.893576
v 0.003902 0.058507 -1.272201
v 0.002955 -0.052668 0.899903
v 0.005663 0.066667 0.990212
v 0.004362 -0.013933 0.568075
v 0.003549 0.027763 0.553035
v 0.003180 -0.061502 -1.160502
v 0.005280 0.045578 -1.248644
vt 0.643463 0.399518
vt 0.608433 0.399032
vt 0.627218 0.287293
vt 0.644229 0.287478
vt 0.537200 0.398044
vt 0.538232 0.286325
vt 0.555494 0.286513
vt 0.714776 0.400507
vt 0.678809 0.400008
vt 0.697735 0.288059
vt 0.661241 0.287663
vt 0.572481 0.398533
vt 0.732994 0.288443
vt 0.732449 0.400752
vt 0.573425 0.286708
vt 0.591356 0.286903
vt 0.522054 -0.211154
vt 0.483530 0.675856
vt 0.520970 0.286138
vt 0.592689 0.011366
vt 0.609287 0.287098
vt 0.662490 0.012024
vt 0.628508 0.011703
vt 0.741032 0.345449
vt 0.698940 0.012367
vt 0.715365 0.288251
vt 0.556870 0.011028
vt 0.749097 0.400983
vt 1.051103 0.015687
vt 0.731277 0.678201
vt 0.679488 0.287861
vt 0.204504 0.007695
vt 0.518449 0.676186
vt 0.522387 0.010703
vt 0.556709 -0.210826
vt 0.734882 -0.209139
vt 0.695884 0.677866
vt 0.592707 -0.210485
vt 0.553104 0.676514
vt 0.662857 -0.209821
vt 0.625100 0.677196
vt 0.734157 0.012699
vt 0.589102 0.676855
vt 0.699490 -0.209474
vt 0.659252 0.677519
vt 0.766669 0.678536
vt 0.741549 0.234612
vt 0.628705 -0.210144
vt 0.770274 -0.208804
vn 0.9999 0.0125 0.0047
vn 1.0000 -0.0029 -0.0004
vn 0.9996 -0.0271 0.0059
vn 0.9999 -0.0136 -0.0033
vn 1.0000 -0.0028 0.0052
vn 1.0000 -0.0084 -0.0041
vn 0.9999 0.0161 0.0045
vn 0.9998 0.0179 -0.0044
vn 0.9999 0.0122 0.0004
vn 1.0000 -0.0068 -0.0018
vn 0.9925 0.1223 -0.0056
vn 0.9968 -0.0742 0.0301
vn 0.9819 -0.1895 -0.0060
vn 0.9999 0.0121 0.0095
vn 0.9809 -0.1914 0.0357
vn -0.9754 -0.2079 -0.0728
vn 0.9925 0.1223 0.0035
vn 0.9832 0.1549 0.0963
vn 0.9994 0.0345 0.0077
vn 0.9956 0.0934 -0.0070
vn 0.9783 -0.2065 -0.0177
vn -1.0000 0.0014 -0.0048
vn 0.1781 0.9838 0.0221
vn 0.9958 0.0918 -0.0005
vn 0.9851 -0.1702 0.0232
vn 0.9909 0.1342 0.0125
vn 0.9890 -0.1479 0.0074
vn 0.9883 -0.1525 -0.0009
vn 0.9996 -0.0254 -0.0140
vn -0.9220 -0.3871 0.0050
vn -1.0000 0.0017 0.0021
vn 0.9845 -0.1685 0.0491
vn 0.4586 0.8856 0.0727
vn 0.9777 -0.2093 -0.0174
vn 0.5465 -0.8371 0.0228
vn -1.0000 0.0022 -0.0005
vn 0.9998 -0.0204 -0.0001
vn 0.9523 0.3046 0.0206
vn 0.9997 0.0251 0.0058
vn -0.9999 0.0125 -0.0028
vn 0.9958 -0.0897 -0.0159
vn 0.9997 -0.0257 0.0040
vn -0.9999 -0.0143 -0.0063
vn 0.9826 -0.1856 0.0067
vn 0.9996 0.0242 0.0131
vn -0.9687 -0.2473 0.0209
vn -0.9999 -0.0120 -0.0009
vn 0.9847 -0.1217 -0.1244
vn -0.2014 -0.6202 -0.7582
vn 0.9684 0.2438 0.0524
vn 0.9995 0.0327 -0.0003
vn -0.9930 -0.1073 -0.0487
vn 0.9792 -0.2031 -0.0028
vn 0.9838 -0.1704 0.0559
vn 0.9881 0.1535 -0.0136
vn 0.9714 0.2360 -0.0266
vn 0.9950 -0.0591 0.0801
vn 0.5425 -0.8397 0.0233
vn 0.9886 -0.1478 -0.0286
vn -1.0000 0.0024 0.0041
vn -0.9998 0.0205 -0.0013
vn -0.4366 0.8989 0.0362
vn 0.9903 0.1380 -0.0176
vn 0.9134 0.4050 -0.0405
vn 0.9995 0.0309 0.0001
vn 0.8782 0.4782 0.0102
vn 0.9926 0.1210 0.0058
vn -0.9998 -0.0181 0.0083
vn -0.9998 0.0205 -0.0084
vn -1.0000 0.0034 0.0001
vn -1.0000 0.0030 0.0049
vn 0.9948 -0.0727 -0.0716
vn -0.9999 -0.0135 -0.0023
vn -0.9999 0.0120 0.0010
usemtl algae_green
s off
f 28/1/1 26/2/1 17/3/1
f 17/3/2 27/4/2 28/1/2
f 35/5/3 34/6/3 19/7/3
f 32/8/4 30/9/4 18/10/4
f 28/1/5 27/4/5 21/11/5
f 37/12/6 35/5/6 19/7/6
f 32/8/7 20/13/7 24/14/7
f 37/12/8 36/15/8 22/16/8
f 30/9/9 28/1/9 21/11/9
f 26/2/10 37/12/10 22/16/10
f 15/17/11 2/18/11 23/19/11
f 22/16/12 13/20/12 25/21/12
f 12/22/13 27/4/13 4/23/13
f 39/24/14 24/14/14 20/13/14
f 18/10/15 5/25/15 31/26/15
f 36/15/16 19/7/16 8/27/16
f 33/28/17 1/29/17 10/30/17
f 35/5/18 15/17/18 23/19/18
f 22/16/19 25/21/19 26/2/19
f 24/14/20 39/24/20 33/28/20
f 21/11/21 12/22/21 29/31/21
f 2/32/22 15/33/22 16/34/22
f 35/5/23 7/35/23 15/33/23
f 32/8/24 10/36/24 6/37/24
f 13/20/25 36/15/25 8/27/25
f 37/12/26 14/38/26 7/39/26
f 17/3/27 4/23/27 27/4/27
f 5/25/28 29/31/28 12/22/28
f 21/11/29 29/31/29 30/9/29
f 8/27/30 34/6/30 16/34/30
f 15/33/31 8/27/31 16/34/31
f 23/19/32 16/34/32 34/6/32
f 28/1/33 11/40/33 3/41/33
f 4/23/34 25/21/34 13/20/34
f 9/42/35 31/26/35 5/25/35
f 14/43/36 4/23/36 13/20/36
f 30/9/37 29/31/37 18/10/37
f 30/9/38 6/44/38 11/45/38
f 18/10/39 31/26/39 32/8/39
f 11/45/40 5/25/40 12/22/40
f 13/20/41 22/16/41 36/15/41
f 23/19/42 34/6/42 35/5/42
f 10/30/43 1/46/43 9/42/43
f 5/25/44 18/10/44 29/31/44
f 19/7/45 36/15/45 37/12/45
f 8/27/46 19/7/46 34/6/46
f 5/25/47 10/30/47 9/42/47
f 38/47/48 33/28/48 39/24/48
f 20/13/49 38/47/49 39/24/49
f 32/8/50 24/14/50 10/36/50
f 25/21/51 17/3/51 26/2/51
f 9/42/52 1/46/52 38/47/52
f 12/22/53 21/11/53 27/4/53
f 2/18/54 16/34/54 23/19/54
f 10/30/55 24/14/55 33/28/55
f 26/2/56 3/48/56 14/43/56
f 38/47/57 20/13/57 9/42/57
f 9/42/58 20/13/58 31/26/58
f 4/23/59 17/3/59 25/21/59
f 8/27/60 14/43/60 13/20/60
f 3/41/61 12/22/61 4/23/61
f 28/1/62 3/48/62 26/2/62
f 32/8/63 6/44/63 30/9/63
f 37/12/64 7/35/64 35/5/64
f 32/8/65 31/26/65 20/13/65
f 30/9/66 11/40/66 28/1/66
f 26/2/67 14/38/67 37/12/67
f 15/33/68 7/39/68 8/27/68
f 14/43/69 3/41/69 4/23/69
f 11/45/70 6/37/70 5/25/70
f 5/25/71 6/37/71 10/30/71
f 38/47/72 1/49/72 33/28/72
f 8/27/73 7/39/73 14/43/73
f 3/41/74 11/45/74 12/22/74
