# Blender v2.92.0 OBJ File: 'algae.blend'
# www.blender.org
mtllib 148.mtl
o algae_cube_Cube
v -0.005883 0.144485 -1.619231
v -0.001112 0.105019 1.619231
v -0.006817 0.065613 -0.000000
v -0.001637 -0.060140 -0.000000
v -0.006061 -0.041305 -0.809615
v -0.006478 0.130928 -0.809615
v -0.000820 0.070635 0.823471
v -0.004281 -0.041625 0.823471
v -0.006746 -0.053750 -1.214423
v -0.002128 0.132128 -1.214423
v -0.006555 0.100168 -0.390619
v -0.003179 -0.047525 -0.390619
v -0.000731 -0.092228 0.411736
v -0.001787 0.109298 0.411736
v -0.006299 0.079124 1.219846
v -0.006214 -0.041086 1.219846
v 0.003431 0.005268 0.000000
v 0.006851 -0.000279 -0.809615
v 0.005818 -0.061140 0.823471
v 0.001043 -0.038918 -1.214423
v 0.001797 0.003469 -0.390619
v 0.006846 0.007560 0.411736
v 0.004912 0.010046 1.219846
v 0.006380 0.070790 -1.214423
v 0.001270 -0.023896 0.205868
v 0.006871 0.043498 0.205868
v 0.003727 -0.003682 -0.195309
v 0.003786 0.059262 -0.195309
v 0.006531 0.006349 -0.600117
v 0.003328 0.067219 -0.600117
v 0.001463 -0.033648 -1.012019
v 0.006841 0.035786 -1.012019
v 0.005137 0.052342 -1.405084
v 0.007087 -0.045764 1.021659
v 0.001124 0.061947 1.021659
v 0.003739 -0.012311 0.617604
v 0.005758 0.024391 0.617604
v 0.003366 -0.002034 1.419538
v 0.006588 -0.053543 -1.309753
v 0.001729 0.042738 -1.309753
v 0.001681 0.033866 -1.512157
vt 0.643463 0.399518
vt 0.608433 0.399032
vt 0.627218 0.287293
vt 0.644229 0.287478
vt 0.537200 0.398044
vt 0.538232 0.286325
vt 0.555494 0.286513
vt 0.714776 0.400507
vt 0.678809 0.400008
vt 0.697735 0.288059
vt 0.661241 0.287663
vt 0.572481 0.398533
vt 0.715365 0.288251
vt 0.732449 0.400752
vt 0.573425 0.286708
vt 0.591356 0.286903
vt 0.592689 0.011366
vt 0.609287 0.287098
vt 0.662490 0.012024
vt 0.628508 0.011703
vt 0.741032 0.345449
vt 0.732994 0.288443
vt 0.698940 0.012367
vt 0.556870 0.011028
vt 0.749097 0.400983
vt 1.051103 0.015687
vt 0.731277 0.678201
vt 0.522054 -0.211154
vt 0.520970 0.286138
vt 0.679488 0.287861
vt 0.204504 0.007695
vt 0.518449 0.676186
vt 0.522387 0.010703
vt 0.556709 -0.210826
vt 0.734882 -0.209139
vt 0.695884 0.677866
vt 0.483530 0.675856
vt 0.592707 -0.210485
vt 0.553104 0.676514
vt 0.758683 0.345668
vt 0.770274 -0.208804
vt 0.662857 -0.209821
vt 0.625100 0.677196
vt 0.734157 0.012699
vt 0.589102 0.676855
vt 0.503577 0.285949
vt 0.699490 -0.209474
vt 0.659252 0.677519
vt 0.766669 0.678536
vt 0.741549 0.234612
vt 0.628705 -0.210144
vn 0.9992 -0.0400 -0.0093
vn 1.0000 -0.0009 0.0016
vn 0.9984 0.0553 -0.0107
vn 0.9994 0.0337 0.0060
vn 1.0000 -0.0009 -0.0099
vn 0.9997 0.0231 0.0093
vn 0.9969 -0.0772 -0.0156
vn 0.9984 -0.0549 0.0098
vn 0.9996 -0.0296 -0.0017
vn 0.9998 0.0201 0.0036
vn 0.9970 -0.0757 -0.0154
vn 0.9926 -0.1214 -0.0078
vn 0.9982 -0.0486 -0.0344
vn 0.9536 -0.3001 0.0241
vn -0.8837 -0.4573 -0.0995
vn 0.9945 0.1049 -0.0060
vn 0.9868 0.1602 0.0231
vn 0.9965 -0.0828 -0.0143
vn 0.9778 -0.2092 0.0139
vn 0.9951 -0.0971 0.0211
vn -0.9999 -0.0007 0.0130
vn 0.9402 0.3405 0.0057
vn 0.9932 0.1156 0.0110
vn 0.9868 0.1602 -0.0232
vn 0.9933 -0.1136 0.0225
vn 0.9942 0.1071 0.0077
vn 0.9970 -0.0773 0.0050
vn 0.9767 -0.2145 -0.0099
vn 0.9983 0.0525 0.0233
vn -0.3366 -0.9417 -0.0004
vn -1.0000 -0.0007 -0.0049
vn 0.9988 0.0318 -0.0377
vn 0.9747 -0.2121 0.0704
vn 0.9136 0.4049 0.0364
vn 0.9989 -0.0469 -0.0059
vn 0.8699 -0.4930 0.0137
vn -1.0000 -0.0052 0.0018
vn 0.9986 0.0525 -0.0001
vn 0.9771 -0.2126 -0.0053
vn 0.9798 0.1996 0.0148
vn 0.9969 -0.0772 -0.0138
vn -0.9997 -0.0228 0.0065
vn 0.9971 -0.0757 0.0077
vn 0.9985 0.0553 -0.0046
vn -0.9996 0.0248 0.0100
vn -0.9262 -0.3538 -0.1303
vn 0.9538 -0.3002 0.0110
vn 0.9982 -0.0549 -0.0231
vn -0.8874 -0.4592 0.0413
vn -0.9997 0.0248 0.0009
vn 0.9703 -0.2415 0.0104
vn 0.9975 0.0503 0.0503
vn 0.9903 0.1374 0.0215
vn 0.9966 -0.0828 -0.0013
vn -0.9756 -0.2017 0.0863
vn 0.9952 -0.0971 -0.0134
vn 0.9987 0.0504 -0.0024
vn 0.9903 0.1374 -0.0198
vn 0.9685 0.2462 -0.0379
vn 0.8787 -0.4615 0.1219
vn 0.8853 -0.4649 0.0103
vn 0.9970 -0.0773 -0.0005
vn -1.0000 -0.0052 -0.0080
vn -0.9991 -0.0412 0.0026
vn 0.7569 0.6533 0.0198
vn 0.9896 0.1439 -0.0025
vn 0.9881 0.1537 -0.0030
vn 0.9988 -0.0486 -0.0008
vn 0.9647 0.2634 0.0041
vn 0.9942 0.1069 0.0076
vn 0.9997 0.0246 0.0092
vn -0.9994 0.0308 -0.0145
vn -0.9990 -0.0412 0.0166
vn -1.0000 -0.0024 -0.0004
vn -0.9889 -0.1324 -0.0670
vn -0.9999 -0.0024 -0.0108
vn -0.9995 0.0308 0.0052
vn -0.9997 -0.0228 -0.0027
usemtl algae_green
s off
f 28/1/1 26/2/1 17/3/1
f 17/3/2 27/4/2 28/1/2
f 35/5/3 34/6/3 19/7/3
f 32/8/4 30/9/4 18/10/4
f 28/1/5 27/4/5 21/11/5
f 37/12/6 35/5/6 19/7/6
f 31/13/7 24/14/7 32/8/7
f 37/12/8 36/15/8 22/16/8
f 30/9/9 28/1/9 21/11/9
f 26/2/10 37/12/10 22/16/10
f 22/16/11 13/17/11 25/18/11
f 12/19/12 27/4/12 4/20/12
f 40/21/13 24/14/13 20/22/13
f 18/10/14 5/23/14 31/13/14
f 36/15/15 19/7/15 8/24/15
f 33/25/16 1/26/16 10/27/16
f 35/5/17 15/28/17 23/29/17
f 22/16/18 25/18/18 26/2/18
f 24/14/19 40/21/19 33/25/19
f 21/11/20 12/19/20 29/30/20
f 2/31/21 15/32/21 16/33/21
f 35/5/22 7/34/22 15/32/22
f 32/8/23 10/35/23 6/36/23
f 2/37/24 23/29/24 15/28/24
f 13/17/25 36/15/25 8/24/25
f 37/12/26 14/38/26 7/39/26
f 17/3/27 4/20/27 27/4/27
f 5/23/28 29/30/28 12/19/28
f 21/11/29 29/30/29 30/9/29
f 8/24/30 34/6/30 16/33/30
f 15/32/31 8/24/31 16/33/31
f 33/25/32 41/40/32 1/41/32
f 23/29/33 16/33/33 34/6/33
f 28/1/34 11/42/34 3/43/34
f 4/20/35 25/18/35 13/17/35
f 9/44/36 31/13/36 5/23/36
f 14/45/37 4/20/37 13/17/37
f 30/9/38 29/30/38 18/10/38
f 16/33/39 23/29/39 38/46/39
f 30/9/40 6/47/40 11/48/40
f 18/10/41 31/13/41 32/8/41
f 11/48/42 5/23/42 12/19/42
f 13/17/43 22/16/43 36/15/43
f 23/29/44 34/6/44 35/5/44
f 10/27/45 1/49/45 9/44/45
f 9/44/46 41/40/46 39/50/46
f 5/23/47 18/10/47 29/30/47
f 19/7/48 36/15/48 37/12/48
f 8/24/49 19/7/49 34/6/49
f 5/23/50 10/27/50 9/44/50
f 33/25/51 40/21/51 41/40/51
f 20/22/52 39/50/52 40/21/52
f 32/8/53 24/14/53 10/35/53
f 25/18/54 17/3/54 26/2/54
f 2/37/55 16/33/55 38/46/55
f 12/19/56 21/11/56 27/4/56
f 41/40/57 40/21/57 39/50/57
f 10/27/58 24/14/58 33/25/58
f 26/2/59 3/51/59 14/45/59
f 39/50/60 20/22/60 9/44/60
f 9/44/61 20/22/61 31/13/61
f 4/20/62 17/3/62 25/18/62
f 8/24/63 14/45/63 13/17/63
f 3/43/64 12/19/64 4/20/64
f 28/1/65 3/51/65 26/2/65
f 32/8/66 6/47/66 30/9/66
f 37/12/67 7/34/67 35/5/67
f 31/13/68 20/22/68 24/14/68
f 30/9/69 11/42/69 28/1/69
f 26/2/70 14/38/70 37/12/70
f 2/37/71 38/46/71 23/29/71
f 15/32/72 7/39/72 8/24/72
f 14/45/73 3/43/73 4/20/73
f 11/48/74 6/36/74 5/23/74
f 9/44/75 1/49/75 41/40/75
f 5/23/76 6/36/76 10/27/76
f 8/24/77 7/39/77 14/45/77
f 3/43/78 11/48/78 12/19/78
