# Blender v2.92.0 OBJ File: 'algae.blend'
# www.blender.org
mtllib 150.mtl
o algae_cube_Cube
v -0.002523 0.121721 -1.458862
v -0.003968 0.105260 1.458862
v -0.002675 0.064488 -0.000000
v -0.005505 -0.069938 -0.000000
v -0.004587 -0.049822 -0.729431
v -0.002679 0.111254 -0.729431
v -0.005473 0.079881 0.741915
v -0.002330 -0.048779 0.741915
v -0.002437 -0.055855 -1.094147
v -0.005075 0.128035 -1.094147
v -0.002063 0.088057 -0.351932
v -0.002842 -0.054649 -0.351932
v -0.005104 -0.097791 0.370957
v -0.005319 0.110551 0.370957
v -0.002646 0.074598 1.099032
v -0.004486 -0.049451 1.099032
v 0.002464 -0.004031 0.000000
v 0.003861 -0.008154 -0.729431
v 0.002445 -0.060008 0.741915
v 0.005730 -0.034168 -1.094147
v 0.005464 -0.005146 -0.351932
v 0.004346 -0.001541 0.370957
v 0.002364 0.000084 1.099032
v 0.002801 0.068286 -1.094147
v 0.005152 -0.024365 0.185479
v 0.002393 0.046045 0.185479
v 0.002634 -0.011109 -0.175966
v 0.005476 0.051203 -0.175966
v 0.004654 -0.002572 -0.540681
v 0.002942 0.060433 -0.540681
v 0.005378 -0.031105 -0.911789
v 0.002414 0.039256 -0.911789
v 0.002534 -0.048321 0.920474
v 0.005311 0.050385 0.920474
v 0.002971 -0.017830 0.556436
v 0.003475 0.027885 0.556436
v 0.003292 0.031758 -1.180035
vt 0.643463 0.399518
vt 0.608433 0.399032
vt 0.627218 0.287293
vt 0.644229 0.287478
vt 0.537200 0.398044
vt 0.538232 0.286325
vt 0.555494 0.286513
vt 0.714776 0.400507
vt 0.678809 0.400008
vt 0.697735 0.288059
vt 0.661241 0.287663
vt 0.572481 0.398533
vt 0.732994 0.288443
vt 0.732449 0.400752
vt 0.573425 0.286708
vt 0.591356 0.286903
vt 0.522054 -0.211154
vt 0.483530 0.675856
vt 0.520970 0.286138
vt 0.592689 0.011366
vt 0.609287 0.287098
vt 0.662490 0.012024
vt 0.628508 0.011703
vt 0.741032 0.345449
vt 0.698940 0.012367
vt 0.715365 0.288251
vt 0.556870 0.011028
vt 1.051103 0.015687
vt 0.731277 0.678201
vt 0.679488 0.287861
vt 0.204504 0.007695
vt 0.518449 0.676186
vt 0.522387 0.010703
vt 0.556709 -0.210826
vt 0.734882 -0.209139
vt 0.695884 0.677866
vt 0.592707 -0.210485
vt 0.553104 0.676514
vt 0.662857 -0.209821
vt 0.625100 0.677196
vt 0.734157 0.012699
vt 0.699490 -0.209474
vt 0.659252 0.677519
vt 0.766669 0.678536
vt 0.628705 -0.210144
vt 0.589102 0.676855
vt 0.770274 -0.208804
vn 0.9996 -0.0286 0.0081
vn 0.9990 -0.0456 0.0028
vn 0.9996 -0.0281 0.0013
vn 0.9998 0.0205 -0.0026
vn 0.9989 -0.0456 0.0145
vn 0.9998 -0.0198 -0.0038
vn 0.9996 0.0286 0.0067
vn 0.9999 -0.0110 0.0064
vn 0.9998 0.0199 -0.0064
vn 0.9993 0.0366 -0.0011
vn 0.9977 0.0671 -0.0021
vn 0.9951 -0.0977 0.0163
vn 0.9913 -0.1318 0.0018
vn 0.9996 0.0286 -0.0064
vn 0.9795 -0.1986 0.0331
vn -0.9164 -0.3897 -0.0912
vn 0.9971 0.0670 0.0353
vn 0.9992 0.0391 -0.0005
vn 0.9914 0.1307 0.0047
vn 0.9862 -0.1655 -0.0065
vn -0.9999 0.0148 -0.0049
vn 0.9442 0.3295 -0.0026
vn 0.9969 0.0780 -0.0030
vn 0.9928 -0.1197 0.0084
vn 0.9914 0.1306 0.0112
vn 0.9928 -0.1200 0.0058
vn 0.9861 -0.1661 -0.0067
vn 0.9996 0.0272 -0.0039
vn 0.1324 -0.9912 -0.0011
vn -0.9997 -0.0244 -0.0061
vn 0.9899 -0.1369 0.0381
vn 0.9541 0.2986 0.0217
vn 0.9848 -0.1731 -0.0141
vn 0.9255 -0.3786 0.0117
vn -0.9998 0.0210 0.0027
vn 0.9996 0.0272 -0.0050
vn 0.9909 0.1342 0.0066
vn 0.9991 0.0421 0.0030
vn -1.0000 0.0055 0.0047
vn 0.9952 -0.0977 -0.0012
vn 0.9996 -0.0281 0.0086
vn -0.9999 -0.0143 -0.0067
vn 0.9801 -0.1987 0.0018
vn 0.9999 -0.0110 0.0003
vn -0.9200 -0.3912 0.0261
vn -0.9999 -0.0143 -0.0057
vn 0.9912 0.1307 0.0229
vn 0.9992 0.0391 -0.0102
vn 0.9862 -0.1655 0.0103
vn 0.9889 -0.1368 0.0574
vn 0.9883 0.1523 -0.0119
vn 0.9904 -0.1244 -0.0608
vn 0.9358 -0.3524 0.0077
vn 0.9924 -0.1200 -0.0275
vn -0.9996 -0.0244 0.0107
vn -0.9998 0.0210 -0.0067
vn 0.9216 0.3880 0.0134
vn 0.9962 0.0866 -0.0064
vn 0.9713 0.2369 -0.0195
vn 0.9991 0.0421 0.0012
vn 0.9815 0.1913 -0.0020
vn 0.9938 0.1115 0.0026
vn 0.9993 0.0355 -0.0094
vn -0.9999 0.0148 0.0081
vn -1.0000 -0.0010 -0.0070
vn -0.9999 0.0118 0.0024
vn -0.9999 0.0118 0.0071
vn 0.8971 -0.3378 -0.2848
vn -1.0000 -0.0010 -0.0005
vn -1.0000 0.0055 -0.0014
usemtl algae_green
s off
f 28/1/1 26/2/1 17/3/1
f 17/3/2 27/4/2 28/1/2
f 34/5/3 33/6/3 19/7/3
f 32/8/4 30/9/4 18/10/4
f 28/1/5 27/4/5 21/11/5
f 36/12/6 34/5/6 19/7/6
f 32/8/7 20/13/7 24/14/7
f 36/12/8 35/15/8 22/16/8
f 30/9/9 28/1/9 21/11/9
f 26/2/10 36/12/10 22/16/10
f 15/17/11 2/18/11 23/19/11
f 22/16/12 13/20/12 25/21/12
f 12/22/13 27/4/13 4/23/13
f 37/24/14 24/14/14 20/13/14
f 18/10/15 5/25/15 31/26/15
f 35/15/16 19/7/16 8/27/16
f 34/5/17 15/17/17 23/19/17
f 22/16/18 25/21/18 26/2/18
f 24/14/19 1/28/19 10/29/19
f 21/11/20 12/22/20 29/30/20
f 2/31/21 15/32/21 16/33/21
f 34/5/22 7/34/22 15/32/22
f 32/8/23 10/35/23 6/36/23
f 13/20/24 35/15/24 8/27/24
f 36/12/25 14/37/25 7/38/25
f 17/3/26 4/23/26 27/4/26
f 5/25/27 29/30/27 12/22/27
f 21/11/28 29/30/28 30/9/28
f 8/27/29 33/6/29 16/33/29
f 16/33/30 7/38/30 8/27/30
f 23/19/31 16/33/31 33/6/31
f 28/1/32 11/39/32 3/40/32
f 4/23/33 25/21/33 13/20/33
f 9/41/34 31/26/34 5/25/34
f 13/20/35 3/40/35 4/23/35
f 30/9/36 29/30/36 18/10/36
f 30/9/37 6/42/37 11/43/37
f 18/10/38 31/26/38 32/8/38
f 11/43/39 5/25/39 12/22/39
f 13/20/40 22/16/40 35/15/40
f 23/19/41 33/6/41 34/5/41
f 10/29/42 1/44/42 9/41/42
f 5/25/43 18/10/43 29/30/43
f 19/7/44 35/15/44 36/12/44
f 8/27/45 19/7/45 33/6/45
f 5/25/46 10/29/46 9/41/46
f 32/8/47 24/14/47 10/35/47
f 25/21/48 17/3/48 26/2/48
f 12/22/49 21/11/49 27/4/49
f 2/18/50 16/33/50 23/19/50
f 26/2/51 3/45/51 14/46/51
f 37/24/52 9/41/52 1/47/52
f 9/41/53 20/13/53 31/26/53
f 4/23/54 17/3/54 25/21/54
f 7/38/55 13/20/55 8/27/55
f 3/40/56 12/22/56 4/23/56
f 28/1/57 3/45/57 26/2/57
f 32/8/58 6/42/58 30/9/58
f 36/12/59 7/34/59 34/5/59
f 32/8/60 31/26/60 20/13/60
f 30/9/61 11/39/61 28/1/61
f 26/2/62 14/37/62 36/12/62
f 24/14/63 37/24/63 1/28/63
f 16/33/64 15/32/64 7/38/64
f 13/20/65 14/46/65 3/40/65
f 11/43/66 6/36/66 5/25/66
f 5/25/67 6/36/67 10/29/67
f 37/24/68 20/13/68 9/41/68
f 7/38/69 14/46/69 13/20/69
f 3/40/70 11/43/70 12/22/70
