# Blender v2.92.0 OBJ File: 'algae.blend'
# www.blender.org
mtllib 159.mtl
o algae_cube_Cube
v -0.006832 0.111574 -1.681661
v -0.002877 0.092509 1.645657
v -0.006836 0.059824 -0.000000
v -0.000456 -0.061050 -0.000000
v -0.003189 -0.044326 -0.692010
v -0.006538 0.104199 -0.831931
v -0.000338 0.069195 0.812650
v -0.007237 -0.045722 0.702535
v -0.007427 -0.053579 -1.025932
v -0.000341 0.112739 -1.261183
v -0.007697 0.083740 -0.391854
v -0.005900 -0.050207 -0.331008
v -0.000810 -0.087506 0.331050
v -0.000360 0.098287 0.420011
v -0.006661 0.067499 1.202558
v -0.003429 -0.045162 1.042489
v 0.006990 -0.002740 0.000000
v 0.004962 -0.008548 -0.725716
v 0.007656 -0.065593 0.683494
v 0.000499 -0.004661 -0.351697
v 0.004059 -0.000294 0.372809
v 0.007700 -0.000222 1.106339
v 0.001358 -0.027361 0.179897
v 0.007700 0.049232 0.198232
v 0.006628 -0.010707 -0.174452
v 0.001294 0.059740 -0.190450
v 0.003330 -0.001784 -0.542462
v 0.006155 0.065567 -0.589476
v 0.001029 -0.036905 -0.874132
v 0.007581 0.040330 -0.965123
v 0.007507 -0.053295 0.862986
v 0.001056 0.056999 0.994162
v 0.005933 -0.018836 0.546032
v 0.005367 0.029540 0.580786
vt 0.643463 0.399518
vt 0.608433 0.399032
vt 0.627218 0.287293
vt 0.644229 0.287478
vt 0.537200 0.398044
vt 0.538232 0.286325
vt 0.555494 0.286513
vt 0.714776 0.400507
vt 0.678809 0.400008
vt 0.697735 0.288059
vt 0.661241 0.287663
vt 0.572481 0.398533
vt 0.573425 0.286708
vt 0.591356 0.286903
vt 0.522054 -0.211154
vt 0.483530 0.675856
vt 0.520970 0.286138
vt 0.592689 0.011366
vt 0.609287 0.287098
vt 0.662490 0.012024
vt 0.628508 0.011703
vt 0.698940 0.012367
vt 0.715365 0.288251
vt 0.556870 0.011028
vt 0.679488 0.287861
vt 0.204504 0.007695
vt 0.518449 0.676186
vt 0.522387 0.010703
vt 0.556709 -0.210826
vt 0.734882 -0.209139
vt 0.695884 0.677866
vt 0.592707 -0.210485
vt 0.553104 0.676514
vt 0.662857 -0.209821
vt 0.625100 0.677196
vt 0.734157 0.012699
vt 0.699490 -0.209474
vt 0.659252 0.677519
vt 0.731277 0.678201
vt 0.766669 0.678536
vt 1.051103 0.015687
vt 0.770274 -0.208804
vt 0.628705 -0.210144
vt 0.589102 0.676855
vn 0.9989 0.0445 -0.0153
vn 0.9972 0.0743 -0.0055
vn 0.9980 0.0625 -0.0034
vn 0.9996 -0.0263 0.0056
vn 0.9972 0.0682 -0.0322
vn 0.9994 0.0329 0.0082
vn 0.9998 0.0181 -0.0089
vn 0.9991 -0.0413 0.0116
vn 0.9980 -0.0634 0.0028
vn 0.9713 0.2368 -0.0217
vn 0.9986 -0.0526 -0.0066
vn 0.9758 -0.2176 -0.0232
vn 0.9777 -0.2095 0.0141
vn -0.8565 -0.4919 -0.1566
vn 0.9852 0.1692 0.0280
vn 0.9966 -0.0819 -0.0025
vn 0.9910 -0.1334 0.0127
vn -0.9990 -0.0443 0.0110
vn 0.9346 0.3554 0.0167
vn 0.9834 0.1803 0.0178
vn 0.9726 -0.2287 0.0426
vn 0.9950 0.1001 0.0074
vn 0.9919 -0.1267 0.0037
vn 0.9859 -0.1675 0.0047
vn 0.9994 -0.0319 0.0144
vn -0.5179 -0.8554 0.0072
vn -0.9987 0.0493 0.0111
vn 0.9393 -0.3355 0.0724
vn 0.8072 0.5893 0.0342
vn 0.9991 -0.0417 -0.0023
vn 0.8859 -0.4639 0.0016
vn -0.9986 -0.0527 -0.0053
vn 0.9993 -0.0348 0.0102
vn 0.8987 0.4379 0.0227
vn 0.9955 -0.0943 -0.0084
vn -0.9998 -0.0169 -0.0078
vn 0.9987 -0.0481 -0.0160
vn 0.9966 0.0800 -0.0182
vn -0.9978 0.0641 0.0152
vn 0.9781 -0.2074 0.0164
vn 0.9998 0.0166 -0.0069
vn -0.7797 -0.6247 0.0422
vn -0.9982 0.0582 0.0111
vn 0.9994 -0.0305 -0.0153
vn 0.9960 -0.0871 0.0193
vn 0.9873 -0.1545 -0.0380
vn 0.9869 -0.1566 -0.0395
vn 0.9367 -0.3415 0.0771
vn 0.9276 0.3705 -0.0482
vn 0.9919 -0.1267 0.0137
vn -0.9960 0.0855 -0.0268
vn -0.9985 -0.0527 0.0147
vn 0.4211 0.9068 0.0176
vn 0.9706 0.2406 -0.0125
vn 0.9909 0.1343 0.0014
vn 0.8785 0.4774 0.0177
vn 0.9938 0.1102 0.0117
vn -0.9999 -0.0056 -0.0162
vn -0.9999 -0.0052 0.0159
vn -0.9997 -0.0262 -0.0038
vn -0.9992 -0.0368 -0.0152
vn 0.9848 -0.1610 -0.0657
vn -1.0000 0.0023 0.0002
vn -0.9999 -0.0128 0.0014
usemtl algae_green
s off
f 26/1/1 24/2/1 17/3/1
f 17/3/2 25/4/2 26/1/2
f 32/5/3 31/6/3 19/7/3
f 30/8/4 28/9/4 18/10/4
f 26/1/5 25/4/5 20/11/5
f 34/12/6 32/5/6 19/7/6
f 34/12/7 33/13/7 21/14/7
f 28/9/8 26/1/8 20/11/8
f 24/2/9 34/12/9 21/14/9
f 15/15/10 2/16/10 22/17/10
f 21/14/11 13/18/11 23/19/11
f 12/20/12 25/4/12 4/21/12
f 18/10/13 5/22/13 29/23/13
f 33/13/14 19/7/14 8/24/14
f 32/5/15 15/15/15 22/17/15
f 21/14/16 23/19/16 24/2/16
f 20/11/17 12/20/17 27/25/17
f 2/26/18 15/27/18 16/28/18
f 32/5/19 7/29/19 15/27/19
f 30/8/20 10/30/20 6/31/20
f 13/18/21 33/13/21 8/24/21
f 34/12/22 14/32/22 7/33/22
f 17/3/23 4/21/23 25/4/23
f 5/22/24 27/25/24 12/20/24
f 20/11/25 27/25/25 28/9/25
f 8/24/26 31/6/26 16/28/26
f 16/28/27 7/33/27 8/24/27
f 22/17/28 16/28/28 31/6/28
f 26/1/29 11/34/29 3/35/29
f 4/21/30 23/19/30 13/18/30
f 9/36/31 29/23/31 5/22/31
f 13/18/32 3/35/32 4/21/32
f 28/9/33 27/25/33 18/10/33
f 28/9/34 6/37/34 11/38/34
f 18/10/35 29/23/35 30/8/35
f 11/38/36 5/22/36 12/20/36
f 13/18/37 21/14/37 33/13/37
f 22/17/38 31/6/38 32/5/38
f 10/39/39 1/40/39 9/36/39
f 5/22/40 18/10/40 27/25/40
f 19/7/41 33/13/41 34/12/41
f 8/24/42 19/7/42 31/6/42
f 5/22/43 10/39/43 9/36/43
f 10/30/44 29/23/44 1/41/44
f 23/19/45 17/3/45 24/2/45
f 29/23/46 9/36/46 1/42/46
f 12/20/47 20/11/47 25/4/47
f 2/16/48 16/28/48 22/17/48
f 24/2/49 3/43/49 14/44/49
f 4/21/50 17/3/50 23/19/50
f 7/33/51 13/18/51 8/24/51
f 3/35/52 12/20/52 4/21/52
f 26/1/53 3/43/53 24/2/53
f 30/8/54 6/37/54 28/9/54
f 34/12/55 7/29/55 32/5/55
f 28/9/56 11/34/56 26/1/56
f 24/2/57 14/32/57 34/12/57
f 16/28/58 15/27/58 7/33/58
f 13/18/59 14/44/59 3/35/59
f 11/38/60 6/31/60 5/22/60
f 5/22/61 6/31/61 10/39/61
f 10/30/62 30/8/62 29/23/62
f 7/33/63 14/44/63 13/18/63
f 3/35/64 11/38/64 12/20/64
