# Blender v2.92.0 OBJ File: 'algae.blend'
# www.blender.org
mtllib 160.mtl
o algae_cube_Cube
v -0.004691 0.008900 -1.877413
v -0.001869 0.044245 1.834249
v -0.000816 0.097914 -0.025833
v -0.002813 -0.096003 0.087295
v -0.000450 -0.122830 -0.912370
v -0.004235 0.027241 -0.968951
v -0.003384 0.083830 0.855321
v -0.007595 -0.116190 1.236853
v -0.005205 -0.113772 -1.206888
v -0.006002 0.010047 -1.419124
v -0.007580 0.059366 -0.596893
v -0.002187 -0.113211 -0.368971
v -0.003761 -0.055424 0.541038
v -0.004540 0.040491 0.414421
v -0.006987 0.087750 1.208713
v -0.000437 -0.122663 1.418890
v 0.002761 -0.092481 -0.082549
v 0.001823 -0.084205 -0.980091
v 0.006531 -0.002154 0.945011
v 0.007292 -0.031332 -1.475683
v 0.006436 -0.088125 -0.634080
v 0.005037 -0.097630 0.314947
v 0.001876 -0.100796 1.340842
v 0.000480 -0.018166 -1.398162
v 0.003329 -0.055804 0.176694
v 0.006558 0.018802 0.277339
v 0.006317 -0.079571 -0.387964
v 0.007312 0.004670 -0.214357
v 0.004276 -0.093039 -0.819251
v 0.006539 -0.003316 -0.699041
v 0.003801 -0.040603 -1.214098
v 0.002648 0.032580 -1.135571
v 0.003740 0.013615 -1.599831
v 0.003597 -0.020412 1.151389
v 0.004585 0.002884 1.180216
v 0.000891 -0.069334 0.689676
v 0.007138 0.045832 0.818695
v 0.007406 -0.082717 -1.710451
v 0.004943 -0.050373 -1.588546
vt 0.643463 0.399518
vt 0.608433 0.399032
vt 0.627218 0.287293
vt 0.644229 0.287478
vt 0.537200 0.398044
vt 0.538232 0.286325
vt 0.555494 0.286513
vt 0.714776 0.400507
vt 0.678809 0.400008
vt 0.697735 0.288059
vt 0.661241 0.287663
vt 0.572481 0.398533
vt 0.732994 0.288443
vt 0.732449 0.400752
vt 0.573425 0.286708
vt 0.591356 0.286903
vt 0.522054 -0.211154
vt 0.483530 0.675856
vt 0.520970 0.286138
vt 0.592689 0.011366
vt 0.609287 0.287098
vt 0.662490 0.012024
vt 0.628508 0.011703
vt 0.741032 0.345449
vt 0.698940 0.012367
vt 0.715365 0.288251
vt 0.556870 0.011028
vt 0.749097 0.400983
vt 1.051103 0.015687
vt 0.731277 0.678201
vt 0.679488 0.287861
vt 0.204504 0.007695
vt 0.518449 0.676186
vt 0.522387 0.010703
vt 0.556709 -0.210826
vt 0.734882 -0.209139
vt 0.695884 0.677866
vt 0.592707 -0.210485
vt 0.553104 0.676514
vt 0.662857 -0.209821
vt 0.625100 0.677196
vt 0.734157 0.012699
vt 0.699490 -0.209474
vt 0.659252 0.677519
vt 0.766669 0.678536
vt 0.770274 -0.208804
vt 0.741549 0.234612
vt 0.628705 -0.210144
vt 0.589102 0.676855
vn 0.9991 -0.0430 0.0028
vn 0.9994 -0.0329 0.0102
vn 0.9985 -0.0540 0.0094
vn 0.9997 -0.0212 -0.0107
vn 0.9999 -0.0138 0.0010
vn 0.9999 0.0086 0.0081
vn -0.2326 0.9553 -0.1827
vn 0.9972 -0.0726 0.0165
vn 1.0000 -0.0024 -0.0016
vn 0.9999 -0.0132 -0.0004
vn 0.9990 0.0433 -0.0052
vn -0.9944 -0.1042 -0.0192
vn 0.9708 -0.2396 0.0104
vn 0.0103 0.9860 -0.1666
vn 0.9979 -0.0653 -0.0037
vn 0.9942 -0.1072 0.0062
vn -0.3995 0.9167 -0.0034
vn 0.9906 0.1064 0.0854
vn 0.9997 -0.0189 -0.0181
vn 0.9996 0.0223 0.0197
vn 0.9395 -0.3426 -0.0019
vn -0.9997 -0.0247 0.0065
vn 0.9912 0.1322 0.0086
vn -0.8406 0.5414 -0.0174
vn -0.1668 -0.9822 -0.0867
vn 0.9550 0.2948 -0.0315
vn -0.7124 -0.7007 -0.0379
vn 0.9844 -0.1757 0.0063
vn 0.9999 -0.0099 -0.0114
vn 0.9869 -0.1549 -0.0443
vn -0.9938 0.1024 0.0427
vn -0.9876 -0.1409 -0.0687
vn 0.9916 0.1276 -0.0204
vn 0.9811 -0.1928 0.0193
vn 0.9921 -0.1241 -0.0198
vn -1.0000 0.0086 -0.0029
vn 0.9999 -0.0045 -0.0155
vn 0.9712 0.2380 -0.0118
vn 0.9999 0.0056 0.0095
vn -0.9997 -0.0262 -0.0027
vn -0.9700 -0.2430 0.0076
vn 0.9994 -0.0352 -0.0058
vn -0.9999 -0.0113 -0.0028
vn 0.9953 -0.0943 -0.0204
vn 0.9991 -0.0418 -0.0111
vn 0.9937 -0.1124 0.0042
vn -0.9997 -0.0194 0.0155
vn 0.9935 0.1131 -0.0099
vn 0.9172 0.3893 -0.0848
vn 0.9804 0.1917 -0.0451
vn 0.9987 -0.0498 0.0049
vn -0.9799 -0.1961 -0.0366
vn 0.9706 -0.2404 0.0088
vn 0.9991 -0.0384 0.0189
vn 0.9629 0.2637 0.0571
vn 0.9691 0.2434 0.0399
vn 0.9960 -0.0872 0.0196
vn 0.9926 -0.1213 0.0089
vn 0.9771 -0.2109 0.0277
vn -0.9998 -0.0174 -0.0070
vn -0.9995 -0.0315 -0.0002
vn 0.9960 0.0889 -0.0010
vn 0.7059 0.7064 0.0518
vn 0.9713 0.2354 0.0348
vn 0.9999 0.0014 0.0134
vn 0.9737 0.2280 -0.0053
vn 0.7967 0.6035 -0.0310
vn -0.9991 -0.0408 -0.0097
vn -0.9997 -0.0233 -0.0115
vn -0.9992 -0.0387 -0.0056
vn -1.0000 0.0003 0.0039
vn 0.9994 0.0134 -0.0306
vn -0.9998 0.0219 0.0005
vn -0.9998 0.0165 0.0107
usemtl algae_green
s off
f 28/1/1 26/2/1 17/3/1
f 17/3/2 27/4/2 28/1/2
f 35/5/3 34/6/3 19/7/3
f 32/8/4 30/9/4 18/10/4
f 28/1/5 27/4/5 21/11/5
f 37/12/6 35/5/6 19/7/6
f 32/8/7 20/13/7 24/14/7
f 37/12/8 36/15/8 22/16/8
f 30/9/9 28/1/9 21/11/9
f 26/2/10 37/12/10 22/16/10
f 15/17/11 2/18/11 23/19/11
f 22/16/12 13/20/12 25/21/12
f 12/22/13 27/4/13 4/23/13
f 39/24/14 24/14/14 20/13/14
f 18/10/15 5/25/15 31/26/15
f 36/15/16 19/7/16 8/27/16
f 33/28/17 1/29/17 10/30/17
f 35/5/18 15/17/18 23/19/18
f 22/16/19 25/21/19 26/2/19
f 24/14/20 39/24/20 33/28/20
f 21/11/21 12/22/21 29/31/21
f 2/32/22 15/33/22 16/34/22
f 35/5/23 7/35/23 15/33/23
f 32/8/24 10/36/24 6/37/24
f 13/20/25 36/15/25 8/27/25
f 37/12/26 14/38/26 7/39/26
f 17/3/27 4/23/27 27/4/27
f 5/25/28 29/31/28 12/22/28
f 21/11/29 29/31/29 30/9/29
f 8/27/30 34/6/30 16/34/30
f 16/34/31 7/39/31 8/27/31
f 23/19/32 16/34/32 34/6/32
f 28/1/33 11/40/33 3/41/33
f 4/23/34 25/21/34 13/20/34
f 9/42/35 31/26/35 5/25/35
f 13/20/36 3/41/36 4/23/36
f 30/9/37 29/31/37 18/10/37
f 30/9/38 6/43/38 11/44/38
f 18/10/39 31/26/39 32/8/39
f 12/22/40 6/37/40 5/25/40
f 13/20/41 22/16/41 36/15/41
f 23/19/42 34/6/42 35/5/42
f 10/30/43 1/45/43 9/42/43
f 5/25/44 18/10/44 29/31/44
f 19/7/45 36/15/45 37/12/45
f 8/27/46 19/7/46 34/6/46
f 6/37/47 9/42/47 5/25/47
f 1/46/48 39/24/48 38/47/48
f 20/13/49 38/47/49 39/24/49
f 32/8/50 24/14/50 10/36/50
f 25/21/51 17/3/51 26/2/51
f 9/42/52 1/45/52 38/47/52
f 12/22/53 21/11/53 27/4/53
f 2/18/54 16/34/54 23/19/54
f 10/30/55 24/14/55 33/28/55
f 26/2/56 3/48/56 14/49/56
f 38/47/57 20/13/57 9/42/57
f 9/42/58 20/13/58 31/26/58
f 4/23/59 17/3/59 25/21/59
f 8/27/60 14/49/60 13/20/60
f 4/23/61 11/44/61 12/22/61
f 28/1/62 3/48/62 26/2/62
f 32/8/63 6/43/63 30/9/63
f 37/12/64 7/35/64 35/5/64
f 32/8/65 31/26/65 20/13/65
f 30/9/66 11/40/66 28/1/66
f 26/2/67 14/38/67 37/12/67
f 16/34/68 15/33/68 7/39/68
f 13/20/69 14/49/69 3/41/69
f 12/22/70 11/44/70 6/37/70
f 6/37/71 10/30/71 9/42/71
f 1/46/72 33/28/72 39/24/72
f 8/27/73 7/39/73 14/49/73
f 4/23/74 3/41/74 11/44/74
