# Blender v2.92.0 OBJ File: 'algae.blend'
# www.blender.org
mtllib 163.mtl
o algae_cube_Cube
v -0.003987 0.063013 -2.346267
v -0.003983 0.068651 2.345464
v -0.003975 0.079468 -0.000000
v -0.004024 -0.079107 -0.000000
v -0.004026 -0.084281 -1.183617
v -0.003992 0.066102 -1.172914
v -0.003979 0.076409 1.192241
v -0.004022 -0.083879 1.203845
v -0.004019 -0.081864 -1.775168
v -0.003981 0.063204 -1.759680
v -0.003984 0.072358 -0.565686
v -0.004014 -0.082357 -0.570999
v -0.004025 -0.071379 0.601470
v -0.003990 0.068067 0.596422
v -0.003982 0.076551 1.766106
v -0.004026 -0.084354 1.783361
v 0.004019 -0.049045 0.000000
v 0.004020 -0.047599 -1.181006
v 0.004007 -0.030793 1.200002
v 0.004004 -0.038186 -1.770504
v 0.004006 -0.048541 -0.569837
v 0.004011 -0.049834 0.600690
v 0.004019 -0.050391 1.779719
v 0.004001 0.026580 -1.763590
v 0.004018 -0.041814 0.300200
v 0.003990 0.034028 0.298827
v 0.004008 -0.046715 -0.284887
v 0.004001 0.030936 -0.283554
v 0.004011 -0.049473 -0.875505
v 0.003990 0.029079 -0.871360
v 0.004008 -0.039383 -1.475527
v 0.003999 0.036229 -1.468800
v 0.004004 -0.034557 1.489147
v 0.003997 0.031305 1.483232
v 0.004007 -0.044458 0.900743
v 0.003986 0.039683 0.896175
vt 0.643463 0.399518
vt 0.608433 0.399032
vt 0.627218 0.287293
vt 0.644229 0.287478
vt 0.537200 0.398044
vt 0.538232 0.286325
vt 0.555494 0.286513
vt 0.714776 0.400507
vt 0.678809 0.400008
vt 0.697735 0.288059
vt 0.661241 0.287663
vt 0.572481 0.398533
vt 0.715365 0.288251
vt 0.732449 0.400752
vt 0.573425 0.286708
vt 0.591356 0.286903
vt 0.522054 -0.211154
vt 0.483530 0.675856
vt 0.520970 0.286138
vt 0.592689 0.011366
vt 0.609287 0.287098
vt 0.662490 0.012024
vt 0.628508 0.011703
vt 0.698940 0.012367
vt 0.556870 0.011028
vt 0.731277 0.678201
vt 1.051103 0.015687
vt 0.679488 0.287861
vt 0.204504 0.007695
vt 0.518449 0.676186
vt 0.522387 0.010703
vt 0.556709 -0.210826
vt 0.734882 -0.209139
vt 0.695884 0.677866
vt 0.592707 -0.210485
vt 0.553104 0.676514
vt 0.732994 0.288443
vt 0.770274 -0.208804
vt 0.662857 -0.209821
vt 0.625100 0.677196
vt 0.734157 0.012699
vt 0.589102 0.676855
vt 0.699490 -0.209474
vt 0.659252 0.677519
vt 0.766669 0.678536
vt 0.628705 -0.210144
vn 1.0000 0.0003 0.0000
vn 1.0000 0.0001 -0.0000
vn 1.0000 0.0002 -0.0000
vn 0.9980 0.0630 0.0009
vn 0.9368 -0.3498 -0.0093
vn 0.9733 -0.2297 0.0013
vn 0.9769 -0.2138 -0.0060
vn 0.9888 -0.1490 0.0068
vn 0.9771 0.2130 -0.0001
vn 0.9977 0.0648 0.0178
vn 1.0000 0.0004 0.0000
vn 0.9730 -0.2308 0.0007
vn -1.0000 0.0003 0.0000
vn 0.9848 0.1739 -0.0000
vn 0.9627 0.2706 -0.0013
vn 0.9719 -0.2355 -0.0049
vn 0.9713 0.2376 -0.0033
vn 0.9660 -0.2585 -0.0021
vn 0.9730 -0.2309 0.0007
vn 0.9871 -0.1599 -0.0001
vn 0.9999 0.0015 -0.0136
vn 0.9727 -0.2318 -0.0127
vn 0.9846 0.1747 -0.0022
vn 0.9723 -0.2339 0.0030
vn 0.9835 -0.1807 -0.0007
vn -1.0000 0.0002 -0.0000
vn 0.9808 0.1950 -0.0020
vn 0.9370 -0.3493 0.0063
vn 0.9768 -0.2141 -0.0013
vn 0.9887 -0.1497 -0.0019
vn 0.9769 0.2137 -0.0070
vn 0.9834 -0.1759 -0.0446
vn 0.9730 -0.2308 0.0015
vn 0.9727 -0.2239 0.0609
vn 0.9804 0.1968 0.0038
vn 0.9836 -0.1806 -0.0007
vn 0.9660 -0.2585 0.0062
vn 0.9859 0.1671 -0.0009
vn 0.9726 0.2325 0.0028
vn 0.9816 0.1911 0.0027
vn 1.0000 0.0000 -0.0000
vn 0.9827 0.1853 -0.0006
vn 0.9689 0.2476 -0.0023
usemtl algae_green
s off
f 28/1/1 26/2/1 17/3/1
f 17/3/2 27/4/2 28/1/2
f 34/5/2 33/6/2 19/7/2
f 32/8/1 30/9/1 18/10/1
f 28/1/2 27/4/2 21/11/2
f 36/12/3 34/5/3 19/7/3
f 31/13/2 24/14/2 32/8/2
f 36/12/3 35/15/3 22/16/3
f 30/9/2 28/1/2 21/11/2
f 26/2/1 36/12/1 22/16/1
f 15/17/4 2/18/4 23/19/4
f 22/16/5 13/20/5 25/21/5
f 12/22/6 27/4/6 4/23/6
f 18/10/7 5/24/7 31/13/7
f 35/15/8 19/7/8 8/25/8
f 10/26/9 24/14/9 1/27/9
f 34/5/10 15/17/10 23/19/10
f 22/16/11 25/21/11 26/2/11
f 21/11/12 12/22/12 29/28/12
f 2/29/13 15/30/13 16/31/13
f 34/5/14 7/32/14 15/30/14
f 32/8/15 10/33/15 6/34/15
f 13/20/16 35/15/16 8/25/16
f 36/12/17 14/35/17 7/36/17
f 17/3/18 4/23/18 27/4/18
f 5/24/19 29/28/19 12/22/19
f 21/11/1 29/28/1 30/9/1
f 8/25/20 33/6/20 16/31/20
f 15/30/13 8/25/13 16/31/13
f 20/37/21 1/38/21 24/14/21
f 23/19/22 16/31/22 33/6/22
f 28/1/23 11/39/23 3/40/23
f 4/23/24 25/21/24 13/20/24
f 9/41/25 31/13/25 5/24/25
f 14/42/26 4/23/26 13/20/26
f 30/9/1 29/28/1 18/10/1
f 30/9/27 6/43/27 11/44/27
f 18/10/2 31/13/2 32/8/2
f 12/22/26 6/34/26 5/24/26
f 13/20/28 22/16/28 35/15/28
f 23/19/2 33/6/2 34/5/2
f 10/26/13 1/45/13 9/41/13
f 5/24/29 18/10/29 29/28/29
f 19/7/3 35/15/3 36/12/3
f 8/25/30 19/7/30 33/6/30
f 5/24/13 10/26/13 9/41/13
f 32/8/31 24/14/31 10/33/31
f 25/21/11 17/3/11 26/2/11
f 20/37/32 9/41/32 1/38/32
f 12/22/33 21/11/33 27/4/33
f 2/18/34 16/31/34 23/19/34
f 26/2/35 3/46/35 14/42/35
f 9/41/36 20/37/36 31/13/36
f 4/23/37 17/3/37 25/21/37
f 7/36/13 13/20/13 8/25/13
f 4/23/26 11/44/26 12/22/26
f 28/1/38 3/46/38 26/2/38
f 32/8/39 6/43/39 30/9/39
f 36/12/40 7/32/40 34/5/40
f 31/13/41 20/37/41 24/14/41
f 30/9/42 11/39/42 28/1/42
f 26/2/43 14/35/43 36/12/43
f 15/30/13 7/36/13 8/25/13
f 14/42/13 3/40/13 4/23/13
f 12/22/26 11/44/26 6/34/26
f 5/24/26 6/34/26 10/26/26
f 7/36/13 14/42/13 13/20/13
f 4/23/13 3/40/13 11/44/13
