# Blender v2.92.0 OBJ File: 'algae.blend'
# www.blender.org
mtllib 178.mtl
o algae_cube_Cube
v -0.002199 0.007672 -1.042003
v -0.005865 0.037958 1.042003
v -0.006064 0.100256 -0.000000
v -0.004099 -0.098215 -0.000000
v -0.005953 -0.126880 -0.521001
v -0.005104 0.025205 -0.521001
v -0.004583 0.082507 0.529918
v -0.002474 -0.125439 0.529918
v -0.002519 -0.113434 -0.781502
v -0.004499 0.008983 -0.781502
v -0.001891 0.060158 -0.251370
v -0.004036 -0.116396 -0.251370
v -0.003605 -0.054714 0.264959
v -0.004697 0.035572 0.264959
v -0.002193 0.083446 0.784992
v -0.005844 -0.128749 0.784992
v 0.005857 -0.098047 0.000000
v 0.005987 -0.090461 -0.521001
v 0.001971 0.005325 0.529918
v 0.002108 -0.036975 -0.781502
v 0.001907 -0.095290 -0.251370
v 0.002164 -0.102398 0.264959
v 0.003619 -0.105120 0.784992
v 0.005095 -0.024981 -0.781502
v 0.003913 -0.057070 0.132479
v 0.002926 0.017945 0.132479
v 0.001993 -0.084923 -0.125685
v 0.002674 0.000331 -0.125685
v 0.002416 -0.100640 -0.386186
v 0.001945 -0.010247 -0.386186
v 0.004229 -0.043952 -0.651252
v 0.004618 0.029749 -0.651252
v 0.004801 -0.015550 0.657455
v 0.004563 0.003047 0.657455
v 0.006101 -0.071656 0.397438
v 0.002363 0.050017 0.397438
v 0.004940 -0.060723 -0.842849
vt 0.643463 0.399518
vt 0.608433 0.399032
vt 0.627218 0.287293
vt 0.644229 0.287478
vt 0.537200 0.398044
vt 0.538232 0.286325
vt 0.555494 0.286513
vt 0.714776 0.400507
vt 0.678809 0.400008
vt 0.697735 0.288059
vt 0.661241 0.287663
vt 0.572481 0.398533
vt 0.732994 0.288443
vt 0.732449 0.400752
vt 0.573425 0.286708
vt 0.591356 0.286903
vt 0.522054 -0.211154
vt 0.483530 0.675856
vt 0.520970 0.286138
vt 0.592689 0.011366
vt 0.609287 0.287098
vt 0.662490 0.012024
vt 0.628508 0.011703
vt 0.741032 0.345449
vt 0.698940 0.012367
vt 0.715365 0.288251
vt 0.556870 0.011028
vt 1.051103 0.015687
vt 0.731277 0.678201
vt 0.679488 0.287861
vt 0.204504 0.007695
vt 0.518449 0.676186
vt 0.522387 0.010703
vt 0.556709 -0.210826
vt 0.734882 -0.209139
vt 0.695884 0.677866
vt 0.592707 -0.210485
vt 0.553104 0.676514
vt 0.662857 -0.209821
vt 0.625100 0.677196
vt 0.734157 0.012699
vt 0.589102 0.676855
vt 0.699490 -0.209474
vt 0.659252 0.677519
vt 0.766669 0.678536
vt 0.628705 -0.210144
vt 0.770274 -0.208804
vn 0.9996 0.0286 -0.0029
vn 0.9995 -0.0080 -0.0316
vn 0.9997 0.0128 -0.0201
vn 0.9995 0.0267 0.0141
vn 1.0000 -0.0080 -0.0000
vn 0.9971 -0.0727 -0.0216
vn 0.9650 -0.2404 0.1045
vn 0.9989 0.0307 -0.0368
vn 1.0000 -0.0046 -0.0026
vn 1.0000 -0.0035 0.0026
vn 0.9993 0.0308 0.0197
vn -0.9913 -0.1199 -0.0541
vn 0.9651 -0.2613 0.0191
vn 0.9612 -0.2394 0.1371
vn 0.9430 -0.3092 -0.1231
vn 0.9981 -0.0339 0.0508
vn 0.9990 0.0308 0.0335
vn 0.9998 0.0131 0.0177
vn 0.9623 0.2718 0.0071
vn 0.9625 -0.2710 0.0144
vn -0.9998 0.0172 -0.0112
vn 0.9950 0.0990 -0.0097
vn -0.8016 0.5966 -0.0390
vn 0.8891 -0.4412 -0.1216
vn 0.7853 0.6095 -0.1083
vn 0.0168 -0.9944 -0.1043
vn 0.9430 -0.3328 0.0062
vn 1.0000 0.0052 0.0036
vn 0.9967 -0.0801 0.0121
vn -0.9999 -0.0101 -0.0133
vn 0.9001 -0.3604 -0.2448
vn 0.9965 0.0830 0.0033
vn 0.9267 -0.3710 0.0592
vn 0.9939 -0.1104 0.0074
vn -0.9999 -0.0121 0.0039
vn 0.9996 0.0052 0.0269
vn 0.9944 0.1022 -0.0251
vn 0.9999 -0.0053 -0.0154
vn -1.0000 0.0056 0.0069
vn -0.9911 -0.1199 0.0573
vn 0.9998 0.0128 0.0182
vn -0.9998 -0.0162 -0.0087
vn 0.9502 -0.3115 0.0016
vn 0.9994 0.0307 0.0133
vn 0.9990 -0.0340 -0.0277
vn -0.9998 -0.0162 -0.0140
vn 0.9565 0.2702 -0.1100
vn 0.9999 0.0132 0.0106
vn 0.9623 -0.2710 0.0217
vn 0.9025 -0.3614 0.2345
vn 0.9859 0.1639 0.0349
vn -0.9938 -0.1116 -0.0027
vn 0.9980 -0.0604 -0.0195
vn 0.0161 -0.9552 0.2957
vn -0.9999 -0.0101 0.0016
vn -0.9999 0.0121 -0.0011
vn 0.9953 0.0965 -0.0076
vn 0.8709 0.4846 0.0819
vn 0.9898 0.1415 0.0172
vn 0.9998 -0.0053 -0.0166
vn 0.9979 0.0647 -0.0054
vn 0.2103 0.9706 -0.1170
vn 0.9991 0.0359 -0.0235
vn -0.9998 0.0172 0.0093
vn -0.9999 -0.0099 0.0027
vn -0.9999 0.0121 0.0103
vn -1.0000 0.0056 -0.0027
vn 0.9978 -0.0604 -0.0268
vn -0.9999 -0.0121 0.0026
vn -0.9998 -0.0099 -0.0150
usemtl algae_green
s off
f 28/1/1 26/2/1 17/3/1
f 17/3/2 27/4/2 28/1/2
f 34/5/3 33/6/3 19/7/3
f 32/8/4 30/9/4 18/10/4
f 28/1/5 27/4/5 21/11/5
f 36/12/6 34/5/6 19/7/6
f 32/8/7 20/13/7 24/14/7
f 36/12/8 35/15/8 22/16/8
f 30/9/9 28/1/9 21/11/9
f 26/2/10 36/12/10 22/16/10
f 15/17/11 2/18/11 23/19/11
f 22/16/12 13/20/12 25/21/12
f 12/22/13 27/4/13 4/23/13
f 37/24/14 24/14/14 20/13/14
f 18/10/15 5/25/15 31/26/15
f 35/15/16 19/7/16 8/27/16
f 34/5/17 15/17/17 23/19/17
f 22/16/18 25/21/18 26/2/18
f 24/14/19 1/28/19 10/29/19
f 21/11/20 12/22/20 29/30/20
f 2/31/21 15/32/21 16/33/21
f 34/5/22 7/34/22 15/32/22
f 32/8/23 10/35/23 6/36/23
f 13/20/24 35/15/24 8/27/24
f 36/12/25 14/37/25 7/38/25
f 17/3/26 4/23/26 27/4/26
f 5/25/27 29/30/27 12/22/27
f 21/11/28 29/30/28 30/9/28
f 8/27/29 33/6/29 16/33/29
f 16/33/30 7/38/30 8/27/30
f 23/19/31 16/33/31 33/6/31
f 28/1/32 11/39/32 3/40/32
f 4/23/33 25/21/33 13/20/33
f 9/41/34 31/26/34 5/25/34
f 14/42/35 4/23/35 13/20/35
f 30/9/36 29/30/36 18/10/36
f 30/9/37 6/43/37 11/44/37
f 18/10/38 31/26/38 32/8/38
f 12/22/39 6/36/39 5/25/39
f 13/20/40 22/16/40 35/15/40
f 23/19/41 33/6/41 34/5/41
f 10/29/42 1/45/42 9/41/42
f 5/25/43 18/10/43 29/30/43
f 19/7/44 35/15/44 36/12/44
f 8/27/45 19/7/45 33/6/45
f 5/25/46 10/29/46 9/41/46
f 32/8/47 24/14/47 10/35/47
f 25/21/48 17/3/48 26/2/48
f 12/22/49 21/11/49 27/4/49
f 2/18/50 16/33/50 23/19/50
f 26/2/51 3/46/51 14/42/51
f 20/13/52 1/47/52 37/24/52
f 9/41/53 20/13/53 31/26/53
f 4/23/54 17/3/54 25/21/54
f 7/38/55 13/20/55 8/27/55
f 4/23/56 11/44/56 12/22/56
f 28/1/57 3/46/57 26/2/57
f 32/8/58 6/43/58 30/9/58
f 36/12/59 7/34/59 34/5/59
f 32/8/60 31/26/60 20/13/60
f 30/9/61 11/39/61 28/1/61
f 26/2/62 14/37/62 36/12/62
f 24/14/63 37/24/63 1/28/63
f 16/33/64 15/32/64 7/38/64
f 14/42/65 3/40/65 4/23/65
f 12/22/66 11/44/66 6/36/66
f 5/25/67 6/36/67 10/29/67
f 20/13/68 9/41/68 1/47/68
f 7/38/69 14/42/69 13/20/69
f 4/23/70 3/40/70 11/44/70
