# Blender v2.92.0 OBJ File: 'algae.blend'
# www.blender.org
mtllib 183.mtl
o algae_cube_Cube
v -0.004163 0.067992 1.334302
v -0.004404 -0.099095 -1.392207
v -0.004353 -0.087395 1.367896
v 0.004031 -0.089282 1.371609
v -0.004303 0.086478 -0.000000
v 0.004155 0.073787 0.000000
v 0.004159 -0.074774 0.000000
v -0.004156 0.081250 0.689781
v 0.004384 -0.093473 0.701882
v 0.004267 -0.072092 1.010016
v 0.004180 -0.052392 1.313377
v 0.003691 0.029990 1.292814
v 0.003814 -0.098582 0.176860
v -0.003741 0.059994 0.168192
v -0.004190 0.059769 0.504461
v -0.003720 0.079601 1.186485
v -0.004185 0.088444 1.124973
v -0.004129 0.063653 1.246053
v 0.003642 0.065179 1.248108
v 0.004201 -0.057697 1.238496
v 0.003944 0.032163 1.214507
v -0.003628 0.061506 0.917061
v 0.003768 -0.075914 0.428143
v -0.003689 0.068563 0.254629
v 0.003896 0.076607 -0.081308
v 0.003874 0.066409 -0.240983
v -0.004161 0.062711 -0.240021
v -0.003736 0.078943 -0.413685
v 0.004386 0.092590 -0.421665
v 0.003814 -0.095102 -0.602279
v 0.004242 -0.083134 -0.766194
v 0.004325 -0.091633 -0.946240
v 0.004007 -0.083498 -1.100452
v 0.004275 -0.098165 -1.298236
vt 0.527112 0.676268
vt 0.508846 0.676095
vt 0.500989 0.676021
vt 0.582833 0.233116
vt 0.651622 0.454922
vt 0.494880 0.285854
vt 0.610706 -0.210315
vt 0.769373 0.013031
vt 0.487643 0.010376
vt 0.625100 0.677196
vt 0.607101 0.677026
vt 0.598101 0.676940
vt 0.650714 0.677438
vt 0.571103 0.676685
vt 0.553104 0.676514
vt 0.669317 0.455193
vt 0.668410 0.677606
vt 0.626009 0.454529
vt 0.634547 0.454660
vt 0.493177 0.452490
vt 0.493740 0.397441
vt 0.486184 0.285759
vt 0.274400 0.228952
vt 0.486742 0.232211
vt 0.492260 0.675938
vt 0.204504 0.007695
vt 0.741549 0.234612
vt 0.759157 0.234778
vt 0.706979 0.234286
vt 0.724451 0.234451
vt 0.627607 0.233538
vt 0.688927 0.234116
vt 0.609697 0.233370
vt 0.521486 0.232538
vt 0.555969 0.232863
vt 0.485022 0.397320
vt 0.487136 -0.211484
vt 0.495865 -0.211402
vt 0.504595 -0.211319
vt 0.512451 -0.211245
vt 0.530718 -0.211072
vt 0.556709 -0.210826
vt 0.574708 -0.210655
vt 0.601706 -0.210400
vt 0.628705 -0.210144
vt 0.654319 -0.209902
vt 0.672015 -0.209734
vn 0.9993 0.0374 -0.0022
vn 1.0000 -0.0029 -0.0005
vn -1.0000 0.0042 0.0000
vn -0.9999 -0.0106 0.0017
vn 0.9998 0.0178 -0.0012
vn -0.9999 0.0145 -0.0015
vn -0.8366 0.5424 0.0762
vn -0.9995 0.0314 0.0005
vn 0.8040 0.5945 0.0077
vn -0.9932 -0.1163 0.0023
vn -0.9995 -0.0310 0.0021
vn -0.9991 0.0421 -0.0001
vn 0.9998 0.0217 -0.0004
vn -0.4744 0.8803 0.0007
vn 1.0000 0.0029 0.0001
vn 1.0000 0.0068 0.0034
vn -0.9994 0.0261 0.0217
vn -0.0469 0.8439 0.5345
vn 1.0000 -0.0011 0.0004
vn 0.9998 -0.0195 0.0017
vn 1.0000 -0.0003 0.0015
vn 0.9809 0.0526 0.1873
vn -0.9960 0.0852 0.0265
vn 0.9761 0.2138 -0.0396
vn 0.8366 -0.5424 -0.0762
vn 0.9995 0.0310 -0.0021
vn 0.9839 0.1761 -0.0306
vn 0.5645 0.8232 -0.0603
vn 0.9997 0.0253 -0.0007
vn 0.9996 -0.0298 0.0004
vn 1.0000 -0.0079 0.0009
vn 0.9998 0.0197 -0.0010
vn 1.0000 -0.0032 0.0005
vn -1.0000 -0.0037 -0.0033
vn 1.0000 0.0019 0.0004
vn 0.9997 -0.0237 -0.0004
vn 0.9966 0.0823 -0.0008
vn 1.0000 0.0018 -0.0002
vn 1.0000 0.0057 0.0003
vn 1.0000 0.0036 0.0009
vn 1.0000 -0.0033 0.0005
vn 0.9998 0.0203 -0.0010
vn -1.0000 0.0079 -0.0009
vn -0.9998 -0.0197 0.0010
vn -0.1996 -0.9788 -0.0467
vn -1.0000 0.0011 -0.0004
vn -0.9993 -0.0374 0.0022
vn -1.0000 0.0003 -0.0015
vn -0.9998 0.0195 -0.0017
vn 0.8924 -0.4513 0.0022
vn -0.9996 0.0298 -0.0004
vn 0.9436 -0.3311 -0.0000
vn 0.8850 -0.4657 0.0020
vn -0.9999 -0.0106 0.0014
vn -0.9998 0.0195 -0.0013
vn -0.9999 -0.0153 0.0009
vn -0.9999 0.0114 -0.0014
vn -0.5645 -0.8232 0.0603
vn -0.9997 -0.0253 0.0007
vn 0.7235 -0.6903 0.0076
vn -1.0000 0.0053 0.0001
vn 0.8755 -0.4833 0.0008
vn -1.0000 -0.0056 0.0010
vn 0.8810 -0.4731 -0.0001
usemtl algae_green
s off
f 22/1/1 17/2/1 16/3/1
f 23/4/2 26/5/2 20/6/2
f 14/7/3 2/8/3 3/9/3
f 5/10/4 14/11/4 24/12/4
f 5/10/5 24/12/5 27/13/5
f 24/12/6 15/14/6 8/15/6
f 29/16/7 28/17/7 26/5/7
f 28/17/8 27/13/8 22/1/8
f 26/5/9 28/17/9 22/1/9
f 24/12/10 8/15/10 27/13/10
f 6/18/11 25/19/11 26/5/11
f 19/20/12 6/18/12 26/5/12
f 27/13/13 8/15/13 22/1/13
f 19/20/14 26/5/14 22/1/14
f 20/6/15 21/21/15 11/22/15
f 21/21/16 12/23/16 11/22/16
f 12/23/17 19/20/17 22/1/17
f 3/9/18 4/24/18 11/22/18
f 18/25/19 1/26/19 3/9/19
f 16/3/20 18/25/20 22/1/20
f 18/25/21 3/9/21 22/1/21
f 3/9/22 11/22/22 12/23/22
f 3/9/23 12/23/23 22/1/23
f 2/8/24 28/17/24 33/27/24
f 28/17/25 29/16/25 26/5/25
f 26/5/26 25/19/26 6/18/26
f 28/17/27 26/5/27 33/27/27
f 33/27/28 34/28/28 2/8/28
f 31/29/29 32/30/29 33/27/29
f 7/31/30 30/32/30 31/29/30
f 23/4/31 13/33/31 7/31/31
f 10/34/32 9/35/32 23/4/32
f 20/6/33 11/22/33 4/24/33
f 12/36/34 21/21/34 20/6/34
f 6/18/35 19/20/35 12/36/35
f 26/5/36 6/18/36 12/36/36
f 31/29/37 33/27/37 7/31/37
f 33/27/38 26/5/38 7/31/38
f 26/5/39 12/36/39 20/6/39
f 7/31/40 26/5/40 23/4/40
f 20/6/41 4/24/41 10/34/41
f 20/6/42 10/34/42 23/4/42
f 7/31/43 13/33/43 23/4/43
f 23/4/44 9/35/44 10/34/44
f 10/34/45 4/24/45 3/9/45
f 3/9/46 1/37/46 18/38/46
f 16/39/47 17/40/47 22/41/47
f 3/9/48 18/38/48 22/41/48
f 18/38/49 16/39/49 22/41/49
f 23/4/50 10/34/50 3/9/50
f 31/29/51 30/32/51 7/31/51
f 7/31/52 23/4/52 2/8/52
f 23/4/53 3/9/53 2/8/53
f 22/41/54 8/42/54 15/43/54
f 15/43/55 24/44/55 14/7/55
f 14/7/56 5/45/56 27/46/56
f 27/46/57 28/47/57 2/8/57
f 2/8/58 34/28/58 33/27/58
f 33/27/59 32/30/59 31/29/59
f 31/29/60 7/31/60 2/8/60
f 3/9/61 22/41/61 14/7/61
f 22/41/62 15/43/62 14/7/62
f 14/7/63 27/46/63 2/8/63
f 33/27/64 31/29/64 2/8/64
