# Blender v2.92.0 OBJ File: 'algae.blend'
# www.blender.org
mtllib 189.mtl
o algae_cube_Cube
v -0.004141 0.110945 -1.370370
v -0.004107 0.094015 1.369795
v 0.004273 0.104466 -1.372623
v 0.004154 0.105222 1.370588
v -0.004276 -0.060146 1.372676
v 0.004132 -0.045858 -1.370204
v 0.003986 -0.056632 1.367802
v -0.004206 0.061702 -0.000000
v 0.003950 -0.081978 0.000000
v -0.003926 -0.062572 -0.000000
v -0.003986 -0.047145 -0.683894
v 0.004059 -0.011445 -0.684497
v 0.003938 0.103973 0.695206
v 0.004046 -0.049335 0.696099
v 0.003966 0.095882 -1.025601
v -0.003976 0.110152 -1.025726
v 0.003992 -0.055795 -0.329987
v 0.004021 0.090399 0.347945
v 0.004267 -0.080161 0.349002
v -0.003970 -0.085705 0.347734
v -0.003929 0.095561 0.347567
v 0.004079 0.108877 1.031578
v -0.003994 -0.046932 1.030525
v 0.004062 -0.011307 -0.684524
v 0.004272 -0.061759 0.698049
v 0.004256 0.100263 0.174477
v 0.004245 -0.040490 0.174453
v -0.004086 -0.042550 0.174110
v -0.004262 0.108235 0.174490
v 0.004211 -0.042065 -0.508325
v -0.004274 -0.066031 -0.508727
v 0.004033 -0.002932 -0.507213
v 0.003979 -0.005693 -0.506888
v 0.004257 0.072629 -1.190854
v 0.004048 -0.058408 -1.187782
v -0.003947 -0.084730 -1.186348
v -0.003927 0.106279 -1.186069
v 0.004276 0.088341 0.866092
v 0.004153 -0.064006 0.864760
v -0.003930 -0.061175 0.862446
v 0.004253 -0.050455 0.865842
v -0.003930 0.108192 0.521355
v 0.004107 0.103824 0.522460
v 0.004131 0.031697 0.522613
v 0.004147 0.030982 0.522720
v 0.004210 0.098715 1.202388
v -0.004022 -0.052809 1.199628
v 0.004226 0.107285 1.126508
v 0.004278 -0.087056 1.127235
v -0.003937 -0.051346 1.122550
v -0.004123 0.058193 1.125060
v -0.003926 0.101396 1.282539
v 0.004089 -0.066112 1.285036
v -0.003960 -0.044635 1.283051
v -0.004276 0.105599 0.950098
v 0.004129 0.102203 0.948361
v 0.003990 0.099176 0.779347
v 0.004153 -0.068599 0.780884
v -0.003940 0.070522 0.778888
v 0.003926 0.096954 0.608221
v 0.004145 -0.058450 0.609823
v -0.004108 -0.041899 0.609547
v 0.003926 0.086668 0.434441
v 0.004270 -0.080297 0.436269
v 0.003951 0.035766 0.434572
v 0.003983 0.033644 0.434736
v -0.003926 0.092812 0.260666
v 0.004176 0.109709 0.261453
v 0.004065 0.104842 0.087033
v -0.003952 -0.062498 0.086915
v -0.004098 0.062018 -0.082602
v 0.004261 0.079071 -0.082769
v -0.004267 -0.046912 -0.082776
v 0.003926 0.096578 -0.247296
v 0.004001 -0.051773 -0.247517
v -0.004227 -0.047472 -0.248203
v -0.004026 0.103165 -0.247590
v -0.004254 0.074965 -0.419823
v 0.004075 0.050898 -0.418894
v 0.004232 0.106944 -0.597210
v 0.004218 -0.046581 -0.597099
v 0.003943 -0.013177 -0.595110
v 0.004074 -0.005972 -0.596040
v -0.004221 0.110160 -0.597125
v -0.004175 0.098100 -0.772470
v 0.004017 0.076022 -0.770984
v 0.003976 -0.067380 -0.770606
v -0.003929 -0.059788 -0.770184
v 0.004217 -0.052667 -0.943012
v -0.004259 -0.040711 -0.943517
v 0.004275 -0.066988 -1.110312
v 0.004126 -0.041160 -1.279501
vt 0.495428 0.232292
vt 0.487643 0.010376
vt 0.496329 0.010457
vt 0.204504 0.007695
vt 0.486742 0.232211
vt 0.203620 0.227865
vt 0.725353 0.012616
vt 0.672015 -0.209734
vt 0.751551 -0.208981
vt 0.679144 0.344682
vt 0.697735 0.288059
vt 0.748849 0.456414
vt 0.747946 0.678359
vt 0.732180 0.456158
vt 0.598101 0.676940
vt 0.599012 0.454114
vt 0.608011 0.454252
vt 0.538232 0.286325
vt 0.538727 0.232701
vt 0.555969 0.232863
vt 0.628508 0.011703
vt 0.653994 0.011944
vt 0.653093 0.233779
vt 0.508846 0.676095
vt 0.509763 0.452745
vt 0.528028 0.453025
vt 0.633638 0.677277
vt 0.651622 0.454922
vt 0.650714 0.677438
vt 0.679488 0.287861
vt 0.749842 0.234691
vt 0.741549 0.234612
vt 0.724451 0.234451
vt 0.704869 0.677951
vt 0.731277 0.678201
vt 0.609697 0.233370
vt 0.592689 0.011366
vt 0.610599 0.011534
vt 0.668410 0.677606
vt 0.669317 0.455193
vt 0.581469 0.398658
vt 0.572947 0.343366
vt 0.581924 0.343477
vt 0.687632 0.455474
vt 0.705774 0.455753
vt 0.619553 0.011619
vt 0.686726 0.677779
vt 0.527112 0.676268
vt 0.545354 0.453291
vt 0.707880 0.012451
vt 0.706979 0.234286
vt 0.591788 0.233201
vt 0.564923 0.232947
vt 0.617010 0.454390
vt 0.554017 0.453424
vt 0.563016 0.453562
vt 0.572015 0.453700
vt 0.512833 0.010613
vt 0.688927 0.234116
vt 0.661589 0.233859
vt 0.492260 0.675938
vt 0.483530 0.675856
vt 0.501906 0.452624
vt 0.505015 0.010539
vt 1.051103 0.015687
vt 1.050202 0.237522
vt 0.759157 0.234778
vt 0.590013 0.453976
vt 0.571103 0.676685
vt 0.767570 0.456701
vt 0.766669 0.678536
vt 0.565825 0.011112
vt 0.539629 0.010866
vt 0.522387 0.010703
vt 0.487136 -0.211484
vt 0.512451 -0.211245
vt 0.495865 -0.211402
vt 0.530718 -0.211072
vt 0.548045 -0.210908
vt 0.574708 -0.210655
vt 0.592707 -0.210485
vt 0.628705 -0.210144
vt 0.637003 0.011783
vt 0.601706 -0.210400
vt 0.610706 -0.210315
vt 0.637243 -0.210063
vt 0.654319 -0.209902
vt 0.698940 0.012367
vt 0.680715 0.012195
vt 0.690331 -0.209561
vt 0.708474 -0.209389
vt 0.770274 -0.208804
vt 0.750743 0.012855
vt 0.734882 -0.209139
vt 0.634547 0.454660
vt 0.581014 0.453838
vt 0.572481 0.398533
vt 0.536691 0.453158
vt 0.519364 0.452892
vt 0.484448 0.452356
vt 0.511931 0.232448
vt 0.546863 0.286419
vt 0.555494 0.286513
vt 0.582833 0.233116
vt 0.627607 0.233538
vt 0.768472 0.234866
vt 0.679814 0.234030
vt 0.688612 0.287960
vt 0.688279 0.344795
vt 0.697415 0.344909
vt 0.607101 0.677026
vt 0.589102 0.676855
vt 0.544440 0.676432
vt 0.625100 0.677196
vn -0.9325 -0.3554 -0.0648
vn -0.0724 -0.0171 0.9972
vn -1.0000 0.0017 -0.0004
vn 1.0000 -0.0010 0.0002
vn 0.9701 0.2405 -0.0321
vn -0.8998 0.4337 -0.0479
vn 1.0000 -0.0073 -0.0013
vn -0.4591 -0.8868 -0.0534
vn -0.9858 0.1678 -0.0042
vn 0.6221 0.7596 0.1897
vn 0.9998 -0.0194 0.0011
vn -0.9999 -0.0167 0.0011
vn 0.8734 0.4863 0.0238
vn 0.2423 -0.9415 -0.2342
vn 0.9426 0.3229 -0.0851
vn -0.9999 -0.0149 0.0013
vn 0.9371 0.3435 -0.0623
vn 1.0000 0.0054 0.0003
vn 0.3511 0.9184 0.1824
vn 0.3715 0.9283 -0.0169
vn -0.6930 -0.7182 -0.0623
vn 0.5496 -0.8325 0.0696
vn -0.9888 0.1490 0.0100
vn 0.9999 -0.0139 0.0010
vn 0.9874 -0.1572 0.0177
vn 0.9999 -0.0145 0.0003
vn 1.0000 0.0007 -0.0015
vn 0.7636 0.6432 0.0560
vn 0.9999 -0.0159 0.0008
vn -0.5391 -0.4534 -0.7098
vn 0.4836 0.8727 -0.0674
vn 0.6132 0.7897 0.0193
vn 0.4400 -0.8921 0.1027
vn 0.5031 0.0156 0.8641
vn -1.0000 -0.0067 0.0002
vn -1.0000 -0.0085 0.0002
vn -0.9999 0.0159 -0.0008
vn -1.0000 0.0010 -0.0033
vn -1.0000 -0.0029 -0.0000
vn -1.0000 -0.0064 0.0002
vn -1.0000 -0.0012 0.0002
vn -1.0000 0.0093 -0.0013
vn -1.0000 -0.0060 -0.0007
vn -1.0000 -0.0013 0.0002
vn -1.0000 0.0002 -0.0000
vn -1.0000 -0.0005 0.0001
vn -0.9998 0.0185 0.0001
vn -0.9997 -0.0232 -0.0003
vn -0.9999 -0.0106 0.0009
vn -1.0000 -0.0012 -0.0000
vn -1.0000 -0.0001 -0.0000
vn -1.0000 -0.0095 0.0022
vn -1.0000 0.0043 0.0006
vn -1.0000 0.0068 0.0003
vn -0.9999 0.0102 -0.0005
vn -0.9976 0.0692 -0.0005
vn -1.0000 -0.0034 -0.0013
vn -1.0000 -0.0003 -0.0002
vn -1.0000 0.0007 0.0003
vn -1.0000 -0.0017 0.0004
vn -0.9978 -0.0668 -0.0006
vn -1.0000 0.0011 0.0001
vn -1.0000 -0.0100 0.0008
vn -1.0000 -0.0019 -0.0009
vn -1.0000 0.0066 -0.0005
vn -1.0000 0.0044 0.0013
vn -1.0000 -0.0082 -0.0008
vn 1.0000 0.0078 -0.0012
vn 0.9999 0.0163 -0.0013
vn 1.0000 -0.0026 0.0012
vn 1.0000 -0.0078 0.0008
vn 1.0000 0.0011 0.0006
vn 0.9999 0.0149 -0.0013
vn -0.9881 -0.0000 0.1535
vn 1.0000 0.0035 -0.0004
vn 1.0000 0.0003 0.0021
vn 1.0000 -0.0096 0.0008
vn -1.0000 -0.0052 0.0016
vn 0.9998 0.0211 -0.0006
vn 0.9999 0.0115 -0.0002
vn 0.9998 0.0222 -0.0012
vn 1.0000 -0.0054 -0.0004
vn 1.0000 -0.0010 0.0004
vn 1.0000 0.0076 0.0002
vn 1.0000 -0.0016 -0.0002
vn 1.0000 0.0055 0.0006
vn 1.0000 0.0042 -0.0012
vn 1.0000 -0.0043 -0.0005
vn 1.0000 -0.0063 -0.0000
vn 1.0000 -0.0091 0.0005
vn 1.0000 0.0063 0.0006
vn 1.0000 -0.0074 0.0001
vn 1.0000 -0.0088 0.0007
vn 0.9998 0.0180 -0.0011
vn 1.0000 0.0059 -0.0000
vn 1.0000 -0.0032 -0.0012
vn 1.0000 0.0063 0.0005
vn 1.0000 0.0019 0.0003
vn 1.0000 -0.0053 -0.0004
vn 1.0000 -0.0009 0.0001
vn 1.0000 0.0021 0.0004
vn 1.0000 0.0090 0.0005
vn 1.0000 0.0093 0.0005
vn 1.0000 0.0039 -0.0001
vn 1.0000 -0.0009 -0.0001
vn 1.0000 -0.0011 0.0002
vn 0.9999 -0.0107 0.0004
vn 1.0000 -0.0013 0.0001
vn 0.9999 0.0167 -0.0011
vn 1.0000 -0.0072 -0.0005
vn 1.0000 -0.0033 0.0011
vn 0.9998 -0.0216 0.0000
vn 1.0000 0.0035 -0.0001
vn 1.0000 0.0063 0.0010
vn 1.0000 0.0045 -0.0001
vn 1.0000 -0.0013 0.0002
vn 0.9997 -0.0228 0.0009
vn 1.0000 0.0064 -0.0001
vn 0.9999 -0.0172 0.0010
vn 0.9998 -0.0196 -0.0014
vn 0.8738 0.4862 -0.0115
vn 0.6779 0.7241 0.1270
vn 0.5453 0.8378 -0.0265
vn -0.8994 0.4269 0.0937
vn -0.9998 -0.0180 0.0011
vn -1.0000 0.0088 -0.0007
vn -0.9256 -0.3757 -0.0460
vn -0.9997 -0.0226 -0.0002
vn 0.4057 0.8823 0.2387
vn -0.9998 -0.0222 0.0012
vn -0.8967 0.4400 0.0486
vn -0.9997 0.0228 -0.0009
vn -0.9999 0.0172 -0.0010
vn -0.9998 0.0208 -0.0011
vn -0.8160 -0.5779 0.0141
vn 0.9563 -0.2876 0.0534
vn 0.9366 0.3493 0.0271
vn 0.5682 -0.8024 -0.1824
vn 0.6356 0.7617 -0.1256
vn -0.9997 -0.0230 0.0012
vn 0.3542 0.9330 -0.0641
vn -0.9228 -0.3745 0.0906
vn 0.2341 -0.9658 0.1113
vn 0.9386 0.3289 0.1042
vn -0.9620 0.2672 -0.0566
vn 0.9999 0.0173 -0.0011
vn -0.8130 -0.5790 -0.0622
vn -1.0000 -0.0059 0.0000
vn -0.8930 -0.4440 0.0738
vn -1.0000 0.0037 -0.0013
vn 0.6774 0.7241 -0.1297
vn -0.8962 0.4386 -0.0676
vn 0.4776 0.8786 -0.0003
vn -0.9363 0.3476 0.0508
vn -0.9637 0.2665 0.0158
vn -0.9738 -0.2266 -0.0194
vn -1.0000 -0.0075 0.0003
vn -0.8942 -0.4464 -0.0334
vn -0.9732 -0.2289 -0.0193
vn 0.8354 -0.5493 0.0208
vn -0.9560 -0.2929 0.0144
vn -0.4632 -0.8863 -0.0009
vn 0.9999 -0.0102 0.0005
vn -0.9907 -0.1344 0.0190
vn -0.6920 -0.7216 0.0190
vn 1.0000 0.0036 -0.0003
vn -0.9846 0.1688 -0.0451
vn -0.8039 0.5943 -0.0233
vn 0.8206 0.5678 0.0643
vn -0.9750 -0.2206 0.0281
vn -0.9367 -0.3497 0.0145
vn -1.0000 0.0009 -0.0001
vn 0.9546 -0.2929 -0.0543
vn -0.9778 -0.1440 -0.1521
vn 0.5456 0.8358 -0.0607
vn 1.0000 0.0006 -0.0005
vn 1.0000 0.0011 -0.0018
vn -1.0000 -0.0061 -0.0014
vn 0.9722 0.2307 0.0405
usemtl algae_green
s off
f 53/1/1 5/2/1 54/3/1
f 2/4/2 7/5/2 4/6/2
f 90/7/3 78/8/3 37/9/3
f 32/10/4 24/11/4 34/12/4
f 37/13/5 15/14/5 34/12/5
f 67/15/6 68/16/6 26/17/6
f 41/18/7 39/19/7 14/20/7
f 10/21/8 76/22/8 75/23/8
f 51/24/9 48/25/9 56/26/9
f 71/27/10 74/28/10 77/29/10
f 32/10/11 33/30/11 24/11/11
f 35/31/12 91/32/12 89/33/12
f 85/34/13 15/14/13 16/35/13
f 27/36/14 20/37/14 28/38/14
f 78/39/15 74/28/15 79/40/15
f 66/41/16 44/42/16 65/43/16
f 85/34/17 80/44/17 86/45/17
f 28/38/18 70/46/18 10/21/18
f 78/39/19 80/44/19 84/47/19
f 55/48/20 56/26/20 57/49/20
f 88/50/21 89/33/21 87/51/21
f 20/37/22 19/52/22 61/53/22
f 26/17/23 69/54/23 71/27/23
f 13/55/24 60/56/24 43/57/24
f 50/58/25 61/53/25 14/20/25
f 87/51/26 81/59/26 17/60/26
f 24/11/27 81/59/27 87/51/27
f 52/61/28 2/62/28 46/63/28
f 54/3/29 47/64/29 50/58/29
f 1/65/30 3/66/30 92/67/30
f 18/68/31 42/69/31 43/57/31
f 37/13/32 3/70/32 1/71/32
f 53/1/33 7/5/33 5/2/33
f 2/4/34 5/2/34 7/5/34
f 62/72/35 40/73/35 23/74/35
f 23/74/36 50/58/36 54/3/36
f 50/58/37 47/64/37 54/3/37
f 54/3/38 5/2/38 2/75/38
f 28/38/39 20/37/39 62/72/39
f 62/72/40 23/74/40 54/3/40
f 54/3/41 2/75/41 51/76/41
f 2/75/42 52/77/42 51/76/42
f 51/76/43 55/78/43 59/79/43
f 62/72/44 54/3/44 51/76/44
f 59/79/45 42/80/45 21/81/45
f 62/72/46 51/76/46 8/82/46
f 51/76/47 59/79/47 8/82/47
f 10/21/48 70/46/48 73/83/48
f 70/46/49 28/38/49 73/83/49
f 28/38/50 62/72/50 8/82/50
f 59/79/51 21/81/51 67/84/51
f 67/84/52 29/85/52 8/82/52
f 71/86/53 77/87/53 78/8/53
f 59/79/54 67/84/54 8/82/54
f 11/88/55 31/89/55 76/22/55
f 76/22/56 73/83/56 28/38/56
f 28/38/57 8/82/57 71/86/57
f 78/8/58 84/90/58 85/91/58
f 28/38/59 71/86/59 76/22/59
f 71/86/60 78/8/60 90/7/60
f 11/88/61 76/22/61 90/7/61
f 90/7/62 76/22/62 71/86/62
f 90/7/63 88/50/63 11/88/63
f 1/92/64 36/93/64 90/7/64
f 85/91/65 16/94/65 37/9/65
f 37/9/66 1/92/66 90/7/66
f 78/8/67 85/91/67 37/9/67
f 79/40/68 74/28/68 72/95/68
f 72/95/69 69/54/69 26/17/69
f 26/17/70 68/16/70 18/68/70
f 18/68/71 63/96/71 72/95/71
f 63/96/72 66/41/72 72/95/72
f 66/41/73 65/43/73 44/42/73
f 44/42/74 45/97/74 43/57/74
f 60/56/75 13/55/75 57/49/75
f 44/42/76 43/57/76 60/56/76
f 26/17/77 18/68/77 72/95/77
f 66/41/78 44/42/78 60/56/78
f 60/56/79 57/49/79 38/98/79
f 38/98/80 56/26/80 46/63/80
f 56/26/81 22/99/81 48/25/81
f 46/63/82 56/26/82 48/25/82
f 46/63/83 4/100/83 7/5/83
f 53/1/84 49/101/84 39/19/84
f 46/63/85 7/5/85 66/41/85
f 7/5/86 53/1/86 41/18/86
f 66/41/87 60/56/87 38/98/87
f 86/45/88 80/44/88 79/40/88
f 79/40/89 72/95/89 66/41/89
f 66/41/90 38/98/90 46/63/90
f 7/5/91 41/18/91 66/41/91
f 53/1/92 39/19/92 41/18/92
f 41/18/93 58/102/93 25/103/93
f 41/18/94 25/103/94 14/20/94
f 61/53/95 64/104/95 19/52/95
f 66/41/96 41/18/96 14/20/96
f 14/20/97 61/53/97 27/36/97
f 61/53/98 19/52/98 27/36/98
f 27/36/99 9/105/99 75/23/99
f 79/40/100 66/41/100 32/10/100
f 66/41/101 14/20/101 27/36/101
f 34/12/102 15/14/102 86/45/102
f 86/45/103 79/40/103 34/12/103
f 66/41/104 27/36/104 32/10/104
f 6/106/105 3/70/105 34/12/105
f 79/40/106 32/10/106 34/12/106
f 75/23/107 17/60/107 30/107/107
f 92/67/108 6/106/108 34/12/108
f 91/32/109 35/31/109 89/33/109
f 35/31/110 92/67/110 89/33/110
f 24/11/111 87/51/111 89/33/111
f 27/36/112 75/23/112 30/107/112
f 30/107/113 81/59/113 83/108/113
f 30/107/114 83/108/114 33/30/114
f 89/33/115 92/67/115 24/11/115
f 92/67/116 34/12/116 24/11/116
f 82/109/117 12/110/117 24/11/117
f 27/36/118 30/107/118 33/30/118
f 32/10/119 82/109/119 24/11/119
f 27/36/120 33/30/120 32/10/120
f 37/13/121 16/35/121 15/14/121
f 26/17/122 29/111/122 67/15/122
f 67/15/123 21/112/123 18/68/123
f 67/15/124 18/68/124 68/16/124
f 14/20/125 25/103/125 41/18/125
f 25/103/126 58/102/126 41/18/126
f 75/23/127 9/105/127 10/21/127
f 10/21/128 73/83/128 76/22/128
f 56/26/129 55/48/129 51/24/129
f 48/25/130 22/99/130 56/26/130
f 71/27/131 72/95/131 74/28/131
f 24/11/132 12/110/132 82/109/132
f 24/11/133 82/109/133 32/10/133
f 33/30/134 83/108/134 24/11/134
f 89/33/135 90/7/135 35/31/135
f 90/7/136 36/93/136 35/31/136
f 85/34/137 86/45/137 15/14/137
f 27/36/138 19/52/138 20/37/138
f 78/39/139 77/29/139 74/28/139
f 66/41/140 45/97/140 44/42/140
f 85/34/141 84/47/141 80/44/141
f 10/21/142 9/105/142 27/36/142
f 27/36/143 28/38/143 10/21/143
f 78/39/144 79/40/144 80/44/144
f 57/49/145 59/113/145 55/48/145
f 56/26/146 38/98/146 57/49/146
f 88/50/147 90/7/147 89/33/147
f 64/104/148 61/53/148 19/52/148
f 61/53/149 62/72/149 20/37/149
f 71/27/150 8/114/150 29/111/150
f 71/27/151 29/111/151 26/17/151
f 69/54/152 72/95/152 71/27/152
f 43/57/153 42/69/153 13/55/153
f 42/69/154 59/113/154 13/55/154
f 59/113/155 57/49/155 13/55/155
f 39/19/156 49/101/156 50/58/156
f 50/58/157 23/74/157 40/73/157
f 40/73/158 62/72/158 61/53/158
f 14/20/159 39/19/159 50/58/159
f 50/58/160 40/73/160 61/53/160
f 81/59/90 30/107/90 17/60/90
f 17/60/161 75/23/161 11/88/161
f 75/23/162 76/22/162 11/88/162
f 76/22/163 31/89/163 11/88/163
f 11/88/164 88/50/164 17/60/164
f 88/50/165 87/51/165 17/60/165
f 24/11/166 83/108/166 81/59/166
f 48/25/167 51/24/167 52/61/167
f 2/62/168 4/100/168 46/63/168
f 46/63/169 48/25/169 52/61/169
f 49/101/170 53/1/170 50/58/170
f 53/1/171 54/3/171 50/58/171
f 3/66/172 6/106/172 92/67/172
f 92/67/173 35/31/173 36/93/173
f 36/93/174 1/65/174 92/67/174
f 18/68/175 21/112/175 42/69/175
f 43/57/176 45/97/176 18/68/176
f 45/97/177 66/41/177 63/96/177
f 18/68/178 45/97/178 63/96/178
f 37/13/179 34/12/179 3/70/179
