# Blender v2.92.0 OBJ File: 'algae.blend'
# www.blender.org
mtllib 194.mtl
o algae_cube_Cube
v -0.003956 0.059558 -1.306896
v -0.003529 0.065288 1.287234
v -0.002510 -0.084132 -1.249487
v -0.002493 -0.076291 1.248947
v -0.002545 0.075776 -0.000000
v -0.005517 -0.084230 -0.000000
v -0.005017 -0.088730 -0.682669
v -0.006244 0.070177 -0.725085
v -0.003338 0.073939 0.650535
v -0.004796 -0.087365 0.687556
v -0.004148 -0.082647 -0.987321
v -0.003509 0.058848 -0.964787
v -0.004342 0.071770 -0.320006
v -0.002573 -0.079129 -0.301890
v -0.006104 -0.076599 0.366047
v -0.005466 0.069970 0.354517
v -0.004068 0.076029 0.988687
v -0.005055 -0.088971 1.030312
v 0.006062 -0.055496 0.000000
v 0.005906 -0.053172 -0.712476
v 0.004118 -0.028893 0.668698
v 0.002529 -0.035905 -0.937552
v 0.002500 -0.047687 -0.301342
v 0.003197 -0.050120 0.323830
v 0.005334 -0.055230 1.043738
v 0.005623 0.025694 -1.053660
v 0.006137 -0.046192 0.183332
v 0.003365 0.032120 0.162775
v 0.003522 -0.046984 -0.155229
v 0.006225 0.032256 -0.174742
v 0.003233 -0.049756 -0.472526
v 0.003466 0.026423 -0.476072
v 0.003617 -0.038494 -0.806936
v 0.005989 0.038776 -0.894348
v 0.004939 0.031899 -1.180635
v 0.002599 -0.031819 0.790110
v 0.004831 0.030606 0.854375
v 0.002702 -0.043252 0.478908
v 0.002799 0.038081 0.480158
v 0.004042 -0.048389 1.149424
v 0.003351 0.026153 1.121927
v 0.004756 -0.079633 -1.091702
v 0.005230 -0.013344 -1.115189
v 0.002645 -0.009608 -1.170847
vt 0.643463 0.399518
vt 0.608433 0.399032
vt 0.627218 0.287293
vt 0.644229 0.287478
vt 0.537200 0.398044
vt 0.538232 0.286325
vt 0.555494 0.286513
vt 0.714776 0.400507
vt 0.678809 0.400008
vt 0.697735 0.288059
vt 0.661241 0.287663
vt 0.572481 0.398533
vt 0.715365 0.288251
vt 0.732449 0.400752
vt 0.573425 0.286708
vt 0.591356 0.286903
vt 0.502458 0.397562
vt 0.503577 0.285949
vt 0.520970 0.286138
vt 0.592689 0.011366
vt 0.609287 0.287098
vt 0.662490 0.012024
vt 0.628508 0.011703
vt 0.741032 0.345449
vt 0.732994 0.288443
vt 0.698940 0.012367
vt 0.556870 0.011028
vt 0.749097 0.400983
vt 1.051103 0.015687
vt 0.731277 0.678201
vt 0.204504 0.007695
vt 0.522387 0.010703
vt 0.487643 0.010376
vt 0.679488 0.287861
vt 0.556709 -0.210826
vt 0.518449 0.676186
vt 0.734882 -0.209139
vt 0.695884 0.677866
vt 0.522054 -0.211154
vt 0.758683 0.345668
vt 0.769373 0.013031
vt 0.766669 0.678536
vt 0.592707 -0.210485
vt 0.553104 0.676514
vt 0.770274 -0.208804
vt 0.741549 0.234612
vt 0.734157 0.012699
vt 0.662857 -0.209821
vt 0.625100 0.677196
vt 0.589102 0.676855
vt 0.699490 -0.209474
vt 0.659252 0.677519
vt 0.628705 -0.210144
vt 0.483530 0.675856
vn 0.9999 0.0150 0.0085
vn 0.9991 -0.0386 -0.0185
vn 0.9988 -0.0474 0.0114
vn 0.9999 0.0117 0.0064
vn 0.9993 -0.0358 -0.0068
vn 1.0000 0.0047 -0.0053
vn 0.9995 -0.0304 0.0002
vn 1.0000 -0.0012 0.0032
vn 0.9994 -0.0331 -0.0085
vn 1.0000 0.0014 0.0018
vn 0.9998 0.0135 0.0113
vn 0.9488 -0.3157 0.0110
vn 0.9998 0.0187 0.0058
vn 0.9772 -0.2124 0.0059
vn 0.9995 -0.0283 0.0116
vn 0.9331 -0.3514 -0.0772
vn 0.9888 -0.1495 0.0039
vn 0.9528 0.3036 -0.0006
vn -0.9999 -0.0106 0.0123
vn 0.9989 0.0411 0.0221
vn 1.0000 -0.0015 -0.0055
vn 0.9872 -0.1594 0.0062
vn 0.9819 0.1896 0.0009
vn 0.9152 0.4029 -0.0086
vn 0.9876 0.1573 0.0039
vn 0.9985 -0.0117 -0.0544
vn 0.9756 -0.2193 -0.0113
vn 0.9767 0.2142 -0.0099
vn 0.9269 -0.3735 -0.0357
vn 0.9796 -0.2008 -0.0012
vn 1.0000 -0.0029 0.0043
vn 0.9912 -0.1322 0.0001
vn -1.0000 0.0058 -0.0007
vn 0.9934 -0.0753 -0.0865
vn 0.4004 -0.9163 0.0077
vn 0.9591 -0.2809 -0.0363
vn 0.9732 0.2296 -0.0083
vn 0.9441 -0.3297 0.0084
vn 0.9853 -0.1708 -0.0006
vn -1.0000 0.0042 -0.0017
vn 0.9999 -0.0025 0.0112
vn 0.9517 -0.3055 0.0314
vn 0.9822 0.1875 -0.0054
vn 0.9969 -0.0703 -0.0351
vn -0.9999 -0.0109 0.0067
vn 0.9514 -0.3076 0.0167
vn 0.9997 -0.0225 -0.0129
vn 0.9987 -0.0212 -0.0454
vn 0.9592 -0.2823 0.0147
vn 1.0000 -0.0011 -0.0074
vn 0.9890 -0.1479 0.0088
vn -1.0000 -0.0085 -0.0030
vn 0.9965 -0.0670 -0.0508
vn 0.9964 0.0372 0.0759
vn 0.9999 -0.0018 0.0150
vn 0.9401 0.3395 -0.0300
vn 0.9994 0.0348 -0.0022
vn -1.0000 -0.0095 0.0013
vn 0.9872 -0.1592 -0.0061
vn 0.9986 -0.0241 -0.0480
vn 0.9748 -0.2230 0.0015
vn 0.9687 0.2483 0.0069
vn 0.9847 0.1742 0.0110
vn 0.9724 -0.2205 0.0766
vn 0.9914 -0.1301 -0.0108
vn 0.9274 -0.3737 0.0186
vn -0.9999 0.0100 0.0044
vn -0.9999 -0.0129 -0.0100
vn 0.9863 0.1649 0.0084
vn 0.9556 0.2943 0.0145
vn 0.9842 0.1770 -0.0018
vn 0.9976 -0.0683 -0.0097
vn 0.9769 0.2132 -0.0131
vn 0.9706 0.2406 -0.0028
vn 0.9856 0.1687 0.0083
vn -1.0000 0.0065 0.0020
vn -1.0000 0.0085 -0.0022
vn -0.9998 0.0186 -0.0079
vn -1.0000 -0.0065 0.0047
vn -0.9999 0.0064 -0.0117
vn 0.9991 -0.0042 0.0426
vn -1.0000 0.0055 -0.0063
vn -1.0000 0.0049 0.0071
vn -0.9998 0.0186 0.0054
usemtl algae_green
s off
f 30/1/1 28/2/1 19/3/1
f 19/3/2 29/4/2 30/1/2
f 37/5/3 36/6/3 21/7/3
f 34/8/4 32/9/4 20/10/4
f 30/1/5 29/4/5 23/11/5
f 39/12/6 37/5/6 21/7/6
f 33/13/7 26/14/7 34/8/7
f 39/12/8 38/15/8 24/16/8
f 32/9/9 30/1/9 23/11/9
f 28/2/10 39/12/10 24/16/10
f 41/17/11 40/18/11 25/19/11
f 24/16/12 15/20/12 27/21/12
f 37/5/13 41/17/13 25/19/13
f 14/22/14 29/4/14 6/23/14
f 43/24/15 26/14/15 22/25/15
f 20/10/16 7/26/16 33/13/16
f 38/15/17 21/7/17 10/27/17
f 35/28/18 1/29/18 12/30/18
f 2/31/19 18/32/19 4/33/19
f 24/16/20 27/21/20 28/2/20
f 26/14/21 43/24/21 35/28/21
f 23/11/22 14/22/22 31/34/22
f 37/5/23 9/35/23 17/36/23
f 34/8/24 12/37/24 8/38/24
f 2/31/25 41/17/25 17/39/25
f 44/40/26 3/41/26 1/42/26
f 15/20/27 38/15/27 10/27/27
f 39/12/28 16/43/28 9/44/28
f 19/3/29 6/23/29 29/4/29
f 7/26/30 31/34/30 14/22/30
f 23/11/31 31/34/31 32/9/31
f 10/27/32 36/6/32 18/32/32
f 17/36/33 10/27/33 18/32/33
f 35/28/34 44/40/34 1/45/34
f 3/41/35 42/46/35 11/47/35
f 25/19/36 18/32/36 36/6/36
f 30/1/37 13/48/37 5/49/37
f 6/23/38 27/21/38 15/20/38
f 11/47/39 33/13/39 7/26/39
f 16/50/40 6/23/40 15/20/40
f 32/9/41 31/34/41 20/10/41
f 18/32/42 25/19/42 40/18/42
f 32/9/43 8/51/43 13/52/43
f 20/10/44 33/13/44 34/8/44
f 13/52/45 7/26/45 14/22/45
f 15/20/46 24/16/46 38/15/46
f 25/19/47 36/6/47 37/5/47
f 44/40/48 42/46/48 3/41/48
f 7/26/49 20/10/49 31/34/49
f 21/7/50 38/15/50 39/12/50
f 10/27/51 21/7/51 36/6/51
f 8/38/52 11/47/52 7/26/52
f 35/28/53 43/24/53 44/40/53
f 41/17/54 4/33/54 40/18/54
f 22/25/55 42/46/55 43/24/55
f 34/8/56 26/14/56 12/37/56
f 27/21/57 19/3/57 28/2/57
f 3/41/58 12/30/58 1/42/58
f 14/22/59 23/11/59 29/4/59
f 44/40/60 43/24/60 42/46/60
f 40/18/61 4/33/61 18/32/61
f 12/30/62 26/14/62 35/28/62
f 28/2/63 5/53/63 16/50/63
f 42/46/64 22/25/64 11/47/64
f 11/47/65 22/25/65 33/13/65
f 6/23/66 19/3/66 27/21/66
f 9/44/67 15/20/67 10/27/67
f 6/23/68 13/52/68 14/22/68
f 30/1/69 5/53/69 28/2/69
f 34/8/70 8/51/70 32/9/70
f 39/12/71 9/35/71 37/5/71
f 33/13/72 22/25/72 26/14/72
f 32/9/73 13/48/73 30/1/73
f 28/2/74 16/43/74 39/12/74
f 37/5/75 17/39/75 41/17/75
f 2/31/76 17/36/76 18/32/76
f 17/36/77 9/44/77 10/27/77
f 16/50/78 5/49/78 6/23/78
f 13/52/79 8/38/79 7/26/79
f 8/38/80 12/30/80 11/47/80
f 41/17/81 2/54/81 4/33/81
f 3/41/82 11/47/82 12/30/82
f 9/44/83 16/50/83 15/20/83
f 6/23/84 5/49/84 13/52/84
