# Blender v2.92.0 OBJ File: 'algae.blend'
# www.blender.org
mtllib 195.mtl
o algae_cube_Cube
v -0.001749 0.028938 -1.585143
v -0.005632 0.059229 1.447033
v -0.003510 0.091094 -0.120862
v -0.001488 -0.089930 0.050539
v -0.005303 -0.111906 -0.561539
v -0.006668 0.037761 -0.883867
v -0.004301 0.082856 0.663620
v -0.003929 -0.104368 0.953098
v -0.001646 -0.101640 -1.111272
v -0.004607 0.027229 -1.225490
v -0.006095 0.062988 -0.525415
v -0.001472 -0.102249 -0.320908
v -0.002055 -0.061057 0.445659
v -0.006756 0.051694 0.268503
v -0.005679 0.086020 1.000380
v -0.005297 -0.103174 1.391537
v 0.006720 -0.076316 -0.194546
v 0.006529 -0.066696 -0.953268
v 0.002097 -0.011825 0.787225
v 0.006564 -0.030394 -1.257932
v 0.001380 -0.074573 -0.416566
v 0.001446 -0.080229 0.354352
v 0.003551 -0.085245 1.067179
v 0.004914 0.002718 -1.173531
v 0.001948 -0.050841 0.161722
v 0.006744 0.023504 0.260632
v 0.001780 -0.068068 -0.234660
v 0.005776 0.014455 -0.158198
v 0.001617 -0.077594 -0.627736
v 0.001844 0.007741 -0.575041
v 0.004324 -0.037892 -1.043254
v 0.002371 0.034850 -0.947970
v 0.001523 0.020081 -1.347203
v 0.005720 -0.028857 0.930369
v 0.006714 0.009086 1.018065
v 0.004425 -0.062264 0.494688
v 0.006745 0.041633 0.708024
v 0.005710 -0.078218 -1.442070
v 0.005938 -0.031902 -1.345207
vt 0.643463 0.399518
vt 0.608433 0.399032
vt 0.627218 0.287293
vt 0.644229 0.287478
vt 0.537200 0.398044
vt 0.538232 0.286325
vt 0.555494 0.286513
vt 0.714776 0.400507
vt 0.678809 0.400008
vt 0.697735 0.288059
vt 0.661241 0.287663
vt 0.572481 0.398533
vt 0.715365 0.288251
vt 0.732449 0.400752
vt 0.573425 0.286708
vt 0.591356 0.286903
vt 0.522054 -0.211154
vt 0.483530 0.675856
vt 0.520970 0.286138
vt 0.592689 0.011366
vt 0.609287 0.287098
vt 0.662490 0.012024
vt 0.628508 0.011703
vt 0.741032 0.345449
vt 0.732994 0.288443
vt 0.698940 0.012367
vt 0.556870 0.011028
vt 0.749097 0.400983
vt 1.051103 0.015687
vt 0.731277 0.678201
vt 0.679488 0.287861
vt 0.204504 0.007695
vt 0.518449 0.676186
vt 0.522387 0.010703
vt 0.556709 -0.210826
vt 0.734882 -0.209139
vt 0.695884 0.677866
vt 0.592707 -0.210485
vt 0.553104 0.676514
vt 0.662857 -0.209821
vt 0.625100 0.677196
vt 0.734157 0.012699
vt 0.699490 -0.209474
vt 0.659252 0.677519
vt 0.766669 0.678536
vt 0.741549 0.234612
vt 0.628705 -0.210144
vt 0.589102 0.676855
vt 0.770274 -0.208804
vn 0.9999 0.0114 -0.0026
vn 0.9923 0.0547 -0.1109
vn 0.9994 0.0253 -0.0223
vn 0.9992 0.0407 0.0044
vn 0.9989 -0.0479 -0.0005
vn 0.9947 -0.1022 -0.0106
vn 0.9998 0.0149 0.0092
vn 0.9993 0.0288 -0.0249
vn 0.9997 -0.0231 -0.0091
vn 0.9988 -0.0492 0.0020
vn 0.9985 0.0551 0.0032
vn -0.9950 -0.0981 -0.0176
vn 0.9946 -0.1034 0.0035
vn 0.9974 0.0711 -0.0084
vn -0.9644 -0.2578 -0.0589
vn 0.9991 -0.0388 0.0146
vn 0.8314 0.5556 0.0092
vn 0.8040 0.2532 0.5380
vn 0.9984 -0.0564 -0.0060
vn 0.9964 0.0842 -0.0110
vn 0.9956 -0.0941 0.0025
vn -1.0000 -0.0021 -0.0000
vn 0.9872 0.1596 0.0025
vn 0.1073 0.9938 -0.0300
vn 0.4069 -0.9103 -0.0762
vn 0.9719 0.2341 -0.0245
vn -0.6905 -0.7206 -0.0632
vn 0.9775 -0.2108 -0.0071
vn 1.0000 -0.0034 0.0012
vn 0.9921 -0.1257 0.0034
vn -1.0000 -0.0068 -0.0031
vn -0.9991 -0.0320 -0.0290
vn 0.9917 0.1276 -0.0152
vn 0.9933 -0.1153 0.0099
vn 0.9951 -0.0983 0.0048
vn -0.9999 -0.0117 -0.0006
vn 0.9998 -0.0117 0.0147
vn 0.9881 0.1531 -0.0124
vn 0.9991 0.0415 -0.0112
vn -0.9996 0.0232 0.0150
vn -0.8055 -0.5854 0.0920
vn 0.9995 -0.0322 0.0026
vn -0.9995 -0.0301 -0.0081
vn 0.9834 -0.1814 0.0088
vn 0.9980 -0.0597 0.0182
vn 0.9894 -0.1390 -0.0416
vn -0.9995 -0.0293 -0.0072
vn 0.9957 0.0829 -0.0420
vn 0.9999 0.0105 -0.0074
vn 0.9528 0.3018 -0.0322
vn 0.9957 -0.0906 0.0198
vn -0.9936 -0.1090 -0.0298
vn 0.9952 -0.0980 0.0013
vn 0.9996 -0.0071 0.0269
vn 0.9150 0.4029 0.0224
vn 0.9062 0.4200 0.0501
vn 0.9966 -0.0810 0.0164
vn 0.9949 -0.1005 0.0069
vn 0.9874 -0.1562 0.0244
vn -0.9985 -0.0548 -0.0084
vn -0.9996 -0.0269 0.0008
vn 0.9924 0.1227 -0.0049
vn 0.6448 0.7622 0.0563
vn 0.9568 0.2892 0.0305
vn 0.9997 0.0213 0.0112
vn 0.9882 0.1526 -0.0118
vn 0.8998 0.4359 -0.0177
vn -0.9999 -0.0103 -0.0040
vn -0.9978 -0.0650 -0.0149
vn -0.9997 -0.0239 0.0033
vn -0.9998 -0.0207 -0.0054
vn 0.9985 0.0538 -0.0117
vn -1.0000 0.0068 0.0057
vn -1.0000 -0.0048 0.0067
usemtl algae_green
s off
f 28/1/1 26/2/1 17/3/1
f 17/3/2 27/4/2 28/1/2
f 35/5/3 34/6/3 19/7/3
f 32/8/4 30/9/4 18/10/4
f 28/1/5 27/4/5 21/11/5
f 37/12/6 35/5/6 19/7/6
f 31/13/7 24/14/7 32/8/7
f 37/12/8 36/15/8 22/16/8
f 30/9/9 28/1/9 21/11/9
f 26/2/10 37/12/10 22/16/10
f 15/17/11 2/18/11 23/19/11
f 22/16/12 13/20/12 25/21/12
f 12/22/13 27/4/13 4/23/13
f 39/24/14 24/14/14 20/25/14
f 18/10/15 5/26/15 31/13/15
f 36/15/16 19/7/16 8/27/16
f 33/28/17 1/29/17 10/30/17
f 35/5/18 15/17/18 23/19/18
f 22/16/19 25/21/19 26/2/19
f 24/14/20 39/24/20 33/28/20
f 21/11/21 12/22/21 29/31/21
f 2/32/22 15/33/22 16/34/22
f 35/5/23 7/35/23 15/33/23
f 32/8/24 10/36/24 6/37/24
f 13/20/25 36/15/25 8/27/25
f 37/12/26 14/38/26 7/39/26
f 17/3/27 4/23/27 27/4/27
f 5/26/28 29/31/28 12/22/28
f 21/11/29 29/31/29 30/9/29
f 8/27/30 34/6/30 16/34/30
f 16/34/31 7/39/31 8/27/31
f 23/19/32 16/34/32 34/6/32
f 28/1/33 11/40/33 3/41/33
f 4/23/34 25/21/34 13/20/34
f 9/42/35 31/13/35 5/26/35
f 13/20/36 3/41/36 4/23/36
f 30/9/37 29/31/37 18/10/37
f 30/9/38 6/43/38 11/44/38
f 18/10/39 31/13/39 32/8/39
f 12/22/40 6/37/40 5/26/40
f 13/20/41 22/16/41 36/15/41
f 23/19/42 34/6/42 35/5/42
f 10/30/43 1/45/43 9/42/43
f 5/26/44 18/10/44 29/31/44
f 19/7/45 36/15/45 37/12/45
f 8/27/46 19/7/46 34/6/46
f 5/26/47 10/30/47 9/42/47
f 38/46/48 33/28/48 39/24/48
f 20/25/49 38/46/49 39/24/49
f 32/8/50 24/14/50 10/36/50
f 25/21/51 17/3/51 26/2/51
f 9/42/52 1/45/52 38/46/52
f 12/22/53 21/11/53 27/4/53
f 2/18/54 16/34/54 23/19/54
f 10/30/55 24/14/55 33/28/55
f 26/2/56 3/47/56 14/48/56
f 38/46/57 20/25/57 9/42/57
f 9/42/58 20/25/58 31/13/58
f 4/23/59 17/3/59 25/21/59
f 8/27/60 14/48/60 13/20/60
f 4/23/61 11/44/61 12/22/61
f 28/1/62 3/47/62 26/2/62
f 32/8/63 6/43/63 30/9/63
f 37/12/64 7/35/64 35/5/64
f 31/13/65 20/25/65 24/14/65
f 30/9/66 11/40/66 28/1/66
f 26/2/67 14/38/67 37/12/67
f 16/34/68 15/33/68 7/39/68
f 13/20/69 14/48/69 3/41/69
f 12/22/70 11/44/70 6/37/70
f 5/26/71 6/37/71 10/30/71
f 38/46/72 1/49/72 33/28/72
f 8/27/73 7/39/73 14/48/73
f 4/23/74 3/41/74 11/44/74
