# Blender v2.92.0 OBJ File: 'algae.blend'
# www.blender.org
mtllib 198.mtl
o algae_cube_Cube
v -0.005629 0.072062 -1.862298
v -0.005827 0.081051 1.862298
v -0.002076 0.074226 -0.000000
v -0.003791 -0.074289 -0.000000
v -0.005757 -0.071005 -0.931149
v -0.003715 0.074052 -0.931149
v -0.002445 0.077229 0.947085
v -0.001869 -0.075893 0.947085
v -0.001732 -0.070209 -1.396724
v -0.002789 0.073284 -1.396724
v -0.004954 0.074273 -0.449255
v -0.002777 -0.072568 -0.449255
v -0.005181 -0.076878 0.473542
v -0.006200 0.077462 0.473542
v -0.004513 0.078394 1.402960
v -0.006202 -0.076976 1.402960
v 0.002382 -0.036689 0.000000
v 0.004904 -0.035738 -0.931149
v 0.001837 -0.041169 0.947085
v 0.001738 -0.036688 -1.396724
v 0.004103 -0.036199 -0.449255
v 0.006306 -0.037157 0.473542
v 0.005113 -0.038243 1.402960
v 0.004609 0.037470 -1.396724
v 0.005341 -0.038256 0.236771
v 0.004241 0.038417 0.236771
v 0.001936 -0.036802 -0.224628
v 0.005029 0.038334 -0.224628
v 0.006040 -0.035732 -0.690202
v 0.001972 0.038019 -0.690202
v 0.002706 -0.036803 -1.163936
v 0.005882 0.036186 -1.163936
v 0.003148 -0.040808 1.175023
v 0.006447 0.040157 1.175023
v 0.004186 -0.038414 0.710314
v 0.002890 0.038043 0.710314
v 0.001694 0.001740 -1.506364
vt 0.643463 0.399518
vt 0.608433 0.399032
vt 0.627218 0.287293
vt 0.644229 0.287478
vt 0.537200 0.398044
vt 0.538232 0.286325
vt 0.555494 0.286513
vt 0.714776 0.400507
vt 0.678809 0.400008
vt 0.697735 0.288059
vt 0.661241 0.287663
vt 0.572481 0.398533
vt 0.715365 0.288251
vt 0.732449 0.400752
vt 0.573425 0.286708
vt 0.591356 0.286903
vt 0.522054 -0.211154
vt 0.483530 0.675856
vt 0.520970 0.286138
vt 0.592689 0.011366
vt 0.609287 0.287098
vt 0.662490 0.012024
vt 0.628508 0.011703
vt 0.741032 0.345449
vt 0.732994 0.288443
vt 0.698940 0.012367
vt 0.556870 0.011028
vt 0.731277 0.678201
vt 0.679488 0.287861
vt 0.204504 0.007695
vt 0.518449 0.676186
vt 0.522387 0.010703
vt 0.556709 -0.210826
vt 0.734882 -0.209139
vt 0.695884 0.677866
vt 0.592707 -0.210485
vt 0.553104 0.676514
vt 0.662857 -0.209821
vt 0.625100 0.677196
vt 0.734157 0.012699
vt 0.589102 0.676855
vt 0.699490 -0.209474
vt 0.659252 0.677519
vt 0.766669 0.678536
vt 0.628705 -0.210144
vt 0.770274 -0.208804
vt 1.051103 0.015687
vn 0.9995 -0.0301 0.0017
vn 0.9992 -0.0411 -0.0020
vn 0.9992 -0.0407 -0.0057
vn 0.9999 0.0129 0.0082
vn 0.9991 -0.0411 0.0095
vn 0.9993 -0.0357 -0.0075
vn 0.9990 -0.0435 -0.0057
vn 0.9998 0.0170 0.0090
vn 1.0000 0.0074 -0.0066
vn 0.9993 0.0363 0.0029
vn 0.9966 0.0822 0.0024
vn 0.9606 -0.2778 -0.0026
vn 0.9900 -0.1411 0.0017
vn 0.9992 -0.0387 -0.0140
vn 0.9572 -0.2893 -0.0077
vn 0.9943 -0.1061 0.0086
vn 0.9960 0.0822 0.0341
vn 0.9999 0.0144 -0.0041
vn 0.9752 0.2014 -0.0916
vn 0.9825 -0.1859 0.0075
vn -0.9999 0.0109 -0.0029
vn 0.9670 0.2549 0.0037
vn 0.9716 0.2368 0.0015
vn 0.9800 -0.1990 -0.0064
vn 0.9835 0.1805 -0.0077
vn 0.9868 -0.1620 -0.0019
vn 0.9615 -0.2749 -0.0068
vn 0.9984 0.0551 0.0081
vn 0.9802 -0.1977 0.0088
vn -0.9999 0.0109 -0.0095
vn 0.9599 -0.2804 -0.0051
vn 0.9728 0.2314 -0.0062
vn 0.9670 -0.2546 0.0014
vn 0.9822 -0.1874 0.0082
vn -1.0000 -0.0066 -0.0030
vn 0.9985 0.0551 -0.0047
vn 0.9851 0.1719 0.0025
vn 0.9990 -0.0435 -0.0092
vn -0.9999 0.0141 0.0062
vn 0.9606 -0.2778 0.0071
vn 0.9991 -0.0407 -0.0082
vn -1.0000 -0.0074 0.0061
vn 0.9572 -0.2894 -0.0045
vn 0.9998 0.0169 0.0101
vn 0.9943 -0.1061 -0.0056
vn -0.9999 0.0141 -0.0086
vn 0.9793 0.2023 -0.0042
vn 0.9998 0.0144 -0.0124
vn 0.9825 -0.1859 0.0090
vn 0.9555 -0.2791 0.0952
vn 0.9758 0.2184 0.0070
vn 0.9928 -0.1122 -0.0426
vn 0.9947 -0.1030 -0.0042
vn 0.9867 -0.1620 -0.0134
vn -1.0000 -0.0038 0.0070
vn -0.9999 -0.0148 -0.0023
vn 0.9829 0.1843 0.0016
vn 0.9791 0.2033 0.0073
vn 0.9828 0.1843 -0.0084
vn 0.9992 -0.0387 -0.0042
vn 0.9733 0.2294 -0.0065
vn 0.9704 0.2415 0.0030
vn 0.9974 0.0721 -0.0063
vn -1.0000 -0.0038 -0.0045
vn -0.9999 0.0115 -0.0088
vn -0.9999 -0.0148 -0.0026
vn -1.0000 -0.0074 -0.0020
vn 0.9940 -0.1029 -0.0365
vn -0.9999 -0.0066 0.0079
vn -0.9999 0.0115 0.0064
usemtl algae_green
s off
f 28/1/1 26/2/1 17/3/1
f 17/3/2 27/4/2 28/1/2
f 34/5/3 33/6/3 19/7/3
f 32/8/4 30/9/4 18/10/4
f 28/1/5 27/4/5 21/11/5
f 36/12/6 34/5/6 19/7/6
f 31/13/7 24/14/7 32/8/7
f 36/12/8 35/15/8 22/16/8
f 30/9/9 28/1/9 21/11/9
f 26/2/10 36/12/10 22/16/10
f 15/17/11 2/18/11 23/19/11
f 22/16/12 13/20/12 25/21/12
f 12/22/13 27/4/13 4/23/13
f 37/24/14 24/14/14 20/25/14
f 18/10/15 5/26/15 31/13/15
f 35/15/16 19/7/16 8/27/16
f 34/5/17 15/17/17 23/19/17
f 22/16/18 25/21/18 26/2/18
f 37/24/19 10/28/19 24/14/19
f 21/11/20 12/22/20 29/29/20
f 2/30/21 15/31/21 16/32/21
f 34/5/22 7/33/22 15/31/22
f 32/8/23 10/34/23 6/35/23
f 13/20/24 35/15/24 8/27/24
f 36/12/25 14/36/25 7/37/25
f 17/3/26 4/23/26 27/4/26
f 5/26/27 29/29/27 12/22/27
f 21/11/28 29/29/28 30/9/28
f 8/27/29 33/6/29 16/32/29
f 15/31/30 8/27/30 16/32/30
f 23/19/31 16/32/31 33/6/31
f 28/1/32 11/38/32 3/39/32
f 4/23/33 25/21/33 13/20/33
f 9/40/34 31/13/34 5/26/34
f 14/41/35 4/23/35 13/20/35
f 30/9/36 29/29/36 18/10/36
f 30/9/37 6/42/37 11/43/37
f 18/10/38 31/13/38 32/8/38
f 12/22/39 6/35/39 5/26/39
f 13/20/40 22/16/40 35/15/40
f 23/19/41 33/6/41 34/5/41
f 10/28/42 1/44/42 9/40/42
f 5/26/43 18/10/43 29/29/43
f 19/7/44 35/15/44 36/12/44
f 8/27/45 19/7/45 33/6/45
f 6/35/46 9/40/46 5/26/46
f 32/8/47 24/14/47 10/34/47
f 25/21/48 17/3/48 26/2/48
f 12/22/49 21/11/49 27/4/49
f 2/18/50 16/32/50 23/19/50
f 26/2/51 3/45/51 14/41/51
f 37/24/52 9/40/52 1/46/52
f 9/40/53 20/25/53 31/13/53
f 4/23/54 17/3/54 25/21/54
f 7/37/55 13/20/55 8/27/55
f 4/23/56 11/43/56 12/22/56
f 28/1/57 3/45/57 26/2/57
f 32/8/58 6/42/58 30/9/58
f 36/12/59 7/33/59 34/5/59
f 31/13/60 20/25/60 24/14/60
f 30/9/61 11/38/61 28/1/61
f 26/2/62 14/36/62 36/12/62
f 37/24/63 1/47/63 10/28/63
f 15/31/64 7/37/64 8/27/64
f 14/41/65 3/39/65 4/23/65
f 12/22/66 11/43/66 6/35/66
f 6/35/67 10/28/67 9/40/67
f 37/24/68 20/25/68 9/40/68
f 7/37/69 14/41/69 13/20/69
f 4/23/70 3/39/70 11/43/70
