# Blender v2.92.0 OBJ File: 'algae.blend'
# www.blender.org
mtllib 20.mtl
o algae_cube_Cube
v -0.004134 0.061594 -1.081900
v 0.004304 0.064077 -1.188771
v 0.004733 0.063737 1.072502
v -0.003610 -0.080597 1.075328
v 0.004807 -0.085891 -1.051023
v -0.003381 0.079996 0.054468
v -0.004359 -0.079593 -0.069878
v 0.003414 -0.013114 -1.123112
v 0.003343 0.069083 -0.613216
v -0.004162 -0.085379 -0.638661
v -0.004720 0.065049 -0.504833
v 0.004605 0.004277 -0.570001
v -0.003536 0.076576 0.631105
v 0.003275 -0.084574 0.632561
v -0.004197 -0.084929 0.504979
v 0.004505 -0.011887 0.586517
v -0.003767 0.061808 -0.802999
v 0.004192 0.077436 -0.338879
v -0.003325 -0.083228 -0.329310
v 0.004155 0.069215 0.230298
v 0.004132 -0.073134 0.349104
v -0.004623 -0.070951 0.222181
v -0.003633 -0.004111 0.284858
v -0.004364 0.067246 0.347276
v -0.003748 0.076735 0.912037
v 0.004004 0.062335 0.803442
v 0.003320 -0.046304 1.163629
v 0.004627 -0.048673 -0.521052
v -0.004698 -0.047731 0.530926
v 0.003649 -0.051174 0.325635
v -0.003409 -0.045502 0.256799
v 0.004293 -0.051796 0.898178
v 0.003339 0.031949 -1.153831
v -0.004451 0.031186 1.160282
v -0.003391 0.033135 0.022610
v -0.004284 0.036326 -1.101131
v -0.003514 0.036473 -0.540437
v 0.004679 0.030622 0.547028
v -0.004579 0.029048 0.314685
v 0.003397 0.036118 0.263266
v -0.003656 0.032000 0.876607
v 0.004496 -0.087917 0.223832
v -0.004185 -0.087118 0.070768
v -0.003415 -0.009377 0.137492
v 0.004610 -0.000070 0.143996
v -0.004597 0.062667 0.202066
v 0.003705 0.033617 0.118908
v 0.004055 0.066912 -0.191330
v 0.003485 -0.083041 -0.078504
v -0.004592 0.001233 -0.135410
v -0.004611 -0.047716 -0.180913
v 0.003681 -0.047686 -0.101301
v -0.003983 -0.078403 -0.483107
v 0.003761 0.074017 -0.764581
v -0.004393 -0.082514 -0.781768
v -0.004646 0.007115 -0.700903
v -0.003431 0.032408 -0.685358
v -0.003661 -0.071307 -1.036176
v 0.003633 -0.008677 -0.976030
v 0.003589 -0.044428 -0.950756
v 0.003227 -0.079121 0.766845
v -0.004551 -0.080117 0.642011
v 0.004590 -0.009549 0.723118
v 0.003364 -0.034089 0.737568
v -0.003440 0.026515 0.732763
v -0.003342 0.062519 0.474285
v 0.004612 0.064236 0.372604
v 0.004463 -0.076974 0.501626
v -0.003477 -0.083853 0.373832
v -0.004033 -0.046194 0.394535
v -0.004376 0.029519 0.457878
v -0.004412 0.075496 1.060968
v 0.003843 -0.048173 1.030299
v -0.004550 0.027766 1.018072
v -0.003522 -0.006691 0.924902
v -0.004317 -0.034100 0.900283
v 0.004336 -0.046089 0.970349
v 0.003558 0.025642 0.911430
v -0.003767 0.081283 0.992862
v 0.004420 -0.078316 1.133622
v -0.003595 -0.086313 1.001773
v -0.004035 -0.004863 1.058324
v 0.003357 -0.006586 1.066725
v -0.003491 -0.037884 1.036034
v 0.003374 -0.049775 1.096737
v 0.003683 0.032751 1.038278
v -0.004507 0.033352 1.092810
v -0.004406 0.063657 0.840827
v 0.003546 0.064852 0.738094
v -0.004772 -0.083944 0.704282
v 0.004168 -0.012168 0.793798
v 0.004268 -0.042435 0.820370
v -0.003895 -0.049062 0.745577
v -0.003371 0.032300 0.805681
v -0.003283 0.076622 0.696627
v 0.004504 0.066724 0.443819
v 0.003994 -0.009492 0.511396
v 0.003331 -0.046889 0.535470
v 0.004112 0.036914 0.473385
v 0.004432 0.070574 0.297299
v 0.003559 -0.013383 0.369426
v 0.003808 -0.044347 0.393988
v -0.004069 -0.051440 0.317941
v -0.004591 0.068274 0.279265
v 0.004329 0.062073 0.162009
v -0.003928 -0.012627 0.205925
v 0.003448 0.033782 0.192520
v 0.003470 0.063836 0.027447
v -0.004611 -0.079628 -0.001868
v -0.003406 -0.008739 0.065978
v -0.004606 -0.037403 0.037324
v -0.003364 0.034958 0.095649
v 0.004235 0.073538 -0.131079
v 0.003861 -0.072661 -0.011877
v -0.004434 -0.085527 -0.144789
v 0.004616 -0.010019 -0.058973
v -0.004582 -0.046970 -0.111626
v 0.004383 0.066864 -0.264054
v -0.003397 0.064445 -0.160967
v -0.004619 0.075066 -0.277003
v 0.003352 0.083996 -0.403664
v -0.004486 -0.010375 -0.355704
v 0.003435 -0.051867 -0.310710
v -0.003483 -0.033838 -0.370150
v 0.004149 0.063133 -0.546031
v 0.004719 -0.085640 -0.412310
v 0.004165 -0.050667 -0.450646
v 0.003386 0.027474 -0.511612
v -0.004490 -0.080636 -0.711847
v 0.003705 0.068679 -0.830462
v 0.003528 -0.083370 -0.720432
v -0.004392 -0.087837 -0.857532
v 0.003451 -0.036996 -0.752874
v -0.004093 0.062239 -0.727772
v -0.003529 0.062672 -0.872088
v 0.004455 0.071928 -0.981422
v 0.004331 -0.078046 -0.849041
v -0.003196 -0.075560 -0.965665
v 0.004247 -0.011857 -0.905606
v 0.003511 -0.041593 -0.886718
v 0.003920 0.074204 -1.117259
v 0.004364 -0.087644 -0.982216
v -0.003667 -0.075870 -1.114781
v 0.003575 0.032746 -1.081053
v -0.004715 0.032750 -1.026426
vt 0.571103 0.676685
vt 0.528028 0.453025
vt 0.617010 0.454390
vt 0.680715 0.012195
vt 0.662490 0.012024
vt 0.671703 -0.041852
vt 0.742450 0.012777
vt 0.734882 -0.209139
vt 0.770049 -0.153345
vt 0.530790 -0.155608
vt 0.548045 -0.210908
vt 0.539443 -0.155526
vt 0.522054 -0.211154
vt 0.530718 -0.211072
vt 0.484448 0.452356
vt 0.493740 0.397441
vt 0.519364 0.452892
vt 0.574726 -0.155192
vt 0.592707 -0.210485
vt 0.592702 -0.155022
vt 0.716867 -0.098387
vt 0.716549 0.012533
vt 0.707880 0.012451
vt 0.699352 -0.154014
vt 0.671809 -0.098812
vt 0.699490 -0.209474
vt 0.496097 -0.100472
vt 0.504700 -0.155854
vt 0.522137 -0.155690
vt 0.591356 0.286903
vt 0.590457 0.398782
vt 0.581924 0.343477
vt 0.749600 0.288623
vt 0.741297 0.288533
vt 0.688612 0.287960
vt 0.749345 0.345552
vt 0.724179 0.288347
vt 0.697735 0.288059
vt 0.556831 -0.042936
vt 0.539629 0.010866
vt 0.530937 -0.043181
vt 0.724451 0.234451
vt 0.556709 -0.210826
vt 0.628508 0.011703
vt 0.619553 0.011619
vt 0.619590 -0.042344
vt 0.723333 0.456022
vt 0.758209 0.456557
vt 0.739611 0.678280
vt 0.696790 0.455615
vt 0.687632 0.455474
vt 0.687956 0.400135
vt 0.574780 0.011197
vt 0.592693 -0.042598
vt 0.599012 0.454114
vt 0.609697 0.233370
vt 0.644229 0.287478
vt 0.275289 0.008365
vt 0.494880 0.285854
vt 0.767570 0.456701
vt 0.758446 0.401113
vt 0.767796 0.401242
vt 0.625100 0.677196
vt 0.607101 0.677026
vt 0.589102 0.676855
vt 0.598101 0.676940
vt 0.553104 0.676514
vt 0.544440 0.676432
vt 0.527112 0.676268
vt 0.518449 0.676186
vt 0.508846 0.676095
vt 0.500989 0.676021
vt 0.650714 0.677438
vt 0.563016 0.453562
vt 0.590013 0.453976
vt 0.572015 0.453700
vt 0.581014 0.453838
vt 0.635324 0.344139
vt 0.634547 0.454660
vt 0.643084 0.454791
vt 0.651622 0.454922
vt 0.743217 -0.209060
vt 0.770274 -0.208804
vt 0.760699 -0.153434
vt 0.760058 0.012943
vt 0.750743 0.012855
vt 0.486184 0.285759
vt 0.494303 0.342391
vt 0.510305 0.397670
vt 0.574708 -0.210655
vt 0.698940 0.012367
vt 0.717026 -0.153847
vt 0.725353 0.012616
vt 0.645567 -0.042099
vt 0.637003 0.011783
vt 0.726034 -0.209223
vt 0.637062 -0.042179
vt 0.645640 -0.099060
vt 0.668410 0.677606
vt 0.669317 0.455193
vt 0.496216 -0.043508
vt 0.487643 0.010376
vt 0.496329 0.010457
vt 0.487262 -0.156019
vt 0.495981 -0.155937
vt 0.504595 -0.211319
vt 0.512451 -0.211245
vt 0.512642 -0.100316
vt 0.512740 -0.043352
vt 0.538232 0.286325
vt 0.537709 0.342929
vt 0.529067 0.342822
vt 0.529601 0.286231
vt 0.538727 0.232701
vt 0.503577 0.285949
vt 0.520970 0.286138
vt 0.511404 0.286034
vt 0.495428 0.232292
vt 0.531008 0.010784
vt 0.555969 0.232863
vt 0.556870 0.011028
vt 0.592689 0.011366
vt 0.591788 0.233201
vt 0.554993 0.343143
vt 0.564460 0.286610
vt 0.563970 0.343255
vt 0.563493 0.398408
vt 0.554505 0.398284
vt 0.573878 0.233032
vt 0.582391 0.286805
vt 0.670364 0.287762
vt 0.644598 0.233698
vt 0.688927 0.234116
vt 0.697415 0.344909
vt 0.741549 0.234612
vt 0.759157 0.234778
vt 0.768472 0.234866
vt 0.714485 0.455886
vt 0.741032 0.345449
vt 0.740514 0.456286
vt 0.768021 0.345784
vt 0.909337 0.236194
vt 0.980670 0.015023
vt 1.051103 0.015687
vt 1.050202 0.237522
vt 0.636102 0.233618
vt 0.628705 -0.210144
vt 0.628656 -0.154682
vt 0.619667 -0.154767
vt 0.619629 -0.099305
vt 0.592698 -0.099560
vt 0.610652 -0.099390
vt 0.601675 -0.099475
vt 0.574762 -0.042767
vt 0.583728 -0.042683
vt 0.610706 -0.210315
vt 0.601706 -0.210400
vt 0.731277 0.678201
vt 0.722429 0.678117
vt 0.695884 0.677866
vt 0.766669 0.678536
vt 0.660159 0.455053
vt 0.672015 -0.209734
vt 0.610599 0.011534
vt 0.608854 0.343811
vt 0.608433 0.399032
vt 0.599445 0.398907
vt 0.203620 0.227865
vt 0.417874 0.231154
vn -0.2742 0.9617 -0.0013
vn -1.0000 0.0003 0.0043
vn -1.0000 -0.0069 0.0023
vn -1.0000 0.0036 0.0007
vn -0.9983 -0.0545 0.0192
vn 0.9995 -0.0310 -0.0025
vn -1.0000 0.0044 0.0014
vn -1.0000 -0.0016 -0.0013
vn -0.9996 -0.0271 -0.0121
vn -0.9997 -0.0245 -0.0071
vn 1.0000 0.0027 -0.0003
vn 0.9991 0.0417 -0.0006
vn 1.0000 -0.0004 0.0012
vn -0.8845 -0.4662 -0.0190
vn -1.0000 0.0085 0.0038
vn -0.5826 -0.8127 -0.0099
vn -1.0000 0.0070 0.0030
vn -1.0000 0.0036 -0.0037
vn -0.6838 0.7296 0.0135
vn 0.9992 -0.0360 -0.0152
vn -1.0000 0.0081 0.0021
vn 1.0000 0.0001 -0.0025
vn 0.9951 0.0986 -0.0031
vn 0.9994 -0.0331 -0.0029
vn -0.9978 0.0659 -0.0005
vn 0.9993 0.0373 -0.0028
vn -0.4848 0.8739 0.0364
vn 0.9984 0.0571 -0.0039
vn -0.9981 0.0621 -0.0022
vn 0.7573 0.6501 0.0624
vn -0.9994 0.0344 -0.0022
vn 0.8742 0.4854 -0.0062
vn 0.9031 0.4295 -0.0018
vn 0.9003 0.4342 -0.0314
vn 0.9295 0.3685 0.0153
vn 0.9034 0.4278 -0.0274
vn 0.9952 0.0975 -0.0032
vn 0.7357 0.6772 0.0067
vn 0.9995 0.0327 0.0004
vn -0.9970 0.0779 0.0025
vn 0.9971 0.0756 -0.0054
vn 0.9999 0.0092 0.0054
vn -0.3220 0.9467 -0.0021
vn -0.9990 0.0456 -0.0020
vn -0.2668 0.9637 0.0128
vn -0.9916 0.1293 -0.0001
vn -0.9412 0.3379 0.0010
vn 0.9998 0.0177 0.0066
vn -0.9999 -0.0102 0.0007
vn -1.0000 0.0050 0.0013
vn -0.9999 -0.0107 0.0059
vn -0.9997 -0.0220 -0.0098
vn -1.0000 0.0011 -0.0040
vn 0.9998 -0.0190 -0.0074
vn 1.0000 0.0009 0.0008
vn 0.9997 -0.0184 -0.0140
vn 0.9999 -0.0129 -0.0003
vn -0.9996 0.0268 0.0090
vn -1.0000 -0.0023 0.0043
vn -1.0000 -0.0004 0.0071
vn -0.9988 0.0492 -0.0020
vn -0.9982 0.0600 -0.0042
vn -1.0000 0.0029 -0.0064
vn -0.9977 0.0635 -0.0253
vn -1.0000 0.0039 0.0018
vn -1.0000 0.0094 0.0007
vn -1.0000 -0.0058 0.0014
vn -0.9993 -0.0341 -0.0139
vn -0.9999 -0.0087 -0.0066
vn -0.9999 -0.0106 -0.0061
vn -0.9999 -0.0123 -0.0002
vn -0.9986 -0.0518 -0.0040
vn -0.9993 -0.0373 -0.0087
vn -1.0000 -0.0042 0.0005
vn -1.0000 0.0009 -0.0005
vn -0.8747 0.4842 -0.0209
vn -0.4267 0.8945 -0.1335
vn -0.9992 -0.0393 -0.0023
vn -1.0000 -0.0021 0.0005
vn -0.9999 -0.0083 -0.0121
vn -1.0000 0.0024 -0.0004
vn -1.0000 -0.0060 -0.0019
vn -1.0000 -0.0023 0.0008
vn -0.9999 0.0083 -0.0061
vn -0.9979 0.0652 -0.0039
vn -1.0000 0.0015 -0.0044
vn -1.0000 -0.0085 -0.0041
vn -1.0000 0.0059 0.0007
vn -0.9994 0.0344 -0.0061
vn -1.0000 -0.0081 -0.0037
vn -0.9999 -0.0145 0.0010
vn 0.9989 -0.0474 0.0042
vn 0.9999 -0.0069 -0.0116
vn 1.0000 -0.0042 -0.0018
vn 0.8772 -0.4766 -0.0576
vn 0.9970 -0.0772 0.0055
vn -0.9978 -0.0666 -0.0016
vn 1.0000 0.0079 -0.0033
vn 0.2648 -0.9643 0.0013
vn 0.9903 -0.1388 -0.0050
vn 1.0000 0.0004 0.0002
vn 0.9012 -0.4331 0.0179
vn -0.2718 -0.9623 0.0044
vn -0.9950 -0.0997 0.0009
vn 0.7400 -0.6696 -0.0626
vn 0.6287 -0.7776 -0.0029
vn 0.9997 -0.0226 -0.0075
vn 0.9999 -0.0122 -0.0087
vn -0.9977 -0.0673 0.0008
vn 0.9999 -0.0165 -0.0033
vn 0.9999 -0.0167 -0.0038
vn 0.7902 -0.6124 -0.0223
vn 0.9461 -0.3237 -0.0102
vn 0.9997 -0.0248 -0.0019
vn 0.9999 -0.0083 -0.0071
vn 0.9999 0.0141 -0.0018
vn 0.9998 0.0176 -0.0041
vn 1.0000 -0.0040 -0.0034
vn 1.0000 -0.0049 -0.0029
vn 1.0000 0.0057 -0.0029
vn 1.0000 -0.0062 -0.0011
vn 0.9996 0.0275 0.0035
vn 0.9997 0.0218 0.0054
vn 0.8845 0.4662 0.0190
vn -1.0000 0.0045 0.0053
vn -1.0000 0.0000 0.0024
vn 0.9980 -0.0632 0.0048
vn 1.0000 0.0040 0.0050
vn -0.9992 0.0360 0.0152
vn 1.0000 0.0071 -0.0014
vn 0.9669 0.2550 0.0110
vn 1.0000 -0.0019 0.0007
vn -0.2962 0.9549 0.0191
vn 0.9997 -0.0249 -0.0003
vn 1.0000 -0.0040 0.0011
vn 0.8765 0.4814 0.0087
vn 0.9986 -0.0529 0.0040
vn 0.9997 0.0261 0.0013
vn 0.9998 0.0221 0.0030
vn 1.0000 -0.0022 -0.0014
vn 0.9998 0.0193 -0.0009
vn 0.9799 -0.1306 -0.1508
vn -1.0000 -0.0048 -0.0060
vn -0.9809 0.1215 -0.1520
vn -0.9952 -0.0570 -0.0799
vn -0.9057 0.0463 -0.4213
vn 0.9999 -0.0119 -0.0041
vn 1.0000 -0.0077 -0.0058
vn 1.0000 -0.0066 -0.0032
vn 0.9997 -0.0234 -0.0098
vn -0.9864 -0.0936 -0.1349
vn 1.0000 0.0006 -0.0015
vn 0.9995 -0.0312 -0.0101
vn 0.9999 0.0117 -0.0038
vn 1.0000 -0.0000 -0.0024
vn 1.0000 -0.0045 -0.0053
vn -1.0000 0.0012 0.0013
vn -0.9999 -0.0140 -0.0037
vn -0.9975 -0.0705 0.0041
vn -0.9997 0.0230 0.0067
vn -1.0000 0.0061 0.0005
vn -0.9903 0.1388 0.0050
vn -0.9999 -0.0120 -0.0022
vn -0.9999 0.0116 0.0029
vn -1.0000 0.0067 0.0038
vn -1.0000 0.0059 0.0038
vn -1.0000 0.0061 0.0040
vn -0.2548 -0.9553 0.1503
vn 0.9971 -0.0762 0.0050
vn -0.9741 -0.2259 -0.0029
vn 0.9985 -0.0547 0.0013
vn -0.9980 -0.0639 0.0003
vn 0.9982 -0.0600 0.0042
vn -0.9985 -0.0548 0.0033
vn -0.6867 -0.7265 -0.0229
vn 0.9986 -0.0528 0.0041
vn -0.8947 -0.4467 0.0002
vn -0.3920 -0.9199 0.0113
vn 0.9098 -0.4149 -0.0098
vn -0.8454 -0.5341 0.0038
vn 0.0085 -1.0000 0.0005
vn -0.8440 -0.5363 0.0061
vn -1.0000 -0.0000 0.0004
vn -1.0000 0.0017 -0.0011
vn -0.9995 -0.0304 -0.0004
vn -0.9974 0.0722 -0.0041
vn -1.0000 -0.0023 -0.0045
vn -0.9977 0.0679 -0.0042
vn -0.9999 -0.0117 -0.0056
vn -0.9999 -0.0089 -0.0093
vn -0.9993 -0.0373 0.0028
vn -1.0000 0.0044 0.0015
vn -0.9998 -0.0210 -0.0061
vn -0.9997 -0.0230 -0.0062
vn -0.9999 -0.0100 -0.0050
vn -1.0000 -0.0033 -0.0049
vn -0.9996 -0.0299 0.0015
vn -1.0000 0.0001 -0.0043
vn -0.9994 0.0334 -0.0042
vn -0.9762 0.2168 -0.0055
vn 0.5097 0.8575 0.0698
vn -0.9995 0.0317 -0.0017
vn -0.4720 0.8814 0.0166
vn -0.9114 0.4068 -0.0625
vn -0.7790 0.6270 0.0052
vn -0.5597 0.8286 -0.0108
vn -0.8432 0.5376 -0.0003
vn -0.6303 0.7763 -0.0025
vn -1.0000 0.0002 0.0001
vn 0.7656 0.6391 0.0728
vn -0.9671 0.2514 0.0380
vn 0.2742 0.9579 0.0848
vn -1.0000 -0.0012 -0.0004
vn -1.0000 -0.0050 0.0014
vn 1.0000 -0.0036 0.0037
vn 0.9957 0.0929 0.0037
vn -0.2821 -0.9593 0.0110
vn -0.9999 0.0170 0.0022
vn 1.0000 0.0012 0.0028
vn 0.9996 0.0294 0.0034
vn 0.9996 -0.0293 0.0017
vn 0.9998 -0.0185 0.0045
vn 0.9997 0.0205 0.0096
vn 0.8737 -0.4829 0.0595
vn -1.0000 0.0009 0.0023
vn -1.0000 -0.0027 0.0032
vn -1.0000 -0.0076 0.0032
vn -1.0000 0.0007 0.0004
vn -0.9910 0.1317 0.0225
vn -1.0000 0.0041 0.0023
vn -0.9979 0.0356 0.0539
vn -0.7400 0.6696 0.0626
vn -0.9999 -0.0156 0.0015
vn -0.9822 0.1881 0.0016
vn -1.0000 0.0054 0.0049
vn 1.0000 0.0071 0.0005
vn 0.9999 0.0172 0.0007
vn 0.9985 -0.0550 0.0022
vn -0.9989 -0.0442 -0.0151
vn 0.9997 0.0226 -0.0061
vn 0.9996 -0.0273 0.0036
vn -0.9743 -0.1508 -0.1673
vn 0.7396 -0.6715 -0.0455
vn -0.9957 -0.0929 -0.0037
vn 0.7758 -0.6300 -0.0347
vn 1.0000 -0.0084 -0.0043
vn 1.0000 -0.0032 -0.0011
vn 1.0000 -0.0018 -0.0035
vn -0.9067 -0.4206 -0.0308
vn -0.9988 -0.0497 -0.0045
vn 1.0000 0.0018 -0.0032
vn 1.0000 -0.0032 -0.0029
vn 1.0000 -0.0044 -0.0008
vn -0.9999 0.0038 0.0120
vn -1.0000 -0.0061 0.0007
vn 1.0000 -0.0021 0.0014
vn 0.9961 -0.0880 0.0039
vn 0.9993 0.0364 0.0050
vn 1.0000 -0.0014 -0.0005
vn -0.9826 0.1323 0.1302
vn 0.9989 0.0471 0.0082
vn -0.9610 0.2766 0.0017
vn -0.9998 0.0218 0.0010
vn -1.0000 -0.0023 0.0011
vn 1.0000 0.0023 -0.0008
vn 0.2172 -0.5896 0.7779
vn 0.9988 -0.0483 0.0027
vn 1.0000 0.0086 0.0007
vn -0.9308 0.3654 0.0022
vn -0.9983 0.0583 -0.0038
vn -0.9997 0.0226 0.0075
vn -0.9999 0.0107 0.0071
vn 0.9824 -0.1865 0.0021
vn 0.9998 -0.0196 0.0028
vn 1.0000 -0.0007 0.0012
vn 0.9889 0.1485 0.0051
vn 1.0000 -0.0087 -0.0005
vn 0.9528 0.3037 0.0050
vn 1.0000 -0.0091 0.0010
vn 1.0000 0.0006 0.0003
vn 0.9999 -0.0119 0.0012
vn -0.8738 -0.3236 0.3629
vn -0.9897 0.0986 0.1037
vn -0.9952 -0.0974 0.0042
vn 1.0000 -0.0032 0.0058
usemtl algae_green
s off
f 66/1/1 89/2/1 108/3/1
f 53/4/2 19/5/2 124/6/2
f 138/7/3 17/8/3 36/9/3
f 94/10/4 95/11/4 65/12/4
f 94/10/5 25/13/5 88/14/5
f 3/15/6 86/16/6 26/17/6
f 71/18/7 24/19/7 39/20/7
f 56/21/8 55/22/8 129/23/8
f 37/24/9 122/25/9 11/26/9
f 82/27/10 74/28/10 41/29/10
f 30/30/11 40/31/11 101/32/11
f 60/33/12 140/34/12 127/35/12
f 59/36/13 140/34/13 60/33/13
f 127/35/14 133/37/14 28/38/14
f 29/39/15 62/40/15 93/41/15
f 19/5/16 138/7/16 131/42/16
f 29/39/17 13/43/17 71/18/17
f 7/44/18 109/45/18 111/46/18
f 130/47/19 141/48/19 135/49/19
f 9/50/20 125/51/20 128/52/20
f 7/44/21 69/53/21 31/54/21
f 105/55/22 42/56/22 52/57/22
f 34/58/23 85/59/23 74/28/23
f 2/60/24 144/61/24 33/62/24
f 6/63/25 46/64/25 24/65/25
f 46/64/26 104/66/26 24/65/26
f 24/65/27 66/1/27 6/63/27
f 66/1/28 13/67/28 95/68/28
f 95/68/29 88/69/29 25/70/29
f 79/71/30 72/72/30 3/15/30
f 95/68/31 25/70/31 79/71/31
f 95/68/32 79/71/32 89/2/32
f 79/71/33 3/15/33 89/2/33
f 119/73/34 6/63/34 108/3/34
f 6/63/35 66/1/35 108/3/35
f 66/1/36 95/68/36 89/2/36
f 3/15/37 26/17/37 89/2/37
f 89/2/38 96/74/38 20/75/38
f 96/74/39 67/76/39 100/77/39
f 20/75/40 96/74/40 100/77/40
f 20/75/41 105/55/41 108/3/41
f 108/3/42 116/78/42 113/79/42
f 48/80/43 118/81/43 119/73/43
f 108/3/44 113/79/44 48/80/44
f 108/3/45 48/80/45 119/73/45
f 89/2/46 20/75/46 108/3/46
f 17/8/47 135/82/47 1/83/47
f 36/9/48 145/84/48 138/7/48
f 145/84/49 143/85/49 58/86/49
f 17/8/50 1/83/50 36/9/50
f 58/86/51 138/7/51 145/84/51
f 94/10/52 88/14/52 95/11/52
f 94/10/53 41/29/53 25/13/53
f 3/15/54 27/87/54 83/88/54
f 27/87/55 85/59/55 83/88/55
f 83/88/56 86/16/56 3/15/56
f 86/16/57 78/89/57 26/17/57
f 71/18/58 66/90/58 24/19/58
f 129/23/59 10/91/59 56/21/59
f 10/91/60 37/24/60 56/21/60
f 37/24/61 57/92/61 56/21/61
f 138/7/62 132/93/62 55/22/62
f 55/22/63 56/21/63 138/7/63
f 56/21/64 57/92/64 138/7/64
f 37/24/65 10/91/65 124/6/65
f 10/91/66 53/4/66 124/6/66
f 17/8/67 138/7/67 57/92/67
f 37/24/68 124/6/68 122/25/68
f 124/6/69 19/5/69 51/94/69
f 51/94/70 19/5/70 115/95/70
f 17/8/71 57/92/71 37/24/71
f 134/96/72 17/8/72 37/24/72
f 122/25/73 124/6/73 51/94/73
f 115/95/74 117/97/74 51/94/74
f 51/94/75 50/98/75 122/25/75
f 120/99/76 121/100/76 11/26/76
f 121/100/77 125/51/77 11/26/77
f 11/26/78 134/96/78 37/24/78
f 122/25/79 120/99/79 11/26/79
f 82/27/80 84/101/80 4/102/80
f 84/101/81 81/103/81 4/102/81
f 4/102/82 34/104/82 82/27/82
f 34/104/83 87/105/83 74/28/83
f 74/28/84 72/106/84 41/29/84
f 72/106/85 79/107/85 25/13/85
f 41/29/86 72/106/86 25/13/86
f 41/29/87 94/10/87 75/108/87
f 94/10/88 93/41/88 75/108/88
f 93/41/89 76/109/89 75/108/89
f 75/108/90 82/27/90 41/29/90
f 82/27/91 34/104/91 74/28/91
f 64/110/92 63/111/92 91/112/92
f 64/110/93 91/112/93 92/113/93
f 61/114/94 64/110/94 73/115/94
f 64/110/95 92/113/95 32/116/95
f 32/116/96 77/117/96 73/115/96
f 64/110/97 32/116/97 73/115/97
f 73/115/98 80/118/98 61/114/98
f 80/118/99 4/102/99 61/114/99
f 81/103/100 90/119/100 62/40/100
f 4/102/101 81/103/101 69/53/101
f 61/114/102 4/102/102 14/120/102
f 14/120/103 4/102/103 69/53/103
f 81/103/104 62/40/104 15/121/104
f 69/53/105 22/122/105 21/123/105
f 81/103/106 15/121/106 69/53/106
f 16/124/107 98/125/107 97/126/107
f 99/127/108 38/128/108 16/124/108
f 67/76/109 96/74/109 20/75/109
f 96/74/110 99/127/110 40/31/110
f 20/75/111 100/77/111 67/76/111
f 69/53/112 21/123/112 14/120/112
f 68/129/113 14/120/113 21/123/113
f 40/31/114 20/75/114 96/74/114
f 99/127/115 16/124/115 97/126/115
f 68/129/116 21/123/116 102/130/116
f 21/123/117 30/30/117 102/130/117
f 40/31/118 99/127/118 101/32/118
f 99/127/119 97/126/119 101/32/119
f 101/32/120 102/130/120 30/30/120
f 123/131/121 52/57/121 49/132/121
f 49/132/122 126/133/122 123/131/122
f 126/133/123 127/35/123 123/131/123
f 127/35/124 28/38/124 133/37/124
f 28/38/125 12/134/125 133/37/125
f 133/37/126 131/42/126 127/35/126
f 137/135/127 142/136/127 5/137/127
f 125/51/128 121/100/128 123/131/128
f 9/50/129 128/52/129 125/51/129
f 130/47/130 54/138/130 125/51/130
f 54/138/131 9/50/131 125/51/131
f 139/139/132 136/140/132 125/51/132
f 136/140/133 130/47/133 125/51/133
f 140/34/134 139/139/134 123/131/134
f 125/51/135 123/131/135 139/139/135
f 123/131/136 127/35/136 140/34/136
f 127/35/137 131/42/137 137/135/137
f 137/135/138 5/137/138 60/33/138
f 5/137/139 8/141/139 60/33/139
f 8/141/140 59/36/140 60/33/140
f 137/135/141 60/33/141 127/35/141
f 5/137/142 143/85/142 8/142/142
f 143/85/143 145/84/143 36/143/143
f 36/143/144 1/144/144 33/62/144
f 1/144/145 2/145/145 33/62/145
f 143/85/146 36/143/146 8/142/146
f 144/61/147 141/48/147 136/140/147
f 144/61/148 136/140/148 139/139/148
f 33/62/149 144/61/149 59/36/149
f 144/61/150 139/139/150 59/36/150
f 36/143/151 33/62/151 8/142/151
f 59/36/152 8/142/152 33/62/152
f 59/36/153 139/139/153 140/34/153
f 127/35/154 126/133/154 131/42/154
f 131/42/155 133/37/155 127/35/155
f 133/37/156 12/134/156 28/38/156
f 81/103/157 84/101/157 93/41/157
f 84/101/158 82/27/158 75/108/158
f 93/41/159 84/101/159 76/109/159
f 75/108/160 76/109/160 84/101/160
f 93/41/161 94/10/161 65/12/161
f 90/119/162 81/103/162 62/40/162
f 29/39/163 15/121/163 62/40/163
f 81/103/164 93/41/164 62/40/164
f 93/41/165 65/12/165 29/39/165
f 65/12/166 95/11/166 13/43/166
f 29/39/167 65/12/167 13/43/167
f 49/132/168 114/146/168 7/44/168
f 7/44/169 115/95/169 19/5/169
f 19/5/170 53/4/170 138/7/170
f 53/4/171 10/91/171 138/7/171
f 10/91/172 129/23/172 55/22/172
f 55/22/173 132/93/173 138/7/173
f 138/7/174 58/86/174 143/85/174
f 143/85/175 5/137/175 142/136/175
f 142/136/176 137/135/176 131/42/176
f 131/42/177 126/133/177 49/132/177
f 49/132/178 7/44/178 19/5/178
f 10/91/179 55/22/179 138/7/179
f 138/7/180 143/85/180 142/136/180
f 131/42/181 49/132/181 19/5/181
f 138/7/182 142/136/182 131/42/182
f 6/147/183 35/148/183 112/149/183
f 112/149/184 110/150/184 23/151/184
f 110/150/185 44/152/185 23/151/185
f 44/152/186 106/153/186 23/151/186
f 23/151/187 31/54/187 70/154/187
f 31/54/188 103/155/188 70/154/188
f 70/154/189 69/53/189 15/121/189
f 46/156/190 6/147/190 112/149/190
f 24/19/191 104/157/191 46/156/191
f 39/20/192 24/19/192 46/156/192
f 46/156/193 112/149/193 39/20/193
f 112/149/194 23/151/194 39/20/194
f 70/154/195 15/121/195 29/39/195
f 23/151/196 70/154/196 29/39/196
f 39/20/197 23/151/197 71/18/197
f 71/18/198 23/151/198 29/39/198
f 13/43/199 66/90/199 71/18/199
f 17/158/200 134/159/200 11/160/200
f 11/160/201 125/51/201 9/50/201
f 9/50/202 54/138/202 130/47/202
f 130/47/203 136/140/203 141/48/203
f 141/48/204 2/60/204 1/161/204
f 135/49/205 17/158/205 9/50/205
f 17/158/206 11/160/206 9/50/206
f 141/48/207 1/161/207 135/49/207
f 9/50/208 130/47/208 135/49/208
f 35/148/209 6/147/209 119/73/209
f 119/73/210 118/81/210 121/100/210
f 118/81/211 18/162/211 121/100/211
f 121/100/212 120/163/212 119/73/212
f 120/163/213 122/25/213 50/98/213
f 50/98/183 51/94/183 117/97/183
f 117/97/214 115/95/214 7/44/214
f 7/44/215 111/46/215 109/45/215
f 109/45/216 43/164/216 7/44/216
f 43/164/217 42/56/217 69/53/217
f 7/44/218 43/164/218 69/53/218
f 42/56/219 45/165/219 21/123/219
f 45/165/220 47/166/220 107/167/220
f 107/167/221 105/55/221 40/31/221
f 105/55/222 20/75/222 40/31/222
f 45/165/223 107/167/223 21/123/223
f 69/53/224 42/56/224 21/123/224
f 50/98/225 117/97/225 23/151/225
f 117/97/226 7/44/226 31/54/226
f 23/151/227 117/97/227 31/54/227
f 110/150/228 112/149/228 35/148/228
f 35/148/229 119/73/229 120/163/229
f 120/163/230 50/98/230 23/151/230
f 40/31/231 30/30/231 21/123/231
f 21/123/232 22/122/232 69/53/232
f 69/53/233 70/154/233 103/155/233
f 106/153/234 44/152/234 110/150/234
f 110/150/235 35/148/235 120/163/235
f 107/167/236 40/31/236 21/123/236
f 110/150/237 120/163/237 23/151/237
f 23/151/238 106/153/238 110/150/238
f 103/155/239 31/54/239 69/53/239
f 116/78/240 108/3/240 105/55/240
f 105/55/241 107/167/241 47/166/241
f 47/166/242 45/165/242 42/56/242
f 42/56/243 43/164/243 114/146/243
f 43/164/244 109/45/244 7/44/244
f 114/146/245 43/164/245 7/44/245
f 114/146/246 49/132/246 52/57/246
f 52/57/247 123/131/247 105/55/247
f 123/131/248 121/100/248 48/80/248
f 121/100/249 18/162/249 48/80/249
f 18/162/250 118/81/250 48/80/250
f 48/80/251 113/79/251 116/78/251
f 114/146/252 52/57/252 42/56/252
f 123/131/253 48/80/253 105/55/253
f 105/55/254 47/166/254 42/56/254
f 48/80/255 116/78/255 105/55/255
f 64/110/256 61/114/256 102/130/256
f 61/114/257 14/120/257 68/129/257
f 102/130/258 61/114/258 68/129/258
f 77/117/259 32/116/259 92/113/259
f 4/102/260 80/118/260 85/59/260
f 80/118/261 73/115/261 85/59/261
f 73/115/262 77/117/262 102/130/262
f 77/117/263 92/113/263 102/130/263
f 92/113/264 91/112/264 102/130/264
f 87/105/265 34/58/265 74/28/265
f 34/58/266 4/102/266 85/59/266
f 63/111/267 64/110/267 102/130/267
f 102/130/268 101/32/268 85/59/268
f 73/115/269 102/130/269 85/59/269
f 102/130/270 91/112/270 63/111/270
f 97/126/271 98/125/271 16/124/271
f 97/126/272 16/124/272 38/128/272
f 101/32/273 97/126/273 83/88/273
f 97/126/274 38/128/274 78/89/274
f 97/126/275 78/89/275 83/88/275
f 38/128/276 99/127/276 78/89/276
f 78/89/277 86/16/277 83/88/277
f 96/74/278 89/2/278 26/17/278
f 26/17/279 78/89/279 99/127/279
f 83/88/280 85/59/280 101/32/280
f 99/127/281 96/74/281 26/17/281
f 3/168/282 72/106/282 74/28/282
f 27/169/283 3/168/283 74/28/283
f 85/59/284 27/169/284 74/28/284
f 2/60/285 141/48/285 144/61/285
