# Blender v2.92.0 OBJ File: 'algae.blend'
# www.blender.org
mtllib 24.mtl
o algae_cube_Cube
v -0.004018 0.109986 -2.015892
v -0.004015 0.093512 2.015893
v -0.004083 0.061911 -0.000000
v -0.003855 -0.062968 -0.000000
v -0.003896 -0.047849 -1.007961
v -0.004030 0.100960 -1.007945
v -0.003859 0.070849 1.025216
v -0.004148 -0.049024 1.025181
v -0.004101 -0.054909 -1.511904
v -0.003909 0.109429 -1.511939
v -0.004147 0.082681 -0.486301
v -0.004125 -0.053470 -0.486302
v -0.003895 -0.085544 0.512606
v -0.003860 0.095222 0.512608
v -0.004096 0.070432 1.518656
v -0.003902 -0.047637 1.518691
v 0.004148 -0.007734 0.000000
v 0.003957 -0.011964 -1.008894
v 0.004140 -0.061109 1.026183
v 0.003856 -0.039489 -1.513323
v 0.003918 -0.009207 -0.486763
v 0.003907 -0.005427 0.513077
v 0.004108 -0.003798 1.520126
v 0.004068 0.069451 -1.513361
v 0.003920 -0.028881 0.256539
v 0.004145 0.047673 0.256546
v 0.004143 -0.014548 -0.243388
v 0.003863 0.056712 -0.243380
v 0.003889 -0.006484 -0.747824
v 0.004135 0.062146 -0.747846
v 0.003889 -0.035988 -1.261108
v 0.004146 0.041234 -1.261146
v 0.004124 -0.050103 1.273155
v 0.003927 0.055634 1.273125
v 0.004118 -0.021150 0.769635
v 0.004036 0.031134 0.769628
vt 0.643463 0.399518
vt 0.608433 0.399032
vt 0.627218 0.287293
vt 0.644229 0.287478
vt 0.537200 0.398044
vt 0.538232 0.286325
vt 0.555494 0.286513
vt 0.714776 0.400507
vt 0.678809 0.400008
vt 0.697735 0.288059
vt 0.661241 0.287663
vt 0.572481 0.398533
vt 0.732994 0.288443
vt 0.732449 0.400752
vt 0.573425 0.286708
vt 0.591356 0.286903
vt 0.522054 -0.211154
vt 0.483530 0.675856
vt 0.520970 0.286138
vt 0.592689 0.011366
vt 0.609287 0.287098
vt 0.662490 0.012024
vt 0.628508 0.011703
vt 0.698940 0.012367
vt 0.715365 0.288251
vt 0.556870 0.011028
vt 0.731277 0.678201
vt 1.051103 0.015687
vt 0.679488 0.287861
vt 0.204504 0.007695
vt 0.518449 0.676186
vt 0.522387 0.010703
vt 0.556709 -0.210826
vt 0.734882 -0.209139
vt 0.695884 0.677866
vt 0.592707 -0.210485
vt 0.553104 0.676514
vt 0.770274 -0.208804
vt 0.662857 -0.209821
vt 0.625100 0.677196
vt 0.734157 0.012699
vt 0.699490 -0.209474
vt 0.659252 0.677519
vt 0.766669 0.678536
vt 0.628705 -0.210144
vt 0.589102 0.676855
vn 1.0000 0.0025 -0.0005
vn 1.0000 0.0039 -0.0001
vn 1.0000 0.0019 -0.0000
vn 1.0000 -0.0029 0.0001
vn 1.0000 0.0039 -0.0008
vn 1.0000 0.0015 0.0001
vn 1.0000 -0.0020 -0.0005
vn 1.0000 0.0016 -0.0007
vn 1.0000 -0.0011 0.0005
vn 1.0000 -0.0041 0.0001
vn 0.9939 0.1097 -0.0053
vn 0.9952 -0.0970 0.0089
vn 0.9831 -0.1831 -0.0041
vn 0.9768 -0.2132 0.0200
vn -0.8180 -0.5683 -0.0885
vn 0.9807 0.1957 0.0000
vn 0.9936 0.1103 0.0258
vn 1.0000 -0.0029 0.0003
vn 0.9839 -0.1788 -0.0020
vn -1.0000 -0.0016 0.0002
vn 0.8847 0.4661 0.0008
vn 0.9920 0.1258 0.0024
vn 0.9847 -0.1739 0.0129
vn 0.9886 0.1505 0.0072
vn 0.9897 -0.1434 0.0040
vn 0.9844 -0.1760 -0.0015
vn 1.0000 -0.0036 -0.0001
vn -0.2130 -0.9771 0.0029
vn -1.0000 0.0024 0.0005
vn 0.9999 -0.0020 -0.0162
vn 0.9830 -0.1807 0.0339
vn 0.8901 0.4554 0.0193
vn 0.9855 -0.1693 -0.0074
vn 0.8901 -0.4557 0.0060
vn -1.0000 -0.0018 -0.0002
vn 1.0000 -0.0036 0.0003
vn 0.9637 0.2668 0.0096
vn 1.0000 -0.0033 0.0000
vn -1.0000 -0.0002 -0.0004
vn 0.9953 -0.0969 -0.0068
vn 1.0000 0.0019 -0.0003
vn -1.0000 0.0012 0.0002
vn 0.9769 -0.2136 0.0047
vn 1.0000 0.0016 0.0002
vn -0.8254 -0.5640 0.0251
vn -1.0000 -0.0009 0.0004
vn 0.9806 0.1949 0.0215
vn 1.0000 -0.0029 0.0006
vn 0.8726 -0.4642 -0.1517
vn 0.9839 -0.1788 -0.0048
vn 0.9821 -0.1811 0.0516
vn 0.9671 0.2539 -0.0169
vn 0.8889 -0.4581 0.0062
vn 0.9896 -0.1434 -0.0109
vn -1.0000 0.0002 -0.0005
vn -1.0000 -0.0018 0.0005
vn 0.7649 0.6441 0.0112
vn 0.9866 0.1631 -0.0066
vn 0.9610 0.2762 -0.0132
vn 1.0000 -0.0033 -0.0001
vn 0.9443 0.3292 0.0041
vn 0.9900 0.1411 0.0048
vn -1.0000 -0.0016 -0.0005
vn -1.0000 0.0002 0.0004
vn -1.0000 -0.0009 -0.0003
vn -1.0000 0.0012 -0.0002
vn -1.0000 0.0024 0.0001
vn -1.0000 -0.0002 0.0001
usemtl algae_green
s off
f 28/1/1 26/2/1 17/3/1
f 17/3/2 27/4/2 28/1/2
f 34/5/3 33/6/3 19/7/3
f 32/8/4 30/9/4 18/10/4
f 28/1/5 27/4/5 21/11/5
f 36/12/6 34/5/6 19/7/6
f 32/8/7 20/13/7 24/14/7
f 36/12/8 35/15/8 22/16/8
f 30/9/9 28/1/9 21/11/9
f 26/2/10 36/12/10 22/16/10
f 15/17/11 2/18/11 23/19/11
f 22/16/12 13/20/12 25/21/12
f 12/22/13 27/4/13 4/23/13
f 18/10/14 5/24/14 31/25/14
f 35/15/15 19/7/15 8/26/15
f 10/27/16 24/14/16 1/28/16
f 34/5/17 15/17/17 23/19/17
f 22/16/18 25/21/18 26/2/18
f 21/11/19 12/22/19 29/29/19
f 2/30/20 15/31/20 16/32/20
f 34/5/21 7/33/21 15/31/21
f 32/8/22 10/34/22 6/35/22
f 13/20/23 35/15/23 8/26/23
f 36/12/24 14/36/24 7/37/24
f 17/3/25 4/23/25 27/4/25
f 5/24/26 29/29/26 12/22/26
f 21/11/27 29/29/27 30/9/27
f 8/26/28 33/6/28 16/32/28
f 16/32/29 7/37/29 8/26/29
f 20/13/30 1/38/30 24/14/30
f 23/19/31 16/32/31 33/6/31
f 28/1/32 11/39/32 3/40/32
f 4/23/33 25/21/33 13/20/33
f 9/41/34 31/25/34 5/24/34
f 13/20/35 3/40/35 4/23/35
f 30/9/36 29/29/36 18/10/36
f 30/9/37 6/42/37 11/43/37
f 18/10/38 31/25/38 32/8/38
f 11/43/39 5/24/39 12/22/39
f 13/20/40 22/16/40 35/15/40
f 23/19/41 33/6/41 34/5/41
f 10/27/42 1/44/42 9/41/42
f 5/24/43 18/10/43 29/29/43
f 19/7/44 35/15/44 36/12/44
f 8/26/45 19/7/45 33/6/45
f 6/35/46 9/41/46 5/24/46
f 32/8/47 24/14/47 10/34/47
f 25/21/48 17/3/48 26/2/48
f 20/13/49 9/41/49 1/38/49
f 12/22/50 21/11/50 27/4/50
f 2/18/51 16/32/51 23/19/51
f 26/2/52 3/45/52 14/46/52
f 9/41/53 20/13/53 31/25/53
f 4/23/54 17/3/54 25/21/54
f 8/26/55 14/46/55 13/20/55
f 3/40/56 12/22/56 4/23/56
f 28/1/57 3/45/57 26/2/57
f 32/8/58 6/42/58 30/9/58
f 36/12/59 7/33/59 34/5/59
f 32/8/60 31/25/60 20/13/60
f 30/9/61 11/39/61 28/1/61
f 26/2/62 14/36/62 36/12/62
f 16/32/63 15/31/63 7/37/63
f 13/20/64 14/46/64 3/40/64
f 11/43/65 6/35/65 5/24/65
f 6/35/66 10/27/66 9/41/66
f 8/26/67 7/37/67 14/46/67
f 3/40/68 11/43/68 12/22/68
