# Blender v2.92.0 OBJ File: 'algae.blend'
# www.blender.org
mtllib 43.mtl
o algae_cube_Cube
v -0.004552 0.080203 -0.910114
v -0.002992 0.077012 0.947979
v -0.004403 0.062162 -0.000000
v -0.004639 -0.062172 -0.000000
v -0.004261 -0.057005 -0.458597
v -0.004987 0.075879 -0.449780
v -0.004867 0.064766 0.458959
v -0.004458 -0.057156 0.464007
v -0.004715 -0.058993 -0.679613
v -0.003064 0.083164 -0.709670
v -0.003235 0.072268 -0.227265
v -0.003523 -0.060316 -0.225581
v -0.004004 -0.071940 0.234804
v -0.003761 0.076160 0.236306
v -0.003648 0.066728 0.702176
v -0.004304 -0.056858 0.690169
v 0.004740 -0.028250 0.000000
v 0.004726 -0.030247 -0.567664
v 0.004475 -0.053258 0.574279
v 0.004999 -0.043549 -0.856459
v 0.002992 -0.027867 -0.263730
v 0.003912 -0.026675 0.283663
v 0.004975 -0.026516 0.859840
v 0.004934 0.057106 -0.855270
v 0.003850 -0.037551 0.141641
v 0.003440 0.045250 0.140375
v 0.004001 -0.030984 -0.134819
v 0.004431 0.050494 -0.136077
v 0.003817 -0.027112 -0.412598
v 0.003895 0.052441 -0.413295
v 0.004641 -0.041560 -0.708279
v 0.002997 0.041869 -0.683339
v 0.005000 0.049310 -0.990939
v 0.003889 -0.047464 0.703523
v 0.003238 0.048704 0.693553
v 0.003217 -0.033485 0.419063
v 0.004250 0.038295 0.428621
v 0.003539 -0.030084 0.970044
v 0.003097 -0.076879 -0.886347
v 0.004152 0.014518 -0.907063
v 0.003325 0.011289 -1.028479
vt 0.643463 0.399518
vt 0.608433 0.399032
vt 0.627218 0.287293
vt 0.644229 0.287478
vt 0.537200 0.398044
vt 0.538232 0.286325
vt 0.555494 0.286513
vt 0.714776 0.400507
vt 0.678809 0.400008
vt 0.697735 0.288059
vt 0.661241 0.287663
vt 0.572481 0.398533
vt 0.715365 0.288251
vt 0.732449 0.400752
vt 0.573425 0.286708
vt 0.591356 0.286903
vt 0.592689 0.011366
vt 0.609287 0.287098
vt 0.662490 0.012024
vt 0.628508 0.011703
vt 0.741032 0.345449
vt 0.732994 0.288443
vt 0.698940 0.012367
vt 0.556870 0.011028
vt 0.749097 0.400983
vt 1.051103 0.015687
vt 0.731277 0.678201
vt 0.522054 -0.211154
vt 0.520970 0.286138
vt 0.679488 0.287861
vt 0.204504 0.007695
vt 0.518449 0.676186
vt 0.522387 0.010703
vt 0.556709 -0.210826
vt 0.734882 -0.209139
vt 0.695884 0.677866
vt 0.483530 0.675856
vt 0.592707 -0.210485
vt 0.553104 0.676514
vt 0.758683 0.345668
vt 0.770274 -0.208804
vt 0.662857 -0.209821
vt 0.625100 0.677196
vt 0.734157 0.012699
vt 0.503577 0.285949
vt 0.699490 -0.209474
vt 0.659252 0.677519
vt 0.766669 0.678536
vt 0.741549 0.234612
vt 0.628705 -0.210144
vt 0.589102 0.676855
vn 0.9999 0.0105 0.0038
vn 1.0000 -0.0054 -0.0054
vn 1.0000 0.0072 0.0042
vn 0.9998 0.0175 -0.0040
vn 1.0000 -0.0054 -0.0080
vn 1.0000 0.0080 0.0035
vn 0.9998 0.0159 0.0127
vn 0.9999 -0.0150 0.0044
vn 0.9999 -0.0150 -0.0020
vn 1.0000 0.0010 -0.0028
vn 0.9823 -0.1868 0.0139
vn 0.9666 -0.2562 0.0027
vn 0.9999 0.0008 -0.0158
vn 0.9689 -0.2469 0.0193
vn 0.9110 -0.4081 -0.0594
vn 0.9462 0.3234 -0.0118
vn 0.9453 0.3008 0.1262
vn 1.0000 0.0049 -0.0008
vn 0.9998 -0.0204 0.0017
vn 0.9814 -0.1918 0.0045
vn -1.0000 0.0051 0.0025
vn 0.9329 0.3600 -0.0076
vn 0.9882 0.1524 0.0116
vn 0.9966 0.0819 -0.0061
vn 0.9614 -0.2745 0.0196
vn 0.9522 0.3047 0.0203
vn 0.9638 -0.2665 0.0001
vn 0.9679 -0.2513 -0.0066
vn 1.0000 -0.0009 0.0055
vn 0.7534 -0.6576 0.0004
vn -1.0000 -0.0033 0.0007
vn -0.9476 0.2447 -0.2055
vn 0.6815 -0.7259 0.0926
vn 0.9086 0.4171 0.0232
vn 0.9664 -0.2567 -0.0133
vn 0.8828 -0.4698 0.0024
vn -1.0000 0.0019 0.0028
vn 1.0000 -0.0009 0.0059
vn 0.9522 -0.3053 0.0025
vn 0.9360 0.3521 -0.0017
vn 0.9998 0.0204 -0.0022
vn -1.0000 0.0022 0.0032
vn 0.9857 -0.1687 -0.0034
vn 1.0000 0.0060 -0.0077
vn -0.9999 0.0131 0.0072
vn -0.9981 -0.0511 -0.0333
vn 0.9608 -0.2769 0.0112
vn 0.9999 -0.0131 -0.0098
vn -0.1101 -0.9929 0.0440
vn -0.9999 0.0120 0.0020
vn 0.9992 -0.0383 -0.0058
vn 0.9990 -0.0207 -0.0405
vn 0.9866 0.1610 0.0254
vn 1.0000 0.0051 0.0066
vn -0.9980 -0.0540 0.0331
vn 0.9774 -0.2112 -0.0128
vn 0.9999 -0.0130 -0.0065
vn 0.9123 0.4088 -0.0230
vn 0.9588 0.2836 -0.0194
vn 0.9941 -0.0980 0.0460
vn 0.8867 -0.4622 0.0083
vn 0.9638 -0.2665 -0.0114
vn -1.0000 0.0017 -0.0021
vn -1.0000 0.0019 -0.0049
vn 0.8628 0.5054 0.0127
vn 0.9431 0.3323 -0.0161
vn 0.9420 0.3354 -0.0096
vn 1.0000 0.0006 0.0024
vn 0.9426 0.3340 0.0005
vn 0.9756 0.2194 0.0026
vn 0.9978 0.0640 0.0151
vn -1.0000 0.0048 0.0050
vn -1.0000 0.0016 0.0026
vn -1.0000 -0.0060 0.0078
vn -0.9979 -0.0554 -0.0342
vn -1.0000 -0.0050 -0.0075
vn -1.0000 -0.0036 -0.0052
vn -1.0000 0.0021 -0.0050
usemtl algae_green
s off
f 28/1/1 26/2/1 17/3/1
f 17/3/2 27/4/2 28/1/2
f 35/5/3 34/6/3 19/7/3
f 32/8/4 30/9/4 18/10/4
f 28/1/5 27/4/5 21/11/5
f 37/12/6 35/5/6 19/7/6
f 31/13/7 24/14/7 32/8/7
f 37/12/8 36/15/8 22/16/8
f 30/9/9 28/1/9 21/11/9
f 26/2/10 37/12/10 22/16/10
f 22/16/11 13/17/11 25/18/11
f 12/19/12 27/4/12 4/20/12
f 40/21/13 24/14/13 20/22/13
f 18/10/14 5/23/14 31/13/14
f 36/15/15 19/7/15 8/24/15
f 33/25/16 1/26/16 10/27/16
f 35/5/17 15/28/17 23/29/17
f 22/16/18 25/18/18 26/2/18
f 24/14/19 40/21/19 33/25/19
f 21/11/20 12/19/20 29/30/20
f 2/31/21 15/32/21 16/33/21
f 35/5/22 7/34/22 15/32/22
f 32/8/23 10/35/23 6/36/23
f 2/37/24 23/29/24 15/28/24
f 13/17/25 36/15/25 8/24/25
f 37/12/26 14/38/26 7/39/26
f 17/3/27 4/20/27 27/4/27
f 5/23/28 29/30/28 12/19/28
f 21/11/29 29/30/29 30/9/29
f 8/24/30 34/6/30 16/33/30
f 16/33/31 7/39/31 8/24/31
f 33/25/32 41/40/32 1/41/32
f 23/29/33 16/33/33 34/6/33
f 28/1/34 11/42/34 3/43/34
f 4/20/35 25/18/35 13/17/35
f 9/44/36 31/13/36 5/23/36
f 13/17/37 3/43/37 4/20/37
f 30/9/38 29/30/38 18/10/38
f 16/33/39 23/29/39 38/45/39
f 30/9/40 6/46/40 11/47/40
f 18/10/41 31/13/41 32/8/41
f 11/47/42 5/23/42 12/19/42
f 13/17/43 22/16/43 36/15/43
f 23/29/44 34/6/44 35/5/44
f 10/27/45 1/48/45 9/44/45
f 9/44/46 41/40/46 39/49/46
f 5/23/47 18/10/47 29/30/47
f 19/7/48 36/15/48 37/12/48
f 8/24/49 19/7/49 34/6/49
f 5/23/50 10/27/50 9/44/50
f 33/25/51 40/21/51 41/40/51
f 20/22/52 39/49/52 40/21/52
f 32/8/53 24/14/53 10/35/53
f 25/18/54 17/3/54 26/2/54
f 2/37/55 16/33/55 38/45/55
f 12/19/56 21/11/56 27/4/56
f 41/40/57 40/21/57 39/49/57
f 10/27/58 24/14/58 33/25/58
f 26/2/59 3/50/59 14/51/59
f 39/49/60 20/22/60 9/44/60
f 9/44/61 20/22/61 31/13/61
f 4/20/62 17/3/62 25/18/62
f 8/24/63 14/51/63 13/17/63
f 3/43/64 12/19/64 4/20/64
f 28/1/65 3/50/65 26/2/65
f 32/8/66 6/46/66 30/9/66
f 37/12/67 7/34/67 35/5/67
f 31/13/68 20/22/68 24/14/68
f 30/9/69 11/42/69 28/1/69
f 26/2/70 14/38/70 37/12/70
f 2/37/71 38/45/71 23/29/71
f 16/33/72 15/32/72 7/39/72
f 13/17/73 14/51/73 3/43/73
f 11/47/74 6/36/74 5/23/74
f 9/44/75 1/48/75 41/40/75
f 5/23/76 6/36/76 10/27/76
f 8/24/77 7/39/77 14/51/77
f 3/43/78 11/47/78 12/19/78
