# Blender v2.92.0 OBJ File: 'algae.blend'
# www.blender.org
mtllib 52.mtl
o algae_cube_Cube
v -0.003237 0.136934 -2.041282
v -0.002547 0.106484 2.041282
v -0.005499 0.052297 -0.000000
v -0.003450 -0.054132 -0.000000
v -0.005517 -0.026984 -1.020641
v -0.004542 0.120922 -1.020641
v -0.002486 0.067450 1.038109
v -0.002730 -0.030316 1.038109
v -0.004662 -0.039038 -1.530962
v -0.005175 0.136155 -1.530962
v -0.005242 0.088816 -0.492433
v -0.002600 -0.037422 -0.492433
v -0.002473 -0.093594 0.519054
v -0.004282 0.109894 0.519054
v -0.005480 0.065842 1.537798
v -0.005444 -0.028743 1.537798
v 0.002448 0.015001 0.000000
v 0.005172 0.006849 -1.020641
v 0.003545 -0.077186 1.038109
v 0.002405 -0.040740 -1.530962
v 0.004549 0.012101 -0.492433
v 0.004862 0.019394 0.519054
v 0.002597 0.022448 1.537798
v 0.003347 0.092215 -1.530962
v 0.002435 -0.021649 0.259527
v 0.005097 0.055345 0.259527
v 0.002638 0.003063 -0.246217
v 0.004964 0.070668 -0.246217
v 0.005200 0.016575 -0.756537
v 0.002528 0.080003 -0.756537
v 0.002563 -0.034593 -1.275802
v 0.005372 0.042918 -1.275802
v 0.005342 0.062855 -1.771318
v 0.005361 -0.057573 1.287953
v 0.002805 0.069533 1.287953
v 0.002893 -0.007968 0.778582
v 0.005191 0.027023 0.778582
v 0.005123 0.006771 1.789540
v 0.004896 -0.062392 -1.651140
v 0.002709 0.053199 -1.651140
v 0.002543 0.041923 -1.906300
vt 0.643463 0.399518
vt 0.608433 0.399032
vt 0.627218 0.287293
vt 0.644229 0.287478
vt 0.537200 0.398044
vt 0.538232 0.286325
vt 0.555494 0.286513
vt 0.714776 0.400507
vt 0.678809 0.400008
vt 0.697735 0.288059
vt 0.661241 0.287663
vt 0.572481 0.398533
vt 0.715365 0.288251
vt 0.732449 0.400752
vt 0.573425 0.286708
vt 0.591356 0.286903
vt 0.592689 0.011366
vt 0.609287 0.287098
vt 0.662490 0.012024
vt 0.628508 0.011703
vt 0.741032 0.345449
vt 0.732994 0.288443
vt 0.698940 0.012367
vt 0.556870 0.011028
vt 0.749097 0.400983
vt 1.051103 0.015687
vt 0.731277 0.678201
vt 0.522054 -0.211154
vt 0.520970 0.286138
vt 0.679488 0.287861
vt 0.204504 0.007695
vt 0.518449 0.676186
vt 0.522387 0.010703
vt 0.556709 -0.210826
vt 0.734882 -0.209139
vt 0.695884 0.677866
vt 0.483530 0.675856
vt 0.592707 -0.210485
vt 0.553104 0.676514
vt 0.758683 0.345668
vt 0.770274 -0.208804
vt 0.662857 -0.209821
vt 0.625100 0.677196
vt 0.734157 0.012699
vt 0.589102 0.676855
vt 0.503577 0.285949
vt 0.699490 -0.209474
vt 0.659252 0.677519
vt 0.766669 0.678536
vt 0.741549 0.234612
vt 0.628705 -0.210144
vn 0.9986 -0.0534 -0.0019
vn 0.9994 -0.0344 0.0024
vn 0.9998 0.0201 -0.0088
vn 0.9997 0.0221 0.0039
vn 0.9994 -0.0344 0.0065
vn 1.0000 -0.0034 0.0050
vn 0.9992 -0.0362 -0.0149
vn 0.9979 -0.0655 0.0007
vn 0.9999 0.0121 -0.0046
vn 0.9999 -0.0129 -0.0009
vn 0.9979 -0.0648 0.0009
vn 0.9933 -0.1152 -0.0022
vn 1.0000 -0.0071 -0.0030
vn 0.9528 -0.3010 0.0391
vn -0.9906 -0.1326 -0.0329
vn 0.9916 0.1293 0.0040
vn 0.9825 0.1829 0.0353
vn 0.9994 -0.0346 -0.0039
vn 0.9976 -0.0670 0.0165
vn 0.9897 -0.1429 0.0000
vn -1.0000 -0.0004 0.0059
vn -0.3913 0.9202 0.0006
vn 0.9929 0.1186 0.0023
vn 0.9829 0.1829 -0.0205
vn 0.9948 -0.1012 0.0128
vn 0.9904 0.1378 0.0078
vn 0.9964 -0.0850 0.0049
vn 0.9824 -0.1865 -0.0091
vn 0.9991 0.0421 0.0032
vn -0.9477 -0.3193 -0.0041
vn -1.0000 -0.0004 -0.0054
vn 0.9994 0.0257 -0.0247
vn 0.9861 -0.1549 0.0605
vn -0.0108 0.9972 0.0739
vn 0.9947 -0.1028 -0.0097
vn -0.2024 -0.9790 0.0228
vn -1.0000 -0.0089 0.0012
vn 0.9991 0.0421 -0.0017
vn 0.9877 -0.1551 -0.0196
vn 0.9581 0.2859 0.0186
vn 0.9993 -0.0362 -0.0043
vn -1.0000 0.0066 0.0057
vn 0.9979 -0.0648 0.0007
vn 0.9998 0.0201 0.0046
vn -1.0000 -0.0029 -0.0038
vn -0.9881 -0.1454 -0.0503
vn 0.9535 -0.3012 0.0110
vn 0.9977 -0.0655 -0.0200
vn -0.9910 -0.1327 0.0176
vn -1.0000 0.0066 -0.0018
vn 0.9840 -0.1782 0.0072
vn 0.9997 0.0189 0.0173
vn 0.9813 0.1903 0.0290
vn 0.9994 -0.0346 -0.0048
vn -0.9590 -0.2724 0.0787
vn 0.9897 -0.1429 0.0024
vn 0.9998 0.0189 -0.0015
vn 0.9816 0.1904 -0.0151
vn 0.9315 0.3613 -0.0423
vn -0.2308 -0.9584 0.1679
vn -0.2341 -0.9719 0.0236
vn 0.9963 -0.0850 -0.0120
vn -1.0000 -0.0089 0.0006
vn -0.9998 -0.0193 -0.0024
vn -0.7195 0.6942 0.0212
vn 0.9900 0.1410 -0.0046
vn 0.9453 0.3255 -0.0227
vn 1.0000 -0.0071 -0.0005
vn 0.8339 0.5519 0.0061
vn 0.9907 0.1359 0.0072
vn 0.9961 0.0880 -0.0045
vn -1.0000 0.0025 -0.0060
vn -0.9998 -0.0193 0.0045
vn -0.9998 -0.0209 -0.0026
vn -0.9910 -0.1259 -0.0462
vn -1.0000 -0.0029 0.0012
vn -1.0000 0.0025 0.0037
vn -0.9998 -0.0209 -0.0021
usemtl algae_green
s off
f 28/1/1 26/2/1 17/3/1
f 17/3/2 27/4/2 28/1/2
f 35/5/3 34/6/3 19/7/3
f 32/8/4 30/9/4 18/10/4
f 28/1/5 27/4/5 21/11/5
f 37/12/6 35/5/6 19/7/6
f 31/13/7 24/14/7 32/8/7
f 37/12/8 36/15/8 22/16/8
f 30/9/9 28/1/9 21/11/9
f 26/2/10 37/12/10 22/16/10
f 22/16/11 13/17/11 25/18/11
f 12/19/12 27/4/12 4/20/12
f 40/21/13 24/14/13 20/22/13
f 18/10/14 5/23/14 31/13/14
f 36/15/15 19/7/15 8/24/15
f 33/25/16 1/26/16 10/27/16
f 35/5/17 15/28/17 23/29/17
f 22/16/18 25/18/18 26/2/18
f 24/14/19 40/21/19 33/25/19
f 21/11/20 12/19/20 29/30/20
f 2/31/21 15/32/21 16/33/21
f 35/5/22 7/34/22 15/32/22
f 32/8/23 10/35/23 6/36/23
f 2/37/24 23/29/24 15/28/24
f 13/17/25 36/15/25 8/24/25
f 37/12/26 14/38/26 7/39/26
f 17/3/27 4/20/27 27/4/27
f 5/23/28 29/30/28 12/19/28
f 21/11/29 29/30/29 30/9/29
f 8/24/30 34/6/30 16/33/30
f 15/32/31 8/24/31 16/33/31
f 33/25/32 41/40/32 1/41/32
f 23/29/33 16/33/33 34/6/33
f 28/1/34 11/42/34 3/43/34
f 4/20/35 25/18/35 13/17/35
f 9/44/36 31/13/36 5/23/36
f 14/45/37 4/20/37 13/17/37
f 30/9/38 29/30/38 18/10/38
f 16/33/39 23/29/39 38/46/39
f 30/9/40 6/47/40 11/48/40
f 18/10/41 31/13/41 32/8/41
f 12/19/42 6/36/42 5/23/42
f 13/17/43 22/16/43 36/15/43
f 23/29/44 34/6/44 35/5/44
f 10/27/45 1/49/45 9/44/45
f 9/44/46 41/40/46 39/50/46
f 5/23/47 18/10/47 29/30/47
f 19/7/48 36/15/48 37/12/48
f 8/24/49 19/7/49 34/6/49
f 6/36/50 9/44/50 5/23/50
f 33/25/51 40/21/51 41/40/51
f 20/22/52 39/50/52 40/21/52
f 32/8/53 24/14/53 10/35/53
f 25/18/54 17/3/54 26/2/54
f 2/37/55 16/33/55 38/46/55
f 12/19/56 21/11/56 27/4/56
f 41/40/57 40/21/57 39/50/57
f 10/27/58 24/14/58 33/25/58
f 26/2/59 3/51/59 14/45/59
f 39/50/60 20/22/60 9/44/60
f 9/44/61 20/22/61 31/13/61
f 4/20/62 17/3/62 25/18/62
f 8/24/63 14/45/63 13/17/63
f 3/43/64 12/19/64 4/20/64
f 28/1/65 3/51/65 26/2/65
f 32/8/66 6/47/66 30/9/66
f 37/12/67 7/34/67 35/5/67
f 31/13/68 20/22/68 24/14/68
f 30/9/69 11/42/69 28/1/69
f 26/2/70 14/38/70 37/12/70
f 2/37/71 38/46/71 23/29/71
f 15/32/72 7/39/72 8/24/72
f 14/45/73 3/43/73 4/20/73
f 12/19/74 11/48/74 6/36/74
f 9/44/75 1/49/75 41/40/75
f 6/36/76 10/27/76 9/44/76
f 8/24/77 7/39/77 14/45/77
f 3/43/78 11/48/78 12/19/78
