# Blender v2.92.0 OBJ File: 'algae.blend'
# www.blender.org
mtllib 55.mtl
o algae_cube_Cube
v -0.004474 0.045761 -1.300374
v -0.005644 0.071147 1.300374
v -0.004904 0.083394 -0.000000
v -0.002991 -0.082715 -0.000000
v -0.004242 -0.086520 -0.650187
v -0.002969 0.054553 -0.650187
v -0.004798 0.082703 0.661315
v -0.003187 -0.097649 0.661315
v -0.003104 -0.079457 -0.975281
v -0.003026 0.047765 -0.975281
v -0.004150 0.067874 -0.313699
v -0.004494 -0.086079 -0.313699
v -0.002917 -0.070418 0.330657
v -0.004117 0.063992 0.330657
v -0.004756 0.085429 0.979636
v -0.004952 -0.101502 0.979636
v 0.002963 -0.058300 0.000000
v 0.003574 -0.052024 -0.650187
v 0.003592 -0.025572 0.661315
v 0.004636 -0.034259 -0.975281
v 0.004399 -0.055582 -0.313699
v 0.005344 -0.061728 0.330657
v 0.005020 -0.066694 0.979636
v 0.003866 0.015354 -0.975281
v 0.002869 -0.045441 0.165329
v 0.004973 0.031481 0.165329
v 0.003624 -0.053090 -0.156849
v 0.003071 0.024779 -0.156849
v 0.004934 -0.056298 -0.481943
v 0.003521 0.020650 -0.481943
v 0.004025 -0.036935 -0.812734
v 0.002811 0.032303 -0.812734
v 0.005599 -0.033590 0.820475
v 0.004695 0.027950 0.820475
v 0.005434 -0.052107 0.495986
v 0.005330 0.043632 0.495986
v 0.002541 -0.017856 -1.051839
vt 0.643463 0.399518
vt 0.608433 0.399032
vt 0.627218 0.287293
vt 0.644229 0.287478
vt 0.537200 0.398044
vt 0.538232 0.286325
vt 0.555494 0.286513
vt 0.714776 0.400507
vt 0.678809 0.400008
vt 0.697735 0.288059
vt 0.661241 0.287663
vt 0.572481 0.398533
vt 0.715365 0.288251
vt 0.732449 0.400752
vt 0.573425 0.286708
vt 0.591356 0.286903
vt 0.522054 -0.211154
vt 0.483530 0.675856
vt 0.520970 0.286138
vt 0.592689 0.011366
vt 0.609287 0.287098
vt 0.662490 0.012024
vt 0.628508 0.011703
vt 0.741032 0.345449
vt 0.732994 0.288443
vt 0.698940 0.012367
vt 0.556870 0.011028
vt 0.731277 0.678201
vt 0.679488 0.287861
vt 0.204504 0.007695
vt 0.518449 0.676186
vt 0.522387 0.010703
vt 0.556709 -0.210826
vt 0.734882 -0.209139
vt 0.695884 0.677866
vt 0.592707 -0.210485
vt 0.553104 0.676514
vt 0.662857 -0.209821
vt 0.625100 0.677196
vt 0.734157 0.012699
vt 0.589102 0.676855
vt 0.699490 -0.209474
vt 0.659252 0.677519
vt 0.766669 0.678536
vt 0.628705 -0.210144
vt 0.770274 -0.208804
vt 1.051103 0.015687
vn 0.9999 -0.0120 -0.0057
vn 1.0000 0.0071 0.0044
vn 0.9998 0.0147 -0.0119
vn 1.0000 0.0053 -0.0020
vn 1.0000 0.0071 0.0048
vn 0.9997 -0.0231 0.0008
vn 0.9998 0.0175 0.0047
vn 1.0000 0.0011 -0.0006
vn 0.9999 0.0142 0.0012
vn 1.0000 0.0019 -0.0011
vn 0.9979 0.0641 0.0056
vn 0.7225 -0.6869 -0.0785
vn 0.9734 -0.2290 -0.0022
vn 0.9996 0.0155 -0.0240
vn 0.9751 -0.2209 -0.0178
vn 0.9953 -0.0936 0.0261
vn 0.9973 0.0641 0.0361
vn 0.9995 -0.0273 -0.0177
vn 0.9726 0.2068 -0.1065
vn 0.9600 -0.2799 0.0042
vn -1.0000 0.0011 -0.0027
vn 0.9861 0.1664 -0.0016
vn 0.9557 0.2944 -0.0063
vn 0.9662 -0.2568 -0.0204
vn 0.9497 0.3128 -0.0157
vn 0.9715 -0.2369 -0.0038
vn 0.9551 -0.2962 0.0011
vn 0.9998 0.0184 0.0031
vn 0.9894 -0.1450 0.0037
vn -0.9999 -0.0089 -0.0057
vn 0.9599 -0.2750 -0.0537
vn 0.9890 0.1478 -0.0049
vn 0.9829 -0.1839 0.0066
vn 0.9863 -0.1649 -0.0001
vn -1.0000 -0.0089 0.0006
vn 0.9998 0.0184 -0.0076
vn 0.9851 0.1720 -0.0033
vn 0.9998 0.0175 0.0044
vn -1.0000 0.0090 -0.0008
vn 0.7242 -0.6884 0.0397
vn 0.9999 0.0147 0.0067
vn -1.0000 0.0006 0.0044
vn 0.9752 -0.2210 -0.0135
vn 0.9999 0.0011 0.0110
vn 0.9955 -0.0936 -0.0173
vn -1.0000 0.0006 -0.0035
vn 0.9780 0.2080 -0.0153
vn 0.9996 -0.0273 0.0027
vn 0.9600 -0.2799 0.0092
vn 0.9506 -0.2724 0.1487
vn 0.9756 0.2192 0.0105
vn 0.9805 -0.1822 -0.0743
vn 0.9857 -0.1688 0.0009
vn 0.9713 -0.2369 0.0190
vn -1.0000 -0.0089 -0.0016
vn -1.0000 0.0022 0.0048
vn 0.9873 0.1588 -0.0091
vn 0.9768 0.2140 0.0054
vn 0.9789 0.2039 0.0118
vn 0.9999 0.0155 0.0040
vn 0.9867 0.1628 -0.0007
vn 0.9436 0.3308 -0.0132
vn 0.9959 0.0903 -0.0050
vn -1.0000 0.0011 0.0001
vn -0.9999 -0.0115 0.0017
vn -1.0000 0.0022 -0.0036
vn -1.0000 0.0090 -0.0000
vn 0.9837 -0.1684 -0.0630
vn -0.9999 -0.0115 -0.0018
usemtl algae_green
s off
f 28/1/1 26/2/1 17/3/1
f 17/3/2 27/4/2 28/1/2
f 34/5/3 33/6/3 19/7/3
f 32/8/4 30/9/4 18/10/4
f 28/1/5 27/4/5 21/11/5
f 36/12/6 34/5/6 19/7/6
f 31/13/7 24/14/7 32/8/7
f 36/12/8 35/15/8 22/16/8
f 30/9/9 28/1/9 21/11/9
f 26/2/10 36/12/10 22/16/10
f 15/17/11 2/18/11 23/19/11
f 22/16/12 13/20/12 25/21/12
f 12/22/13 27/4/13 4/23/13
f 37/24/14 24/14/14 20/25/14
f 18/10/15 5/26/15 31/13/15
f 35/15/16 19/7/16 8/27/16
f 34/5/17 15/17/17 23/19/17
f 22/16/18 25/21/18 26/2/18
f 37/24/19 10/28/19 24/14/19
f 21/11/20 12/22/20 29/29/20
f 2/30/21 15/31/21 16/32/21
f 34/5/22 7/33/22 15/31/22
f 32/8/23 10/34/23 6/35/23
f 13/20/24 35/15/24 8/27/24
f 36/12/25 14/36/25 7/37/25
f 17/3/26 4/23/26 27/4/26
f 5/26/27 29/29/27 12/22/27
f 21/11/28 29/29/28 30/9/28
f 8/27/29 33/6/29 16/32/29
f 16/32/30 7/37/30 8/27/30
f 23/19/31 16/32/31 33/6/31
f 28/1/32 11/38/32 3/39/32
f 4/23/33 25/21/33 13/20/33
f 9/40/34 31/13/34 5/26/34
f 14/41/35 4/23/35 13/20/35
f 30/9/36 29/29/36 18/10/36
f 30/9/37 6/42/37 11/43/37
f 18/10/38 31/13/38 32/8/38
f 12/22/39 6/35/39 5/26/39
f 13/20/40 22/16/40 35/15/40
f 23/19/41 33/6/41 34/5/41
f 10/28/42 1/44/42 9/40/42
f 5/26/43 18/10/43 29/29/43
f 19/7/44 35/15/44 36/12/44
f 8/27/45 19/7/45 33/6/45
f 5/26/46 10/28/46 9/40/46
f 32/8/47 24/14/47 10/34/47
f 25/21/48 17/3/48 26/2/48
f 12/22/49 21/11/49 27/4/49
f 2/18/50 16/32/50 23/19/50
f 26/2/51 3/45/51 14/41/51
f 37/24/52 9/40/52 1/46/52
f 9/40/53 20/25/53 31/13/53
f 4/23/54 17/3/54 25/21/54
f 7/37/55 13/20/55 8/27/55
f 4/23/56 11/43/56 12/22/56
f 28/1/57 3/45/57 26/2/57
f 32/8/58 6/42/58 30/9/58
f 36/12/59 7/33/59 34/5/59
f 31/13/60 20/25/60 24/14/60
f 30/9/61 11/38/61 28/1/61
f 26/2/62 14/36/62 36/12/62
f 37/24/63 1/47/63 10/28/63
f 16/32/64 15/31/64 7/37/64
f 14/41/65 3/39/65 4/23/65
f 12/22/66 11/43/66 6/35/66
f 5/26/67 6/35/67 10/28/67
f 37/24/68 20/25/68 9/40/68
f 7/37/55 14/41/55 13/20/55
f 4/23/69 3/39/69 11/43/69
