# Blender v2.92.0 OBJ File: 'algae.blend'
# www.blender.org
mtllib 61.mtl
o algae_cube_Cube
v -0.004429 0.079882 -1.306709
v -0.003087 0.088406 1.046368
v -0.004392 0.069211 -0.124392
v -0.004556 -0.069602 0.129815
v -0.004174 -0.067697 -0.464923
v -0.004877 0.080050 -0.741752
v -0.004779 0.077550 0.439774
v -0.004468 -0.059479 0.699724
v -0.004679 -0.073268 -0.731747
v -0.003187 0.083984 -0.977849
v -0.003320 0.076254 -0.382858
v -0.003613 -0.067667 -0.179744
v -0.003979 -0.076865 0.420125
v -0.003738 0.084731 0.165403
v -0.003691 0.078318 0.755337
v -0.004214 -0.057177 0.973311
v 0.004716 -0.025774 -0.049776
v 0.004612 -0.022924 -0.624583
v 0.004476 -0.051879 0.495954
v 0.004903 -0.031294 -0.935654
v 0.003096 -0.025006 -0.310912
v 0.003844 -0.026845 0.252763
v 0.004856 -0.031418 0.814050
v 0.004813 0.057238 -0.759689
v 0.003843 -0.035375 0.091908
v 0.003514 0.040568 0.205580
v 0.004057 -0.027614 -0.185808
v 0.004349 0.046053 -0.058164
v 0.003762 -0.022577 -0.464516
v 0.003962 0.050175 -0.348746
v 0.004575 -0.031540 -0.785598
v 0.003094 0.042717 -0.669679
v 0.003927 -0.047902 0.655122
v 0.003284 0.040595 0.785291
v 0.003318 -0.033826 0.395990
v 0.004240 0.031477 0.497519
vt 0.643463 0.399518
vt 0.608433 0.399032
vt 0.627218 0.287293
vt 0.644229 0.287478
vt 0.537200 0.398044
vt 0.538232 0.286325
vt 0.555494 0.286513
vt 0.714776 0.400507
vt 0.678809 0.400008
vt 0.697735 0.288059
vt 0.661241 0.287663
vt 0.572481 0.398533
vt 0.715365 0.288251
vt 0.732449 0.400752
vt 0.573425 0.286708
vt 0.591356 0.286903
vt 0.522054 -0.211154
vt 0.483530 0.675856
vt 0.520970 0.286138
vt 0.592689 0.011366
vt 0.609287 0.287098
vt 0.662490 0.012024
vt 0.628508 0.011703
vt 0.698940 0.012367
vt 0.556870 0.011028
vt 0.731277 0.678201
vt 1.051103 0.015687
vt 0.679488 0.287861
vt 0.204504 0.007695
vt 0.518449 0.676186
vt 0.522387 0.010703
vt 0.556709 -0.210826
vt 0.734882 -0.209139
vt 0.695884 0.677866
vt 0.592707 -0.210485
vt 0.553104 0.676514
vt 0.732994 0.288443
vt 0.770274 -0.208804
vt 0.662857 -0.209821
vt 0.625100 0.677196
vt 0.734157 0.012699
vt 0.699490 -0.209474
vt 0.659252 0.677519
vt 0.766669 0.678536
vt 0.628705 -0.210144
vt 0.589102 0.676855
vn 1.0000 0.0055 0.0033
vn 1.0000 0.0045 -0.0049
vn 1.0000 0.0023 0.0034
vn 0.9998 0.0209 -0.0032
vn 0.9999 0.0090 -0.0075
vn 1.0000 0.0028 0.0032
vn 0.9998 -0.0079 0.0178
vn 0.9998 -0.0184 0.0028
vn 0.9999 -0.0123 -0.0015
vn 1.0000 0.0032 -0.0024
vn 0.9972 0.0752 -0.0047
vn 0.9913 -0.1317 0.0070
vn 0.9822 -0.1878 0.0018
vn 0.9865 -0.1633 0.0085
vn -0.9312 -0.3605 -0.0543
vn 0.9716 0.2366 -0.0066
vn -0.9162 0.1312 0.3786
vn 1.0000 0.0047 -0.0003
vn 0.9888 -0.1496 0.0019
vn -1.0000 0.0068 0.0018
vn 0.9839 0.1789 -0.0038
vn 0.9734 0.2286 0.0108
vn 0.9869 -0.1608 0.0117
vn 0.9791 0.2030 0.0090
vn 0.9768 -0.2142 -0.0018
vn 0.9849 -0.1732 -0.0019
vn 0.9999 -0.0094 0.0042
vn 0.8170 -0.5766 0.0041
vn -1.0000 0.0053 0.0009
vn 0.9994 0.0320 -0.0156
vn 0.9730 -0.2302 0.0182
vn 0.9212 0.3889 0.0144
vn 0.9690 -0.2468 -0.0081
vn 0.9770 -0.2133 0.0026
vn -1.0000 0.0051 0.0021
vn 0.9999 -0.0112 0.0053
vn 0.9636 0.2673 -0.0014
vn 0.9998 0.0222 -0.0014
vn -1.0000 0.0048 0.0020
vn 0.9855 -0.1697 -0.0047
vn 0.9998 0.0187 -0.0078
vn -0.9999 0.0151 0.0036
vn 0.9849 -0.1733 0.0056
vn 0.9999 0.0030 -0.0110
vn 0.8386 -0.5445 0.0165
vn -0.9999 0.0121 0.0016
vn -0.5662 0.8154 0.1207
vn 1.0000 -0.0044 0.0059
vn -0.7823 -0.6019 -0.1607
vn 0.9818 -0.1898 -0.0115
vn 0.9981 -0.0335 0.0514
vn 0.9882 0.1528 -0.0104
vn 0.9768 -0.2143 0.0018
vn 0.9683 -0.2497 -0.0110
vn -1.0000 -0.0011 -0.0017
vn -1.0000 -0.0044 -0.0031
vn 0.9249 0.3801 0.0108
vn 0.9807 0.1955 -0.0072
vn 0.9820 0.1888 -0.0027
vn 1.0000 -0.0033 0.0022
vn 0.9623 0.2721 0.0026
vn 0.9864 0.1644 0.0027
vn -1.0000 0.0042 0.0034
vn -1.0000 0.0047 0.0020
vn -1.0000 0.0034 0.0044
vn -0.9998 -0.0188 -0.0075
vn -0.9999 -0.0100 -0.0041
vn -1.0000 -0.0040 -0.0043
usemtl algae_green
s off
f 28/1/1 26/2/1 17/3/1
f 17/3/2 27/4/2 28/1/2
f 34/5/3 33/6/3 19/7/3
f 32/8/4 30/9/4 18/10/4
f 28/1/5 27/4/5 21/11/5
f 36/12/6 34/5/6 19/7/6
f 31/13/7 24/14/7 32/8/7
f 36/12/8 35/15/8 22/16/8
f 30/9/9 28/1/9 21/11/9
f 26/2/10 36/12/10 22/16/10
f 15/17/11 2/18/11 23/19/11
f 22/16/12 13/20/12 25/21/12
f 12/22/13 27/4/13 4/23/13
f 18/10/14 5/24/14 31/13/14
f 35/15/15 19/7/15 8/25/15
f 10/26/16 24/14/16 1/27/16
f 34/5/17 15/17/17 23/19/17
f 22/16/18 25/21/18 26/2/18
f 21/11/19 12/22/19 29/28/19
f 2/29/20 15/30/20 16/31/20
f 34/5/21 7/32/21 15/30/21
f 32/8/22 10/33/22 6/34/22
f 13/20/23 35/15/23 8/25/23
f 36/12/24 14/35/24 7/36/24
f 17/3/25 4/23/25 27/4/25
f 5/24/26 29/28/26 12/22/26
f 21/11/27 29/28/27 30/9/27
f 8/25/28 33/6/28 16/31/28
f 15/30/29 8/25/29 16/31/29
f 20/37/30 1/38/30 24/14/30
f 23/19/31 16/31/31 33/6/31
f 28/1/32 11/39/32 3/40/32
f 4/23/33 25/21/33 13/20/33
f 9/41/34 31/13/34 5/24/34
f 13/20/35 3/40/35 4/23/35
f 30/9/36 29/28/36 18/10/36
f 30/9/37 6/42/37 11/43/37
f 18/10/38 31/13/38 32/8/38
f 11/43/39 5/24/39 12/22/39
f 13/20/40 22/16/40 35/15/40
f 23/19/41 33/6/41 34/5/41
f 10/26/42 1/44/42 9/41/42
f 5/24/43 18/10/43 29/28/43
f 19/7/44 35/15/44 36/12/44
f 8/25/45 19/7/45 33/6/45
f 5/24/46 10/26/46 9/41/46
f 32/8/47 24/14/47 10/33/47
f 25/21/48 17/3/48 26/2/48
f 20/37/49 9/41/49 1/38/49
f 12/22/50 21/11/50 27/4/50
f 2/18/51 16/31/51 23/19/51
f 26/2/52 3/45/52 14/46/52
f 9/41/53 20/37/53 31/13/53
f 4/23/54 17/3/54 25/21/54
f 8/25/55 14/46/55 13/20/55
f 3/40/56 12/22/56 4/23/56
f 28/1/57 3/45/57 26/2/57
f 32/8/58 6/42/58 30/9/58
f 36/12/59 7/32/59 34/5/59
f 31/13/60 20/37/60 24/14/60
f 30/9/61 11/39/61 28/1/61
f 26/2/62 14/35/62 36/12/62
f 15/30/63 7/36/63 8/25/63
f 13/20/64 14/46/64 3/40/64
f 11/43/65 6/34/65 5/24/65
f 5/24/66 6/34/66 10/26/66
f 8/25/67 7/36/67 14/46/67
f 3/40/68 11/43/68 12/22/68
