# Blender v2.92.0 OBJ File: 'algae.blend'
# www.blender.org
mtllib 68.mtl
o algae_cube_Cube
v -0.007154 0.090119 -1.473544
v -0.001638 0.086953 1.624650
v -0.003241 0.061446 -0.000000
v -0.007681 -0.057431 -0.000000
v -0.007889 -0.047022 -0.726703
v -0.006173 0.085484 -0.750202
v -0.007656 0.062792 0.742390
v -0.001397 -0.053665 0.829582
v -0.003440 -0.056121 -1.181461
v -0.002632 0.097282 -1.198070
v -0.000348 0.080510 -0.400448
v -0.000121 -0.058249 -0.401949
v -0.005843 -0.075211 0.383819
v -0.006503 0.081000 0.379220
v -0.001909 0.069253 1.218342
v -0.007895 -0.046873 1.094797
v 0.001783 -0.015130 0.000000
v 0.007494 -0.020181 -0.937410
v 0.001943 -0.057755 0.876119
v 0.007867 -0.044321 -1.413778
v 0.002945 -0.016605 -0.422215
v 0.007863 -0.014583 0.479299
v 0.004920 -0.012598 1.359279
v 0.005838 0.068148 -1.372085
v 0.005138 -0.033670 0.230159
v 0.000608 0.045804 0.214379
v 0.000514 -0.020137 -0.203074
v 0.007779 0.059024 -0.227082
v 0.007753 -0.015481 -0.697472
v 0.000313 0.056832 -0.621933
v 0.006799 -0.040625 -1.159872
v 0.000116 0.040450 -1.045434
v 0.001656 -0.048750 1.082023
v 0.003935 0.054834 1.121415
v 0.000137 -0.025130 0.638216
v 0.003817 0.034604 0.676666
v 0.000266 0.024078 -1.356327
vt 0.643463 0.399518
vt 0.608433 0.399032
vt 0.627218 0.287293
vt 0.644229 0.287478
vt 0.537200 0.398044
vt 0.538232 0.286325
vt 0.555494 0.286513
vt 0.714776 0.400507
vt 0.678809 0.400008
vt 0.697735 0.288059
vt 0.661241 0.287663
vt 0.572481 0.398533
vt 0.715365 0.288251
vt 0.732449 0.400752
vt 0.573425 0.286708
vt 0.591356 0.286903
vt 0.522054 -0.211154
vt 0.483530 0.675856
vt 0.520970 0.286138
vt 0.592689 0.011366
vt 0.609287 0.287098
vt 0.662490 0.012024
vt 0.628508 0.011703
vt 0.741032 0.345449
vt 0.732994 0.288443
vt 0.698940 0.012367
vt 0.556870 0.011028
vt 0.731277 0.678201
vt 0.679488 0.287861
vt 0.204504 0.007695
vt 0.518449 0.676186
vt 0.522387 0.010703
vt 0.556709 -0.210826
vt 0.734882 -0.209139
vt 0.695884 0.677866
vt 0.592707 -0.210485
vt 0.553104 0.676514
vt 0.662857 -0.209821
vt 0.625100 0.677196
vt 0.734157 0.012699
vt 0.699490 -0.209474
vt 0.659252 0.677519
vt 0.766669 0.678536
vt 0.628705 -0.210144
vt 0.589102 0.676855
vt 0.770274 -0.208804
vt 1.051103 0.015687
vn 0.9993 -0.0342 0.0152
vn 0.9957 -0.0926 -0.0039
vn 0.9997 -0.0229 0.0024
vn 0.9937 0.1123 -0.0048
vn 0.9960 -0.0885 0.0096
vn 0.9998 -0.0190 0.0006
vn 0.9984 0.0515 0.0219
vn 0.9952 -0.0887 0.0425
vn 0.9997 -0.0153 -0.0188
vn 0.9950 0.0999 -0.0045
vn 0.9971 0.0763 -0.0040
vn 0.9729 -0.2311 0.0071
vn 0.9932 -0.1153 0.0189
vn -0.9794 0.0544 -0.1943
vn 0.9443 -0.3278 0.0272
vn 0.6050 -0.7882 -0.1127
vn 0.9884 0.1473 0.0377
vn 0.9984 0.0539 -0.0151
vn -0.9926 0.1021 -0.0654
vn 0.9977 -0.0651 0.0172
vn -0.9986 0.0532 -0.0017
vn 0.8815 0.4719 -0.0170
vn 0.9972 0.0747 0.0099
vn 0.9959 -0.0907 -0.0055
vn 0.9414 0.3368 0.0199
vn 0.9759 -0.2183 -0.0007
vn 0.9082 -0.4169 -0.0361
vn 0.9963 0.0840 0.0177
vn -0.1654 -0.9860 0.0212
vn -0.9973 -0.0705 -0.0226
vn -0.0216 -0.9913 0.1295
vn 0.8154 0.5780 0.0334
vn 0.9465 -0.3222 -0.0195
vn 0.8215 -0.5699 0.0194
vn -0.9993 0.0373 0.0065
vn 0.9944 0.1056 -0.0031
vn 0.9870 0.1600 -0.0142
vn 0.9950 0.0993 -0.0122
vn -0.9996 0.0173 0.0245
vn 0.9640 -0.2641 0.0293
vn 0.9998 -0.0184 -0.0094
vn -0.9998 0.0070 0.0162
vn 0.8929 -0.4501 0.0079
vn 0.9985 -0.0520 -0.0147
vn -0.8738 -0.4858 0.0200
vn -0.9999 0.0112 -0.0100
vn 0.9921 0.1225 0.0278
vn 0.9984 0.0549 -0.0101
vn 0.9976 -0.0686 0.0100
vn -0.9550 -0.2846 0.0832
vn 0.9780 0.2086 -0.0023
vn -0.7447 -0.6005 -0.2912
vn 0.8267 -0.5625 0.0117
vn 0.9754 -0.2182 -0.0318
vn -0.9999 -0.0039 0.0102
vn -0.9991 0.0373 -0.0189
vn 0.7824 0.6220 0.0313
vn 0.9822 0.1878 -0.0077
vn 0.9097 0.4148 -0.0191
vn 0.9999 0.0166 0.0040
vn 0.9773 0.2111 -0.0197
vn 0.9785 0.2061 -0.0018
vn 0.9967 0.0793 -0.0184
vn -0.9992 0.0392 0.0115
vn -1.0000 -0.0045 -0.0084
vn -0.9999 -0.0018 0.0166
vn -1.0000 0.0044 -0.0078
vn -0.9964 -0.0671 -0.0519
vn -0.9983 -0.0582 -0.0061
vn -1.0000 -0.0016 -0.0073
usemtl algae_green
s off
f 28/1/1 26/2/1 17/3/1
f 17/3/2 27/4/2 28/1/2
f 34/5/3 33/6/3 19/7/3
f 32/8/4 30/9/4 18/10/4
f 28/1/5 27/4/5 21/11/5
f 36/12/6 34/5/6 19/7/6
f 31/13/7 24/14/7 32/8/7
f 36/12/8 35/15/8 22/16/8
f 30/9/9 28/1/9 21/11/9
f 26/2/10 36/12/10 22/16/10
f 15/17/11 2/18/11 23/19/11
f 22/16/12 13/20/12 25/21/12
f 12/22/13 27/4/13 4/23/13
f 37/24/14 24/14/14 20/25/14
f 18/10/15 5/26/15 31/13/15
f 35/15/16 19/7/16 8/27/16
f 34/5/17 15/17/17 23/19/17
f 22/16/18 25/21/18 26/2/18
f 37/24/19 10/28/19 24/14/19
f 21/11/20 12/22/20 29/29/20
f 2/30/21 15/31/21 16/32/21
f 34/5/22 7/33/22 15/31/22
f 32/8/23 10/34/23 6/35/23
f 13/20/24 35/15/24 8/27/24
f 36/12/25 14/36/25 7/37/25
f 17/3/26 4/23/26 27/4/26
f 5/26/27 29/29/27 12/22/27
f 21/11/28 29/29/28 30/9/28
f 8/27/29 33/6/29 16/32/29
f 16/32/30 7/37/30 8/27/30
f 23/19/31 16/32/31 33/6/31
f 28/1/32 11/38/32 3/39/32
f 4/23/33 25/21/33 13/20/33
f 9/40/34 31/13/34 5/26/34
f 13/20/35 3/39/35 4/23/35
f 30/9/36 29/29/36 18/10/36
f 30/9/37 6/41/37 11/42/37
f 18/10/38 31/13/38 32/8/38
f 12/22/39 6/35/39 5/26/39
f 13/20/40 22/16/40 35/15/40
f 23/19/41 33/6/41 34/5/41
f 10/28/42 1/43/42 9/40/42
f 5/26/43 18/10/43 29/29/43
f 19/7/44 35/15/44 36/12/44
f 8/27/45 19/7/45 33/6/45
f 6/35/46 9/40/46 5/26/46
f 32/8/47 24/14/47 10/34/47
f 25/21/48 17/3/48 26/2/48
f 12/22/49 21/11/49 27/4/49
f 2/18/50 16/32/50 23/19/50
f 26/2/51 3/44/51 14/45/51
f 37/24/52 9/40/52 1/46/52
f 9/40/53 20/25/53 31/13/53
f 4/23/54 17/3/54 25/21/54
f 8/27/55 14/45/55 13/20/55
f 3/39/56 12/22/56 4/23/56
f 28/1/57 3/44/57 26/2/57
f 32/8/58 6/41/58 30/9/58
f 36/12/59 7/33/59 34/5/59
f 31/13/60 20/25/60 24/14/60
f 30/9/61 11/38/61 28/1/61
f 26/2/62 14/36/62 36/12/62
f 37/24/63 1/47/63 10/28/63
f 16/32/64 15/31/64 7/37/64
f 13/20/65 14/45/65 3/39/65
f 12/22/66 11/42/66 6/35/66
f 6/35/67 10/28/67 9/40/67
f 37/24/68 20/25/68 9/40/68
f 8/27/69 7/37/69 14/45/69
f 3/39/70 11/42/70 12/22/70
