# Blender v2.92.0 OBJ File: 'algae.blend'
# www.blender.org
mtllib 75.mtl
o algae_cube_Cube
v -0.004425 0.137259 -1.878380
v -0.001540 0.106317 1.878380
v -0.006334 -0.021665 -1.878380
v -0.005338 -0.055022 1.878380
v -0.006290 0.058245 -0.000000
v -0.002608 -0.057694 -0.000000
v -0.006237 -0.034366 -0.939190
v -0.005647 0.123787 -0.939190
v -0.001593 0.069763 0.955263
v -0.003097 -0.035150 0.955263
v -0.005704 -0.046076 -1.408785
v -0.004214 0.136015 -1.408785
v -0.005948 0.093188 -0.453135
v -0.002530 -0.042172 -0.453135
v -0.001527 -0.093426 0.477632
v -0.003208 0.111109 0.477632
v -0.005960 0.072458 1.415076
v -0.006280 -0.034021 1.415076
v 0.002354 0.009906 0.000000
v 0.006306 0.003240 -0.939190
v 0.004443 -0.070512 0.955263
v 0.001686 -0.039269 -1.408785
v 0.003405 0.007545 -0.453135
v 0.006243 0.012846 0.477632
v 0.003179 0.015809 1.415076
v 0.004570 0.083500 -1.408785
v 0.001734 -0.022800 0.238816
v 0.006001 0.049923 0.238816
v 0.002775 -0.000576 -0.226567
v 0.004657 0.064297 -0.226567
v 0.006343 0.011279 -0.696163
v 0.002488 0.074330 -0.696163
v 0.001960 -0.033730 -1.173988
v 0.006125 0.040368 -1.173988
v 0.005465 0.058060 -1.629959
v 0.006271 -0.052784 1.185169
v 0.001883 0.064764 1.185169
v 0.003043 -0.010651 0.716448
v 0.005583 0.025673 0.716448
v 0.004631 0.001347 1.646728
v 0.002205 0.075240 1.646728
v 0.005751 -0.058359 -1.519372
v 0.001708 0.048082 -1.519372
v 0.001731 0.038055 -1.754170
vt 0.643463 0.399518
vt 0.608433 0.399032
vt 0.627218 0.287293
vt 0.644229 0.287478
vt 0.537200 0.398044
vt 0.538232 0.286325
vt 0.555494 0.286513
vt 0.714776 0.400507
vt 0.678809 0.400008
vt 0.697735 0.288059
vt 0.661241 0.287663
vt 0.572481 0.398533
vt 0.715365 0.288251
vt 0.732449 0.400752
vt 0.573425 0.286708
vt 0.591356 0.286903
vt 0.502458 0.397562
vt 0.503577 0.285949
vt 0.520970 0.286138
vt 0.592689 0.011366
vt 0.609287 0.287098
vt 0.662490 0.012024
vt 0.628508 0.011703
vt 0.741032 0.345449
vt 0.732994 0.288443
vt 0.698940 0.012367
vt 0.556870 0.011028
vt 0.749097 0.400983
vt 1.051103 0.015687
vt 0.731277 0.678201
vt 0.487643 0.010376
vt 0.518449 0.676186
vt 0.522387 0.010703
vt 0.679488 0.287861
vt 0.556709 -0.210826
vt 0.734882 -0.209139
vt 0.695884 0.677866
vt 0.204504 0.007695
vt 0.522054 -0.211154
vt 0.758683 0.345668
vt 0.769373 0.013031
vt 0.766669 0.678536
vt 0.592707 -0.210485
vt 0.553104 0.676514
vt 0.770274 -0.208804
vt 0.741549 0.234612
vt 0.734157 0.012699
vt 0.662857 -0.209821
vt 0.625100 0.677196
vt 0.589102 0.676855
vt 0.699490 -0.209474
vt 0.659252 0.677519
vt 0.628705 -0.210144
vt 0.483530 0.675856
vn 0.9980 -0.0623 -0.0048
vn 0.9996 -0.0290 0.0032
vn 0.9992 0.0373 -0.0108
vn 0.9993 0.0365 0.0050
vn 0.9996 -0.0290 0.0017
vn 1.0000 0.0064 0.0074
vn 0.9983 -0.0561 -0.0169
vn 0.9975 -0.0698 0.0065
vn 1.0000 -0.0033 -0.0047
vn 0.9998 0.0181 0.0018
vn 0.9995 0.0328 -0.0042
vn 0.9973 -0.0729 -0.0079
vn 0.9998 0.0210 -0.0012
vn 0.9942 -0.1076 -0.0035
vn 0.9996 -0.0235 -0.0184
vn 0.9481 -0.3162 0.0322
vn -0.9770 -0.2083 -0.0465
vn 0.9923 0.1235 -0.0001
vn -1.0000 0.0030 0.0022
vn 0.9982 -0.0586 -0.0101
vn 0.9893 -0.1443 0.0206
vn 0.9929 -0.1185 0.0102
vn 0.7464 0.6655 0.0032
vn 0.9924 0.1225 0.0062
vn 0.9211 0.3877 -0.0371
vn 0.9982 -0.0120 -0.0590
vn 0.9949 -0.0993 0.0154
vn 0.9925 0.1223 0.0072
vn 0.9973 -0.0732 0.0052
vn 0.9773 -0.2116 -0.0109
vn 0.9981 0.0610 0.0130
vn -0.8566 -0.5159 -0.0047
vn -1.0000 0.0030 -0.0069
vn 0.9992 0.0203 -0.0333
vn -0.8406 -0.5410 -0.0270
vn 0.9801 -0.1860 0.0687
vn 0.7263 0.6853 0.0534
vn 0.9974 -0.0719 -0.0076
vn 0.6332 -0.7737 0.0200
vn -1.0000 -0.0082 0.0016
vn 0.9981 0.0610 -0.0022
vn 0.9823 -0.1865 -0.0178
vn 0.9717 0.2357 0.0154
vn 0.9984 -0.0561 -0.0096
vn -0.9997 -0.0252 0.0072
vn 0.9973 -0.0729 0.0062
vn 0.9993 0.0373 0.0023
vn 0.9978 -0.0535 -0.0391
vn 0.9486 -0.3164 0.0103
vn 0.9973 -0.0697 -0.0233
vn -0.9777 -0.2085 0.0238
vn -1.0000 0.0082 -0.0013
vn 0.9690 -0.2469 0.0106
vn 0.9982 0.0328 0.0509
vn 0.9988 0.0379 0.0302
vn 0.9860 0.1649 0.0238
vn 0.9983 -0.0586 -0.0054
vn -0.9999 0.0120 0.0005
vn 0.9929 -0.1185 -0.0015
vn 0.9993 0.0380 -0.0015
vn 0.9750 -0.2219 -0.0120
vn 0.9862 0.1650 -0.0150
vn 0.9546 0.2953 -0.0388
vn 0.6697 -0.7273 0.1502
vn 0.6773 -0.7355 0.0166
vn 0.9973 -0.0732 -0.0074
vn -1.0000 -0.0082 -0.0023
vn -0.9995 -0.0317 -0.0013
vn 0.0812 0.9962 0.0305
vn 0.9890 0.1480 -0.0030
vn 0.9768 0.2138 -0.0101
vn 0.9997 -0.0235 -0.0006
vn 0.9293 0.3693 0.0036
vn 0.9925 0.1218 0.0071
vn 0.2954 0.9551 -0.0219
vn -0.9997 0.0235 0.0078
vn -0.9999 0.0143 -0.0096
vn -0.9994 -0.0317 0.0100
vn -1.0000 0.0037 -0.0004
vn -1.0000 0.0037 -0.0030
vn 0.9995 -0.0235 0.0193
vn -1.0000 0.0082 0.0018
vn -0.9999 0.0143 0.0046
vn -0.9997 -0.0252 -0.0027
usemtl algae_green
s off
f 30/1/1 28/2/1 19/3/1
f 19/3/2 29/4/2 30/1/2
f 37/5/3 36/6/3 21/7/3
f 34/8/4 32/9/4 20/10/4
f 30/1/5 29/4/5 23/11/5
f 39/12/6 37/5/6 21/7/6
f 33/13/7 26/14/7 34/8/7
f 39/12/8 38/15/8 24/16/8
f 32/9/9 30/1/9 23/11/9
f 28/2/10 39/12/10 24/16/10
f 41/17/11 40/18/11 25/19/11
f 24/16/12 15/20/12 27/21/12
f 37/5/13 41/17/13 25/19/13
f 14/22/14 29/4/14 6/23/14
f 43/24/15 26/14/15 22/25/15
f 20/10/16 7/26/16 33/13/16
f 38/15/17 21/7/17 10/27/17
f 35/28/18 1/29/18 12/30/18
f 4/31/19 17/32/19 18/33/19
f 24/16/20 27/21/20 28/2/20
f 26/14/21 43/24/21 35/28/21
f 23/11/22 14/22/22 31/34/22
f 37/5/23 9/35/23 17/32/23
f 34/8/24 12/36/24 8/37/24
f 2/38/25 41/17/25 17/39/25
f 44/40/26 3/41/26 1/42/26
f 15/20/27 38/15/27 10/27/27
f 39/12/28 16/43/28 9/44/28
f 19/3/29 6/23/29 29/4/29
f 7/26/30 31/34/30 14/22/30
f 23/11/31 31/34/31 32/9/31
f 10/27/32 36/6/32 18/33/32
f 17/32/33 10/27/33 18/33/33
f 35/28/34 44/40/34 1/45/34
f 3/41/35 42/46/35 11/47/35
f 25/19/36 18/33/36 36/6/36
f 30/1/37 13/48/37 5/49/37
f 6/23/38 27/21/38 15/20/38
f 11/47/39 33/13/39 7/26/39
f 16/50/40 6/23/40 15/20/40
f 32/9/41 31/34/41 20/10/41
f 18/33/42 25/19/42 40/18/42
f 32/9/43 8/51/43 13/52/43
f 20/10/44 33/13/44 34/8/44
f 13/52/45 7/26/45 14/22/45
f 15/20/46 24/16/46 38/15/46
f 25/19/47 36/6/47 37/5/47
f 44/40/48 42/46/48 3/41/48
f 7/26/49 20/10/49 31/34/49
f 21/7/50 38/15/50 39/12/50
f 10/27/51 21/7/51 36/6/51
f 7/26/52 12/30/52 11/47/52
f 35/28/53 43/24/53 44/40/53
f 41/17/54 4/31/54 40/18/54
f 22/25/55 42/46/55 43/24/55
f 34/8/56 26/14/56 12/36/56
f 27/21/57 19/3/57 28/2/57
f 3/41/58 12/30/58 1/42/58
f 14/22/59 23/11/59 29/4/59
f 44/40/60 43/24/60 42/46/60
f 40/18/61 4/31/61 18/33/61
f 12/30/62 26/14/62 35/28/62
f 28/2/63 5/53/63 16/50/63
f 42/46/64 22/25/64 11/47/64
f 11/47/65 22/25/65 33/13/65
f 6/23/66 19/3/66 27/21/66
f 10/27/67 16/50/67 15/20/67
f 5/49/68 14/22/68 6/23/68
f 30/1/69 5/53/69 28/2/69
f 34/8/70 8/51/70 32/9/70
f 39/12/71 9/35/71 37/5/71
f 33/13/72 22/25/72 26/14/72
f 32/9/73 13/48/73 30/1/73
f 28/2/74 16/43/74 39/12/74
f 37/5/75 17/39/75 41/17/75
f 4/31/76 2/38/76 17/32/76
f 17/32/77 9/44/77 10/27/77
f 16/50/78 5/49/78 6/23/78
f 13/52/79 8/37/79 7/26/79
f 7/26/80 8/37/80 12/30/80
f 41/17/81 2/54/81 4/31/81
f 3/41/82 11/47/82 12/30/82
f 10/27/83 9/44/83 16/50/83
f 5/49/84 13/52/84 14/22/84
