# Blender v2.92.0 OBJ File: 'algae.blend'
# www.blender.org
mtllib 77.mtl
o algae_cube_Cube
v -0.003809 0.062356 -1.357313
v -0.003844 0.070817 1.374686
v -0.003897 0.087048 -0.000000
v -0.004163 -0.086506 -0.000000
v -0.004130 -0.094271 -0.717192
v -0.004073 0.066992 -0.683279
v -0.003933 0.082458 0.713097
v -0.004180 -0.093667 0.728576
v -0.004090 -0.090644 -1.068033
v -0.003863 0.062643 -1.018399
v -0.003962 0.076380 -0.334671
v -0.003939 -0.091383 -0.344033
v -0.004121 -0.074911 0.351892
v -0.004004 0.069940 0.349069
v -0.003987 0.082671 1.056753
v -0.004134 -0.094380 1.080831
v 0.004018 -0.057061 0.000000
v 0.003956 -0.054890 -0.671908
v 0.003766 -0.029673 0.666687
v 0.003639 -0.040766 -0.992239
v 0.003713 -0.056305 -0.324763
v 0.003737 -0.058245 0.343192
v 0.003910 -0.059080 1.017910
v 0.003810 0.023786 -0.979564
v 0.003963 -0.046209 0.169131
v 0.003678 0.034961 0.167342
v 0.003804 -0.053565 -0.161822
v 0.003905 0.030322 -0.158196
v 0.003737 -0.057702 -0.499852
v 0.003708 0.027535 -0.485159
v 0.003739 -0.042563 -0.828308
v 0.003914 0.038265 -0.824961
v 0.003830 0.032262 -1.139708
v 0.003622 -0.035320 0.830711
v 0.003774 0.030876 0.827848
v 0.003679 -0.050177 0.509643
v 0.003666 0.043447 0.505938
v 0.003787 -0.054219 1.177100
v 0.004056 -0.084431 -1.138307
v 0.003833 -0.015909 -1.052559
v 0.003601 -0.012596 -1.213857
vt 0.643463 0.399518
vt 0.608433 0.399032
vt 0.627218 0.287293
vt 0.644229 0.287478
vt 0.537200 0.398044
vt 0.538232 0.286325
vt 0.555494 0.286513
vt 0.714776 0.400507
vt 0.678809 0.400008
vt 0.697735 0.288059
vt 0.661241 0.287663
vt 0.572481 0.398533
vt 0.715365 0.288251
vt 0.732449 0.400752
vt 0.573425 0.286708
vt 0.591356 0.286903
vt 0.592689 0.011366
vt 0.609287 0.287098
vt 0.662490 0.012024
vt 0.628508 0.011703
vt 0.741032 0.345449
vt 0.732994 0.288443
vt 0.698940 0.012367
vt 0.556870 0.011028
vt 0.749097 0.400983
vt 1.051103 0.015687
vt 0.731277 0.678201
vt 0.522054 -0.211154
vt 0.520970 0.286138
vt 0.679488 0.287861
vt 0.204504 0.007695
vt 0.518449 0.676186
vt 0.522387 0.010703
vt 0.556709 -0.210826
vt 0.734882 -0.209139
vt 0.695884 0.677866
vt 0.503577 0.285949
vt 0.483530 0.675856
vt 0.592707 -0.210485
vt 0.553104 0.676514
vt 0.758683 0.345668
vt 0.770274 -0.208804
vt 0.662857 -0.209821
vt 0.625100 0.677196
vt 0.734157 0.012699
vt 0.589102 0.676855
vt 0.699490 -0.209474
vt 0.659252 0.677519
vt 0.766669 0.678536
vt 0.741549 0.234612
vt 0.628705 -0.210144
vn 1.0000 0.0025 0.0007
vn 1.0000 -0.0011 -0.0013
vn 1.0000 -0.0023 0.0008
vn 1.0000 0.0015 0.0007
vn 1.0000 -0.0012 -0.0005
vn 1.0000 0.0007 -0.0003
vn 1.0000 -0.0022 -0.0005
vn 1.0000 0.0002 0.0003
vn 1.0000 -0.0011 -0.0006
vn 1.0000 0.0007 0.0000
vn 0.8982 -0.4387 -0.0292
vn 0.9760 -0.2178 0.0037
vn 1.0000 -0.0030 0.0020
vn 0.9829 -0.1836 -0.0158
vn 0.9938 -0.1100 0.0138
vn 0.9694 0.2457 -0.0001
vn 0.9985 0.0494 0.0227
vn 1.0000 0.0036 0.0015
vn 1.0000 0.0003 0.0001
vn 0.9768 -0.2141 0.0018
vn -1.0000 0.0009 0.0005
vn 0.9890 0.1479 0.0001
vn 0.9595 0.2818 -0.0031
vn 0.9983 0.0582 0.0017
vn 0.9723 -0.2335 -0.0115
vn 0.9725 0.2330 -0.0082
vn 0.9635 -0.2677 -0.0071
vn 0.9762 -0.2170 0.0012
vn 0.9913 -0.1318 -0.0004
vn -1.0000 0.0009 0.0001
vn 0.9986 0.0430 -0.0291
vn 0.9577 -0.2854 -0.0377
vn 0.9887 0.1499 -0.0050
vn 0.9738 -0.2273 0.0074
vn 0.9881 -0.1535 -0.0015
vn -1.0000 0.0008 0.0001
vn 1.0000 0.0001 0.0013
vn 0.9777 -0.2100 0.0072
vn 0.9855 0.1698 -0.0049
vn 1.0000 -0.0021 -0.0016
vn -1.0000 0.0002 0.0005
vn 0.9084 -0.4176 0.0206
vn 1.0000 -0.0024 -0.0018
vn -1.0000 0.0015 -0.0002
vn -0.9822 -0.1389 -0.1261
vn 0.9800 -0.1989 -0.0020
vn 1.0000 0.0001 -0.0006
vn 0.9920 -0.1265 -0.0035
vn -1.0000 0.0015 -0.0001
vn 1.0000 -0.0026 -0.0015
vn 1.0000 -0.0005 0.0030
vn 0.9840 0.1771 -0.0172
vn 1.0000 0.0035 0.0001
vn -0.8409 -0.4715 0.2659
vn 0.9767 -0.2147 0.0031
vn 1.0000 0.0049 -0.0013
vn 0.9789 0.2042 0.0109
vn 0.9852 0.1712 0.0087
vn 0.9564 -0.2792 0.0862
vn 0.9887 -0.1498 -0.0022
vn 0.9634 -0.2677 0.0175
vn -1.0000 0.0014 -0.0001
vn -1.0000 -0.0001 -0.0006
vn 0.9902 0.1398 -0.0013
vn 0.9728 0.2315 0.0079
vn 0.9870 0.1607 0.0059
vn 1.0000 -0.0025 -0.0006
vn 0.9869 0.1610 -0.0020
vn 0.9696 0.2446 -0.0061
vn 0.9984 0.0559 -0.0009
vn -1.0000 0.0014 -0.0002
vn -1.0000 -0.0002 0.0003
vn 0.1073 -0.8789 -0.4648
vn -1.0000 0.0005 -0.0006
vn -1.0000 0.0008 0.0002
vn -1.0000 0.0015 0.0001
usemtl algae_green
s off
f 28/1/1 26/2/1 17/3/1
f 17/3/2 27/4/2 28/1/2
f 35/5/3 34/6/3 19/7/3
f 32/8/4 30/9/4 18/10/4
f 28/1/5 27/4/5 21/11/5
f 37/12/6 35/5/6 19/7/6
f 31/13/7 24/14/7 32/8/7
f 37/12/8 36/15/8 22/16/8
f 30/9/9 28/1/9 21/11/9
f 26/2/10 37/12/10 22/16/10
f 22/16/11 13/17/11 25/18/11
f 12/19/12 27/4/12 4/20/12
f 40/21/13 24/14/13 20/22/13
f 18/10/14 5/23/14 31/13/14
f 36/15/15 19/7/15 8/24/15
f 33/25/16 1/26/16 10/27/16
f 35/5/17 15/28/17 23/29/17
f 22/16/18 25/18/18 26/2/18
f 24/14/19 40/21/19 33/25/19
f 21/11/20 12/19/20 29/30/20
f 2/31/21 15/32/21 16/33/21
f 35/5/22 7/34/22 15/32/22
f 32/8/23 10/35/23 6/36/23
f 38/37/24 15/28/24 2/38/24
f 13/17/25 36/15/25 8/24/25
f 37/12/26 14/39/26 7/40/26
f 17/3/27 4/20/27 27/4/27
f 5/23/28 29/30/28 12/19/28
f 21/11/19 29/30/19 30/9/19
f 8/24/29 34/6/29 16/33/29
f 15/32/30 8/24/30 16/33/30
f 33/25/31 41/41/31 1/42/31
f 23/29/32 16/33/32 34/6/32
f 28/1/33 11/43/33 3/44/33
f 4/20/34 25/18/34 13/17/34
f 9/45/35 31/13/35 5/23/35
f 14/46/36 4/20/36 13/17/36
f 30/9/37 29/30/37 18/10/37
f 16/33/38 23/29/38 38/37/38
f 30/9/39 6/47/39 11/48/39
f 18/10/40 31/13/40 32/8/40
f 12/19/41 6/36/41 5/23/41
f 13/17/42 22/16/42 36/15/42
f 23/29/43 34/6/43 35/5/43
f 10/27/44 1/49/44 9/45/44
f 9/45/45 41/41/45 39/50/45
f 5/23/46 18/10/46 29/30/46
f 19/7/47 36/15/47 37/12/47
f 8/24/48 19/7/48 34/6/48
f 5/23/49 10/27/49 9/45/49
f 33/25/50 40/21/50 41/41/50
f 20/22/51 39/50/51 40/21/51
f 32/8/52 24/14/52 10/35/52
f 25/18/53 17/3/53 26/2/53
f 2/38/54 16/33/54 38/37/54
f 12/19/55 21/11/55 27/4/55
f 41/41/56 40/21/56 39/50/56
f 10/27/57 24/14/57 33/25/57
f 26/2/58 3/51/58 14/46/58
f 39/50/59 20/22/59 9/45/59
f 9/45/60 20/22/60 31/13/60
f 4/20/61 17/3/61 25/18/61
f 7/40/62 13/17/62 8/24/62
f 4/20/63 11/48/63 12/19/63
f 28/1/64 3/51/64 26/2/64
f 32/8/65 6/47/65 30/9/65
f 37/12/66 7/34/66 35/5/66
f 31/13/67 20/22/67 24/14/67
f 30/9/68 11/43/68 28/1/68
f 26/2/69 14/39/69 37/12/69
f 38/37/70 23/29/70 15/28/70
f 15/32/71 7/40/71 8/24/71
f 14/46/44 3/44/44 4/20/44
f 12/19/72 11/48/72 6/36/72
f 9/45/73 1/49/73 41/41/73
f 5/23/74 6/36/74 10/27/74
f 7/40/75 14/46/75 13/17/75
f 4/20/76 3/44/76 11/48/76
