# Blender v2.92.0 OBJ File: 'algae.blend'
# www.blender.org
mtllib 79.mtl
o algae_cube_Cube
v -0.002869 0.056443 -2.190720
v 0.002228 0.058199 -2.190720
v -0.005236 -0.075307 -2.190720
v -0.007185 -0.089121 2.190720
v 0.002640 -0.090235 2.190720
v -0.006593 0.079022 -0.000000
v 0.005987 -0.072857 0.000000
v -0.002767 -0.078697 -0.000000
v 0.005780 -0.009280 -2.190720
v 0.006064 0.065990 -1.095360
v 0.001344 0.003235 -1.095360
v -0.006144 -0.004435 -1.095360
v -0.005867 0.080960 1.114106
v -0.001643 0.001149 1.114106
v -0.006415 -0.079242 -0.528483
v -0.005923 -0.003411 0.557053
v -0.001990 0.070873 0.557053
v -0.007086 -0.009781 1.650376
v -0.005721 -0.040506 -2.190720
v -0.004957 -0.042881 -1.095360
v 0.001373 -0.043869 -1.095360
v -0.001657 -0.048759 1.114106
v 0.005438 -0.033505 1.114106
v -0.006141 -0.036621 -0.528483
v -0.006814 -0.045497 0.557053
v 0.005703 0.029036 -2.190720
v -0.006410 0.033986 -0.000000
v 0.004881 0.031882 -1.095360
v -0.005874 0.034455 -1.095360
v -0.005088 0.026144 -1.643040
v 0.006778 0.037507 0.557053
v 0.002425 -0.086711 0.278527
v -0.006689 -0.007664 0.278527
v 0.001709 -0.042122 0.278527
v 0.005107 0.034903 0.278527
v 0.005800 -0.080285 -0.264241
v 0.005778 -0.045227 -0.264241
v 0.005673 0.028578 -0.811921
v 0.004032 0.068599 -1.369200
v 0.002050 -0.001001 -1.369200
v -0.001372 0.005294 -1.369200
v 0.001553 0.033608 -1.369200
v 0.005393 -0.006252 -1.900992
v -0.001324 -0.007658 -1.900992
v 0.005272 -0.038733 -1.900992
v -0.001767 0.028219 -1.900992
v 0.007111 -0.084294 1.382241
v -0.002779 -0.085157 1.382241
v 0.006702 -0.037619 1.382241
v -0.003109 -0.051593 1.382241
v -0.006912 -0.085916 0.835580
v 0.005780 -0.009967 0.835580
v 0.006169 -0.045888 0.835580
v -0.004799 -0.046758 0.835580
v 0.001567 -0.086484 2.055634
v -0.007134 -0.093652 2.055634
v -0.004730 -0.004359 2.055634
v -0.007262 -0.042320 2.055634
v -0.007008 0.036103 1.516309
v -0.006502 0.033659 1.248174
v -0.006907 0.081564 1.248174
v -0.006469 0.072699 0.974843
v -0.001838 -0.010770 0.974843
v 0.006961 -0.047692 0.974843
v -0.002260 0.036885 0.974843
v 0.006561 -0.011188 0.696316
v -0.001548 0.030364 0.696316
v 0.006825 0.040130 0.696316
v 0.003687 0.066084 0.417790
v -0.005265 -0.010399 0.417790
v 0.006372 0.035303 0.417790
v 0.006571 0.066521 0.139263
v 0.006026 -0.079314 0.139263
v -0.001652 -0.079331 0.139263
v -0.006242 -0.007089 0.139263
v 0.001518 -0.000481 0.139263
v -0.001576 -0.037909 0.139263
v 0.001771 -0.046161 0.139263
v -0.006658 0.035726 0.139263
v -0.005948 0.078327 -0.132121
v 0.002855 0.073284 -0.132121
v 0.004728 -0.072584 -0.132121
v -0.002670 -0.082865 -0.132121
v 0.001729 -0.008006 -0.132121
v -0.001652 -0.000508 -0.132121
v -0.001412 -0.044990 -0.132121
v -0.006110 0.030778 -0.132121
v 0.006425 -0.044933 -0.396362
v 0.005795 0.079199 -0.670202
v 0.006223 -0.004148 -0.670202
v 0.005886 -0.047441 -0.670202
v 0.005204 0.031539 -0.670202
v 0.003637 0.062001 -0.953641
v 0.001610 -0.079165 -0.953641
v 0.002650 -0.045755 -0.953641
v 0.006234 0.027880 -0.953641
v -0.001768 0.061082 -0.953641
v 0.006045 -0.074941 -1.506120
v -0.001976 -0.078238 -1.506120
v 0.005990 -0.034191 -1.506120
v -0.005959 0.058709 -1.772016
v -0.005928 -0.068069 -1.772016
v -0.004814 -0.033731 -1.772016
v -0.003962 -0.067150 -2.045856
v -0.005227 -0.039661 -2.045856
v -0.001317 0.029873 -2.045856
v -0.004096 0.057861 -2.045856
vt 0.487643 0.010376
vt 0.496329 0.010457
vt 0.751147 -0.098063
vt 0.767570 0.456701
vt 0.716867 -0.098387
vt 0.979769 0.236858
vt 0.768021 0.345784
vt 0.749345 0.345552
vt 0.760913 -0.208893
vt 0.760699 -0.153434
vt 0.751349 -0.153522
vt 0.734701 -0.153679
vt 0.743217 -0.209060
vt 0.699215 -0.098553
vt 0.699352 -0.154014
vt 0.662490 0.012024
vt 0.662579 -0.041939
vt 0.699074 -0.041594
vt 0.619590 -0.042344
vt 0.637123 -0.099140
vt 0.565737 -0.155277
vt 0.628508 0.011703
vt 0.637003 0.011783
vt 0.619553 0.011619
vt 0.637062 -0.042179
vt 0.628705 -0.210144
vt 0.637243 -0.210063
vt 0.628656 -0.154682
vt 0.637183 -0.154602
vt 0.837902 0.013677
vt 1.051103 0.015687
vt 0.742636 -0.041183
vt 1.050202 0.237522
vt 0.760266 -0.041017
vt 0.724451 0.234451
vt 0.688927 0.234116
vt 0.688612 0.287960
vt 0.714485 0.455886
vt 0.696790 0.455615
vt 0.697102 0.400262
vt 0.619629 -0.099305
vt 0.619667 -0.154767
vt 0.601675 -0.099475
vt 0.610652 -0.099390
vt 0.592693 -0.042598
vt 0.592698 -0.099560
vt 0.539629 0.010866
vt 0.574780 0.011197
vt 0.574762 -0.042767
vt 0.687632 0.455474
vt 0.686726 0.677779
vt 0.669317 0.455193
vt 0.678809 0.400008
vt 0.669663 0.399881
vt 0.670364 0.287762
vt 0.652735 0.287570
vt 0.644229 0.287478
vt 0.644598 0.233698
vt 0.636102 0.233618
vt 0.627607 0.233538
vt 0.618652 0.233454
vt 0.609697 0.233370
vt 0.609287 0.287098
vt 0.618253 0.287195
vt 0.617831 0.343922
vt 0.635324 0.344139
vt 0.590457 0.398782
vt 0.581469 0.398658
vt 0.581924 0.343477
vt 0.599445 0.398907
vt 0.572947 0.343366
vt 0.608433 0.399032
vt 0.687956 0.400135
vt 0.564460 0.286610
vt 0.555494 0.286513
vt 0.538232 0.286325
vt 0.538727 0.232701
vt 0.495428 0.232292
vt 0.486742 0.232211
vt 0.496216 -0.043508
vt 0.496097 -0.100472
vt 0.573425 0.286708
vt 0.670009 0.344569
vt 0.714776 0.400507
vt 0.634547 0.454660
vt 0.617010 0.454390
vt 0.599012 0.454114
vt 0.715066 0.345127
vt 0.697735 0.288059
vt 0.697415 0.344909
vt 0.724179 0.288347
vt 0.749600 0.288623
vt 0.565767 -0.099814
vt 0.539569 -0.043099
vt 0.556789 -0.099899
vt 0.556831 -0.042936
vt 0.592707 -0.210485
vt 0.583714 -0.155107
vt 0.565708 -0.210740
vt 0.548045 -0.210908
vt 0.556709 -0.210826
vt 0.522221 -0.100225
vt 0.530790 -0.155608
vt 0.548096 -0.155444
vt 0.769373 0.013031
vt 0.760058 0.012943
vt 0.725353 0.012616
vt 0.742450 0.012777
vt 0.562103 0.676600
vt 0.553104 0.676514
vt 0.589102 0.676855
vt 0.633638 0.677277
vt 0.757308 0.678448
vt 0.739611 0.678280
vt 0.770274 -0.208804
vt 0.769592 -0.040929
vt 0.767796 0.401242
vn 0.9998 -0.0197 0.0010
vn 0.9988 -0.0483 0.0013
vn -1.0000 -0.0020 -0.0013
vn -0.9951 -0.0988 -0.0042
vn -0.9986 -0.0530 -0.0066
vn -1.0000 0.0070 -0.0015
vn -1.0000 0.0064 -0.0022
vn 0.9998 -0.0173 -0.0027
vn -0.9892 -0.1457 -0.0139
vn 0.6565 -0.7544 0.0024
vn -0.9999 -0.0124 -0.0001
vn 0.9701 0.2427 -0.0069
vn 1.0000 -0.0018 -0.0080
vn -1.0000 -0.0054 -0.0005
vn -1.0000 -0.0041 -0.0049
vn -1.0000 0.0034 -0.0024
vn 0.9996 -0.0294 -0.0017
vn 0.3253 -0.9437 -0.0594
vn 0.9928 0.1194 -0.0041
vn -0.9995 0.0311 -0.0078
vn 0.9994 -0.0347 -0.0077
vn -1.0000 -0.0097 -0.0017
vn -0.7559 -0.6547 -0.0051
vn -0.9998 0.0211 -0.0058
vn 0.9985 -0.0539 -0.0075
vn 0.9972 -0.0739 -0.0075
vn 0.9995 -0.0313 -0.0039
vn -0.9999 -0.0109 -0.0020
vn -0.1673 0.9842 -0.0584
vn -0.9999 0.0124 -0.0036
vn 0.8563 -0.5164 0.0030
vn -1.0000 -0.0007 -0.0081
vn 0.9789 -0.2042 -0.0097
vn -0.9999 -0.0161 0.0000
vn -1.0000 -0.0055 -0.0006
vn 1.0000 -0.0051 -0.0002
vn 0.9999 -0.0122 -0.0027
vn -0.8694 -0.4941 -0.0005
vn 1.0000 0.0014 -0.0004
vn -0.9992 -0.0401 -0.0070
vn -0.9973 -0.0727 -0.0101
vn -0.9953 0.0971 -0.0020
vn 0.6785 -0.7342 -0.0215
vn -0.9999 -0.0172 -0.0002
vn -0.9999 -0.0097 -0.0100
vn 0.9999 -0.0124 -0.0069
vn 0.9971 0.0759 0.0026
vn 0.9912 0.1323 -0.0026
vn -0.9999 -0.0088 -0.0083
vn -0.1126 -0.9933 -0.0267
vn 0.0001 0.0000 -1.0000
vn -0.6790 -0.7318 -0.0583
vn 0.9829 -0.1839 0.0052
vn 0.7733 -0.6340 -0.0126
vn 0.9999 0.0108 -0.0026
vn 0.8184 -0.5746 -0.0103
vn 1.0000 -0.0078 -0.0007
vn -0.9524 -0.3049 0.0005
vn 0.9996 0.0285 -0.0007
vn 0.9996 0.0289 -0.0007
vn 0.9974 -0.0707 -0.0126
vn 0.9928 -0.1189 -0.0166
vn 0.9962 0.0869 -0.0043
vn 0.9998 0.0144 -0.0121
vn -1.0000 -0.0006 -0.0026
vn 1.0000 0.0013 -0.0018
vn -0.9984 -0.0560 -0.0032
vn 0.9968 -0.0799 -0.0100
vn -0.9949 -0.1005 -0.0022
vn 0.9999 -0.0138 -0.0068
vn -0.9991 -0.0419 -0.0031
vn -0.9888 0.1491 -0.0077
vn -0.9929 -0.1183 -0.0155
vn -1.0000 0.0037 -0.0063
vn 0.8666 0.4990 -0.0093
vn 0.9983 -0.0582 -0.0062
vn 0.9997 -0.0242 -0.0033
vn 0.9999 0.0098 -0.0030
vn 1.0000 -0.0003 -0.0014
vn -0.9998 -0.0182 -0.0021
vn 0.9999 0.0089 -0.0061
vn -0.9997 -0.0256 -0.0057
vn 0.9977 -0.0678 -0.0037
vn 0.9900 0.1411 -0.0096
vn 0.9998 -0.0201 -0.0027
vn 0.9896 -0.1439 -0.0067
vn -0.9931 -0.1167 -0.0101
vn -0.9765 0.2152 -0.0085
vn -1.0000 -0.0037 -0.0019
vn -1.0000 -0.0084 -0.0013
vn 0.9987 -0.0501 -0.0009
vn 0.9995 0.0309 -0.0025
vn -0.9930 -0.1167 -0.0168
vn 0.9982 -0.0597 -0.0050
vn 0.2001 -0.9559 -0.2148
vn 0.2049 -0.9788 -0.0014
vn 0.9999 0.0139 -0.0035
vn 0.9989 0.0460 -0.0114
vn 0.9991 -0.0422 -0.0044
vn -0.8935 -0.4487 -0.0192
vn -0.9996 0.0269 -0.0009
vn -0.9993 0.0365 -0.0009
vn -0.9978 -0.0658 0.0038
vn 0.9999 0.0080 -0.0093
vn 0.9993 -0.0324 -0.0161
vn -0.9988 0.0483 -0.0013
vn 0.9999 0.0088 0.0083
vn -0.9912 -0.1323 0.0026
vn -0.9974 0.0717 -0.0024
vn 0.1126 0.9933 0.0267
vn -0.0001 0.0000 1.0000
vn 0.0873 0.9959 0.0251
vn -0.9066 0.4218 0.0106
vn -0.9579 0.2870 0.0059
vn -0.9999 -0.0108 0.0063
vn 0.9993 0.0358 0.0053
vn -1.0000 0.0051 0.0002
vn 1.0000 0.0037 0.0019
vn 0.9765 -0.2152 0.0085
vn 0.9998 0.0182 0.0021
vn -1.0000 0.0003 0.0014
vn 0.9997 0.0256 0.0057
vn 1.0000 0.0089 0.0026
vn 1.0000 -0.0042 0.0027
vn -0.9985 0.0539 0.0075
vn -0.9999 -0.0098 0.0030
vn 1.0000 0.0084 0.0013
vn -0.9999 0.0122 0.0027
vn 1.0000 0.0055 0.0006
vn 0.9999 0.0161 -0.0000
vn -0.2497 0.9673 0.0449
vn -0.9598 -0.2805 0.0086
vn -0.8563 0.5164 -0.0030
vn 1.0000 0.0007 -0.0007
vn 0.9987 0.0506 0.0100
vn 0.9704 0.2403 0.0244
vn 0.9931 0.1167 0.0101
vn -0.9997 0.0211 0.0073
vn -0.9778 -0.2094 0.0059
vn 1.0000 0.0097 0.0017
vn -0.9560 0.2935 -0.0019
vn -1.0000 -0.0065 0.0030
vn -0.9982 0.0597 0.0050
vn 0.9992 0.0394 -0.0011
vn 1.0000 0.0041 0.0049
vn 0.9999 0.0172 0.0002
vn -1.0000 0.0078 0.0007
vn 0.9999 -0.0124 0.0036
vn 0.1673 -0.9842 0.0584
vn -0.9970 -0.0759 0.0122
vn -0.9999 0.0124 -0.0038
vn -0.9994 0.0347 0.0077
vn 0.9524 0.3049 -0.0005
vn 1.0000 -0.0034 0.0024
vn 1.0000 0.0054 0.0005
vn -1.0000 0.0018 0.0080
vn -0.9701 -0.2427 0.0069
vn 1.0000 -0.0064 0.0022
vn 1.0000 -0.0070 0.0015
vn 0.9986 0.0530 0.0066
vn 0.9951 0.0988 0.0042
vn 0.9998 0.0124 0.0130
vn 0.9892 0.1457 0.0139
vn 0.9983 0.0576 0.0070
vn 0.9995 0.0309 0.0037
vn -0.3253 0.9437 0.0594
vn -0.9996 0.0294 0.0017
vn 1.0000 0.0020 0.0013
vn -1.0000 -0.0013 0.0018
vn 0.9995 -0.0311 0.0078
vn 0.9984 0.0560 0.0032
vn 1.0000 0.0006 0.0026
vn -0.9968 0.0799 0.0100
vn 0.9991 0.0419 0.0031
vn 1.0000 -0.0037 0.0063
vn -0.9974 0.0707 0.0126
vn -0.9998 -0.0144 0.0121
vn -0.9996 -0.0285 0.0007
vn -0.9996 -0.0289 0.0007
vn -0.9896 0.1439 0.0067
vn -0.9998 0.0201 0.0027
vn 0.9999 0.0124 0.0014
vn 0.9900 0.1411 0.0016
vn -1.0000 0.0091 0.0008
vn 0.9999 0.0109 0.0020
vn 0.9930 0.1167 0.0168
vn 0.9267 0.3758 0.0080
vn -0.9962 -0.0869 0.0043
vn -0.9928 0.1189 0.0166
vn -0.9955 0.0940 0.0088
vn -0.9993 0.0379 0.0043
vn -0.9999 0.0138 0.0068
vn -0.9996 0.0291 0.0042
vn 0.9040 0.4274 0.0100
vn 0.9888 -0.1491 0.0077
vn 0.9929 0.1183 0.0155
vn -0.2049 0.9786 0.0188
vn 0.9267 0.3758 0.0057
vn -0.2001 0.9559 0.2148
vn -0.9991 0.0422 0.0044
vn -0.9999 -0.0139 0.0035
vn -0.9928 -0.1194 0.0041
vn -0.9989 -0.0460 0.0114
vn 0.8935 0.4487 0.0192
vn -0.9989 -0.0465 0.0009
vn -0.9887 0.1501 0.0021
vn 0.9996 -0.0269 0.0021
vn -0.9992 0.0402 -0.0017
vn -0.9993 0.0324 0.0161
vn -0.9999 -0.0080 0.0093
usemtl algae_green
s off
f 4/1/1 56/2/1 44/3/1
f 2/4/2 41/5/2 44/3/2
f 26/6/3 9/7/3 43/8/3
f 107/9/4 106/10/4 46/11/4
f 30/12/5 101/13/5 107/9/5
f 12/14/6 29/15/6 30/12/6
f 15/16/7 24/17/7 20/18/7
f 77/19/8 20/18/8 85/20/8
f 30/12/9 107/9/9 46/11/9
f 30/12/10 46/11/10 65/21/10
f 46/11/11 44/3/11 65/21/11
f 8/22/12 83/23/12 15/16/12
f 77/19/13 74/24/13 8/22/13
f 85/20/14 86/25/14 77/19/14
f 6/26/15 80/27/15 27/28/15
f 80/27/16 87/29/16 27/28/16
f 19/30/17 1/31/17 103/32/17
f 1/31/18 2/33/18 41/5/18
f 19/30/19 103/32/19 105/34/19
f 98/35/20 94/36/20 95/37/20
f 39/38/21 10/39/21 28/40/21
f 75/41/22 79/42/22 27/28/22
f 70/43/23 33/44/23 75/41/23
f 25/45/24 16/46/24 70/43/24
f 48/47/25 51/48/25 54/49/25
f 54/49/26 25/45/26 70/43/26
f 70/43/27 75/41/27 87/29/27
f 75/41/28 27/28/28 87/29/28
f 93/50/29 97/51/29 89/52/29
f 89/52/30 38/53/30 92/54/30
f 91/55/31 88/56/31 37/57/31
f 37/57/32 36/58/32 82/59/32
f 82/59/33 7/60/33 73/61/33
f 32/62/34 34/63/34 78/64/34
f 78/64/35 76/65/35 84/66/35
f 31/67/36 68/68/36 66/69/36
f 31/67/37 66/69/37 71/70/37
f 66/69/38 52/71/38 43/8/38
f 71/70/39 66/69/39 43/8/39
f 32/62/40 78/64/40 82/59/40
f 78/64/41 84/66/41 37/57/41
f 43/8/42 84/66/42 35/72/42
f 82/59/43 73/61/43 32/62/43
f 91/55/44 37/57/44 43/8/44
f 37/57/45 82/59/45 78/64/45
f 93/50/46 89/52/46 92/54/46
f 96/73/47 93/50/47 92/54/47
f 64/74/48 23/75/48 49/76/48
f 49/76/49 47/77/49 55/78/49
f 55/78/50 5/79/50 4/1/50
f 56/2/51 58/80/51 57/81/51
f 49/76/52 55/78/52 4/1/52
f 64/74/53 49/76/53 4/1/53
f 53/82/54 64/74/54 4/1/54
f 52/71/55 53/82/55 44/3/55
f 53/82/56 4/1/56 44/3/56
f 90/83/57 91/55/57 43/8/57
f 96/73/58 92/54/58 28/40/58
f 92/54/59 90/83/59 43/8/59
f 28/40/60 92/54/60 43/8/60
f 42/84/61 39/38/61 28/40/61
f 81/85/62 72/86/62 35/72/62
f 71/70/63 69/87/63 31/67/63
f 40/88/64 42/84/64 28/40/64
f 21/89/65 11/90/65 40/88/65
f 100/91/66 98/35/66 45/92/66
f 98/35/67 95/37/67 45/92/67
f 95/37/68 21/89/68 40/88/68
f 84/66/69 43/8/69 37/57/69
f 84/66/70 81/85/70 35/72/70
f 95/37/71 40/88/71 45/92/71
f 40/88/72 28/40/72 43/8/72
f 2/33/73 26/6/73 43/8/73
f 43/8/74 45/92/74 40/88/74
f 35/72/75 71/70/75 43/8/75
f 54/49/76 70/43/76 63/93/76
f 65/21/77 70/43/77 87/29/77
f 50/94/78 48/47/78 54/49/78
f 63/93/79 14/95/79 22/96/79
f 17/97/80 67/98/80 65/21/80
f 65/21/81 63/93/81 70/43/81
f 63/93/82 22/96/82 50/94/82
f 54/49/83 63/93/83 50/94/83
f 87/29/84 85/20/84 20/18/84
f 77/19/85 8/22/85 20/18/85
f 8/22/86 15/16/86 20/18/86
f 62/99/87 17/97/87 65/21/87
f 61/100/88 13/101/88 62/99/88
f 18/102/89 59/103/89 60/104/89
f 60/104/90 61/100/90 62/99/90
f 12/14/91 30/12/91 65/21/91
f 12/14/92 65/21/92 20/18/92
f 60/104/93 62/99/93 65/21/93
f 57/81/94 18/102/94 60/104/94
f 2/33/95 43/8/95 44/3/95
f 43/8/96 52/71/96 44/3/96
f 3/105/97 19/30/97 105/34/97
f 105/34/98 104/106/98 3/105/98
f 103/32/99 1/31/99 41/5/99
f 57/81/100 60/104/100 65/21/100
f 56/2/101 57/81/101 44/3/101
f 57/81/102 65/21/102 44/3/102
f 87/29/103 20/18/103 65/21/103
f 41/5/104 99/107/104 103/32/104
f 99/107/105 102/108/105 103/32/105
f 44/3/106 41/5/106 2/33/106
f 55/78/107 47/77/107 49/76/107
f 49/76/108 23/75/108 64/74/108
f 55/78/109 49/76/109 64/74/109
f 4/1/110 5/79/110 55/78/110
f 57/81/111 58/80/111 56/2/111
f 4/1/112 55/78/112 77/19/112
f 55/78/113 64/74/113 53/82/113
f 55/78/114 53/82/114 78/64/114
f 78/64/115 53/82/115 52/71/115
f 52/71/116 66/69/116 71/70/116
f 66/69/117 68/68/117 31/67/117
f 60/104/118 59/103/118 18/102/118
f 62/109/119 13/110/119 61/100/119
f 65/21/120 67/98/120 17/111/120
f 22/96/121 14/95/121 63/93/121
f 22/96/122 63/93/122 50/94/122
f 63/93/123 65/21/123 57/81/123
f 50/94/124 63/93/124 57/81/124
f 51/48/125 48/47/125 54/49/125
f 48/47/126 50/94/126 54/49/126
f 62/109/127 61/100/127 60/104/127
f 66/69/128 31/67/128 71/70/128
f 84/66/129 76/65/129 78/64/129
f 78/64/130 34/63/130 32/62/130
f 32/62/131 73/61/131 7/60/131
f 7/60/132 82/59/132 36/58/132
f 37/57/133 88/56/133 91/55/133
f 7/60/134 36/58/134 37/57/134
f 78/64/135 32/62/135 37/57/135
f 32/62/136 7/60/136 37/57/136
f 65/21/137 17/111/137 62/109/137
f 16/46/138 25/45/138 54/49/138
f 33/44/139 70/43/139 16/46/139
f 27/28/140 79/42/140 75/41/140
f 75/41/141 33/44/141 16/46/141
f 16/46/142 54/49/142 50/94/142
f 60/104/143 18/102/143 57/81/143
f 75/41/144 16/46/144 50/94/144
f 80/112/145 6/26/145 27/28/145
f 37/57/146 91/55/146 43/8/146
f 91/55/147 90/83/147 43/8/147
f 92/54/148 38/53/148 89/52/148
f 89/52/149 97/51/149 93/50/149
f 89/52/150 93/50/150 96/73/150
f 92/54/151 89/52/151 96/73/151
f 28/40/152 10/39/152 39/38/152
f 92/54/153 96/73/153 28/40/153
f 87/29/154 80/112/154 27/28/154
f 77/19/155 86/25/155 85/20/155
f 8/22/156 74/24/156 77/19/156
f 15/16/157 83/23/157 8/22/157
f 20/18/158 24/17/158 15/16/158
f 30/12/159 29/15/159 12/14/159
f 107/113/160 101/114/160 30/12/160
f 46/11/161 106/10/161 107/113/161
f 44/3/162 46/11/162 30/12/162
f 46/11/163 107/113/163 30/12/163
f 44/3/164 30/12/164 20/18/164
f 30/12/165 12/14/165 20/18/165
f 2/4/166 1/115/166 41/5/166
f 1/115/167 19/116/167 103/32/167
f 43/8/168 9/7/168 26/117/168
f 98/35/169 100/91/169 45/92/169
f 94/36/170 98/35/170 95/37/170
f 98/35/171 45/92/171 95/37/171
f 11/90/172 21/89/172 40/88/172
f 21/89/173 95/37/173 40/88/173
f 95/37/174 45/92/174 40/88/174
f 45/92/175 43/8/175 40/88/175
f 39/38/176 42/84/176 28/40/176
f 42/84/177 40/88/177 28/40/177
f 90/83/178 92/54/178 43/8/178
f 92/54/179 28/40/179 43/8/179
f 15/16/180 8/22/180 20/18/180
f 8/22/181 77/19/181 20/18/181
f 77/19/182 85/20/182 57/81/182
f 85/20/183 87/29/183 57/81/183
f 57/81/184 87/29/184 75/41/184
f 87/29/185 27/28/185 75/41/185
f 65/21/186 62/109/186 60/104/186
f 55/78/187 78/64/187 77/19/187
f 31/67/188 69/87/188 71/70/188
f 35/72/189 72/86/189 81/85/189
f 52/71/190 71/70/190 35/72/190
f 84/66/191 52/71/191 35/72/191
f 35/72/192 81/85/192 84/66/192
f 52/71/193 84/66/193 78/64/193
f 78/64/194 37/57/194 43/8/194
f 28/40/195 40/88/195 43/8/195
f 43/8/196 26/117/196 2/4/196
f 78/64/197 43/8/197 44/3/197
f 78/64/198 44/3/198 77/19/198
f 43/8/199 2/4/199 44/3/199
f 1/115/200 103/32/200 41/5/200
f 19/116/201 3/105/201 105/34/201
f 103/32/202 19/116/202 105/34/202
f 3/105/203 104/106/203 105/34/203
f 65/21/204 60/104/204 57/81/204
f 75/41/205 50/94/205 57/81/205
f 44/3/206 20/18/206 77/19/206
f 77/19/207 57/81/207 56/2/207
f 77/19/208 56/2/208 4/1/208
f 102/108/209 99/107/209 103/32/209
f 99/107/210 41/5/210 103/32/210
