# Blender v2.92.0 OBJ File: 'algae.blend'
# www.blender.org
mtllib 90.mtl
o algae_cube_Cube
v -0.003835 0.061258 -2.342728
v -0.004207 0.067722 2.320926
v -0.004967 0.080122 -0.000000
v -0.003378 -0.079708 -0.000000
v -0.003692 -0.085640 -1.419091
v -0.002191 0.064800 -1.165392
v -0.004387 0.076615 1.165069
v -0.004168 -0.085178 1.442585
v -0.004738 -0.082869 -2.121628
v -0.004467 0.061477 -1.756492
v -0.003595 0.071972 -0.556436
v -0.006160 -0.083434 -0.682880
v -0.002768 -0.070849 0.709004
v -0.002713 0.067052 0.590737
v -0.003793 0.076778 1.725456
v -0.003657 -0.085723 2.138353
v 0.002791 -0.050587 0.000000
v 0.002780 -0.048928 -1.357181
v 0.004476 -0.029663 1.347363
v 0.005834 -0.038138 -2.008476
v 0.005971 -0.050009 -0.655684
v 0.005186 -0.051491 0.692402
v 0.003238 -0.052130 2.052995
v 0.002720 0.024982 -1.848809
v 0.002639 -0.042297 0.342258
v 0.004587 0.033519 0.309747
v 0.005114 -0.047916 -0.326990
v 0.002302 0.029975 -0.295303
v 0.005152 -0.051077 -1.008678
v 0.004679 0.027846 -0.910024
v 0.004881 -0.039510 -1.676623
v 0.002476 0.036043 -1.517357
v 0.003424 0.031457 -2.120115
v 0.005718 -0.033978 1.680818
v 0.003369 0.030398 1.543824
v 0.005685 -0.045328 1.030674
v 0.005025 0.040002 0.920902
v 0.003995 -0.078123 -2.275223
v 0.003444 -0.012154 -2.095251
vt 0.643463 0.399518
vt 0.608433 0.399032
vt 0.627218 0.287293
vt 0.644229 0.287478
vt 0.537200 0.398044
vt 0.538232 0.286325
vt 0.555494 0.286513
vt 0.714776 0.400507
vt 0.678809 0.400008
vt 0.697735 0.288059
vt 0.661241 0.287663
vt 0.572481 0.398533
vt 0.715365 0.288251
vt 0.732449 0.400752
vt 0.573425 0.286708
vt 0.591356 0.286903
vt 0.522054 -0.211154
vt 0.483530 0.675856
vt 0.520970 0.286138
vt 0.592689 0.011366
vt 0.609287 0.287098
vt 0.662490 0.012024
vt 0.628508 0.011703
vt 0.741032 0.345449
vt 0.732994 0.288443
vt 0.698940 0.012367
vt 0.556870 0.011028
vt 0.749097 0.400983
vt 1.051103 0.015687
vt 0.731277 0.678201
vt 0.679488 0.287861
vt 0.204504 0.007695
vt 0.518449 0.676186
vt 0.522387 0.010703
vt 0.556709 -0.210826
vt 0.734882 -0.209139
vt 0.695884 0.677866
vt 0.592707 -0.210485
vt 0.553104 0.676514
vt 0.662857 -0.209821
vt 0.625100 0.677196
vt 0.734157 0.012699
vt 0.589102 0.676855
vt 0.699490 -0.209474
vt 0.659252 0.677519
vt 0.766669 0.678536
vt 0.770274 -0.208804
vt 0.741549 0.234612
vt 0.628705 -0.210144
vn 1.0000 -0.0076 -0.0037
vn 0.9994 0.0331 0.0074
vn 0.9996 0.0294 -0.0033
vn 1.0000 -0.0033 -0.0037
vn 0.9994 0.0351 0.0024
vn 1.0000 0.0093 0.0028
vn 0.9995 0.0326 -0.0004
vn 1.0000 0.0057 -0.0016
vn 0.9996 0.0289 0.0038
vn 1.0000 0.0036 -0.0008
vn 0.9983 0.0585 0.0016
vn 0.9196 -0.3924 -0.0170
vn 0.9598 -0.2808 -0.0024
vn 0.9977 0.0676 -0.0073
vn 0.9844 -0.1757 0.0013
vn 0.9906 -0.1362 0.0105
vn 0.9699 0.2434 0.0010
vn 0.9955 0.0934 0.0154
vn 0.9995 -0.0291 -0.0080
vn 1.0000 0.0020 0.0026
vn 0.9403 -0.3403 -0.0012
vn -1.0000 -0.0027 -0.0007
vn 0.9876 0.1568 -0.0011
vn 0.9756 0.2194 -0.0050
vn 0.9617 -0.2742 -0.0035
vn 0.9661 0.2582 -0.0015
vn 0.9783 -0.2072 0.0053
vn 0.9561 -0.2931 0.0041
vn 1.0000 0.0089 -0.0023
vn 0.9826 -0.1857 -0.0009
vn -1.0000 0.0010 0.0007
vn 0.9777 -0.2102 -0.0037
vn 0.9900 0.1413 0.0004
vn 0.9854 -0.1702 0.0013
vn 0.9809 -0.1947 -0.0022
vn -1.0000 0.0011 0.0008
vn 0.9999 0.0144 -0.0067
vn 0.9830 0.1835 0.0001
vn 0.9998 0.0169 0.0071
vn -0.9998 0.0193 -0.0034
vn 0.9266 -0.3760 0.0055
vn 0.9984 0.0564 0.0094
vn -1.0000 0.0046 -0.0011
vn 0.9869 -0.1610 -0.0077
vn 0.9999 0.0119 0.0032
vn 0.9865 -0.1635 -0.0058
vn -1.0000 -0.0019 0.0015
vn 0.9987 0.0489 -0.0149
vn 0.9989 0.0459 -0.0138
vn 0.9780 0.2084 -0.0062
vn 0.9997 -0.0252 0.0011
vn -0.9947 -0.0845 -0.0592
vn 0.9388 -0.3445 0.0046
vn 0.9965 -0.0628 0.0558
vn 0.9842 0.1767 0.0068
vn 0.9785 0.2061 0.0008
vn 0.9422 -0.3322 0.0433
vn 0.9721 -0.2344 0.0018
vn 0.9783 -0.2072 0.0055
vn -1.0000 -0.0048 -0.0020
vn -0.9999 0.0132 0.0040
vn 0.9853 0.1706 -0.0047
vn 0.9846 0.1747 -0.0012
vn 0.9772 0.2121 0.0059
vn 0.9991 0.0416 0.0030
vn 0.9873 0.1589 0.0033
vn 0.9711 0.2385 -0.0032
vn -1.0000 0.0005 0.0011
vn -0.9999 -0.0099 0.0036
vn -0.9999 0.0141 -0.0025
vn -1.0000 0.0035 0.0038
vn 0.9992 -0.0196 -0.0352
vn -1.0000 -0.0021 -0.0029
vn -0.9999 -0.0099 -0.0023
usemtl algae_green
s off
f 28/1/1 26/2/1 17/3/1
f 17/3/2 27/4/2 28/1/2
f 35/5/3 34/6/3 19/7/3
f 32/8/4 30/9/4 18/10/4
f 28/1/5 27/4/5 21/11/5
f 37/12/6 35/5/6 19/7/6
f 31/13/7 24/14/7 32/8/7
f 37/12/8 36/15/8 22/16/8
f 30/9/9 28/1/9 21/11/9
f 26/2/10 37/12/10 22/16/10
f 15/17/11 2/18/11 23/19/11
f 22/16/12 13/20/12 25/21/12
f 12/22/13 27/4/13 4/23/13
f 39/24/14 24/14/14 20/25/14
f 18/10/15 5/26/15 31/13/15
f 36/15/16 19/7/16 8/27/16
f 33/28/17 1/29/17 10/30/17
f 35/5/18 15/17/18 23/19/18
f 22/16/19 25/21/19 26/2/19
f 24/14/20 39/24/20 33/28/20
f 21/11/21 12/22/21 29/31/21
f 2/32/22 15/33/22 16/34/22
f 35/5/23 7/35/23 15/33/23
f 32/8/24 10/36/24 6/37/24
f 13/20/25 36/15/25 8/27/25
f 37/12/26 14/38/26 7/39/26
f 17/3/27 4/23/27 27/4/27
f 5/26/28 29/31/28 12/22/28
f 21/11/29 29/31/29 30/9/29
f 8/27/30 34/6/30 16/34/30
f 15/33/31 8/27/31 16/34/31
f 23/19/32 16/34/32 34/6/32
f 28/1/33 11/40/33 3/41/33
f 4/23/34 25/21/34 13/20/34
f 9/42/35 31/13/35 5/26/35
f 14/43/36 4/23/36 13/20/36
f 30/9/37 29/31/37 18/10/37
f 30/9/38 6/44/38 11/45/38
f 18/10/39 31/13/39 32/8/39
f 11/45/40 5/26/40 12/22/40
f 13/20/41 22/16/41 36/15/41
f 23/19/42 34/6/42 35/5/42
f 10/30/43 1/46/43 9/42/43
f 5/26/44 18/10/44 29/31/44
f 19/7/45 36/15/45 37/12/45
f 8/27/46 19/7/46 34/6/46
f 5/26/47 10/30/47 9/42/47
f 1/47/48 39/24/48 38/48/48
f 20/25/49 38/48/49 39/24/49
f 32/8/50 24/14/50 10/36/50
f 25/21/51 17/3/51 26/2/51
f 9/42/52 1/46/52 38/48/52
f 12/22/53 21/11/53 27/4/53
f 2/18/54 16/34/54 23/19/54
f 10/30/55 24/14/55 33/28/55
f 26/2/56 3/49/56 14/43/56
f 38/48/57 20/25/57 9/42/57
f 9/42/58 20/25/58 31/13/58
f 4/23/59 17/3/59 25/21/59
f 7/39/60 13/20/60 8/27/60
f 4/23/61 11/45/61 12/22/61
f 28/1/62 3/49/62 26/2/62
f 32/8/63 6/44/63 30/9/63
f 37/12/64 7/35/64 35/5/64
f 31/13/65 20/25/65 24/14/65
f 30/9/66 11/40/66 28/1/66
f 26/2/67 14/38/67 37/12/67
f 15/33/68 7/39/68 8/27/68
f 14/43/69 3/41/69 4/23/69
f 11/45/70 6/37/70 5/26/70
f 5/26/71 6/37/71 10/30/71
f 1/47/72 33/28/72 39/24/72
f 7/39/73 14/43/73 13/20/73
f 4/23/74 3/41/74 11/45/74
