# Blender v2.92.0 OBJ File: 'algae.blend'
# www.blender.org
mtllib 93.mtl
o algae_cube_Cube
v -0.004484 0.070122 -0.907185
v -0.004380 0.069185 0.909421
v -0.003532 0.068405 -0.000000
v -0.003936 -0.067834 -0.000000
v -0.004469 -0.065969 -0.453756
v -0.003933 0.070427 -0.459541
v -0.003594 0.068921 0.471128
v -0.003455 -0.067641 0.472654
v -0.003458 -0.068042 -0.697004
v -0.003771 0.071274 -0.691935
v -0.004264 0.068644 -0.219991
v -0.003730 -0.067513 -0.222773
v -0.004262 -0.068840 0.231894
v -0.004513 0.069082 0.230519
v -0.004081 0.068110 0.689981
v -0.004458 -0.065971 0.683843
v 0.003578 -0.039012 0.000000
v 0.004239 -0.039870 -0.547768
v 0.003451 -0.043175 0.548489
v 0.003463 -0.041458 -0.809082
v 0.004075 -0.039518 -0.263428
v 0.004550 -0.039581 0.280279
v 0.004182 -0.039163 0.824379
v 0.004177 0.043455 -0.820646
v 0.004314 -0.041303 0.139489
v 0.004063 0.041597 0.138802
v 0.003505 -0.039500 -0.130229
v 0.004247 0.042482 -0.132161
v 0.004548 -0.039666 -0.408496
v 0.003524 0.042311 -0.400303
v 0.003707 -0.041380 -0.677524
v 0.004530 0.041456 -0.688628
v 0.003652 0.041681 -0.939639
v 0.003771 -0.042567 0.684853
v 0.004547 0.042645 0.695419
v 0.004041 -0.040457 0.416226
v 0.003715 0.039984 0.413539
v 0.004370 -0.081401 -0.888433
v 0.003452 0.002475 -0.872389
vt 0.643463 0.399518
vt 0.608433 0.399032
vt 0.627218 0.287293
vt 0.644229 0.287478
vt 0.537200 0.398044
vt 0.538232 0.286325
vt 0.555494 0.286513
vt 0.714776 0.400507
vt 0.678809 0.400008
vt 0.697735 0.288059
vt 0.661241 0.287663
vt 0.572481 0.398533
vt 0.732994 0.288443
vt 0.732449 0.400752
vt 0.573425 0.286708
vt 0.591356 0.286903
vt 0.522054 -0.211154
vt 0.483530 0.675856
vt 0.520970 0.286138
vt 0.592689 0.011366
vt 0.609287 0.287098
vt 0.662490 0.012024
vt 0.628508 0.011703
vt 0.741032 0.345449
vt 0.698940 0.012367
vt 0.715365 0.288251
vt 0.556870 0.011028
vt 0.749097 0.400983
vt 1.051103 0.015687
vt 0.731277 0.678201
vt 0.679488 0.287861
vt 0.204504 0.007695
vt 0.518449 0.676186
vt 0.522387 0.010703
vt 0.556709 -0.210826
vt 0.734882 -0.209139
vt 0.695884 0.677866
vt 0.592707 -0.210485
vt 0.553104 0.676514
vt 0.662857 -0.209821
vt 0.625100 0.677196
vt 0.734157 0.012699
vt 0.589102 0.676855
vt 0.699490 -0.209474
vt 0.659252 0.677519
vt 0.766669 0.678536
vt 0.770274 -0.208804
vt 0.741549 0.234612
vt 0.628705 -0.210144
vn 1.0000 -0.0071 0.0007
vn 1.0000 -0.0091 -0.0005
vn 1.0000 -0.0088 -0.0023
vn 1.0000 0.0025 0.0035
vn 1.0000 -0.0089 0.0043
vn 1.0000 -0.0078 -0.0029
vn 1.0000 -0.0088 -0.0028
vn 1.0000 0.0042 0.0038
vn 1.0000 0.0022 -0.0027
vn 1.0000 0.0083 0.0013
vn 0.9970 0.0780 0.0010
vn 0.9566 -0.2914 0.0020
vn 0.9678 -0.2517 0.0005
vn 0.9999 -0.0093 -0.0066
vn 0.9484 -0.3172 -0.0002
vn 0.9634 -0.2682 -0.0012
vn 0.9600 0.2799 -0.0047
vn 0.9063 0.3558 0.2283
vn 1.0000 0.0030 -0.0017
vn 0.9999 -0.0124 -0.0042
vn 0.9645 -0.2640 0.0034
vn -1.0000 0.0029 -0.0014
vn 0.9469 0.3215 0.0033
vn 0.9633 0.2684 0.0016
vn 0.9630 -0.2695 -0.0019
vn 0.9679 0.2515 -0.0035
vn 0.9677 -0.2523 0.0004
vn 0.9486 -0.3163 -0.0051
vn 0.9999 0.0122 0.0032
vn 0.9433 -0.3320 0.0071
vn -1.0000 -0.0011 -0.0047
vn 0.9433 -0.3319 0.0053
vn 0.9537 0.3007 -0.0028
vn 0.9548 -0.2972 0.0001
vn 0.9646 -0.2638 0.0063
vn -1.0000 -0.0018 -0.0014
vn 0.9999 0.0127 -0.0022
vn 0.9648 0.2628 0.0033
vn 0.9999 -0.0105 -0.0040
vn -1.0000 -0.0040 0.0032
vn 0.9567 -0.2910 0.0017
vn 1.0000 -0.0088 -0.0027
vn -1.0000 -0.0024 0.0033
vn 0.9468 -0.3218 -0.0016
vn 1.0000 0.0042 0.0045
vn 0.9632 -0.2686 -0.0011
vn -1.0000 -0.0021 -0.0041
vn 0.9881 0.0393 -0.1489
vn 0.9999 0.0097 0.0065
vn 0.9633 0.2683 0.0015
vn 1.0000 0.0030 -0.0052
vn -0.9974 -0.0628 -0.0364
vn 0.9648 -0.2629 0.0042
vn -0.9851 -0.1475 0.0887
vn 0.9499 0.3124 -0.0089
vn 0.9576 0.2880 0.0032
vn 0.9967 -0.0677 0.0455
vn 0.9660 -0.2584 -0.0016
vn 0.9676 -0.2523 -0.0092
vn -1.0000 -0.0018 0.0034
vn -1.0000 0.0030 -0.0009
vn 0.9600 0.2801 0.0016
vn 0.9652 0.2615 0.0026
vn 0.9670 0.2547 -0.0053
vn 0.9999 -0.0102 -0.0018
vn 0.9536 0.3010 -0.0028
vn 0.9573 0.2890 0.0029
vn -1.0000 0.0029 -0.0022
vn -1.0000 0.0030 -0.0043
vn -1.0000 0.0039 -0.0014
vn -1.0000 0.0039 -0.0007
vn -0.9810 -0.1665 -0.1000
vn -1.0000 -0.0010 0.0038
vn -1.0000 -0.0040 0.0033
usemtl algae_green
s off
f 28/1/1 26/2/1 17/3/1
f 17/3/2 27/4/2 28/1/2
f 35/5/3 34/6/3 19/7/3
f 32/8/4 30/9/4 18/10/4
f 28/1/5 27/4/5 21/11/5
f 37/12/6 35/5/6 19/7/6
f 32/8/7 20/13/7 24/14/7
f 37/12/8 36/15/8 22/16/8
f 30/9/9 28/1/9 21/11/9
f 26/2/10 37/12/10 22/16/10
f 15/17/11 2/18/11 23/19/11
f 22/16/12 13/20/12 25/21/12
f 12/22/13 27/4/13 4/23/13
f 39/24/14 24/14/14 20/13/14
f 18/10/15 5/25/15 31/26/15
f 36/15/16 19/7/16 8/27/16
f 33/28/17 1/29/17 10/30/17
f 35/5/18 15/17/18 23/19/18
f 22/16/19 25/21/19 26/2/19
f 24/14/20 39/24/20 33/28/20
f 21/11/21 12/22/21 29/31/21
f 2/32/22 15/33/22 16/34/22
f 35/5/23 7/35/23 15/33/23
f 32/8/24 10/36/24 6/37/24
f 13/20/25 36/15/25 8/27/25
f 37/12/26 14/38/26 7/39/26
f 17/3/27 4/23/27 27/4/27
f 5/25/28 29/31/28 12/22/28
f 21/11/29 29/31/29 30/9/29
f 8/27/30 34/6/30 16/34/30
f 16/34/31 7/39/31 8/27/31
f 23/19/32 16/34/32 34/6/32
f 28/1/33 11/40/33 3/41/33
f 4/23/34 25/21/34 13/20/34
f 9/42/35 31/26/35 5/25/35
f 14/43/36 4/23/36 13/20/36
f 30/9/37 29/31/37 18/10/37
f 30/9/38 6/44/38 11/45/38
f 18/10/39 31/26/39 32/8/39
f 11/45/40 5/25/40 12/22/40
f 13/20/41 22/16/41 36/15/41
f 23/19/42 34/6/42 35/5/42
f 10/30/43 1/46/43 9/42/43
f 5/25/44 18/10/44 29/31/44
f 19/7/45 36/15/45 37/12/45
f 8/27/46 19/7/46 34/6/46
f 5/25/47 10/30/47 9/42/47
f 1/47/48 39/24/48 38/48/48
f 20/13/49 38/48/49 39/24/49
f 32/8/50 24/14/50 10/36/50
f 25/21/51 17/3/51 26/2/51
f 9/42/52 1/46/52 38/48/52
f 12/22/53 21/11/53 27/4/53
f 2/18/54 16/34/54 23/19/54
f 10/30/55 24/14/55 33/28/55
f 26/2/56 3/49/56 14/43/56
f 38/48/57 20/13/57 9/42/57
f 9/42/58 20/13/58 31/26/58
f 4/23/59 17/3/59 25/21/59
f 8/27/60 14/43/60 13/20/60
f 3/41/61 12/22/61 4/23/61
f 28/1/62 3/49/62 26/2/62
f 32/8/63 6/44/63 30/9/63
f 37/12/64 7/35/64 35/5/64
f 32/8/65 31/26/65 20/13/65
f 30/9/66 11/40/66 28/1/66
f 26/2/67 14/38/67 37/12/67
f 16/34/68 15/33/68 7/39/68
f 14/43/69 3/41/69 4/23/69
f 11/45/70 6/37/70 5/25/70
f 5/25/71 6/37/71 10/30/71
f 1/47/72 33/28/72 39/24/72
f 8/27/73 7/39/73 14/43/73
f 3/41/74 11/45/74 12/22/74
