# Blender v2.92.0 OBJ File: 'algae.blend'
# www.blender.org
mtllib 1.mtl
o algae_cube_Cube
v -0.005779 0.024223 -2.209669
v -0.004428 0.047161 2.051275
v -0.004347 -0.126295 -2.043101
v -0.004993 -0.099731 2.112451
v -0.005357 0.099304 -0.000000
v -0.005511 -0.098517 -0.000000
v -0.005086 -0.119607 -1.061589
v -0.003157 0.034060 -0.970217
v -0.004490 0.081359 1.046407
v -0.003264 -0.108086 0.990858
v -0.004985 -0.108062 -1.583612
v -0.002896 0.021856 -1.441716
v -0.003023 0.059666 -0.465825
v -0.005944 -0.116574 -0.538437
v -0.005099 -0.061215 0.540274
v -0.003267 0.042370 0.495481
v -0.003306 0.077756 1.470184
v -0.005100 -0.120028 1.600713
v 0.003420 -0.080821 0.000000
v 0.004026 -0.076749 -1.006105
v 0.004451 -0.004706 1.044390
v 0.002998 -0.034845 -1.446891
v 0.004867 -0.084245 -0.506140
v 0.005623 -0.093943 0.556684
v 0.005975 -0.098614 1.684640
v 0.005501 -0.010928 -1.630224
v 0.005222 -0.055196 0.271989
v 0.003020 0.020968 0.245476
v 0.004651 -0.075215 -0.250221
v 0.002907 0.008201 -0.231958
v 0.005789 -0.093171 -0.819445
v 0.004557 0.000624 -0.765179
v 0.004394 -0.042217 -1.279849
v 0.005211 0.033260 -1.336232
v 0.005334 0.015117 -1.868110
v 0.004001 -0.020742 1.268133
v 0.003334 0.009868 1.232653
v 0.005100 -0.066806 0.810431
v 0.002944 0.044141 0.734434
v 0.005425 -0.080477 1.897191
v 0.004569 -0.000025 1.811067
v 0.003174 -0.082224 -1.570616
v 0.002915 -0.043507 -1.555935
v 0.005484 -0.038887 -2.027943
vt 0.643463 0.399518
vt 0.608433 0.399032
vt 0.627218 0.287293
vt 0.644229 0.287478
vt 0.537200 0.398044
vt 0.538232 0.286325
vt 0.555494 0.286513
vt 0.714776 0.400507
vt 0.678809 0.400008
vt 0.697735 0.288059
vt 0.661241 0.287663
vt 0.572481 0.398533
vt 0.732994 0.288443
vt 0.732449 0.400752
vt 0.573425 0.286708
vt 0.591356 0.286903
vt 0.502458 0.397562
vt 0.503577 0.285949
vt 0.520970 0.286138
vt 0.592689 0.011366
vt 0.609287 0.287098
vt 0.662490 0.012024
vt 0.628508 0.011703
vt 0.741032 0.345449
vt 0.698940 0.012367
vt 0.715365 0.288251
vt 0.556870 0.011028
vt 0.749097 0.400983
vt 1.051103 0.015687
vt 0.731277 0.678201
vt 0.204504 0.007695
vt 0.522387 0.010703
vt 0.487643 0.010376
vt 0.679488 0.287861
vt 0.556709 -0.210826
vt 0.518449 0.676186
vt 0.734882 -0.209139
vt 0.695884 0.677866
vt 0.522054 -0.211154
vt 0.758683 0.345668
vt 0.769373 0.013031
vt 0.766669 0.678536
vt 0.592707 -0.210485
vt 0.553104 0.676514
vt 0.770274 -0.208804
vt 0.741549 0.234612
vt 0.734157 0.012699
vt 0.662857 -0.209821
vt 0.625100 0.677196
vt 0.699490 -0.209474
vt 0.659252 0.677519
vt 0.628705 -0.210144
vt 0.589102 0.676855
vt 0.483530 0.675856
vn 1.0000 0.0048 -0.0004
vn 0.9998 0.0197 0.0054
vn 0.9996 0.0263 0.0039
vn 1.0000 -0.0089 0.0006
vn 0.9998 0.0209 0.0001
vn 0.9989 0.0459 0.0024
vn 0.9990 -0.0451 0.0078
vn 0.9998 0.0194 -0.0000
vn 0.9999 0.0125 0.0029
vn 0.9998 0.0204 -0.0008
vn 0.9999 0.0123 0.0015
vn -0.9427 -0.3307 -0.0437
vn 0.9999 0.0166 -0.0019
vn 0.9504 -0.3108 0.0097
vn 0.9976 -0.0685 0.0047
vn 0.9832 -0.1812 -0.0215
vn 0.9958 -0.0878 0.0261
vn 0.6337 0.7736 0.0000
vn -1.0000 0.0039 0.0001
vn 0.9996 0.0298 0.0027
vn 0.9942 -0.1073 -0.0124
vn 0.9446 -0.3280 0.0121
vn 0.9946 0.1039 -0.0019
vn -0.7280 0.6853 -0.0181
vn 0.9899 0.1412 0.0093
vn 0.9910 -0.0951 -0.0944
vn 0.9263 -0.3744 -0.0427
vn 0.9132 0.4066 -0.0267
vn 0.8927 -0.4506 -0.0057
vn 0.9118 -0.4106 0.0039
vn 0.9999 0.0116 0.0026
vn 0.9962 -0.0870 0.0013
vn -1.0000 -0.0056 -0.0031
vn 0.9954 0.0914 -0.0299
vn 0.9515 -0.3073 0.0135
vn 0.9595 -0.2761 -0.0562
vn 0.9951 0.0990 -0.0034
vn 0.9187 -0.3940 0.0265
vn 0.9916 -0.1290 -0.0027
vn -1.0000 0.0008 0.0007
vn 0.9998 0.0177 -0.0079
vn 0.7826 -0.6201 0.0549
vn 0.9850 0.1721 -0.0090
vn 0.9999 -0.0108 -0.0000
vn -0.9999 0.0136 -0.0017
vn -0.9542 -0.2976 0.0299
vn 0.9998 0.0208 -0.0008
vn 0.9938 -0.1108 -0.0055
vn 0.9839 -0.1770 -0.0249
vn 0.9998 0.0180 -0.0020
vn 0.9973 -0.0728 -0.0032
vn -0.9999 0.0159 0.0002
vn 0.9999 -0.0129 0.0053
vn 0.9961 0.0688 0.0544
vn 1.0000 0.0072 -0.0013
vn 0.4725 0.8716 -0.1305
vn 0.9996 0.0257 -0.0090
vn -0.9999 0.0119 0.0038
vn 0.9445 -0.3282 0.0124
vn 1.0000 0.0046 0.0055
vn 0.9358 -0.3523 0.0138
vn 0.9874 0.1576 0.0166
vn 0.9894 0.1449 0.0125
vn 0.9219 -0.3614 0.1397
vn 0.9962 -0.0860 -0.0121
vn 0.8921 -0.4503 0.0365
vn -0.9998 0.0204 0.0062
vn -0.9999 0.0165 0.0003
vn 0.9952 0.0975 -0.0028
vn 0.9389 0.3436 0.0207
vn 0.9915 0.1297 0.0081
vn 0.9998 -0.0177 -0.0091
vn 0.9927 0.1206 0.0014
vn 0.8366 0.5472 -0.0258
vn 0.9951 0.0988 -0.0004
vn -1.0000 0.0081 -0.0015
vn -0.9999 0.0110 0.0029
vn -0.9998 0.0205 0.0066
vn -0.9999 0.0168 -0.0006
vn -0.9999 0.0131 -0.0009
vn 0.9993 0.0109 0.0353
vn -0.9999 -0.0106 -0.0010
vn -1.0000 -0.0059 -0.0018
vn -1.0000 0.0008 -0.0051
usemtl algae_green
s off
f 30/1/1 28/2/1 19/3/1
f 19/3/2 29/4/2 30/1/2
f 37/5/3 36/6/3 21/7/3
f 34/8/4 32/9/4 20/10/4
f 30/1/5 29/4/5 23/11/5
f 39/12/6 37/5/6 21/7/6
f 34/8/7 22/13/7 26/14/7
f 39/12/8 38/15/8 24/16/8
f 32/9/9 30/1/9 23/11/9
f 28/2/10 39/12/10 24/16/10
f 41/17/11 40/18/11 25/19/11
f 24/16/12 15/20/12 27/21/12
f 37/5/13 41/17/13 25/19/13
f 14/22/14 29/4/14 6/23/14
f 43/24/15 26/14/15 22/13/15
f 20/10/16 7/25/16 33/26/16
f 38/15/17 21/7/17 10/27/17
f 35/28/18 1/29/18 12/30/18
f 2/31/19 18/32/19 4/33/19
f 24/16/20 27/21/20 28/2/20
f 26/14/21 43/24/21 35/28/21
f 23/11/22 14/22/22 31/34/22
f 37/5/23 9/35/23 17/36/23
f 34/8/24 12/37/24 8/38/24
f 2/31/25 41/17/25 17/39/25
f 44/40/26 3/41/26 1/42/26
f 15/20/27 38/15/27 10/27/27
f 39/12/28 16/43/28 9/44/28
f 19/3/29 6/23/29 29/4/29
f 7/25/30 31/34/30 14/22/30
f 23/11/31 31/34/31 32/9/31
f 10/27/32 36/6/32 18/32/32
f 18/32/33 9/44/33 10/27/33
f 35/28/34 44/40/34 1/45/34
f 3/41/35 42/46/35 11/47/35
f 25/19/36 18/32/36 36/6/36
f 30/1/37 13/48/37 5/49/37
f 6/23/38 27/21/38 15/20/38
f 11/47/39 33/26/39 7/25/39
f 15/20/40 5/49/40 6/23/40
f 32/9/41 31/34/41 20/10/41
f 18/32/42 25/19/42 40/18/42
f 32/9/43 8/50/43 13/51/43
f 20/10/44 33/26/44 34/8/44
f 14/22/45 8/38/45 7/25/45
f 15/20/46 24/16/46 38/15/46
f 25/19/47 36/6/47 37/5/47
f 44/40/48 42/46/48 3/41/48
f 7/25/49 20/10/49 31/34/49
f 21/7/50 38/15/50 39/12/50
f 10/27/51 21/7/51 36/6/51
f 7/25/52 12/30/52 11/47/52
f 35/28/53 43/24/53 44/40/53
f 41/17/54 4/33/54 40/18/54
f 22/13/55 42/46/55 43/24/55
f 34/8/56 26/14/56 12/37/56
f 27/21/57 19/3/57 28/2/57
f 1/42/58 11/47/58 12/30/58
f 14/22/59 23/11/59 29/4/59
f 44/40/60 43/24/60 42/46/60
f 40/18/61 4/33/61 18/32/61
f 12/30/62 26/14/62 35/28/62
f 28/2/63 5/52/63 16/53/63
f 42/46/64 22/13/64 11/47/64
f 11/47/65 22/13/65 33/26/65
f 6/23/66 19/3/66 27/21/66
f 10/27/67 16/53/67 15/20/67
f 6/23/68 13/51/68 14/22/68
f 30/1/69 5/52/69 28/2/69
f 34/8/70 8/50/70 32/9/70
f 39/12/71 9/35/71 37/5/71
f 34/8/72 33/26/72 22/13/72
f 32/9/73 13/48/73 30/1/73
f 28/2/74 16/43/74 39/12/74
f 37/5/75 17/39/75 41/17/75
f 2/31/76 17/36/76 18/32/76
f 18/32/77 17/36/77 9/44/77
f 15/20/78 16/53/78 5/49/78
f 14/22/79 13/51/79 8/38/79
f 7/25/80 8/38/80 12/30/80
f 41/17/81 2/54/81 4/33/81
f 1/42/82 3/41/82 11/47/82
f 10/27/83 9/44/83 16/53/83
f 6/23/84 5/49/84 13/51/84
