# Blender v2.92.0 OBJ File: 'algae.blend'
# www.blender.org
mtllib 113.mtl
o algae_cube_Cube
v -0.005835 0.145564 -2.608249
v -0.005103 0.111486 2.556344
v -0.002738 0.047968 -0.000000
v -0.003662 -0.050153 -0.000000
v -0.003844 -0.019289 -1.177902
v -0.005376 0.128350 -1.290275
v -0.005865 0.065990 1.264089
v -0.005743 -0.021739 1.196171
v -0.004905 -0.034456 -1.749954
v -0.002745 0.145267 -1.955194
v -0.002895 0.090872 -0.608672
v -0.005755 -0.030590 -0.564074
v -0.005456 -0.097015 0.568863
v -0.002266 0.116824 0.651625
v -0.002059 0.064553 1.871346
v -0.004026 -0.019412 1.775032
v 0.004695 0.025206 0.000000
v 0.004657 0.016000 -1.204762
v 0.005928 -0.085663 1.146684
v 0.005990 -0.041479 -1.741934
v 0.002017 0.022052 -0.583403
v 0.005535 0.029861 0.617968
v 0.004992 0.032309 1.834359
v 0.005895 0.102491 -1.906345
v 0.005841 -0.018576 0.299600
v 0.003359 0.058478 0.314510
v 0.005708 0.011083 -0.289678
v 0.002016 0.077187 -0.301814
v 0.005048 0.027541 -0.899448
v 0.005406 0.088192 -0.933663
v 0.005885 -0.033938 -1.458596
v 0.002484 0.044467 -1.533200
v 0.003054 -0.063139 1.444447
v 0.004058 0.074235 1.576407
v 0.005992 -0.002811 0.908040
v 0.002184 0.024028 0.923622
v 0.003303 0.062925 -2.007400
vt 0.643463 0.399518
vt 0.608433 0.399032
vt 0.627218 0.287293
vt 0.644229 0.287478
vt 0.537200 0.398044
vt 0.538232 0.286325
vt 0.555494 0.286513
vt 0.714776 0.400507
vt 0.678809 0.400008
vt 0.697735 0.288059
vt 0.661241 0.287663
vt 0.572481 0.398533
vt 0.715365 0.288251
vt 0.732449 0.400752
vt 0.573425 0.286708
vt 0.591356 0.286903
vt 0.522054 -0.211154
vt 0.483530 0.675856
vt 0.520970 0.286138
vt 0.592689 0.011366
vt 0.609287 0.287098
vt 0.662490 0.012024
vt 0.628508 0.011703
vt 0.741032 0.345449
vt 0.732994 0.288443
vt 0.698940 0.012367
vt 0.556870 0.011028
vt 0.731277 0.678201
vt 0.679488 0.287861
vt 0.204504 0.007695
vt 0.518449 0.676186
vt 0.522387 0.010703
vt 0.556709 -0.210826
vt 0.734882 -0.209139
vt 0.695884 0.677866
vt 0.592707 -0.210485
vt 0.553104 0.676514
vt 0.662857 -0.209821
vt 0.625100 0.677196
vt 0.734157 0.012699
vt 0.699490 -0.209474
vt 0.659252 0.677519
vt 0.766669 0.678536
vt 0.628705 -0.210144
vt 0.589102 0.676855
vt 0.770274 -0.208804
vt 1.051103 0.015687
vn 0.9989 0.0472 -0.0007
vn 0.9984 0.0559 0.0008
vn 0.9998 -0.0179 0.0110
vn 0.9999 0.0109 -0.0057
vn 0.9985 0.0538 -0.0105
vn 0.9997 0.0245 -0.0048
vn 0.9980 0.0610 0.0186
vn 0.9910 0.1328 0.0134
vn 0.9997 -0.0251 0.0049
vn 0.9720 0.2343 0.0151
vn 0.9741 0.2258 -0.0111
vn 0.9956 -0.0920 0.0150
vn 0.9798 -0.1999 -0.0106
vn 0.9996 -0.0198 -0.0179
vn 0.9784 -0.2019 0.0444
vn -0.9886 -0.1421 -0.0496
vn 0.9825 0.1845 0.0264
vn 0.9994 0.0330 -0.0041
vn 0.9904 0.1182 -0.0717
vn 0.9896 -0.1435 0.0070
vn -0.9995 0.0310 -0.0066
vn -0.7482 0.6634 0.0063
vn 0.9971 0.0764 0.0059
vn 0.9770 -0.2119 0.0259
vn 0.9962 0.0858 0.0130
vn 0.9939 -0.1102 0.0088
vn 0.9828 -0.1846 -0.0003
vn 1.0000 -0.0005 0.0096
vn -0.9824 -0.1868 0.0037
vn -1.0000 -0.0037 0.0030
vn 0.9723 -0.2280 0.0510
vn -0.8538 0.5192 0.0368
vn 0.9831 -0.1826 -0.0119
vn -0.5750 -0.8178 0.0228
vn -1.0000 0.0094 -0.0024
vn 1.0000 -0.0065 -0.0010
vn 0.9078 0.4190 0.0197
vn 0.9992 0.0404 -0.0031
vn -0.9999 -0.0129 -0.0034
vn 0.9966 -0.0821 -0.0108
vn 1.0000 -0.0033 -0.0042
vn -0.9998 0.0174 0.0047
vn 0.9734 -0.2289 0.0074
vn 0.9923 0.1170 0.0409
vn -0.9831 -0.1829 0.0043
vn -0.9999 0.0137 0.0015
vn 0.9671 0.2498 0.0477
vn 0.9995 0.0320 0.0009
vn 0.9881 -0.1525 -0.0181
vn 0.9764 -0.2127 0.0370
vn 0.9679 0.2500 -0.0271
vn 0.9806 -0.1918 -0.0413
vn -0.5530 -0.8329 0.0220
vn 0.9937 -0.1102 -0.0199
vn -0.9999 0.0158 -0.0024
vn -0.9999 0.0094 0.0040
vn -0.9654 0.2605 0.0100
vn 0.9907 0.1354 -0.0147
vn 0.8673 0.4962 -0.0407
vn 1.0000 0.0011 0.0003
vn 0.7860 0.6180 0.0150
vn 0.9979 0.0641 0.0056
vn 0.9971 0.0762 -0.0047
vn -0.9998 0.0162 0.0063
vn -0.9999 0.0153 -0.0009
vn -0.9997 0.0254 0.0050
vn -0.9999 -0.0136 -0.0043
vn -0.3162 -0.8839 -0.3444
vn -1.0000 0.0030 -0.0056
vn -0.9997 0.0243 0.0020
usemtl algae_green
s off
f 28/1/1 26/2/1 17/3/1
f 17/3/2 27/4/2 28/1/2
f 34/5/3 33/6/3 19/7/3
f 32/8/4 30/9/4 18/10/4
f 28/1/5 27/4/5 21/11/5
f 36/12/6 34/5/6 19/7/6
f 31/13/7 24/14/7 32/8/7
f 36/12/8 35/15/8 22/16/8
f 30/9/9 28/1/9 21/11/9
f 26/2/10 36/12/10 22/16/10
f 15/17/11 2/18/11 23/19/11
f 22/16/12 13/20/12 25/21/12
f 12/22/13 27/4/13 4/23/13
f 37/24/14 24/14/14 20/25/14
f 18/10/15 5/26/15 31/13/15
f 35/15/16 19/7/16 8/27/16
f 34/5/17 15/17/17 23/19/17
f 22/16/18 25/21/18 26/2/18
f 37/24/19 10/28/19 24/14/19
f 21/11/20 12/22/20 29/29/20
f 2/30/21 15/31/21 16/32/21
f 34/5/22 7/33/22 15/31/22
f 32/8/23 10/34/23 6/35/23
f 13/20/24 35/15/24 8/27/24
f 36/12/25 14/36/25 7/37/25
f 17/3/26 4/23/26 27/4/26
f 5/26/27 29/29/27 12/22/27
f 21/11/28 29/29/28 30/9/28
f 8/27/29 33/6/29 16/32/29
f 16/32/30 7/37/30 8/27/30
f 23/19/31 16/32/31 33/6/31
f 28/1/32 11/38/32 3/39/32
f 4/23/33 25/21/33 13/20/33
f 9/40/34 31/13/34 5/26/34
f 13/20/35 3/39/35 4/23/35
f 30/9/36 29/29/36 18/10/36
f 30/9/37 6/41/37 11/42/37
f 18/10/38 31/13/38 32/8/38
f 12/22/39 6/35/39 5/26/39
f 13/20/40 22/16/40 35/15/40
f 23/19/41 33/6/41 34/5/41
f 10/28/42 1/43/42 9/40/42
f 5/26/43 18/10/43 29/29/43
f 19/7/44 35/15/44 36/12/44
f 8/27/45 19/7/45 33/6/45
f 5/26/46 10/28/46 9/40/46
f 32/8/47 24/14/47 10/34/47
f 25/21/48 17/3/48 26/2/48
f 12/22/49 21/11/49 27/4/49
f 2/18/50 16/32/50 23/19/50
f 26/2/51 3/44/51 14/45/51
f 37/24/52 9/40/52 1/46/52
f 9/40/53 20/25/53 31/13/53
f 4/23/54 17/3/54 25/21/54
f 8/27/55 14/45/55 13/20/55
f 3/39/56 12/22/56 4/23/56
f 28/1/57 3/44/57 26/2/57
f 32/8/58 6/41/58 30/9/58
f 36/12/59 7/33/59 34/5/59
f 31/13/60 20/25/60 24/14/60
f 30/9/61 11/38/61 28/1/61
f 26/2/62 14/36/62 36/12/62
f 37/24/63 1/47/63 10/28/63
f 16/32/64 15/31/64 7/37/64
f 13/20/65 14/45/65 3/39/65
f 12/22/66 11/42/66 6/35/66
f 5/26/67 6/35/67 10/28/67
f 37/24/68 20/25/68 9/40/68
f 8/27/69 7/37/69 14/45/69
f 3/39/70 11/42/70 12/22/70
