# Blender v2.92.0 OBJ File: 'algae.blend'
# www.blender.org
mtllib 13.mtl
o algae_cube_Cube
v -0.005634 0.039638 -1.846528
v -0.008068 0.064688 1.846528
v -0.005471 0.086492 -0.000000
v -0.000727 -0.085563 -0.000000
v -0.006849 -0.093802 -0.923264
v -0.003930 0.049442 -0.923264
v -0.005276 0.082725 0.939065
v -0.000852 -0.102939 0.939065
v -0.000914 -0.085529 -1.384896
v -0.000649 0.041224 -1.384896
v -0.005410 0.066518 -0.445451
v -0.003545 -0.091599 -0.445451
v -0.000825 -0.067400 0.469532
v -0.006107 0.058658 0.469532
v -0.005808 0.085092 1.391080
v -0.007770 -0.106712 1.391080
v 0.003661 -0.065602 0.000000
v 0.005786 -0.058708 -0.923264
v 0.000869 -0.019629 0.939065
v 0.006590 -0.034774 -1.384896
v 0.002484 -0.062715 -0.445451
v 0.005528 -0.069394 0.469532
v 0.007882 -0.074399 1.391080
v 0.006595 0.008690 -1.384896
v 0.000805 -0.047614 0.234766
v 0.007160 0.028941 0.234766
v 0.001137 -0.058871 -0.222726
v 0.003179 0.020362 -0.222726
v 0.005437 -0.064166 -0.684358
v 0.001096 0.015238 -0.684358
v 0.004487 -0.038139 -1.154080
v 0.001487 0.032038 -1.154080
v 0.007599 -0.030170 1.165073
v 0.006955 0.022961 1.165073
v 0.007065 -0.055906 0.704299
v 0.007529 0.044801 0.704299
vt 0.643463 0.399518
vt 0.608433 0.399032
vt 0.627218 0.287293
vt 0.644229 0.287478
vt 0.537200 0.398044
vt 0.538232 0.286325
vt 0.555494 0.286513
vt 0.714776 0.400507
vt 0.678809 0.400008
vt 0.697735 0.288059
vt 0.661241 0.287663
vt 0.572481 0.398533
vt 0.715365 0.288251
vt 0.732449 0.400752
vt 0.573425 0.286708
vt 0.591356 0.286903
vt 0.522054 -0.211154
vt 0.483530 0.675856
vt 0.520970 0.286138
vt 0.592689 0.011366
vt 0.609287 0.287098
vt 0.662490 0.012024
vt 0.628508 0.011703
vt 0.698940 0.012367
vt 0.556870 0.011028
vt 0.731277 0.678201
vt 1.051103 0.015687
vt 0.679488 0.287861
vt 0.204504 0.007695
vt 0.518449 0.676186
vt 0.522387 0.010703
vt 0.556709 -0.210826
vt 0.734882 -0.209139
vt 0.695884 0.677866
vt 0.592707 -0.210485
vt 0.553104 0.676514
vt 0.732994 0.288443
vt 0.770274 -0.208804
vt 0.662857 -0.209821
vt 0.625100 0.677196
vt 0.734157 0.012699
vt 0.699490 -0.209474
vt 0.659252 0.677519
vt 0.766669 0.678536
vt 0.628705 -0.210144
vt 0.589102 0.676855
vn 0.9998 -0.0161 -0.0084
vn 0.9996 -0.0258 -0.0121
vn 0.9995 0.0121 -0.0292
vn 0.9985 0.0544 0.0028
vn 0.9996 -0.0258 0.0065
vn 0.9929 -0.1186 -0.0044
vn 0.9989 0.0427 0.0178
vn 1.0000 -0.0046 -0.0063
vn 1.0000 0.0038 -0.0046
vn 0.9999 -0.0171 -0.0002
vn 0.9963 0.0855 0.0088
vn -0.2985 -0.9509 -0.0822
vn 0.9940 -0.1095 -0.0048
vn 0.9403 -0.3385 -0.0355
vn 0.9993 -0.0206 0.0296
vn 0.9760 0.2173 -0.0113
vn 0.9958 0.0855 0.0327
vn 0.9962 -0.0827 -0.0277
vn 0.9788 -0.2043 0.0133
vn -0.9999 0.0102 -0.0045
vn 0.9796 0.2009 0.0001
vn 0.9619 0.2732 0.0020
vn 0.9652 -0.2607 -0.0197
vn 0.8903 0.4546 -0.0249
vn 0.9765 -0.2147 -0.0176
vn 0.9370 -0.3492 -0.0049
vn 0.9984 0.0546 0.0120
vn 0.9874 -0.1575 0.0138
vn -0.9996 -0.0238 -0.0155
vn 0.9996 -0.0001 -0.0265
vn 0.8966 -0.4343 -0.0861
vn 0.9884 0.1517 -0.0067
vn 0.9985 -0.0547 0.0023
vn 0.9870 -0.1603 0.0098
vn -0.9996 -0.0276 0.0009
vn 0.9985 0.0546 0.0027
vn 0.9910 0.1337 -0.0017
vn 0.9991 0.0427 -0.0018
vn -0.9998 0.0204 0.0068
vn -0.2990 -0.9526 0.0567
vn 0.9999 0.0121 0.0011
vn -0.9999 0.0021 0.0108
vn 0.9409 -0.3388 -0.0064
vn 0.9996 -0.0046 0.0271
vn 0.9993 -0.0206 -0.0307
vn -0.9997 0.0204 -0.0125
vn 0.9761 0.2173 -0.0004
vn 0.9964 -0.0827 0.0185
vn 0.9880 -0.1461 -0.0497
vn 0.9789 -0.2043 0.0094
vn 0.8880 -0.4301 0.1625
vn 0.9585 0.2845 0.0182
vn 0.9892 -0.1463 0.0069
vn 0.9763 -0.2146 0.0283
vn -0.9991 -0.0419 -0.0032
vn -0.9999 -0.0118 0.0065
vn 0.9856 0.1685 -0.0117
vn 0.9799 0.1995 0.0080
vn 0.9689 0.2472 0.0129
vn 1.0000 -0.0001 0.0091
vn 0.9880 0.1541 -0.0062
vn 0.8507 0.5253 -0.0184
vn -0.9999 0.0102 -0.0012
vn -0.9991 -0.0419 -0.0038
vn -0.9999 -0.0118 -0.0027
vn -1.0000 0.0021 -0.0071
vn -0.9997 -0.0238 0.0030
vn -0.9996 -0.0276 0.0011
usemtl algae_green
s off
f 28/1/1 26/2/1 17/3/1
f 17/3/2 27/4/2 28/1/2
f 34/5/3 33/6/3 19/7/3
f 32/8/4 30/9/4 18/10/4
f 28/1/5 27/4/5 21/11/5
f 36/12/6 34/5/6 19/7/6
f 31/13/7 24/14/7 32/8/7
f 36/12/8 35/15/8 22/16/8
f 30/9/9 28/1/9 21/11/9
f 26/2/10 36/12/10 22/16/10
f 15/17/11 2/18/11 23/19/11
f 22/16/12 13/20/12 25/21/12
f 12/22/13 27/4/13 4/23/13
f 18/10/14 5/24/14 31/13/14
f 35/15/15 19/7/15 8/25/15
f 10/26/16 24/14/16 1/27/16
f 34/5/17 15/17/17 23/19/17
f 22/16/18 25/21/18 26/2/18
f 21/11/19 12/22/19 29/28/19
f 2/29/20 15/30/20 16/31/20
f 34/5/21 7/32/21 15/30/21
f 32/8/22 10/33/22 6/34/22
f 13/20/23 35/15/23 8/25/23
f 36/12/24 14/35/24 7/36/24
f 17/3/25 4/23/25 27/4/25
f 5/24/26 29/28/26 12/22/26
f 21/11/27 29/28/27 30/9/27
f 8/25/28 33/6/28 16/31/28
f 16/31/29 7/36/29 8/25/29
f 20/37/30 1/38/30 24/14/30
f 23/19/31 16/31/31 33/6/31
f 28/1/32 11/39/32 3/40/32
f 4/23/33 25/21/33 13/20/33
f 9/41/34 31/13/34 5/24/34
f 13/20/35 3/40/35 4/23/35
f 30/9/36 29/28/36 18/10/36
f 30/9/37 6/42/37 11/43/37
f 18/10/38 31/13/38 32/8/38
f 12/22/39 6/34/39 5/24/39
f 13/20/40 22/16/40 35/15/40
f 23/19/41 33/6/41 34/5/41
f 10/26/42 1/44/42 9/41/42
f 5/24/43 18/10/43 29/28/43
f 19/7/44 35/15/44 36/12/44
f 8/25/45 19/7/45 33/6/45
f 6/34/46 9/41/46 5/24/46
f 32/8/47 24/14/47 10/33/47
f 25/21/48 17/3/48 26/2/48
f 20/37/49 9/41/49 1/38/49
f 12/22/50 21/11/50 27/4/50
f 2/18/51 16/31/51 23/19/51
f 26/2/52 3/45/52 14/46/52
f 9/41/53 20/37/53 31/13/53
f 4/23/54 17/3/54 25/21/54
f 8/25/55 14/46/55 13/20/55
f 4/23/56 11/43/56 12/22/56
f 28/1/57 3/45/57 26/2/57
f 32/8/58 6/42/58 30/9/58
f 36/12/59 7/32/59 34/5/59
f 31/13/60 20/37/60 24/14/60
f 30/9/61 11/39/61 28/1/61
f 26/2/62 14/35/62 36/12/62
f 16/31/63 15/30/63 7/36/63
f 13/20/64 14/46/64 3/40/64
f 12/22/65 11/43/65 6/34/65
f 6/34/66 10/26/66 9/41/66
f 8/25/67 7/36/67 14/46/67
f 4/23/68 3/40/68 11/43/68
