# Blender v2.92.0 OBJ File: 'algae.blend'
# www.blender.org
mtllib 154.mtl
o algae_cube_Cube
v -0.004197 0.063964 -1.965831
v -0.004156 0.073507 1.965831
v -0.004176 0.092065 -0.000000
v -0.003303 -0.089390 -0.000000
v -0.003644 -0.098970 -0.982915
v -0.003319 0.067669 -0.982915
v -0.003994 0.086410 0.999737
v -0.003345 -0.097519 0.999737
v -0.003580 -0.094710 -1.474373
v -0.003849 0.063714 -1.474373
v -0.003830 0.079170 -0.474231
v -0.004097 -0.096832 -0.474231
v -0.003255 -0.076352 0.499869
v -0.003623 0.071515 0.499869
v -0.003842 0.086313 1.480957
v -0.003634 -0.099066 1.480957
v 0.003566 -0.048925 0.000000
v 0.003792 -0.046612 -0.982915
v 0.003929 -0.023837 0.999737
v 0.004576 -0.033042 -1.474373
v 0.004553 -0.046708 -0.474231
v 0.004599 -0.048341 0.499869
v 0.004076 -0.049927 1.480957
v 0.003855 0.018696 -1.474373
v 0.003538 -0.039115 0.249934
v 0.004384 0.028208 0.249934
v 0.004165 -0.044869 -0.237116
v 0.003528 0.024806 -0.237116
v 0.004587 -0.047883 -0.728573
v 0.004107 0.021870 -0.728573
v 0.004253 -0.034987 -1.228644
v 0.003591 0.031932 -1.228644
v 0.003761 0.026363 -1.705845
v 0.004570 -0.028281 1.240347
v 0.004024 0.024903 1.240347
v 0.004606 -0.041250 0.749803
v 0.004533 0.035509 0.749803
v 0.004171 -0.069945 -1.590109
v 0.003583 -0.014346 -1.590109
vt 0.643463 0.399518
vt 0.608433 0.399032
vt 0.627218 0.287293
vt 0.644229 0.287478
vt 0.537200 0.398044
vt 0.538232 0.286325
vt 0.555494 0.286513
vt 0.714776 0.400507
vt 0.678809 0.400008
vt 0.697735 0.288059
vt 0.661241 0.287663
vt 0.572481 0.398533
vt 0.715365 0.288251
vt 0.732449 0.400752
vt 0.573425 0.286708
vt 0.591356 0.286903
vt 0.522054 -0.211154
vt 0.483530 0.675856
vt 0.520970 0.286138
vt 0.592689 0.011366
vt 0.609287 0.287098
vt 0.662490 0.012024
vt 0.628508 0.011703
vt 0.741032 0.345449
vt 0.732994 0.288443
vt 0.698940 0.012367
vt 0.556870 0.011028
vt 0.749097 0.400983
vt 1.051103 0.015687
vt 0.731277 0.678201
vt 0.679488 0.287861
vt 0.204504 0.007695
vt 0.518449 0.676186
vt 0.522387 0.010703
vt 0.556709 -0.210826
vt 0.734882 -0.209139
vt 0.695884 0.677866
vt 0.592707 -0.210485
vt 0.553104 0.676514
vt 0.662857 -0.209821
vt 0.625100 0.677196
vt 0.734157 0.012699
vt 0.589102 0.676855
vt 0.699490 -0.209474
vt 0.659252 0.677519
vt 0.766669 0.678536
vt 0.770274 -0.208804
vt 0.741549 0.234612
vt 0.628705 -0.210144
vn 1.0000 -0.0050 -0.0017
vn 1.0000 0.0091 0.0027
vn 0.9999 0.0103 -0.0025
vn 1.0000 -0.0007 -0.0010
vn 1.0000 0.0091 0.0016
vn 1.0000 -0.0064 0.0009
vn 1.0000 0.0099 0.0005
vn 1.0000 0.0009 -0.0001
vn 0.9999 0.0106 0.0011
vn 1.0000 0.0017 -0.0003
vn 0.9983 0.0580 0.0022
vn 0.9628 -0.2699 -0.0140
vn 0.9870 -0.1609 0.0009
vn 0.9999 0.0139 -0.0063
vn 0.9901 -0.1406 -0.0048
vn 0.9951 -0.0982 0.0095
vn 0.9791 0.2031 -0.0006
vn 0.9982 0.0580 0.0178
vn 0.9999 -0.0126 -0.0047
vn 1.0000 -0.0061 -0.0006
vn 0.9854 -0.1701 0.0009
vn -1.0000 -0.0011 -0.0007
vn 0.9918 0.1282 -0.0003
vn 0.9781 0.2079 -0.0027
vn 0.9853 -0.1705 -0.0070
vn 0.9821 0.1885 -0.0049
vn 0.9859 -0.1673 -0.0004
vn 0.9860 -0.1667 0.0016
vn 1.0000 0.0069 0.0001
vn 0.9934 -0.1144 0.0002
vn -1.0000 -0.0011 -0.0006
vn 0.9878 -0.1550 -0.0119
vn 0.9924 0.1229 -0.0026
vn 0.9881 -0.1539 0.0039
vn 0.9920 -0.1261 -0.0010
vn -1.0000 -0.0025 0.0002
vn 1.0000 0.0069 -0.0031
vn 0.9891 0.1474 -0.0023
vn 0.9999 0.0099 0.0023
vn -1.0000 0.0020 -0.0009
vn 0.9628 -0.2700 0.0076
vn 0.9999 0.0103 0.0030
vn -1.0000 -0.0017 0.0007
vn 0.9901 -0.1406 -0.0038
vn 1.0000 0.0009 0.0026
vn 0.9952 -0.0982 -0.0045
vn -1.0000 0.0020 -0.0001
vn 0.9998 0.0106 -0.0185
vn 0.9999 0.0106 -0.0069
vn 0.9856 0.1687 -0.0080
vn 0.9999 -0.0126 0.0006
vn -0.8354 -0.5234 -0.1679
vn 0.9854 -0.1701 0.0029
vn 0.9864 -0.1548 0.0561
vn 0.9857 0.1687 0.0052
vn 0.9882 0.1528 0.0052
vn 0.9906 -0.1310 0.0383
vn 0.9914 -0.1311 0.0003
vn 0.9859 -0.1673 0.0067
vn -1.0000 -0.0035 -0.0003
vn -1.0000 0.0015 0.0017
vn 0.9848 0.1734 0.0025
vn 0.9894 0.1453 0.0042
vn 0.9999 0.0139 0.0014
vn 0.9908 0.1357 0.0004
vn 0.9799 0.1997 -0.0032
vn -1.0000 -0.0035 0.0003
vn -1.0000 -0.0048 0.0009
vn -1.0000 0.0015 -0.0010
vn -1.0000 -0.0017 0.0011
vn 0.9868 -0.1531 -0.0524
vn -1.0000 -0.0025 -0.0007
vn -1.0000 -0.0048 -0.0006
usemtl algae_green
s off
f 28/1/1 26/2/1 17/3/1
f 17/3/2 27/4/2 28/1/2
f 35/5/3 34/6/3 19/7/3
f 32/8/4 30/9/4 18/10/4
f 28/1/5 27/4/5 21/11/5
f 37/12/6 35/5/6 19/7/6
f 31/13/7 24/14/7 32/8/7
f 37/12/8 36/15/8 22/16/8
f 30/9/9 28/1/9 21/11/9
f 26/2/10 37/12/10 22/16/10
f 15/17/11 2/18/11 23/19/11
f 22/16/12 13/20/12 25/21/12
f 12/22/13 27/4/13 4/23/13
f 39/24/14 24/14/14 20/25/14
f 18/10/15 5/26/15 31/13/15
f 36/15/16 19/7/16 8/27/16
f 33/28/17 1/29/17 10/30/17
f 35/5/18 15/17/18 23/19/18
f 22/16/19 25/21/19 26/2/19
f 24/14/20 39/24/20 33/28/20
f 21/11/21 12/22/21 29/31/21
f 2/32/22 15/33/22 16/34/22
f 35/5/23 7/35/23 15/33/23
f 32/8/24 10/36/24 6/37/24
f 13/20/25 36/15/25 8/27/25
f 37/12/26 14/38/26 7/39/26
f 17/3/27 4/23/27 27/4/27
f 5/26/28 29/31/28 12/22/28
f 21/11/29 29/31/29 30/9/29
f 8/27/30 34/6/30 16/34/30
f 15/33/31 8/27/31 16/34/31
f 23/19/32 16/34/32 34/6/32
f 28/1/33 11/40/33 3/41/33
f 4/23/34 25/21/34 13/20/34
f 9/42/35 31/13/35 5/26/35
f 14/43/36 4/23/36 13/20/36
f 30/9/37 29/31/37 18/10/37
f 30/9/38 6/44/38 11/45/38
f 18/10/39 31/13/39 32/8/39
f 12/22/40 6/37/40 5/26/40
f 13/20/41 22/16/41 36/15/41
f 23/19/42 34/6/42 35/5/42
f 10/30/43 1/46/43 9/42/43
f 5/26/44 18/10/44 29/31/44
f 19/7/45 36/15/45 37/12/45
f 8/27/46 19/7/46 34/6/46
f 6/37/47 9/42/47 5/26/47
f 1/47/48 39/24/48 38/48/48
f 20/25/49 38/48/49 39/24/49
f 32/8/50 24/14/50 10/36/50
f 25/21/51 17/3/51 26/2/51
f 9/42/52 1/46/52 38/48/52
f 12/22/53 21/11/53 27/4/53
f 2/18/54 16/34/54 23/19/54
f 10/30/55 24/14/55 33/28/55
f 26/2/56 3/49/56 14/43/56
f 38/48/57 20/25/57 9/42/57
f 9/42/58 20/25/58 31/13/58
f 4/23/59 17/3/59 25/21/59
f 7/39/60 13/20/60 8/27/60
f 4/23/61 11/45/61 12/22/61
f 28/1/33 3/49/33 26/2/33
f 32/8/62 6/44/62 30/9/62
f 37/12/63 7/35/63 35/5/63
f 31/13/64 20/25/64 24/14/64
f 30/9/65 11/40/65 28/1/65
f 26/2/66 14/38/66 37/12/66
f 15/33/67 7/39/67 8/27/67
f 14/43/68 3/41/68 4/23/68
f 12/22/69 11/45/69 6/37/69
f 6/37/70 10/30/70 9/42/70
f 1/47/71 33/28/71 39/24/71
f 7/39/72 14/43/72 13/20/72
f 4/23/73 3/41/73 11/45/73
