# Blender v2.92.0 OBJ File: 'algae.blend'
# www.blender.org
mtllib 165.mtl
o algae_cube_Cube
v -0.002353 0.120642 -2.434177
v -0.004609 0.101593 2.332912
v -0.001384 0.065051 -0.000000
v -0.007645 -0.066271 -0.000000
v -0.005641 -0.048790 -1.071486
v -0.002366 0.110205 -1.188273
v -0.007738 0.075384 1.129996
v -0.000229 -0.050150 1.091461
v -0.000790 -0.056955 -1.622718
v -0.007992 0.119997 -1.822846
v -0.000143 0.089069 -0.549007
v -0.001266 -0.055291 -0.520869
v -0.007252 -0.092377 0.582337
v -0.008223 0.103568 0.595674
v -0.001346 0.074904 1.672614
v -0.005431 -0.048544 1.613974
v 0.000290 -0.005576 0.000000
v 0.003812 -0.010463 -1.044325
v 0.000150 -0.067237 1.115860
v 0.007463 -0.042262 -1.596566
v 0.006613 -0.007278 -0.503534
v 0.004926 -0.002911 0.530484
v 0.000390 -0.001030 1.571528
v 0.001172 0.076963 -1.670786
v 0.006086 -0.030007 0.267955
v 0.000150 0.051803 0.273378
v 0.000613 -0.013448 -0.252136
v 0.007108 0.062248 -0.262794
v 0.005535 -0.004133 -0.773273
v 0.000992 0.068523 -0.814747
v 0.006669 -0.038218 -1.325605
v 0.000217 0.044365 -1.333195
v 0.000503 -0.054523 1.361053
v 0.006378 0.061002 1.372350
v 0.001319 -0.021075 0.799702
v 0.002663 0.032698 0.805404
vt 0.643463 0.399518
vt 0.608433 0.399032
vt 0.627218 0.287293
vt 0.644229 0.287478
vt 0.537200 0.398044
vt 0.538232 0.286325
vt 0.555494 0.286513
vt 0.714776 0.400507
vt 0.678809 0.400008
vt 0.697735 0.288059
vt 0.661241 0.287663
vt 0.572481 0.398533
vt 0.715365 0.288251
vt 0.732449 0.400752
vt 0.573425 0.286708
vt 0.591356 0.286903
vt 0.522054 -0.211154
vt 0.483530 0.675856
vt 0.520970 0.286138
vt 0.592689 0.011366
vt 0.609287 0.287098
vt 0.662490 0.012024
vt 0.628508 0.011703
vt 0.698940 0.012367
vt 0.556870 0.011028
vt 0.731277 0.678201
vt 1.051103 0.015687
vt 0.679488 0.287861
vt 0.204504 0.007695
vt 0.518449 0.676186
vt 0.522387 0.010703
vt 0.556709 -0.210826
vt 0.734882 -0.209139
vt 0.695884 0.677866
vt 0.592707 -0.210485
vt 0.553104 0.676514
vt 0.732994 0.288443
vt 0.770274 -0.208804
vt 0.662857 -0.209821
vt 0.625100 0.677196
vt 0.734157 0.012699
vt 0.699490 -0.209474
vt 0.659252 0.677519
vt 0.766669 0.678536
vt 0.628705 -0.210144
vt 0.589102 0.676855
vn 0.9985 -0.0543 0.0119
vn 0.9964 -0.0849 0.0039
vn 0.9987 -0.0509 0.0012
vn 0.9989 0.0463 -0.0037
vn 0.9964 -0.0824 0.0218
vn 0.9992 -0.0394 -0.0046
vn 0.9968 0.0788 0.0104
vn 0.9996 -0.0262 0.0116
vn 0.9995 0.0300 -0.0107
vn 0.9969 0.0781 -0.0019
vn 0.9998 0.0172 0.0042
vn 0.9920 -0.1250 0.0173
vn 0.9941 -0.1082 0.0099
vn 0.9641 -0.2631 0.0358
vn -0.9994 -0.0346 -0.0088
vn 0.9709 0.2393 0.0092
vn 0.9996 -0.0121 0.0263
vn 0.9974 0.0726 -0.0031
vn 0.9871 -0.1599 -0.0058
vn -0.9993 0.0361 -0.0064
vn 0.7828 0.6222 -0.0087
vn 0.9984 0.0567 -0.0080
vn 0.9946 -0.1040 -0.0051
vn 0.9843 0.1760 0.0084
vn 0.9915 -0.1296 0.0053
vn 0.9837 -0.1798 -0.0099
vn 0.9982 0.0605 -0.0033
vn -0.8358 -0.5489 -0.0066
vn -0.9983 -0.0567 -0.0098
vn 0.9987 0.0517 -0.0017
vn 0.9948 -0.0989 0.0257
vn 0.8751 0.4834 0.0231
vn 0.9627 -0.2702 -0.0128
vn 0.8181 -0.5749 0.0157
vn -0.9989 0.0476 0.0028
vn 0.9983 0.0580 -0.0077
vn 0.9975 0.0700 -0.0012
vn 0.9969 0.0781 0.0024
vn -0.9999 0.0093 0.0081
vn 0.9912 -0.1324 0.0043
vn 0.9985 -0.0521 0.0138
vn -0.9986 -0.0511 -0.0093
vn 0.9710 -0.2391 -0.0006
vn 0.9997 -0.0250 0.0000
vn -0.9998 -0.0187 0.0024
vn -0.9987 -0.0498 -0.0081
vn 0.9467 0.3204 0.0336
vn 0.9972 0.0733 -0.0149
vn 0.9247 -0.3715 -0.0831
vn 0.9855 -0.1687 0.0194
vn 0.9944 -0.1035 0.0205
vn 0.9888 0.1494 0.0017
vn 0.8641 -0.5032 0.0100
vn 0.9910 -0.1296 -0.0333
vn -0.9977 -0.0656 0.0192
vn -0.9988 0.0476 -0.0112
vn 0.8415 0.5398 0.0214
vn 0.9989 0.0473 -0.0037
vn 0.9036 0.4275 -0.0273
vn 0.9985 0.0540 0.0021
vn 0.9853 0.1706 -0.0090
vn 0.9880 0.1544 0.0009
vn -0.9996 0.0275 0.0118
vn -0.9999 -0.0042 -0.0112
vn -0.9997 0.0237 0.0043
vn -0.9996 0.0274 0.0093
vn -1.0000 -0.0050 0.0006
vn -1.0000 0.0074 -0.0019
usemtl algae_green
s off
f 28/1/1 26/2/1 17/3/1
f 17/3/2 27/4/2 28/1/2
f 34/5/3 33/6/3 19/7/3
f 32/8/4 30/9/4 18/10/4
f 28/1/5 27/4/5 21/11/5
f 36/12/6 34/5/6 19/7/6
f 31/13/7 24/14/7 32/8/7
f 36/12/8 35/15/8 22/16/8
f 30/9/9 28/1/9 21/11/9
f 26/2/10 36/12/10 22/16/10
f 15/17/11 2/18/11 23/19/11
f 22/16/12 13/20/12 25/21/12
f 12/22/13 27/4/13 4/23/13
f 18/10/14 5/24/14 31/13/14
f 35/15/15 19/7/15 8/25/15
f 10/26/16 24/14/16 1/27/16
f 34/5/17 15/17/17 23/19/17
f 22/16/18 25/21/18 26/2/18
f 21/11/19 12/22/19 29/28/19
f 2/29/20 15/30/20 16/31/20
f 34/5/21 7/32/21 15/30/21
f 32/8/22 10/33/22 6/34/22
f 13/20/23 35/15/23 8/25/23
f 36/12/24 14/35/24 7/36/24
f 17/3/25 4/23/25 27/4/25
f 5/24/26 29/28/26 12/22/26
f 21/11/27 29/28/27 30/9/27
f 8/25/28 33/6/28 16/31/28
f 16/31/29 7/36/29 8/25/29
f 20/37/30 1/38/30 24/14/30
f 23/19/31 16/31/31 33/6/31
f 28/1/32 11/39/32 3/40/32
f 4/23/33 25/21/33 13/20/33
f 9/41/34 31/13/34 5/24/34
f 13/20/35 3/40/35 4/23/35
f 30/9/36 29/28/36 18/10/36
f 30/9/37 6/42/37 11/43/37
f 18/10/38 31/13/38 32/8/38
f 11/43/39 5/24/39 12/22/39
f 13/20/40 22/16/40 35/15/40
f 23/19/41 33/6/41 34/5/41
f 10/26/42 1/44/42 9/41/42
f 5/24/43 18/10/43 29/28/43
f 19/7/44 35/15/44 36/12/44
f 8/25/45 19/7/45 33/6/45
f 5/24/46 10/26/46 9/41/46
f 32/8/47 24/14/47 10/33/47
f 25/21/48 17/3/48 26/2/48
f 20/37/49 9/41/49 1/38/49
f 12/22/50 21/11/50 27/4/50
f 2/18/51 16/31/51 23/19/51
f 26/2/52 3/45/52 14/46/52
f 9/41/53 20/37/53 31/13/53
f 4/23/54 17/3/54 25/21/54
f 7/36/55 13/20/55 8/25/55
f 3/40/56 12/22/56 4/23/56
f 28/1/57 3/45/57 26/2/57
f 32/8/58 6/42/58 30/9/58
f 36/12/59 7/32/59 34/5/59
f 31/13/60 20/37/60 24/14/60
f 30/9/61 11/39/61 28/1/61
f 26/2/62 14/35/62 36/12/62
f 16/31/63 15/30/63 7/36/63
f 13/20/64 14/46/64 3/40/64
f 11/43/65 6/34/65 5/24/65
f 5/24/66 6/34/66 10/26/66
f 7/36/67 14/46/67 13/20/67
f 3/40/68 11/43/68 12/22/68
