# Blender v2.92.0 OBJ File: 'algae.blend'
# www.blender.org
mtllib 186.mtl
o algae_cube_Cube
v -0.001920 0.056605 -1.558936
v -0.001928 0.065258 1.558936
v -0.000991 -0.093186 -1.558936
v -0.000871 -0.082680 1.558936
v -0.001064 0.070043 -0.000000
v -0.005420 -0.069569 -0.000000
v -0.003455 -0.079584 -0.779468
v -0.006159 0.054706 -0.779468
v -0.002220 0.068907 0.792808
v -0.005196 -0.079143 0.792808
v -0.004296 -0.080134 -1.169202
v -0.003885 0.053306 -1.169202
v -0.003136 0.061304 -0.376073
v -0.001326 -0.074562 -0.376073
v -0.006098 -0.060070 0.396404
v -0.004341 0.055673 0.396404
v -0.003118 0.072551 1.174423
v -0.003685 -0.083778 1.174423
v 0.006104 -0.046785 0.000000
v 0.005081 -0.046778 -0.779468
v 0.004152 -0.023813 0.792808
v 0.000934 -0.035611 -1.169202
v 0.001283 -0.046576 -0.376073
v 0.000995 -0.048342 0.396404
v 0.003851 -0.053199 1.174423
v 0.004519 0.019434 -1.169202
v 0.006068 -0.037390 0.198202
v 0.001705 0.027604 0.198202
v 0.003162 -0.043832 -0.188037
v 0.005880 0.023527 -0.188037
v 0.001054 -0.048443 -0.577771
v 0.003162 0.021517 -0.577771
v 0.002639 -0.036344 -0.974335
v 0.006038 0.032424 -0.974335
v 0.005419 0.028362 -1.352763
v 0.000860 -0.029624 0.983615
v 0.003623 0.025562 0.983615
v 0.000851 -0.041761 0.594606
v 0.001117 0.035812 0.594606
v 0.002321 -0.050040 1.366680
v 0.003302 0.023538 1.366680
v 0.004092 -0.075230 -1.260983
v 0.006203 -0.015458 -1.260983
v 0.001804 -0.012644 -1.455850
vt 0.643463 0.399518
vt 0.608433 0.399032
vt 0.627218 0.287293
vt 0.644229 0.287478
vt 0.537200 0.398044
vt 0.538232 0.286325
vt 0.555494 0.286513
vt 0.714776 0.400507
vt 0.678809 0.400008
vt 0.697735 0.288059
vt 0.661241 0.287663
vt 0.572481 0.398533
vt 0.715365 0.288251
vt 0.732449 0.400752
vt 0.573425 0.286708
vt 0.591356 0.286903
vt 0.502458 0.397562
vt 0.503577 0.285949
vt 0.520970 0.286138
vt 0.592689 0.011366
vt 0.609287 0.287098
vt 0.662490 0.012024
vt 0.628508 0.011703
vt 0.741032 0.345449
vt 0.732994 0.288443
vt 0.698940 0.012367
vt 0.556870 0.011028
vt 0.749097 0.400983
vt 1.051103 0.015687
vt 0.731277 0.678201
vt 0.204504 0.007695
vt 0.522387 0.010703
vt 0.487643 0.010376
vt 0.679488 0.287861
vt 0.556709 -0.210826
vt 0.518449 0.676186
vt 0.734882 -0.209139
vt 0.695884 0.677866
vt 0.522054 -0.211154
vt 0.758683 0.345668
vt 0.769373 0.013031
vt 0.766669 0.678536
vt 0.592707 -0.210485
vt 0.553104 0.676514
vt 0.770274 -0.208804
vt 0.741549 0.234612
vt 0.734157 0.012699
vt 0.662857 -0.209821
vt 0.625100 0.677196
vt 0.589102 0.676855
vt 0.699490 -0.209474
vt 0.659252 0.677519
vt 0.483530 0.675856
vt 0.628705 -0.210144
vn 0.9995 0.0312 0.0105
vn 0.9991 -0.0403 -0.0163
vn 0.9986 -0.0500 0.0157
vn 1.0000 0.0062 0.0074
vn 0.9991 -0.0403 -0.0094
vn 0.9995 0.0323 -0.0056
vn 0.9988 -0.0494 -0.0045
vn 1.0000 -0.0034 0.0008
vn 0.9988 -0.0475 -0.0067
vn 1.0000 -0.0052 0.0016
vn 0.9999 -0.0133 0.0082
vn 0.8557 -0.5175 -0.0067
vn 1.0000 0.0050 0.0009
vn 0.9742 -0.2255 0.0136
vn 0.9970 -0.0649 0.0430
vn 0.9675 -0.2517 -0.0256
vn 0.9860 -0.1666 -0.0013
vn 0.9534 0.3015 0.0074
vn -0.9999 -0.0071 0.0073
vn 0.9973 0.0670 0.0292
vn 0.9995 0.0313 0.0064
vn 0.9957 -0.0928 -0.0003
vn 0.9904 0.1380 0.0010
vn 0.8899 0.4561 0.0036
vn 0.9919 0.1274 -0.0007
vn 0.9995 0.0062 -0.0319
vn 0.9737 -0.2272 -0.0131
vn 0.9864 0.1638 -0.0107
vn 0.8922 -0.4512 -0.0210
vn 0.9928 -0.1194 -0.0038
vn 0.9995 -0.0301 -0.0009
vn 0.9948 -0.1017 -0.0052
vn -0.9998 0.0201 0.0042
vn 0.9994 0.0010 -0.0354
vn 0.7233 -0.6900 0.0292
vn 0.9700 -0.2391 -0.0447
vn 0.9825 0.1860 -0.0097
vn 0.9182 -0.3959 0.0111
vn 0.9890 -0.1481 -0.0019
vn -0.9999 0.0152 -0.0021
vn 0.9994 -0.0301 0.0197
vn 0.9709 -0.2393 0.0117
vn 0.9778 0.2093 -0.0108
vn 0.9987 -0.0494 -0.0152
vn -0.9999 -0.0133 0.0054
vn 0.8555 -0.5174 0.0178
vn 0.9985 -0.0500 -0.0218
vn 0.9998 -0.0139 -0.0162
vn 0.9676 -0.2518 0.0172
vn 0.9999 -0.0034 -0.0163
vn 0.9860 -0.1666 0.0119
vn -1.0000 0.0031 0.0022
vn 0.9993 -0.0303 -0.0230
vn 0.9995 -0.0133 0.0301
vn 0.9981 -0.0352 0.0496
vn 0.9703 0.2407 -0.0236
vn 0.9977 0.0670 -0.0030
vn -1.0000 0.0031 -0.0050
vn 0.9956 -0.0928 -0.0086
vn 0.9991 -0.0353 -0.0231
vn 0.9905 -0.1372 -0.0069
vn 0.9704 0.2408 0.0165
vn 0.9922 0.1241 0.0127
vn 0.9896 -0.1163 0.0842
vn 0.9931 -0.1167 -0.0091
vn 0.8922 -0.4512 0.0215
vn -0.9999 0.0152 0.0030
vn -0.9999 -0.0133 -0.0107
vn 0.9939 0.1096 0.0096
vn 0.9315 0.3634 0.0167
vn 0.9928 0.1195 -0.0032
vn 0.9978 -0.0650 -0.0090
vn 0.9808 0.1950 -0.0078
vn 0.9724 0.2334 -0.0034
vn 0.9907 0.1358 0.0015
vn -1.0000 0.0036 0.0032
vn -1.0000 0.0036 -0.0024
vn -0.9995 0.0312 -0.0071
vn -0.9998 -0.0201 0.0078
vn -0.9998 -0.0201 -0.0058
vn 0.9998 0.0071 0.0178
vn -0.9999 -0.0062 -0.0083
vn -0.9998 0.0201 0.0047
vn -0.9995 0.0312 0.0048
usemtl algae_green
s off
f 30/1/1 28/2/1 19/3/1
f 19/3/2 29/4/2 30/1/2
f 37/5/3 36/6/3 21/7/3
f 34/8/4 32/9/4 20/10/4
f 30/1/5 29/4/5 23/11/5
f 39/12/6 37/5/6 21/7/6
f 33/13/7 26/14/7 34/8/7
f 39/12/8 38/15/8 24/16/8
f 32/9/9 30/1/9 23/11/9
f 28/2/10 39/12/10 24/16/10
f 41/17/11 40/18/11 25/19/11
f 24/16/12 15/20/12 27/21/12
f 37/5/13 41/17/13 25/19/13
f 14/22/14 29/4/14 6/23/14
f 43/24/15 26/14/15 22/25/15
f 20/10/16 7/26/16 33/13/16
f 38/15/17 21/7/17 10/27/17
f 35/28/18 1/29/18 12/30/18
f 2/31/19 18/32/19 4/33/19
f 24/16/20 27/21/20 28/2/20
f 26/14/21 43/24/21 35/28/21
f 23/11/22 14/22/22 31/34/22
f 37/5/23 9/35/23 17/36/23
f 34/8/24 12/37/24 8/38/24
f 2/31/25 41/17/25 17/39/25
f 44/40/26 3/41/26 1/42/26
f 15/20/27 38/15/27 10/27/27
f 39/12/28 16/43/28 9/44/28
f 19/3/29 6/23/29 29/4/29
f 7/26/30 31/34/30 14/22/30
f 23/11/31 31/34/31 32/9/31
f 10/27/32 36/6/32 18/32/32
f 18/32/33 9/44/33 10/27/33
f 35/28/34 44/40/34 1/45/34
f 3/41/35 42/46/35 11/47/35
f 25/19/36 18/32/36 36/6/36
f 30/1/37 13/48/37 5/49/37
f 6/23/38 27/21/38 15/20/38
f 11/47/39 33/13/39 7/26/39
f 16/50/40 6/23/40 15/20/40
f 32/9/41 31/34/41 20/10/41
f 18/32/42 25/19/42 40/18/42
f 32/9/43 8/51/43 13/52/43
f 20/10/44 33/13/44 34/8/44
f 13/52/45 7/26/45 14/22/45
f 15/20/46 24/16/46 38/15/46
f 25/19/47 36/6/47 37/5/47
f 44/40/48 42/46/48 3/41/48
f 7/26/49 20/10/49 31/34/49
f 21/7/50 38/15/50 39/12/50
f 10/27/51 21/7/51 36/6/51
f 7/26/52 12/30/52 11/47/52
f 35/28/53 43/24/53 44/40/53
f 2/53/54 40/18/54 41/17/54
f 22/25/55 42/46/55 43/24/55
f 34/8/56 26/14/56 12/37/56
f 27/21/57 19/3/57 28/2/57
f 1/42/58 11/47/58 12/30/58
f 14/22/59 23/11/59 29/4/59
f 44/40/60 43/24/60 42/46/60
f 40/18/61 4/33/61 18/32/61
f 12/30/62 26/14/62 35/28/62
f 28/2/63 5/54/63 16/50/63
f 42/46/64 22/25/64 11/47/64
f 11/47/65 22/25/65 33/13/65
f 6/23/66 19/3/66 27/21/66
f 10/27/67 16/50/67 15/20/67
f 6/23/68 13/52/68 14/22/68
f 30/1/69 5/54/69 28/2/69
f 34/8/70 8/51/70 32/9/70
f 39/12/71 9/35/71 37/5/71
f 33/13/72 22/25/72 26/14/72
f 32/9/73 13/48/73 30/1/73
f 28/2/74 16/43/74 39/12/74
f 37/5/75 17/39/75 41/17/75
f 2/31/76 17/36/76 18/32/76
f 18/32/77 17/36/77 9/44/77
f 16/50/78 5/49/78 6/23/78
f 13/52/79 8/38/79 7/26/79
f 7/26/80 8/38/80 12/30/80
f 2/53/81 4/33/81 40/18/81
f 1/42/82 3/41/82 11/47/82
f 10/27/83 9/44/83 16/50/83
f 6/23/84 5/49/84 13/52/84
