# Blender v2.92.0 OBJ File: 'algae.blend'
# www.blender.org
mtllib 28.mtl
o algae_cube_Cube
v -0.006676 0.148861 -0.895561
v -0.004752 0.114117 1.324296
v -0.002494 0.047471 0.033255
v -0.003403 -0.049696 -0.047504
v -0.004118 -0.017813 -0.602854
v -0.006220 0.129825 -0.358898
v -0.006259 0.066317 0.710025
v -0.006117 -0.020294 0.557398
v -0.005306 -0.032705 -0.922424
v -0.003142 0.147684 -0.751028
v -0.002725 0.091276 -0.211983
v -0.006101 -0.029669 -0.331829
v -0.005863 -0.097309 0.136741
v -0.001504 0.117720 0.347894
v -0.001273 0.065442 0.902331
v -0.004441 -0.017364 0.855634
v 0.004513 0.026378 -0.033426
v 0.005138 0.017465 -0.607451
v 0.006370 -0.086082 0.748468
v 0.001461 0.023273 -0.290503
v 0.006268 0.031239 0.241219
v 0.004972 0.034670 0.829237
v 0.006328 -0.018180 0.180359
v 0.003318 0.058895 0.093361
v 0.006033 0.012021 -0.160812
v 0.001377 0.077945 -0.171032
v 0.005654 0.029011 -0.477760
v 0.005435 0.089389 -0.569858
v 0.006535 -0.033155 -0.667248
v 0.001952 0.045329 -0.753270
v 0.002748 -0.062893 0.784581
v 0.004012 0.075673 0.651235
v 0.006577 -0.001889 0.447592
v 0.001644 0.024050 0.433124
vt 0.643463 0.399518
vt 0.608433 0.399032
vt 0.627218 0.287293
vt 0.644229 0.287478
vt 0.537200 0.398044
vt 0.538232 0.286325
vt 0.555494 0.286513
vt 0.714776 0.400507
vt 0.678809 0.400008
vt 0.697735 0.288059
vt 0.661241 0.287663
vt 0.572481 0.398533
vt 0.573425 0.286708
vt 0.591356 0.286903
vt 0.522054 -0.211154
vt 0.483530 0.675856
vt 0.520970 0.286138
vt 0.592689 0.011366
vt 0.609287 0.287098
vt 0.662490 0.012024
vt 0.628508 0.011703
vt 0.698940 0.012367
vt 0.715365 0.288251
vt 0.556870 0.011028
vt 0.679488 0.287861
vt 0.204504 0.007695
vt 0.518449 0.676186
vt 0.522387 0.010703
vt 0.556709 -0.210826
vt 0.734882 -0.209139
vt 0.695884 0.677866
vt 0.592707 -0.210485
vt 0.553104 0.676514
vt 0.662857 -0.209821
vt 0.625100 0.677196
vt 0.734157 0.012699
vt 0.699490 -0.209474
vt 0.659252 0.677519
vt 0.731277 0.678201
vt 0.766669 0.678536
vt 1.051103 0.015687
vt 0.770274 -0.208804
vt 0.628705 -0.210144
vt 0.589102 0.676855
vn 0.9987 0.0510 -0.0037
vn 0.9975 0.0710 0.0039
vn 0.9964 0.0538 0.0654
vn 0.9998 0.0066 -0.0206
vn 0.9974 0.0659 -0.0294
vn 0.9999 0.0070 -0.0125
vn 0.9786 0.2035 0.0312
vn 0.9998 -0.0195 0.0096
vn 0.9587 0.2823 0.0337
vn 0.9693 0.2449 -0.0203
vn 0.9405 -0.2633 0.2147
vn 0.9811 -0.1919 -0.0228
vn 0.9520 -0.2224 0.2105
vn -0.6850 -0.7015 -0.1968
vn 0.9901 0.1381 0.0265
vn 0.9997 0.0210 -0.0160
vn 0.9878 -0.1547 0.0174
vn -0.9989 0.0458 -0.0135
vn -0.6102 0.7920 0.0194
vn 0.9987 0.0495 0.0101
vn 0.9486 -0.3111 0.0575
vn 0.9984 0.0522 0.0205
vn 0.9939 -0.1079 0.0240
vn 0.9797 -0.2002 -0.0016
vn 0.9989 0.0396 0.0236
vn -0.9860 -0.1669 0.0072
vn -0.9999 -0.0117 0.0057
vn 0.9823 -0.0961 0.1609
vn 0.8247 0.5569 0.0987
vn 0.9899 -0.1399 -0.0229
vn -0.7493 -0.6613 0.0336
vn -0.9998 0.0168 -0.0090
vn 1.0000 -0.0021 -0.0038
vn 0.9850 0.1714 0.0216
vn 0.9990 0.0435 -0.0135
vn -1.0000 -0.0020 -0.0074
vn 0.9965 -0.0821 -0.0147
vn 0.9998 -0.0184 -0.0096
vn -0.9996 -0.0111 0.0243
vn 0.9677 -0.2515 0.0185
vn 0.9735 0.2199 0.0622
vn -0.9862 -0.1656 0.0074
vn -1.0000 0.0089 0.0033
vn 0.9952 -0.0396 -0.0892
vn 0.9993 0.0385 -0.0005
vn 0.9988 0.0144 -0.0463
vn 0.9932 -0.1073 -0.0443
vn 0.9868 -0.1560 0.0444
vn 0.3273 0.9220 -0.2069
vn 0.9948 -0.0982 -0.0289
vn -0.9997 0.0254 -0.0053
vn -1.0000 0.0014 0.0096
vn -0.9461 0.3225 0.0302
vn -0.5376 0.8221 -0.1873
vn -0.9017 0.4227 -0.0903
vn 0.9372 0.3483 0.0195
vn 0.9991 0.0420 0.0092
vn -0.9994 0.0236 0.0260
vn -0.9998 0.0220 -0.0018
vn -0.9997 0.0034 0.0247
vn -1.0000 -0.0012 -0.0079
vn 0.9984 0.0502 -0.0240
vn -0.9998 0.0172 -0.0107
vn -0.9997 0.0229 0.0050
usemtl algae_green
s off
f 26/1/1 24/2/1 17/3/1
f 17/3/2 25/4/2 26/1/2
f 32/5/3 31/6/3 19/7/3
f 30/8/4 28/9/4 18/10/4
f 26/1/5 25/4/5 20/11/5
f 34/12/6 32/5/6 19/7/6
f 34/12/7 33/13/7 21/14/7
f 28/9/8 26/1/8 20/11/8
f 24/2/9 34/12/9 21/14/9
f 15/15/10 2/16/10 22/17/10
f 21/14/11 13/18/11 23/19/11
f 12/20/12 25/4/12 4/21/12
f 18/10/13 5/22/13 29/23/13
f 33/13/14 19/7/14 8/24/14
f 32/5/15 15/15/15 22/17/15
f 21/14/16 23/19/16 24/2/16
f 20/11/17 12/20/17 27/25/17
f 2/26/18 15/27/18 16/28/18
f 32/5/19 7/29/19 15/27/19
f 30/8/20 10/30/20 6/31/20
f 13/18/21 33/13/21 8/24/21
f 34/12/22 14/32/22 7/33/22
f 17/3/23 4/21/23 25/4/23
f 5/22/24 27/25/24 12/20/24
f 20/11/25 27/25/25 28/9/25
f 8/24/26 31/6/26 16/28/26
f 16/28/27 7/33/27 8/24/27
f 22/17/28 16/28/28 31/6/28
f 26/1/29 11/34/29 3/35/29
f 4/21/30 23/19/30 13/18/30
f 9/36/31 29/23/31 5/22/31
f 13/18/32 3/35/32 4/21/32
f 28/9/33 27/25/33 18/10/33
f 28/9/34 6/37/34 11/38/34
f 18/10/35 29/23/35 30/8/35
f 12/20/36 6/31/36 5/22/36
f 13/18/37 21/14/37 33/13/37
f 22/17/38 31/6/38 32/5/38
f 10/39/39 1/40/39 9/36/39
f 5/22/40 18/10/40 27/25/40
f 19/7/41 33/13/41 34/12/41
f 8/24/42 19/7/42 31/6/42
f 5/22/43 10/39/43 9/36/43
f 1/41/44 30/8/44 29/23/44
f 23/19/45 17/3/45 24/2/45
f 29/23/46 9/36/46 1/42/46
f 12/20/47 20/11/47 25/4/47
f 2/16/48 16/28/48 22/17/48
f 24/2/49 3/43/49 14/44/49
f 4/21/50 17/3/50 23/19/50
f 8/24/51 14/44/51 13/18/51
f 3/35/52 12/20/52 4/21/52
f 26/1/53 3/43/53 24/2/53
f 30/8/54 6/37/54 28/9/54
f 34/12/55 7/29/55 32/5/55
f 28/9/56 11/34/56 26/1/56
f 24/2/57 14/32/57 34/12/57
f 16/28/58 15/27/58 7/33/58
f 13/18/59 14/44/59 3/35/59
f 12/20/60 11/38/60 6/31/60
f 5/22/61 6/31/61 10/39/61
f 1/41/62 10/30/62 30/8/62
f 8/24/63 7/33/63 14/44/63
f 3/35/64 11/38/64 12/20/64
