# Blender v2.92.0 OBJ File: 'algae.blend'
# www.blender.org
mtllib 64.mtl
o algae_cube_Cube
v -0.006314 0.034430 -2.281385
v -0.001454 0.055283 2.317350
v -0.004502 0.095284 -0.000000
v -0.007663 -0.093949 -0.000000
v -0.001856 -0.113085 -1.252219
v -0.000542 0.045855 -1.149510
v -0.003534 0.083973 1.217564
v -0.004870 -0.111596 1.270379
v -0.007669 -0.104147 -1.850335
v -0.003733 0.035137 -1.711748
v -0.001255 0.068992 -0.566932
v -0.007524 -0.105969 -0.596934
v -0.006686 -0.065371 0.595202
v -0.000263 0.053121 0.588107
v -0.001817 0.084498 1.804915
v -0.001861 -0.113354 1.887599
v 0.000477 -0.079393 0.000000
v 0.000390 -0.074043 -1.181995
v 0.006563 -0.011894 1.150008
v 0.000500 -0.039234 -1.716141
v 0.007685 -0.077529 -0.572733
v 0.007185 -0.082310 0.607431
v 0.003923 -0.084370 1.804601
v 0.002054 -0.001002 -1.693962
v 0.006723 -0.052649 0.293931
v 0.000255 0.026540 0.288878
v 0.007210 -0.070776 -0.284044
v 0.001821 0.015106 -0.272958
v 0.006871 -0.080973 -0.883793
v 0.006859 0.008237 -0.837561
v 0.003390 -0.043661 -1.434527
v 0.006021 0.034682 -1.426074
v 0.001421 -0.025812 1.433150
v 0.000262 0.016470 1.428358
v 0.003016 -0.062427 0.890044
v 0.000262 0.047453 0.877980
vt 0.643463 0.399518
vt 0.608433 0.399032
vt 0.627218 0.287293
vt 0.644229 0.287478
vt 0.537200 0.398044
vt 0.538232 0.286325
vt 0.555494 0.286513
vt 0.714776 0.400507
vt 0.678809 0.400008
vt 0.697735 0.288059
vt 0.661241 0.287663
vt 0.572481 0.398533
vt 0.715365 0.288251
vt 0.732449 0.400752
vt 0.573425 0.286708
vt 0.591356 0.286903
vt 0.522054 -0.211154
vt 0.483530 0.675856
vt 0.520970 0.286138
vt 0.592689 0.011366
vt 0.609287 0.287098
vt 0.662490 0.012024
vt 0.628508 0.011703
vt 0.698940 0.012367
vt 0.556870 0.011028
vt 0.731277 0.678201
vt 1.051103 0.015687
vt 0.679488 0.287861
vt 0.204504 0.007695
vt 0.518449 0.676186
vt 0.522387 0.010703
vt 0.556709 -0.210826
vt 0.734882 -0.209139
vt 0.695884 0.677866
vt 0.592707 -0.210485
vt 0.553104 0.676514
vt 0.732994 0.288443
vt 0.770274 -0.208804
vt 0.662857 -0.209821
vt 0.625100 0.677196
vt 0.734157 0.012699
vt 0.699490 -0.209474
vt 0.659252 0.677519
vt 0.766669 0.678536
vt 0.628705 -0.210144
vt 0.589102 0.676855
vn 1.0000 -0.0058 0.0029
vn 0.9979 0.0593 0.0255
vn 0.9994 0.0296 0.0196
vn 0.9981 -0.0610 -0.0042
vn 0.9980 0.0626 0.0002
vn 0.9899 0.1417 0.0080
vn 0.9994 -0.0324 -0.0105
vn 0.9996 0.0265 0.0129
vn 0.9993 0.0358 0.0085
vn 0.9983 0.0575 -0.0021
vn 0.9994 0.0340 0.0012
vn -0.7501 -0.6585 -0.0612
vn 0.8899 -0.4561 0.0094
vn 0.9979 -0.0647 0.0041
vn 0.9944 -0.1056 0.0070
vn 0.9878 0.1559 -0.0047
vn 0.9994 0.0340 -0.0006
vn 0.9966 0.0818 0.0063
vn 0.8808 -0.4735 0.0029
vn -1.0000 0.0005 0.0007
vn 0.9989 0.0469 -0.0030
vn 0.5872 0.8092 -0.0188
vn 0.9328 -0.3593 -0.0271
vn 0.9948 0.1017 0.0002
vn 0.8728 -0.4881 0.0059
vn 0.9207 -0.3902 0.0122
vn 1.0000 0.0015 -0.0026
vn 0.9980 -0.0636 -0.0050
vn -1.0000 0.0082 0.0049
vn 0.9994 -0.0313 -0.0161
vn 0.9269 -0.3697 -0.0645
vn 0.9975 0.0703 0.0025
vn 0.8901 -0.4552 0.0204
vn 0.9944 -0.1046 -0.0112
vn -0.9999 0.0167 0.0008
vn 0.9997 0.0113 -0.0215
vn 0.9881 0.1538 -0.0049
vn 0.9994 -0.0344 0.0077
vn -0.9999 0.0140 -0.0088
vn -0.7845 -0.6193 0.0320
vn 0.9996 0.0271 -0.0025
vn -0.9997 0.0238 0.0045
vn 0.9996 -0.0177 -0.0221
vn 0.9996 0.0231 -0.0181
vn 0.9951 -0.0981 0.0132
vn -0.9998 0.0183 0.0100
vn 0.9893 0.1419 -0.0336
vn 0.9964 0.0796 -0.0284
vn 0.9966 -0.0792 -0.0223
vn 0.8772 -0.4799 0.0127
vn 0.9948 -0.0948 0.0362
vn 0.9984 0.0556 -0.0032
vn 0.9948 -0.1008 -0.0118
vn 0.8725 -0.4879 0.0259
vn -0.9985 0.0545 0.0064
vn -0.9994 0.0360 -0.0010
vn 0.9972 0.0743 0.0013
vn 0.9591 0.2827 0.0113
vn 0.9977 0.0681 0.0038
vn 0.9994 -0.0344 -0.0108
vn 0.9951 0.0987 0.0077
vn 0.9995 0.0327 -0.0012
vn -1.0000 0.0014 0.0029
vn -0.9984 0.0548 0.0111
vn -0.9993 0.0363 -0.0027
vn -1.0000 0.0047 0.0056
vn -1.0000 0.0054 -0.0055
vn -0.9998 0.0167 -0.0065
usemtl algae_green
s off
f 28/1/1 26/2/1 17/3/1
f 17/3/2 27/4/2 28/1/2
f 34/5/3 33/6/3 19/7/3
f 32/8/4 30/9/4 18/10/4
f 28/1/5 27/4/5 21/11/5
f 36/12/6 34/5/6 19/7/6
f 31/13/7 24/14/7 32/8/7
f 36/12/8 35/15/8 22/16/8
f 30/9/9 28/1/9 21/11/9
f 26/2/10 36/12/10 22/16/10
f 15/17/11 2/18/11 23/19/11
f 22/16/12 13/20/12 25/21/12
f 12/22/13 27/4/13 4/23/13
f 18/10/14 5/24/14 31/13/14
f 35/15/15 19/7/15 8/25/15
f 10/26/16 24/14/16 1/27/16
f 34/5/17 15/17/17 23/19/17
f 22/16/18 25/21/18 26/2/18
f 21/11/19 12/22/19 29/28/19
f 2/29/20 15/30/20 16/31/20
f 34/5/21 7/32/21 15/30/21
f 32/8/22 10/33/22 6/34/22
f 13/20/23 35/15/23 8/25/23
f 36/12/24 14/35/24 7/36/24
f 17/3/25 4/23/25 27/4/25
f 5/24/26 29/28/26 12/22/26
f 21/11/27 29/28/27 30/9/27
f 8/25/28 33/6/28 16/31/28
f 16/31/29 7/36/29 8/25/29
f 20/37/30 1/38/30 24/14/30
f 23/19/31 16/31/31 33/6/31
f 28/1/32 11/39/32 3/40/32
f 4/23/33 25/21/33 13/20/33
f 9/41/34 31/13/34 5/24/34
f 13/20/35 3/40/35 4/23/35
f 30/9/36 29/28/36 18/10/36
f 30/9/37 6/42/37 11/43/37
f 18/10/38 31/13/38 32/8/38
f 12/22/39 6/34/39 5/24/39
f 13/20/40 22/16/40 35/15/40
f 23/19/41 33/6/41 34/5/41
f 10/26/42 1/44/42 9/41/42
f 5/24/43 18/10/43 29/28/43
f 19/7/44 35/15/44 36/12/44
f 8/25/45 19/7/45 33/6/45
f 5/24/46 10/26/46 9/41/46
f 32/8/47 24/14/47 10/33/47
f 25/21/48 17/3/48 26/2/48
f 20/37/49 9/41/49 1/38/49
f 12/22/50 21/11/50 27/4/50
f 2/18/51 16/31/51 23/19/51
f 26/2/52 3/45/52 14/46/52
f 9/41/53 20/37/53 31/13/53
f 4/23/54 17/3/54 25/21/54
f 8/25/55 14/46/55 13/20/55
f 4/23/56 11/43/56 12/22/56
f 28/1/57 3/45/57 26/2/57
f 32/8/58 6/42/58 30/9/58
f 36/12/59 7/32/59 34/5/59
f 31/13/60 20/37/60 24/14/60
f 30/9/61 11/39/61 28/1/61
f 26/2/62 14/35/62 36/12/62
f 16/31/63 15/30/63 7/36/63
f 13/20/64 14/46/64 3/40/64
f 12/22/65 11/43/65 6/34/65
f 5/24/66 6/34/66 10/26/66
f 8/25/67 7/36/67 14/46/67
f 4/23/68 3/40/68 11/43/68
