# Blender v2.92.0 OBJ File: 'algae.blend'
# www.blender.org
mtllib 78.mtl
o algae_cube_Cube
v -0.003792 0.115034 -1.879802
v -0.004839 0.098503 1.816431
v -0.001122 -0.045151 -1.678834
v -0.006609 -0.065220 1.718601
v -0.005255 0.066794 -0.000000
v -0.001095 -0.067853 -0.000000
v -0.001482 -0.052683 -0.846032
v -0.004172 0.105977 -0.921933
v -0.001199 0.075761 0.887574
v -0.006557 -0.053863 0.861659
v -0.005459 -0.059768 -1.279776
v -0.003037 0.114474 -1.408121
v -0.006937 0.087636 -0.429430
v -0.006463 -0.058324 -0.410901
v -0.002112 -0.090506 0.454979
v -0.001411 0.100217 0.463434
v -0.005754 0.075344 1.313953
v -0.001573 -0.052470 1.274411
v 0.006349 -0.010151 0.000000
v 0.002407 -0.014392 -0.822977
v 0.006372 -0.063658 0.872169
v 0.001070 -0.041986 -1.255412
v 0.002738 -0.011628 -0.396754
v 0.001531 -0.007838 0.417866
v 0.005131 -0.006206 1.237697
v 0.004586 0.071958 -1.301395
v 0.002441 -0.031351 0.211036
v 0.006509 0.050125 0.214528
v 0.006456 -0.016982 -0.198709
v 0.001125 0.059189 -0.205670
v 0.001303 -0.008898 -0.609170
v 0.006667 0.064634 -0.636439
v 0.001721 -0.038476 -1.043008
v 0.006549 0.043671 -1.047796
v 0.002128 0.055399 -1.472857
v 0.006045 -0.052625 1.067544
v 0.002817 0.058108 1.074421
v 0.006136 -0.023600 0.630192
v 0.004304 0.033547 0.634084
v 0.001171 -0.015703 1.443587
v 0.006548 0.065065 1.506336
v 0.006798 -0.071906 -1.403444
v 0.006287 0.031082 -1.342390
v 0.005565 0.024609 -1.543794
vt 0.643463 0.399518
vt 0.608433 0.399032
vt 0.627218 0.287293
vt 0.644229 0.287478
vt 0.537200 0.398044
vt 0.538232 0.286325
vt 0.555494 0.286513
vt 0.714776 0.400507
vt 0.678809 0.400008
vt 0.697735 0.288059
vt 0.661241 0.287663
vt 0.572481 0.398533
vt 0.715365 0.288251
vt 0.732449 0.400752
vt 0.573425 0.286708
vt 0.591356 0.286903
vt 0.502458 0.397562
vt 0.503577 0.285949
vt 0.520970 0.286138
vt 0.592689 0.011366
vt 0.609287 0.287098
vt 0.662490 0.012024
vt 0.628508 0.011703
vt 0.741032 0.345449
vt 0.732994 0.288443
vt 0.698940 0.012367
vt 0.556870 0.011028
vt 0.749097 0.400983
vt 1.051103 0.015687
vt 0.731277 0.678201
vt 0.487643 0.010376
vt 0.518449 0.676186
vt 0.522387 0.010703
vt 0.679488 0.287861
vt 0.556709 -0.210826
vt 0.734882 -0.209139
vt 0.695884 0.677866
vt 0.204504 0.007695
vt 0.522054 -0.211154
vt 0.758683 0.345668
vt 0.769373 0.013031
vt 0.766669 0.678536
vt 0.592707 -0.210485
vt 0.553104 0.676514
vt 0.770274 -0.208804
vt 0.741549 0.234612
vt 0.734157 0.012699
vt 0.662857 -0.209821
vt 0.625100 0.677196
vt 0.699490 -0.209474
vt 0.659252 0.677519
vt 0.483530 0.675856
vt 0.628705 -0.210144
vt 0.589102 0.676855
vn 0.9991 0.0399 -0.0119
vn 0.9976 0.0697 -0.0019
vn 0.9996 0.0291 0.0000
vn 0.9982 -0.0604 0.0028
vn 0.9975 0.0683 -0.0169
vn 0.9997 0.0260 0.0019
vn 0.9981 -0.0595 -0.0144
vn 0.9993 0.0333 -0.0192
vn 0.9999 -0.0115 0.0127
vn 0.9969 -0.0781 0.0022
vn 0.9968 -0.0784 0.0156
vn 0.9992 -0.0400 0.0089
vn 0.9999 0.0135 -0.0089
vn 0.9766 -0.2142 -0.0177
vn 0.9986 -0.0100 0.0515
vn 0.9943 -0.1061 0.0085
vn -0.5240 -0.8404 -0.1386
vn 0.9961 0.0887 -0.0015
vn -0.9995 -0.0289 -0.0122
vn 0.9987 -0.0503 0.0101
vn 0.9979 0.0619 -0.0203
vn 0.9816 -0.1907 -0.0091
vn 0.9455 0.3253 0.0104
vn 0.9872 0.1596 0.0051
vn 0.8480 0.5293 -0.0259
vn 0.9990 -0.0276 -0.0352
vn 0.9804 -0.1949 0.0283
vn 0.9951 0.0986 0.0052
vn 0.9918 -0.1280 0.0049
vn 0.9931 -0.1165 0.0099
vn 0.9971 -0.0756 -0.0077
vn 0.0536 -0.9986 0.0027
vn -0.9992 0.0389 0.0119
vn 0.9942 0.1079 0.0013
vn -0.8363 -0.5475 -0.0291
vn 0.9927 -0.1148 0.0366
vn 0.9256 0.3782 0.0147
vn 0.9964 -0.0849 -0.0020
vn 0.9611 -0.2763 -0.0043
vn -0.9995 -0.0309 -0.0038
vn 0.9975 -0.0702 0.0070
vn 0.9910 -0.1333 0.0129
vn 0.9267 0.3754 0.0192
vn 0.9983 -0.0585 0.0033
vn -0.9999 -0.0047 -0.0115
vn 0.9981 -0.0555 -0.0258
vn 0.9996 0.0293 -0.0026
vn 0.9989 -0.0338 -0.0320
vn 0.9944 -0.1057 0.0078
vn 0.9995 0.0317 0.0043
vn -0.6252 -0.7792 0.0430
vn -0.9998 0.0204 0.0088
vn 0.9917 0.1284 -0.0077
vn 0.9935 -0.1031 0.0476
vn 0.9989 -0.0204 0.0428
vn 0.9761 0.2167 0.0166
vn 0.9986 -0.0504 0.0134
vn -0.9999 0.0151 0.0016
vn 0.9822 -0.1864 -0.0235
vn 1.0000 0.0072 -0.0038
vn 0.9938 -0.1113 0.0081
vn 0.9931 0.1145 -0.0253
vn 0.9546 0.2965 -0.0293
vn 0.8568 -0.4979 0.1338
vn 0.9374 -0.3482 0.0029
vn 0.9918 -0.1280 0.0055
vn -0.9999 0.0042 -0.0113
vn -0.9994 -0.0309 0.0123
vn 0.8005 0.5993 0.0027
vn 0.9819 0.1890 -0.0099
vn 0.9866 0.1633 -0.0058
vn 0.9995 -0.0319 -0.0025
vn 0.9195 0.3927 0.0168
vn 0.9939 0.1097 0.0096
vn 0.7825 0.6224 -0.0168
vn -0.9999 0.0100 0.0014
vn -0.9995 -0.0294 -0.0107
vn -1.0000 0.0033 0.0081
vn -0.9998 -0.0200 -0.0064
vn -0.9998 -0.0182 -0.0027
vn 0.9994 -0.0250 0.0238
vn -0.9994 -0.0317 -0.0120
vn -0.9992 0.0407 0.0028
vn -1.0000 -0.0028 0.0038
usemtl algae_green
s off
f 30/1/1 28/2/1 19/3/1
f 19/3/2 29/4/2 30/1/2
f 37/5/3 36/6/3 21/7/3
f 34/8/4 32/9/4 20/10/4
f 30/1/5 29/4/5 23/11/5
f 39/12/6 37/5/6 21/7/6
f 33/13/7 26/14/7 34/8/7
f 39/12/8 38/15/8 24/16/8
f 32/9/9 30/1/9 23/11/9
f 28/2/10 39/12/10 24/16/10
f 41/17/11 40/18/11 25/19/11
f 24/16/12 15/20/12 27/21/12
f 37/5/13 41/17/13 25/19/13
f 14/22/14 29/4/14 6/23/14
f 43/24/15 26/14/15 22/25/15
f 20/10/16 7/26/16 33/13/16
f 38/15/17 21/7/17 10/27/17
f 35/28/18 1/29/18 12/30/18
f 4/31/19 17/32/19 18/33/19
f 24/16/20 27/21/20 28/2/20
f 26/14/21 43/24/21 35/28/21
f 23/11/22 14/22/22 31/34/22
f 37/5/23 9/35/23 17/32/23
f 34/8/24 12/36/24 8/37/24
f 2/38/25 41/17/25 17/39/25
f 44/40/26 3/41/26 1/42/26
f 15/20/27 38/15/27 10/27/27
f 39/12/28 16/43/28 9/44/28
f 19/3/29 6/23/29 29/4/29
f 7/26/30 31/34/30 14/22/30
f 23/11/31 31/34/31 32/9/31
f 10/27/32 36/6/32 18/33/32
f 18/33/33 9/44/33 10/27/33
f 35/28/34 44/40/34 1/45/34
f 3/41/35 42/46/35 11/47/35
f 25/19/36 18/33/36 36/6/36
f 30/1/37 13/48/37 5/49/37
f 6/23/38 27/21/38 15/20/38
f 11/47/39 33/13/39 7/26/39
f 15/20/40 5/49/40 6/23/40
f 32/9/41 31/34/41 20/10/41
f 18/33/42 25/19/42 40/18/42
f 32/9/43 8/50/43 13/51/43
f 20/10/44 33/13/44 34/8/44
f 13/51/45 7/26/45 14/22/45
f 15/20/46 24/16/46 38/15/46
f 25/19/47 36/6/47 37/5/47
f 44/40/48 42/46/48 3/41/48
f 7/26/49 20/10/49 31/34/49
f 21/7/50 38/15/50 39/12/50
f 10/27/51 21/7/51 36/6/51
f 7/26/52 12/30/52 11/47/52
f 35/28/53 43/24/53 44/40/53
f 2/52/54 40/18/54 41/17/54
f 22/25/55 42/46/55 43/24/55
f 34/8/56 26/14/56 12/36/56
f 27/21/57 19/3/57 28/2/57
f 1/42/58 11/47/58 12/30/58
f 14/22/59 23/11/59 29/4/59
f 44/40/60 43/24/60 42/46/60
f 40/18/61 4/31/61 18/33/61
f 12/30/62 26/14/62 35/28/62
f 28/2/63 5/53/63 16/54/63
f 42/46/64 22/25/64 11/47/64
f 11/47/65 22/25/65 33/13/65
f 6/23/66 19/3/66 27/21/66
f 10/27/67 16/54/67 15/20/67
f 5/49/68 14/22/68 6/23/68
f 30/1/69 5/53/69 28/2/69
f 34/8/70 8/50/70 32/9/70
f 39/12/71 9/35/71 37/5/71
f 33/13/72 22/25/72 26/14/72
f 32/9/73 13/48/73 30/1/73
f 28/2/74 16/43/74 39/12/74
f 37/5/75 17/39/75 41/17/75
f 4/31/76 2/38/76 17/32/76
f 18/33/77 17/32/77 9/44/77
f 15/20/78 16/54/78 5/49/78
f 13/51/79 8/37/79 7/26/79
f 7/26/80 8/37/80 12/30/80
f 2/52/81 4/31/81 40/18/81
f 1/42/82 3/41/82 11/47/82
f 10/27/83 9/44/83 16/54/83
f 5/49/84 13/51/84 14/22/84
