# Blender v2.92.0 OBJ File: 'algae.blend'
# www.blender.org
mtllib 84.mtl
o algae_cube_Cube
v -0.004859 0.044189 -2.124967
v -0.004789 0.067751 1.882397
v -0.004598 0.083918 -0.173439
v -0.003228 -0.083303 0.120735
v -0.004541 -0.096600 -0.816645
v -0.003535 0.054446 -1.099077
v -0.004342 0.080441 0.873940
v -0.003193 -0.091055 1.160175
v -0.003475 -0.092182 -1.375039
v -0.003352 0.047589 -1.590338
v -0.004256 0.068127 -0.619244
v -0.004336 -0.091160 -0.311393
v -0.003144 -0.066484 0.608638
v -0.004127 0.061944 0.400457
v -0.004275 0.082000 1.369471
v -0.004532 -0.089662 1.710102
v 0.003366 -0.060021 -0.090717
v 0.004047 -0.054495 -1.112286
v 0.003423 -0.024812 0.991736
v 0.004819 -0.033214 -1.593196
v 0.004208 -0.057672 -0.597964
v 0.004807 -0.063060 0.379495
v 0.004608 -0.067019 1.388820
v 0.004403 0.019179 -1.482486
v 0.003144 -0.045719 0.192871
v 0.004693 0.029541 0.320157
v 0.003617 -0.054692 -0.333164
v 0.003453 0.024516 -0.206261
v 0.004824 -0.058567 -0.878748
v 0.003624 0.021865 -0.715095
v 0.004257 -0.036879 -1.337337
v 0.003328 0.037435 -1.209626
v 0.004858 -0.034120 1.205324
v 0.004365 0.021293 1.320801
v 0.004849 -0.052847 0.658461
v 0.004804 0.039559 0.859046
vt 0.643463 0.399518
vt 0.608433 0.399032
vt 0.627218 0.287293
vt 0.644229 0.287478
vt 0.537200 0.398044
vt 0.538232 0.286325
vt 0.555494 0.286513
vt 0.714776 0.400507
vt 0.678809 0.400008
vt 0.697735 0.288059
vt 0.661241 0.287663
vt 0.572481 0.398533
vt 0.715365 0.288251
vt 0.732449 0.400752
vt 0.573425 0.286708
vt 0.591356 0.286903
vt 0.522054 -0.211154
vt 0.483530 0.675856
vt 0.520970 0.286138
vt 0.592689 0.011366
vt 0.609287 0.287098
vt 0.662490 0.012024
vt 0.628508 0.011703
vt 0.698940 0.012367
vt 0.556870 0.011028
vt 0.731277 0.678201
vt 1.051103 0.015687
vt 0.679488 0.287861
vt 0.204504 0.007695
vt 0.518449 0.676186
vt 0.522387 0.010703
vt 0.556709 -0.210826
vt 0.734882 -0.209139
vt 0.695884 0.677866
vt 0.592707 -0.210485
vt 0.553104 0.676514
vt 0.732994 0.288443
vt 0.770274 -0.208804
vt 0.662857 -0.209821
vt 0.625100 0.677196
vt 0.734157 0.012699
vt 0.589102 0.676855
vt 0.699490 -0.209474
vt 0.659252 0.677519
vt 0.766669 0.678536
vt 0.628705 -0.210144
vn 1.0000 -0.0042 -0.0023
vn 1.0000 0.0004 0.0010
vn 0.9998 0.0210 -0.0058
vn 1.0000 0.0074 -0.0004
vn 1.0000 -0.0015 0.0022
vn 0.9998 -0.0212 0.0001
vn 1.0000 0.0065 0.0035
vn 1.0000 0.0009 -0.0002
vn 1.0000 0.0078 0.0003
vn 1.0000 0.0011 -0.0002
vn 0.9982 0.0598 0.0027
vn -0.8722 -0.4877 -0.0375
vn 0.9772 -0.2123 0.0014
vn 0.9154 -0.4013 -0.0306
vn 0.9973 -0.0731 0.0104
vn 0.9687 0.2480 -0.0043
vn 0.9936 0.0707 0.0882
vn 0.9999 -0.0048 -0.0094
vn 0.9745 -0.2242 0.0029
vn -1.0000 -0.0005 -0.0010
vn 0.9900 0.1414 -0.0006
vn 0.9150 0.4035 -0.0053
vn 0.8927 -0.4502 -0.0200
vn 0.9752 0.2212 -0.0082
vn 0.9462 -0.3237 -0.0061
vn 0.9718 -0.2358 0.0021
vn 0.9999 0.0105 0.0022
vn 0.9898 -0.1422 0.0028
vn -0.9999 -0.0107 -0.0024
vn 0.9993 0.0355 -0.0130
vn -0.9694 -0.2413 -0.0446
vn 0.9906 0.1365 -0.0041
vn 0.9840 -0.1783 0.0060
vn 0.9903 -0.1390 0.0008
vn -1.0000 -0.0070 0.0004
vn 0.9998 0.0209 -0.0030
vn 0.9846 0.1750 -0.0035
vn 1.0000 0.0096 0.0017
vn -1.0000 0.0073 0.0003
vn 0.8283 -0.5599 0.0204
vn 1.0000 0.0044 0.0022
vn -1.0000 0.0052 0.0028
vn 0.9680 -0.2508 -0.0076
vn 0.9999 -0.0108 0.0052
vn 0.9914 -0.1304 -0.0123
vn -1.0000 -0.0021 -0.0019
vn 0.9746 0.2237 -0.0111
vn 0.9997 -0.0240 0.0020
vn 0.9090 -0.4097 -0.0762
vn 0.9776 -0.2105 0.0045
vn 0.9993 -0.0274 0.0265
vn 0.9700 0.2430 0.0085
vn 0.9904 -0.1386 0.0002
vn 0.9825 -0.1860 0.0102
vn -1.0000 -0.0074 -0.0004
vn -1.0000 0.0053 0.0025
vn 0.9907 0.1363 -0.0036
vn 0.9473 0.3203 0.0095
vn 0.9766 0.2150 0.0094
vn 1.0000 0.0032 0.0022
vn 0.9856 0.1690 -0.0005
vn 0.9615 0.2749 -0.0053
vn -1.0000 0.0018 0.0001
vn -1.0000 -0.0072 0.0005
vn -1.0000 -0.0023 -0.0014
vn -1.0000 0.0058 -0.0005
vn -1.0000 -0.0079 -0.0001
vn -1.0000 -0.0090 -0.0004
usemtl algae_green
s off
f 28/1/1 26/2/1 17/3/1
f 17/3/2 27/4/2 28/1/2
f 34/5/3 33/6/3 19/7/3
f 32/8/4 30/9/4 18/10/4
f 28/1/5 27/4/5 21/11/5
f 36/12/6 34/5/6 19/7/6
f 31/13/7 24/14/7 32/8/7
f 36/12/8 35/15/8 22/16/8
f 30/9/9 28/1/9 21/11/9
f 26/2/10 36/12/10 22/16/10
f 15/17/11 2/18/11 23/19/11
f 22/16/12 13/20/12 25/21/12
f 12/22/13 27/4/13 4/23/13
f 18/10/14 5/24/14 31/13/14
f 35/15/15 19/7/15 8/25/15
f 10/26/16 24/14/16 1/27/16
f 34/5/17 15/17/17 23/19/17
f 22/16/18 25/21/18 26/2/18
f 21/11/19 12/22/19 29/28/19
f 2/29/20 15/30/20 16/31/20
f 34/5/21 7/32/21 15/30/21
f 32/8/22 10/33/22 6/34/22
f 13/20/23 35/15/23 8/25/23
f 36/12/24 14/35/24 7/36/24
f 17/3/25 4/23/25 27/4/25
f 5/24/26 29/28/26 12/22/26
f 21/11/27 29/28/27 30/9/27
f 8/25/28 33/6/28 16/31/28
f 16/31/29 7/36/29 8/25/29
f 20/37/30 1/38/30 24/14/30
f 23/19/31 16/31/31 33/6/31
f 28/1/32 11/39/32 3/40/32
f 4/23/33 25/21/33 13/20/33
f 9/41/34 31/13/34 5/24/34
f 14/42/35 4/23/35 13/20/35
f 30/9/36 29/28/36 18/10/36
f 30/9/37 6/43/37 11/44/37
f 18/10/38 31/13/38 32/8/38
f 12/22/39 6/34/39 5/24/39
f 13/20/40 22/16/40 35/15/40
f 23/19/41 33/6/41 34/5/41
f 10/26/42 1/45/42 9/41/42
f 5/24/43 18/10/43 29/28/43
f 19/7/44 35/15/44 36/12/44
f 8/25/45 19/7/45 33/6/45
f 5/24/46 10/26/46 9/41/46
f 32/8/47 24/14/47 10/33/47
f 25/21/48 17/3/48 26/2/48
f 20/37/49 9/41/49 1/38/49
f 12/22/50 21/11/50 27/4/50
f 2/18/51 16/31/51 23/19/51
f 26/2/52 3/46/52 14/42/52
f 9/41/53 20/37/53 31/13/53
f 4/23/54 17/3/54 25/21/54
f 7/36/55 13/20/55 8/25/55
f 4/23/56 11/44/56 12/22/56
f 28/1/57 3/46/57 26/2/57
f 32/8/58 6/43/58 30/9/58
f 36/12/59 7/32/59 34/5/59
f 31/13/60 20/37/60 24/14/60
f 30/9/61 11/39/61 28/1/61
f 26/2/62 14/35/62 36/12/62
f 16/31/63 15/30/63 7/36/63
f 14/42/64 3/40/64 4/23/64
f 12/22/65 11/44/65 6/34/65
f 5/24/66 6/34/66 10/26/66
f 7/36/67 14/42/67 13/20/67
f 4/23/68 3/40/68 11/44/68
