# Blender v2.92.0 OBJ File: 'algae.blend'
# www.blender.org
mtllib 86.mtl
o algae_cube_Cube
v -0.006386 0.102612 -1.220647
v 0.003964 0.097990 -1.214174
v 0.002392 0.083813 0.000000
v 0.006256 -0.082611 0.000000
v -0.005989 -0.069105 -0.000000
v 0.005229 0.009673 0.000000
v 0.006244 -0.071040 -0.591187
v 0.003966 0.092285 -0.904947
v -0.001951 0.083155 -0.288378
v 0.006151 0.088424 0.305573
v 0.003312 -0.017950 0.000000
v -0.004228 0.041013 -1.158884
v 0.005517 0.059296 0.000000
v 0.005647 0.061562 -0.880199
v 0.005976 0.049805 -0.280911
v -0.004849 0.053291 -0.281516
v 0.002154 0.095088 0.153872
v -0.006166 -0.055096 0.148541
v -0.003382 -0.041557 0.147380
v 0.001890 -0.062684 -0.141675
v 0.002235 -0.022801 -0.138804
v -0.005034 0.063239 -0.141734
v 0.003981 0.073255 -0.439036
v 0.005494 -0.054714 -0.432897
v -0.001754 -0.071320 -0.438312
v -0.004467 0.013389 -0.425616
v 0.005637 -0.017061 -0.425905
v -0.006122 -0.044724 -0.430327
v -0.006158 0.052388 -0.432253
v -0.002262 -0.035009 -0.722311
v -0.006317 -0.084530 -1.038714
v -0.004284 0.099560 -1.055475
v -0.006086 -0.034331 -1.002569
v 0.005992 0.049802 -1.010454
v -0.004635 0.052640 -1.012215
v 0.006279 0.097693 0.462953
v 0.005996 0.085895 0.380988
v -0.005892 0.100227 0.386907
v 0.001932 0.101721 0.232546
v -0.001684 0.023507 0.219506
v -0.006140 0.047025 0.221714
v 0.002012 0.098438 0.077224
v 0.005397 -0.069077 0.075041
v -0.005004 -0.069040 0.075039
v -0.001897 0.016269 0.073041
v -0.002275 -0.041944 0.073704
v 0.005765 -0.023004 0.073158
v -0.003972 -0.058057 -0.070602
v -0.001725 0.001183 -0.069184
v -0.005939 -0.024133 -0.069429
v -0.001765 0.053851 -0.070404
v 0.003055 -0.061547 -0.212334
v -0.001902 -0.058462 -0.211867
v 0.001951 0.023028 -0.208220
v -0.006092 -0.030507 -0.208725
v 0.001682 -0.022707 -0.208201
v 0.005039 0.059647 -0.212044
v -0.004424 0.056380 -0.211565
v -0.002022 0.077532 -0.363781
v 0.006161 -0.056820 -0.357838
v 0.002575 0.009960 -0.351155
v 0.005017 -0.015016 -0.351424
v 0.005039 0.049812 -0.356242
v 0.002246 0.099748 -0.529597
v 0.005072 -0.057847 -0.509530
v -0.003895 -0.062865 -0.511371
v -0.002539 0.015541 -0.500096
v 0.006069 -0.017250 -0.500266
v -0.002835 -0.034423 -0.502963
v -0.005425 -0.067163 -0.664114
v 0.001705 -0.004233 -0.646441
v 0.005955 -0.029825 -0.649869
v -0.004382 -0.022010 -0.648276
v 0.002404 0.039629 -0.652548
v 0.006035 0.010845 -0.789225
v 0.005499 -0.042702 -0.797412
v -0.001747 -0.043758 -0.797850
v 0.004851 0.051987 -0.801631
v -0.006121 -0.076613 -0.961037
v 0.005520 0.047677 -1.086105
vt 0.610625 -0.042429
vt 0.653994 0.011944
vt 0.654073 -0.042019
vt 0.590013 0.453976
vt 0.599012 0.454114
vt 0.581014 0.453838
vt 0.610599 0.011534
vt 0.619553 0.011619
vt 0.619629 -0.099305
vt 0.637123 -0.099140
vt 0.637183 -0.154602
vt 0.645710 -0.154521
vt 0.654238 -0.154440
vt 0.662765 -0.154360
vt 0.619590 -0.042344
vt 0.617010 0.454390
vt 0.608011 0.454252
vt 0.662857 -0.209821
vt 0.668410 0.677606
vt 0.678474 0.455334
vt 0.724179 0.288347
vt 0.723892 0.345237
vt 0.723612 0.400629
vt 0.732449 0.400752
vt 0.732180 0.456158
vt 0.770274 -0.208804
vt 0.770049 -0.153345
vt 0.751349 -0.153522
vt 0.750940 -0.041105
vt 0.750743 0.012855
vt 0.742450 0.012777
vt 0.725518 -0.041345
vt 0.716704 -0.041428
vt 0.689950 -0.041680
vt 0.708024 -0.041510
vt 0.690080 -0.098640
vt 0.681059 -0.154187
vt 0.680944 -0.098726
vt 0.670364 0.287762
vt 0.679488 0.287861
vt 0.670009 0.344569
vt 0.680827 -0.041766
vt 0.747946 0.678359
vt 0.652357 0.344350
vt 0.652735 0.287570
vt 0.644229 0.287478
vt 0.653093 0.233779
vt 0.644598 0.233698
vt 0.628508 0.011703
vt 0.627607 0.233538
vt 0.637003 0.011783
vt 0.618652 0.233454
vt 0.651990 0.399636
vt 0.669663 0.399881
vt 0.660517 0.399754
vt 0.706075 0.400386
vt 0.706376 0.345020
vt 0.706686 0.288157
vt 0.687632 0.455474
vt 0.583707 -0.210570
vt 0.601691 -0.154937
vt 0.601675 -0.099475
vt 0.758446 0.401113
vt 0.749097 0.400983
vt 0.767570 0.456701
vt 0.627218 0.287293
vt 0.626808 0.344033
vt 0.626009 0.454529
vt 0.626409 0.399281
vt 0.637062 -0.042179
vt 0.572015 0.453700
vt 0.680715 0.012195
vt 0.707880 0.012451
vt 0.689828 0.012281
vt 0.698039 0.234202
vt 0.688612 0.287960
vt 0.688927 0.234116
vt 0.618253 0.287195
vt 0.679814 0.234030
vt 0.670701 0.233945
vt 0.980670 0.015023
vt 1.051103 0.015687
vt 0.580102 0.676770
vn 0.9889 0.1485 -0.0029
vn 0.9275 0.3736 0.0144
vn 0.9790 -0.1968 0.0528
vn 1.0000 0.0008 0.0011
vn -0.9729 -0.2309 0.0142
vn -0.9965 0.0806 0.0202
vn -0.9999 -0.0151 0.0067
vn 0.9999 -0.0063 0.0151
vn -0.9993 -0.0366 0.0003
vn -0.9990 0.0420 0.0127
vn 0.2141 -0.9741 0.0724
vn -0.9964 -0.0030 0.0851
vn 0.9974 0.0695 0.0186
vn -0.9994 -0.0350 0.0000
vn -1.0000 0.0030 0.0022
vn 0.9993 0.0372 0.0025
vn 0.9889 0.1488 0.0022
vn 0.9985 0.0479 0.0272
vn 0.9952 0.0972 0.0056
vn 0.9996 -0.0074 0.0257
vn 0.9987 -0.0317 0.0407
vn 0.9998 -0.0181 -0.0127
vn -0.9994 -0.0053 0.0350
vn -0.9891 0.1338 0.0607
vn -0.9992 0.0340 0.0227
vn -0.9995 0.0227 0.0222
vn 0.7370 -0.0046 -0.6758
vn 0.9993 0.0362 -0.0079
vn -0.0286 0.1048 -0.9941
vn 0.9998 -0.0098 0.0163
vn 0.7350 0.6664 0.1253
vn -0.9581 -0.2836 0.0402
vn 0.9965 -0.0834 0.0057
vn 0.9988 -0.0476 0.0087
vn -0.9837 -0.1792 0.0122
vn 0.9981 -0.0605 0.0099
vn -0.9999 0.0162 0.0022
vn -0.9862 -0.1653 0.0108
vn -0.9996 -0.0262 0.0115
vn -0.8891 0.4530 -0.0648
vn -0.9983 -0.0574 -0.0051
vn 0.9949 -0.0995 0.0155
vn -0.9795 -0.1915 0.0631
vn -0.9863 -0.1573 -0.0493
vn 0.9813 0.1922 -0.0115
vn -0.1553 0.9428 0.2951
vn 0.8850 0.4370 0.1609
vn -0.0000 0.0000 1.0000
vn -0.9941 -0.0090 0.1077
vn 0.9956 -0.0911 0.0221
vn -0.7459 -0.6589 0.0974
vn -0.9742 -0.0640 0.2164
vn 0.9977 -0.0670 0.0019
vn -0.6723 -0.6792 0.2944
vn -0.9968 -0.0464 0.0653
vn 0.2140 0.9238 0.3175
vn -0.1483 0.9860 0.0756
vn -0.9998 0.0198 0.0095
vn -0.4763 -0.8788 0.0295
vn -0.9994 0.0333 0.0135
vn 0.9994 -0.0289 0.0190
vn 0.4596 -0.8757 0.1481
vn -0.9994 0.0094 0.0342
vn 0.9994 0.0339 0.0026
vn 0.9876 0.1427 0.0649
vn -0.9996 -0.0286 0.0081
vn -0.9943 -0.0977 0.0418
vn -0.9180 0.3964 0.0130
vn 0.9537 0.2994 -0.0291
vn -0.9991 -0.0433 -0.0014
vn -0.9958 0.0601 0.0686
vn -0.9986 0.0520 -0.0066
vn -0.9987 -0.0473 -0.0168
vn 0.9964 0.0845 -0.0050
vn 0.9995 -0.0287 -0.0141
vn -0.9275 -0.3736 -0.0144
vn 0.9944 -0.1025 -0.0261
vn 0.9994 -0.0196 -0.0294
vn 0.9993 0.0366 -0.0003
vn -0.9790 0.1968 -0.0528
vn -1.0000 -0.0008 -0.0011
vn 0.9729 0.2309 -0.0142
vn 0.9999 0.0151 -0.0067
vn 0.9965 -0.0806 -0.0202
vn -0.9999 0.0063 -0.0151
vn 0.9986 -0.0516 -0.0137
vn 0.9581 0.2836 -0.0402
vn -0.7350 -0.6664 -0.1253
vn -0.2141 0.9741 -0.0724
vn -0.9986 -0.0391 -0.0344
vn -0.9995 0.0144 -0.0288
vn -0.9974 -0.0695 -0.0186
vn 0.9994 0.0350 -0.0000
vn 1.0000 -0.0030 -0.0022
vn -0.9988 0.0353 -0.0348
vn -0.9974 0.0709 -0.0150
vn -0.9985 -0.0479 -0.0272
vn -0.9952 -0.0972 -0.0056
vn -0.9987 0.0317 -0.0407
vn -0.9996 0.0074 -0.0257
vn -0.9998 0.0181 0.0127
vn 0.9994 0.0350 0.0051
vn -0.9994 -0.0355 -0.0018
vn 1.0000 0.0019 -0.0002
vn 0.9996 -0.0269 0.0001
vn -0.9993 -0.0362 0.0079
vn -0.7370 0.0046 0.6758
vn -0.9998 0.0098 -0.0163
vn 0.0286 -0.1048 0.9941
vn -0.9988 0.0476 -0.0087
vn -0.9965 0.0834 -0.0057
vn -0.9981 0.0605 -0.0099
vn 0.9837 0.1792 -0.0122
vn -0.9860 -0.1661 0.0176
vn 0.9998 -0.0140 0.0136
vn 0.9996 0.0262 -0.0115
vn 0.8891 -0.4530 0.0648
vn 0.9998 -0.0217 -0.0028
vn 0.9955 -0.0893 0.0320
vn -0.9989 0.0454 0.0153
vn -0.9949 0.0995 -0.0155
vn 0.9972 0.0594 -0.0451
vn 0.9795 0.1915 -0.0631
vn 0.6723 0.6792 -0.2944
vn 0.7459 0.6589 -0.0974
vn 0.9968 0.0464 -0.0653
vn 0.0000 -0.0000 -1.0000
vn 0.9857 0.1618 -0.0462
vn 0.8330 -0.5531 0.0103
vn 0.9960 -0.0891 -0.0121
vn -0.9991 -0.0414 -0.0114
vn -0.9969 -0.0779 0.0099
vn -0.9977 -0.0090 -0.0669
vn -0.9770 -0.2133 0.0040
vn -0.9973 0.0731 0.0090
vn 0.9994 -0.0094 -0.0342
vn -0.9983 0.0574 -0.0039
vn 0.9943 0.0977 -0.0418
vn -0.7837 0.4732 -0.4024
vn 0.9996 0.0286 -0.0081
vn 0.9958 -0.0601 -0.0686
vn 0.9863 0.1646 -0.0087
vn 0.9887 0.1493 -0.0097
vn 0.9765 -0.2152 0.0137
vn -0.9994 0.0289 -0.0190
vn -0.4596 0.8757 -0.1481
vn 0.4763 0.8788 -0.0295
vn 0.9767 0.2142 -0.0158
vn -0.9897 0.1428 -0.0022
vn 0.9998 0.0192 -0.0001
vn -0.3822 -0.9228 -0.0478
vn -0.4532 0.7943 -0.4045
vn -0.9991 0.0407 -0.0116
usemtl algae_green
s off
f 19/1/1 53/2/1 55/3/1
f 10/4/2 39/5/2 37/6/2
f 19/1/3 18/7/3 44/8/3
f 45/9/4 49/10/4 51/11/4
f 51/11/5 22/12/5 58/13/5
f 51/11/6 58/13/6 45/9/6
f 58/13/7 16/14/7 45/9/7
f 46/15/8 45/9/8 19/1/8
f 42/16/9 17/17/9 39/5/9
f 45/9/10 16/14/10 19/1/10
f 9/18/11 59/19/11 23/20/11
f 76/21/12 75/22/12 78/23/12
f 78/23/13 14/24/13 8/25/13
f 1/26/14 12/27/14 35/28/14
f 33/29/15 31/30/15 79/31/15
f 77/32/16 30/33/16 69/34/16
f 30/33/17 73/35/17 69/34/17
f 67/36/18 29/37/18 26/38/18
f 62/39/19 27/40/19 61/41/19
f 67/36/20 26/38/20 69/34/20
f 26/38/21 28/42/21 69/34/21
f 1/26/22 35/28/22 33/29/22
f 76/21/23 78/23/23 32/43/23
f 78/23/24 8/25/24 32/43/24
f 1/26/25 33/29/25 77/32/25
f 33/29/26 79/31/26 77/32/26
f 54/44/27 56/45/27 53/2/27
f 56/45/28 21/46/28 52/47/28
f 53/2/29 56/45/29 52/47/29
f 21/46/30 20/48/30 52/47/30
f 5/49/31 4/50/31 48/51/31
f 4/50/32 43/52/32 48/51/32
f 57/53/33 54/44/33 63/54/33
f 54/44/34 53/2/34 61/41/34
f 63/54/35 15/55/35 57/53/35
f 61/41/36 63/54/36 54/44/36
f 74/56/37 71/57/37 61/41/37
f 71/57/38 72/58/38 61/41/38
f 23/20/39 64/59/39 74/56/39
f 9/18/40 23/20/40 74/56/40
f 9/18/41 74/56/41 61/41/41
f 44/8/42 46/15/42 19/1/42
f 38/60/43 41/61/43 40/62/43
f 76/21/44 32/43/44 80/63/44
f 32/43/45 34/64/45 80/63/45
f 76/21/46 80/63/46 77/32/46
f 80/63/47 2/65/47 77/32/47
f 11/66/48 6/67/48 3/68/48
f 6/67/48 13/69/48 3/68/48
f 11/66/49 3/68/49 48/51/49
f 3/68/50 42/16/50 50/70/50
f 37/6/51 36/71/51 38/60/51
f 3/68/52 50/70/52 48/51/52
f 42/16/53 39/5/53 50/70/53
f 37/6/54 38/60/54 40/62/54
f 37/6/55 40/62/55 19/1/55
f 2/65/56 1/26/56 77/32/56
f 76/21/57 77/32/57 25/72/57
f 73/35/58 70/73/58 66/74/58
f 70/73/59 7/75/59 66/74/59
f 73/35/60 66/74/60 69/34/60
f 7/75/61 68/76/61 65/77/61
f 7/75/62 65/77/62 66/74/62
f 43/52/63 47/78/63 11/66/63
f 77/32/64 69/34/64 25/72/64
f 69/34/65 28/42/65 25/72/65
f 24/79/66 60/80/66 62/39/66
f 24/79/67 62/39/67 61/41/67
f 25/72/68 24/79/68 76/21/68
f 72/58/69 76/21/69 61/41/69
f 76/21/70 24/79/70 61/41/70
f 48/51/71 43/52/71 11/66/71
f 61/41/72 53/2/72 19/1/72
f 9/18/73 61/41/73 19/1/73
f 55/3/74 50/70/74 19/1/74
f 50/70/75 39/5/75 19/1/75
f 39/5/76 10/4/76 37/6/76
f 16/14/77 9/18/77 19/1/77
f 39/5/78 37/6/78 19/1/78
f 39/5/79 17/17/79 42/16/79
f 44/8/80 18/7/80 19/1/80
f 51/11/81 49/10/81 45/9/81
f 58/13/82 22/12/82 51/11/82
f 16/14/83 58/13/83 45/9/83
f 58/13/84 51/11/84 45/9/84
f 45/9/85 46/15/85 19/1/85
f 16/14/86 45/9/86 50/70/86
f 43/52/87 4/50/87 48/51/87
f 4/50/88 5/49/88 48/51/88
f 23/20/89 59/19/89 9/18/89
f 78/23/90 75/22/90 71/57/90
f 75/22/91 76/21/91 71/57/91
f 8/25/92 14/24/92 78/23/92
f 35/28/93 12/81/93 1/82/93
f 79/31/94 31/30/94 33/29/94
f 73/35/95 30/33/95 70/73/95
f 30/33/96 77/32/96 70/73/96
f 26/38/97 29/37/97 67/36/97
f 61/41/98 27/40/98 62/39/98
f 28/42/99 26/38/99 69/34/99
f 26/38/100 67/36/100 69/34/100
f 33/29/101 35/28/101 1/82/101
f 8/25/102 78/23/102 34/64/102
f 80/63/103 78/23/103 2/65/103
f 79/31/94 33/29/94 70/73/94
f 33/29/104 1/82/104 50/70/104
f 55/3/105 33/29/105 50/70/105
f 21/46/106 56/45/106 52/47/106
f 56/45/107 54/44/107 53/2/107
f 52/47/108 20/48/108 21/46/108
f 53/2/109 52/47/109 56/45/109
f 53/2/110 54/44/110 61/41/110
f 54/44/111 57/53/111 63/54/111
f 61/41/112 54/44/112 63/54/112
f 57/53/113 15/55/113 63/54/113
f 72/58/114 71/57/114 76/21/114
f 71/57/115 74/56/115 9/18/115
f 74/56/116 64/59/116 23/20/116
f 74/56/117 23/20/117 9/18/117
f 50/70/118 1/82/118 16/14/118
f 71/57/119 9/18/119 16/14/119
f 45/9/120 19/1/120 37/6/120
f 46/15/121 44/8/121 19/1/121
f 50/70/122 45/9/122 48/51/122
f 40/62/123 41/61/123 38/83/123
f 40/62/124 38/83/124 37/6/124
f 38/83/125 36/71/125 37/6/125
f 19/1/126 40/62/126 37/6/126
f 3/68/127 13/69/127 6/67/127
f 3/68/127 6/67/127 11/66/127
f 34/64/128 32/43/128 8/25/128
f 78/23/129 80/63/129 34/64/129
f 2/65/130 78/23/130 71/57/130
f 2/65/131 71/57/131 16/14/131
f 42/16/132 3/68/132 37/6/132
f 3/68/133 11/66/133 45/9/133
f 39/5/134 42/16/134 37/6/134
f 3/68/135 45/9/135 37/6/135
f 11/66/136 47/78/136 43/52/136
f 53/2/137 61/41/137 25/72/137
f 61/41/138 62/39/138 24/79/138
f 61/41/139 24/79/139 25/72/139
f 62/39/140 60/80/140 24/79/140
f 11/66/141 43/52/141 48/51/141
f 53/2/142 25/72/142 28/42/142
f 55/3/143 53/2/143 28/42/143
f 55/3/144 28/42/144 69/34/144
f 65/77/145 68/76/145 7/75/145
f 66/74/146 65/77/146 7/75/146
f 66/74/147 7/75/147 70/73/147
f 66/74/148 70/73/148 55/3/148
f 79/31/149 70/73/149 77/32/149
f 55/3/150 70/73/150 33/29/150
f 1/82/151 2/65/151 16/14/151
f 11/66/152 48/51/152 45/9/152
f 55/3/153 69/34/153 66/74/153
