# Blender v2.92.0 OBJ File: 'algae.blend'
# www.blender.org
mtllib 95.mtl
o algae_cube_Cube
v -0.004956 0.072663 -1.988783
v 0.004922 -0.076414 2.012087
v -0.003092 0.075436 -0.000000
v 0.004600 -0.000744 0.000000
v -0.004957 -0.076031 -0.994390
v 0.004941 0.000613 -1.006065
v -0.003300 -0.000832 -0.996345
v 0.004842 0.074303 -1.508923
v -0.003259 -0.075879 -0.480734
v 0.003043 -0.001668 -0.484320
v -0.003148 -0.000583 0.506790
v -0.004961 0.073463 0.505702
v -0.004954 -0.076043 1.498252
v 0.004849 -0.001761 1.515673
v 0.004755 -0.040185 -1.005846
v -0.003187 -0.038229 -0.480775
v -0.003220 -0.039359 0.506747
v -0.004413 -0.038537 1.499213
v 0.004771 -0.040633 1.515534
v -0.003319 0.036734 -0.000000
v 0.004845 0.036139 0.000000
v -0.003133 0.037216 -0.996542
v 0.004737 0.035960 -1.508738
v -0.004961 0.036181 -0.479766
v -0.004959 -0.076277 0.252852
v -0.003265 -0.001330 0.253360
v 0.004925 -0.000010 0.255816
v 0.004669 -0.039254 0.255739
v -0.003134 0.037121 0.253399
v 0.004835 0.074269 -0.242670
v 0.003042 -0.039963 -0.242160
v 0.004684 0.036656 -0.242627
v 0.004703 -0.077181 -0.745525
v -0.003192 -0.001020 -0.738622
v -0.004960 0.073826 -0.737076
v 0.004756 -0.040485 -0.745571
v -0.003310 -0.037994 -0.738519
v 0.003047 0.036289 -0.744077
v -0.003235 0.073284 -1.245528
v 0.004570 -0.000193 -1.257035
v -0.004959 -0.038659 -1.242985
v -0.003288 0.036632 -1.245449
v 0.004904 0.037513 -1.257527
v -0.004961 0.036230 -1.725752
v -0.004957 -0.039946 1.254828
v 0.004921 -0.075718 0.767445
v -0.003286 -0.075965 0.760060
v 0.003046 -0.001692 0.765758
v -0.003247 -0.039456 0.760095
v 0.004959 -0.039824 1.652352
v 0.004886 -0.075907 1.887935
v 0.004375 -0.040324 1.886806
v 0.004953 -0.001743 1.392719
v 0.004503 0.036986 1.391984
v 0.004387 0.074088 1.145677
v 0.003360 -0.076559 1.144297
v -0.004912 0.000647 1.133179
v 0.003061 -0.037049 1.143895
v -0.004849 -0.040149 1.133264
v 0.004960 0.035888 1.146447
v 0.004956 0.074253 0.895389
v -0.004795 -0.001798 0.885152
v 0.003156 -0.001357 0.893499
v 0.003253 -0.039859 0.893601
v -0.004842 0.036846 0.885104
v 0.004878 -0.075157 0.639505
v 0.003270 -0.001913 0.638299
v 0.004397 -0.039548 0.639144
v -0.003050 -0.040209 0.633560
v -0.004776 0.035836 0.632266
v 0.003084 0.037840 0.638160
v -0.004743 0.072863 0.632291
v 0.003200 0.073435 0.382948
v -0.003042 -0.001792 0.380140
v 0.004954 -0.039619 0.383737
v 0.003387 0.037118 0.383032
v -0.004637 -0.075245 0.126474
v -0.004861 -0.038136 0.126441
v 0.003539 -0.074978 -0.121151
v -0.004884 -0.000090 -0.119952
v -0.004796 -0.039493 -0.119965
v 0.003213 -0.040258 -0.121104
v 0.004941 0.036889 -0.121350
v 0.004958 0.074273 -0.364058
v 0.003194 -0.001768 -0.363305
v -0.004676 -0.000171 -0.359946
v 0.003230 -0.039979 -0.363320
v -0.004766 0.035954 -0.359907
v -0.004843 0.074581 -0.608506
v 0.004954 -0.077041 -0.615576
v 0.003341 -0.000765 -0.614412
v -0.003054 -0.037711 -0.609797
v -0.004774 0.036210 -0.608556
v 0.003151 0.036796 -0.614275
v 0.003201 0.073587 -0.874113
v -0.003043 -0.001185 -0.867700
v 0.004961 -0.040480 -0.875920
v 0.003289 0.036212 -0.874202
v -0.004660 -0.075386 -1.120997
v -0.004749 -0.039657 -1.120879
v -0.004931 0.001143 -1.367329
v -0.004681 -0.038006 -1.367735
v 0.004946 0.074997 -1.627570
v -0.004753 -0.001037 -1.609062
v -0.004767 0.035994 -1.609035
v -0.004744 0.036617 -1.857740
v -0.004712 0.072864 -1.857810
vt 0.742833 -0.098141
vt 0.670009 0.344569
vt 0.592693 -0.042598
vt 0.699215 -0.098553
vt 0.528547 0.397923
vt 0.715066 0.345127
vt 0.619553 0.011619
vt 0.619590 -0.042344
vt 0.574762 -0.042767
vt 0.637062 -0.042179
vt 0.654238 -0.154440
vt 0.662765 -0.154360
vt 0.671912 -0.154273
vt 0.672015 -0.209734
vt 0.681173 -0.209647
vt 0.717186 -0.209307
vt 0.699352 -0.154014
vt 0.717026 -0.153847
vt 0.654157 -0.098979
vt 0.690080 -0.098640
vt 0.680944 -0.098726
vt 0.680827 -0.041766
vt 0.671703 -0.041852
vt 0.662579 -0.041939
vt 0.707880 0.012451
vt 0.662490 0.012024
vt 0.698940 0.012367
vt 0.708024 -0.041510
vt 0.716704 -0.041428
vt 0.725518 -0.041345
vt 0.637123 -0.099140
vt 0.574780 0.011197
vt 0.610599 0.011534
vt 0.583728 -0.042683
vt 0.725693 -0.098303
vt 0.743025 -0.153601
vt 0.751349 -0.153522
vt 0.760699 -0.153434
vt 0.732449 0.400752
vt 0.760913 -0.208893
vt 0.610652 -0.099390
vt 0.601675 -0.099475
vt 0.592698 -0.099560
vt 0.565767 -0.099814
vt 0.628656 -0.154682
vt 0.610679 -0.154852
vt 0.583714 -0.155107
vt 0.565737 -0.155277
vt 0.583707 -0.210570
vt 0.592707 -0.210485
vt 0.628705 -0.210144
vt 0.548200 -0.043018
vt 0.548147 -0.099980
vt 0.522306 -0.043262
vt 0.539569 -0.043099
vt 0.486742 0.232211
vt 0.522387 0.010703
vt 0.495428 0.232292
vt 0.494880 0.285854
vt 0.520970 0.286138
vt 0.511404 0.286034
vt 0.732180 0.456158
vt 1.051103 0.015687
vt 0.740514 0.456286
vt 0.581924 0.343477
vt 0.520425 0.342715
vt 0.529067 0.342822
vt 0.545354 0.453291
vt 0.545853 0.398164
vt 0.599012 0.454114
vt 0.563016 0.453562
vt 0.599445 0.398907
vt 0.563970 0.343255
vt 0.572947 0.343366
vt 0.547348 0.232782
vt 0.546863 0.286419
vt 0.582833 0.233116
vt 0.564460 0.286610
vt 0.582391 0.286805
vt 0.609287 0.287098
vt 0.573878 0.233032
vt 0.600322 0.287000
vt 0.608854 0.343811
vt 0.714776 0.400507
vt 0.697735 0.288059
vt 0.688612 0.287960
vt 0.679488 0.287861
vt 0.679814 0.234030
vt 0.670701 0.233945
vt 0.636102 0.233618
vt 0.652735 0.287570
vt 0.635724 0.287385
vt 0.643463 0.399518
vt 0.634936 0.399399
vt 0.626409 0.399281
vt 0.687632 0.455474
vt 0.651622 0.454922
vt 0.643084 0.454791
vt 0.626808 0.344033
vt 0.687956 0.400135
vt 0.669663 0.399881
vt 0.678809 0.400008
vt 0.652357 0.344350
vt 0.660874 0.344456
vt 0.644229 0.287478
vt 0.581469 0.398658
vt 0.697415 0.344909
vt 0.766669 0.678536
vt 0.713580 0.678034
vt 0.677568 0.677693
vt 0.625100 0.677196
vt 0.589102 0.676855
vn 0.9274 -0.3739 -0.0074
vn -0.4796 0.8774 -0.0123
vn 1.0000 0.0060 -0.0025
vn -0.8857 -0.4643 0.0023
vn -0.4758 -0.8796 -0.0009
vn 0.7449 -0.6672 0.0032
vn 0.3449 -0.9386 -0.0010
vn -1.0000 -0.0018 -0.0023
vn -1.0000 -0.0025 -0.0022
vn 0.7133 -0.7009 0.0012
vn -1.0000 0.0044 -0.0026
vn -1.0000 0.0015 -0.0025
vn -0.7867 -0.6174 -0.0001
vn 0.8989 -0.4381 -0.0008
vn -0.5657 -0.8246 -0.0004
vn -1.0000 0.0032 -0.0039
vn 0.9995 -0.0309 -0.0005
vn 1.0000 -0.0019 -0.0022
vn 0.6898 -0.7240 -0.0021
vn -0.5979 -0.8015 -0.0055
vn -0.5396 -0.8419 -0.0004
vn -1.0000 -0.0022 -0.0001
vn 0.8324 -0.5542 -0.0024
vn -0.9748 -0.2229 -0.0002
vn 1.0000 -0.0011 -0.0021
vn 1.0000 0.0025 -0.0038
vn 0.9392 -0.3433 -0.0020
vn -1.0000 -0.0064 -0.0007
vn 0.2659 -0.9640 -0.0024
vn 1.0000 -0.0032 -0.0008
vn 1.0000 0.0004 -0.0081
vn 0.9996 -0.0009 -0.0272
vn -0.9811 -0.1936 0.0010
vn -1.0000 0.0019 -0.0043
vn 0.6964 -0.7176 0.0006
vn -1.0000 0.0034 -0.0027
vn -0.1535 -0.9881 -0.0044
vn -1.0000 0.0009 -0.0023
vn -1.0000 0.0059 -0.0026
vn -1.0000 -0.0015 -0.0026
vn -0.9991 -0.0413 -0.0001
vn 0.7955 -0.6060 0.0017
vn 0.1748 -0.9846 -0.0041
vn -0.9999 0.0145 -0.0012
vn 0.8102 -0.5858 -0.0203
vn 0.8313 -0.5559 0.0015
vn 0.8755 -0.4831 0.0022
vn 0.7877 -0.6161 0.0015
vn 0.9999 0.0142 -0.0055
vn 0.9015 -0.4328 0.0013
vn -1.0000 -0.0012 -0.0024
vn 0.8063 -0.5911 -0.0230
vn -0.9725 -0.2328 -0.0007
vn 0.9996 -0.0029 -0.0274
vn 0.1894 -0.9819 0.0012
vn 0.3329 -0.9429 -0.0052
vn 0.9983 0.0578 -0.0022
vn 0.4748 -0.8801 -0.0010
vn -0.9997 0.0233 -0.0009
vn 0.9884 -0.1518 -0.0055
vn 1.0000 -0.0020 -0.0018
vn -0.9981 -0.0616 -0.0010
vn 0.9999 0.0116 -0.0022
vn 0.1198 -0.9928 -0.0000
vn -0.9999 -0.0150 -0.0018
vn 0.3676 -0.9300 0.0002
vn 1.0000 0.0052 -0.0016
vn 0.3193 -0.9476 0.0022
vn -1.0000 -0.0076 -0.0030
vn -0.9990 -0.0440 -0.0003
vn -1.0000 -0.0025 -0.0045
vn -0.9994 -0.0336 -0.0004
vn -0.9996 -0.0276 -0.0007
vn 0.9854 -0.1704 -0.0001
vn -0.4331 -0.9014 -0.0038
vn -0.5786 -0.8156 -0.0010
vn -0.9999 -0.0135 -0.0045
vn -1.0000 0.0065 -0.0043
vn 1.0000 -0.0089 -0.0006
vn -0.5780 -0.8160 -0.0009
vn -0.5433 -0.8395 0.0019
vn -0.5269 -0.8499 -0.0010
vn -1.0000 0.0014 -0.0025
vn 0.9413 -0.3375 -0.0013
vn 0.2953 -0.9554 0.0003
vn 0.9996 -0.0287 -0.0007
vn 1.0000 -0.0066 -0.0020
vn 1.0000 0.0023 -0.0026
vn 1.0000 -0.0040 -0.0022
vn 0.7795 -0.6264 0.0018
vn -0.4911 -0.8711 0.0017
vn 0.8648 -0.5021 -0.0015
vn -0.5335 -0.8458 -0.0010
vn -1.0000 -0.0094 -0.0018
vn -0.6563 -0.7545 -0.0009
vn 0.8143 -0.5804 0.0006
vn 1.0000 -0.0042 -0.0011
vn -0.7902 -0.6128 0.0008
vn 0.7706 -0.6373 0.0009
vn -1.0000 0.0045 -0.0041
vn -1.0000 -0.0009 -0.0024
vn -0.9996 -0.0289 -0.0007
vn 1.0000 0.0047 -0.0019
vn 0.4115 -0.9114 -0.0008
vn 1.0000 0.0051 -0.0041
vn -1.0000 -0.0087 -0.0019
vn 0.9415 0.3370 -0.0023
vn -1.0000 -0.0064 0.0044
vn 0.5979 0.8015 0.0055
vn -0.6898 0.7240 0.0021
vn -1.0000 -0.0004 0.0024
vn -0.2659 0.9640 0.0024
vn -0.1894 0.9819 -0.0012
vn -1.0000 0.0009 0.0017
vn 0.9991 0.0432 0.0002
vn -0.3329 0.9429 0.0052
vn -0.9996 0.0029 0.0274
vn -1.0000 0.0019 0.0022
vn -0.8989 0.4381 0.0008
vn 0.7867 0.6174 0.0001
vn -0.9995 0.0309 0.0005
vn -1.0000 0.0032 0.0022
vn -0.9995 0.0327 0.0004
vn 1.0000 -0.0044 0.0026
vn -0.7133 0.7009 -0.0012
vn -0.3449 0.9386 0.0010
vn -0.7449 0.6672 -0.0032
vn 0.4758 0.8796 0.0009
vn 1.0000 -0.0015 0.0025
vn -1.0000 -0.0025 0.0038
vn -0.9392 0.3433 0.0020
vn 1.0000 0.0018 0.0023
vn 1.0000 0.0025 0.0022
vn -1.0000 0.0089 0.0006
vn 0.6201 0.7818 0.0659
vn 0.8857 0.4643 -0.0023
vn -1.0000 -0.0060 0.0025
vn 0.5396 0.8419 0.0004
vn -0.8324 0.5542 0.0024
vn 0.9748 0.2229 0.0002
vn -1.0000 0.0011 0.0021
vn -1.0000 -0.0022 0.0025
vn 0.9811 0.1936 -0.0010
vn 1.0000 -0.0034 0.0027
vn -0.6964 0.7176 -0.0006
vn -0.8755 0.4831 -0.0022
vn 0.1535 0.9881 0.0044
vn 1.0000 -0.0059 0.0026
vn 1.0000 -0.0009 0.0023
vn 0.9999 0.0157 0.0003
vn -1.0000 -0.0015 0.0012
vn -0.7955 0.6060 -0.0017
vn -0.9996 0.0138 0.0227
vn -0.1748 0.9846 0.0041
vn -0.9996 -0.0135 0.0252
vn 1.0000 -0.0019 0.0043
vn -0.7877 0.6161 -0.0015
vn -0.9284 0.3708 0.0228
vn -0.9015 0.4328 -0.0013
vn 1.0000 0.0012 0.0024
vn 0.9966 0.0828 0.0021
vn 0.9984 0.0558 0.0008
vn 0.9678 0.2517 0.0008
vn 0.9999 0.0116 0.0009
vn 0.9928 0.1194 -0.0077
vn 0.5780 0.8160 0.0009
vn 0.5433 0.8395 -0.0019
vn 1.0000 -0.0014 0.0025
vn 0.5269 0.8499 0.0010
vn 0.5335 0.8458 0.0010
vn 0.9784 0.2046 0.0300
vn -1.0000 0.0020 0.0079
vn -0.9999 0.0148 0.0074
vn -0.9821 0.1883 -0.0027
vn -0.9999 -0.0150 0.0004
vn -0.3676 0.9300 -0.0002
vn -1.0000 -0.0052 0.0016
vn -0.3193 0.9476 -0.0022
vn 0.9990 0.0440 0.0003
vn 1.0000 0.0076 0.0030
vn 0.9994 0.0336 0.0004
vn 1.0000 0.0025 0.0045
vn -0.9970 0.0773 0.0020
vn 1.0000 0.0094 0.0018
vn 0.6563 0.7545 0.0009
vn -0.8648 0.5021 0.0015
vn 1.0000 0.0009 0.0024
vn 0.9996 0.0276 0.0007
vn 0.9999 0.0135 0.0045
vn 0.4331 0.9014 0.0038
vn 0.5786 0.8156 0.0010
vn 1.0000 -0.0065 0.0043
vn 0.9996 0.0289 0.0007
vn -0.7795 0.6264 -0.0018
vn -0.9979 0.0648 -0.0007
vn 1.0000 0.0050 0.0019
vn -0.2953 0.9554 -0.0003
vn -1.0000 -0.0023 0.0026
vn 0.9998 0.0206 0.0011
vn 1.0000 0.0047 0.0021
vn -0.8143 0.5804 -0.0006
vn 0.9975 -0.0707 0.0021
vn 0.7234 0.6904 0.0010
vn 1.0000 -0.0066 0.0038
vn -0.9413 0.3375 0.0013
vn 1.0000 -0.0040 0.0003
vn -0.9989 0.0458 -0.0003
vn -0.9968 -0.0798 0.0024
vn 1.0000 -0.0045 0.0041
vn -0.7706 0.6373 -0.0009
usemtl algae_green
s off
f 104/1/1 91/2/1 17/3/1
f 7/4/2 54/5/2 40/6/2
f 77/7/3 78/8/3 49/9/3
f 78/8/4 81/10/4 17/3/4
f 88/11/5 24/12/5 93/13/5
f 89/14/6 35/15/6 39/16/6
f 88/11/7 93/13/7 22/17/7
f 93/13/8 89/14/8 42/18/8
f 86/19/9 88/11/9 7/4/9
f 93/13/10 42/18/10 22/17/10
f 7/4/11 88/11/11 22/17/11
f 89/14/12 39/16/12 42/18/12
f 7/4/13 96/20/13 34/21/13
f 37/22/14 92/23/14 16/24/14
f 7/4/15 34/21/15 86/19/15
f 34/21/16 37/22/16 86/19/16
f 37/22/17 16/24/17 99/25/17
f 16/24/18 9/26/18 99/25/18
f 9/26/19 5/27/19 99/25/19
f 100/28/20 41/29/20 102/30/20
f 78/8/21 17/3/21 49/9/21
f 81/10/22 80/31/22 102/30/22
f 47/32/23 25/33/23 77/7/23
f 17/3/24 69/34/24 49/9/24
f 49/9/25 47/32/25 77/7/25
f 99/25/26 100/28/26 37/22/26
f 100/28/27 102/30/27 37/22/27
f 102/30/28 101/35/28 104/1/28
f 105/36/29 44/37/29 106/38/29
f 102/30/30 104/1/30 17/3/30
f 104/1/31 105/36/31 91/2/31
f 23/39/32 106/38/32 107/40/32
f 26/41/33 74/42/33 11/43/33
f 62/44/34 11/43/34 17/3/34
f 20/45/35 29/46/35 70/47/35
f 29/46/36 26/41/36 65/48/36
f 72/49/37 12/50/37 3/51/37
f 70/47/38 72/49/38 20/45/38
f 72/49/39 3/51/39 20/45/39
f 59/52/40 57/53/40 17/3/40
f 57/53/41 62/44/41 17/3/41
f 18/54/42 45/55/42 59/52/42
f 2/56/43 13/57/43 51/58/43
f 13/57/44 18/54/44 17/3/44
f 51/58/45 13/57/45 17/3/45
f 18/54/46 59/52/46 17/3/46
f 65/48/47 70/47/47 29/46/47
f 11/43/48 62/44/48 26/41/48
f 51/58/49 17/3/49 52/59/49
f 19/60/50 50/61/50 52/59/50
f 65/48/51 26/41/51 62/44/51
f 106/38/52 23/39/52 91/2/52
f 105/36/53 106/38/53 91/2/53
f 23/39/54 107/40/54 8/62/54
f 107/40/55 1/63/55 103/64/55
f 8/62/56 107/40/56 103/64/56
f 86/19/57 37/22/57 102/30/57
f 81/10/58 102/30/58 17/3/58
f 80/31/59 86/19/59 102/30/59
f 52/59/60 17/3/60 67/65/60
f 14/66/61 19/60/61 67/65/61
f 19/60/62 52/59/62 67/65/62
f 54/5/63 53/67/63 67/65/63
f 53/67/64 14/66/64 67/65/64
f 55/68/65 60/69/65 54/5/65
f 73/70/66 61/71/66 55/68/66
f 76/72/67 73/70/67 55/68/67
f 63/73/68 48/74/68 67/65/68
f 56/75/69 58/76/69 66/77/69
f 58/76/70 64/78/70 66/77/70
f 64/78/71 63/73/71 68/79/71
f 63/73/72 67/65/72 28/80/72
f 68/79/73 63/73/73 28/80/73
f 67/65/74 17/3/74 91/2/74
f 66/77/75 46/81/75 56/75/75
f 28/80/76 75/82/76 68/79/76
f 68/79/77 66/77/77 64/78/77
f 27/83/78 28/80/78 67/65/78
f 23/39/79 43/84/79 40/6/79
f 15/85/80 97/86/80 36/87/80
f 33/88/81 90/89/81 79/90/81
f 15/85/82 36/87/82 87/91/82
f 36/87/83 33/88/83 82/92/83
f 32/93/84 83/94/84 21/95/84
f 95/96/85 84/97/85 30/98/85
f 32/93/86 21/95/86 91/2/86
f 21/95/87 4/99/87 91/2/87
f 95/96/88 30/98/88 98/100/88
f 30/98/89 32/93/89 98/100/89
f 94/101/90 38/102/90 98/100/90
f 94/101/91 98/100/91 32/93/91
f 85/103/92 10/104/92 91/2/92
f 36/87/93 82/92/93 87/91/93
f 33/88/94 79/90/94 82/92/94
f 82/92/95 31/105/95 87/91/95
f 4/99/96 27/83/96 67/65/96
f 55/68/97 54/5/97 76/72/97
f 76/72/98 54/5/98 71/106/98
f 40/6/99 6/107/99 91/2/99
f 6/107/100 15/85/100 91/2/100
f 87/91/101 85/103/101 15/85/101
f 85/103/102 91/2/102 15/85/102
f 67/65/103 71/106/103 54/5/103
f 4/99/104 67/65/104 91/2/104
f 91/2/105 94/101/105 32/93/105
f 23/39/106 40/6/106 91/2/106
f 104/1/107 101/35/107 7/4/107
f 101/35/108 102/30/108 7/4/108
f 102/30/109 41/29/109 100/28/109
f 99/25/110 5/27/110 9/26/110
f 105/36/111 104/1/111 7/4/111
f 106/38/112 44/37/112 105/36/112
f 103/64/113 1/108/113 107/40/113
f 107/40/114 106/38/114 7/4/114
f 106/38/115 105/36/115 7/4/115
f 8/62/116 103/64/116 107/40/116
f 23/39/117 8/62/117 107/40/117
f 99/25/118 9/26/118 16/24/118
f 16/24/119 92/23/119 37/22/119
f 34/21/120 96/20/120 7/4/120
f 99/25/121 16/24/121 37/22/121
f 37/22/122 34/21/122 102/30/122
f 34/21/123 7/4/123 102/30/123
f 7/4/124 22/17/124 88/11/124
f 22/17/125 42/18/125 93/13/125
f 88/11/126 22/17/126 93/13/126
f 39/109/127 35/110/127 89/14/127
f 93/13/128 24/12/128 88/11/128
f 42/18/129 39/109/129 89/14/129
f 99/25/130 37/22/130 100/28/130
f 100/28/131 37/22/131 102/30/131
f 42/18/132 89/14/132 93/13/132
f 88/11/133 86/19/133 7/4/133
f 43/84/134 23/39/134 40/6/134
f 23/39/135 107/40/135 7/4/135
f 81/10/136 78/8/136 17/3/136
f 78/8/137 77/7/137 49/9/137
f 17/3/138 78/8/138 49/9/138
f 77/7/139 25/33/139 47/32/139
f 49/9/140 69/34/140 17/3/140
f 77/7/141 47/32/141 49/9/141
f 80/31/142 81/10/142 17/3/142
f 11/43/143 74/42/143 26/41/143
f 26/41/144 29/46/144 65/48/144
f 29/46/145 20/45/145 70/47/145
f 65/48/146 29/46/146 70/47/146
f 3/111/147 12/112/147 72/49/147
f 3/111/148 72/49/148 20/45/148
f 72/49/149 70/47/149 20/45/149
f 62/44/150 57/53/150 18/54/150
f 57/53/151 59/52/151 18/54/151
f 59/52/152 45/55/152 18/54/152
f 18/54/153 13/57/153 52/59/153
f 13/57/154 2/56/154 51/58/154
f 13/57/155 51/58/155 52/59/155
f 17/3/156 11/43/156 62/44/156
f 11/43/157 26/41/157 62/44/157
f 62/44/158 18/54/158 52/59/158
f 52/59/159 50/61/159 19/60/159
f 26/41/160 65/48/160 62/44/160
f 7/4/161 86/19/161 17/3/161
f 86/19/162 80/31/162 17/3/162
f 62/44/163 52/59/163 19/60/163
f 14/66/164 53/67/164 54/5/164
f 17/3/165 62/44/165 19/60/165
f 36/87/166 97/86/166 15/85/166
f 79/90/167 90/89/167 33/88/167
f 33/88/168 36/87/168 82/92/168
f 36/87/169 15/85/169 87/91/169
f 82/92/170 36/87/170 87/91/170
f 23/39/171 7/4/171 40/6/171
f 19/60/172 14/66/172 17/3/172
f 14/66/173 54/5/173 17/3/173
f 54/5/174 60/69/174 40/6/174
f 60/69/175 55/68/175 40/6/175
f 55/68/176 61/71/176 73/70/176
f 55/68/177 73/70/177 76/72/177
f 67/65/178 48/74/178 63/73/178
f 64/78/179 58/76/179 66/77/179
f 58/76/180 56/75/180 66/77/180
f 67/65/181 63/73/181 28/80/181
f 63/73/182 64/78/182 68/79/182
f 7/4/183 17/3/183 54/5/183
f 82/92/184 79/90/184 33/88/184
f 87/91/185 31/105/185 82/92/185
f 91/2/186 10/104/186 85/103/186
f 85/103/187 87/91/187 15/85/187
f 63/73/188 68/79/188 28/80/188
f 68/79/189 64/78/189 66/77/189
f 56/75/190 46/81/190 66/77/190
f 68/79/191 75/82/191 28/80/191
f 28/80/192 27/83/192 67/65/192
f 91/2/193 85/103/193 15/85/193
f 98/100/194 38/102/194 94/101/194
f 98/100/195 94/101/195 55/68/195
f 94/101/196 91/2/196 40/6/196
f 84/97/197 95/96/197 30/98/197
f 95/96/198 98/100/198 30/98/198
f 76/72/199 71/106/199 4/99/199
f 71/106/200 67/65/200 4/99/200
f 67/65/201 27/83/201 4/99/201
f 55/68/202 76/72/202 32/93/202
f 32/93/203 76/72/203 21/95/203
f 4/99/204 21/95/204 76/72/204
f 21/95/205 83/94/205 32/93/205
f 32/93/206 30/98/206 55/68/206
f 30/98/207 98/100/207 55/68/207
f 94/101/208 40/6/208 55/68/208
f 91/2/209 15/85/209 6/107/209
f 40/6/210 91/2/210 6/107/210
