# Blender v2.92.0 OBJ File: 'algae.blend'
# www.blender.org
mtllib 99.mtl
o algae_cube_Cube
v -0.003705 0.091445 -1.315109
v -0.004299 0.082305 1.304207
v -0.003943 0.067738 -0.000000
v -0.003752 -0.068324 -0.000000
v -0.003788 -0.060567 -0.566117
v -0.003689 0.088707 -0.655018
v -0.003716 0.071938 0.656081
v -0.003995 -0.061244 0.575405
v -0.003866 -0.065307 -0.845426
v -0.004315 0.092465 -0.986451
v -0.004270 0.079119 -0.313164
v -0.004246 -0.063193 -0.272287
v -0.003942 -0.081051 0.281603
v -0.003966 0.086075 0.332204
v -0.004137 0.070787 0.971401
v -0.003777 -0.061280 0.852825
v 0.003911 -0.021394 0.000000
v 0.003696 -0.024425 -0.587642
v 0.003970 -0.051746 0.581158
v 0.003684 -0.040550 -0.867555
v 0.004291 -0.022372 -0.284012
v 0.003852 -0.020288 0.300000
v 0.003698 -0.020755 0.889210
v 0.003685 0.053600 -0.951711
v 0.003996 -0.033193 0.148033
v 0.004223 0.043097 0.159582
v 0.004131 -0.025221 -0.141585
v 0.003778 0.048127 -0.152119
v 0.003885 -0.021074 -0.436971
v 0.004164 0.050788 -0.468688
v 0.003788 -0.038146 -0.724524
v 0.004322 0.038437 -0.781551
v 0.004100 -0.046003 0.725529
v 0.004167 0.046411 0.795001
v 0.004299 -0.029245 0.445999
v 0.003958 0.033534 0.474514
v 0.004122 0.015384 -0.989745
vt 0.643463 0.399518
vt 0.608433 0.399032
vt 0.627218 0.287293
vt 0.644229 0.287478
vt 0.537200 0.398044
vt 0.538232 0.286325
vt 0.555494 0.286513
vt 0.714776 0.400507
vt 0.678809 0.400008
vt 0.697735 0.288059
vt 0.661241 0.287663
vt 0.572481 0.398533
vt 0.732994 0.288443
vt 0.732449 0.400752
vt 0.573425 0.286708
vt 0.591356 0.286903
vt 0.522054 -0.211154
vt 0.483530 0.675856
vt 0.520970 0.286138
vt 0.592689 0.011366
vt 0.609287 0.287098
vt 0.662490 0.012024
vt 0.628508 0.011703
vt 0.741032 0.345449
vt 0.698940 0.012367
vt 0.715365 0.288251
vt 0.556870 0.011028
vt 1.051103 0.015687
vt 0.731277 0.678201
vt 0.679488 0.287861
vt 0.204504 0.007695
vt 0.518449 0.676186
vt 0.522387 0.010703
vt 0.556709 -0.210826
vt 0.734882 -0.209139
vt 0.695884 0.677866
vt 0.592707 -0.210485
vt 0.553104 0.676514
vt 0.662857 -0.209821
vt 0.625100 0.677196
vt 0.734157 0.012699
vt 0.699490 -0.209474
vt 0.659252 0.677519
vt 0.766669 0.678536
vt 0.628705 -0.210144
vt 0.589102 0.676855
vt 0.770274 -0.208804
vn 1.0000 -0.0013 -0.0014
vn 1.0000 0.0050 0.0014
vn 1.0000 -0.0001 -0.0009
vn 1.0000 -0.0075 0.0008
vn 1.0000 0.0050 0.0012
vn 1.0000 -0.0006 -0.0006
vn 1.0000 -0.0036 -0.0041
vn 1.0000 0.0066 -0.0027
vn 1.0000 0.0049 0.0013
vn 1.0000 -0.0043 0.0007
vn 0.9962 0.0875 -0.0025
vn 0.9913 -0.1308 0.0120
vn 0.9803 -0.1973 -0.0055
vn 1.0000 0.0054 0.0061
vn 0.9813 -0.1914 0.0198
vn 0.7911 -0.6037 -0.0986
vn 0.9980 0.0494 0.0402
vn 1.0000 -0.0032 0.0012
vn 0.9793 0.2026 0.0012
vn 0.9786 -0.2059 -0.0043
vn -1.0000 -0.0024 -0.0004
vn 0.9517 0.3069 0.0024
vn 0.9875 0.1576 -0.0001
vn 0.9799 -0.1990 0.0136
vn 0.9861 0.1663 0.0065
vn 0.9869 -0.1612 0.0059
vn 0.9817 -0.1902 -0.0002
vn 1.0000 -0.0051 -0.0027
vn 0.8862 -0.4632 -0.0008
vn -1.0000 0.0016 0.0008
vn 0.9767 -0.2116 0.0350
vn 0.9542 0.2991 0.0099
vn 0.9828 -0.1844 -0.0077
vn 0.9569 -0.2904 0.0047
vn -1.0000 -0.0014 -0.0007
vn 1.0000 -0.0044 -0.0012
vn 0.9701 0.2424 0.0084
vn 1.0000 -0.0060 0.0013
vn -1.0000 -0.0006 -0.0016
vn 0.9922 -0.1241 -0.0106
vn 1.0000 -0.0029 0.0029
vn -1.0000 -0.0045 -0.0018
vn 0.9796 -0.2009 0.0032
vn 1.0000 0.0040 0.0031
vn 0.7584 -0.6513 0.0252
vn -1.0000 -0.0026 0.0003
vn 0.9765 0.2148 0.0155
vn 1.0000 -0.0029 -0.0008
vn 0.9786 -0.2055 -0.0030
vn 0.9647 -0.2505 0.0808
vn 0.9713 0.2375 -0.0130
vn 0.9685 -0.2364 -0.0786
vn 0.9575 -0.2883 0.0041
vn 0.9868 -0.1611 -0.0134
vn -1.0000 -0.0001 -0.0002
vn -1.0000 -0.0014 0.0018
vn 0.9409 0.3385 0.0041
vn 0.9849 0.1729 -0.0063
vn 0.9700 0.2430 -0.0104
vn 1.0000 -0.0074 -0.0006
vn 0.9634 0.2680 0.0034
vn 0.9864 0.1645 0.0058
vn 0.9994 0.0287 -0.0173
vn -1.0000 -0.0015 -0.0013
vn -1.0000 -0.0001 -0.0001
vn -1.0000 -0.0004 -0.0017
vn -1.0000 0.0018 0.0019
vn 0.8724 -0.4456 -0.2008
vn -1.0000 0.0001 0.0010
usemtl algae_green
s off
f 28/1/1 26/2/1 17/3/1
f 17/3/2 27/4/2 28/1/2
f 34/5/3 33/6/3 19/7/3
f 32/8/4 30/9/4 18/10/4
f 28/1/5 27/4/5 21/11/5
f 36/12/6 34/5/6 19/7/6
f 32/8/7 20/13/7 24/14/7
f 36/12/8 35/15/8 22/16/8
f 30/9/9 28/1/9 21/11/9
f 26/2/10 36/12/10 22/16/10
f 15/17/11 2/18/11 23/19/11
f 22/16/12 13/20/12 25/21/12
f 12/22/13 27/4/13 4/23/13
f 37/24/14 24/14/14 20/13/14
f 18/10/15 5/25/15 31/26/15
f 35/15/16 19/7/16 8/27/16
f 34/5/17 15/17/17 23/19/17
f 22/16/18 25/21/18 26/2/18
f 24/14/19 1/28/19 10/29/19
f 21/11/20 12/22/20 29/30/20
f 2/31/21 15/32/21 16/33/21
f 34/5/22 7/34/22 15/32/22
f 32/8/23 10/35/23 6/36/23
f 13/20/24 35/15/24 8/27/24
f 36/12/25 14/37/25 7/38/25
f 17/3/26 4/23/26 27/4/26
f 5/25/27 29/30/27 12/22/27
f 21/11/28 29/30/28 30/9/28
f 8/27/29 33/6/29 16/33/29
f 16/33/30 7/38/30 8/27/30
f 23/19/31 16/33/31 33/6/31
f 28/1/32 11/39/32 3/40/32
f 4/23/33 25/21/33 13/20/33
f 9/41/34 31/26/34 5/25/34
f 13/20/35 3/40/35 4/23/35
f 30/9/36 29/30/36 18/10/36
f 30/9/37 6/42/37 11/43/37
f 18/10/38 31/26/38 32/8/38
f 11/43/39 5/25/39 12/22/39
f 13/20/40 22/16/40 35/15/40
f 23/19/41 33/6/41 34/5/41
f 10/29/42 1/44/42 9/41/42
f 5/25/43 18/10/43 29/30/43
f 19/7/44 35/15/44 36/12/44
f 8/27/45 19/7/45 33/6/45
f 5/25/46 10/29/46 9/41/46
f 32/8/47 24/14/47 10/35/47
f 25/21/48 17/3/48 26/2/48
f 12/22/49 21/11/49 27/4/49
f 2/18/50 16/33/50 23/19/50
f 26/2/51 3/45/51 14/46/51
f 37/24/52 9/41/52 1/47/52
f 9/41/53 20/13/53 31/26/53
f 4/23/54 17/3/54 25/21/54
f 8/27/55 14/46/55 13/20/55
f 3/40/56 12/22/56 4/23/56
f 28/1/57 3/45/57 26/2/57
f 32/8/58 6/42/58 30/9/58
f 36/12/59 7/34/59 34/5/59
f 32/8/60 31/26/60 20/13/60
f 30/9/61 11/39/61 28/1/61
f 26/2/62 14/37/62 36/12/62
f 24/14/63 37/24/63 1/28/63
f 16/33/64 15/32/64 7/38/64
f 13/20/65 14/46/65 3/40/65
f 11/43/66 6/36/66 5/25/66
f 5/25/67 6/36/67 10/29/67
f 37/24/68 20/13/68 9/41/68
f 8/27/30 7/38/30 14/46/30
f 3/40/69 11/43/69 12/22/69
