####
#
# OBJ File Generated by Meshlab
#
####
# Object vbs_max.obj
#
# Vertices: 64
# Faces: 124
#
####
vn -8.612358 1.828381 0.000000
v -0.137500 0.042500 0.000000
vn 8.612356 1.828381 -0.000000
v 0.137500 0.042500 0.000000
vn -8.611600 1.793230 -0.356674
v -0.137500 0.041684 -0.008291
vn 8.611593 1.793230 -0.356674
v 0.137500 0.041684 -0.008291
vn -8.611955 1.689160 -0.699764
v -0.137500 0.039265 -0.016264
vn 8.611955 1.689160 -0.699764
v 0.137500 0.039265 -0.016264
vn -8.612118 1.520223 -1.015811
v -0.137500 0.035337 -0.023612
vn 8.612118 1.520223 -1.015811
v 0.137500 0.035337 -0.023612
vn -8.611850 1.292849 -1.292849
v -0.137500 0.030052 -0.030052
vn 8.611846 1.292849 -1.292849
v 0.137500 0.030052 -0.030052
vn -8.612115 1.015811 -1.520223
v -0.137500 0.023612 -0.035337
vn 8.612118 1.015811 -1.520223
v 0.137500 0.023612 -0.035337
vn -8.611956 0.699764 -1.689160
v -0.137500 0.016264 -0.039265
vn 8.611957 0.699764 -1.689160
v 0.137500 0.016264 -0.039265
vn -8.611596 0.356674 -1.793230
v -0.137500 0.008291 -0.041684
vn 8.611593 0.356674 -1.793230
v 0.137500 0.008291 -0.041684
vn -8.612356 0.000000 -1.828381
v -0.137500 0.000000 -0.042500
vn 8.612356 -0.000000 -1.828381
v 0.137500 0.000000 -0.042500
vn -8.611599 -0.356674 -1.793230
v -0.137500 -0.008291 -0.041684
vn 8.611594 -0.356674 -1.793230
v 0.137500 -0.008291 -0.041684
vn -8.611955 -0.699764 -1.689160
v -0.137500 -0.016264 -0.039265
vn 8.611963 -0.699764 -1.689160
v 0.137500 -0.016264 -0.039265
vn -8.612118 -1.015811 -1.520223
v -0.137500 -0.023612 -0.035337
vn 8.612118 -1.015811 -1.520223
v 0.137500 -0.023612 -0.035337
vn -8.611850 -1.292849 -1.292849
v -0.137500 -0.030052 -0.030052
vn 8.611849 -1.292849 -1.292849
v 0.137500 -0.030052 -0.030052
vn -8.612116 -1.520223 -1.015811
v -0.137500 -0.035337 -0.023612
vn 8.612117 -1.520223 -1.015811
v 0.137500 -0.035337 -0.023612
vn -8.611955 -1.689160 -0.699764
v -0.137500 -0.039265 -0.016264
vn 8.611959 -1.689160 -0.699764
v 0.137500 -0.039265 -0.016264
vn -8.611599 -1.793230 -0.356674
v -0.137500 -0.041684 -0.008291
vn 8.611594 -1.793230 -0.356674
v 0.137500 -0.041684 -0.008291
vn -8.612358 -1.828381 -0.000000
v -0.137500 -0.042500 0.000000
vn 8.612355 -1.828381 0.000000
v 0.137500 -0.042500 0.000000
vn -8.611600 -1.793230 0.356674
v -0.137500 -0.041684 0.008291
vn 8.611594 -1.793230 0.356674
v 0.137500 -0.041684 0.008291
vn -8.611955 -1.689160 0.699764
v -0.137500 -0.039265 0.016264
vn 8.611960 -1.689160 0.699764
v 0.137500 -0.039265 0.016264
vn -8.612115 -1.520223 1.015811
v -0.137500 -0.035337 0.023612
vn 8.612118 -1.520223 1.015811
v 0.137500 -0.035337 0.023612
vn -8.611850 -1.292849 1.292849
v -0.137500 -0.030052 0.030052
vn 8.611846 -1.292849 1.292849
v 0.137500 -0.030052 0.030052
vn -8.612114 -1.015811 1.520223
v -0.137500 -0.023612 0.035337
vn 8.612118 -1.015811 1.520223
v 0.137500 -0.023612 0.035337
vn -8.611955 -0.699764 1.689160
v -0.137500 -0.016264 0.039265
vn 8.611959 -0.699764 1.689160
v 0.137500 -0.016264 0.039265
vn -8.611599 -0.356674 1.793230
v -0.137500 -0.008291 0.041684
vn 8.611594 -0.356674 1.793230
v 0.137500 -0.008291 0.041684
vn -8.612358 -0.000000 1.828381
v -0.137500 0.000000 0.042500
vn 8.612355 0.000000 1.828381
v 0.137500 0.000000 0.042500
vn -8.611600 0.356674 1.793230
v -0.137500 0.008291 0.041684
vn 8.611594 0.356674 1.793230
v 0.137500 0.008291 0.041684
vn -8.611955 0.699764 1.689160
v -0.137500 0.016264 0.039265
vn 8.611958 0.699764 1.689160
v 0.137500 0.016264 0.039265
vn -8.612115 1.015811 1.520223
v -0.137500 0.023612 0.035337
vn 8.612118 1.015811 1.520223
v 0.137500 0.023612 0.035337
vn -8.611850 1.292849 1.292849
v -0.137500 0.030052 0.030052
vn 8.611846 1.292849 1.292849
v 0.137500 0.030052 0.030052
vn -8.612114 1.520223 1.015811
v -0.137500 0.035337 0.023612
vn 8.612118 1.520223 1.015811
v 0.137500 0.035337 0.023612
vn -8.611955 1.689160 0.699764
v -0.137500 0.039265 0.016264
vn 8.611958 1.689160 0.699764
v 0.137500 0.039265 0.016264
vn -8.611600 1.793230 0.356674
v -0.137500 0.041684 0.008291
vn 8.611594 1.793230 0.356674
v 0.137500 0.041684 0.008291
# 64 vertices, 0 vertices normals

f 2//2 3//3 1//1
f 4//4 5//5 3//3
f 6//6 7//7 5//5
f 8//8 9//9 7//7
f 10//10 11//11 9//9
f 12//12 13//13 11//11
f 14//14 15//15 13//13
f 16//16 17//17 15//15
f 18//18 19//19 17//17
f 20//20 21//21 19//19
f 22//22 23//23 21//21
f 24//24 25//25 23//23
f 26//26 27//27 25//25
f 28//28 29//29 27//27
f 30//30 31//31 29//29
f 32//32 33//33 31//31
f 34//34 35//35 33//33
f 36//36 37//37 35//35
f 38//38 39//39 37//37
f 40//40 41//41 39//39
f 42//42 43//43 41//41
f 44//44 45//45 43//43
f 46//46 47//47 45//45
f 48//48 49//49 47//47
f 50//50 51//51 49//49
f 52//52 53//53 51//51
f 54//54 55//55 53//53
f 56//56 57//57 55//55
f 58//58 59//59 57//57
f 60//60 61//61 59//59
f 38//38 22//22 6//6
f 62//62 63//63 61//61
f 64//64 1//1 63//63
f 15//15 31//31 47//47
f 2//2 4//4 3//3
f 4//4 6//6 5//5
f 6//6 8//8 7//7
f 8//8 10//10 9//9
f 10//10 12//12 11//11
f 12//12 14//14 13//13
f 14//14 16//16 15//15
f 16//16 18//18 17//17
f 18//18 20//20 19//19
f 20//20 22//22 21//21
f 22//22 24//24 23//23
f 24//24 26//26 25//25
f 26//26 28//28 27//27
f 28//28 30//30 29//29
f 30//30 32//32 31//31
f 32//32 34//34 33//33
f 34//34 36//36 35//35
f 36//36 38//38 37//37
f 38//38 40//40 39//39
f 40//40 42//42 41//41
f 42//42 44//44 43//43
f 44//44 46//46 45//45
f 46//46 48//48 47//47
f 48//48 50//50 49//49
f 50//50 52//52 51//51
f 52//52 54//54 53//53
f 54//54 56//56 55//55
f 56//56 58//58 57//57
f 58//58 60//60 59//59
f 60//60 62//62 61//61
f 6//6 4//4 62//62
f 4//4 2//2 62//62
f 2//2 64//64 62//62
f 62//62 60//60 58//58
f 58//58 56//56 54//54
f 54//54 52//52 50//50
f 50//50 48//48 46//46
f 46//46 44//44 42//42
f 42//42 40//40 38//38
f 38//38 36//36 34//34
f 34//34 32//32 30//30
f 30//30 28//28 22//22
f 28//28 26//26 22//22
f 26//26 24//24 22//22
f 22//22 20//20 18//18
f 18//18 16//16 22//22
f 16//16 14//14 22//22
f 14//14 12//12 10//10
f 10//10 8//8 6//6
f 62//62 58//58 6//6
f 58//58 54//54 6//6
f 54//54 50//50 38//38
f 50//50 46//46 38//38
f 46//46 42//42 38//38
f 38//38 34//34 22//22
f 34//34 30//30 22//22
f 14//14 10//10 22//22
f 10//10 6//6 22//22
f 6//6 54//54 38//38
f 62//62 64//64 63//63
f 64//64 2//2 1//1
f 63//63 1//1 3//3
f 3//3 5//5 7//7
f 7//7 9//9 11//11
f 11//11 13//13 7//7
f 13//13 15//15 7//7
f 15//15 17//17 23//23
f 17//17 19//19 23//23
f 19//19 21//21 23//23
f 23//23 25//25 31//31
f 25//25 27//27 31//31
f 27//27 29//29 31//31
f 31//31 33//33 35//35
f 35//35 37//37 39//39
f 39//39 41//41 43//43
f 43//43 45//45 47//47
f 47//47 49//49 51//51
f 51//51 53//53 55//55
f 55//55 57//57 59//59
f 59//59 61//61 63//63
f 63//63 3//3 15//15
f 3//3 7//7 15//15
f 31//31 35//35 47//47
f 35//35 39//39 47//47
f 39//39 43//43 47//47
f 47//47 51//51 63//63
f 51//51 55//55 63//63
f 55//55 59//59 63//63
f 15//15 23//23 31//31
f 63//63 15//15 47//47
# 124 faces, 0 coords texture

# End of File