# Blender v2.92.0 OBJ File: 'component_sim.blend'
# www.blender.org
mtllib rope.mtl
o rope_Sphere.002
v 0.000004 100.000000 -0.008004
v -0.001556 100.000000 -0.007851
v -0.000004 -100.000000 -0.007996
v 0.001565 100.000000 -0.007851
v 0.003066 100.000000 -0.007395
v 0.001556 -100.000000 -0.007842
v 0.003057 -100.000000 -0.007387
v 0.004440 -100.000000 -0.006647
v 0.005652 -100.000000 -0.005652
v 0.004449 100.000000 -0.006656
v 0.005661 100.000000 -0.005661
v 0.006656 100.000000 -0.004449
v 0.007395 100.000000 -0.003066
v 0.006647 -100.000000 -0.004440
v 0.007387 -100.000000 -0.003057
v 0.007842 -100.000000 -0.001556
v 0.007996 -100.000000 0.000004
v 0.007851 100.000000 -0.001565
v 0.008004 100.000000 -0.000004
v 0.007851 100.000000 0.001556
v 0.007395 100.000000 0.003057
v 0.007842 -100.000000 0.001565
v 0.007387 -100.000000 0.003066
v 0.006647 -100.000000 0.004449
v 0.005652 -100.000000 0.005661
v 0.006656 100.000000 0.004440
v 0.005661 100.000000 0.005652
v 0.004449 100.000000 0.006647
v 0.003066 100.000000 0.007387
v 0.004440 -100.000000 0.006656
v 0.003057 -100.000000 0.007395
v 0.001556 -100.000000 0.007851
v -0.000004 -100.000000 0.008004
v 0.001565 100.000000 0.007842
v 0.000004 100.000000 0.007996
v -0.001556 100.000000 0.007842
v -0.003057 100.000000 0.007387
v -0.001565 -100.000000 0.007851
v -0.003066 -100.000000 0.007395
v -0.004449 -100.000000 0.006656
v -0.005661 -100.000000 0.005661
v -0.004440 100.000000 0.006647
v -0.005652 100.000000 0.005652
v -0.006647 100.000000 0.004440
v -0.007387 100.000000 0.003057
v -0.006656 -100.000000 0.004449
v -0.007395 -100.000000 0.003066
v -0.007851 -100.000000 0.001565
v -0.008004 -100.000000 0.000004
v -0.007842 100.000000 0.001556
v -0.007996 100.000000 -0.000004
v -0.007842 100.000000 -0.001565
v -0.007387 100.000000 -0.003066
v -0.007851 -100.000000 -0.001556
v -0.007395 -100.000000 -0.003057
v -0.006656 -100.000000 -0.004440
v -0.005661 -100.000000 -0.005652
v -0.006647 100.000000 -0.004449
v -0.005652 100.000000 -0.005661
v -0.004440 100.000000 -0.006656
v -0.003057 100.000000 -0.007395
v -0.004449 -100.000000 -0.006647
v -0.003066 -100.000000 -0.007387
v -0.001565 -100.000000 -0.007842
vt 0.796822 0.014612
vt 0.514611 0.203179
vt 0.703179 0.485389
vt 1.000000 1.000000
vt 0.968750 0.500000
vt 1.000000 0.500000
vt 0.031250 1.000000
vt 0.000000 0.500000
vt 0.031250 0.500000
vt 0.062500 1.000000
vt 0.062500 0.500000
vt 0.028269 0.341844
vt 0.158156 0.028269
vt 0.471731 0.158156
vt 0.093750 1.000000
vt 0.093750 0.500000
vt 0.125000 1.000000
vt 0.125000 0.500000
vt 0.156250 1.000000
vt 0.156250 0.500000
vt 0.187500 1.000000
vt 0.187500 0.500000
vt 0.218750 1.000000
vt 0.218750 0.500000
vt 0.250000 1.000000
vt 0.250000 0.500000
vt 0.281250 1.000000
vt 0.281250 0.500000
vt 0.312500 1.000000
vt 0.312500 0.500000
vt 0.343750 1.000000
vt 0.343750 0.500000
vt 0.375000 1.000000
vt 0.375000 0.500000
vt 0.406250 1.000000
vt 0.406250 0.500000
vt 0.437500 1.000000
vt 0.437500 0.500000
vt 0.468750 1.000000
vt 0.468750 0.500000
vt 0.500000 1.000000
vt 0.500000 0.500000
vt 0.531250 1.000000
vt 0.531250 0.500000
vt 0.562500 1.000000
vt 0.562500 0.500000
vt 0.593750 1.000000
vt 0.593750 0.500000
vt 0.625000 1.000000
vt 0.625000 0.500000
vt 0.656250 1.000000
vt 0.656250 0.500000
vt 0.687500 1.000000
vt 0.687500 0.500000
vt 0.718750 1.000000
vt 0.718750 0.500000
vt 0.750000 1.000000
vt 0.750000 0.500000
vt 0.781250 1.000000
vt 0.781250 0.500000
vt 0.812500 1.000000
vt 0.812500 0.500000
vt 0.843750 1.000000
vt 0.843750 0.500000
vt 0.875000 1.000000
vt 0.875000 0.500000
vt 0.906250 1.000000
vt 0.906250 0.500000
vt 0.937500 1.000000
vt 0.937500 0.500000
vt 0.968750 1.000000
vt 0.750000 0.490000
vt 0.796822 0.485388
vt 0.841844 0.471731
vt 0.883337 0.449553
vt 0.919706 0.419706
vt 0.985388 0.296822
vt 0.949553 0.383337
vt 0.971731 0.341844
vt 0.990000 0.250000
vt 0.985388 0.203178
vt 0.971731 0.158156
vt 0.949553 0.116663
vt 0.919706 0.080294
vt 0.883337 0.050447
vt 0.841844 0.028269
vt 0.750000 0.010000
vt 0.703178 0.014612
vt 0.658156 0.028269
vt 0.616663 0.050447
vt 0.580294 0.080294
vt 0.550447 0.116663
vt 0.528269 0.158156
vt 0.510000 0.250000
vt 0.514612 0.296822
vt 0.528269 0.341844
vt 0.550447 0.383337
vt 0.580295 0.419706
vt 0.616663 0.449553
vt 0.658156 0.471731
vt 0.000000 1.000000
vt 0.341844 0.471731
vt 0.296822 0.485388
vt 0.250000 0.490000
vt 0.203179 0.485389
vt 0.158156 0.471731
vt 0.116663 0.449553
vt 0.080295 0.419706
vt 0.050447 0.383337
vt 0.014612 0.296822
vt 0.010000 0.250000
vt 0.014611 0.203179
vt 0.028269 0.158156
vt 0.050447 0.116663
vt 0.080294 0.080294
vt 0.116663 0.050447
vt 0.203178 0.014612
vt 0.250000 0.010000
vt 0.296822 0.014612
vt 0.341844 0.028269
vt 0.383337 0.050447
vt 0.419706 0.080294
vt 0.449553 0.116663
vt 0.485388 0.203178
vt 0.490000 0.250000
vt 0.485388 0.296822
vt 0.471731 0.341844
vt 0.449553 0.383337
vt 0.419706 0.419706
vt 0.383337 0.449553
vn 0.0000 1.0000 0.0000
vn -0.0980 -0.0000 -0.9952
vn 0.0980 -0.0000 -0.9952
vn 0.2903 -0.0000 -0.9569
vn 0.0000 -1.0000 0.0000
vn 0.4714 -0.0000 -0.8819
vn 0.6344 -0.0000 -0.7730
vn 0.7730 -0.0000 -0.6344
vn 0.8819 -0.0000 -0.4714
vn 0.9569 -0.0000 -0.2903
vn 0.9952 -0.0000 -0.0980
vn 0.9952 -0.0000 0.0980
vn 0.9569 -0.0000 0.2903
vn 0.8819 -0.0000 0.4714
vn 0.7730 -0.0000 0.6344
vn 0.6344 0.0000 0.7730
vn 0.4714 0.0000 0.8819
vn 0.2903 0.0000 0.9569
vn 0.0980 0.0000 0.9952
vn -0.0980 0.0000 0.9952
vn -0.2903 0.0000 0.9569
vn -0.4714 0.0000 0.8819
vn -0.6344 0.0000 0.7730
vn -0.7730 0.0000 0.6344
vn -0.8819 0.0000 0.4714
vn -0.9569 0.0000 0.2903
vn -0.9952 0.0000 0.0980
vn -0.9952 0.0000 -0.0980
vn -0.9569 0.0000 -0.2903
vn -0.8819 0.0000 -0.4714
vn -0.7730 0.0000 -0.6344
vn -0.6344 -0.0000 -0.7730
vn -0.4714 -0.0000 -0.8819
vn -0.2903 -0.0000 -0.9569
vn 0.0000 0.9981 0.0620
vn 0.0000 0.9991 -0.0419
vn 0.0000 0.9999 0.0105
vn 0.0000 0.9991 0.0419
vn 0.0000 1.0000 0.0056
vn 0.0000 1.0000 0.0080
vn 0.0000 1.0000 0.0022
vn 0.0000 1.0000 -0.0045
vn 0.0000 -0.9924 0.1233
vn 0.0000 -0.9981 -0.0620
vn 0.0000 -0.9981 0.0620
vn 0.0000 -1.0000 -0.0013
vn 0.0000 -0.9995 0.0310
vn 0.0000 -0.9991 -0.0419
vn 0.0000 -0.9995 -0.0310
vn 0.0000 -0.9999 -0.0155
vn 0.0000 -0.9999 -0.0122
vn 0.0000 -1.0000 0.0080
vn 0.0000 -1.0000 0.0022
vn 0.0000 -1.0000 0.0019
g rope_Sphere.002_Material
usemtl Material
s off
f 36/1/1 20/2/1 4/3/1
f 3/4/2 2/5/2 1/6/2
f 6/7/3 1/8/3 4/9/3
f 7/10/4 4/9/4 5/11/4
f 15/12/5 31/13/5 47/14/5
f 8/15/6 5/11/6 10/16/6
f 9/17/7 10/16/7 11/18/7
f 14/19/8 11/18/8 12/20/8
f 15/21/9 12/20/9 13/22/9
f 16/23/10 13/22/10 18/24/10
f 17/25/11 18/24/11 19/26/11
f 22/27/12 19/26/12 20/28/12
f 23/29/13 20/28/13 21/30/13
f 24/31/14 21/30/14 26/32/14
f 25/33/15 26/32/15 27/34/15
f 30/35/16 27/34/16 28/36/16
f 31/37/17 28/36/17 29/38/17
f 32/39/18 29/38/18 34/40/18
f 33/41/19 34/40/19 35/42/19
f 38/43/20 35/42/20 36/44/20
f 39/45/21 36/44/21 37/46/21
f 40/47/22 37/46/22 42/48/22
f 41/49/23 42/48/23 43/50/23
f 46/51/24 43/50/24 44/52/24
f 47/53/25 44/52/25 45/54/25
f 48/55/26 45/54/26 50/56/26
f 49/57/27 50/56/27 51/58/27
f 54/59/28 51/58/28 52/60/28
f 55/61/29 52/60/29 53/62/29
f 56/63/30 53/62/30 58/64/30
f 57/65/31 58/64/31 59/66/31
f 62/67/32 59/66/32 60/68/32
f 63/69/33 60/68/33 61/70/33
f 64/71/34 61/70/34 2/5/34
f 4/3/35 1/72/35 2/73/35
f 2/73/36 61/74/36 4/3/36
f 61/74/1 60/75/1 4/3/1
f 60/75/1 59/76/1 52/77/1
f 59/76/37 58/78/37 52/77/37
f 58/78/1 53/79/1 52/77/1
f 52/77/1 51/80/1 50/81/1
f 50/81/1 45/82/1 52/77/1
f 45/82/1 44/83/1 52/77/1
f 44/83/1 43/84/1 36/1/1
f 43/84/1 42/85/1 36/1/1
f 42/85/35 37/86/35 36/1/35
f 36/1/1 35/87/1 34/88/1
f 34/88/1 29/89/1 28/90/1
f 28/90/1 27/91/1 26/92/1
f 26/92/1 21/93/1 20/2/1
f 20/2/1 19/94/1 18/95/1
f 18/95/1 13/96/1 12/97/1
f 12/97/1 11/98/1 4/3/1
f 11/98/38 10/99/38 4/3/38
f 10/99/35 5/100/35 4/3/35
f 36/1/1 34/88/1 20/2/1
f 34/88/39 28/90/39 20/2/39
f 28/90/40 26/92/40 20/2/40
f 20/2/1 18/95/1 12/97/1
f 4/3/41 60/75/41 52/77/41
f 52/77/1 44/83/1 4/3/1
f 44/83/1 36/1/1 4/3/1
f 20/2/42 12/97/42 4/3/42
f 3/4/2 64/71/2 2/5/2
f 6/7/3 3/101/3 1/8/3
f 7/10/4 6/7/4 4/9/4
f 63/102/43 64/103/43 3/104/43
f 3/104/44 6/105/44 7/106/44
f 7/106/45 8/107/45 9/108/45
f 9/108/5 14/109/5 15/12/5
f 15/12/5 16/110/5 17/111/5
f 17/111/5 22/112/5 15/12/5
f 22/112/46 23/113/46 15/12/46
f 23/113/47 24/114/47 25/115/47
f 25/115/48 30/116/48 23/113/48
f 30/116/5 31/13/5 23/113/5
f 31/13/43 32/117/43 33/118/43
f 33/118/48 38/119/48 31/13/48
f 38/119/5 39/120/5 31/13/5
f 39/120/45 40/121/45 41/122/45
f 41/122/49 46/123/49 47/14/49
f 47/14/5 48/124/5 49/125/5
f 49/125/50 54/126/50 55/127/50
f 55/127/5 56/128/5 57/129/5
f 57/129/5 62/130/5 63/102/5
f 63/102/51 3/104/51 15/12/51
f 3/104/5 7/106/5 15/12/5
f 7/106/52 9/108/52 15/12/52
f 39/120/5 41/122/5 31/13/5
f 41/122/5 47/14/5 31/13/5
f 47/14/5 49/125/5 55/127/5
f 55/127/5 57/129/5 63/102/5
f 15/12/5 23/113/5 31/13/5
f 47/14/53 55/127/53 63/102/53
f 63/102/54 15/12/54 47/14/54
f 8/15/6 7/10/6 5/11/6
f 9/17/7 8/15/7 10/16/7
f 14/19/8 9/17/8 11/18/8
f 15/21/9 14/19/9 12/20/9
f 16/23/10 15/21/10 13/22/10
f 17/25/11 16/23/11 18/24/11
f 22/27/12 17/25/12 19/26/12
f 23/29/13 22/27/13 20/28/13
f 24/31/14 23/29/14 21/30/14
f 25/33/15 24/31/15 26/32/15
f 30/35/16 25/33/16 27/34/16
f 31/37/17 30/35/17 28/36/17
f 32/39/18 31/37/18 29/38/18
f 33/41/19 32/39/19 34/40/19
f 38/43/20 33/41/20 35/42/20
f 39/45/21 38/43/21 36/44/21
f 40/47/22 39/45/22 37/46/22
f 41/49/23 40/47/23 42/48/23
f 46/51/24 41/49/24 43/50/24
f 47/53/25 46/51/25 44/52/25
f 48/55/26 47/53/26 45/54/26
f 49/57/27 48/55/27 50/56/27
f 54/59/28 49/57/28 51/58/28
f 55/61/29 54/59/29 52/60/29
f 56/63/30 55/61/30 53/62/30
f 57/65/31 56/63/31 58/64/31
f 62/67/32 57/65/32 59/66/32
f 63/69/33 62/67/33 60/68/33
f 64/71/34 63/69/34 61/70/34
