# Blender v2.82 (sub 7) OBJ File: ''
# www.blender.org
mtllib elevator.mtl
o back_fin.003
v 0.025157 -0.218190 -0.023336
v 0.025157 0.215810 0.026664
v 0.025157 -0.218190 0.026664
v 0.022281 -0.218190 -0.023227
v 0.025157 0.215810 -0.023336
v 0.025157 -0.218190 -0.023336
v 0.001804 -0.218190 -0.022130
v 0.022281 0.215810 -0.023227
v -0.025471 -0.218190 -0.019938
v 0.001804 0.215810 -0.022130
v -0.052713 -0.218190 -0.017094
v -0.025471 0.215810 -0.019938
v -0.086720 -0.218190 -0.012810
v -0.052713 0.215810 -0.017094
v -0.120673 -0.218190 -0.007827
v -0.086720 0.215810 -0.012810
v -0.154566 -0.218190 -0.002152
v -0.120673 0.215810 -0.007827
v -0.174843 -0.218190 0.001664
v -0.154566 0.215810 -0.002152
v -0.168103 -0.218190 0.003000
v -0.174843 0.215810 0.001664
v -0.174843 -0.218190 0.001664
v -0.134239 -0.218190 0.008972
v -0.168103 0.215810 0.003000
v -0.100308 -0.218190 0.014227
v -0.134239 0.215810 0.008972
v -0.066322 -0.218190 0.018798
v -0.100308 0.215810 0.014227
v -0.032285 -0.218190 0.022611
v -0.066322 0.215810 0.018798
v -0.005018 -0.218190 0.024981
v -0.032285 0.215810 0.022611
v 0.015454 -0.218190 0.026250
v -0.005018 0.215810 0.024981
v 0.025157 -0.218190 0.026664
v 0.015454 0.215810 0.026250
v 0.022281 -0.218190 -0.023227
v 0.025157 -0.218190 -0.023336
v 0.025157 -0.218190 0.026664
v 0.001804 -0.218190 -0.022130
v 0.015454 -0.218190 0.026250
v -0.025471 -0.218190 -0.019938
v -0.005018 -0.218190 0.024981
v -0.032285 -0.218190 0.022611
v -0.052713 -0.218190 -0.017094
v -0.086720 -0.218190 -0.012810
v -0.066322 -0.218190 0.018798
v -0.120673 -0.218190 -0.007827
v -0.100308 -0.218190 0.014227
v -0.154566 -0.218190 -0.002152
v -0.134239 -0.218190 0.008972
v -0.168103 -0.218190 0.003000
v -0.174843 -0.218190 0.001664
v 0.022281 0.215810 -0.023227
v 0.025157 0.215810 0.026664
v 0.025157 0.215810 -0.023336
v 0.001804 0.215810 -0.022130
v 0.015454 0.215810 0.026250
v -0.025471 0.215810 -0.019938
v -0.005018 0.215810 0.024981
v -0.032285 0.215810 0.022611
v -0.052713 0.215810 -0.017094
v -0.086720 0.215810 -0.012810
v -0.066322 0.215810 0.018798
v -0.120673 0.215810 -0.007827
v -0.100308 0.215810 0.014227
v -0.154566 0.215810 -0.002152
v -0.134239 0.215810 0.008972
v -0.168103 0.215810 0.003000
v -0.174843 0.215810 0.001664
v 0.025157 0.215810 -0.023336
v -0.174843 0.215810 0.001664
v 0.025157 0.215810 0.026664
vn 1.0000 0.0000 0.0000
vn -0.0457 0.0000 -0.9990
vn -0.0379 0.0000 -0.9993
vn -0.0668 0.0000 -0.9978
vn -0.0920 0.0000 -0.9958
vn -0.1144 0.0000 -0.9934
vn -0.1351 0.0000 -0.9908
vn -0.1552 0.0000 -0.9879
vn -0.1751 0.0000 -0.9846
vn -0.1849 0.0000 -0.9827
vn -0.1841 -0.0000 0.9829
vn -0.1944 -0.0000 0.9809
vn -0.1634 -0.0000 0.9866
vn -0.1432 -0.0000 0.9897
vn -0.1223 -0.0000 0.9925
vn -0.0990 -0.0000 0.9951
vn -0.0742 -0.0000 0.9972
vn -0.0523 -0.0000 0.9986
vn -0.0426 -0.0000 0.9991
vn 0.0000 -1.0000 -0.0000
vn 0.0000 1.0000 -0.0000
usemtl Default_OBJ.009
s 1
f 1//1 2//1 3//1
f 4//2 5//3 6//3
f 7//4 8//2 4//2
f 9//5 10//4 7//4
f 11//6 12//5 9//5
f 13//7 14//6 11//6
f 15//8 16//7 13//7
f 17//9 18//8 15//8
f 19//10 20//9 17//9
f 21//11 22//12 23//12
f 24//13 25//11 21//11
f 26//14 27//13 24//13
f 28//15 29//14 26//14
f 30//16 31//15 28//15
f 32//17 33//16 30//16
f 34//18 35//17 32//17
f 36//19 37//18 34//18
f 38//20 39//20 40//20
f 41//20 38//20 42//20
f 43//20 41//20 44//20
f 42//20 38//20 40//20
f 44//20 41//20 42//20
f 44//20 45//20 43//20
f 45//20 46//20 43//20
f 47//20 46//20 48//20
f 49//20 47//20 50//20
f 51//20 49//20 52//20
f 50//20 47//20 48//20
f 52//20 53//20 51//20
f 49//20 50//20 52//20
f 54//20 51//20 53//20
f 45//20 48//20 46//20
f 55//21 56//21 57//21
f 58//21 59//21 55//21
f 60//21 61//21 58//21
f 59//21 56//21 55//21
f 61//21 59//21 58//21
f 61//21 60//21 62//21
f 62//21 60//21 63//21
f 64//21 65//21 63//21
f 66//21 67//21 64//21
f 68//21 69//21 66//21
f 67//21 65//21 64//21
f 69//21 68//21 70//21
f 66//21 69//21 67//21
f 71//21 70//21 68//21
f 62//21 63//21 65//21
f 1//1 72//1 2//1
f 4//2 8//2 5//3
f 7//4 10//4 8//2
f 9//5 12//5 10//4
f 11//6 14//6 12//5
f 13//7 16//7 14//6
f 15//8 18//8 16//7
f 17//9 20//9 18//8
f 19//10 73//10 20//9
f 21//11 25//11 22//12
f 24//13 27//13 25//11
f 26//14 29//14 27//13
f 28//15 31//15 29//14
f 30//16 33//16 31//15
f 32//17 35//17 33//16
f 34//18 37//18 35//17
f 36//19 74//19 37//18
